<?xml version="1.0" encoding="UTF-8"?>
<svg id="Logos" xmlns="http://www.w3.org/2000/svg" xmlns:xlink="http://www.w3.org/1999/xlink" viewBox="0 0 411.81 445.33">
  <defs>
    <style>
      .cls-1 {
        fill: url(#linear-gradient);
      }

      .cls-2 {
        fill: #ff580a;
      }

      .cls-3 {
        fill: #ffbe2e;
      }

      .cls-4 {
        fill: #0b4778;
      }

      .cls-5 {
        fill: #2d353a;
      }

      .cls-6 {
        fill: url(#linear-gradient-3);
      }

      .cls-7 {
        fill: url(#linear-gradient-2);
      }
    </style>
    <linearGradient id="linear-gradient" x1="195.68" y1="330.51" x2="361.49" y2="330.51" gradientUnits="userSpaceOnUse">
      <stop offset="0" stop-color="#fa9441"/>
      <stop offset=".01" stop-color="#fa923f"/>
      <stop offset=".24" stop-color="#fc7828"/>
      <stop offset=".48" stop-color="#fd6617"/>
      <stop offset=".73" stop-color="#fe5b0d"/>
      <stop offset="1" stop-color="#ff580a"/>
    </linearGradient>
    <linearGradient id="linear-gradient-2" x1="0" y1="362.31" x2="359.81" y2="362.31" xlink:href="#linear-gradient"/>
    <linearGradient id="linear-gradient-3" x1="31.22" y1="406.89" x2="270.87" y2="406.89" xlink:href="#linear-gradient"/>
  </defs>
  <path class="cls-3" d="m37.67,85.36c220.25-193.23,446.47,74.32,322.13,256.83C532.97,148.76,234.55-147.33,37.67,85.36Z"/>
  <path class="cls-1" d="m195.68,330.76c97,54.37,151.38,4.7,165.81-9.06-66.12-27.19-119.83-17.79-165.81,9.06Z"/>
  <path class="cls-7" d="m216.49,356.6c-60.42-20.14-92.3-70.49-216.49-30.54l22.82,37.26s82.9-25.84,158.43,19.47c57.06,25.17,111.91,70.36,178.56-40.61,0,0-53.37,48.33-143.32,14.43Z"/>
  <path class="cls-6" d="m220.18,415.67c-19.8-5.37-53.03-24.84-89.28-39.94-36.25-15.1-98.34-2.01-98.34-2.01l-1.34-1.01c5.71,7.72,13.09,19.13,57.73,48.33,88.95,45.65,154.4,15.1,181.92,3.36-16.45.67-30.88-3.36-50.68-8.73Z"/>
  <g>
    <path class="cls-5" d="m155.37,78.47h2.86v15.7h-2.86v-15.7Z"/>
    <path class="cls-5" d="m165.33,80.87h-4.51v-2.4h11.88v2.4h-4.51v13.3h-2.86v-13.3Z"/>
    <path class="cls-5" d="m173.22,78.47h3.02l2.09,7.85c.48,1.78.84,3.31,1.37,5.09h.1c.53-1.78.86-3.31,1.37-5.09l2.23-7.85h2.93l-4.94,15.7h-3.38l-4.78-15.7Z"/>
    <path class="cls-5" d="m188.2,78.47h3.36l2.69,7.68c.34,1.01.62,1.92.91,3.07h.1c.29-1.15.53-2.06.86-3.07l2.69-7.68h3.36v15.7h-2.64v-7.15c0-1.49.24-3.65.43-5.09h-.1l-1.25,3.79-2.54,7.01h-1.87l-2.5-7.01-1.25-3.79h-.1c.19,1.44.43,3.6.43,5.09v7.15h-2.59v-15.7Z"/>
    <path class="cls-5" d="m205.31,86.25c0-5.06,2.83-8.06,6.94-8.06s6.94,3,6.94,8.06-2.83,8.21-6.94,8.21-6.94-3.12-6.94-8.21Zm10.94,0c0-3.48-1.58-5.57-4.01-5.57s-4.01,2.09-4.01,5.57,1.56,5.74,4.01,5.74,4.01-2.23,4.01-5.74Z"/>
  </g>
  <g>
    <path class="cls-4" d="m81.65,110.99h2.44l13.57,38.22h-2.67l-4.52-13.22h-15.2l-4.58,13.22h-2.55l13.51-38.22Zm-5.63,22.85h13.75l-2.49-7.25c-1.57-4.52-2.9-8.53-4.29-13.22h-.23c-1.33,4.7-2.67,8.7-4.23,13.22l-2.49,7.25Z"/>
    <path class="cls-4" d="m110.47,110.99h2.67l16.24,27.14c1.45,2.55,2.96,5.16,4.29,7.71h.23c-.12-3.77-.29-7.42-.29-11.08v-23.78h2.32v38.22h-2.61l-16.24-27.14c-1.51-2.55-3.02-5.22-4.35-7.71h-.23c.12,3.65.29,7.08.29,10.73v24.13h-2.32v-38.22Z"/>
    <path class="cls-4" d="m153.97,110.99h2.67l16.24,27.14c1.45,2.55,2.96,5.16,4.29,7.71h.23c-.12-3.77-.29-7.42-.29-11.08v-23.78h2.32v38.22h-2.61l-16.24-27.14c-1.51-2.55-3.02-5.22-4.35-7.71h-.23c.12,3.65.29,7.08.29,10.73v24.13h-2.32v-38.22Z"/>
    <path class="cls-4" d="m197.36,134.65v-23.66h2.49v23.32c0,10.27,4.81,13.34,10.27,13.34s10.5-3.07,10.5-13.34v-23.32h2.38v23.66c0,11.89-6.38,15.25-12.88,15.25s-12.76-3.36-12.76-15.25Z"/>
    <path class="cls-4" d="m248.05,110.99h2.44l13.57,38.22h-2.67l-4.52-13.22h-15.2l-4.58,13.22h-2.55l13.51-38.22Zm-5.63,22.85h13.75l-2.49-7.25c-1.57-4.52-2.9-8.53-4.29-13.22h-.23c-1.33,4.7-2.67,8.7-4.23,13.22l-2.49,7.25Z"/>
    <path class="cls-4" d="m276.87,110.99h2.49v36.08h17.69v2.15h-20.18v-38.22Z"/>
    <path class="cls-4" d="m72.6,192.11l1.57-1.68c2.78,3.19,6.79,5.22,11.31,5.22,5.92,0,9.63-3.19,9.63-7.83s-3.13-6.38-6.9-8.06l-5.8-2.61c-3.31-1.51-7.77-3.83-7.77-9.51s4.7-9.34,11.02-9.34c4.64,0,8.29,2.09,10.61,4.52l-1.45,1.68c-2.26-2.38-5.34-3.94-9.16-3.94-5.1,0-8.53,2.73-8.53,6.96,0,4.52,3.83,6.21,6.61,7.42l5.86,2.61c4.23,1.91,8.06,4.23,8.06,10.09s-4.81,10.27-12.18,10.27c-5.63,0-9.92-2.38-12.88-5.8Z"/>
    <path class="cls-4" d="m112.27,182.65v-23.66h2.49v23.32c0,10.27,4.81,13.34,10.27,13.34s10.5-3.07,10.5-13.34v-23.32h2.38v23.66c0,11.89-6.38,15.25-12.88,15.25s-12.76-3.36-12.76-15.25Z"/>
    <path class="cls-4" d="m155.77,158.99h3.65l8,22.62c.99,2.84,2.03,5.63,3.02,8.53h.23c.99-2.9,1.91-5.68,2.9-8.53l8-22.62h3.65v38.22h-2.44v-25.52c0-3.07.23-7.08.35-10.27h-.23l-2.96,8.58-8.29,23.03h-2.32l-8.35-23.03-3.02-8.58h-.23c.12,3.19.35,7.19.35,10.27v25.52h-2.32v-38.22Z"/>
    <path class="cls-4" d="m203.27,158.99h3.65l8,22.62c.99,2.84,2.03,5.63,3.02,8.53h.23c.99-2.9,1.91-5.68,2.9-8.53l8-22.62h3.65v38.22h-2.44v-25.52c0-3.07.23-7.08.35-10.27h-.23l-2.96,8.58-8.29,23.03h-2.32l-8.35-23.03-3.02-8.58h-.23c.12,3.19.35,7.19.35,10.27v25.52h-2.32v-38.22Z"/>
    <path class="cls-4" d="m250.77,158.99h2.49v38.22h-2.49v-38.22Z"/>
    <path class="cls-4" d="m279.54,161.14h-12.18v-2.15h26.91v2.15h-12.24v36.08h-2.49v-36.08Z"/>
  </g>
  <g>
    <path class="cls-4" d="m148.08,247.12c5.15-4.55,8.98-8.28,8.98-11.19,0-1.98-1.09-3-2.84-3-1.45,0-2.61.99-3.63,2.08l-2.64-2.64c2.05-2.31,3.99-3.47,6.96-3.47,4.16,0,7.03,2.67,7.03,6.7,0,3.76-3.43,7.16-6.96,10.59,1.09-.1,2.54-.23,3.5-.23h4.49v4.29h-14.89v-3.14Z"/>
    <path class="cls-4" d="m167.69,239.7c0-7.16,3.04-10.79,7.59-10.79s7.59,3.66,7.59,10.79-3.04,10.96-7.59,10.96-7.59-3.83-7.59-10.96Zm10.36,0c0-5.68-1.25-6.83-2.77-6.83s-2.77,1.16-2.77,6.83,1.22,7.03,2.77,7.03,2.77-1.39,2.77-7.03Z"/>
    <path class="cls-4" d="m187.35,247.12c5.15-4.55,8.98-8.28,8.98-11.19,0-1.98-1.09-3-2.84-3-1.45,0-2.61.99-3.63,2.08l-2.64-2.64c2.05-2.31,3.99-3.47,6.96-3.47,4.16,0,7.03,2.67,7.03,6.7,0,3.76-3.43,7.16-6.96,10.59,1.09-.1,2.54-.23,3.5-.23h4.49v4.29h-14.89v-3.14Z"/>
    <path class="cls-4" d="m206.46,247.69l2.34-3.23c1.29,1.22,2.84,2.08,4.49,2.08,2.01,0,3.3-.83,3.3-2.34,0-1.75-.99-2.8-5.48-2.8v-3.6c3.66,0,4.82-1.09,4.82-2.67,0-1.42-.89-2.18-2.48-2.18-1.45,0-2.54.63-3.83,1.78l-2.57-3.1c1.95-1.68,4.09-2.71,6.63-2.71,4.46,0,7.36,2.08,7.36,5.81,0,2.11-1.22,3.66-3.47,4.62v.13c2.41.69,4.13,2.38,4.13,5.08,0,3.93-3.63,6.11-7.89,6.11-3.4,0-5.81-1.19-7.36-2.97Z"/>
  </g>
  <g>
    <path class="cls-4" d="m109.5,276.74h2.44l1.12,6.6c.22,1.4.4,2.76.56,4.28h.08c.24-1.52.5-2.9.8-4.28l1.56-6.6h2.28l1.56,6.6c.3,1.36.6,2.76.84,4.28h.08c.16-1.52.36-2.9.56-4.28l1.12-6.6h2.26l-2.5,13.08h-3.04l-1.56-6.88c-.24-1.04-.32-1.96-.48-3.16h-.08c-.16,1.2-.3,2.12-.52,3.16l-1.48,6.88h-3l-2.6-13.08Z"/>
    <path class="cls-4" d="m127.04,287.18c0-2.16,1.72-3.24,5.76-3.68-.04-1-.44-1.84-1.76-1.84-.96,0-1.88.4-2.76.92l-.84-1.56c1.08-.68,2.48-1.28,4.04-1.28,2.44,0,3.68,1.52,3.68,4.26v5.82h-1.92l-.2-1.08h-.08c-.88.76-1.84,1.32-3,1.32-1.72,0-2.92-1.16-2.92-2.88Zm5.76,0v-2.08c-2.68.32-3.48.92-3.48,1.92,0,.84.56,1.16,1.36,1.16s1.4-.32,2.12-1Z"/>
    <path class="cls-4" d="m138.18,288.62l1.04-1.34c.86.7,1.76,1,2.76,1s1.54-.48,1.54-1.14c0-.82-.96-1.14-2.06-1.54-1.42-.52-2.74-1.34-2.74-2.9,0-1.72,1.4-2.96,3.6-2.96,1.34,0,2.48.5,3.28,1.2l-1.02,1.34c-.7-.52-1.42-.76-2.2-.76-.98,0-1.42.48-1.42,1.06,0,.72.7,1,1.94,1.42,1.52.52,2.86,1.3,2.86,3s-1.36,3.06-3.86,3.06c-1.36,0-2.76-.52-3.72-1.44Z"/>
    <path class="cls-4" d="m149.04,275.7h2.38v3.64l-.1,1.88c.8-.76,1.78-1.48,3.12-1.48,2.12,0,3.04,1.44,3.04,3.92v6.16h-2.36v-5.86c0-1.6-.46-2.18-1.5-2.18-.86,0-1.42.4-2.2,1.2v6.84h-2.38v-14.12Z"/>
    <path class="cls-4" d="m161.26,276.96c0-.8.58-1.34,1.42-1.34s1.42.54,1.42,1.34-.58,1.34-1.42,1.34-1.42-.54-1.42-1.34Zm.22,3.02h2.38v9.84h-2.38v-9.84Z"/>
    <path class="cls-4" d="m168,279.98h1.94l.18,1.32h.06c.88-.84,1.88-1.56,3.22-1.56,2.12,0,3.04,1.44,3.04,3.92v6.16h-2.36v-5.86c0-1.6-.46-2.18-1.5-2.18-.86,0-1.42.4-2.2,1.2v6.84h-2.38v-9.84Z"/>
    <path class="cls-4" d="m179.82,291.61c0-.84.52-1.54,1.42-2.1v-.08c-.5-.32-.9-.84-.9-1.64s.52-1.42,1.1-1.82v-.08c-.68-.5-1.3-1.44-1.3-2.6,0-2.26,1.84-3.54,3.9-3.54.54,0,1.06.1,1.46.24h3.52v1.76h-1.76c.3.36.54.96.54,1.62,0,2.18-1.68,3.34-3.76,3.34-.42,0-.88-.08-1.32-.24-.28.24-.46.48-.46.92,0,.54.4.86,1.58.86h1.74c2.34,0,3.6.74,3.6,2.44,0,1.94-2.04,3.48-5.26,3.48-2.34,0-4.1-.84-4.1-2.56Zm7.08-.54c0-.74-.6-.96-1.7-.96h-1.32c-.54,0-.96-.04-1.34-.14-.52.4-.74.82-.74,1.28,0,.88.96,1.38,2.48,1.38s2.62-.72,2.62-1.56Zm-1.2-7.78c0-1.22-.72-1.9-1.66-1.9s-1.68.68-1.68,1.9.76,1.94,1.68,1.94,1.66-.7,1.66-1.94Z"/>
    <path class="cls-4" d="m192.52,286.48v-4.62h-1.4v-1.76l1.52-.12.28-3.06h1.96v3.06h2.5v1.88h-2.5v4.62c0,1.14.46,1.7,1.38,1.7.34,0,.68-.06,1.02-.2l.42,1.66c-.52.24-1.24.42-2.04.42-2.3,0-3.14-1.44-3.14-3.58Z"/>
    <path class="cls-4" d="m199.72,284.92c0-3.28,2.24-5.18,4.7-5.18s4.68,1.9,4.68,5.18-2.24,5.14-4.68,5.14-4.7-1.88-4.7-5.14Zm6.96,0c0-1.96-.84-3.24-2.26-3.24s-2.26,1.28-2.26,3.24.84,3.22,2.26,3.22,2.26-1.28,2.26-3.22Z"/>
    <path class="cls-4" d="m212.6,279.98h1.94l.18,1.32h.06c.88-.84,1.88-1.56,3.22-1.56,2.12,0,3.04,1.44,3.04,3.92v6.16h-2.36v-5.86c0-1.6-.46-2.18-1.5-2.18-.86,0-1.42.4-2.2,1.2v6.84h-2.38v-9.84Z"/>
    <path class="cls-4" d="m224.58,292.21c1.32-.52,2.06-1.42,2.04-2.44h-.18c-.8,0-1.5-.5-1.5-1.44,0-.88.7-1.44,1.56-1.44,1.12,0,1.74.9,1.74,2.42,0,1.98-1.14,3.5-3.16,4.2l-.5-1.3Z"/>
    <path class="cls-4" d="m237.38,276.74h3.5c4,0,6.4,2.14,6.4,6.48s-2.4,6.6-6.28,6.6h-3.62v-13.08Zm3.34,11.16c2.6,0,4.1-1.46,4.1-4.68s-1.5-4.54-4.1-4.54h-.96v9.22h.96Z"/>
    <path class="cls-4" d="m250.48,283.32c0-4.28,2.68-6.82,6-6.82,1.64,0,2.96.76,3.78,1.66l-1.26,1.46c-.68-.66-1.46-1.04-2.48-1.04-2.08,0-3.6,1.76-3.6,4.68s1.38,4.74,3.56,4.74c1.14,0,2.04-.46,2.76-1.26l1.28,1.42c-1.1,1.26-2.46,1.9-4.14,1.9-3.28,0-5.9-2.4-5.9-6.74Z"/>
  </g>
  <rect class="cls-2" x="25.17" y="213.2" width="322.22" height="3.16"/>
  <rect class="cls-2" x="25.17" y="263.32" width="322.22" height="3.16"/>
  <text/>
</svg>