<?xml version="1.0" encoding="UTF-8"?>
<svg id="Logos" xmlns="http://www.w3.org/2000/svg" xmlns:xlink="http://www.w3.org/1999/xlink" viewBox="0 0 415.19 445.17">
  <defs>
    <style>
      .cls-1 {
        fill: #ff580a;
      }

      .cls-1, .cls-2, .cls-3, .cls-4, .cls-5, .cls-6, .cls-7 {
        stroke-width: 0px;
      }

      .cls-2 {
        fill: url(#linear-gradient);
      }

      .cls-3 {
        fill: #2d353a;
      }

      .cls-4 {
        fill: #ffbe2e;
      }

      .cls-5 {
        fill: url(#linear-gradient-2);
      }

      .cls-6 {
        fill: url(#linear-gradient-3);
      }

      .cls-7, .cls-8 {
        fill: #0b4778;
      }

      .cls-8 {
        font-family: SourceSansPro-Bold, 'Source Sans Pro';
        font-size: 60.52px;
        font-weight: 700;
        letter-spacing: .06em;
      }
    </style>
    <linearGradient id="linear-gradient" x1="202.39" y1="321.62" x2="368.2" y2="321.62" gradientUnits="userSpaceOnUse">
      <stop offset="0" stop-color="#fa9441"/>
      <stop offset=".01" stop-color="#fa923f"/>
      <stop offset=".24" stop-color="#fc7828"/>
      <stop offset=".48" stop-color="#fd6617"/>
      <stop offset=".73" stop-color="#fe5b0d"/>
      <stop offset="1" stop-color="#ff580a"/>
    </linearGradient>
    <linearGradient id="linear-gradient-2" x1="6.71" y1="353.43" x2="366.53" y2="353.43" xlink:href="#linear-gradient"/>
    <linearGradient id="linear-gradient-3" x1="37.93" y1="398.01" x2="277.58" y2="398.01" xlink:href="#linear-gradient"/>
  </defs>
  <path class="cls-4" d="M60.97,65.16c249.57-153.49,427.65,148.25,274.42,307.28C538.58,210.86,294.13-131.15,60.97,65.16Z"/>
  <path class="cls-2" d="M202.39,321.87c97,54.37,151.38,4.7,165.81-9.06-66.12-27.19-119.83-17.79-165.81,9.06Z"/>
  <path class="cls-5" d="M223.2,347.72c-60.42-20.14-92.3-70.49-216.49-30.54l22.82,37.26s82.9-25.84,158.43,19.47c57.06,25.17,111.91,70.36,178.56-40.61,0,0-53.37,48.33-143.32,14.43Z"/>
  <path class="cls-6" d="M226.9,406.79c-19.8-5.37-53.03-24.84-89.28-39.94-36.25-15.1-98.34-2.01-98.34-2.01l-1.34-1.01c5.71,7.72,13.09,19.13,57.73,48.33,88.95,45.65,154.4,15.1,181.92,3.36-16.45.67-30.88-3.36-50.68-8.73Z"/>
  <g>
    <path class="cls-3" d="M162.08,75.59h2.86v15.7h-2.86v-15.7Z"/>
    <path class="cls-3" d="M172.04,77.99h-4.51v-2.4h11.88v2.4h-4.51v13.3h-2.86v-13.3Z"/>
    <path class="cls-3" d="M179.94,75.59h3.02l2.09,7.85c.48,1.78.84,3.31,1.37,5.09h.1c.53-1.78.86-3.31,1.37-5.09l2.23-7.85h2.93l-4.94,15.7h-3.38l-4.78-15.7Z"/>
    <path class="cls-3" d="M194.91,75.59h3.36l2.69,7.68c.34,1.01.62,1.92.91,3.07h.1c.29-1.15.53-2.06.86-3.07l2.69-7.68h3.36v15.7h-2.64v-7.15c0-1.49.24-3.65.43-5.09h-.1l-1.25,3.79-2.54,7.01h-1.87l-2.5-7.01-1.25-3.79h-.1c.19,1.44.43,3.6.43,5.09v7.15h-2.59v-15.7Z"/>
    <path class="cls-3" d="M212.02,83.36c0-5.06,2.83-8.06,6.94-8.06s6.94,3,6.94,8.06-2.83,8.21-6.94,8.21-6.94-3.12-6.94-8.21ZM222.97,83.36c0-3.48-1.58-5.57-4.01-5.57s-4.01,2.09-4.01,5.57,1.56,5.74,4.01,5.74,4.01-2.23,4.01-5.74Z"/>
  </g>
  <g>
    <path class="cls-7" d="M88.36,108.11h2.44l13.57,38.22h-2.67l-4.52-13.22h-15.2l-4.58,13.22h-2.55l13.51-38.22ZM82.73,130.96h13.75l-2.49-7.25c-1.57-4.52-2.9-8.53-4.29-13.22h-.23c-1.33,4.7-2.67,8.7-4.23,13.22l-2.49,7.25Z"/>
    <path class="cls-7" d="M117.19,108.11h2.67l16.24,27.14c1.45,2.55,2.96,5.16,4.29,7.71h.23c-.12-3.77-.29-7.42-.29-11.08v-23.78h2.32v38.22h-2.61l-16.24-27.14c-1.51-2.55-3.02-5.22-4.35-7.71h-.23c.12,3.65.29,7.08.29,10.73v24.13h-2.32v-38.22Z"/>
    <path class="cls-7" d="M160.68,108.11h2.67l16.24,27.14c1.45,2.55,2.96,5.16,4.29,7.71h.23c-.12-3.77-.29-7.42-.29-11.08v-23.78h2.32v38.22h-2.61l-16.24-27.14c-1.51-2.55-3.02-5.22-4.35-7.71h-.23c.12,3.65.29,7.08.29,10.73v24.13h-2.32v-38.22Z"/>
    <path class="cls-7" d="M204.07,131.77v-23.66h2.49v23.32c0,10.27,4.81,13.34,10.27,13.34s10.5-3.07,10.5-13.34v-23.32h2.38v23.66c0,11.89-6.38,15.25-12.88,15.25s-12.76-3.36-12.76-15.25Z"/>
    <path class="cls-7" d="M254.76,108.11h2.44l13.57,38.22h-2.67l-4.52-13.22h-15.2l-4.58,13.22h-2.55l13.51-38.22ZM249.13,130.96h13.75l-2.49-7.25c-1.57-4.52-2.9-8.53-4.29-13.22h-.23c-1.33,4.7-2.67,8.7-4.23,13.22l-2.49,7.25Z"/>
    <path class="cls-7" d="M283.59,108.11h2.49v36.08h17.69v2.15h-20.18v-38.22Z"/>
    <path class="cls-7" d="M79.31,189.23l1.57-1.68c2.78,3.19,6.79,5.22,11.31,5.22,5.92,0,9.63-3.19,9.63-7.83s-3.13-6.38-6.9-8.06l-5.8-2.61c-3.31-1.51-7.77-3.83-7.77-9.51s4.7-9.34,11.02-9.34c4.64,0,8.29,2.09,10.61,4.52l-1.45,1.68c-2.26-2.38-5.34-3.94-9.16-3.94-5.1,0-8.53,2.73-8.53,6.96,0,4.52,3.83,6.21,6.61,7.42l5.86,2.61c4.23,1.91,8.06,4.23,8.06,10.09s-4.81,10.27-12.18,10.27c-5.63,0-9.92-2.38-12.88-5.8Z"/>
    <path class="cls-7" d="M118.98,179.77v-23.66h2.49v23.32c0,10.27,4.81,13.34,10.27,13.34s10.5-3.07,10.5-13.34v-23.32h2.38v23.66c0,11.89-6.38,15.25-12.88,15.25s-12.76-3.36-12.76-15.25Z"/>
    <path class="cls-7" d="M162.48,156.11h3.65l8,22.62c.99,2.84,2.03,5.63,3.02,8.53h.23c.99-2.9,1.91-5.68,2.9-8.53l8-22.62h3.65v38.22h-2.44v-25.52c0-3.07.23-7.08.35-10.27h-.23l-2.96,8.58-8.29,23.03h-2.32l-8.35-23.03-3.02-8.58h-.23c.12,3.19.35,7.19.35,10.27v25.52h-2.32v-38.22Z"/>
    <path class="cls-7" d="M209.98,156.11h3.65l8,22.62c.99,2.84,2.03,5.63,3.02,8.53h.23c.99-2.9,1.91-5.68,2.9-8.53l8-22.62h3.65v38.22h-2.44v-25.52c0-3.07.23-7.08.35-10.27h-.23l-2.96,8.58-8.29,23.03h-2.32l-8.35-23.03-3.02-8.58h-.23c.12,3.19.35,7.19.35,10.27v25.52h-2.32v-38.22Z"/>
    <path class="cls-7" d="M257.49,156.11h2.49v38.22h-2.49v-38.22Z"/>
    <path class="cls-7" d="M286.25,158.25h-12.18v-2.15h26.91v2.15h-12.24v36.08h-2.49v-36.08Z"/>
  </g>
  <rect class="cls-1" x="31.89" y="210.32" width="322.22" height="3.16"/>
  <text/>
  <text class="cls-8" transform="translate(122.55 266.39)"><tspan x="0" y="0">2024</tspan></text>
</svg>