<?xml version="1.0" encoding="UTF-8"?>
<svg id="_Layer_" data-name="&amp;lt;Layer&amp;gt;" xmlns="http://www.w3.org/2000/svg" viewBox="0 0 212.05 248.88">
  <defs>
    <style>
      .cls-1 {
        fill: #f1cf25;
      }

      .cls-2 {
        fill: #fff;
      }

      .cls-3 {
        fill: #080717;
      }
    </style>
  </defs>
  <path class="cls-3" d="m117.14,209.65c-2.13,0-46.89,8.74-78.76,15.02-16.81,3.31-32.72-8.85-33.94-25.94L.09,137.35c-1.17-16.47,9.16-31.58,24.94-36.46l56.86-17.6,52.08,2.39c12.94.59,24.95,6.89,32.79,17.2l34.18,44.92-83.8,61.85Z"/>
  <g>
    <g>
      <path class="cls-2" d="m63.02,89.89l-5.87-18.61,30.99-9.76,7.5,23.8c3.09-.07,6.15-.04,9.18.07-.73,16.72-9.42,30.09-21.36,31.34-11.63,1.22-22.6-9.43-27.04-24.94,2.16-.69,4.37-1.31,6.6-1.9Z"/>
      <path class="cls-3" d="m81.67,117.82c-11.19,0-21.78-10.28-26.2-25.76-.15-.52.14-1.06.66-1.23,1.69-.54,3.54-1.08,5.64-1.64l-5.55-17.62c-.08-.25-.06-.53.07-.76.12-.24.33-.41.59-.49l30.99-9.76c.25-.08.53-.06.76.07.24.12.41.33.49.59l7.27,23.08c2.8-.05,5.65-.02,8.49.09.27,0,.52.13.7.32.18.2.27.46.26.72-.76,17.44-10.12,31.02-22.26,32.29-.63.07-1.27.1-1.9.1Zm-24-25.37c4.56,14.86,15.03,24.38,25.69,23.28,10.91-1.14,19.4-13.43,20.42-29.38-2.72-.09-5.44-.1-8.1-.04-.47.01-.84-.28-.98-.7l-7.2-22.85-29.08,9.16,5.56,17.66c.08.26.05.54-.08.78-.13.24-.36.41-.62.48-2.09.55-3.94,1.07-5.62,1.59Z"/>
    </g>
    <path class="cls-3" d="m63.97,92.89l-6.81-21.61,19.68-6.2,8.61,5.41c-2.29,9.82-9.79,17.96-21.49,22.4Z"/>
    <path class="cls-3" d="m62.14,73.02h0c-18.36.65-33.78-13.7-34.43-32.06l-.06-1.77c-.65-18.36,13.7-33.78,32.06-34.43h0c18.36-.65,33.78,13.7,34.43,32.06l.06,1.77c.65,18.36-13.7,33.78-32.06,34.43Z"/>
    <path class="cls-3" d="m69.92,62.67h0c-15.32.55-28.19-11.43-28.74-26.76l-.2-5.68c-.55-15.32,11.43-28.19,26.76-28.74h0c15.32-.55,28.19,11.43,28.74,26.76l.2,5.68c.55,15.32-11.43,28.19-26.76,28.74Z"/>
    <path class="cls-3" d="m98.81,25.19c-.45,0-.86-.3-.97-.76-1.99-7.96-6.05-13.82-12.08-17.4-6.36-3.78-14.94-4.8-22.94-2.72-.54.14-1.08-.18-1.22-.72-.14-.53.18-1.08.72-1.22,8.51-2.21,17.65-1.11,24.46,2.94,6.5,3.86,10.87,10.13,13,18.63.13.54-.19,1.08-.73,1.21-.08.02-.16.03-.24.03Z"/>
    <g>
      <path class="cls-2" d="m92.07,42.74l5.94-2c3.63-1.22,5.58-5.15,4.36-8.78h0c-1.22-3.63-5.15-5.58-8.78-4.36l-5.94,2c-3.63,1.22-5.58,5.15-4.36,8.78h0c1.22,3.63,5.15,5.58,8.78,4.36Z"/>
      <path class="cls-3" d="m89.87,44.1c-3.31,0-6.41-2.09-7.52-5.4-1.39-4.14.84-8.65,4.99-10.04l5.94-2c4.14-1.4,8.65.84,10.04,4.99,1.39,4.14-.84,8.65-4.99,10.04l-5.94,2c-.84.28-1.69.41-2.52.41Zm5.93-15.86c-.63,0-1.26.1-1.89.31l-5.94,2c-3.1,1.04-4.77,4.41-3.73,7.51.51,1.5,1.56,2.72,2.98,3.42,1.42.7,3.03.81,4.53.31h0l5.94-2c3.1-1.04,4.77-4.41,3.73-7.51-.83-2.47-3.15-4.04-5.62-4.04Z"/>
    </g>
    <g>
      <path class="cls-2" d="m40.86,57.88l-6.27.11c-3.83.07-6.98-2.98-7.05-6.81h0c-.07-3.83,2.98-6.98,6.81-7.05l6.27-.11c3.83-.07,6.98,2.98,7.05,6.81h0c.07,3.83-2.98,6.98-6.81,7.05Z"/>
      <path class="cls-3" d="m34.46,58.99c-2.07,0-4.02-.79-5.5-2.23-1.52-1.47-2.38-3.45-2.42-5.57-.08-4.37,3.42-7.99,7.79-8.07l6.27-.11c2.1-.03,4.12.75,5.65,2.23,1.52,1.47,2.38,3.45,2.42,5.57.04,2.12-.75,4.12-2.23,5.65-1.47,1.52-3.45,2.38-5.57,2.42l-6.27.11s-.09,0-.14,0Zm6.28-13.97s-.07,0-.11,0l-6.27.11c-3.27.06-5.88,2.76-5.83,6.03.03,1.58.67,3.06,1.81,4.16,1.14,1.1,2.64,1.69,4.22,1.66l6.27-.11h0c1.58-.03,3.06-.67,4.16-1.81,1.1-1.14,1.69-2.64,1.66-4.22-.03-1.58-.67-3.06-1.81-4.16-1.11-1.08-2.57-1.67-4.12-1.67Z"/>
    </g>
    <g>
      <path class="cls-2" d="m68.46,81.6h0c-15.92.57-29.28-11.87-29.85-27.79l-.33-9.15c-.57-15.92,11.87-29.28,27.79-29.85h0c15.92-.57,29.28,11.87,29.85,27.79l.33,9.15c.57,15.92-11.87,29.28-27.79,29.85Z"/>
      <path class="cls-3" d="m67.42,82.62c-15.97,0-29.23-12.69-29.8-28.77l-.33-9.15c-.59-16.44,12.31-30.29,28.75-30.88,7.97-.29,15.56,2.55,21.4,7.98,5.83,5.43,9.2,12.81,9.48,20.77l.33,9.15c.28,7.96-2.55,15.56-7.98,21.4-5.43,5.83-12.81,9.2-20.77,9.48-.36.01-.72.02-1.08.02Zm1.01-2.02l.04,1-.04-1c7.43-.27,14.31-3.41,19.38-8.85,5.07-5.44,7.71-12.53,7.45-19.96l-.33-9.15c-.26-7.43-3.41-14.31-8.85-19.38-5.44-5.07-12.53-7.71-19.96-7.45-15.34.55-27.37,13.47-26.83,28.81l.33,9.15c.55,15.34,13.47,27.36,28.81,26.83Z"/>
    </g>
    <path class="cls-3" d="m36.84,43.81v.05c4.84-3.53,8.09-15.35,7.59-29.27v-.05c-4.84,3.53-8.09,15.35-7.59,29.27Z"/>
    <path class="cls-3" d="m95.09,37.75c-.47,0-.88-.33-.98-.8-.93-4.55,2.71-6.97,2.86-7.07.46-.3,1.08-.17,1.38.29.3.46.17,1.08-.29,1.38-.12.08-2.64,1.81-1.99,4.99.11.54-.24,1.07-.78,1.18-.07.01-.13.02-.2.02Z"/>
    <path class="cls-3" d="m37.64,54.07c-.49,0-.92-.36-.99-.86-.46-3.26-3.52-4.03-3.55-4.04-.54-.13-.87-.67-.74-1.21.13-.54.67-.87,1.2-.74.18.04,4.41,1.1,5.07,5.7.08.55-.3,1.05-.85,1.13-.05,0-.1,0-.14,0Z"/>
    <path class="cls-3" d="m58.2,37.12c.45,1.06-1.56,2.94-4.5,4.19-2.94,1.25-5.69,1.41-6.14.35-.45-1.06,1.56-2.94,4.5-4.19,2.94-1.25,5.69-1.41,6.14-.35Z"/>
    <path class="cls-3" d="m79.56,34.82c-.04,1.15-2.66,2-5.85,1.9s-5.75-1.13-5.71-2.28,2.66-2,5.85-1.9c3.19.11,5.75,1.13,5.71,2.28Z"/>
    <path class="cls-3" d="m67.38,54.76s-.04,0-.07,0c-1.34-.09-2.59-.75-3.43-1.81-.83-1.06-1.18-2.42-.96-3.75l1.26-7.45c.09-.54.6-.9,1.15-.82.54.09.91.61.82,1.15l-1.26,7.45c-.13.78.06,1.55.56,2.18.49.62,1.2,1,1.99,1.05.55.04.97.51.93,1.07-.04.53-.47.93-1,.93Z"/>
    <path class="cls-3" d="m72.09,67.99c-.74,0-1.52-.14-2.33-.42-.52-.18-.8-.75-.61-1.27.18-.52.75-.8,1.27-.61,1.32.46,2.44.41,3.42-.15,2.42-1.39,3.22-5.37,3.23-5.41.11-.54.63-.89,1.17-.79.54.11.9.63.79,1.17-.04.2-.98,4.91-4.19,6.76-.85.49-1.77.74-2.75.74Z"/>
    <path class="cls-3" d="m75.18,8.6c5.73,1.7,10.75,4.03,14.48,6.54-.09,1.04-.28,2.07-.58,3.09-1.44,4.84-5.08,8.57-9.91,10.76-2.98-.39-6.17-1.06-9.44-2.03-13.21-3.92-22.69-11.21-21.19-16.28,1.5-5.07,13.43-6,26.64-2.08Z"/>
    <path class="cls-3" d="m35.22,25.3c-3.36,4.94-4.1,10.28-2.86,14.61,1.01.23,2.06.37,3.12.39,5.05.12,9.71-2.21,13.28-6.13-1.44-3.2.26-9.69,4.58-14.67,9.03-10.4-8.04-9.04-18.13,5.79Z"/>
    <path class="cls-3" d="m74.76,43.37c.15,1.95-.72,3.6-1.96,3.7s-2.37-1.4-2.52-3.35c-.15-1.95.72-3.6,1.96-3.7s2.37,1.4,2.52,3.35Z"/>
    <path class="cls-3" d="m56.69,48.41c.15,1.95-.72,3.6-1.96,3.7-1.24.1-2.37-1.4-2.52-3.35-.15-1.95.72-3.6,1.96-3.7s2.37,1.4,2.52,3.35Z"/>
    <path class="cls-3" d="m53.49,9.22c-.51,0-.94-.39-.99-.9C51.99,3.15,57.61.23,57.85.11c.49-.25,1.09-.05,1.34.44.25.49.06,1.09-.43,1.35-.05.02-4.65,2.43-4.27,6.23.05.55-.35,1.04-.9,1.09-.03,0-.07,0-.1,0Z"/>
    <path class="cls-3" d="m53.04,6.99c-.47,0-.88-.33-.98-.8-.35-1.74-1.63-1.86-1.89-1.87-.55-.02-.99-.47-.98-1.01,0-.55.44-.99.99-.99h0c1.09,0,3.28.73,3.83,3.48.11.54-.24,1.07-.78,1.18-.07.01-.13.02-.2.02Z"/>
    <path class="cls-3" d="m71.56,30.7c-.06,0-.12,0-.18-.02-8.3-1.54-14.66-5.31-18.93-11.18-.32-.45-.22-1.07.22-1.4.45-.33,1.07-.22,1.4.22,3.95,5.45,9.9,8.95,17.67,10.39.54.1.9.62.8,1.17-.09.48-.51.82-.98.82Z"/>
    <polygon class="cls-3" points="91.56 20.82 92.98 39.48 89.98 40.4 81.64 19.14 91.56 20.82"/>
  </g>
  <g>
    <rect class="cls-1" x="30.55" y="107.23" width="141.66" height="141.66" rx="13.28" ry="13.28"/>
    <polygon class="cls-1" points="167.78 158.87 167.78 197.24 212.05 235.6 212.05 120.51 167.78 158.87"/>
    <polygon class="cls-1" points="167.78 158.87 167.78 197.24 212.05 235.6 212.05 181.89 176.64 151.2 167.78 158.87"/>
    <polygon class="cls-2" points="92.53 155.92 92.53 200.19 123.52 178.06 92.53 155.92"/>
  </g>
  <g>
    <path class="cls-2" d="m127.26,102.86l-2.24-3.21c-.8-1.15-2.12-1.84-3.52-1.84h-4.54c-1.68,0-3.2.97-3.9,2.5l-1.95,4.23c-.56,1.21-.52,2.62.1,3.8l3.45,6.55h5.97c1.52,0,2.93-.8,3.7-2.11l3.11-5.27c.86-1.45.79-3.26-.17-4.64Z"/>
    <path class="cls-3" d="m120.63,115.88h-5.97c-.37,0-.71-.21-.88-.53l-3.45-6.55c-.76-1.45-.81-3.2-.12-4.69l1.95-4.23c.86-1.87,2.75-3.08,4.81-3.08h4.54c1.73,0,3.36.85,4.34,2.27l2.24,3.21c1.18,1.7,1.27,3.94.21,5.72l-3.11,5.27c-.95,1.6-2.7,2.6-4.56,2.6Zm-5.37-2h5.37c1.16,0,2.25-.62,2.84-1.62l3.11-5.27c.65-1.11.6-2.51-.13-3.56h0s-2.24-3.21-2.24-3.21c-.62-.88-1.63-1.41-2.7-1.41h-4.54c-1.28,0-2.46.75-2.99,1.91l-1.95,4.23c-.43.92-.4,2.01.08,2.92l3.17,6.01Z"/>
  </g>
  <g>
    <path class="cls-2" d="m131.75,106.19l7.84.06-5.02-5.25c-1.94-2.03-4.54-3.29-7.33-3.55h0c-2.48-.23-4.8,1.27-5.6,3.64l-7.13,20.15,5.16.3c2.67.16,5.18-1.27,6.42-3.64l5.66-11.72Z"/>
    <path class="cls-3" d="m120.07,122.56c-.15,0-.3,0-.46-.01l-5.16-.3c-.31-.02-.6-.18-.77-.45-.17-.26-.21-.59-.11-.89l7.13-20.15c.95-2.8,3.68-4.57,6.64-4.3,3.03.28,5.86,1.65,7.96,3.85l5.02,5.25c.28.29.35.72.19,1.09-.16.37-.49.59-.93.6l-7.2-.05-5.38,11.15c-1.36,2.61-4.03,4.22-6.92,4.22Zm-4.17-2.24l3.83.23c2.27.15,4.42-1.08,5.47-3.11l5.65-11.69c.17-.35.52-.57.9-.57h0l5.47.04-3.38-3.54c-1.77-1.85-4.15-3-6.7-3.24-2.04-.2-3.91,1.03-4.56,2.96l-6.69,18.91Z"/>
  </g>
  <g>
    <path class="cls-2" d="m142.06,106.26l7.84.06-5.02-5.25c-1.94-2.03-4.54-3.29-7.33-3.55h0c-2.48-.23-4.8,1.27-5.6,3.64l-6.44,18.44,5.16.3c2.67.16,5.18-1.27,6.42-3.64l4.98-10.01Z"/>
    <path class="cls-3" d="m131.07,120.92c-.15,0-.31,0-.46-.01l-5.16-.3c-.31-.02-.6-.18-.77-.44-.17-.26-.22-.59-.11-.88l6.44-18.44c.95-2.8,3.68-4.57,6.64-4.3,3.03.28,5.86,1.65,7.96,3.85l5.01,5.25c.28.29.35.72.2,1.09-.16.37-.52.6-.92.6h0l-7.21-.06-4.7,9.45c-1.35,2.6-4.03,4.21-6.91,4.21Zm-4.18-2.24l3.84.23c2.27.13,4.42-1.08,5.47-3.11l4.97-9.99c.17-.34.52-.55.9-.55h0l5.47.04-3.38-3.54c-1.77-1.85-4.15-3-6.7-3.24-2.04-.2-3.91,1.03-4.56,2.96l-6.01,17.2Z"/>
  </g>
  <g>
    <path class="cls-2" d="m151.86,106.34l7.84.06-5.02-5.25c-1.94-2.03-4.54-3.29-7.33-3.55h0c-2.48-.23-4.8,1.27-5.6,3.64l-5.4,16,5.16.3c2.67.16,5.18-1.27,6.42-3.64l3.94-7.57Z"/>
    <path class="cls-3" d="m141.91,118.56c-.15,0-.31,0-.46-.01l-5.16-.3c-.31-.02-.6-.18-.77-.44-.17-.26-.22-.58-.12-.88l5.4-16c.95-2.82,3.68-4.59,6.64-4.31,3.03.28,5.86,1.65,7.96,3.85l5.02,5.25c.28.29.35.72.2,1.09-.16.37-.52.6-.92.6h0l-7.23-.05-3.65,7.02c-1.34,2.58-4.02,4.19-6.9,4.19Zm-4.19-2.24l3.85.23c2.28.14,4.42-1.08,5.47-3.11l3.94-7.57c.17-.33.49-.55.9-.54l5.47.04-3.38-3.54c-1.77-1.85-4.15-3-6.7-3.24-2.04-.19-3.91,1.03-4.56,2.96l-4.98,14.76Z"/>
  </g>
  <path class="cls-2" d="m10.06,201.34c-.16,0-.32-.04-.47-.12-.49-.26-.67-.87-.4-1.35l15.89-29.44c.26-.49.87-.67,1.35-.41.49.26.67.87.4,1.35l-15.89,29.44c-.18.33-.52.53-.88.53Z"/>
  <g>
    <g>
      <path class="cls-2" d="m30.3,141.73l.05,6.88-4.6-4.4c-1.78-1.7-2.88-3.98-3.11-6.43h0c-.2-2.18.57-3.31,3.19-4.91l13.87-7.85.63,3.26c.45,2.33-.36,4.72-2.11,6.3l-7.91,7.15Z"/>
      <path class="cls-3" d="m30.36,149.61c-.25,0-.5-.1-.69-.28l-4.6-4.4c-1.95-1.87-3.17-4.37-3.42-7.06-.27-2.87,1.08-4.28,3.66-5.86l13.9-7.87c.28-.16.62-.17.91-.04.29.13.5.4.56.72l.63,3.26c.51,2.65-.42,5.42-2.42,7.23l-7.58,6.85.05,6.43c0,.4-.23.77-.6.93-.13.06-.26.08-.4.08Zm8.63-23.04l-12.66,7.16c-2.45,1.5-2.84,2.34-2.69,3.95.21,2.21,1.2,4.27,2.81,5.8l2.89,2.77-.03-4.51c0-.29.12-.56.33-.75l7.91-7.15c1.49-1.34,2.18-3.4,1.8-5.37l-.36-1.89Z"/>
    </g>
    <g>
      <path class="cls-2" d="m30.37,150.78l.05,6.88-4.6-4.4c-1.78-1.7-2.88-3.98-3.11-6.43h0c-.2-2.18,1.12-4.21,3.19-4.91l17.68-6.25.27,4.53c.14,2.34-1.11,4.55-3.19,5.63l-10.28,4.96Z"/>
      <path class="cls-3" d="m30.42,158.66c-.25,0-.5-.1-.69-.28l-4.6-4.4c-1.95-1.87-3.17-4.38-3.42-7.06-.25-2.65,1.34-5.1,3.87-5.95l17.67-6.25c.3-.11.62-.06.89.11.26.17.43.46.44.77l.27,4.53c.16,2.73-1.3,5.31-3.73,6.58l-9.74,4.7.05,6.24c0,.4-.23.77-.6.93-.13.06-.26.08-.4.08Zm12.24-21.61l-16.43,5.81c-1.66.56-2.69,2.15-2.53,3.88.21,2.21,1.2,4.27,2.81,5.8l2.89,2.77-.03-4.51c0-.39.22-.74.56-.91l10.28-4.96c1.7-.89,2.75-2.72,2.63-4.67l-.19-3.2Z"/>
    </g>
    <g>
      <path class="cls-2" d="m30.44,159.83l.05,6.88-4.6-4.4c-1.78-1.7-2.88-3.98-3.11-6.43h0c-.2-2.18,1.12-4.21,3.19-4.91l16.18-5.65.27,4.53c.14,2.34-1.11,4.55-3.19,5.63l-8.78,4.36Z"/>
      <path class="cls-3" d="m30.49,167.7c-.25,0-.5-.1-.69-.28l-4.6-4.4c-1.95-1.87-3.16-4.37-3.42-7.06-.25-2.65,1.34-5.1,3.87-5.95l16.17-5.65c.3-.1.62-.06.88.11.26.17.43.46.44.77l.27,4.53c.16,2.73-1.3,5.31-3.73,6.58l-8.23,4.09.05,6.25c0,.4-.23.77-.6.93-.13.06-.26.08-.4.08Zm10.73-21.02l-14.93,5.22c-1.65.56-2.69,2.15-2.53,3.88.21,2.21,1.2,4.27,2.81,5.8l2.89,2.77-.03-4.51c0-.38.21-.73.55-.9l8.78-4.36c1.71-.89,2.76-2.73,2.64-4.68l-.19-3.2Z"/>
    </g>
    <g>
      <path class="cls-2" d="m30.51,168.42l.05,6.88-4.6-4.4c-1.78-1.7-2.88-3.98-3.11-6.43h0c-.2-2.18,1.12-4.21,3.19-4.91l14.04-4.74.27,4.53c.14,2.34-1.11,4.55-3.19,5.63l-6.64,3.45Z"/>
      <path class="cls-3" d="m30.56,176.3c-.25,0-.5-.1-.69-.28l-4.6-4.4c-1.95-1.87-3.17-4.37-3.42-7.06-.25-2.65,1.34-5.1,3.87-5.95l14.04-4.74c.29-.1.62-.06.88.12.26.17.42.46.44.77l.27,4.53c.16,2.73-1.3,5.31-3.73,6.58l-6.1,3.17.05,6.26c0,.4-.23.77-.6.93-.13.06-.26.08-.4.08Zm8.59-20.12l-12.8,4.32c-1.64.55-2.68,2.15-2.51,3.87.21,2.21,1.2,4.27,2.81,5.8l2.89,2.77-.03-4.51c0-.38.21-.72.54-.89l6.64-3.45c1.73-.9,2.77-2.74,2.66-4.69l-.19-3.22Z"/>
    </g>
  </g>
</svg>