<?xml version="1.0" encoding="UTF-8"?>
<svg id="Isolation_Mode" data-name="Isolation Mode" xmlns="http://www.w3.org/2000/svg" viewBox="0 0 83.33 83.34">
  <defs>
    <style>
      .cls-1 {
        fill: #fa9441;
      }

      .cls-1, .cls-2, .cls-3 {
        stroke-width: 0px;
      }

      .cls-2 {
        fill: #ffbe2e;
      }

      .cls-3 {
        fill: #ff580a;
      }
    </style>
  </defs>
  <path class="cls-3" d="M81.48,29.42c-4.87,22.89-23.61,40.78-47.08,44.28-6.77,1.01-13.51.81-20.1-.6,9.15,7.97,21.35,11.6,33.5,9.79,11.01-1.64,20.72-7.47,27.34-16.42,6.62-8.94,9.37-19.93,7.73-30.94-.31-2.07-.77-4.11-1.39-6.11Z"/>
  <path class="cls-3" d="M38.33,53.06c-13.19,1.97-26.29-.23-38.03-6.36.04.38.09.75.15,1.11,1.21,8.11,4.73,15.6,10.18,21.67,7.61,2.27,15.48,2.82,23.38,1.64,22.38-3.34,40.25-20.37,44.91-42.18-9.84,13-24.38,21.7-40.6,24.12Z"/>
  <path class="cls-1" d="M6.97,18.61C2.07,25.99-.37,34.79.05,43.62c11.62,6.47,24.71,8.84,37.9,6.88,16.35-2.44,30.91-11.52,40.33-25.06-6.68,3.79-13.91,6.29-21.54,7.42-17.93,2.67-35.98-2.52-49.76-14.25Z"/>
  <path class="cls-1" d="M30.59,1.5c-8.79,2.41-16.57,7.69-22.11,14.99,13.23,11.36,30.61,16.39,47.87,13.81,7.1-1.06,13.83-3.34,20.08-6.8-17.73-.47-34.24-8.36-45.84-22Z"/>
  <path class="cls-2" d="M35.51.46c-.69.1-1.38.22-2.07.36,11.36,12.78,27.32,20.01,44.35,20.1C69.29,6.09,52.57-2.08,35.51.46Z"/>
</svg>