<?xml version="1.0" encoding="UTF-8" standalone="no"?>
<svg xmlns:rdf="http://www.w3.org/1999/02/22-rdf-syntax-ns#" xmlns="http://www.w3.org/2000/svg" height="365" width="365" version="1.1" preserveAspectRatio="none" xmlns:cc="http://creativecommons.org/ns#" xmlns:dc="http://purl.org/dc/elements/1.1/" viewBox="0 0 0.50694946 0.50694946">
 <g stroke-miterlimit="10.433" transform="matrix(.5 0 0 .5 .0036591 .0032904)">
  <g stroke-width="0">
   <path d="m0.50005 1 0.025736-0.00064571 0.025367-0.001937 0.024998-0.003228 0.024629-0.004335 0.024168-0.005627 0.023706-0.006734 0.023245-0.007841 0.022692-0.008948 0.02223-0.010054 0.021492-0.011069 0.020939-0.011992 0.020293-0.013006 0.019648-0.013929 0.018818-0.014851 0.018172-0.015681 0.017342-0.016604 0.016604-0.017342 0.015681-0.018172 0.014851-0.01891 0.013929-0.019555 0.013006-0.020293 0.012084-0.020939 0.010977-0.021585 0.010054-0.022138 0.008947-0.022692 0.007841-0.023245 0.006734-0.023706 0.005627-0.024168 0.004335-0.024629 0.003228-0.024998 0.001937-0.025459l0.00063-0.02572c0-0.27608-0.22387-0.49995-0.49995-0.49995-0.27618 0-0.50005 0.22387-0.50005 0.49995 0 0.27618 0.22387 0.50005 0.50005 0.50005z" fill="#ba9900"/>
   <path d="m0.50005 0.96181 0.023706-0.00064571 0.02343-0.001753 0.023153-0.002952 0.022784-0.004059 0.022323-0.005166 0.021862-0.00618 0.021492-0.007287 0.020939-0.008302 0.020478-0.009224 0.019924-0.010239 0.019279-0.011069 0.018817-0.011992 0.01808-0.012914 0.017434-0.013652 0.016788-0.014574 0.01605-0.015312 0.01522-0.015958 0.014574-0.016788 0.013652-0.017434 0.012914-0.018172 0.011992-0.018725 0.011161-0.019279 0.010147-0.019924 0.009224-0.020478 0.008302-0.020939 0.007287-0.021492 0.00618-0.021862 0.005166-0.022415 0.004059-0.022692 0.002952-0.023153 0.001753-0.02343 0.00064571-0.023799c0-0.25496-0.20681-0.46177-0.46177-0.46177-0.25505 0-0.46186 0.20681-0.46186 0.46177 0 0.25505 0.20681 0.46186 0.46186 0.46186z" fill="#003876"/>
   <path d="m0.72742 0.71506 0.009501 0.008671 0.002306 0.009501s0.027396-0.009501 0.014298-0.036897l-0.019002-0.026197-0.001199-0.009501s-0.015497-0.015497-0.014298-0.019002c0 0-0.005904-0.020293 0.027396-0.046398 0 0 0.007103-0.008394 0.007103-0.01439v-0.003505c0 0.005903 0.005996-0.005996 0.005996-0.005996v-0.009501l-0.005996 0.001199 0.002398-0.005903-0.001199-0.009593-0.0107-0.011899v-0.0107l0.005996 0.014298 0.005904-0.001199s0.0107-0.009501-0.005904-0.027396l0.008302 0.005996 0.004797-0.007195-0.003597-0.011899-0.002398-0.013652 0.008302-0.004151v-0.005996l0.007195-0.004704v-0.007195l0.007103-0.009501-0.008302-0.011899-0.004797 0.005904 0.003597 0.004797-0.005996 0.001199-0.005904-0.009501 0.001199-0.013098 0.011899-0.017895 0.014298-0.004797 0.003597-0.007103-0.013098-0.011899 0.001199-0.015497-0.013191-0.014205s-0.016604-0.033392-0.011807-0.022692c0.004704 0.0107-0.002398 0.027396-0.002398 0.027396l-0.011992 0.022599 0.002491 0.016696-0.011992 0.011899-0.020201 0.001199-0.016696 0.019002v0.013098c-0.008302 0.013098-0.022599 0.009593-0.022599 0.009593s-0.006272 0.008025-0.008855 0.008302c0 0 0.011807 0.005904-0.001845 0.013652 0 0-0.019002 0.006549-0.025828 0.014666l-0.00987 0.001753-0.006549 0.003505 0.006549-0.021677-0.006457-0.008947c0.00083019 0.00046118-0.00018447 0.002398-0.001107 0.003136-0.00064571 0.00046124-0.001937-0.00009224-0.002767 0.00027671-0.00286 0.001291-0.005442 0.004243-0.008302 0.002029-0.003966-0.003136-0.002306-0.00821 0.00092243-0.011807 0.00046118-0.00055347 0.00018447-0.001845 0.00018447-0.00286l-0.009224-0.009224-0.020847 0.013098s-0.007103 0.022599 0 0.029794c0 0 0.001753 0.013652-0.008948 0.014205 0 0-0.012545-0.002306-0.012545-0.019555l0.003597-0.030348-0.00535 0.00055348s0.003597-0.01605 0.026842-0.019002l0.013006-0.002398 0.004243 0.001199-0.012545-0.012545-0.009501 0.005996h-0.007195l-0.005903-0.001199-0.003597-0.013098-0.011899 0.001199 0.005996 0.001199-0.005996-0.001199-0.004704 0.004704-0.008394 0.001199-0.015497 0.002398 0.001199-0.005904 0.013098-0.003597 0.003597-0.004797-0.023798-0.011899-0.017895-0.003597 0.001199-0.007103-0.007103-0.001199-0.004797 0.007195h-0.27728v0.016604c-0.001199 0.013098-0.010792 0.019094-0.010792 0.019094l-0.001199-0.003597 0.005996-0.009501-0.003597-0.004797-0.011899 0.001199-0.001199 0.019002c-0.002398 0.015497-0.016696 0.038096-0.016696 0.038096l-0.003136 0.011069-0.002767 0.042524 0.007103 0.030994s-0.001199 0.026197 0.013098 0.0428c0 0 0.029794 0.017895 0.032193 0.046398h0.025643l0.001753-0.001199c0.0428 0.055991 0.002675 0.096117 0.002675 0.096117-0.061064-0.063924-0.098515-0.15063-0.098515-0.24601 0-0.14298 0.084125-0.2664 0.20561-0.32313l0.031824 0.026658s0.001199 0.059589 0.026197 0.071396l0.030994-0.001107 0.034499-0.06789c0.007103-0.010147-0.001199-0.014298-0.001199-0.014298-0.0107-0.003505-0.022046-0.015497-0.022046-0.015497l0.001384 0.000369c-0.00701 0.003136-0.010885 0.008579-0.010885 0.008579-0.007103-0.038096 0.017249-0.036344 0.017249-0.036344l0.017895-0.001107c0.002398-0.023798 0.066691 0.008302 0.066691 0.008302 0.030901 0.048796 0.030901 0.11899 0.030901 0.11899l0.035698-0.001107c0.020293-0.007195 0.019002-0.071488 0.019002-0.071488l0.030256-0.022323c0.11789 0.058205 0.19897 0.1796 0.19897 0.31999 0 0.10534-0.045752 0.20007-0.11853 0.26538 0 0-0.019002-0.013098-0.010608-0.044v-0.00036895z" fill="#ba9900"/>
  </g>
  <path stroke-linejoin="round" d="m0.48492 0.17969-0.001291-0.001107-0.001291-0.001015-0.001291-0.001015-0.001199-0.00092243-0.001199-0.00092242-0.001199-0.00073795-0.001199-0.0007379-0.001199-0.00064571-0.001107-0.00064571-0.001107-0.00055342-0.001107-0.00055348-0.001107-0.00046119-0.001107-0.000369-0.001107-0.00036895-0.001015-0.00027671-0.001015-0.00027676-0.001015-0.00018448-0.001015-0.00018447-0.001015-0.00009224-0.00092243-0.00009223h-0.001015-0.00092242-0.00083019l-0.00092242 0.00009223-0.00092243 0.00009224-0.00083013 0.00009224-0.00083019 0.00018447-0.00083019 0.00018448-0.001568 0.000369-0.001476 0.00055342-0.001384 0.00055348-0.001384 0.00064571-0.001199 0.00073789-0.001199 0.00073795-0.001015 0.00073795-0.001015 0.00073795-0.00092242 0.00073795-0.00083019 0.0007379-0.00064571 0.00073795-0.00064571 0.00064571-0.00055343 0.00055343-0.00046124 0.00046124-0.00018447 0.00027671-0.00018447 0.00018447-0.00009224 0.00018453-0.00009224 0.00009224-0.00009224 0.00018447-0.00009229 0.00009224v0 0c-0.007195-0.038096 0.017249-0.036344 0.017249-0.036344l0.017803-0.001107c0.002398-0.023798 0.066691 0.008302 0.066691 0.008302 0.030993 0.048796 0.030993 0.11899 0.030993 0.11899l0.035698-0.001107c0.020201-0.007195 0.019002-0.071488 0.019002-0.071488l0.030256-0.022323c0.11779 0.058205 0.19897 0.1796 0.19897 0.31999 0 0.10534-0.045752 0.20007-0.11853 0.26538 0 0-0.019002-0.013098-0.0107-0.044" stroke="#fff" stroke-linecap="round" stroke-width=".0081049" fill="none"/>
  <path stroke-linejoin="round" d="m0.44977 0.17019v0 0.00009223h0.00009224v0.00009229l0.00009223 0.00009224 0.00009224 0.00009224 0.00009224 0.00009224 0.00009224 0.00009223 0.00027676 0.00027671 0.00036895 0.00036901 0.00036895 0.00036894 0.00046124 0.00036895 0.00046118 0.00046124 0.00055348 0.00055348 0.00055342 0.00046118 0.00064571 0.00055348 0.00064571 0.00064566 0.00064572 0.00055347 0.00073789 0.00064572 0.00083019 0.00064566 0.00073795 0.00064571 0.00083019 0.00064571 0.00092242 0.00064566 0.00083019 0.00064571 0.00092242 0.00064572 0.00092243 0.00064571 0.00092242 0.00064566 0.00092243 0.00064571 0.001015 0.00055348 0.00092242 0.00064566 0.001015 0.00046124 0.001015 0.00055342 0.001015 0.00046124 0.001015 0.00046118 0.001015 0.00046124 0.001015 0.00027671s0.008302 0.004151 0.001199 0.014298" stroke="#fff" stroke-linecap="round" stroke-width=".0034686" fill="none"/>
  <path d="m342.24 102.01 1.3281 2.125 2.127 1.7266c1.7267 10.228 10.293 2.5898 10.293 2.5898 4.2504 0 4.7148-0.86328 4.7148-0.86328h-0.66406-0.66407l-0.73047-0.0664-0.73046-0.0664-0.73047-0.13281-0.73047-0.13281-0.79688-0.13281-0.73242-0.19922-0.79687-0.19922-0.73047-0.19922-0.79688-0.26562-0.73047-0.19922-0.79687-0.26563-0.73047-0.26562-0.73242-0.26563-0.73047-0.26562-0.66406-0.26563-0.66406-0.26562-0.66407-0.26563-0.59765-0.26562-0.59766-0.26563-0.53125-0.26562-0.53125-0.19922-0.46484-0.19922-0.39844-0.19922-0.39844-0.19922-0.13281-0.0664-0.19922-0.0664-0.13281-0.0664-0.13282-0.0664-0.13281-0.0664-0.0664-0.0664-0.13282-0.0664h-0.0664v-0.0664h-0.0664-0.0644zm47.152 6.8398s17.997 36.859 18.861 81.424l-5.9766 10.295-12.885-6.043-8.5664 11.156-12.021-5.9766-11.955 8.5664-12.021-12.883-13.748 9.0312-5.1133-11.158-5.1152 1.2637v-0.0664l0.0664-0.19922 0.13477-0.19922 0.13281-0.26562 0.13281-0.26563 0.13282-0.39843 0.19921-0.39844 0.19922-0.46485 0.19922-0.53125 0.26563-0.5332 0.26562-0.59765 0.26563-0.66407 0.26562-0.66406 0.66406-1.5273 0.66407-1.5938 0.79687-1.793 0.79688-1.8613 0.86328-1.9922 0.86328-2.0586 0.86328-2.1914 0.92969-2.1914 0.99609-2.2578 1.9258-4.7148 1.9258-4.7168 1.8594-4.7148 0.86328-2.2578 0.86328-2.2578 0.86328-2.1914 0.79883-2.125 0.73047-1.9922 0.66406-1.9258 0.66406-1.8613 0.53126-1.6602 0.46484-1.5938 0.19922-0.73046 0.19922-0.66407-28.293 55.256s-23.976 48.882 2.5898 90.059c0 0-17.997-53.996 6.8418-88.73l6.043 11.955 15.408-5.5117 10.295 11.953 12.818-10.227 11.156 7.7031s7.7044-11.156 12.885-12.02l8.5684 5.1133 11.156-10.295s1.6613-47.087-23.178-84.811zm151.73 131.72c0.004 0.0799 0.19526 0.54677 0.62696 1.5098 3.3869 7.7705-1.7266 19.727-1.7266 19.727l-8.6348 16.338 1.7949 11.953-8.6348 8.5684-14.545 0.86328-12.021 13.682v9.498c-5.9774 9.4308-16.271 6.8398-16.271 6.8398s-4.5152 5.7771-6.375 5.9766c0 0 8.5013 4.2516-1.3281 9.8965 0 0-13.681 4.7159-18.596 10.494l-7.1074 1.2617-4.7148 2.5234 4.7148-15.607-4.4668-6.125c0.16362 0.5251-0.42428 1.5533-0.97852 1.9414-0.46491 0.33205-1.3946-0.0664-1.9922 0.19922-2.0592 0.92951-3.9193 3.1212-5.9785 1.4609-2.8555-2.2579-1.6604-5.9121 0.66406-8.502 0.33205-0.39847 0.13281-1.3284 0.13281-1.9922l-6.6406-6.6406-15.01 9.3652s-5.1142 16.337 0 21.451c0 0 1.2614 9.8301-6.4434 10.295 0 0-9.0312-1.7268-9.0312-14.146l2.5898-21.852-3.8516 0.39844s2.5894-11.556 19.326-13.682l9.3633-1.7266 3.0566 0.86328-9.0332-9.0312-6.8398 4.3164h-5.1816l-4.25-0.86328-2.5898-9.4297-8.5664 0.86328-3.3867 3.4531-6.0449 0.86328-11.158 1.6602 0.86328-4.25 9.4316-2.5898 2.5898-3.4531-17.135-8.5684-12.885-2.5234 0.86328-5.1797-5.1133-0.86328-3.4551 5.1797h-199.64v11.955c-0.86328 9.4308-7.7715 13.748-7.7715 13.748l-0.86329-2.5898 4.3164-6.8418-2.5898-3.4531-8.5664 0.86328-0.86328 13.748c-1.7266 11.091-12.021 27.361-12.021 27.361l-2.2578 7.9707-1.9922 30.617 5.1152 22.314s-0.86444 18.862 9.4297 30.816c0 0 21.453 12.884 23.18 33.473h23.111l47.154 38.521h31.68v-12.818h14.611s11.158 33.406 28.293 34.27h7.7031l4.25-8.5664 10.295 0.86328 9.4316 10.293 0.86328 7.7051 4.25 2.5898 11.156 7.7031 7.7051 10.229s12.021 7.7697 17.201 3.4531c0 0-2.59-8.5661 1.6602-26.564 0 0 14.611-25.702 32.609-31.68 0 0 23.976-5.1804 26.566-1.7266 0 0 5.9765-2.5909 7.7031-6.8418l-4.25-3.4531s1.6606-8.5682 13.682-10.295l22.25 0.86328s4.3159 4.3171 10.293 2.5898c0 0 5.1801-7.7034 17.998-5.1797l12.885 11.156s1.7274 20.589 8.5684 24.043l10.293 9.4316 1.6621 6.8398s19.724-6.8414 10.293-26.566l-13.682-18.861-0.86328-6.9062s-11.156-11.091-10.293-13.682c0 0-4.2514-14.545 19.725-33.406 0 0 5.1133-6.0443 5.1133-10.295v-2.5898c0 4.3171 4.3184-4.25 4.3184-4.25v-6.9062l-4.3184 0.86328 1.7266-4.252-0.86328-6.9062-7.7031-8.5684v-7.7031l4.3164 10.293 4.252-0.86328s7.703-6.8402-4.252-19.725l5.9785 4.3164 3.4531-5.1797-2.5898-8.5-1.7266-9.8965v-0.002l5.9766-2.9883v-4.3164l5.1816-3.3867v-5.1816l5.1133-6.8398-5.9766-8.5684-3.4551 4.3184 2.5898 3.3867-4.3164 0.86328-4.252-6.8418 0.86328-9.4297 8.5684-12.885 10.295-3.3867 2.5898-5.1816-9.4316-8.5664 0.86328-11.158-9.498-10.229s-9.1524-18.407-9.127-17.848zm-97.285 97.398c-0.0325-0.1042-0.0827-0.19501-0.18164-0.25l0.18164 0.25z" transform="scale(.0013889)" stroke-width="0" fill="#fff"/>
  <path d="m0.58841 0.37856 0.00009224 0.00009224v0.00018453l0.00009224 0.00018447 0.00009223 0.00027671 0.00009224 0.00036895 0.00009229 0.000369 0.00018447 0.00046119 0.00009224 0.00055348 0.00018448 0.00055347 0.00036894 0.001291 0.00046124 0.001476 0.00036895 0.00166 0.00055348 0.001845 0.00046118 0.001937 0.00055348 0.002122 0.00055347 0.002306 0.00055343 0.002398 0.00055347 0.002491 0.00055342 0.002583 0.00055348 0.002675 0.00046124 0.002767 0.00055342 0.00286 0.00046124 0.002952 0.00036895 0.00286 0.00046124 0.002952 0.00027671 0.003044 0.00027671 0.002952 0.00027671 0.002952 0.00009229 0.002952 0.00009224 0.002952v0.002952l-0.00009224 0.002767-0.00018453 0.002767-0.00027671 0.002767-0.00036895 0.002583-0.00055347 0.002491s0.0107 0.007195 0.011992 0.016696c0 0 0.0107-0.003597 0.014205 0.0107l-0.006549 0.021677 0.006549-0.003505m-0.009501-0.12887 0.00009224 0.00018452 0.00009223 0.00027672 0.00018448 0.00027671 0.00018453 0.00046124 0.00027671 0.00055342 0.00027671 0.00064571 0.00027676 0.00064571 0.00036895 0.00083019 0.00036895 0.00083014 0.00046124 0.001015 0.00036895 0.001015 0.00092242 0.002214 0.001107 0.002583 0.001107 0.00286 0.001107 0.003044 0.001199 0.003321 0.001199 0.003413 0.001291 0.00369 0.001199 0.003874 0.001199 0.003966 0.001199 0.004151 0.001107 0.004243 0.001015 0.004335 0.001015 0.004428 0.00083018 0.004428 0.00073795 0.00452 0.00064572 0.00452 0.00046118 0.00452 0.000369 0.004428 0.00009224 0.00452v0.004335l-0.00027676 0.004335-0.00046119 0.004243-0.00073795 0.004151-0.001015 0.003966-0.00055348 0.001937-0.00064566 0.001845-0.00073795 0.001845-0.00083018 0.001845s0.018448-0.002767 0.036989-0.01356m-0.02865-0.11379s0.044461 0.069274 0.032193 0.10958m-0.00839-0.13218s0.04649 0.062356 0.036436 0.10313m-0.01495-0.12693s0.049811 0.042985 0.048243 0.10617m-0.03523-0.13716s0.038188 0.028595 0.058758 0.068536m0.031731 0.068352 0.001937 0.005719 0.001753 0.005627 0.00166 0.005627 0.001568 0.005535 0.001384 0.005442 0.001291 0.005535 0.001107 0.005535 0.001107 0.005535 0.00092242 0.005627 0.00073795 0.005627 0.00064566 0.005719 0.00055348 0.005811 0.00046124 0.005904 0.00027671 0.005996 0.00018447 0.00618 0.00009224 0.006273c0 0.069551-0.021216 0.13126-0.060788 0.18227m-0.50124-0.03711l0.001937 0.002675 0.001845 0.002583 0.001753 0.002583 0.001568 0.002491 0.001476 0.002491 0.001384 0.002491 0.001291 0.00249 0.001199 0.002398 0.001107 0.002398 0.00092243 0.002398 0.00092242 0.002398 0.0007379 0.002306 0.00073795 0.002306 0.00064571 0.002214 0.00055348 0.002214 0.00046118 0.002214 0.00036895 0.002214 0.00027676 0.002122 0.00027671 0.002029 0.00018448 0.002122 0.00009224 0.002029 0.00009223 0.002029-0.00009223 0.003874-0.00036895 0.00369-0.00046124 0.003597-0.00064566 0.003413-0.00083019 0.003321-0.00092242 0.003136-0.001015 0.002952-0.001107 0.002767-0.001199 0.002583-0.001199 0.002398-0.001291 0.002214-0.001199 0.002029-0.001199 0.001845-0.001107 0.00166-0.001015 0.001384-0.001015 0.001291-0.00083019 0.001015-0.00064571 0.00073795-0.00027671 0.00036895-0.00027677 0.00018452-0.00018447 0.00027671-0.00009224 0.00009224-0.00009224 0.00009224c-0.061157-0.063924-0.098607-0.15063-0.098607-0.24601 0-0.14298 0.084217-0.2664 0.2057-0.32313l0.031824 0.026658s0.001199 0.059589 0.026197 0.071396l0.0309-0.00111s-0.00064566 0.001476-0.001845 0.004059m-0.25883 0.072041 0.00009223 0.00009223h0.00018448l0.00018447 0.00009224 0.00027677 0.00009224 0.00027671 0.00009223 0.00036895 0.00009224 0.00046124 0.00018448 0.00092242 0.00027676 0.001107 0.00027671 0.001384 0.00027671 0.001476 0.00027677 0.001568 0.00027671 0.001753 0.00027671 0.001937 0.00018447 0.002029 0.00018453 0.002122 0.00009224h0.002214l0.002306-0.00009224 0.002398-0.00027676 0.002491-0.00027671 0.002491-0.00055348 0.002583-0.00055342 0.002583-0.00083019 0.002583-0.001015 0.001384-0.00055348 0.001291-0.00064566 0.001291-0.00064571 0.001291-0.00064571 0.001384-0.00083019 0.001291-0.00083019 0.001291-0.00083018 0.001291-0.001015 0.001291-0.001015 0.001291-0.001015 0.001291-0.001199 0.001199-0.001199 0.001291-0.001199 0.001199-0.001384 0.001291-0.001384 0.001199-0.001476 0.001107-0.001568 0.001199-0.00166 0.001107-0.001753 0.001199-0.001753 0.001107-0.001937 0.001015-0.001937s0.034499-0.051194 0.059496-0.064293c0 0 0.038096 0.080897 0.13218 0.11899m-0.12376-0.10348s-0.061895 0.040402-0.088092 0.12619m0.024998-0.053593v0.00009224 0.00018447l-0.00009224 0.00036901v0.00046118 0.00064571l0.00009224 0.00083019v0.00083019l0.00009224 0.001107 0.00018453 0.001107 0.00009223 0.001199 0.00027671 0.001384 0.00027672 0.001476 0.000369 0.001476 0.00036895 0.00166 0.00055347 0.001753 0.00055342 0.001753 0.00073795 0.001937 0.00083019 0.001937 0.00083019 0.002029 0.001015 0.002029 0.001199 0.002122 0.001199 0.002214 0.001384 0.002214 0.001568 0.002306 0.00166 0.002306 0.001845 0.002398 0.002029 0.002398 0.002214 0.002398 0.001107 0.001199 0.001199 0.001199 0.001199 0.001199 0.001291 0.001291 0.001384 0.001199 0.001384 0.001199 0.001384 0.001199 0.001476 0.001291s-0.013098-0.054792 0.049995-0.10119m-0.016604 0.10359s-0.014298-0.040494 0.039295-0.07979m-0.001199 0.07979s-0.003597-0.036897 0.026197-0.058389m0.014205 0.058389s-0.005903-0.029794 0.0107-0.039295m0.017895 0.039295s-0.003597-0.02509 0.003597-0.027396m0.40946-0.011899-0.002122 0.00018447-0.002122 0.00009224h-0.002029-0.002029l-0.001937-0.00009224-0.002029-0.00009223-0.001937-0.00018448-0.001845-0.00027676-0.001937-0.00036895-0.001845-0.00036895-0.003597-0.00092242-0.003413-0.001015-0.003413-0.001291-0.003229-0.001384-0.003136-0.001568-0.002952-0.00166-0.002952-0.001753-0.002675-0.001937-0.002675-0.001845-0.002491-0.002029-0.002306-0.001937-0.002214-0.002029-0.002122-0.002029-0.001937-0.001937-0.001845-0.002029-0.00166-0.001845-0.001568-0.001845-0.001384-0.001753-0.001199-0.001568-0.001107-0.001476-0.001015-0.001384-0.00083018-0.001199-0.00064566-0.001015-0.00027677-0.00046124-0.00027671-0.00036895-0.00018447-0.00036895-0.00018448-0.00027676-0.00018452-0.00018447-0.00009224-0.00018448v-0.00009224c-0.002398-0.0107-0.055991-0.060696-0.055991-0.060696-0.027396 0.089198-0.11309 0.12379-0.11309 0.12379 0.007195 0.020201-0.004704 0.046398-0.004704 0.046398s-0.008855 0.019463-0.005811 0.034868" stroke="#fff" stroke-width=".0081049" fill="none"/>
  <path d="m374.98 37.523-0.26562 1.6621c3.9181 0.4649 4.9805 2.2573 4.5156 6.4414l-2.7226 21.518c-1.594 12.619 6.9732 17.535 18.596 19.062 9.7629 1.1954 21.65 0.06598 23.178-12.154l2.9238-23.18c0.5976-4.9811 2.1245-5.5782 6.5078-5.0469l0.19922-1.6602-15.01-1.9258-0.19922 1.6602c4.9817 0.66414 6.7755 1.8588 6.1777 6.6406l-2.9219 23.445c-1.2619 9.6302-10.628 11.821-18.73 10.758l-0.66406-0.06641-0.66407-0.13281-0.66406-0.13281-0.66406-0.13281-0.59766-0.19922-0.66406-0.19922-0.59766-0.19922-0.59765-0.19922-0.53125-0.26562-0.59766-0.33203-0.53125-0.26562-0.53125-0.39844-0.53125-0.33203-0.46484-0.39844-0.46485-0.46484-0.39843-0.46484-0.39844-0.46484-0.39844-0.53125-0.33203-0.53125-0.33203-0.59766-0.33203-0.66406-0.26563-0.66406-0.19922-0.66406-0.19921-0.79688-0.19922-0.73047-0.13282-0.86328-0.0664-0.86328-0.0664-0.86328v-0.99609-0.46484l0.0664-0.5332v-0.46484l0.0664-0.53125 0.0664-0.53125 0.0664-0.53125 2.6562-21.518c0.66381-5.3132 1.2609-5.711 6.9726-5.0469l0.19922-1.6602-20.256-2.5254zm-35.619 1.5898c-1.6011-0.02457-3.1553 0.03905-4.5625 0.13867l-19.592 1.4609 0.13282 1.7266h0.19922l0.26562-0.06641h0.19922 0.19922 0.19922 0.19922 0.19922 0.19921 0.19922 0.19922 0.33203 0.33203 0.33203l0.26563 0.06641h0.26563l0.19921 0.06641 0.26563 0.06641 0.19922 0.13281 0.19922 0.06641 0.19922 0.13281 0.13281 0.13281 0.13281 0.13281 0.13281 0.13281 0.13281 0.19922 0.13282 0.19922 0.13281 0.26562 0.0664 0.19922 0.0664 0.26562 0.0664 0.26562 0.0684 0.33203 0.0664 0.13281v0.19922l0.0664 0.13281v0.19922 0.19922l0.0664 0.19922v0.19922l0.0664 0.19922v0.19922 0.19922 0.26562l0.0664 0.19922v0.26562 0.19922l2.2578 29.82c0.39889 5.2467-0.13386 5.7773-5.248 6.2422l0.13282 1.6602 22.184-1.6602c8.966-0.66414 18.994-2.9206 18.264-13.281-0.59773-7.5048-7.9701-10.162-14.346-10.959v-0.06641c5.3795-1.4611 10.494-5.0481 10.029-11.225-0.53962-7.3928-8.3588-9.1299-15.297-9.2363zm-3.3613 1.8359c6.2037 0.03904 9.1518 1.9793 9.5586 7.7324 0.4649 5.9773-2.3897 9.9628-8.6328 10.561l-5.6465 0.39844-1.1953-15.807c-0.19944-2.3909 0.20115-2.5234 3.0566-2.7891 1.0212-0.06641 1.9731-0.10128 2.8594-0.0957zm118.57 11.158c-5.3298-0.02179-10.287 2.6184-12.18 8.3965-2.5902 7.7705 2.7238 12.951 8.1699 17.6 5.4457 4.649 11.09 8.767 9.1641 14.611-1.5275 4.4496-7.1069 5.2462-12.088 3.5859-7.7702-2.5902-9.0976-10.028-9.5625-18.197l-1.3281-0.39844-4.9824 14.943 1.7949 0.59766c0.9302-0.53118 2.2577-1.1289 2.9219-0.86328 0.66388 0.19938 2.1912 1.2616 4.1172 2.3906 1.9922 1.062 4.252 2.3903 6.5762 3.1211 9.2981 3.0551 17.201 2.1927 20.588-7.9688 2.5237-7.6376-2.7906-13.017-8.3691-17.732-5.5125-4.7818-11.289-8.8334-9.6289-13.814 1.3948-4.1841 6.1092-4.9826 9.7617-3.7871 7.1724 2.3909 9.4317 11.491 9.2324 18.066l1.4609 0.53125 4.8477-14.811-1.2617-0.39844c-0.86332 0.73049-2.4572 1.2618-3.6523 0.86328-0.59833-0.19924-1.7266-1.1952-3.4531-2.3242-1.6604-1.2619-3.9861-2.5916-6.7754-3.5215-1.76-0.58113-3.5769-0.88336-5.3535-0.89062zm-204.12 5.6074-20.256 7.3047 0.59766 1.5938 0.26562-0.06641 0.19922-0.06641 0.26562-0.13281 0.19922-0.06641 0.26563-0.06641 0.19922-0.06641 0.19922-0.06641 0.19921-0.06641 0.19922-0.06641 0.19922-0.06641 0.19922-0.06641h0.19922l0.19922-0.06641 0.13281-0.06641h0.19922l0.13281-0.06641h0.33203l0.26563-0.06641h0.26562 0.26563 0.26562 0.19922l0.26563 0.06641 0.19922 0.06641 0.19921 0.13281 0.19922 0.13281 0.13282 0.13281 0.19921 0.13281 0.13282 0.19922 0.19922 0.19922 0.13281 0.19922 0.13281 0.26562 0.19922 0.26562 0.13281 0.33203 0.13281 0.26562 0.0664 0.19922 0.0664 0.19922 0.13281 0.13281 0.0664 0.19922 0.0664 0.19922 0.0664 0.19922 0.0664 0.26563 0.0664 0.19922 0.13281 0.19922 0.0664 0.26562 10.229 28.027c1.7935 4.9809 1.4619 5.6464-3.918 7.6387l0.59765 1.5938 38.453-14.014-1.0625-13.549-1.5274 0.33203c-1.8596 11.091-4.9812 14.212-15.275 17.932-5.9109 2.1917-7.1049 1.9264-8.8984-2.9883l-10.21-28.032c-1.8597-4.9812-1.4619-5.6443 3.918-7.7031l-0.59766-1.5273zm87.84 3.2305c6.1925 0.12167 10.528 2.6724 11.051 10.053 0.53132 7.173-2.4562 10.758-9.6953 11.355h-0.66406l-0.66406 0.06641h-0.33203-0.26563-0.33203-0.26563-0.33203-0.26562-0.26563l-0.33398-0.06641h-0.26563l-0.19922-0.06641-0.26562-0.06641-0.26563-0.06641-0.19921-0.06641-0.26563-0.13281-0.19922-0.06641-0.19922-0.13281-0.19922-0.13281-0.13281-0.13281-0.19922-0.13281-0.13281-0.19922-0.13281-0.19922-0.13281-0.19922-0.0664-0.13281-0.0664-0.06641v-0.13281l-0.0664-0.13281-0.0664-0.13281v-0.13281l-0.0664-0.13281v-0.13281l-0.0664-0.19922v-0.13281-0.13281-0.19922l-1.3281-17.799 4.1172-0.26562c0.95467-0.07472 1.879-0.10722 2.7637-0.08984zm154.31 5.4023-0.73243 1.4609 0.26563 0.13281 0.19922 0.13281 0.19922 0.13281 0.26562 0.06641 0.20117 0.13281 0.19922 0.13281 0.19922 0.06641 0.19922 0.13281 0.13281 0.06641 0.19922 0.13281 0.19922 0.06641 0.13281 0.13281 0.13281 0.06641 0.19922 0.13281 0.26563 0.19922 0.26562 0.13281 0.19922 0.19922 0.19922 0.19922 0.19922 0.19922 0.13281 0.19922 0.13282 0.20117 0.13281 0.19922 0.0664 0.19922 0.0664 0.19922 0.0664 0.19922v0.19922 0.26562 0.26562 0.19922l-0.0664 0.26562-0.0664 0.33203-0.13281 0.26562-0.0664 0.33203-0.13282 0.33203-0.19922 0.33203-0.0664 0.19922-0.0664 0.19922-0.0664 0.19922-0.13281 0.19922-0.0664 0.19922-0.13282 0.19922-0.0664 0.19922-0.13281 0.19922-13.15 26.83c-2.3241 4.7822-3.0559 4.9163-8.2363 2.459l-0.73047 1.5273 19.326 9.4961 0.73047-1.5273c-5.1141-2.5237-5.4458-3.2534-3.0547-7.9688l13.15-26.832c2.3242-4.7815 3.0559-4.9808 8.2363-2.5234l0.73047-1.4609-19.326-9.498zm-296.61 17.268-18.465 11.025 0.86328 1.4609 0.19922-0.13281 0.26563-0.13281 0.19921-0.13281 0.19922-0.13281 0.19922-0.13281 0.19922-0.06641 0.19922-0.13281 0.20117-0.06641 0.19922-0.13281 0.13281-0.06641 0.19922-0.13281 0.19922-0.06641 0.13281-0.06641 0.19922-0.06641 0.26563-0.13281 0.33203-0.13281 0.26562-0.06641 0.26563-0.06641 0.26562-0.06641h0.19922 0.26563 0.19922 0.26562l0.19922 0.06641 0.19922 0.06641 0.19922 0.13281 0.19922 0.13281 0.19921 0.13281 0.19922 0.19922 0.19922 0.13281 0.19922 0.26563 0.19922 0.19922 0.19922 0.26562 0.19922 0.33203 0.19921 0.26563 0.13282 0.19922 0.13281 0.13281 0.0664 0.19922 0.13281 0.19922 0.13281 0.19922 0.13281 0.19922 0.0664 0.19922 0.13281 0.19922 15.275 25.637c2.7231 4.5823 2.5242 5.314-2.3242 8.3027l0.79688 1.3945 35.199-20.988-3.5859-13.15-1.3945 0.66406c0.19924 11.224-2.2586 14.878-11.689 20.523-5.446 3.2544-6.642 3.1214-9.2988-1.3281l-15.31-25.628c-2.723-4.5828-2.5221-5.2476 2.3926-8.2363l-0.86329-1.4609zm333.8 1.4609-0.99609 1.3281c1.0627 0.93027 4.5157 3.5212 3.3867 5.1152l-19.99 27.098c-2.1919 2.9887-5.0484 3.188-8.3027 1.0625l-0.9961 1.3281 12.486 9.2305 0.9961-1.3281-0.26563-0.26563-0.33203-0.19922-0.26562-0.26562-0.26563-0.19922-0.26562-0.26563-0.26563-0.26562-0.19922-0.19922-0.26562-0.26562-0.19922-0.26563-0.19922-0.26563-0.13281-0.19921-0.19922-0.26563-0.13281-0.26562-0.13282-0.26563-0.13281-0.33203-0.13281-0.26562-0.0664-0.26563-0.0664-0.26563-0.0664-0.26562v-0.33203-0.26563-0.33203-0.26562l0.0664-0.33203 0.0664-0.26563 0.13281-0.33203 0.0664-0.33203 0.19922-0.26563 0.13281-0.33203 0.19922-0.33203 0.19922-0.33203 0.19922-0.33203 19.791-26.766 0.13282 0.13281 5.1816 55.455 1.9922 1.4609 22.779-30.816c2.9222-3.9845 4.5834-3.7852 8.1035-1.1953l0.99609-1.3281-12.221-9.0312-0.92969 1.3945c4.0514 2.9887 4.9806 4.9136 2.125 8.7656l-15.076 20.457-3.7852-43.635-13.35-9.8301zm-381.08 31.985c-0.0737 0.0145-0.13476 0.0478-0.20117 0.0977-0.19925 0.13322-0.19922 0.33195-0.19922 0.99609 0.26566 2.723-0.0664 5.3807-0.33203 7.9043 0.59759-0.19945 1.4608 0.33197 2.2578 0.79687l8.6992 26.633c2.3247 7.1728 2.7892 9.3648-0.0664 13.217l1.1289 1.2617 10.361-9.0996-1.1309-1.2617c-2.5898 2.3242-4.5154 2.5898-5.5781 1.3945-0.4651-0.53131-1.328-2.3902-1.9258-4.25l-1.6602-4.6504 14.213-12.42 4.6484 2.0606c1.1289 0.46443 3.3889 1.2613 4.3184 2.2578 0.93027 1.129 0.79712 2.7221-2.2578 5.3789l1.0625 1.2617 15.541-13.613-1.1289-1.2637c-2.9222 2.1247-4.2516 2.59-7.8379 0.92969l-38.52-17.201c-0.84684-0.34868-1.1715-0.47327-1.3926-0.42969zm4.0488 11.057 19.193 8.7012-12.752 11.156-6.4414-19.857zm434.62 2.8555-1.2637 1.1289 0.26563 0.26562 0.19922 0.26563 0.19921 0.26562 0.20118 0.26563 0.19922 0.20117 0.13281 0.26562 0.13281 0.19922 0.13281 0.19922 0.13281 0.19922 0.0664 0.19922 0.0664 0.19922 0.0664 0.19922v0.19921l0.0664 0.19922v0.19922l-0.0664 0.13281v0.19922l-0.0664 0.19922-0.0664 0.19922-0.13281 0.19922-0.13281 0.19922-0.13282 0.19922-0.0664 0.13281-0.0664 0.13281-0.13281 0.0664-0.0664 0.13281-0.13281 0.13281-0.0684 0.0664-0.13281 0.13281-0.13281 0.13281-0.0664 0.13282-0.13281 0.13281-0.13282 0.13281-0.13281 0.13281-0.19922 0.13282-0.13281 0.13281-0.13281 0.13281-0.19922 0.13281-0.13281 0.19922-0.19922 0.13282-0.13281 0.13281-0.19922 0.19922-22.314 19.857c-3.9845 3.5198-4.7144 3.4536-7.4375 0.46484l-1.1953 1.1289 25.436 28.625 11.424-5.5781-0.33203-1.5273c-9.7629 1.0627-13.681 1.7256-20.455-5.9785l-4.3184-4.7812c-1.4613-1.6603-1.1295-2.1911 0.66406-3.7852l13.217-11.689 2.3906 2.6563c6.1099 6.9071 5.9768 11.556 1.1953 16.67l0.9961 1.1289 15.607-13.947-0.99609-1.0625c-5.7116 4.1179-11.423 0.73105-15.541-3.918l-2.3906-2.6562 14.346-12.818 6.7734 7.5723c4.3834 4.9811 4.2525 10.095 2.7246 18.928l1.0625 0.53125 5.7109-11.291-23.975-26.965zm-475.33 23.113-9.0312 13.082 19.127 28.824-33.805-7.3711-8.7676 12.686 1.3945 0.9961c0.86332-1.0627 3.3883-4.6484 4.9824-3.5195l27.76 18.994c3.055 2.1249 3.3204 4.9801 1.3281 8.3008l1.3965 0.92969 8.7656-12.818-1.3281-0.92969c-2.3244 3.3209-5.1814 5.1156-8.834 2.6582l-26.365-18.131 0.06641-0.0664 41.707 8.9648 0.59766-0.86328h0.002l-23.844-36.264 0.13281-0.19922 26.898 18.465c4.3834 2.9887 4.4499 3.7185 1.2617 8.5l1.3945 0.92969 12.154-17.732-1.3945-0.92969c-3.254 4.7152-3.9858 4.8481-8.3691 1.8594l-24.639-16.936c-4.3834-2.9887-4.4518-3.7185-1.2637-8.5l-1.3281-0.92969zm511.88 29.881c-2.1375-0.0581-4.356 0.49135-6.5352 1.7988-7.0401 4.2505-6.3751 11.622-5.2461 18.729 1.0627 7.1064 2.6568 13.88-2.5898 17.068-3.9849 2.3907-8.7672-0.6637-11.49-5.1133-4.2509-7.0399-0.39912-13.614 4.5156-20.123l-0.66406-1.1289-13.549 8.168 0.9961 1.5938c1.0627 0.19871 2.3925 0.59758 2.791 1.1953 0.39882 0.5976 0.86293 2.3902 1.5938 4.5156 0.73076 2.1247 1.6597 4.5834 2.9219 6.6426 5.0475 8.3684 11.622 12.883 20.854 7.3047 6.8407-4.1177 6.3106-11.689 5.1816-18.861-1.129-7.2392-2.8556-14.013 1.6602-16.736 3.7857-2.3242 7.9021 0.19875 9.8281 3.4531 3.9186 6.4422-0.26527 14.81-4.7148 19.725l0.79688 1.3301 13.283-8.0371-0.66406-1.1289c-1.1952 0-2.7226-0.6638-3.3203-1.7266-0.39856-0.53132-0.53314-2.0586-1.0645-4.0508-0.53138-1.993-1.394-4.5174-2.9219-7.041-2.6483-4.3833-6.9597-7.4483-11.662-7.5762zm-555.92 40.914-0.46484 1.2637c0.66414 0.93021 1.0626 2.5898 0.59766 3.7188-0.19931 0.59759-1.328 1.6598-2.5898 3.2539-1.3283 1.5941-2.8553 3.7868-3.918 6.5098-2.8558 6.9735-1.2627 15.01 6.2422 18.064 7.6377 3.1219 13.084-1.7923 18.131-6.9727 5.0475-5.1138 9.5635-10.428 15.209-8.1035 4.3172 1.7268 4.7149 7.4385 2.7227 12.221-3.0551 7.6374-10.626 8.5-18.795 8.3672l-0.53125 1.2637 14.611 5.9766 0.73047-1.6602c-0.4649-0.99576-0.99614-2.3906-0.66406-3.0547 0.26566-0.66388 1.3298-2.0582 2.6582-3.918 1.1952-1.8597 2.6565-4.0526 3.5859-6.3106 3.7193-9.0988 3.3861-17.001-6.5762-21.119-7.4384-2.9886-13.149 1.9251-18.264 7.1055-5.1139 5.2465-9.5638 10.693-14.412 8.7012-4.1177-1.7268-4.5158-6.443-3.1211-10.029 2.8558-6.9733 12.087-8.5665 18.662-7.9688l0.59766-1.3945v-0.002l-14.412-5.9121zm578.5 4.3398c-1.3383 0.0584-2.7269 0.34977-4.1465 0.91015-7.6376 2.9887-8.1699 10.427-8.2363 17.6-0.0662 7.1064 0.39928 14.146-5.3125 16.404-4.3166 1.7271-8.5681-2.1242-10.494-6.9727-3.0551-7.5712 1.794-13.415 7.7715-19.061l-0.53125-1.2617-14.678 5.8438 0.66406 1.7266c1.0627 0.39816 2.3906 0.99601 2.6562 1.6602 0.19951 0.66381 0.46481 2.4568 0.73047 4.6484 0.39889 2.2579 0.9299 4.8495 1.8594 7.1074 3.5863 9.0984 9.3659 14.61 19.328 10.625 7.4383-2.9886 8.168-10.493 8.2344-17.732 0.0663-7.372-0.53187-14.345 4.3828-16.271 4.118-1.6603 7.7714 1.5268 9.166 5.0469 2.7894 6.9736-2.7219 14.546-7.9023 18.664l0.53125 1.4609 14.477-5.7793-0.53125-1.1953c-1.129-0.19871-2.5234-1.1288-2.9883-2.2578-0.19924-0.5976-0.19919-2.1243-0.39844-4.1836-0.13243-2.0586-0.59764-4.7145-1.7266-7.4375-2.2125-5.666-7.056-9.7979-12.855-9.5449zm-579.16 98.738-4.0508 12.486h-13.15l10.627 7.7715-4.0508 12.484 10.625-7.7031 10.627 7.7031-4.0508-12.484 10.625-7.7715h-13.148l-4.0527-12.486zm584.52 0-4.0527 12.486h-13.15l10.627 7.7715-4.0508 12.484 10.627-7.7031 10.625 7.7031-4.0508-12.484 10.627-7.7715h-13.15l-4.0508-12.486zm-21.254 102.48-5.2461 14.213 1.5937 0.53125c1.727-4.715 3.3194-6.176 7.8359-4.5156l23.777 8.7676-40.779 15.807-5.7773 15.541 1.5938 0.59766c0.59832-1.2622 2.1246-5.3145 3.9844-4.6504l31.547 11.689c3.4535 1.2621 4.4512 3.9191 3.3223 7.6387l1.5938 0.59766 5.3789-14.611-1.5274-0.53125-0.13281 0.33203-0.13281 0.33203-0.19922 0.33203-0.13281 0.33203-0.13281 0.33204-0.19922 0.33203-0.19922 0.26562-0.13282 0.26563-0.19921 0.26562-0.19922 0.26563-0.19922 0.26562-0.19922 0.19922-0.19922 0.26563-0.19922 0.19921-0.26562 0.19922-0.19922 0.13282-0.26563 0.19921-0.26562 0.13282-0.26563 0.13281-0.26562 0.0664-0.26563 0.13281-0.26562 0.0664-0.33203 0.0664h-0.26563l-0.33203 0.0664h-0.33203l-0.33203-0.0664-0.33203-0.0664-0.39844-0.0664-0.33203-0.0664-0.39844-0.13281-0.35-0.14h-0.002l-31.215-11.49v-0.19922l51.938-20.389 0.86328-2.3242-35.932-13.283c-4.716-1.7266-4.981-3.3218-3.4531-7.4394l-1.5938-0.59766zm-584.13 0.06l-1.5938 0.46484 4.3164 13.812 1.5938-0.53125c-1.0626-3.4538-0.59778-5.3788 0.92969-5.9102 0.73056-0.19925 2.7244-0.19925 4.7168 0.0664l4.9141 0.39844 5.9766 18.994-3.7852 3.5859c-0.86332 0.86326-2.5233 2.6562-3.7852 3.0547-1.3947 0.39888-2.789-0.46421-4.0508-4.5156l-1.5938 0.53125 6.5078 20.723 1.5938-0.53125c-0.79698-3.7194-0.73077-5.1813 2.1914-7.9043l31.017-29.23c0.92954-0.86345 1.0625-0.99605 0.92969-1.3281-0.06622-0.19924-0.19914-0.332-0.86328-0.59766-2.5898-0.92953-4.914-2.3906-7.1719-3.8516-0.06701 0.66455-0.8632 1.3281-1.5273 1.8594l-28.16-3.39c-7.505-0.8-9.697-1.39-12.155-5.71zm17.201 8.4336 20.92 2.5234-15.607 14.479-5.3125-17.002zm43.635 37.191-1.3945 0.79688c2.3904 4.3172 2.2564 5.0483-2.3926 7.7051l-25.9 14.877c-4.5826 2.6561-5.3141 2.3915-7.8379-1.8594l-1.3945 0.86328 12.885 22.514c6.7079 11.689 19.26 16.14 31.215 9.2988l1.1289-0.66406 0.99609-0.73242 0.99609-0.73047 0.86328-0.79688 0.86329-0.86328 0.79687-0.79687 0.73242-0.92969 0.66407-0.92969 0.59765-0.92968 0.59766-0.9961 0.46484-0.99609 0.46485-1.0625 0.39843-0.9961 0.39844-1.1289 0.26563-1.0645 0.19921-1.0625 0.19922-1.1289 0.13281-1.1289 0.0664-1.1289 0.0664-1.1289-0.0664-1.1953-0.0664-1.1289-0.13281-1.1289-0.19922-1.1953-0.19921-1.1289-0.33204-1.1289-0.33203-1.1289-0.33203-1.1289-0.46484-1.0625-0.46485-1.1289-0.53125-1.0625-0.59765-1.0625h-0.002l-12.352-21.52zm4.8438 14.039c0.98696-0.0998 1.9459 1.0716 4.5859 5.7539 5.5788 9.6964 1.1966 20.255-8.9648 26.1-10.161 5.7778-20.921 5.3803-27.098-5.3789l-0.13281-0.26562-0.13281-0.26563-0.13281-0.26562-0.13281-0.19922-0.13281-0.26563-0.13281-0.19922-0.13281-0.26562-0.13281-0.19922-0.06641-0.19922-0.13281-0.19922-0.19922-0.39843-0.13281-0.39844-0.19922-0.33203-0.13281-0.39844-0.06641-0.33203-0.13281-0.26563-0.06641-0.33203-0.06641-0.26562v-0.26563-0.26562-0.26563l0.06641-0.26562 0.06641-0.19922 0.06641-0.26563 0.13281-0.19922 0.13281-0.19921 0.13281-0.26563 0.19922-0.19922 0.19922-0.19922 0.26562-0.19922 0.26562-0.20117 0.26562-0.19922 0.33203-0.26562 0.33203-0.19922 0.39844-0.19922 0.39844-0.26562 0.19922-0.0664 0.19922-0.13281v0.002l29.023-16.67c0.39852-0.23255 0.72961-0.40815 1.0586-0.44141zm500.11 11.137c-7.9699-0.16275-15.877 3.6891-20.322 10.488-6.8404 10.427-4.3177 25.37 6.4414 32.477l1.0625 0.66602 1.0644 0.59766 1.0625 0.53125 1.0625 0.39843 1.0625 0.39844 1.1289 0.33203 1.1289 0.33203 1.1289 0.19922 1.1289 0.13282 1.1289 0.13281 1.1289 0.0664h1.1289l1.1289-0.0664 1.1289-0.13281 1.1289-0.19922 1.1289-0.19922 1.1289-0.26563 1.0625-0.33203 1.0625-0.33203 1.0644-0.46484 0.9961-0.46485 1.0625-0.46484 0.99609-0.59766 0.92969-0.59765 0.92969-0.66602 0.92968-0.66406 0.86328-0.79688 0.79688-0.79687 0.79687-0.79688 0.73047-0.86328 0.73047-0.92968 0.66406-0.92969c6.8405-10.361 4.3178-25.37-6.5078-32.477-3.7213-2.4427-7.9132-3.6296-12.088-3.7148zm-8.6504 6.0684c5.1564 0.0499 10.86 2.591 15.492 5.6172 8.169 5.446 16.272 14.612 10.361 23.578-5.9109 9.0323-17.601 5.1804-25.77-0.26562l-0.79687-0.46485-0.73047-0.53125-0.79687-0.59765-0.73047-0.59766-0.73047-0.59765-0.73242-0.59766-0.73047-0.59766-0.66406-0.66406-0.66407-0.66406-0.66406-0.73242-0.66406-0.66407-0.59766-0.73046-0.53125-0.73047-0.53125-0.73047-0.46484-0.73047-0.46485-0.79688-0.39843-0.79687-0.39844-0.73242-0.33203-0.79688-0.26563-0.79687-0.19922-0.86328-0.19921-0.79688-0.0664-0.79687-0.0664-0.86329v-0.79687l0.0664-0.86328 0.13281-0.86328 0.26563-0.79688 0.26562-0.86328 0.33203-0.86328 0.26563-0.39844 0.19922-0.46484 0.26562-0.39844 0.26563-0.39844h0.002c2.586-3.9226 6.2648-5.3903 10.275-5.3516zm-462.36 24.811-1.1953 1.1289c0.86332 1.0628 3.8517 4.2498 2.457 5.6445l-24.176 23.379c-2.6564 2.5904-5.5116 2.3248-8.3672-0.33203l-1.1953 1.1953 10.826 11.158 1.1953-1.1289c-2.8562-2.9885-4.0512-6.1112-0.79687-9.2324l22.979-22.182 0.0664 0.0664-17.135 39.051 0.73046 0.79688 40.248-16.139 0.19922 0.13281-23.379 22.713c-3.8523 3.6528-4.5813 3.5866-8.6328-0.46484l-1.1953 1.1289 15.01 15.475 1.1953-1.1289c-3.985-4.1842-4.0513-4.9133-0.19922-8.6328l21.451-20.721c3.8524-3.719 4.5833-3.6529 8.6348 0.46484l1.1934-1.1953-11.023-11.424-32.078 13.018 13.947-31.68-10.76-11.092zm428.37 10.561-14.811 15.674 1.2637 1.1289 0.13282-0.19922 0.19922-0.19922 0.19921-0.19922 0.13282-0.13281 0.19921-0.19922 0.13282-0.13281 0.19922-0.13281 0.13281-0.19922 0.13281-0.13282 0.13281-0.13281 0.19922-0.13281 0.13281-0.13281 0.13282-0.13281 0.13281-0.0664 0.26563-0.26563 0.26562-0.13281 0.19922-0.19922 0.26562-0.13281 0.26563-0.13281 0.19922-0.0664 0.19922-0.0664 0.26562-0.0664h0.19922 0.19922 0.19922l0.26562 0.0664 0.19922 0.0664 0.26563 0.0664 0.19922 0.0664 0.26562 0.13282 0.26562 0.19921 0.19922 0.13282 0.26563 0.19922 0.33203 0.26562 0.13281 0.13281 0.13281 0.0664 0.13282 0.13281 0.19922 0.13281 0.13281 0.19922 0.13281 0.13282 0.19922 0.13281 0.13281 0.13281 0.19922 0.19922 0.19922 0.13281 21.65 20.588c3.8518 3.6529 3.7856 4.3827-0.0664 8.6328l1.1953 1.1289 14.811-15.605-1.1953-1.1953c-3.9847 4.1176-4.7144 4.1838-8.5664 0.53125l-21.719-20.523c-3.8524-3.6529-3.7854-4.3827 0.13282-8.6328l-1.2617-1.1289zm-25.701 25.17-1.8594 1.3945c0.13243 1.1289-1.1955 2.1246-2.125 2.8555l-24.242 18.33c-0.92953 0.73083-2.3238 1.6622-3.3203 1.2637l-1.8594 1.3945 5.7109 12.154 1.3945-0.5332c-0.92954-6.7742 0.001-13.615 5.7793-17.998 1.6603-1.2621 2.3907-0.66458 3.5859 0.86329l19.791 26.234c3.1874 4.2507 3.0554 4.9816-2.125 8.9668l1.0625 1.2617 18.33-13.814-0.99609-1.3945-0.26562 0.19922-0.19922 0.19922-0.26563 0.13281-0.19922 0.19922-0.19922 0.13281-0.19921 0.13282-0.19922 0.13281-0.19922 0.19922-0.19922 0.13281-0.19922 0.0664-0.19922 0.13281-0.19922 0.13281-0.13281 0.13281-0.19922 0.0664-0.13281 0.13281-0.19922 0.0664-0.13281 0.0664-0.19922 0.0664-0.13281 0.13281-0.13282 0.0664-0.26562 0.0664-0.26563 0.13281-0.26562 0.0664-0.26563 0.0664h-0.26562-0.19922l-0.26562-0.0664h-0.19922l-0.19922-0.0664-0.26563-0.13281-0.19922-0.13282-0.19921-0.13281-0.19922-0.13281-0.26563-0.19922-0.19922-0.19922-0.26758-0.26562-0.19921-0.26563-0.26563-0.26562-0.26562-0.33204-0.26563-0.33203-0.13281-0.19922-0.13281-0.13281-0.13282-0.19922-0.19726-0.19922-19.791-26.301c-1.1293-1.4608-1.5275-2.3237 0.13281-3.5859 5.7781-4.3836 12.684-3.3871 18.861-0.66407l0.92969-1.1289-10.096-8.9004zm-202.56 3.7852c-8.9658 0-14.678 6.3758-14.678 15.342 0 8.4348 4.915 13.947 13.482 13.947 1.9922 0 4.0506-0.53118 5.9766-1.1289l-0.19922 0.79687-0.19922 0.86328-0.26563 0.73047-0.26562 0.79688-0.33203 0.73047-0.39844 0.73047-0.39844 0.73242-0.39843 0.73047-0.46485 0.66406-0.46484 0.66406-0.46485 0.66406-0.53125 0.66407-0.53125 0.59765-0.59765 0.59766-0.59766 0.59766-0.59765 0.53125-0.59766 0.53125-0.66406 0.53125-0.66407 0.46484-0.66406 0.53125-0.66406 0.46484-0.73242 0.39844-0.73047 0.46484-0.73047 0.39844-0.73047 0.39844-0.73047 0.33203-0.73047 0.33203-0.73242 0.33203-0.79687 0.33203-0.73047 0.26563-0.79688 0.26562-0.72851 0.19922 0.39844 1.1953c15.209-3.7192 27.098-11.424 27.098-28.891 0-9.0324-3.9851-17.799-14.146-17.799zm73.318 0c-6.774 0-10.691 4.0521-12.418 10.428l1.2617 0.39843c1.4609-2.7223 4.2493-5.0469 7.4375-5.0469 3.985 0 7.3066 2.4567 7.3066 6.6406v0.26563 0.19922l-0.0664 0.53125-0.13281 0.39844-0.0664 0.46484-0.19922 0.39844-0.19922 0.39843-0.19921 0.4004-0.19922 0.39843-0.26563 0.33203-0.33203 0.33204-0.26562 0.33203-0.33204 0.33203-0.39843 0.26562-0.33203 0.33203-0.39844 0.26563-0.40039 0.19922-0.39844 0.26562-0.46484 0.19922-0.39844 0.19922-0.46485 0.19922-0.46484 0.13281-0.46484 0.19922-0.39844 0.13281-0.46484 0.0664-0.46485 0.13281-0.46484 0.13281-0.46485 0.0664-0.46484 0.0664h-0.46484l-0.39844 0.0664h-0.46484-0.39844l-0.002-0.002v1.5273c6.5086 1.7933 13.814 6.7082 13.814 13.881 0 3.985-2.3236 9.498-6.9727 9.498-3.9183 0-5.1129-2.5233-6.1094-5.0469-0.99576-2.5236-1.7924-4.9805-5.0469-4.9805-2.2579 0-3.8535 1.7927-3.8535 3.7188 0 7.1727 10.228 7.9688 14.877 7.9688 8.4348 0 14.014-4.7137 14.014-14.145 0-6.243-5.5795-12.088-11.689-13.482v-0.13281c4.0514-1.3946 8.7676-4.4504 8.7676-9.2988 0-5.9775-4.7162-9.6309-10.494-9.6309zm-100.82 0.002c-1.5275 1.3947-5.1808 3.7848-11.756 4.7812v1.6602h0.19922 0.26562 0.19922 0.19922 0.19922 0.19922 0.19922l0.19922 0.0664h0.19922 0.19921 0.13282 0.19922 0.13281 0.19922 0.13281l0.13281 0.0664h0.13281 0.13477 0.13281 0.13281l0.13282 0.0664h0.13281l0.19922 0.0664h0.26562l0.13282 0.0664 0.19921 0.0664 0.19922 0.0664 0.13282 0.0664 0.13281 0.0664 0.13281 0.13281 0.0664 0.0664 0.13281 0.13281 0.0664 0.0664 0.0664 0.13281 0.0664 0.13281 0.0664 0.13281v0.13282l0.0664 0.13281v0.19922 0.13281l0.0664 0.19922v0.19922 0.19922 31.016c0 2.5898-1.2632 3.9863-6.8418 4.1191v1.6602h21.119v-1.6602c-5.9774-0.1325-7.1719-1.5293-7.1719-4.1191v-40.047h-1.1289zm75.646 0c-0.99648 0.66388-2.1251 0.92968-3.3203 0.92968h-19.727l-2.457 22.646c7.7041-0.39842 21.186 2.5242 21.186 12.354 0 4.9811-3.9835 9.0977-9.0976 9.0977-4.3164 0-5.3144-2.3237-5.3144-4.9805 0-2.5243-1.5266-5.6445-4.9805-5.6445-2.5906 0-4.1172 1.9251-4.0508 4.25 0 6.841 8.8333 8.0371 14.014 8.0371 9.4972 0 14.943-6.0439 14.943-14.346 0-12.287-12.022-15.873-23.645-17.201l0.73046-7.373h18.529l3.7207-7.5039-0.53125-0.26562zm-49.412 1.7266h0.26562 0.33203c6.5083 0 6.9727 9.1633 6.9727 13.746 0 9.3646-0.66326 11.623-5.5117 11.623-6.5746 0-8.3691-7.1733-8.3691-12.42v-0.46485l0.0664-0.46484v-0.46484-0.46485-0.46484l0.0664-0.53125v-0.53125l0.0664-0.53125 0.0664-0.53125 0.0664-0.53125 0.0664-0.53125 0.13281-0.53125 0.13281-0.53125 0.13281-0.53125 0.13282-0.53125 0.13281-0.53125 0.19922-0.46485 0.19922-0.53125 0.26562-0.46484 0.19922-0.39844 0.26562-0.46484 0.33204-0.39844 0.26562-0.33203 0.33399-0.33203 0.39843-0.33203 0.19922-0.13281 0.19922-0.13282 0.19922-0.13281 0.19922-0.13281 0.19922-0.0664 0.26562-0.13281 0.19922-0.0664 0.26563-0.0664 0.26562-0.0664 0.26562-0.0664h0.26563l0.26563-0.0664zm-147.91 7.1719-0.92968 1.3281 0.19922 0.19922 0.19922 0.13281 0.19921 0.13281 0.19922 0.13281 0.19922 0.13282 0.19922 0.13281 0.13281 0.13281 0.19922 0.13281 0.13281 0.13282 0.19922 0.13281 0.13281 0.13281 0.13282 0.13281 0.13281 0.13282 0.13281 0.13281 0.13282 0.0664 0.13281 0.13281 0.19922 0.19922 0.19921 0.26562 0.19922 0.19922 0.13282 0.19922 0.13281 0.19922 0.0664 0.26562 0.13281 0.19922v0.19922l0.0664 0.19922v0.26562 0.19922 0.19922l-0.0664 0.26563-0.0664 0.26758-0.13281 0.26562-0.13281 0.26562-0.13282 0.26563-0.13281 0.26563-0.19922 0.33203-0.0664 0.13281-0.13282 0.19922-0.13281 0.13281-0.0664 0.19922-0.13282 0.19922-0.13281 0.19922-0.13281 0.13281-0.13282 0.19922-0.13281 0.19922-0.13281 0.19922-17.201 24.439c-3.055 4.3171-3.7847 4.3833-8.5 1.1289l-0.92969 1.3945 17.6 12.42 0.92969-1.3945c-4.649-3.3211-4.7816-4.05-1.7266-8.3672l17.135-24.508c3.0552-4.3172 3.8511-4.3833 8.5664-1.1289l0.92968-1.3281-17.6-12.42zm27.695 19.727-0.73047 1.4609c1.1289 0.73083 4.8478 2.5229 4.0508 4.3164l-14.279 30.418c-1.5941 3.3869-4.2493 4.1839-7.7031 2.8555l-0.66406 1.4609 13.35 6.3106 0.66406-1.5293-0.26563-0.13281-0.33203-0.19922-0.33203-0.13281-0.26563-0.19922-0.26562-0.13281-0.33203-0.19922-0.26563-0.19922-0.19922-0.19922-0.26562-0.19922-0.19922-0.19921-0.26562-0.19922-0.19922-0.26563-0.20117-0.19922-0.13282-0.26562-0.19922-0.19922-0.13281-0.26563-0.13281-0.26562-0.0664-0.26563-0.13281-0.26562-0.0664-0.26563-0.0664-0.26562v-0.26563l-0.0664-0.33203v-0.26562-0.33203l0.0664-0.33203 0.0664-0.33204 0.0664-0.33203 0.13281-0.33203 0.0664-0.33203 0.19922-0.39844 0.13281-0.39843h0.002l14.145-30.086 0.13282 0.0664 14.279 52.666 2.127 0.99609 16.271-34.734c2.125-4.5158 3.7182-4.649 7.5039-2.8555l0.66406-1.5273-13.018-6.1094-0.73047 1.5273c4.3834 2.0588 5.5782 3.718 3.5859 8.0352l-10.824 22.98-10.893-41.377-14.279-6.707zm264.33 7.0605c-0.0716-0.005-0.13281 0.0117-0.19922 0.0449-0.19925 0.13323-0.33202 0.33195-0.46485 0.9961-0.53138 2.7231-1.5935 5.2458-2.6562 7.7031 0.66461-0.0669 1.4609 0.664 2.0586 1.1953l1.1953 28.359c0.33187 7.5715 0.13303 9.7636-3.7852 12.885l0.73047 1.5273 12.951-6.5078-0.73047-1.4609c-3.2544 1.5942-5.3141 1.461-6.0449 0.0664-0.26592-0.66388-0.59764-2.7226-0.73047-4.7148l-0.33203-4.916 17.799-8.8984 4.1191 3.1211c0.99575 0.73076 3.0546 2.0581 3.6524 3.3203 0.66381 1.3284-0.001 2.7889-3.7871 4.7148l0.73242 1.4609 19.459-9.6953-0.73047-1.4609c-3.6525 1.3277-5.0482 1.5275-8.2363-0.9961l-33.74-25.98c-0.74696-0.54812-1.0469-0.75981-1.2617-0.77539zm0.92968 11.801 16.803 13.082-15.939 7.9707-0.86328-21.053zm-205.55 6.2422-0.46485 1.5938 0.26563 0.13281 0.26563 0.0664 0.26562 0.0664 0.19922 0.0664 0.26562 0.0664 0.19922 0.0664 0.19922 0.0664 0.19922 0.0664 0.19922 0.0664 0.19922 0.0664 0.19922 0.0664 0.19922 0.0664 0.13281 0.0664h0.19922l0.13281 0.0664 0.13281 0.0664 0.33203 0.13281 0.26563 0.19922 0.19922 0.13282 0.19921 0.13281 0.19922 0.13281 0.19922 0.19922 0.13282 0.13281 0.13281 0.19922 0.13281 0.19922 0.0664 0.19922 0.0664 0.19922 0.0664 0.19921v0.26563l0.0664 0.26563v0.26562l-0.0664 0.26562v0.33204l-0.0664 0.33203-0.0664 0.33203v0.19922l-0.0664 0.19922v0.19922l-0.0664 0.19921-0.0664 0.19922-0.0664 0.19922v0.19922l-0.0664 0.26563-0.0664 0.19921-0.0664 0.26758-7.6367 28.889c-1.3281 5.1142-1.9937 5.4474-7.5723 4.0527l-0.39844 1.6602 20.855 5.4453 0.39844-1.6602c-5.5123-1.4612-5.9124-2.1241-4.584-7.2383l7.5723-28.891c1.3282-5.1141 1.9918-5.4474 7.5703-4.0527l0.46484-1.5938-20.854-5.5117zm160.8 1.8027c-3.152-0.11691-6.9257 0.38024-11.367 1.584l-18.131 4.8496 0.46484 1.6602 0.19922-0.0664 0.19922-0.0664 0.26563-0.0664h0.19922l0.19921-0.0664 0.13282-0.0664 0.39843-0.0664 0.33204-0.0664 0.33203-0.0664h0.33203l0.26562-0.0664h0.26563 0.26758 0.26562l0.19922 0.0664h0.19922l0.19922 0.0664 0.19922 0.0664 0.19921 0.13281 0.13282 0.13281 0.19922 0.13282 0.13281 0.13281 0.13281 0.19922 0.13281 0.19922 0.13282 0.19921 0.13281 0.26563 0.13281 0.26562 0.0664 0.13282 0.0664 0.13281 0.0664 0.13281 0.0664 0.19922 0.0664 0.13281 0.0664 0.19922 0.0664 0.13281 0.0664 0.19922v0.19922l0.0664 0.19922 0.0664 0.19922 0.0664 0.19922 0.0664 0.19922 0.0664 0.26562 0.0664 0.19922 0.0664 0.26563 7.8359 28.824c1.3277 5.1142 0.93027 5.7127-3.7188 7.041l0.39844 1.6602 19.924-5.4473-0.46485-1.5938c-5.5126 1.4608-6.1756 1.1297-7.5039-3.9844l-3.7871-13.881 5.1152-1.3281c2.1255-0.59833 3.7851 0.8632 5.7774 3.1211l13.084 14.412 14.08-3.8535-0.46484-1.5938c-4.1839 1.1294-5.3141 0.26547-6.3106-0.66406l-14.55-13.68c-0.66388-0.66422-1.5958-0.92968-2.5254-1.0625l-0.0664-0.19922c4.7154-1.7931 9.233-5.8433 7.7051-11.422-1.4155-5.2053-5.3429-8.4342-12.277-8.6914zm-5.8535 2.4199c4.5576-0.009 7.6197 2.2699 8.9648 7.2012 1.7931 6.5751-1.5264 10.494-8.8984 12.619l-4.1856 1.1289v-0.002l-5.1797-19.061 4.25-1.1289c1.843-0.49803 3.5296-0.75475 5.0488-0.75781zm-113 4.2754c-6.3515 0.18615-12.06 3.861-12.99 10.893-0.99622 8.169 5.2452 12.154 11.488 15.674 6.2427 3.52 12.62 6.4426 11.889 12.486-0.59773 4.716-5.9778 6.5763-11.158 5.9121-8.1025-0.99615-10.958-8.0362-13.018-15.939l-1.3281-0.19922-1.9258 15.74 1.8594 0.19922c0.79704-0.73009 1.9938-1.5938 2.7246-1.4609 0.66388 0.0669 2.39 0.79658 4.4492 1.5273 2.1254 0.73082 4.6479 1.5273 7.0391 1.793 9.7629 1.1955 17.336-1.194 18.664-11.887 0.99616-7.9697-5.3137-12.154-11.623-15.74-6.4423-3.52-12.818-6.3764-12.221-11.623 0.59773-4.3834 5.0483-6.043 8.834-5.5781 7.5046 0.92974 11.488 9.3643 12.617 15.873l1.5293 0.19922-0.002-0.002 1.9258-15.408-1.3945-0.19922c-0.73003 0.92994-2.1915 1.7266-3.3867 1.5938-0.66381-0.0663-1.9255-0.86311-3.8516-1.6602-1.926-0.86399-4.3824-1.7265-7.3711-2.0586-0.9215-0.11622-1.8426-0.16136-2.75-0.13476zm76.137 0.66797-2.3242 0.13281c-0.53138 0.99595-2.1915 1.1289-3.3867 1.1953l-30.352 1.7266c-1.1959 0.0663-2.8573 0.13267-3.4551-0.79687l-2.3223 0.13281-1.9922 13.281 1.459 0.26758c2.9886-6.0434 7.5714-11.291 14.811-11.689 2.0589-0.1325 2.3262 0.7967 2.459 2.7226l1.9258 32.809c0.26572 5.3136-0.26644 5.8456-6.709 6.2441l0.0664 1.6602 22.98-1.2637-0.0664-1.7266h-0.33203l-0.26562 0.0664h-0.26563-0.26562-0.26563-0.26562-0.26563-0.26562-0.19922-0.26563-0.19922-0.19921-0.19922-0.19922-0.19922-0.19922l-0.19922-0.0664h-0.13281-0.19922l-0.13281-0.0664h-0.33203l-0.26563-0.13281-0.26562-0.0664-0.19922-0.0664-0.26563-0.13281-0.13281-0.13282-0.19922-0.13281-0.19922-0.19922-0.13281-0.13281-0.13281-0.19922-0.0664-0.26562-0.13281-0.19922-0.0664-0.26563-0.13281-0.33203-0.0684-0.26562v-0.33204l-0.0664-0.33203-0.0664-0.39843-0.0664-0.39844v-0.46485-0.19921l-0.0664-0.26563v-0.19922-0.26562l-1.8594-32.809c-0.1325-1.926 0.0658-2.8554 2.125-2.9883 7.2392-0.39849 12.422 4.2511 16.074 9.9629l1.3945-0.39843-3.4551-13.018z" transform="scale(.0013889)" stroke-width="0" fill="#ba9900"/>
  <g fill="none">
   <path d="m0.16548 0.47191h0.00009224v-0.00009224l0.00009224-0.00009224 0.00009223-0.00018447 0.00009224-0.00018448 0.00018447-0.00018447 0.00009224-0.00018453 0.00018448-0.00027671 0.00018452-0.00027671 0.00036895-0.00064571 0.00046119-0.00073795 0.00046124-0.00083019 0.00055347-0.001015 0.00055342-0.001015 0.00064572-0.001015 0.00064571-0.001199 0.00064566-0.001199 0.00073795-0.001291 0.00064571-0.001384 0.00073795-0.001384 0.0007379-0.001476 0.00073795-0.001476 0.00073795-0.001476 0.00073795-0.001568 0.001384-0.003136 0.00064571-0.00166 0.00064571-0.001568 0.00064566-0.00166 0.00055348-0.001568 0.00055348-0.001568 0.00046118-0.00166 0.00046124-0.001476 0.00036895-0.001568 0.00027671-0.001476 0.00027676-0.001476 0.001199-0.019094 0.011899-0.001199 0.003597 0.004797-0.005996 0.009501 0.001199 0.003597s0.009593-0.005996 0.010792-0.019094v-0.016604h0.27728l0.004797-0.007195 0.007103 0.001199-0.001199 0.007195 0.017895 0.003505 0.023798 0.011899-0.003597 0.004797-0.013098 0.003597-0.001199 0.005903 0.015497-0.002306 0.008394-0.001199 0.004704-0.004797 0.005996 0.001199-0.005996-0.001199 0.011899-0.001199 0.003597 0.013098 0.005903 0.001199h0.007195l0.009501-0.005996 0.012545 0.012545-0.004243-0.001199-0.013006 0.002398c-0.023245 0.002952-0.026842 0.019002-0.026842 0.019002l0.00535-0.00055347-0.003597 0.030348c0 0.017249 0.012545 0.019648 0.012545 0.019648 0.0107-0.00064566 0.008948-0.014298 0.008948-0.014298-0.007103-0.007103 0-0.029794 0-0.029794l0.020847-0.013006 0.009224 0.009224c0 0.00092243 0.00027671 0.002214-0.00018447 0.002767-0.003229 0.003597-0.004889 0.008671-0.00092243 0.011807 0.00286 0.002306 0.005442-0.00073795 0.008302-0.002029 0.00083019-0.00036894 0.002122 0.00018448 0.002767-0.00027671 0.00092243-0.00064571 0.001937-0.002583 0.001107-0.003044l0.006457 0.008855-0.006549 0.021677 0.006549-0.003505 0.00987-0.001753c0.006826-0.008025 0.025828-0.014574 0.025828-0.014574 0.013652-0.007841 0.001845-0.013744 0.001845-0.013744 0.002583-0.00027671 0.008855-0.008302 0.008855-0.008302s0.014298 0.003597 0.022599-0.009501v-0.013191l0.016696-0.019002 0.020201-0.001199 0.011992-0.011899-0.002491-0.016604 0.011992-0.022692s0.007103-0.016604 0.002398-0.027396c-0.004797-0.0107 0.011807 0.022692 0.011807 0.022692l0.013191 0.014205-0.001199 0.015497 0.013098 0.011899-0.003597 0.007195-0.014298 0.004704-0.011899 0.017895-0.001199 0.013098 0.005904 0.009501 0.005996-0.001199-0.003597-0.004704 0.004797-0.005996 0.008302 0.011899-0.007103 0.009501v0.007195l-0.007195 0.004704v0.005996l-0.008302 0.004151 0.002398 0.013744 0.003597 0.011807-0.004797 0.007195-0.008302-0.005996c0.016604 0.017895 0.005904 0.027396 0.005904 0.027396l-0.005904 0.001199-0.005996-0.014298v0.0107l0.0107 0.011899 0.001199 0.009593-0.002398 0.005904 0.005996-0.001199v0.009593s-0.005996 0.011899-0.005996 0.005903v0.003597c0 0.005904-0.007103 0.014298-0.007103 0.014298-0.0333 0.026197-0.027396 0.046398-0.027396 0.046398-0.001199 0.003597 0.014298 0.019002 0.014298 0.019002l0.001199 0.009593 0.019002 0.026197c0.013098 0.027396-0.014298 0.036897-0.014298 0.036897l-0.002306-0.009501-0.00618-0.005258" stroke="#ca2b42" stroke-width=".0081049"/>
   <g stroke="#002c9e" stroke-width=".0046294">
    <line y2=".60474" x2=".68305" y1=".60474" x1=".68305"/>
    <line y2=".58482" x2=".68278" y1=".58482" x1=".68278"/>
    <line y2=".61304" x2=".68305" y1=".61304" x1=".68305"/>
    <line y2=".60290" x2=".34978" y1=".60290" x1=".34978"/>
    <line y2=".60290" x2=".32838" y1=".60290" x1=".32838"/>
    <line y2=".60290" x2=".30689" y1=".60290" x1=".30689"/>
    <line y2=".55235" x2=".37303" y1=".55235" x1=".37303"/>
   </g>
   <path d="m294.25 696.25h-9.3v-7.23h9.3zm-7.17-1.35h-1.03v-4.13h1.03zm2.33 0h-1.04v-4.13h1.04zm2.32 0h-1.03v-4.13h1.03zm36.13 0h-8.84v-5.23h8.84zm-0.03-0.88h-5.87v-1.29h5.87zm0.03-2.16h-5.87v-1.29h5.87zm0.07-0.58h3.35v5.49h-6v-1.87m-24.98 0.38-1.24 1.77-2.54-0.82-0.13-0.05-1.66 1.39 0.06 0.08 1.04 2.46-1.66 1.39-2.24-1.45-0.13-0.07-1.96 0.92 0.04 0.08 0.36 2.65-1.96 0.91-1.79-1.99-0.09-0.1-2.13 0.37 0.02 0.1-0.34 2.66-2.13 0.37-1.21-2.39-0.08-0.12-2.15-0.19-0.02 0.09-1.01 2.48-2.15-0.2-0.56-2.61-0.03-0.13-2.03-0.75-0.03 0.09-0.79 0.96m37.02-31.51 0.2 1.2-2.34 1.31-0.11 0.07-0.01 2.16 2.51 0.91-0.1 2.16-2.6 0.67-0.13 0.04-0.66 2.06 0.09 0.03 2.19 1.54-0.66 2.06-2.68-0.04h-0.14l-0.82 1.27m5.41-7.63-2 1.2 0.33 2 2.65 0.37 0.13 0.02 0.63 1.39-1.46 1.99 0.26 0.51m26.15 17.14-0.53 1.23-2.16-0.07-0.71-2.58 0.01-0.1-2.17-0.07-0.09 0.11-1.49 2.22-2.07-0.63-0.01-2.68 0.03-0.09-2.07-0.63-0.11 0.09-1.9 1.51-1.83-1.14 0.56-2.34 0.05-0.09-1.83-1.14-0.14 0.05-2.4 1.17-1.48-1.58 1.33-2.32 0.07-0.07-1.47-1.58-0.14 0.03-2.62 0.5-1.02-1.91" transform="matrix(.0092242 0 0 -.0092242 -2.3412 6.9747)" stroke="#003876" stroke-width=".50187"/>
   <path d="m0.23485 0.64579h-0.022876c-0.002398-0.028595-0.032193-0.04649-0.032193-0.04649-0.014298-0.016604-0.013098-0.0428-0.013098-0.0428l-0.007103-0.030993 0.002767-0.042524 0.003136-0.011069" stroke="#ff0059" stroke-width=".0081049"/>
  </g>
  <path d="m0.49414 0.54515v0.050364l0.020478-0.01522 0.024444 0.014298 0.012453-0.014298 0.023522 0.014943 0.013375-0.014943 0.028595 0.017249v0.039295h-0.25828v-0.036251h0.033576v-0.041417h0.02592v-0.068721h0.009224v0.068721l0.014298-0.00055348v-0.013467l0.025828-0.011254c0-0.00027676 0.026566 0.011254 0.026566 0.011254z" stroke-width="0" fill="#003876"/>
 </g>
</svg>