<?xml version="1.0" encoding="utf-8"?>
<svg version="1.1" xmlns:xlink="http://www.w3.org/1999/xlink" width="31px" height="19px" xmlns="http://www.w3.org/2000/svg">
  <g transform="matrix(1 0 0 1 -15 -24 )">
    <path d="M 8.76015576323987 3.3757411315445878  L 8.75967289719627 6.683222791679222  C 8.724906542056074 7.764395538136894  9.271510903426785 8.243166515928042  9.28503115264798 8.547231434026735  C 9.271970591665283 8.67280488235615  9.198188770331441 8.784345558677803  9.087056074766348 8.846522962516321  L 8.468987538940807 9.274218671490313  C 8.389002232888219 9.329649247202944  8.294713009766003 9.36143665466868  8.1971339563863 9.365867751984734  C 8.176370716510904 9.364913074062905  7.801666666666673 9.453220781830996  7.208224299065429 8.143402673098192  C 6.474496869186398 9.048797081593866  5.358385669070725 9.567775477348624  4.1850000000000005 9.549165912973573  C 3.398894080996882 9.591649080494419  1.2684890965732154 9.108104713094166  1.378099688473522 6.866043613707182  C 1.301323987538933 5.038790071349622  3.02274143302181 3.9036780223093097  4.803068535825541 3.9996231534519193  C 5.145903426791277 4.000577831373747  5.846059190031147 4.017284695005523  7.072056074766349 4.298914681941507  L 7.072056074766349 3.55331122500253  C 7.2019470404984505 2.290272334438762  6.3622429906542 1.3102954476936841  4.908333333333327 1.457315847653521  C 4.792445482866042 1.4577931866144003  3.9715732087227464 1.4334488996080712  2.694875389408093 1.9399055371319474  C 2.3394859813084175 2.1012461059189915  2.2940965732087237 2.074515124108128  2.17579439252336 2.074515124108128  C 1.8179906542056057 2.074515124108128  1.9652647975077864 1.049191036076789  2.033831775700937 0.9193548387096774  C 2.285404984423684 0.6138579037282794  3.7653894080996935 0.043437845442675156  5.217850467289726 0.05155260777810657  C 6.189013863554062 -0.03335297090919473  7.154970018371269 0.2629419125120817  7.90693146417446 0.8763943322279162  C 8.524615334862284 1.5594010430636462  8.832882698159954 2.4624074959222217  8.76015576323987 3.3757411315445878  Z M 3.140077881619935 6.774394533212763  C 3.0802024922118423 7.575846648578037  3.677024922118385 8.273238870465304  4.586744548286608 8.229323686061715  C 6.152679127725848 8.206888754899007  6.81565420560748 7.276077781127535  6.9667912772585625 6.774871872173643  C 7.085576323987545 6.295146216460664  7.065778816199386 5.991558637322887  7.065778816199386 5.466963119284492  C 6.598847352024928 5.356220480353727  5.926697819314636 5.235453723243909  5.1555607476635545 5.234499045322082  C 4.424018691588789 5.180082403778527  3.087928348909661 5.503240880313529  3.140077881619935 6.774394533212763  Z M 12.839890965732083 9.329589990955697  C 12.460358255451712 9.363958396141113  12.283629283489095 9.0976032559542  12.227616822429903 8.834589488493615  L 9.822943925233634 0.975203497135974  C 9.776105919003118 0.842503266003414  9.745202492211842 0.7055069842226989  9.730233644859807 0.5656466686765003  C 9.711763364961678 0.44558012197624686  9.795181500982421 0.3334214915008147  9.916619937694701 0.3150437141995711  C 9.92820872274144 0.3131343583559504  9.813769470404976 0.3150437141995711  10.990996884735202 0.3150437141995711  C 11.414953271028045 0.2730378856396376  11.553052959501551 0.6028791076273647  11.596993769470403 0.8100442166616536  L 13.32179127725856 7.532408803135361  L 14.922975077881615 0.8100442166616536  C 14.948566978193151 0.6563410712491268  15.064937694704039 0.28162998693598285  15.541043613707172 0.32124912069138184  L 16.369641744548286 0.32124912069138184  C 16.474423676012453 0.3126570193950366  16.906105919003117 0.2973821726459666  16.98191588785047 0.8162496231534643  L 18.59565420560748 7.624535222590695  L 20.375981308411212 0.8162496231534643  C 20.399158878504668 0.7121897296754234  20.507320872274153 0.27351522460055144  20.988255451713393 0.32124912069138184  L 21.940467289719628 0.32124912069138184  C 21.981510903426784 0.3150437141995711  22.23742990654205 0.28258466485781064  22.193971962616818 0.7308059491508555  C 22.17320872274144 0.8191136569189127  22.358629283489094 0.2219626168224449  19.646853582554524 8.840794894985425  C 19.591323987538935 9.103808662445974  19.414112149532716 9.370163802632923  19.034579439252344 9.335795397447507  L 18.13210280373832 9.335795397447507  C 17.603847352024925 9.390689377951976  17.528037383177576 8.874685961209927  17.51982866043614 8.822656014470907  L 15.918644859813087 2.276906843533313  L 14.335809968847352 8.815973269018182  C 14.328084112149531 8.868003215757202  14.252274143302182 9.38400663249925  13.72353582554517 9.329112651994782  L 12.839890965732083 9.329112651994782  Z M 29.38964174454829 7.955331122500249  C 28.468333333333344 9.74487488694603  26.085872274143313 9.59928650386897  26.04531152647974 9.598331825947145  C 25.761386292834896 9.598809164908056  24.407429906542053 9.584011657119902  23.275591900311518 9.011682242990677  C 23.045013334576005 8.915172180833038  22.89610384156777 8.690689246703977  22.89847352024921 8.443171540548693  L 22.89847352024921 7.930032157572093  C 22.89847352024921 7.526680735604464  23.197850467289726 7.60066827454528  23.32484423676013 7.648879509597024  C 23.80964174454829 7.842679127725863  24.12060747663551 7.989699527685666  24.715981308411212 8.107124912069155  C 26.48568535825544 8.466561149633195  27.264065420560744 7.997336951060217  27.45479750778816 7.893277057582177  C 28.089766355140178 7.520475329112654  28.139984423676008 6.667470605969239  27.708302180685365 6.224977389207125  C 27.20225856697819 5.8053964425685995  26.96082554517134 5.789644256858616  25.142834890965737 5.222565571299374  C 24.918785046728964 5.16098884534218  23.03271028037383 4.572907245502972  23.028364485981307 2.7232187719827023  C 22.998909657320873 1.37521354637724  24.237943925233633 0.04152848959901964  26.385249221183795 0.05250728569993432  C 26.997040498442356 0.05202994673902044  28.62719626168223 0.24964827655513627  29.068535825545172 0.798110742638946  C 29.133722741433022 0.8978745854687967  29.166074766355134 1.0152999698522869  29.161246105919 1.1341573711184838  L 29.161246105919 1.616747060596945  C 29.161246105919 1.828685559240268  29.08302180685357 1.9346548085619644  28.926090342679128 1.9346548085619644  C 28.553800623052954 1.8936036579238238  27.8932398753894 1.4014671892272246  26.55232087227415 1.4215154255853635  C 26.2196261682243 1.404331222992673  24.62616822429906 1.4649532710280386  24.697632398753893 2.6134308109737647  C 24.676869158878514 3.5184654808561997  25.982538940809967 3.8578534820621  26.13174454828661 3.8969952768565848  C 27.89227414330218 4.420636116973187  28.4808878504673 4.507511807858502  29.179595015576336 5.308963923223811  C 30.007227414330227 6.3710431112451  29.56105919003115 7.614511104411642  29.38964174454829 7.955331122500249  Z M 27.49777258566979 13.821826952065129  C 28.06658878504672 13.583157471610907  28.548971962616836 14.194151341573738  27.98643302180685 14.603708170033176  C 24.604922118380067 17.072505275851675  19.69610591900312 18.386619435232667  15.504828660436138 18.386619435232667  C 9.849526849010823 18.42348712467643  4.384813930708303 16.367815404058174  0.18493769470405538 12.623706160184916  C -0.13037383177570291 12.342553512209848  0.14775700934580013 11.957340970756704  0.5311526479750722 12.171666164204597  C 5.190062935293629 14.806175703437354  10.464928074927348 16.19043042306418  15.832211838006236 16.187041503366498  C 19.840354962673725 16.165793033912248  23.80476758354753 15.36200086128724  27.49777258566979 13.821826952065129  Z M 28.50599688473522 16.834313134358368  C 28.91353582554519 15.819967842427907  29.82856697819315 13.565018591096388  29.395919003115264 13.014646769168923  C 28.963271028037383 12.464752286202408  26.533489096573216 12.757838408200183  25.445591900311538 12.886242588684555  C 25.11772585669782 12.922997688674505  25.062196261682246 12.641845040699435  25.359158878504683 12.434202592704267  C 27.294003115264797 11.089538739825167  30.471744548286605 11.474751281278277  30.83679127725858 11.926791277258562  C 31.201355140186912 12.378831273238884  30.737803738317773 15.526404381469217  28.926573208722747 17.030022108330826  C 28.648442367601263 17.262486182293237  28.382383177570098 17.139810069339767  28.50599688473522 16.834313134358368  Z " fill-rule="nonzero" fill="#000000" stroke="none" transform="matrix(1 0 0 1 15 24 )" />
  </g>
</svg>