<svg version="1.2" xmlns="http://www.w3.org/2000/svg" viewBox="0 0 1550 313" width="1550" height="313">
	<title>docu-svg</title>
	<style>
		.s0 { fill: #000000 } 
		.s1 { fill: #4c00ff } 
		.s2 { fill: #ff5252 } 
	</style>
	<g id="Layer">
		<g id="Layer">
			<path id="Layer" class="s0" d="m1510.2 141.9v101.8h-37.3v-95.1c0-23.1-10-36.1-29.3-36.1-19.4 0-32.2 13.6-35.8 36.4-1 5.4-1.3 13.8-1.3 31.5v63.1h-37.3v-161.6h33c0.2 1.4 0.9 15.9 0.9 16.8 0 1.1 1.5 1.8 2.4 1 13.7-10.8 28.8-20.9 49.8-20.9 34.6 0 54.9 23.4 54.9 63.1z"/>
			<path id="Layer" fill-rule="evenodd" class="s0" d="m1342.4 82v142.1c0 54.8-29.3 88.3-78.1 88.3-30.4 0-58.3-11.3-76-31.3l19.5-26.8c16.2 15.8 33.2 23.1 52.5 23.1 23.4 0 35-12.3 40.2-25.4 4.1-10.5 4.7-22.8 5.1-27.7 0-1.3-1.7-2-2.6-0.9-3.1 3.8-19.7 21.6-47 21.6-40.8 0-70.4-35.2-70.4-83.5 0-47.6 29.9-82.6 70.4-82.6 28.3 0 45 18.4 49.5 22.6 0.8 0.8 2.2 0.2 2.3-1l1.2-18.5zm-37.2 79.5c0-28.7-17.1-49-41.2-49-24.2 0-41.2 20.5-41.2 49 0 28.6 17 49.6 41.2 49.6 24 0 41-20.8 41.2-49.6z"/>
			<path id="Layer" class="s0" d="m1107.6 195.7c0 30.6-25.7 51.2-63.4 51.2-29.6 0-55.9-11.5-71.7-27.9l12.3-29.3c11.9 10.8 31 26.2 58.2 26.2 19 0 30-8.4 30-19 0-12.3-15.1-15.6-33.2-19.1-25.7-5.4-59.8-14.2-59.8-49.2 0-29.4 23.8-49.6 58.9-49.6 27 0 50.2 10.4 66.3 23.8l-18.4 25.8c-15.5-12.3-31.8-18.4-47.9-18.4-16.2 0-24.2 6.7-24.2 16.4 0 13.6 17.5 17.1 30.3 19.7 32.1 6.2 62.6 15.9 62.6 49.4z"/>
			<path id="Layer" fill-rule="evenodd" class="s0" d="m640.3 162.8c0 48.7-33 84.1-78.6 84.1-45.5 0-78.4-35.4-78.4-84.1 0-48.6 32.9-84 78.4-84 45.8 0 78.6 35.4 78.6 84zm-37.4-0.1c0-29.7-16.7-50.3-41.2-50.3-24.5 0-41.2 20.7-41.2 50.3 0 29.8 17.1 50.3 41.2 50.3 24.2 0 41.2-20.5 41.2-50.3z"/>
			<path id="Layer" class="s0" d="m653.5 162.8c0-47.9 32.8-84 76.5-84 34.8 0 60.2 17.4 72.1 50.3l-33 12.5c-9.1-20.3-21-28.9-38.9-28.9-22.5 0-39.3 21.2-39.3 50.3 0 28.9 16.7 50.3 39.3 50.3 18.1 0 29.8-8.7 38.9-29l33 12.6c-11.9 32.8-37.3 50.3-72.1 50.3-43.7-0.3-76.5-36.4-76.5-84.4z"/>
			<path id="Layer" fill-rule="evenodd" class="s0" d="m463.1 6.9c0.6 0 1 0.5 1 1v235.8h-33.7l-1.3-18.9c0-1.3-1.6-1.8-2.5-0.9-0.6 0.6-1 1-1.6 1.7-9.9 10.1-26 21.3-47.4 21.3-40.9 0-70.4-35.4-70.4-84.1 0-48.6 29.5-84 70.4-84 8.1 0 17 1.5 23.1 4.4 11.6 5.4 20 13.3 23.6 16.4 0.9 0.8 2.5 0.2 2.5-1v-77c0-0.5 0.2-1 0.7-1.3l24.3-12.9c0.7-0.4 1.4-0.5 2.1-0.5 0 0 9.2 0 9.2 0zm-36.3 155.9c0-29.7-17.1-50.3-41.2-50.3-24.1 0-41.2 20.5-41.2 50.2 0 29.8 16.8 50.3 41.2 50.3 24.5 0 41.2-20.5 41.2-50.2z"/>
			<path id="Layer" class="s0" d="m1151.5 82.5l-23.4 12.4c-0.5 0.3-0.7 0.8-0.7 1.3v147.5h37.3v-160.8c0-0.5-0.4-1-1-1h-10.1c-0.8 0.1-1.4 0.2-2.1 0.6z"/>
			<path id="Layer" class="s0" d="m1146 55.7c-12.5 0-22.5-10-22.5-22.5 0-12.4 10-22.5 22.5-22.5 12.4 0 22.4 10.1 22.4 22.5 0 12.5-10 22.5-22.4 22.5z"/>
			<path id="Layer" class="s0" d="m959.1 81.9v87.8c0 66.6-37.2 77.1-70.4 77.1-33.2 0-70.4-10.6-70.4-77.1v-87.8h37.2v97.1c0 9.4 2.3 34 33.2 34 30.8 0 33.2-24.4 33.2-34v-97.1z"/>
		</g>
		<g id="Layer">
			<path id="Layer" class="s0" d="m1531.5 227.1v2.3h-5.3v14.1h-2.5v-14.1h-5.3v-2.3zm18.4 16.4h-2.6v-12.9l-5 9.7h-1.4l-5.1-9.6v12.8h-2.5v-16.4h3.3l4.9 9.5 4.9-9.5h3.4z"/>
		</g>
	</g>
	<g id="Layer">
		<path id="Layer" class="s1" d="m180.2 180.4v64.1c0 3.3-2.7 6-6.1 6h-168c-3.4 0-6.1-2.7-6.1-6v-168.2c0-3.4 2.7-6.1 6.1-6.1h63.8v104.1c0 3.4 2.7 6.1 6.1 6.1z"/>
		<path id="Layer" class="s2" d="m250.2 90.1c0 53.9-31.4 90.2-70 90.3v-67.7c0-2-0.8-3.9-2.2-5.2l-35.1-35.2c-1.5-1.4-3.3-2.2-5.2-2.2h-67.7v-63.9c0-3.4 2.7-6.1 6.1-6.1h94.7c44.9-0.1 79.4 36.1 79.4 90z"/>
		<path id="Layer" class="s0" d="m178 107.4c1.4 1.4 2.2 3.2 2.2 5.1v67.8h-104.1c-3.4 0-6.1-2.7-6.1-6.1v-104.1h67.7c1.9 0 3.9 0.8 5.2 2.2z"/>
	</g>
</svg>