<?xml version="1.0" encoding="utf-8"?>
<svg version="1.1" xmlns:xlink="http://www.w3.org/1999/xlink" width="12px" height="12px" xmlns="http://www.w3.org/2000/svg">
  <g transform="matrix(1 0 0 1 -1148 -1479 )">
    <path d="M 1.8515625 4.625  L 1.8515625 10.046875  L 3.65625 10.046875  L 3.65625 4.625  L 1.8515625 4.625  Z M 3.4921875 3.62109375  C 3.679687500000001 3.4414062499999996  3.773437500000001 3.2187499999999996  3.7734375 2.953125  C 3.768229166666667 2.6822916666666656  3.674479166666667 2.4583333333333326  3.4921875 2.2812499999999996  C 3.3098958333333335 2.1041666666666665  3.067708333333333 2.015625  2.765625 2.015625  C 2.463541666666667 2.015625  2.217447916666667 2.1041666666666665  2.02734375 2.2812499999999996  C 1.8372395833333335 2.4583333333333326  1.7421875 2.6822916666666656  1.7421875 2.953125  C 1.7421875 3.2187499999999996  1.834635416666667 3.4414062499999996  2.01953125 3.62109375  C 2.2044270833333335 3.8007812500000004  2.4453125 3.890625  2.7421875 3.890625  L 2.75 3.890625  C 3.057291666666667 3.890625  3.304687500000001 3.8007812500000004  3.4921875 3.62109375  Z M 8.34375 7.1484375  L 8.34375 10.046875  L 10.1484375 10.046875  L 10.1484375 6.9375  C 10.1484375 6.135416666666665  9.958333333333334 5.528645833333332  9.578125 5.1171875  C 9.197916666666668 4.705729166666666  8.6953125 4.5  8.0703125 4.5  C 7.361979166666668 4.5  6.817708333333334 4.8046875  6.4375 5.4140625  L 6.453125 5.4140625  L 6.453125 4.625  L 4.6484375 4.625  C 4.6640625 4.96875  4.6640625 6.776041666666666  4.6484375 10.046875  L 6.453125 10.046875  L 6.453125 7.015625000000001  C 6.453125 6.817708333333334  6.471354166666668 6.671874999999999  6.5078125 6.578124999999999  C 6.5859375 6.395833333333334  6.703125 6.240885416666665  6.859375 6.113281250000001  C 7.015625 5.985677083333332  7.208333333333334 5.921875  7.4375 5.921875  C 8.041666666666668 5.921875  8.34375 6.330729166666666  8.34375 7.1484375  Z M 11.33984375 0.6601562500000004  C 11.779947916666666 1.1002604166666656  12 1.6302083333333317  12 2.25  L 12 9.75  C 12 10.369791666666666  11.779947916666666 10.899739583333334  11.33984375 11.33984375  C 10.899739583333334 11.779947916666666  10.369791666666668 12  9.75 12  L 2.25 12  C 1.6302083333333335 12  1.1002604166666667 11.779947916666666  0.66015625 11.33984375  C 0.22005208333333331 10.899739583333334  0 10.369791666666666  0 9.75  L 0 2.25  C 0 1.6302083333333317  0.22005208333333331 1.1002604166666656  0.66015625 0.6601562500000004  C 1.1002604166666667 0.2200520833333326  1.6302083333333335 0  2.25 0  L 9.75 0  C 10.369791666666668 0  10.899739583333334 0.2200520833333326  11.33984375 0.6601562500000004  Z " fill-rule="nonzero" fill="#ffffff" stroke="none" transform="matrix(1 0 0 1 1148 1479 )" />
  </g>
</svg>