<?xml version="1.0" encoding="utf-8"?>
<svg version="1.1" xmlns:xlink="http://www.w3.org/1999/xlink" width="21px" height="21px" xmlns="http://www.w3.org/2000/svg">
  <g transform="matrix(1 0 0 1 -575 -327 )">
    <path d="M 20.668421052631583 19.514035087719293  C 21.053216374268995 19.129239766081877  21.053216374268995 18.50701754385965  20.672514619883042 18.122222222222224  L 16.591228070175443 14.040935672514614  C 16.40701754385965 13.85672514619883  16.157309941520463 13.754385964912277  15.895321637426898 13.754385964912277  L 15.2280701754386 13.754385964912277  C 16.357894736842105 12.309356725146204  17.029239766081876 10.491812865497076  17.029239766081876 8.514619883040938  C 17.029239766081876 3.811111111111112  13.218128654970755 0  8.514619883040938 0  C 3.811111111111112 0  0 3.811111111111112  0 8.514619883040938  C 0 13.218128654970766  3.811111111111112 17.029239766081876  8.514619883040938 17.029239766081876  C 10.491812865497076 17.029239766081876  12.309356725146204 16.357894736842105  13.754385964912277 15.2280701754386  L 13.754385964912277 15.895321637426898  C 13.754385964912277 16.157309941520463  13.85672514619883 16.40701754385965  14.040935672514614 16.591228070175443  L 18.122222222222224 20.672514619883042  C 18.50701754385965 21.05730994152047  19.129239766081877 21.05730994152047  19.50994152046783 20.672514619883042  L 20.668421052631583 19.514035087719293  Z M 13.754385964912277 8.514619883040938  C 13.754385964912277 11.408771929824564  11.412865497076027 13.754385964912277  8.514619883040938 13.754385964912277  C 5.620467836257314 13.754385964912277  3.2748538011695882 11.412865497076027  3.2748538011695882 8.514619883040938  C 3.2748538011695882 5.620467836257314  5.616374269005852 3.2748538011695882  8.514619883040938 3.2748538011695882  C 11.408771929824564 3.2748538011695882  13.754385964912277 5.616374269005852  13.754385964912277 8.514619883040938  Z " fill-rule="nonzero" fill="#7f7f7f" stroke="none" transform="matrix(1 0 0 1 575 327 )" />
  </g>
</svg>