<?xml version="1.0" encoding="utf-8"?>
<svg version="1.1" xmlns:xlink="http://www.w3.org/1999/xlink" width="17px" height="19px" xmlns="http://www.w3.org/2000/svg">
  <g transform="matrix(1 0 0 1 -22 -12 )">
    <path d="M 16.585182291666666 7.208574610244989  C 17.137239583333333 7.739643652561248  17.137239583333333 8.594432071269487  16.58385416666667 9.12338530066815  C 16.309375 9.389977728285078  15.946354166666666 9.521158129175946  15.583333333333332 9.521158129175946  C 15.2203125 9.521158129175946  14.858177083333334 9.388919821826281  14.581927083333333 9.12444320712695  L 10 4.667483296213809  L 10 17.64587973273942  C 9.916666666666668 18.39445434298441  9.282265625 18.961915367483297  8.53984375 18.961915367483297  C 7.797421875000001 18.961915367483297  7.083333333333334 18.394877505567926  7 17.64587973273942  L 7 4.667483296213809  L 2.418515625 9.12338530066815  C 1.8651302083333334 9.652338530066817  0.9686458333333334 9.652338530066817  0.41526041666666674 9.12338530066815  C -0.1381249999999999 8.594432071269486  -0.1381249999999999 7.737527839643652  0.41526041666666674 7.208574610244989  L 7.49859375 0.4379732739420933  C 8.051979166666666 -0.0909799554565704  8.948463541666666 -0.0909799554565704  9.501848958333333 0.4379732739420933  L 16.585182291666666 7.208574610244989  Z " fill-rule="nonzero" fill="#0f5abd" stroke="none" transform="matrix(1 0 0 1 22 12 )" />
  </g>
</svg>