<?xml version="1.0" encoding="utf-8"?>
<svg version="1.1" xmlns:xlink="http://www.w3.org/1999/xlink" width="16px" height="25px" xmlns="http://www.w3.org/2000/svg">
  <g transform="matrix(1 0 0 1 -706 -112 )">
    <path d="M 16 3.566997518610421  C 16 3.835814722911496  15.902187902187903 4.068444995864348  15.706563706563706 4.264888337468983  L 7.505791505791506 12.5  L 15.706563706563706 20.73511166253102  C 15.902187902187903 20.93155500413565  16 21.164185277088503  16 21.43300248138958  C 16 21.70181968569065  15.902187902187903 21.934449958643505  15.706563706563706 22.13089330024814  L 13.142857142857142 24.70533498759305  C 12.947232947232948 24.901778329197686  12.715572715572716 25  12.447876447876448 25  C 12.180180180180182 25  11.94851994851995 24.901778329197686  11.752895752895753 24.70533498759305  L 0.29343629343629346 13.19789081885856  C 0.09781209781209796 13.001447477253928  0 12.768817204301076  0 12.5  C 0 12.231182795698924  0.09781209781209796 11.99855252274607  0.29343629343629346 11.80210918114144  L 11.752895752895753 0.2946650124069472  C 11.94851994851995 0.09822167080231481  12.180180180180182 0  12.447876447876448 0  C 12.715572715572716 0  12.947232947232948 0.09822167080231481  13.142857142857142 0.2946650124069472  L 15.706563706563706 2.8691066997518613  C 15.902187902187903 3.0655500413564907  16 3.298180314309343  16 3.566997518610421  Z " fill-rule="nonzero" fill="#7f7f7f" stroke="none" transform="matrix(1 0 0 1 706 112 )" />
  </g>
</svg>