<?xml version="1.0" encoding="UTF-8"?>
<svg id="Layer_2" data-name="Layer 2" xmlns="http://www.w3.org/2000/svg" viewBox="0 0 299.6 435.79">
  <defs>
    <style>
      .cls-1 {
        fill: #f15722;
        stroke-width: 0px;
      }
    </style>
  </defs>
  <g id="Layer_1-2" data-name="Layer 1">
    <path class="cls-1" d="M81.76,386.71c0,5.35,1.59,10.6,4.56,15.06l14.55,21.87c5.05,7.59,13.56,12.15,22.67,12.15h52.52c9.12,0,17.63-4.56,22.67-12.15l14.55-21.87c2.97-4.46,4.56-9.7,4.56-15.06l.03-32.64H81.72s.04,32.64.04,32.64ZM0,149.8c0,37.76,14,72.22,37.08,98.54,14.06,16.04,36.05,49.56,44.44,77.84.03.22.06.44.09.66h136.39c.03-.22.06-.43.09-.66,8.38-28.27,30.38-61.79,44.44-77.84,23.07-26.33,37.08-60.78,37.08-98.54C299.6,66.91,232.28-.25,149.33,0,62.51.26,0,70.62,0,149.8ZM149.8,81.71c-37.54,0-68.09,30.55-68.09,68.09,0,7.52-6.09,13.62-13.62,13.62s-13.62-6.09-13.62-13.62c0-52.57,42.76-95.33,95.33-95.33,7.52,0,13.62,6.09,13.62,13.62s-6.09,13.62-13.62,13.62Z"/>
  </g>
</svg>