<?xml version="1.0" encoding="UTF-8"?>
<svg id="image" xmlns="http://www.w3.org/2000/svg" viewBox="0 0 396.86 287.48">
  <defs>
    <style>
      .cls-1 {
        fill: #ff5400;
      }

      .cls-2 {
        fill: #fff;
      }

      .cls-3 {
        fill: #bcbcbc;
      }
    </style>
  </defs>
  <path class="cls-3" d="m394.09,141.86l-56.85-67.64c-4.2-5-11.66-5.65-16.65-1.45-5,4.2-5.64,11.65-1.45,16.65l50.48,60.07-52.06,62.47c-4.18,5.01-3.5,12.46,1.51,16.64,2.21,1.84,4.89,2.74,7.56,2.74,3.39,0,6.75-1.45,9.08-4.25l58.39-70.06c3.66-4.39,3.65-10.78-.03-15.16Z"/>
  <g>
    <circle class="cls-2" cx="143.74" cy="143.74" r="128.74"/>
    <path class="cls-1" d="m143.74,30c30.38,0,58.94,11.83,80.43,33.31,21.48,21.48,33.31,50.05,33.31,80.43s-11.83,58.94-33.31,80.43c-21.48,21.48-50.05,33.31-80.43,33.31s-58.94-11.83-80.43-33.31c-21.48-21.48-33.31-50.05-33.31-80.43s11.83-58.94,33.31-80.43c21.48-21.48,50.05-33.31,80.43-33.31m0-30C64.35,0,0,64.35,0,143.74s64.35,143.74,143.74,143.74,143.74-64.35,143.74-143.74S223.13,0,143.74,0h0Z"/>
  </g>
</svg>