<?xml version="1.0" encoding="utf-8"?>
<svg version="1.1" xmlns:xlink="http://www.w3.org/1999/xlink" width="14px" height="16px" xmlns="http://www.w3.org/2000/svg">
  <g transform="matrix(1 0 0 1 -954 -779 )">
    <path d="M 3 2  L 3 1  C 3 0.4478125  3.446875 0  4 0  C 4.553125 0  5 0.4478125  5 1  L 5 2  L 9 2  L 9 1  C 9 0.4478125  9.446875 0  10 0  C 10.553125 0  11 0.4478125  11 1  L 11 2  L 12.5 2  C 13.328125 2  14 2.6715625  14 3.5  L 14 5  L 0 5  L 0 3.5  C 0 2.6715625  0.6715625 2  1.5 2  L 3 2  Z M 14 6  L 14 14.5  C 14 15.328125  13.328125 16  12.5 16  L 1.5 16  C 0.6715625 16  0 15.328125  0 14.5  L 0 6  L 14 6  Z " fill-rule="nonzero" fill="#999ea1" stroke="none" transform="matrix(1 0 0 1 954 779 )" />
  </g>
</svg>