<?xml version="1.0" encoding="utf-8"?>
<svg version="1.1" xmlns:xlink="http://www.w3.org/1999/xlink" width="12px" height="13px" xmlns="http://www.w3.org/2000/svg">
  <g transform="matrix(1 0 0 1 -786 -1118 )">
    <path d="M 0.9230769230769231 9.982142857142856  L 0.9230769230769231 12.071428571428571  L 3 12.071428571428571  L 3 9.982142857142856  L 0.9230769230769231 9.982142857142856  Z M 3.4615384615384612 9.982142857142856  L 3.4615384615384612 12.071428571428571  L 5.769230769230769 12.071428571428571  L 5.769230769230769 9.982142857142856  L 3.4615384615384612 9.982142857142856  Z M 0.9230769230769231 7.196428571428572  L 0.9230769230769231 9.517857142857144  L 3 9.517857142857144  L 3 7.196428571428572  L 0.9230769230769231 7.196428571428572  Z M 3.4615384615384612 7.196428571428572  L 3.4615384615384612 9.517857142857144  L 5.769230769230769 9.517857142857144  L 5.769230769230769 7.196428571428572  L 3.4615384615384612 7.196428571428572  Z M 0.9230769230769231 4.642857142857142  L 0.9230769230769231 6.732142857142856  L 3 6.732142857142856  L 3 4.642857142857142  L 0.9230769230769231 4.642857142857142  Z M 6.230769230769232 9.982142857142856  L 6.230769230769232 12.071428571428571  L 8.538461538461538 12.071428571428571  L 8.538461538461538 9.982142857142856  L 6.230769230769232 9.982142857142856  Z M 3.4615384615384612 4.642857142857142  L 3.4615384615384612 6.732142857142856  L 5.769230769230769 6.732142857142856  L 5.769230769230769 4.642857142857142  L 3.4615384615384612 4.642857142857142  Z M 9 9.982142857142856  L 9 12.071428571428571  L 11.076923076923077 12.071428571428571  L 11.076923076923077 9.982142857142856  L 9 9.982142857142856  Z M 6.230769230769232 7.196428571428572  L 6.230769230769232 9.517857142857144  L 8.538461538461538 9.517857142857144  L 8.538461538461538 7.196428571428572  L 6.230769230769232 7.196428571428572  Z M 3.6237980769230766 3.413225446428572  C 3.669471153846154 3.3672805059523805  3.6923076923076925 3.3128720238095224  3.6923076923076925 3.25  L 3.6923076923076925 1.160714285714286  C 3.6923076923076925 1.0978422619047619  3.669471153846154 1.0434337797619042  3.6237980769230766 0.9974888392857141  C 3.5781250000000004 0.9515438988095225  3.5240384615384617 0.9285714285714282  3.4615384615384612 0.9285714285714282  L 3 0.9285714285714282  C 2.9375 0.9285714285714282  2.8834134615384617 0.9515438988095225  2.8377403846153846 0.9974888392857141  C 2.7920673076923075 1.0434337797619042  2.769230769230769 1.0978422619047619  2.769230769230769 1.160714285714286  L 2.769230769230769 3.25  C 2.769230769230769 3.3128720238095224  2.7920673076923075 3.3672805059523805  2.8377403846153846 3.413225446428572  C 2.8834134615384617 3.459170386904762  2.9375 3.4821428571428577  3 3.4821428571428577  L 3.4615384615384612 3.4821428571428577  C 3.5240384615384617 3.4821428571428577  3.5781250000000004 3.459170386904762  3.6237980769230766 3.413225446428572  Z M 9 7.196428571428572  L 9 9.517857142857144  L 11.076923076923077 9.517857142857144  L 11.076923076923077 7.196428571428572  L 9 7.196428571428572  Z M 6.230769230769232 4.642857142857142  L 6.230769230769232 6.732142857142856  L 8.538461538461538 6.732142857142856  L 8.538461538461538 4.642857142857142  L 6.230769230769232 4.642857142857142  Z M 9 4.642857142857142  L 9 6.732142857142856  L 11.076923076923077 6.732142857142856  L 11.076923076923077 4.642857142857142  L 9 4.642857142857142  Z M 9.162259615384615 3.413225446428572  C 9.207932692307693 3.3672805059523805  9.230769230769232 3.3128720238095224  9.230769230769232 3.25  L 9.230769230769232 1.160714285714286  C 9.230769230769232 1.0978422619047619  9.207932692307693 1.0434337797619042  9.162259615384615 0.9974888392857141  C 9.11658653846154 0.9515438988095225  9.0625 0.9285714285714282  9 0.9285714285714282  L 8.538461538461538 0.9285714285714282  C 8.47596153846154 0.9285714285714282  8.421875 0.9515438988095225  8.376201923076923 0.9974888392857141  C 8.330528846153847 1.0434337797619042  8.307692307692307 1.0978422619047619  8.307692307692307 1.160714285714286  L 8.307692307692307 3.25  C 8.307692307692307 3.3128720238095224  8.330528846153847 3.3672805059523805  8.376201923076923 3.413225446428572  C 8.421875 3.459170386904762  8.47596153846154 3.4821428571428577  8.538461538461538 3.4821428571428577  L 9 3.4821428571428577  C 9.0625 3.4821428571428577  9.11658653846154 3.459170386904762  9.162259615384615 3.413225446428572  Z M 11.725961538461538 2.1328125  C 11.908653846153847 2.316592261904762  12 2.5342261904761902  12 2.785714285714286  L 12 12.071428571428571  C 12 12.322916666666668  11.908653846153847 12.540550595238095  11.725961538461538 12.724330357142858  C 11.543269230769232 12.908110119047619  11.326923076923078 13  11.076923076923077 13  L 0.9230769230769231 13  C 0.6730769230769231 13  0.4567307692307693 12.908110119047619  0.2740384615384615 12.724330357142858  C 0.09134615384615384 12.540550595238095  0 12.322916666666668  0 12.071428571428571  L 0 2.785714285714286  C 0 2.5342261904761902  0.09134615384615384 2.316592261904762  0.2740384615384615 2.1328125  C 0.4567307692307693 1.9490327380952366  0.6730769230769231 1.8571428571428577  0.9230769230769231 1.8571428571428577  L 1.8461538461538463 1.8571428571428577  L 1.8461538461538463 1.160714285714286  C 1.8461538461538463 0.8415178571428578  1.9591346153846154 0.5682663690476183  2.1850961538461537 0.34095982142857184  C 2.4110576923076925 0.11365327380952395  2.682692307692308 0  3 0  L 3.4615384615384612 0  C 3.7788461538461537 0  4.05048076923077 0.11365327380952395  4.2764423076923075 0.34095982142857184  C 4.502403846153847 0.5682663690476183  4.615384615384616 0.8415178571428578  4.615384615384616 1.160714285714286  L 4.615384615384616 1.8571428571428577  L 7.384615384615385 1.8571428571428577  L 7.384615384615385 1.160714285714286  C 7.384615384615385 0.8415178571428578  7.497596153846154 0.5682663690476183  7.7235576923076925 0.34095982142857184  C 7.949519230769232 0.11365327380952395  8.221153846153847 0  8.538461538461538 0  L 9 0  C 9.317307692307693 0  9.588942307692308 0.11365327380952395  9.814903846153847 0.34095982142857184  C 10.040865384615387 0.5682663690476183  10.153846153846153 0.8415178571428578  10.153846153846153 1.160714285714286  L 10.153846153846153 1.8571428571428577  L 11.076923076923077 1.8571428571428577  C 11.326923076923078 1.8571428571428577  11.543269230769232 1.9490327380952366  11.725961538461538 2.1328125  Z " fill-rule="nonzero" fill="#0f5abd" stroke="none" transform="matrix(1 0 0 1 786 1118 )" />
  </g>
</svg>