<?xml version="1.0" encoding="utf-8"?>
<svg version="1.1" xmlns:xlink="http://www.w3.org/1999/xlink" width="16px" height="19px" xmlns="http://www.w3.org/2000/svg">
  <g transform="matrix(1 0 0 1 -25 -410 )">
    <path d="M 0 7.125  L 0 17.21875  C 0 18.2021484375  0.7678571428571429 19  1.7142857142857142 19  L 14.285714285714286 19  C 15.232142857142858 19  16 18.2021484375  16 17.21875  L 16 7.125  L 0 7.125  Z M 2.2857142857142856 13.65625  L 2.2857142857142856 10.09375  C 2.2857142857142856 9.7671875  2.542857142857143 9.5  2.857142857142857 9.5  L 6.285714285714286 9.5  C 6.6000000000000005 9.5  6.857142857142857 9.7671875  6.857142857142857 10.09375  L 6.857142857142857 13.65625  C 6.857142857142857 13.9828125  6.6000000000000005 14.25  6.285714285714286 14.25  L 2.857142857142857 14.25  C 2.542857142857143 14.25  2.2857142857142856 13.9828125  2.2857142857142856 13.65625  Z M 16 4.15625  C 16 3.1728515625  15.232142857142858 2.375  14.285714285714286 2.375  L 12.571428571428571 2.375  L 12.571428571428571 0.59375  C 12.571428571428571 0.26718749999999997  12.314285714285715 0  12 0  L 10.857142857142858 0  C 10.542857142857143 0  10.285714285714286 0.2671875  10.285714285714286 0.59375  L 10.285714285714286 2.375  L 5.714285714285714 2.375  L 5.714285714285714 0.59375  C 5.714285714285714 0.26718749999999997  5.457142857142857 0  5.142857142857143 0  L 4 0  C 3.685714285714286 0  3.4285714285714284 0.2671875  3.4285714285714284 0.59375  L 3.4285714285714284 2.375  L 1.7142857142857142 2.375  C 0.7678571428571429 2.375  0 3.1728515625  0 4.15625  L 0 6  L 16 6  L 16 4.15625  Z " fill-rule="nonzero" fill="#ff5400" stroke="none" transform="matrix(1 0 0 1 25 410 )" />
  </g>
</svg>