<?xml version="1.0" encoding="utf-8"?>
<svg version="1.1" xmlns:xlink="http://www.w3.org/1999/xlink" width="50px" height="50px" xmlns="http://www.w3.org/2000/svg">
  <g transform="matrix(1 0 0 1 -1239 -878 )">
    <path d="M 25 50  C 38.810483870967744 50  50 38.810483870967744  50 25  C 50 11.189516129032256  38.810483870967744 0  25 0  C 11.189516129032256 0  0 11.189516129032256  0 25  C 0 38.810483870967744  11.189516129032256 50  25 50  Z M 25 45.16129032258064  C 13.860887096774208 45.16129032258064  4.838709677419331 36.139112903225794  4.838709677419331 25  C 4.838709677419331 13.860887096774208  13.860887096774208 4.838709677419359  25 4.838709677419359  C 36.139112903225794 4.838709677419359  45.16129032258061 13.860887096774208  45.16129032258061 25  C 45.16129032258061 36.139112903225794  36.139112903225794 45.16129032258064  25 45.16129032258064  Z M 13.306451612903231 28  C 12.64112903225805 28.225806451612893  12.096774193548413 27.68145161290323  12.096774193548413 27.01612903225805  L 12.096774193548413 22.98387096774195  C 12.096774193548413 22.31854838709677  12.64112903225805 21.774193548387103  13.306451612903231 22  L 25 22  L 25 15.020161290322589  C 25 13.941532258064512  26.300403225806463 13.407258064516128  27.066532258064512 14.163306451612897  L 37.04637096774195 24.143145161290306  C 37.52016129032256 24.616935483870975  37.52016129032256 25.38306451612902  37.04637096774195 25.856854838709666  L 27.066532258064512 35.8366935483871  C 26.300403225806463 36.60282258064515  25 36.05846774193549  25 34.97983870967741  L 25 28  L 13.306451612903231 28  Z " fill-rule="nonzero" fill="#aaaaaa" stroke="none" transform="matrix(1 0 0 1 1239 878 )" />
  </g>
</svg>