<?xml version="1.0" encoding="utf-8"?>
<svg version="1.1" xmlns:xlink="http://www.w3.org/1999/xlink" width="16px" height="16px" xmlns="http://www.w3.org/2000/svg">
  <g transform="matrix(1 0 0 1 -988 -663 )">
    <path d="M 16 8  C 16 3.580645161290322  12.419354838709678 0  8 0  C 3.580645161290322 0  0 3.580645161290322  0 8  C 0 12.419354838709678  3.580645161290322 16  8 16  C 12.419354838709678 16  16 12.419354838709678  16 8  Z M 10.383870967741933 11.209677419354849  C 10.258064516129034 11.380645161290323  10.016129032258068 11.419354838709678  9.841935483870966 11.29354838709678  L 6.99677419354839 9.225806451612899  C 6.89677419354839 9.151612903225796  6.838709677419356 9.035483870967745  6.838709677419356 8.912903225806458  L 6.838709677419356 3.483870967741932  C 6.838709677419356 3.270967741935492  7.012903225806449 3.09677419354839  7.225806451612898 3.09677419354839  L 8.774193548387101 3.09677419354839  C 8.987096774193542 3.09677419354839  9.161290322580644 3.270967741935492  9.161290322580644 3.483870967741932  L 9.161290322580644 7.925806451612898  L 11.209677419354849 9.416129032258068  C 11.383870967741933 9.541935483870965  11.419354838709678 9.783870967741931  11.29354838709678 9.958064516129035  L 10.383870967741933 11.209677419354849  Z " fill-rule="nonzero" fill="#999ea1" stroke="none" transform="matrix(1 0 0 1 988 663 )" />
  </g>
</svg>