<?xml version="1.0" encoding="utf-8"?>
<svg version="1.1" xmlns:xlink="http://www.w3.org/1999/xlink" width="14px" height="14px" xmlns="http://www.w3.org/2000/svg">
  <g transform="matrix(1 0 0 1 -14 -356 )">
    <path d="M 14 7  C 14 3.133064516129032  10.866935483870968 0  7 0  C 3.133064516129032 0  0 3.133064516129032  0 7  C 0 10.866935483870968  3.133064516129032 14  7 14  C 10.866935483870968 14  14 10.866935483870968  14 7  Z M 12.645161290322578 7  C 12.645161290322578 10.118951612903222  10.118951612903222 12.645161290322578  7 12.645161290322578  C 3.881048387096778 12.645161290322578  1.3548387096774206 10.118951612903222  1.3548387096774206 7  C 1.3548387096774206 3.881048387096778  3.881048387096778 1.3548387096774206  7 1.3548387096774206  C 10.118951612903222 1.3548387096774206  12.645161290322578 3.881048387096778  12.645161290322578 7  Z M 9.218548387096778 9.625  C 9.108467741935485 9.774596774193547  8.896774193548389 9.808467741935484  8.744354838709675 9.69838709677419  L 6.347983870967746 7.956854838709682  C 6.260483870967747 7.891935483870968  6.209677419354841 7.790322580645159  6.209677419354841 7.683064516129031  L 6.209677419354841 3.0483870967741904  C 6.209677419354841 2.8620967741935477  6.362096774193548 2.709677419354841  6.54838709677419 2.709677419354841  L 7.45161290322581 2.709677419354841  C 7.637903225806452 2.709677419354841  7.790322580645159 2.8620967741935477  7.790322580645159 3.0483870967741904  L 7.790322580645159 7.047983870967746  L 9.675806451612905 8.419758064516126  C 9.828225806451611 8.52983870967742  9.859274193548389 8.741532258064517  9.749193548387096 8.89395161290323  L 9.218548387096778 9.625  Z " fill-rule="nonzero" fill="#aaaaaa" stroke="none" transform="matrix(1 0 0 1 14 356 )" />
  </g>
</svg>