<?xml version="1.0" encoding="utf-8"?>
<svg version="1.1" xmlns:xlink="http://www.w3.org/1999/xlink" width="16px" height="16px" xmlns="http://www.w3.org/2000/svg">
  <g transform="matrix(1 0 0 1 -989 -742 )">
    <path d="M 8 7  C 8.553125 7  9 7.446875  9 8  C 9 8.553125  8.553125 9  8 9  C 7.446875 9  7 8.553125  7 8  C 7 7.446875  7.446875 7  8 7  Z M 8 16  C 3.58125 16  0 12.41875  0 8  C 0 3.58125  3.58125 0  8 0  C 12.41875 0  16 3.58125  16 8  C 16 12.41875  12.41875 16  8 16  Z M 10.159375 9.584375  L 11.89375 5.075  C 12.128125 4.440625  11.53125 3.871875  10.925 4.10625  L 6.415625 5.840625  C 6.15 5.940625  5.940625 6.15  5.840625 6.415625  L 4.10625 10.925  C 3.871875 11.53125  4.440625 12.128125  5.075 11.89375  L 9.584375 10.159375  C 9.85 10.059375  10.059375 9.85  10.159375 9.584375  Z " fill-rule="nonzero" fill="#999ea1" stroke="none" transform="matrix(1 0 0 1 989 742 )" />
  </g>
</svg>