<?xml version="1.0" encoding="utf-8"?>
<svg version="1.1" xmlns:xlink="http://www.w3.org/1999/xlink" width="7px" height="11px" xmlns="http://www.w3.org/2000/svg">
  <g transform="matrix(1 0 0 1 -546 -618 )">
    <path d="M 7 5.5  C 7 5.618279569892473  6.957207207207207 5.720636889991728  6.871621621621621 5.807071960297766  L 1.8581081081081083 10.870347394540943  C 1.7725225225225227 10.956782464846981  1.6711711711711714 11  1.554054054054054 11  C 1.4369369369369371 11  1.3355855855855858 10.956782464846981  1.25 10.870347394540943  L 0.1283783783783784 9.737593052109181  C 0.042792792792792855 9.651157981803143  0 9.548800661703886  0 9.430521091811414  C 0 9.312241521918942  0.042792792792792855 9.209884201819685  0.1283783783783784 9.123449131513647  L 3.7162162162162167 5.5  L 0.1283783783783784 1.8765508684863526  C 0.042792792792792855 1.790115798180313  0 1.6877584780810582  0 1.5694789081885852  C 0 1.451199338296111  0.042792792792792855 1.348842018196856  0.1283783783783784 1.2624069478908189  L 1.25 0.12965260545905677  C 1.3355855855855858 0.043217535153018516  1.4369369369369371 0  1.554054054054054 0  C 1.6711711711711714 0  1.7725225225225227 0.043217535153018516  1.8581081081081083 0.12965260545905677  L 6.871621621621621 5.192928039702234  C 6.957207207207207 5.279363110008271  7 5.381720430107527  7 5.5  Z " fill-rule="nonzero" fill="#7f7f7f" stroke="none" transform="matrix(1 0 0 1 546 618 )" />
  </g>
</svg>