<?xml version="1.0" encoding="utf-8"?>
<svg version="1.1" xmlns:xlink="http://www.w3.org/1999/xlink" width="18px" height="16px" xmlns="http://www.w3.org/2000/svg">
  <g transform="matrix(1 0 0 1 -23 -377 )">
    <path d="M 13.640625 14.46875  C 13.777644230769232 14.336805555555555  13.846153846153847 14.180555555555555  13.846153846153847 14  C 13.846153846153847 13.819444444444445  13.777644230769232 13.663194444444445  13.640625 13.53125  C 13.50360576923077 13.399305555555555  13.341346153846157 13.333333333333334  13.153846153846153 13.333333333333334  C 12.966346153846153 13.333333333333334  12.80408653846154 13.399305555555555  12.667067307692308 13.53125  C 12.530048076923078 13.663194444444445  12.461538461538462 13.819444444444445  12.461538461538462 14  C 12.461538461538462 14.180555555555555  12.530048076923078 14.336805555555555  12.667067307692308 14.46875  C 12.80408653846154 14.600694444444445  12.966346153846153 14.666666666666666  13.153846153846153 14.666666666666666  C 13.341346153846157 14.666666666666666  13.50360576923077 14.600694444444445  13.640625 14.46875  Z M 16.40985576923077 14.46875  C 16.546875 14.336805555555555  16.615384615384617 14.180555555555555  16.615384615384617 14  C 16.615384615384617 13.819444444444445  16.546875 13.663194444444445  16.40985576923077 13.53125  C 16.27283653846154 13.399305555555555  16.110576923076923 13.333333333333334  15.923076923076923 13.333333333333334  C 15.735576923076923 13.333333333333334  15.573317307692308 13.399305555555555  15.436298076923077 13.53125  C 15.299278846153848 13.663194444444445  15.23076923076923 13.819444444444445  15.23076923076923 14  C 15.23076923076923 14.180555555555555  15.299278846153848 14.336805555555555  15.436298076923077 14.46875  C 15.573317307692308 14.600694444444445  15.735576923076923 14.666666666666666  15.923076923076923 14.666666666666666  C 16.110576923076923 14.666666666666666  16.27283653846154 14.600694444444445  16.40985576923077 14.46875  Z M 17.697115384615383 10.958333333333332  C 17.899038461538463 11.152777777777775  18 11.38888888888889  18 11.666666666666668  L 18 15  C 18 15.277777777777779  17.899038461538463 15.513888888888888  17.697115384615383 15.708333333333334  C 17.49519230769231 15.902777777777779  17.250000000000004 16  16.96153846153846 16  L 1.0384615384615385 16  C 0.7500000000000001 16  0.5048076923076924 15.902777777777779  0.30288461538461536 15.708333333333334  C 0.10096153846153845 15.513888888888888  0 15.277777777777779  0 15  L 0 11.666666666666668  C 0 11.38888888888889  0.10096153846153845 11.152777777777775  0.30288461538461536 10.958333333333332  C 0.5048076923076924 10.76388888888889  0.7500000000000001 10.666666666666668  1.0384615384615385 10.666666666666668  L 6.068509615384615 10.666666666666668  L 7.528846153846154 12.083333333333334  C 7.947115384615385 12.472222222222221  8.4375 12.666666666666666  9 12.666666666666666  C 9.5625 12.666666666666666  10.052884615384615 12.472222222222221  10.471153846153847 12.083333333333334  L 11.942307692307692 10.666666666666668  L 16.96153846153846 10.666666666666668  C 17.250000000000004 10.666666666666668  17.49519230769231 10.76388888888889  17.697115384615383 10.958333333333332  Z M 13.846153846153847 5.333333333333334  C 14.149038461538462 5.333333333333334  14.361778846153847 5.46875  14.484375 5.739583333333334  C 14.606971153846157 6.024305555555555  14.556490384615387 6.267361111111111  14.332932692307692 6.46875  L 9.486778846153847 11.135416666666668  C 9.356971153846153 11.26736111111111  9.194711538461538 11.333333333333332  9 11.333333333333332  C 8.805288461538462 11.333333333333332  8.643028846153847 11.26736111111111  8.513221153846153 11.135416666666668  L 3.6670673076923075 6.46875  C 3.443509615384616 6.267361111111111  3.3930288461538467 6.024305555555555  3.515625 5.739583333333334  C 3.638221153846154 5.46875  3.8509615384615383 5.333333333333334  4.153846153846154 5.333333333333334  L 6.923076923076923 5.333333333333334  L 6.923076923076923 0.6666666666666661  C 6.923076923076923 0.48611111111110894  6.991586538461539 0.32986111111110894  7.128605769230769 0.19791666666666607  C 7.265625000000001 0.06597222222222321  7.427884615384616 0  7.615384615384615 0  L 10.384615384615383 0  C 10.572115384615385 0  10.734375000000002 0.06597222222222321  10.87139423076923 0.19791666666666607  C 11.008413461538462 0.32986111111110894  11.076923076923077 0.48611111111110894  11.076923076923077 0.6666666666666661  L 11.076923076923077 5.333333333333334  L 13.846153846153847 5.333333333333334  Z " fill-rule="nonzero" fill="#ff5400" stroke="none" transform="matrix(1 0 0 1 23 377 )" />
  </g>
</svg>