<?xml version="1.0" encoding="utf-8"?>
<svg version="1.1" xmlns:xlink="http://www.w3.org/1999/xlink" width="15px" height="12px" xmlns="http://www.w3.org/2000/svg">
  <g transform="matrix(1 0 0 1 -159 -3918 )">
    <path d="M 14.162946428571429 4.610795454545455  C 14.481026785714286 4.389204545454545  14.760044642857144 4.142045454545455  15 3.869318181818181  L 15 10.636363636363637  C 15 11.011363636363637  14.86886160714286 11.332386363636365  14.606584821428571 11.599431818181818  C 14.344308035714288 11.866477272727272  14.02901785714286 12  13.660714285714285 12  L 1.3392857142857144 12  C 0.9709821428571429 12  0.6556919642857143 11.866477272727272  0.3934151785714286 11.599431818181818  C 0.1311383928571429 11.332386363636365  0 11.011363636363637  0 10.636363636363637  L 0 3.869318181818181  C 0.24553571428571436 4.147727272727272  0.5273437500000001 4.3948863636363615  0.8454241071428572 4.610795454545455  C 2.8655133928571432 6.0085227272727275  4.252232142857142 6.988636363636363  5.005580357142858 7.551136363636363  C 5.323660714285714 7.7897727272727275  5.581752232142858 7.975852272727272  5.779854910714286 8.109375  C 5.977957589285714 8.242897727272727  6.241629464285714 8.379261363636363  6.570870535714286 8.51846590909091  C 6.900111607142858 8.657670454545453  7.20703125 8.727272727272727  7.491629464285714 8.727272727272727  L 7.5 8.727272727272727  L 7.508370535714286 8.727272727272727  C 7.792968750000002 8.727272727272727  8.099888392857142 8.657670454545453  8.429129464285715 8.51846590909091  C 8.758370535714288 8.379261363636363  9.022042410714288 8.242897727272727  9.220145089285715 8.109375  C 9.418247767857142 7.975852272727272  9.676339285714285 7.7897727272727275  9.994419642857144 7.551136363636363  C 10.94308035714286 6.8522727272727275  12.332589285714288 5.872159090909092  14.162946428571429 4.610795454545455  Z M 14.602399553571429 0.4005681818181812  C 14.867466517857142 0.6676136363636354  15 0.9886363636363638  15 1.3636363636363638  C 15 1.8124999999999982  14.863281250000002 2.2414772727272725  14.58984375 2.650568181818181  C 14.31640625 3.0596590909090913  13.976004464285715 3.4090909090909087  13.568638392857144 3.6988636363636362  C 11.47042410714286 5.181818181818182  10.164620535714288 6.105113636363637  9.651227678571429 6.46875  C 9.59542410714286 6.508522727272727  9.476841517857142 6.595170454545454  9.295479910714285 6.7286931818181825  C 9.114118303571429 6.862215909090908  8.963448660714288 6.970170454545454  8.843470982142856 7.0525568181818175  C 8.723493303571429 7.134943181818181  8.578404017857144 7.2272727272727275  8.408203125 7.329545454545455  C 8.238002232142858 7.4318181818181825  8.077566964285715 7.5085227272727275  7.926897321428571 7.55965909090909  C 7.776227678571429 7.610795454545455  7.636718750000001 7.636363636363637  7.508370535714286 7.636363636363637  L 7.5 7.636363636363637  L 7.491629464285714 7.636363636363637  C 7.36328125 7.636363636363637  7.223772321428572 7.610795454545455  7.073102678571428 7.55965909090909  C 6.922433035714286 7.5085227272727275  6.761997767857143 7.4318181818181825  6.591796875 7.329545454545455  C 6.421595982142858 7.2272727272727275  6.276506696428571 7.134943181818181  6.156529017857142 7.0525568181818175  C 6.036551339285714 6.970170454545454  5.885881696428572 6.862215909090908  5.704520089285714 6.7286931818181825  C 5.523158482142858 6.595170454545454  5.404575892857144 6.508522727272727  5.348772321428572 6.46875  C 4.840959821428571 6.105113636363637  4.109933035714286 5.5866477272727275  3.155691964285714 4.9133522727272725  C 2.201450892857143 4.2400568181818175  1.629464285714286 3.835227272727271  1.439732142857143 3.6988636363636362  C 1.09375 3.460227272727271  0.7672991071428573 3.1321022727272725  0.46037946428571436 2.7144886363636362  C 0.15345982142857148 2.296875  0 1.9090909090909087  0 1.5511363636363638  C 0 1.107954545454545  0.11579241071428575 0.738636363636362  0.3473772321428572 0.4431818181818188  C 0.5789620535714287 0.1477272727272716  0.9095982142857145 0  1.3392857142857144 0  L 13.660714285714285 0  C 14.0234375 0  14.337332589285715 0.13352272727272574  14.602399553571429 0.4005681818181812  Z " fill-rule="nonzero" fill="#000000" stroke="none" transform="matrix(1 0 0 1 159 3918 )" />
  </g>
</svg>