<?xml version="1.0" encoding="utf-8"?>
<svg version="1.1" xmlns:xlink="http://www.w3.org/1999/xlink" width="17px" height="17px" xmlns="http://www.w3.org/2000/svg">
  <g transform="matrix(1 0 0 1 -1111 -26 )">
    <path d="M 16.5993265993266 12.707070707070706  C 16.866442199775534 12.974186307519638  17 13.29854096520763  17 13.68013468013468  C 17 14.061728395061731  16.866442199775534 14.386083052749719  16.5993265993266 14.653198653198652  L 14.653198653198652 16.5993265993266  C 14.386083052749722 16.866442199775534  14.061728395061728 17  13.68013468013468 17  C 13.298540965207634 17  12.974186307519641 16.866442199775534  12.707070707070708 16.5993265993266  L 8.5 12.392255892255893  L 4.292929292929293 16.5993265993266  C 4.02581369248036 16.866442199775534  3.7014590347923684 17  3.31986531986532 17  C 2.9382716049382718 17  2.613916947250281 16.866442199775534  2.346801346801347 16.5993265993266  L 0.4006734006734007 14.653198653198652  C 0.13355780022446703 14.386083052749719  0 14.061728395061731  0 13.68013468013468  C 0 13.29854096520763  0.13355780022446703 12.974186307519638  0.4006734006734007 12.707070707070706  L 4.607744107744107 8.5  L 0.4006734006734007 4.292929292929292  C 0.13355780022446703 4.025813692480358  0 3.7014590347923684  0 3.31986531986532  C 0 2.9382716049382713  0.13355780022446703 2.613916947250278  0.4006734006734007 2.3468013468013473  L 2.346801346801347 0.40067340067340074  C 2.613916947250281 0.13355780022446628  2.9382716049382718 0  3.31986531986532 0  C 3.7014590347923684 0  4.02581369248036 0.13355780022446628  4.292929292929293 0.40067340067340074  L 8.5 4.607744107744108  L 12.707070707070708 0.40067340067340074  C 12.974186307519641 0.13355780022446628  13.298540965207634 0  13.68013468013468 0  C 14.061728395061728 0  14.386083052749722 0.13355780022446628  14.653198653198652 0.40067340067340074  L 16.5993265993266 2.3468013468013473  C 16.866442199775534 2.613916947250278  17 2.9382716049382713  17 3.31986531986532  C 17 3.7014590347923684  16.866442199775534 4.025813692480358  16.5993265993266 4.292929292929292  L 12.392255892255891 8.5  L 16.5993265993266 12.707070707070706  Z " fill-rule="nonzero" fill="#555555" stroke="none" transform="matrix(1 0 0 1 1111 26 )" />
  </g>
</svg>