<?xml version="1.0" encoding="utf-8"?>
<svg version="1.1" xmlns:xlink="http://www.w3.org/1999/xlink" width="24px" height="24px" xmlns="http://www.w3.org/2000/svg">
  <g transform="matrix(1 0 0 1 -1299 45 )">
    <path d="M 23.434343434343432 17.939393939393938  C 23.811447811447813 18.31649831649831  24 18.77441077441077  24 19.313131313131315  C 24 19.851851851851855  23.811447811447813 20.309764309764308  23.434343434343432 20.686868686868685  L 20.686868686868685 23.434343434343432  C 20.30976430976431 23.811447811447813  19.85185185185185 24  19.313131313131315 24  C 18.774410774410775 24  18.31649831649832 23.811447811447813  17.93939393939394 23.434343434343432  L 12 17.494949494949495  L 6.0606060606060606 23.434343434343432  C 5.683501683501684 23.811447811447813  5.225589225589226 24  4.686868686868687 24  C 4.148148148148149 24  3.6902356902356908 23.811447811447813  3.313131313131313 23.434343434343432  L 0.5656565656565656 20.686868686868685  C 0.18855218855218875 20.309764309764308  0 19.851851851851855  0 19.313131313131315  C 0 18.77441077441077  0.18855218855218875 18.31649831649831  0.5656565656565656 17.939393939393938  L 6.505050505050505 12  L 0.5656565656565656 6.06060606060606  C 0.18855218855218875 5.683501683501682  0 5.225589225589226  0 4.686868686868687  C 0 4.148148148148148  0.18855218855218875 3.6902356902356868  0.5656565656565656 3.313131313131314  L 3.313131313131313 0.5656565656565657  C 3.6902356902356908 0.1885521885521877  4.148148148148149 0  4.686868686868687 0  C 5.225589225589226 0  5.683501683501684 0.1885521885521877  6.0606060606060606 0.5656565656565657  L 12 6.505050505050506  L 17.93939393939394 0.5656565656565657  C 18.31649831649832 0.1885521885521877  18.774410774410775 0  19.313131313131315 0  C 19.85185185185185 0  20.30976430976431 0.1885521885521877  20.686868686868685 0.5656565656565657  L 23.434343434343432 3.313131313131314  C 23.811447811447813 3.6902356902356868  24 4.148148148148148  24 4.686868686868687  C 24 5.225589225589226  23.811447811447813 5.683501683501682  23.434343434343432 6.06060606060606  L 17.494949494949495 12  L 23.434343434343432 17.939393939393938  Z " fill-rule="nonzero" fill="#ffffff" stroke="none" transform="matrix(1 0 0 1 1299 -45 )" />
  </g>
</svg>