<?xml version="1.0" encoding="utf-8"?>
<svg version="1.1" xmlns:xlink="http://www.w3.org/1999/xlink" width="15px" height="14px" xmlns="http://www.w3.org/2000/svg">
  <g transform="matrix(1 0 0 1 -518 -726 )">
    <path d="M 11.710379464285715 8.248697916666666  C 11.760602678571429 8.303385416666666  11.785714285714285 8.373263888888888  11.785714285714285 8.458333333333334  L 11.785714285714285 11.375  C 11.785714285714285 12.098090277777777  11.549944196428573 12.716362847222223  11.078404017857144 13.229817708333332  C 10.606863839285715 13.743272569444443  10.0390625 14  9.375 14  L 2.410714285714286 14  C 1.746651785714286 14  1.1788504464285716 13.743272569444443  0.7073102678571428 13.229817708333332  C 0.23577008928571427 12.716362847222223  0 12.098090277777777  0 11.375  L 0 3.791666666666667  C 0 3.0685763888888875  0.23577008928571427 2.4503038194444438  0.7073102678571428 1.9368489583333328  C 1.1788504464285716 1.4233940972222203  1.746651785714286 1.1666666666666672  2.410714285714286 1.1666666666666672  L 8.303571428571429 1.1666666666666672  C 8.381696428571429 1.1666666666666672  8.445870535714285 1.1940104166666672  8.49609375 1.2486979166666672  C 8.546316964285715 1.3033854166666672  8.571428571428571 1.3732638888888875  8.571428571428571 1.4583333333333328  L 8.571428571428571 2.041666666666667  C 8.571428571428571 2.1267361111111107  8.546316964285715 2.196614583333333  8.49609375 2.251302083333333  C 8.445870535714285 2.305989583333333  8.381696428571429 2.333333333333333  8.303571428571429 2.333333333333333  L 2.410714285714286 2.333333333333333  C 2.0424107142857144 2.333333333333333  1.727120535714286 2.4761284722222205  1.46484375 2.76171875  C 1.2025669642857144 3.047309027777777  1.0714285714285714 3.390625  1.0714285714285714 3.791666666666667  L 1.0714285714285714 11.375  C 1.0714285714285714 11.776041666666668  1.2025669642857144 12.119357638888888  1.46484375 12.404947916666668  C 1.727120535714286 12.690538194444443  2.0424107142857144 12.833333333333332  2.410714285714286 12.833333333333332  L 9.375 12.833333333333332  C 9.743303571428571 12.833333333333332  10.058593750000002 12.690538194444443  10.320870535714285 12.404947916666668  C 10.583147321428573 12.119357638888888  10.714285714285715 11.776041666666668  10.714285714285715 11.375  L 10.714285714285715 8.458333333333334  C 10.714285714285715 8.373263888888888  10.739397321428571 8.303385416666666  10.789620535714285 8.248697916666666  C 10.83984375 8.194010416666666  10.904017857142858 8.166666666666666  10.982142857142856 8.166666666666666  L 11.517857142857144 8.166666666666666  C 11.595982142857144 8.166666666666666  11.66015625 8.194010416666666  11.710379464285715 8.248697916666666  Z M 14.840959821428571 0.17317708333333282  C 14.946986607142858 0.2886284722222203  15 0.4253472222222203  15 0.5833333333333328  L 15 5.25  C 15 5.407986111111111  14.946986607142858 5.544704861111111  14.840959821428571 5.66015625  C 14.734933035714288 5.775607638888889  14.609375 5.833333333333333  14.464285714285715 5.833333333333333  C 14.319196428571429 5.833333333333333  14.193638392857142 5.775607638888889  14.087611607142856 5.66015625  L 12.614397321428571 4.055989583333333  L 7.156808035714286 9.998697916666666  C 7.101004464285714 10.059461805555554  7.036830357142858 10.08984375  6.964285714285714 10.08984375  C 6.891741071428572 10.08984375  6.827566964285714 10.059461805555554  6.771763392857142 9.998697916666666  L 5.817522321428572 8.959635416666666  C 5.761718750000001 8.898871527777779  5.733816964285714 8.828993055555557  5.733816964285714 8.75  C 5.733816964285714 8.671006944444443  5.761718750000001 8.601128472222221  5.817522321428572 8.540364583333334  L 11.275111607142856 2.59765625  L 9.801897321428571 0.9934895833333328  C 9.695870535714288 0.8780381944444438  9.642857142857144 0.7413194444444438  9.642857142857144 0.5833333333333328  C 9.642857142857144 0.4253472222222203  9.695870535714288 0.2886284722222203  9.801897321428571 0.17317708333333282  C 9.907924107142858 0.05772569444444531  10.033482142857142 0  10.178571428571429 0  L 14.464285714285715 0  C 14.609375 0  14.734933035714288 0.05772569444444531  14.840959821428571 0.17317708333333282  Z " fill-rule="nonzero" fill="#005087" stroke="none" transform="matrix(1 0 0 1 518 726 )" />
  </g>
</svg>