<?xml version="1.0" encoding="utf-8"?>
<svg version="1.1" xmlns:xlink="http://www.w3.org/1999/xlink" width="17px" height="14px" xmlns="http://www.w3.org/2000/svg">
  <g transform="matrix(1 0 0 1 -344 -1121 )">
    <path d="M 13.271763392857142 8.248697916666666  C 13.328683035714286 8.303385416666666  13.357142857142858 8.373263888888888  13.357142857142858 8.458333333333334  L 13.357142857142858 11.375  C 13.357142857142858 12.098090277777777  13.089936755952383 12.716362847222223  12.555524553571429 13.229817708333332  C 12.021112351190478 13.743272569444443  11.377604166666668 14  10.625 14  L 2.732142857142857 14  C 1.9795386904761907 14  1.336030505952381 13.743272569444443  0.8016183035714286 13.229817708333332  C 0.26720610119047616 12.716362847222223  0 12.098090277777777  0 11.375  L 0 3.791666666666667  C 0 3.0685763888888875  0.26720610119047616 2.4503038194444438  0.8016183035714286 1.9368489583333328  C 1.336030505952381 1.4233940972222203  1.9795386904761907 1.1666666666666672  2.732142857142857 1.1666666666666672  L 9.410714285714286 1.1666666666666672  C 9.499255952380954 1.1666666666666672  9.571986607142858 1.1940104166666672  9.62890625 1.2486979166666672  C 9.685825892857142 1.3033854166666672  9.714285714285714 1.3732638888888875  9.714285714285714 1.4583333333333328  L 9.714285714285714 2.041666666666667  C 9.714285714285714 2.1267361111111107  9.685825892857142 2.196614583333333  9.62890625 2.251302083333333  C 9.571986607142858 2.305989583333333  9.499255952380954 2.333333333333333  9.410714285714286 2.333333333333333  L 2.732142857142857 2.333333333333333  C 2.3147321428571432 2.333333333333333  1.9574032738095242 2.4761284722222205  1.66015625 2.76171875  C 1.3629092261904763 3.047309027777777  1.2142857142857142 3.390625  1.2142857142857142 3.791666666666667  L 1.2142857142857142 11.375  C 1.2142857142857142 11.776041666666668  1.3629092261904763 12.119357638888888  1.66015625 12.404947916666668  C 1.9574032738095242 12.690538194444443  2.3147321428571432 12.833333333333332  2.732142857142857 12.833333333333332  L 10.625 12.833333333333332  C 11.042410714285714 12.833333333333332  11.399739583333334 12.690538194444443  11.696986607142858 12.404947916666668  C 11.994233630952383 12.119357638888888  12.142857142857142 11.776041666666668  12.142857142857142 11.375  L 12.142857142857142 8.458333333333334  C 12.142857142857142 8.373263888888888  12.171316964285714 8.303385416666666  12.228236607142858 8.248697916666666  C 12.28515625 8.194010416666666  12.357886904761905 8.166666666666666  12.446428571428571 8.166666666666666  L 13.053571428571429 8.166666666666666  C 13.142113095238097 8.166666666666666  13.21484375 8.194010416666666  13.271763392857142 8.248697916666666  Z M 16.819754464285715 0.17317708333333282  C 16.939918154761905 0.2886284722222203  17 0.4253472222222203  17 0.5833333333333328  L 17 5.25  C 17 5.407986111111111  16.939918154761905 5.544704861111111  16.819754464285715 5.66015625  C 16.699590773809526 5.775607638888889  16.557291666666668 5.833333333333333  16.392857142857142 5.833333333333333  C 16.22842261904762 5.833333333333333  16.086123511904763 5.775607638888889  15.965959821428571 5.66015625  L 14.296316964285714 4.055989583333333  L 8.111049107142858 9.998697916666666  C 8.04780505952381 10.059461805555554  7.975074404761905 10.08984375  7.892857142857143 10.08984375  C 7.810639880952382 10.08984375  7.737909226190477 10.059461805555554  7.674665178571429 9.998697916666666  L 6.593191964285714 8.959635416666666  C 6.529947916666667 8.898871527777779  6.498325892857143 8.828993055555557  6.498325892857143 8.75  C 6.498325892857143 8.671006944444443  6.529947916666667 8.601128472222221  6.593191964285714 8.540364583333334  L 12.778459821428571 2.59765625  L 11.108816964285714 0.9934895833333328  C 10.988653273809526 0.8780381944444438  10.928571428571429 0.7413194444444438  10.928571428571429 0.5833333333333328  C 10.928571428571429 0.4253472222222203  10.988653273809526 0.2886284722222203  11.108816964285714 0.17317708333333282  C 11.228980654761905 0.05772569444444531  11.371279761904763 0  11.535714285714286 0  L 16.392857142857142 0  C 16.557291666666668 0  16.699590773809526 0.05772569444444531  16.819754464285715 0.17317708333333282  Z " fill-rule="nonzero" fill="#062349" stroke="none" transform="matrix(1 0 0 1 344 1121 )" />
  </g>
</svg>