<?xml version="1.0" encoding="utf-8"?>
<svg version="1.1" xmlns:xlink="http://www.w3.org/1999/xlink" width="11px" height="10px" xmlns="http://www.w3.org/2000/svg">
  <g transform="matrix(1 0 0 1 -301 -380 )">
    <path d="M 8.587611607142858 5.891927083333332  C 8.624441964285715 5.930989583333332  8.642857142857142 5.980902777777777  8.642857142857142 6.041666666666668  L 8.642857142857142 8.125  C 8.642857142857142 8.641493055555555  8.469959077380954 9.083116319444445  8.124162946428571 9.449869791666666  C 7.778366815476192 9.81662326388889  7.361979166666667 10  6.875 10  L 1.767857142857143 10  C 1.2808779761904763 10  0.8644903273809524 9.81662326388889  0.5186941964285714 9.449869791666666  C 0.17289806547619047 9.083116319444445  0 8.641493055555555  0 8.125  L 0 2.708333333333334  C 0 2.191840277777777  0.17289806547619047 1.7502170138888884  0.5186941964285714 1.3834635416666663  C 0.8644903273809524 1.016710069444443  1.2808779761904763 0.8333333333333337  1.767857142857143 0.8333333333333337  L 6.089285714285714 0.8333333333333337  C 6.146577380952381 0.8333333333333337  6.193638392857142 0.8528645833333337  6.23046875 0.8919270833333337  C 6.267299107142858 0.9309895833333337  6.285714285714286 0.9809027777777768  6.285714285714286 1.0416666666666663  L 6.285714285714286 1.4583333333333337  C 6.285714285714286 1.519097222222222  6.267299107142858 1.5690104166666663  6.23046875 1.6080729166666663  C 6.193638392857142 1.6471354166666663  6.146577380952381 1.6666666666666663  6.089285714285714 1.6666666666666663  L 1.767857142857143 1.6666666666666663  C 1.4977678571428572 1.6666666666666663  1.2665550595238098 1.768663194444443  1.07421875 1.97265625  C 0.8818824404761906 2.1766493055555545  0.7857142857142857 2.421875  0.7857142857142857 2.708333333333334  L 0.7857142857142857 8.125  C 0.7857142857142857 8.411458333333334  0.8818824404761906 8.656684027777777  1.07421875 8.860677083333334  C 1.2665550595238098 9.06467013888889  1.4977678571428572 9.166666666666666  1.767857142857143 9.166666666666666  L 6.875 9.166666666666666  C 7.145089285714286 9.166666666666666  7.376302083333334 9.06467013888889  7.568638392857142 8.860677083333334  C 7.760974702380953 8.656684027777777  7.857142857142858 8.411458333333334  7.857142857142858 8.125  L 7.857142857142858 6.041666666666668  C 7.857142857142858 5.980902777777777  7.875558035714286 5.930989583333332  7.912388392857142 5.891927083333332  C 7.94921875 5.852864583333332  7.996279761904762 5.833333333333332  8.053571428571429 5.833333333333332  L 8.446428571428571 5.833333333333332  C 8.503720238095239 5.833333333333332  8.55078125 5.852864583333332  8.587611607142858 5.891927083333332  Z M 10.883370535714285 0.1236979166666663  C 10.961123511904763 0.2061631944444431  11 0.3038194444444431  11 0.4166666666666663  L 11 3.75  C 11 3.8628472222222223  10.961123511904763 3.9605034722222223  10.883370535714285 4.04296875  C 10.80561755952381 4.125434027777778  10.713541666666668 4.166666666666666  10.607142857142858 4.166666666666666  C 10.500744047619047 4.166666666666666  10.408668154761905 4.125434027777778  10.330915178571429 4.04296875  L 9.250558035714285 2.897135416666666  L 5.248325892857142 7.141927083333332  C 5.207403273809524 7.185329861111109  5.160342261904762 7.20703125  5.107142857142858 7.20703125  C 5.053943452380953 7.20703125  5.006882440476191 7.185329861111109  4.965959821428571 7.141927083333332  L 4.266183035714286 6.399739583333332  C 4.225260416666667 6.356336805555555  4.204799107142858 6.306423611111112  4.204799107142858 6.25  C 4.204799107142858 6.193576388888888  4.225260416666667 6.143663194444445  4.266183035714286 6.100260416666668  L 8.268415178571429 1.85546875  L 7.188058035714286 0.7096354166666663  C 7.110305059523811 0.6271701388888884  7.071428571428572 0.5295138888888884  7.071428571428572 0.4166666666666663  C 7.071428571428572 0.3038194444444431  7.110305059523811 0.2061631944444431  7.188058035714286 0.1236979166666663  C 7.265811011904762 0.041232638888889506  7.357886904761905 0  7.464285714285714 0  L 10.607142857142858 0  C 10.713541666666668 0  10.80561755952381 0.041232638888889506  10.883370535714285 0.1236979166666663  Z " fill-rule="nonzero" fill="#0f5abd" stroke="none" transform="matrix(1 0 0 1 301 380 )" />
  </g>
</svg>