<?xml version="1.0" encoding="utf-8"?>
<svg version="1.1" xmlns:xlink="http://www.w3.org/1999/xlink" width="16px" height="13px" xmlns="http://www.w3.org/2000/svg">
  <g transform="matrix(1 0 0 1 -1216 -912 )">
    <path d="M 12.491071428571429 7.659505208333332  C 12.544642857142858 7.710286458333332  12.571428571428571 7.77517361111111  12.571428571428571 7.854166666666668  L 12.571428571428571 10.5625  C 12.571428571428571 11.233940972222221  12.319940476190478 11.808051215277779  11.816964285714286 12.284830729166666  C 11.313988095238097 12.761610243055555  10.708333333333334 13  10 13  L 2.5714285714285716 13  C 1.8630952380952384 13  1.2574404761904763 12.761610243055555  0.7544642857142857 12.284830729166666  C 0.25148809523809523 11.808051215277779  0 11.233940972222221  0 10.5625  L 0 3.520833333333334  C 0 2.84939236111111  0.25148809523809523 2.275282118055555  0.7544642857142857 1.798502604166666  C 1.2574404761904763 1.321723090277776  1.8630952380952384 1.083333333333334  2.5714285714285716 1.083333333333334  L 8.857142857142858 1.083333333333334  C 8.940476190476192 1.083333333333334  9.008928571428571 1.108723958333334  9.0625 1.159505208333334  C 9.116071428571429 1.210286458333334  9.142857142857142 1.2751736111111098  9.142857142857142 1.354166666666666  L 9.142857142857142 1.895833333333334  C 9.142857142857142 1.9748263888888888  9.116071428571429 2.039713541666666  9.0625 2.090494791666666  C 9.008928571428571 2.141276041666666  8.940476190476192 2.166666666666666  8.857142857142858 2.166666666666666  L 2.5714285714285716 2.166666666666666  C 2.178571428571429 2.166666666666666  1.842261904761905 2.299262152777776  1.5625 2.564453125  C 1.2827380952380953 2.829644097222221  1.1428571428571428 3.1484375  1.1428571428571428 3.520833333333334  L 1.1428571428571428 10.5625  C 1.1428571428571428 10.934895833333334  1.2827380952380953 11.25368923611111  1.5625 11.518880208333334  C 1.842261904761905 11.784071180555555  2.178571428571429 11.916666666666666  2.5714285714285716 11.916666666666666  L 10 11.916666666666666  C 10.392857142857142 11.916666666666666  10.729166666666668 11.784071180555555  11.008928571428571 11.518880208333334  C 11.288690476190478 11.25368923611111  11.428571428571429 10.934895833333334  11.428571428571429 10.5625  L 11.428571428571429 7.854166666666668  C 11.428571428571429 7.77517361111111  11.455357142857142 7.710286458333332  11.508928571428571 7.659505208333332  C 11.5625 7.608723958333332  11.630952380952381 7.583333333333332  11.714285714285714 7.583333333333332  L 12.285714285714286 7.583333333333332  C 12.36904761904762 7.583333333333332  12.4375 7.608723958333332  12.491071428571429 7.659505208333332  Z M 15.830357142857142 0.16080729166666619  C 15.943452380952381 0.268012152777776  16 0.394965277777776  16 0.5416666666666662  L 16 4.875  C 16 5.021701388888888  15.943452380952381 5.148654513888888  15.830357142857142 5.255859375  C 15.717261904761907 5.363064236111112  15.583333333333334 5.416666666666666  15.428571428571429 5.416666666666666  C 15.273809523809524 5.416666666666666  15.139880952380953 5.363064236111112  15.026785714285714 5.255859375  L 13.455357142857142 3.766276041666666  L 7.633928571428571 9.284505208333332  C 7.574404761904762 9.340928819444443  7.505952380952381 9.369140625  7.428571428571429 9.369140625  C 7.351190476190477 9.369140625  7.282738095238096 9.340928819444443  7.223214285714286 9.284505208333332  L 6.205357142857143 8.319661458333332  C 6.145833333333334 8.263237847222223  6.116071428571429 8.198350694444445  6.116071428571429 8.125  C 6.116071428571429 8.051649305555555  6.145833333333334 7.986762152777778  6.205357142857143 7.930338541666668  L 12.026785714285714 2.412109375  L 10.455357142857142 0.9225260416666662  C 10.342261904761907 0.8153211805555549  10.285714285714286 0.6883680555555549  10.285714285714286 0.5416666666666662  C 10.285714285714286 0.394965277777776  10.342261904761907 0.268012152777776  10.455357142857142 0.16080729166666619  C 10.568452380952381 0.05360243055555636  10.702380952380953 0  10.857142857142858 0  L 15.428571428571429 0  C 15.583333333333334 0  15.717261904761907 0.05360243055555636  15.830357142857142 0.16080729166666619  Z " fill-rule="nonzero" fill="#ffffff" stroke="none" transform="matrix(1 0 0 1 1216 912 )" />
  </g>
</svg>