<?xml version="1.0" encoding="utf-8"?>
<svg version="1.1" xmlns:xlink="http://www.w3.org/1999/xlink" width="14px" height="9px" xmlns="http://www.w3.org/2000/svg">
  <g transform="matrix(1 0 0 1 -786 -1196 )">
    <path d="M 10.39453125 7.05078125  C 11.438802083333334 6.41796875  12.307291666666668 5.567708333333332  13 4.5  C 12.208333333333334 3.2708333333333335  11.216145833333334 2.3515625  10.0234375 1.7421874999999996  C 10.341145833333334 2.2838541666666656  10.5 2.869791666666666  10.5 3.4999999999999996  C 10.5 4.463541666666666  10.157552083333334 5.287760416666666  9.47265625 5.97265625  C 8.787760416666668 6.657552083333332  7.963541666666667 7  7 7  C 6.036458333333334 7  5.212239583333334 6.657552083333332  4.52734375 5.97265625  C 3.8424479166666674 5.287760416666666  3.5 4.463541666666666  3.5 3.4999999999999996  C 3.5 2.869791666666666  3.658854166666667 2.2838541666666656  3.9765624999999996 1.7421874999999996  C 2.783854166666667 2.3515625  1.791666666666667 3.2708333333333335  1 4.5  C 1.6927083333333335 5.567708333333332  2.561197916666667 6.41796875  3.60546875 7.05078125  C 4.649739583333334 7.68359375  5.78125 8  7 8  C 8.21875 8  9.350260416666668 7.68359375  10.39453125 7.05078125  Z M 7.265625 1.7656250000000002  C 7.338541666666668 1.6927083333333335  7.375 1.6041666666666663  7.375 1.4999999999999996  C 7.375 1.395833333333333  7.338541666666668 1.3072916666666659  7.265625 1.234375  C 7.192708333333335 1.1614583333333324  7.104166666666666 1.1249999999999991  7 1.125  C 6.348958333333334 1.1249999999999991  5.790364583333334 1.3580729166666663  5.32421875 1.82421875  C 4.858072916666667 2.2903645833333335  4.625 2.8489583333333335  4.625 3.4999999999999996  C 4.625 3.604166666666666  4.661458333333334 3.6927083333333335  4.734375 3.765625  C 4.807291666666667 3.838541666666666  4.895833333333334 3.875  5 3.875  C 5.104166666666667 3.875  5.192708333333334 3.838541666666666  5.265625 3.765625  C 5.338541666666667 3.6927083333333335  5.375 3.604166666666666  5.375 3.4999999999999996  C 5.375 3.052083333333333  5.533854166666667 2.669270833333333  5.8515625 2.3515625  C 6.169270833333334 2.0338541666666665  6.552083333333334 1.8749999999999993  7 1.8750000000000004  C 7.104166666666666 1.8749999999999993  7.192708333333335 1.838541666666666  7.265625 1.7656250000000002  Z M 13.84375 3.9609374999999996  C 13.947916666666668 4.143229166666666  14 4.322916666666666  14 4.5  C 14 4.677083333333332  13.947916666666668 4.856770833333334  13.84375 5.039062499999999  C 13.114583333333336 6.236979166666666  12.134114583333336 7.196614583333334  10.90234375 7.91796875  C 9.670572916666668 8.639322916666666  8.369791666666668 9  7 9  C 5.630208333333334 9  4.329427083333334 8.638020833333334  3.09765625 7.9140625  C 1.8658854166666667 7.190104166666666  0.8854166666666669 6.231770833333332  0.15625 5.039062499999999  C 0.05208333333333333 4.856770833333334  0 4.677083333333332  0 4.5  C 0 4.322916666666666  0.05208333333333333 4.143229166666666  0.15625 3.9609374999999996  C 0.8854166666666669 2.7682291666666665  1.8658854166666667 1.8098958333333328  3.09765625 1.0859375  C 4.329427083333334 0.36197916666666596  5.630208333333334 0  7 0  C 8.369791666666668 0  9.670572916666668 0.36197916666666596  10.90234375 1.0859375  C 12.134114583333336 1.8098958333333328  13.114583333333336 2.7682291666666665  13.84375 3.9609374999999996  Z " fill-rule="nonzero" fill="#0f5abd" stroke="none" transform="matrix(1 0 0 1 786 1196 )" />
  </g>
</svg>