<?xml version="1.0" encoding="UTF-8"?>
<svg id="Layer_1" data-name="Layer 1" xmlns="http://www.w3.org/2000/svg" width="20px" version="1.1" viewBox="0 0 800 800">
  <defs>
    <style>
      .cls-1, .cls-2 {
        fill: #000;
        stroke-width: 0px;
      }

      .cls-2 {
        fill-rule: evenodd;
      }
    </style>
  </defs>
  <path class="cls-1" d="M600,266.7c0,36.8-29.8,66.7-66.7,66.7s-66.7-29.8-66.7-66.7,29.8-66.7,66.7-66.7,66.7,29.8,66.7,66.7Z"/>
  <path class="cls-2" d="M398.1,41.7h3.8c76.9,0,137.2,0,184.3,6.3,48.2,6.5,86.2,20,116,49.8,29.8,29.8,43.3,67.8,49.8,116,6.3,47,6.3,107.4,6.3,184.3v2.9c0,63.6,0,115.7-3.5,158.1-3.5,42.6-10.6,78.2-26.5,107.8-7,13-15.7,24.7-26.2,35.2-29.8,29.8-67.8,43.3-116,49.8-47,6.3-107.3,6.3-184.3,6.3h-3.8c-76.9,0-137.2,0-184.3-6.3-48.2-6.5-86.2-20-116-49.8-26.4-26.4-40.1-59.4-47.4-100.2-7.1-40.1-8.4-90-8.7-152,0-15.8,0-32.4,0-50v-1.9c0-76.9,0-137.2,6.3-184.3,6.5-48.2,20-86.2,49.8-116,29.8-29.8,67.8-43.3,116-49.8,47-6.3,107.4-6.3,184.3-6.3ZM220.5,97.5c-42.6,5.7-68.3,16.6-87.3,35.6-19,19-29.9,44.7-35.6,87.3-5.8,43.3-5.9,100.3-5.9,179.5s0,19,0,28.1l33.4-29.2c30.4-26.6,76.2-25.1,104.7,3.5l143,143c22.9,22.9,59,26,85.5,7.4l9.9-7c38.1-26.8,89.7-23.7,124.4,7.5l94.3,84.9c9.5-19.9,15.1-46.1,18.2-83.1,3.3-40.2,3.3-90.2,3.3-155.1s0-136.2-5.9-179.5c-5.7-42.6-16.6-68.3-35.6-87.3-19-19-44.7-29.9-87.3-35.6-43.3-5.8-100.3-5.9-179.5-5.9s-136.2,0-179.5,5.9Z"/>
</svg>