<?xml version="1.0" encoding="utf-8"?>
<svg version="1.1" xmlns:xlink="http://www.w3.org/1999/xlink" width="14px" height="11px" xmlns="http://www.w3.org/2000/svg">
  <g transform="matrix(1 0 0 1 -35 -1060 )">
    <path d="M 1 10  L 14 10  L 14 11  L 0 11  L 0 0  L 1 0  L 1 10  Z M 13.0634765625 0.9811197916666671  C 13.104492187500002 1.024088541666667  13.125000000000002 1.0789930555555545  13.125 1.145833333333333  L 13.125 4.261067708333333  C 13.125000000000002 4.361328124999999  13.080566406250002 4.431749131944445  12.99169921875 4.472330729166667  C 12.902832031250002 4.512912326388888  12.821940104166668 4.495008680555555  12.7490234375 4.418619791666667  L 11.921875 3.552083333333333  L 7.5947265625 8.085286458333334  C 7.549153645833334 8.13302951388889  7.496744791666667 8.156901041666666  7.4375 8.156901041666666  C 7.378255208333334 8.156901041666666  7.325846354166667 8.13302951388889  7.2802734375 8.085286458333334  L 5.6875 6.416666666666666  L 2.84375 9.395833333333332  L 1.53125 8.020833333333334  L 5.5302734375 3.831380208333333  C 5.575846354166667 3.7836371527777772  5.628255208333334 3.759765625  5.6875 3.759765625  C 5.746744791666667 3.759765625  5.799153645833334 3.7836371527777772  5.8447265625 3.831380208333333  L 7.4375 5.5  L 10.609375 2.177083333333333  L 9.7822265625 1.310546875  C 9.709309895833334 1.2341579861111103  9.692220052083334 1.1494140625  9.73095703125 1.056315104166667  C 9.769694010416668 0.9632161458333329  9.8369140625 0.9166666666666671  9.9326171875 0.9166666666666671  L 12.90625 0.9166666666666671  C 12.970052083333334 0.9166666666666671  13.022460937500002 0.9381510416666671  13.0634765625 0.9811197916666671  Z " fill-rule="nonzero" fill="#ff5400" stroke="none" transform="matrix(1 0 0 1 35 1060 )" />
  </g>
</svg>