<?xml version="1.0" encoding="utf-8"?>
<svg version="1.1" xmlns:xlink="http://www.w3.org/1999/xlink" width="16px" height="16px" xmlns="http://www.w3.org/2000/svg">
  <g transform="matrix(1 0 0 1 -25 -465 )">
    <path d="M 0.6359454191033138 3.106120857699805  L 7.622612085769981 0.11187524366471735  C 7.872124756335283 0.004288499025341129  8.15906432748538 0.004288499025341129  8.408576998050682 0.11187524366471735  L 15.394931773879144 3.106120857699805  C 15.831578947368422 3.293567251461988  16.07485380116959 3.7614035087719295  15.978167641325534 4.223001949317739  C 15.884600389863548 4.687719298245614  15.476023391812864 4.993372319688109  14.973879142300195 5.021442495126705  L 14.973879142300195 5.2709551656920075  C 14.973879142300195 5.685769980506823  14.6682261208577 6.019493177387914  14.225341130604289 6  L 1.7497076023391813 6  C 1.3642105263157895 6.019493177387914  1.001169590643275 5.685769980506823  1.001169590643275 5.2709551656920075  L 1.001169590643275 5.021442495126705  C 0.5554775828460039 4.993372319688109  0.14683820662768032 4.687719298245614  0.05154931773879142 4.223001949317739  C -0.043727095516569205 3.7614035087719295  0.20051461988304095 3.293567251461988  0.6359454191033138 3.106120857699805  Z M 7.017543859649122 3.0253411306042883  C 7.017543859649122 3.5773879142300196  7.463547758284601 4.023391812865497  8.015594541910332 4.023391812865497  C 8.567641325536062 4.023391812865497  9.01364522417154 3.5773879142300196  9.01364522417154 3.0253411306042883  C 9.01364522417154 2.4742300194931772  8.567641325536062 2.02729044834308  8.015594541910332 2.02729044834308  C 7.463547758284601 2.02729044834308  7.017543859649122 2.4742300194931772  7.017543859649122 3.0253411306042883  Z M 3.9953216374269003 7.017543859649122  L 3.9953216374269003 13.005847953216374  L 5.242884990253411 13.005847953216374  L 5.242884990253411 7.017543859649122  L 7.238986354775828 7.017543859649122  L 7.238986354775828 13.005847953216374  L 8.764132553606238 13.005847953216374  L 8.764132553606238 7.017543859649122  L 10.760233918128655 7.017543859649122  L 10.760233918128655 13.005847953216374  L 12.007797270955166 13.005847953216374  L 12.007797270955166 7.017543859649122  L 14.003898635477583 7.017543859649122  L 14.003898635477583 13.139961013645225  C 14.022612085769982 13.149317738791424  14.041325536062377 13.133723196881093  14.060038986354776 13.174269005847952  L 15.557115009746589 14.17231968810916  C 15.922027290448343 14.41559454191033  16.08421052631579 14.870955165692008  15.956335282651073 15.292007797270955  C 15.828460038986355 15.713060428849904  15.441715399610137 16  15.001949317738791 16  L 1.001169590643275 16  C 0.5894736842105263 16  0.20141910331384016 15.713060428849904  0.07398050682261208 15.292007797270955  C -0.05348927875243664 14.870955165692008  0.10962962962962963 14.41559454191033  0.4756335282651072 14.17231968810916  L 1.97270955165692 13.174269005847952  C 1.9904873294346979 13.133723196881093  2.008888888888889 13.149317738791424  1.9992202729044832 13.139961013645225  L 1.9992202729044832 7.017543859649122  L 3.9953216374269003 7.017543859649122  Z " fill-rule="nonzero" fill="#ff5400" stroke="none" transform="matrix(1 0 0 1 25 465 )" />
  </g>
</svg>