<?xml version="1.0" encoding="utf-8"?>
<svg version="1.1" xmlns:xlink="http://www.w3.org/1999/xlink" width="15px" height="11px" xmlns="http://www.w3.org/2000/svg">
  <g transform="matrix(1 0 0 1 -35 -330 )">
    <path d="M 1.0695544554455445 5.2273305084745765  L 3.8490099009900995 2.5891949152542373  C 5.225247524752476 1.2936652542372882  7.512376237623763 1.2936652542372882  8.88861386138614 2.5891949152542373  C 10.126237623762378 3.7544491525423727  10.30940594059406 5.611864406779661  9.292079207920791 6.951906779661017  L 9.264851485148515 6.989194915254237  C 9.00990099009901 7.322457627118644  8.514851485148515 7.401694915254238  8.16089108910891 7.161652542372882  C 7.804455445544555 6.921610169491525  7.720297029702969 6.455508474576271  7.975247524752476 6.122245762711864  L 8.002475247524753 6.084957627118645  C 8.569306930693068 5.336864406779661  8.480198019801982 4.313771186440677  7.78960396039604 3.663559322033898  C 7.012376237623763 2.9317796610169498  5.747524752475248 2.9317796610169498  4.967821782178217 3.663559322033898  L 2.1905940594059405 6.28072033898305  C 1.4106435643564357 6.993855932203391  1.4106435643564357 8.203389830508474  2.1905940594059405 8.9375  C 2.878712871287129 9.58771186440678  3.9678217821782185 9.671610169491526  4.75990099009901 9.13792372881356  L 4.7995049504950495 9.091313559322034  C 5.155940594059406 8.872245762711863  5.650990099009901 8.949152542372882  5.903465346534654 9.284745762711863  C 6.158415841584159 9.620338983050846  6.076732673267326 10.0864406779661  5.720297029702969 10.326483050847457  L 5.680693069306931 10.352118644067795  C 4.235148514851485 11.309957627118646  2.306930693069307 11.15614406779661  1.0695544554455445 9.99322033898305  C -0.3281930693069307 8.676483050847459  -0.3281930693069307 6.541737288135592  1.0695544554455445 5.2273305084745765  Z M 13.93069306930693 5.7726694915254235  L 11.150990099009901 8.389830508474576  C 9.752475247524753 9.70656779661017  7.487623762376238 9.70656779661017  6.089108910891089 8.389830508474576  C 4.851485148514851 7.224576271186441  4.6905940594059405 5.388135593220339  5.707920792079208 4.048093220338983  L 5.735148514851485 4.010805084745763  C 5.967821782178219 3.6775423728813563  6.4628712871287135 3.5983050847457627  6.839108910891089 3.8383474576271186  C 7.195544554455445 4.057415254237288  7.279702970297031 4.523516949152542  7.024752475247525 4.877754237288136  L 6.997524752475248 4.915042372881356  C 6.430693069306931 5.642161016949154  6.519801980198019 6.686228813559321  7.210396039603961 7.3364406779661016  C 7.987623762376237 8.06822033898305  9.252475247524753 8.06822033898305  10.032178217821782 7.3364406779661016  L 12.80940594059406 4.71927966101695  C 13.58910891089109 3.9851694915254234  13.58910891089109 2.775635593220339  12.80940594059406 2.0625  C 12.121287128712872 1.4129872881355932  11.032178217821782 1.3281567796610168  10.24009900990099 1.8620762711864407  L 10.200495049504951 1.8877118644067794  C 9.844059405940593 2.1277542372881353  9.349009900990099 2.029872881355932  9.096534653465346 1.7147881355932204  C 8.841584158415841 1.3796610169491526  8.923267326732674 0.913792372881356  9.279702970297029 0.6744491525423728  L 9.319306930693068 0.6483474576271187  C 10.742574257425742 -0.3092351694915254  12.693069306930692 -0.1573093220338983  13.93069306930693 1.0077118644067797  C 15.329207920792078 2.3235169491525425  15.329207920792078 4.458262711864407  13.93069306930693 5.7726694915254235  Z " fill-rule="nonzero" fill="#0f5abd" stroke="none" transform="matrix(1 0 0 1 35 330 )" />
  </g>
</svg>