<?xml version="1.0" encoding="utf-8"?>
<svg version="1.1" xmlns:xlink="http://www.w3.org/1999/xlink" width="17px" height="17px" xmlns="http://www.w3.org/2000/svg">
  <g transform="matrix(1 0 0 1 -1008 -77 )">
    <path d="M 0.21028645833333331 5.523841961852862  L 4 5.523841961852862  L 4 17  L 0.21028645833333331 17  L 0.21028645833333331 5.523841961852862  Z M 3.530598958333333 0.5616485013623979  C 3.8995225694444446 0.9360808356039958  4.087673611111112 1.4089464123524045  4.095052083333333 1.98024523160763  C 4.102430555555555 2.5438237965485904  3.9161241319444446 3.0147593097184364  3.5361328125 3.393051771117166  C 3.156141493055556 3.7713442325158932  2.65625 3.96049046321526  2.0364583333333335 3.96049046321526  L 2.0143229166666665 3.96049046321526  C 1.4092881944444446 3.96049046321526  0.9223090277777779 3.7713442325158932  0.5533854166666667 3.393051771117166  C 0.18446180555555552 3.0147593097184364  0 2.5438237965485904  0 1.98024523160763  C 0 1.4089464123524045  0.1899956597222222 0.9360808356039958  0.5699869791666667 0.5616485013623979  C 0.9499782986111112 0.18721616712079803  1.4461805555555558 0  2.05859375 0  C 2.671006944444444 0  3.1616753472222223 0.18721616712079803  3.530598958333333 0.5616485013623979  Z M 15.848958333333332 6.571866485013624  C 16.616319444444443 7.448115349682107  17 8.731607629427792  17 10.422343324250683  L 17 17  L 13.358723958333332 17  L 13.358723958333332 10.862397820163487  C 13.358723958333332 10.051771117166211  13.209309895833332 9.416780199818346  12.910481770833332 8.95742506811989  C 12.611653645833332 8.498069936421434  12.144965277777779 8.268392370572208  11.510416666666668 8.268392370572208  C 11.045572916666668 8.268392370572208  10.656358506944445 8.401566757493187  10.3427734375 8.667915531335149  C 10.029188368055557 8.934264305177113  9.794921875 9.264305177111718  9.639973958333332 9.658038147138965  C 9.55881076388889 9.889645776566757  9.518229166666668 10.202316076294277  9.518229166666668 10.596049046321527  L 9.518229166666668 17  L 5.876953125 17  C 5.891710069444445 13.919618528610354  5.899088541666666 11.42211625794732  5.899088541666666 9.507493188010901  C 5.899088541666666 7.592870118074477  5.895399305555556 6.450272479564032  5.888020833333334 6.079700272479563  L 5.876953125 5.523841961852862  L 9.518229166666668 5.523841961852862  L 9.518229166666668 7.191416893732969  L 9.49609375 7.191416893732969  C 9.643663194444445 6.944368755676657  9.794921875 6.728201634877384  9.949869791666668 6.542915531335151  C 10.104817708333332 6.357629427792915  10.313259548611112 6.156902815622161  10.5751953125 5.940735694822887  C 10.83713107638889 5.724568574023613  11.158094618055557 5.556653042688464  11.5380859375 5.436989100817439  C 11.918077256944446 5.317325158946413  12.340494791666668 5.257493188010899  12.805338541666668 5.257493188010899  C 14.067057291666668 5.257493188010899  15.081597222222223 5.69561762034514  15.848958333333332 6.571866485013624  Z " fill-rule="nonzero" fill="#000000" stroke="none" transform="matrix(1 0 0 1 1008 77 )" />
  </g>
</svg>