<?xml version="1.0" encoding="utf-8"?>
<svg version="1.1" xmlns:xlink="http://www.w3.org/1999/xlink" width="16px" height="21px" xmlns="http://www.w3.org/2000/svg">
  <g transform="matrix(1 0 0 1 -989 -700 )">
    <path d="M 8.689114599363908 20.53619883040935  C 8.297814712219143 21.100046783625732  7.46083923258438 21.100005847953216  7.0695803837078 20.53619883040935  C 1.106802092951679 11.91354970760235  0 11.028602339181282  0 7.859649122807026  C 0 3.5188713450292437  3.5276905714578883 0  7.879347491535854 0  C 12.231004411613819 0  15.758694983071708 3.5188713450292437  15.758694983071708 7.859649122807026  C 15.758694983071708 11.028602339181282  14.65189289012003 11.91354970760235  8.689114599363908 20.53619883040935  Z M 4.596286036729249 7.859649122807026  C 4.596286036729249 9.668309941520466  6.066153688314348 11.134502923976614  7.879347491535854 11.134502923976614  C 9.69254129475736 11.134502923976614  11.162408946342458 9.668309941520466  11.162408946342458 7.859649122807026  C 11.162408946342458 6.050988304093562  9.69254129475736 4.584795321637437  7.879347491535854 4.584795321637437  C 6.066153688314348 4.584795321637437  4.596286036729249 6.050988304093562  4.596286036729249 7.859649122807026  Z " fill-rule="nonzero" fill="#999ea1" stroke="none" transform="matrix(1 0 0 1 989 700 )" />
  </g>
</svg>