<?xml version="1.0" encoding="utf-8"?>
<svg version="1.1" xmlns:xlink="http://www.w3.org/1999/xlink" width="16px" height="21px" xmlns="http://www.w3.org/2000/svg">
  <g transform="matrix(1 0 0 1 -25 -356 )">
    <path d="M 7.0125 20.515068493150686  C 4.8374999999999995 17.876712328767123  0 11.482191780821918  0 7.890410958904109  C 0 3.5326027397260273  3.5816666666666666 0  8 0  C 12.416666666666666 0  16 3.5326027397260273  16 7.890410958904109  C 16 11.482191780821918  11.125 17.876712328767123  8.987499999999999 20.515068493150686  C 8.475 21.143835616438356  7.5249999999999995 21.143835616438356  7.0125 20.515068493150686  Z M 5.333333333333333 7.890410958904109  C 5.333333333333333 9.34109589041096  6.529166666666666 10.520547945205479  8 10.520547945205479  C 9.470833333333333 10.520547945205479  10.666666666666666 9.34109589041096  10.666666666666666 7.890410958904109  C 10.666666666666666 6.43972602739726  9.470833333333333 5.260273972602739  8 5.260273972602739  C 6.529166666666666 5.260273972602739  5.333333333333333 6.43972602739726  5.333333333333333 7.890410958904109  Z " fill-rule="nonzero" fill="#ff5400" stroke="none" transform="matrix(1 0 0 1 25 356 )" />
  </g>
</svg>