<?xml version="1.0" encoding="utf-8"?>
<svg version="1.1" xmlns:xlink="http://www.w3.org/1999/xlink" width="13px" height="15px" xmlns="http://www.w3.org/2000/svg">
  <g transform="matrix(1 0 0 1 -149 -721 )">
    <path d="M 3.611111111111111 4.772727272727273  L 3.611111111111111 6.818181818181818  L 9.38888888888889 6.818181818181818  L 9.38888888888889 4.772727272727273  C 9.38888888888889 4.019886363636363  9.106770833333334 3.377130681818181  8.542534722222223 2.8444602272727266  C 7.978298611111112 2.3117897727272734  7.297453703703705 2.0454545454545454  6.5 2.0454545454545454  C 5.702546296296297 2.0454545454545454  5.021701388888888 2.3117897727272734  4.457465277777778 2.8444602272727266  C 3.893229166666667 3.377130681818181  3.611111111111111 4.019886363636363  3.611111111111111 4.772727272727273  Z M 12.684027777777777 7.116477272727273  C 12.894675925925927 7.315340909090909  13 7.55681818181818  13 7.840909090909091  L 13 13.977272727272728  C 13 14.261363636363637  12.894675925925927 14.502840909090908  12.684027777777777 14.701704545454545  C 12.473379629629632 14.900568181818182  12.217592592592593 15  11.916666666666666 15  L 1.0833333333333333 15  C 0.7824074074074076 15  0.5266203703703705 14.900568181818182  0.3159722222222222 14.701704545454545  C 0.10532407407407407 14.502840909090908  0 14.261363636363637  0 13.977272727272728  L 0 7.840909090909091  C 0 7.55681818181818  0.10532407407407407 7.315340909090909  0.3159722222222222 7.116477272727273  C 0.5266203703703705 6.917613636363637  0.7824074074074076 6.818181818181818  1.0833333333333333 6.818181818181818  L 1.4444444444444444 6.818181818181818  L 1.4444444444444444 4.772727272727273  C 1.4444444444444444 3.4659090909090895  1.940972222222222 2.34375  2.9340277777777777 1.40625  C 3.927083333333333 0.46875  5.115740740740741 0  6.5 0  C 7.8842592592592595 0  9.072916666666666 0.46875  10.065972222222223 1.40625  C 11.059027777777777 2.34375  11.555555555555555 3.4659090909090895  11.555555555555555 4.772727272727273  L 11.555555555555555 6.818181818181818  L 11.916666666666666 6.818181818181818  C 12.217592592592593 6.818181818181818  12.473379629629632 6.917613636363637  12.684027777777777 7.116477272727273  Z " fill-rule="nonzero" fill="#0b4778" stroke="none" transform="matrix(1 0 0 1 149 721 )" />
  </g>
</svg>