<?xml version="1.0" encoding="utf-8"?>
<svg version="1.1" xmlns:xlink="http://www.w3.org/1999/xlink" width="10px" height="12px" xmlns="http://www.w3.org/2000/svg">
  <g transform="matrix(1 0 0 1 -122 -1205 )">
    <path d="M 2.7777777777777777 3.818181818181819  L 2.7777777777777777 5.454545454545455  L 7.222222222222222 5.454545454545455  L 7.222222222222222 3.818181818181819  C 7.222222222222222 3.2159090909090904  7.005208333333334 2.701704545454545  6.571180555555555 2.275568181818181  C 6.137152777777778 1.8494318181818188  5.6134259259259265 1.6363636363636362  5 1.6363636363636362  C 4.386574074074074 1.6363636363636362  3.8628472222222223 1.8494318181818188  3.428819444444444 2.275568181818181  C 2.994791666666667 2.701704545454545  2.7777777777777777 3.2159090909090904  2.7777777777777777 3.818181818181819  Z M 9.756944444444445 5.693181818181818  C 9.918981481481483 5.852272727272727  10 6.045454545454544  10 6.2727272727272725  L 10 11.181818181818183  C 10 11.40909090909091  9.918981481481483 11.602272727272727  9.756944444444445 11.761363636363637  C 9.594907407407408 11.920454545454547  9.398148148148149 12  9.166666666666666 12  L 0.8333333333333333 12  C 0.601851851851852 12  0.40509259259259267 11.920454545454547  0.24305555555555555 11.761363636363637  C 0.08101851851851852 11.602272727272727  0 11.40909090909091  0 11.181818181818183  L 0 6.2727272727272725  C 0 6.045454545454544  0.08101851851851852 5.852272727272727  0.24305555555555555 5.693181818181818  C 0.40509259259259267 5.534090909090909  0.601851851851852 5.454545454545455  0.8333333333333333 5.454545454545455  L 1.1111111111111112 5.454545454545455  L 1.1111111111111112 3.818181818181819  C 1.1111111111111112 2.7727272727272716  1.4930555555555556 1.875  2.2569444444444446 1.125  C 3.020833333333333 0.375  3.9351851851851856 0  5 0  C 6.064814814814815 0  6.979166666666666 0.375  7.743055555555555 1.125  C 8.506944444444445 1.875  8.88888888888889 2.7727272727272716  8.88888888888889 3.818181818181819  L 8.88888888888889 5.454545454545455  L 9.166666666666666 5.454545454545455  C 9.398148148148149 5.454545454545455  9.594907407407408 5.534090909090909  9.756944444444445 5.693181818181818  Z " fill-rule="nonzero" fill="#0073ba" stroke="none" transform="matrix(1 0 0 1 122 1205 )" />
  </g>
</svg>