<svg xmlns="http://www.w3.org/2000/svg" xmlns:xlink="http://www.w3.org/1999/xlink" viewBox="0,0,256,256" width="15px" height="15px"><g fill="#005087" fill-rule="nonzero" stroke="none" stroke-width="1" stroke-linecap="butt" stroke-linejoin="miter" stroke-miterlimit="10" stroke-dasharray="" stroke-dashoffset="0" font-family="none" font-weight="none" font-size="none" text-anchor="none" style="mix-blend-mode: normal"><g transform="scale(8.53333,8.53333)"><path d="M4,2c-0.552,0 -1,0.448 -1,1v21c0,2.209 1.791,4 4,4h15h1h1c2.209,0 4,-1.791 4,-4v-14c0,-0.552 -0.448,-1 -1,-1h-2v15c0,0.553 -0.448,1 -1,1c-0.552,0 -1,-0.447 -1,-1v-21c0,-0.552 -0.448,-1 -1,-1zM6,6h14v3h-14zM6,13h6v2h-6zM14,13h6v2h-6zM6,17h6v2h-6zM14,17h6v2h-6zM6,21h6v2h-6zM14,21h6v2h-6z"></path></g></g></svg>