<?xml version="1.0" encoding="utf-8"?>
<svg version="1.1" xmlns:xlink="http://www.w3.org/1999/xlink" width="36px" height="36px" xmlns="http://www.w3.org/2000/svg">
  <g transform="matrix(1 0 0 1 -47 -436 )">
    <path d="M 23.7890625 29.7890625  C 23.9296875 29.6484375  24 29.46875  24 29.25  L 24 25.499999999999996  C 24 25.28125  23.9296875 25.1015625  23.7890625 24.9609375  C 23.6484375 24.8203125  23.46875 24.75  23.25 24.75  L 21 24.75  L 21 12.749999999999998  C 21 12.53125  20.9296875 12.351562500000002  20.7890625 12.210937500000002  C 20.6484375 12.070312500000002  20.468750000000004 12.000000000000002  20.25 12.000000000000002  L 12.75 12.000000000000002  C 12.531250000000002 12.000000000000002  12.3515625 12.070312500000002  12.2109375 12.210937500000002  C 12.0703125 12.351562500000002  12 12.53125  12 12.749999999999998  L 12 16.5  C 12 16.71875  12.0703125 16.8984375  12.2109375 17.0390625  C 12.3515625 17.1796875  12.531250000000002 17.25  12.75 17.25  L 15 17.25  L 15 24.75  L 12.75 24.75  C 12.531250000000002 24.75  12.3515625 24.8203125  12.2109375 24.9609375  C 12.0703125 25.1015625  12 25.28125  12 25.499999999999996  L 12 29.25  C 12 29.46875  12.0703125 29.6484375  12.2109375 29.7890625  C 12.3515625 29.9296875  12.531250000000002 30  12.75 30  L 23.25 30  C 23.46875 30  23.6484375 29.9296875  23.7890625 29.7890625  Z M 20.7890625 8.7890625  C 20.9296875 8.6484375  21 8.468749999999996  21 8.249999999999998  L 21 4.5  C 21 4.281249999999998  20.9296875 4.101562499999998  20.7890625 3.9609374999999987  C 20.6484375 3.8203124999999987  20.468750000000004 3.7499999999999987  20.25 3.7499999999999987  L 15.75 3.7499999999999987  C 15.531250000000002 3.7499999999999987  15.3515625 3.8203124999999987  15.2109375 3.9609374999999987  C 15.0703125 4.101562499999998  15 4.281249999999998  15 4.5  L 15 8.249999999999998  C 15 8.468749999999996  15.0703125 8.6484375  15.2109375 8.7890625  C 15.3515625 8.9296875  15.531250000000002 9  15.75 9  L 20.25 9  C 20.468750000000004 9  20.6484375 8.9296875  20.7890625 8.7890625  Z M 33.5859375 8.96484375  C 35.19531249999999 11.722656249999996  36 14.734374999999995  36 18  C 36 21.265625  35.19531249999999 24.277343749999996  33.5859375 27.03515625  C 31.976562500000004 29.79296875  29.79296875 31.9765625  27.03515625 33.5859375  C 24.277343750000004 35.1953125  21.265625 36  18 36  C 14.734375000000002 36  11.72265625 35.1953125  8.96484375 33.5859375  C 6.207031250000001 31.9765625  4.0234375 29.79296875  2.4140625 27.03515625  C 0.8046874999999999 24.277343749999996  0 21.265625  0 18  C 0 14.734374999999995  0.8046874999999999 11.722656249999996  2.4140625 8.96484375  C 4.0234375 6.20703125  6.207031250000001 4.0234374999999964  8.96484375 2.4140624999999987  C 11.72265625 0.8046874999999969  14.734375000000002 0  18 0  C 21.265625 0  24.277343750000004 0.8046874999999969  27.03515625 2.4140624999999987  C 29.79296875 4.0234374999999964  31.976562500000004 6.20703125  33.5859375 8.96484375  Z " fill-rule="nonzero" fill="#000000" stroke="none" transform="matrix(1 0 0 1 47 436 )" />
  </g>
</svg>