<?xml version="1.0" encoding="utf-8"?>
<svg version="1.1" xmlns:xlink="http://www.w3.org/1999/xlink" width="12px" height="15px" xmlns="http://www.w3.org/2000/svg">
  <g transform="matrix(1 0 0 1 -35 -377 )">
    <path d="M 9.03125 0.569196428571429  L 11.46875 3.180803571428571  C 11.614583333333334 3.3370535714285703  11.739583333333334 3.5491071428571437  11.84375 3.8169642857142856  C 11.947916666666666 4.084821428571429  12 4.330357142857142  12 4.553571428571429  L 12 14.196428571428571  C 12 14.419642857142858  11.927083333333332 14.609374999999998  11.78125 14.765625  C 11.635416666666668 14.921875000000002  11.458333333333334 15  11.25 15  L 0.75 15  C 0.5416666666666667 15  0.36458333333333337 14.921875000000002  0.21875 14.765625  C 0.07291666666666666 14.609374999999998  0 14.419642857142858  0 14.196428571428571  L 0 0.803571428571429  C 0 0.5803571428571425  0.07291666666666666 0.39062499999999944  0.21875 0.234375  C 0.36458333333333337 0.07812500000000056  0.5416666666666667 0  0.75 0  L 7.75 0  C 7.958333333333334 0  8.1875 0.05580357142857206  8.4375 0.16741071428571452  C 8.6875 0.279017857142857  8.885416666666668 0.41294642857142794  9.03125 0.569196428571429  Z M 8.3203125 1.3225446428571437  C 8.2578125 1.2555803571428563  8.151041666666668 1.1941964285714268  8 1.1383928571428563  L 8 4.285714285714286  L 10.9375 4.285714285714286  C 10.885416666666668 4.123883928571427  10.828125 4.009486607142857  10.765625 3.942522321428571  L 8.3203125 1.3225446428571437  Z M 1 14  L 11 14  L 11 5.357142857142857  L 7.75 5.357142857142857  C 7.541666666666666 5.357142857142857  7.364583333333334 5.279017857142856  7.21875 5.122767857142857  C 7.072916666666666 4.966517857142857  7 4.776785714285713  7 4.553571428571429  L 7 1.071428571428571  L 1 1.071428571428571  L 1 14  Z M 5.84375 6.97265625  C 6.130208333333334 7.887834821428569  6.510416666666666 8.551897321428573  6.984375 8.96484375  C 7.156250000000001 9.109933035714286  7.375 9.266183035714285  7.640625 9.43359375  C 7.947916666666668 9.394531249999998  8.252604166666668 9.375  8.5546875 9.375  C 9.3203125 9.375  9.78125 9.511718749999998  9.9375 9.78515625  C 10.020833333333334 9.907924107142856  10.026041666666668 10.053013392857142  9.953125 10.220424107142858  C 9.953125 10.226004464285714  9.950520833333334 10.23158482142857  9.9453125 10.237165178571429  L 9.9296875 10.25390625  L 9.9296875 10.262276785714285  C 9.8984375 10.474330357142858  9.713541666666668 10.580357142857142  9.375 10.580357142857142  C 9.125 10.580357142857142  8.825520833333334 10.52455357142857  8.4765625 10.412946428571429  C 8.127604166666668 10.301339285714285  7.7890625 10.153459821428571  7.4609375 9.969308035714285  C 6.309895833333334 10.103236607142858  5.2890625 10.334821428571427  4.3984375 10.6640625  C 3.6015625 12.126116071428573  2.971354166666667 12.857142857142858  2.5078125 12.857142857142858  C 2.4296875 12.857142857142858  2.3567708333333335 12.837611607142858  2.2890625 12.798549107142858  L 2.1015625 12.698102678571429  C 2.096354166666667 12.69252232142857  2.080729166666667 12.67857142857143  2.0546875 12.65625  C 2.002604166666667 12.600446428571427  1.986979166666667 12.499999999999998  2.0078125 12.354910714285715  C 2.0546875 12.131696428571427  2.2005208333333335 11.876395089285714  2.4453125 11.589006696428571  C 2.690104166666667 11.30161830357143  3.033854166666667 11.032366071428571  3.4765625 10.78125  C 3.549479166666667 10.731026785714285  3.609375000000001 10.747767857142858  3.65625 10.831473214285715  C 3.666666666666667 10.842633928571427  3.671875 10.85379464285714  3.671875 10.864955357142858  C 3.942708333333334 10.390624999999998  4.221354166666667 9.840959821428571  4.5078125 9.215959821428571  C 4.861979166666667 8.457031249999998  5.1328125 7.726004464285714  5.3203125 7.022879464285714  C 5.1953125 6.565290178571428  5.115885416666667 6.12025669642857  5.08203125 5.687779017857143  C 5.048177083333334 5.2553013392857135  5.065104166666667 4.899553571428571  5.1328125 4.620535714285714  C 5.190104166666667 4.397321428571428  5.299479166666667 4.285714285714286  5.4609375 4.285714285714286  L 5.625 4.285714285714286  L 5.6328125 4.285714285714286  C 5.752604166666667 4.285714285714286  5.84375 4.327566964285714  5.90625 4.411272321428571  C 6.000000000000002 4.528459821428571  6.023437500000002 4.718191964285713  5.9765625 4.98046875  C 5.966145833333334 5.013950892857143  5.955729166666667 5.03627232142857  5.9453125 5.047433035714286  C 5.950520833333334 5.064174107142857  5.953125 5.086495535714285  5.953125 5.114397321428571  L 5.953125 5.365513392857143  C 5.942708333333334 6.051897321428571  5.90625 6.587611607142857  5.84375 6.97265625  Z M 2.87109375 11.785714285714285  C 2.6809895833333335 12.031249999999998  2.5520833333333335 12.237723214285715  2.484375 12.405133928571429  C 2.7552083333333335 12.271205357142858  3.111979166666667 11.830357142857142  3.5546875 11.082589285714285  C 3.2890625 11.305803571428573  3.061197916666667 11.540178571428573  2.87109375 11.785714285714285  Z M 5.59375 4.6875  L 5.59375 4.704241071428571  C 5.515625 4.938616071428571  5.510416666666667 5.306919642857143  5.578125 5.809151785714286  C 5.583333333333334 5.770089285714285  5.6015625 5.647321428571427  5.6328125 5.440848214285714  C 5.6328125 5.424107142857143  5.651041666666667 5.304129464285713  5.6875 5.080915178571429  C 5.692708333333334 5.058593749999999  5.703125 5.03627232142857  5.71875 5.013950892857143  C 5.713541666666667 5.008370535714285  5.7109375 5.002790178571427  5.7109375 4.997209821428571  C 5.705729166666667 4.986049107142856  5.703125 4.97767857142857  5.703125 4.972098214285714  C 5.697916666666667 4.849330357142857  5.6640625 4.748883928571428  5.6015625 4.670758928571429  C 5.6015625 4.676339285714285  5.598958333333334 4.681919642857142  5.59375 4.6875  Z M 4.9765625 9.542410714285715  C 4.8203125 9.854910714285714  4.703125 10.086495535714285  4.625 10.237165178571429  C 5.328125 9.935825892857142  6.067708333333334 9.709821428571429  6.84375 9.559151785714285  C 6.833333333333334 9.553571428571427  6.799479166666668 9.527064732142856  6.7421875 9.479631696428571  C 6.684895833333334 9.432198660714286  6.643229166666668 9.394531249999998  6.6171875 9.366629464285715  C 6.221354166666668 8.992745535714286  5.890625000000001 8.501674107142856  5.625 7.893415178571429  C 5.484375 8.373325892857142  5.268229166666667 8.922991071428571  4.9765625 9.542410714285715  Z M 9.6875 10.128348214285715  C 9.6875 10.122767857142858  9.682291666666668 10.11439732142857  9.671875 10.103236607142858  C 9.546875 9.969308035714285  9.182291666666668 9.90234375  8.578125 9.90234375  C 8.973958333333334 10.058593749999998  9.296875 10.13671875  9.546875 10.13671875  C 9.619791666666668 10.13671875  9.666666666666668 10.133928571428571  9.6875 10.128348214285715  Z " fill-rule="nonzero" fill="#d40000" stroke="none" transform="matrix(1 0 0 1 35 377 )" />
  </g>
</svg>