<?xml version="1.0" encoding="utf-8"?>
<svg version="1.1" xmlns:xlink="http://www.w3.org/1999/xlink" width="17px" height="17px" xmlns="http://www.w3.org/2000/svg">
  <g transform="matrix(1 0 0 1 -350 -42 )">
    <path d="M 2.8726072607260726 15.563696369636963  L 4.073267326732673 15.563696369636963  L 5.094389438943894 14.542574257425743  L 2.4574257425742574 11.905610561056106  L 1.4363036303630363 12.926732673267328  L 1.4363036303630363 14.127392739273928  L 2.8726072607260726 14.127392739273928  L 2.8726072607260726 15.563696369636963  Z M 9.863366336633662 5.341254125412541  C 9.915731573157316 5.288888888888889  9.941914191419142 5.225302530253025  9.941914191419142 5.1504950495049515  C 9.941914191419142 4.9859185918591855  9.85962596259626 4.903630363036303  9.695049504950495 4.903630363036303  C 9.62024202420242 4.903630363036303  9.55665566556656 4.929812981298129  9.504290429042905 4.982178217821783  L 3.4224422442244222 11.064026402640264  C 3.3700770077007705 11.116391639163915  3.343894389438944 11.179977997799778  3.343894389438944 11.254785478547856  C 3.343894389438944 11.419361936193617  3.4261826182618265 11.501650165016503  3.5907590759075907 11.501650165016503  C 3.6655665566556657 11.501650165016503  3.7291529152915293 11.475467546754675  3.7815181518151815 11.423102310231023  L 9.863366336633662 5.341254125412541  Z M 0 12.332013201320134  L 9.335973597359736 2.996039603960397  L 14.003960396039604 7.664026402640264  L 4.667986798679868 17  L 0 17  L 0 12.332013201320134  Z M 16.584818481848185 3.0521452145214516  C 16.861606160616063 3.3438943894389443  17 3.684268426842684  17 4.073267326732673  C 17 4.46974697469747  16.861606160616063 4.806380638063805  16.584818481848185 5.083168316831684  L 14.722112211221122 6.9458745874587455  L 10.054125412541254 2.2778877887788784  L 11.916831683168317 0.4264026402640255  C 12.186138613861386 0.14213421342134058  12.522772277227723 0  12.926732673267328 0  C 13.323212321232125 0  13.663586358635865 0.14213421342134058  13.947854785478548 0.4264026402640255  L 16.584818481848185 3.0521452145214516  Z " fill-rule="nonzero" fill="#000000" stroke="none" transform="matrix(1 0 0 1 350 42 )" />
  </g>
</svg>