<?xml version="1.0" encoding="utf-8"?>
<svg version="1.1" xmlns:xlink="http://www.w3.org/1999/xlink" width="21px" height="21px" xmlns="http://www.w3.org/2000/svg">
  <g transform="matrix(1 0 0 1 -1294 -65 )">
    <path d="M 20.519871093749998 20.481754385964916  C 21.1599609375 19.841520467836258  21.1599609375 18.801754385964912  20.520117187500002 18.16315789473684  L 15.610546875 13.26315789473684  C 16.726992187500002 11.608947368421054  17.27783203125 9.542105263157895  16.9829296875 7.339766081871345  C 16.480078125000002 3.59374269005848  13.40390625 0.5452631578947368  9.646875 0.07053216374269007  C 4.06095703125 -0.6349122807017544  -0.63615234375 4.053040935672515  0.0707109375 9.628070175438596  C 0.5464921875 13.379415204678361  3.6013359375 16.45204678362573  7.355085937499999 16.951461988304093  C 9.561726562499999 17.245748538011696  11.633015624999999 16.696187134502924  13.290046875 15.581754385964913  L 18.1996171875 20.481754385964916  C 18.84028125 21.121169590643277  19.879207031249997 21.121169590643277  20.519871093749998 20.481754385964916  Z M 8.4943359375 13.75438596491228  C 5.599453125000002 13.75438596491228  3.2443359375 11.404678362573101  3.2443359375 8.514619883040936  C 3.2443359375 5.6253801169590645  5.599453124999999 3.2748538011695905  8.494335937499999 3.2748538011695905  C 11.38921875 3.2748538011695905  13.7443359375 5.6253801169590645  13.7443359375 8.514619883040936  C 13.7443359375 11.403859649122806  11.38921875 13.75438596491228  8.4943359375 13.75438596491228  Z " fill-rule="nonzero" fill="#ffffff" stroke="none" transform="matrix(1 0 0 1 1294 65 )" />
  </g>
</svg>