<?xml version="1.0" encoding="utf-8"?>
<svg version="1.1" xmlns:xlink="http://www.w3.org/1999/xlink" width="24px" height="24px" xmlns="http://www.w3.org/2000/svg">
  <g transform="matrix(1 0 0 1 -1300 -428 )">
    <path d="M 14.71875 14.71875  C 15.983173076923078 13.454326923076922  16.615384615384613 11.932692307692307  16.615384615384613 10.153846153846155  C 16.615384615384613 8.374999999999998  15.983173076923078 6.853365384615383  14.71875 5.5889423076923075  C 13.454326923076923 4.324519230769229  11.932692307692308 3.6923076923076925  10.153846153846153 3.6923076923076925  C 8.375 3.6923076923076925  6.853365384615386 4.324519230769229  5.5889423076923075 5.5889423076923075  C 4.324519230769231 6.853365384615383  3.6923076923076925 8.374999999999998  3.6923076923076925 10.153846153846155  C 3.6923076923076925 11.932692307692307  4.324519230769231 13.454326923076922  5.5889423076923075 14.71875  C 6.853365384615386 15.983173076923073  8.375 16.615384615384613  10.153846153846153 16.615384615384613  C 11.932692307692308 16.615384615384613  13.454326923076923 15.983173076923073  14.71875 14.71875  Z M 23.466346153846153 20.85576923076923  C 23.822115384615387 21.211538461538463  24 21.64423076923077  24 22.153846153846153  C 24 22.653846153846157  23.817307692307693 23.086538461538463  23.451923076923077 23.451923076923077  C 23.086538461538463 23.817307692307693  22.653846153846157 24  22.153846153846153 24  C 21.634615384615387 24  21.201923076923077 23.817307692307693  20.85576923076923 23.451923076923077  L 15.908653846153845 18.51923076923077  C 14.1875 19.711538461538463  12.26923076923077 20.307692307692307  10.153846153846153 20.307692307692307  C 8.778846153846155 20.307692307692307  7.4639423076923075 20.040865384615387  6.209134615384615 19.50721153846154  C 4.954326923076923 18.973557692307693  3.8725961538461537 18.252403846153847  2.963942307692308 17.34375  C 2.0552884615384617 16.435096153846153  1.3341346153846156 15.353365384615385  0.8004807692307692 14.098557692307693  C 0.2668269230769231 12.84375  0 11.528846153846152  0 10.153846153846155  C 0 8.77884615384615  0.2668269230769231 7.4639423076923075  0.8004807692307692 6.209134615384615  C 1.3341346153846156 4.9543269230769225  2.0552884615384617 3.872596153846155  2.963942307692308 2.9639423076923075  C 3.8725961538461537 2.0552884615384626  4.954326923076923 1.334134615384615  6.209134615384615 0.80048076923077  C 7.4639423076923075 0.26682692307692246  8.778846153846155 0  10.153846153846153 0  C 11.528846153846153 0  12.84375 0.26682692307692246  14.098557692307693 0.80048076923077  C 15.353365384615385 1.334134615384615  16.435096153846153 2.0552884615384626  17.34375 2.9639423076923075  C 18.252403846153847 3.872596153846155  18.973557692307693 4.9543269230769225  19.507211538461537 6.209134615384615  C 20.040865384615387 7.4639423076923075  20.307692307692307 8.77884615384615  20.307692307692307 10.153846153846155  C 20.307692307692307 12.269230769230768  19.711538461538463 14.187499999999998  18.51923076923077 15.908653846153845  L 23.466346153846153 20.85576923076923  Z " fill-rule="nonzero" fill="#7f7f7f" stroke="none" transform="matrix(1 0 0 1 1300 428 )" />
  </g>
</svg>