<?xml version="1.0" encoding="utf-8"?>
<svg version="1.1" xmlns:xlink="http://www.w3.org/1999/xlink" width="36px" height="32px" xmlns="http://www.w3.org/2000/svg">
  <g transform="matrix(1 0 0 1 -47 -432 )">
    <path d="M 33.999375 18.445625  C 35.190625 17.7525  36 16.476875  36 15  C 36 13.523125  35.190625 12.2475  34 11.555  L 34 2.000625  C 34 1.45375  33.56375 0  32 0  C 31.555 0  31.113125 0.14875  30.75125 0.43875  L 25.436875 4.690625  C 22.7675 6.824375  19.41625 8  16 8  L 4 8  C 1.790625 8  0 9.790625  0 12  L 0 18  C 0 20.209375  1.790625 22  4 22  L 6.10625 22  C 6.019375 22.655  5.97 23.32125  5.97 24  C 5.97 26.485625  6.54875 28.834375  7.5675 30.93375  C 7.891875 31.601875  8.6 32  9.3425 32  L 13.985 32  C 15.613125 32  16.590625 30.135  15.60375 28.84  C 14.57875 27.495  13.969375 25.8175  13.969375 24  C 13.969375 23.305625  14.070625 22.638125  14.245 22  L 16 22  C 19.416249999999998 22  22.7675 23.175625  25.43625 25.309375  L 30.750625 29.56125  C 31.105070999359107 29.84488741360391  31.54541245701047 29.99960197980574  31.999375 30  C 33.556875 30  33.999375 28.57625  33.999375 28  L 33.999375 18.445625  Z M 30 6.16125  L 30 23.838749999999997  L 27.934375 22.186249999999998  C 24.559375 19.48625  20.32 18  16 18  L 16 12  C 20.32 12  24.559375 10.51375  27.934375 7.81375  L 30 6.16125  Z " fill-rule="nonzero" fill="#1b1b1b" stroke="none" transform="matrix(1 0 0 1 47 432 )" />
  </g>
</svg>