<?xml version="1.0" encoding="utf-8"?>
<svg version="1.1" xmlns:xlink="http://www.w3.org/1999/xlink" width="14px" height="12px" xmlns="http://www.w3.org/2000/svg">
  <g transform="matrix(1 0 0 1 -27 -244 )">
    <path d="M 6.301682692307692 1.0295358649789033  C 6.408253205128204 1.136427566807313  6.461538461538462 1.2630098452883254  6.461538461538462 1.4092827004219406  L 6.461538461538462 10.59071729957806  C 6.461538461538462 10.736990154711673  6.408253205128204 10.863572433192687  6.301682692307692 10.970464135021096  C 6.19511217948718 11.077355836849508  6.068910256410256 11.130801687763713  5.923076923076923 11.130801687763713  C 5.77724358974359 11.130801687763713  5.651041666666667 11.077355836849508  5.544471153846154 10.970464135021096  L 2.7427884615384617 8.160337552742615  L 0.5384615384615385 8.160337552742615  C 0.3926282051282052 8.160337552742615  0.26642628205128205 8.10689170182841  0.15985576923076922 8  C 0.05328525641025641 7.8931082981715885  0 7.766526019690576  0 7.620253164556962  L 0 4.379746835443038  C 0 4.233473980309423  0.05328525641025641 4.106891701828409  0.15985576923076922 4  C 0.26642628205128205 3.893108298171588  0.3926282051282052 3.8396624472573846  0.5384615384615385 3.8396624472573846  L 2.7427884615384617 3.8396624472573846  L 5.544471153846154 1.0295358649789033  C 5.651041666666667 0.9226441631504922  5.77724358974359 0.8691983122362874  5.923076923076923 0.8691983122362874  C 6.068910256410256 0.8691983122362874  6.19511217948718 0.9226441631504922  6.301682692307692 1.0295358649789033  Z M 9.334735576923077 4.80168776371308  C 9.573116987179489 5.172995780590718  9.692307692307692 5.572433192686356  9.692307692307692 6  C 9.692307692307692 6.427566807313642  9.573116987179489 6.825597749648383  9.334735576923077 7.194092827004219  C 9.096354166666668 7.562587904360054  8.78084935897436 7.825597749648382  8.388221153846153 7.9831223628691985  C 8.332131410256412 8.0112517580872  8.262019230769232 8.025316455696203  8.177884615384617 8.025316455696203  C 8.032051282051283 8.025316455696203  7.9058493589743595 7.973277074542896  7.799278846153846 7.8691983122362865  C 7.692708333333334 7.765119549929675  7.639423076923077 7.637130801687763  7.639423076923077 7.485232067510548  C 7.639423076923077 7.367088607594936  7.673076923076923 7.267229254571026  7.740384615384616 7.185654008438819  C 7.807692307692308 7.10407876230661  7.889022435897437 7.033755274261604  7.984375 6.974683544303798  C 8.079727564102566 6.915611814345992  8.17508012820513 6.8509142053445835  8.270432692307692 6.780590717299579  C 8.365785256410257 6.710267229254571  8.447115384615383 6.60900140646976  8.514423076923077 6.476793248945147  C 8.58173076923077 6.344585091420534  8.615384615384617 6.185654008438818  8.615384615384617 6  C 8.615384615384617 5.814345991561182  8.58173076923077 5.6554149085794645  8.514423076923077 5.523206751054852  C 8.447115384615383 5.390998593530238  8.365785256410257 5.289732770745428  8.270432692307692 5.219409282700422  C 8.17508012820513 5.149085794655415  8.079727564102566 5.084388185654008  7.984375 5.025316455696203  C 7.889022435897437 4.966244725738396  7.807692307692308 4.895921237693389  7.740384615384616 4.814345991561181  C 7.673076923076923 4.732770745428972  7.639423076923077 4.632911392405063  7.639423076923077 4.514767932489452  C 7.639423076923077 4.362869198312236  7.692708333333334 4.234880450070323  7.799278846153846 4.1308016877637135  C 7.9058493589743595 4.026722925457102  8.032051282051283 3.974683544303797  8.177884615384617 3.974683544303797  C 8.262019230769232 3.974683544303797  8.332131410256412 3.988748241912799  8.388221153846153 4.0168776371308015  C 8.78084935897436 4.1687763713080175  9.096354166666668 4.4303797468354436  9.334735576923077 4.80168776371308  Z M 11.131009615384617 3.616033755274261  C 11.607772435897438 4.344585091420534  11.846153846153847 5.139240506329114  11.846153846153847 6  C 11.846153846153847 6.860759493670886  11.607772435897438 7.6554149085794645  11.131009615384617 8.383966244725737  C 10.654246794871796 9.11251758087201  10.02323717948718 9.642756680731363  9.23798076923077 9.974683544303797  C 9.165064102564104 10.0028129395218  9.094951923076923 10.0168776371308  9.02764423076923 10.0168776371308  C 8.876201923076923 10.0168776371308  8.747195512820513 9.963431786216596  8.640625 9.856540084388186  C 8.534054487179489 9.749648382559775  8.480769230769232 9.623066104078763  8.48076923076923 9.476793248945146  C 8.480769230769232 9.257383966244726  8.590144230769232 9.091420534458509  8.80889423076923 8.978902953586498  C 9.122996794871796 8.81575246132208  9.336137820512821 8.691983122362869  9.448317307692308 8.60759493670886  C 9.863381410256412 8.30379746835443  10.18729967948718 7.922644163150491  10.420072115384617 7.464135021097046  C 10.652844551282051 7.0056258790436  10.76923076923077 6.517580872011251  10.76923076923077 6  C 10.76923076923077 5.482419127988747  10.652844551282051 4.994374120956399  10.420072115384617 4.5358649789029535  C 10.18729967948718 4.077355836849508  9.863381410256412 3.6962025316455698  9.448317307692308 3.392405063291139  C 9.336137820512821 3.3080168776371313  9.122996794871796 3.184247538677918  8.80889423076923 3.0210970464135016  C 8.590144230769232 2.90857946554149  8.480769230769232 2.7426160337552745  8.48076923076923 2.5232067510548517  C 8.480769230769232 2.3769338959212365  8.534054487179489 2.250351617440224  8.640625 2.1434599156118144  C 8.747195512820513 2.0365682137834034  8.873397435897438 1.9831223628691985  9.01923076923077 1.9831223628691985  C 9.092147435897438 1.9831223628691985  9.165064102564104 1.9971870604781978  9.23798076923077 2.025316455696203  C 10.02323717948718 2.357243319268635  10.654246794871796 2.887482419127987  11.131009615384617 3.616033755274261  Z M 12.931490384615383 2.4345991561181433  C 13.64383012820513 3.5175808720112514  14 4.706047819971869  14 6  C 14 7.293952180028128  13.64383012820513 8.482419127988745  12.931490384615383 9.565400843881857  C 12.219150641025642 10.648382559774966  11.271233974358974 11.445850914205344  10.087740384615383 11.957805907172995  C 10.014823717948719 11.985935302390999  9.941907051282051 12  9.868990384615383 12  C 9.723157051282051 12  9.59695512820513 11.946554149085795  9.490384615384617 11.839662447257384  C 9.383814102564104 11.732770745428972  9.330528846153847 11.606188466947959  9.330528846153847 11.459915611814345  C 9.330528846153847 11.257383966244724  9.439903846153847 11.091420534458509  9.658653846153847 10.962025316455698  C 9.697916666666668 10.939521800281295  9.76101762820513 10.909985935302391  9.84795673076923 10.873417721518987  C 9.934895833333334 10.836849507735584  9.997996794871796 10.807313642756682  10.037259615384617 10.784810126582279  C 10.295272435897438 10.644163150492265  10.525240384615383 10.500703234880449  10.727163461538462 10.354430379746836  C 11.417067307692308 9.842475386779183  11.955528846153847 9.20393811533052  12.342548076923077 8.438818565400844  C 12.729567307692308 7.673699015471167  12.923076923076923 6.860759493670886  12.923076923076923 6  C 12.923076923076923 5.139240506329114  12.729567307692308 4.326300984528833  12.342548076923077 3.561181434599156  C 11.955528846153847 2.7960618846694794  11.417067307692308 2.157524613220815  10.727163461538462 1.6455696202531644  C 10.525240384615383 1.4992967651195492  10.295272435897438 1.3558368495077344  10.037259615384617 1.2151898734177213  C 9.997996794871796 1.1926863572433182  9.934895833333334 1.1631504922644154  9.84795673076923 1.1265822784810129  C 9.76101762820513 1.0900140646976078  9.697916666666668 1.060478199718705  9.658653846153847 1.0379746835443044  C 9.439903846153847 0.9085794655414889  9.330528846153847 0.7426160337552736  9.330528846153847 0.5400843881856545  C 9.330528846153847 0.393811533052038  9.383814102564104 0.26722925457102553  9.490384615384617 0.16033755274261585  C 9.59695512820513 0.05344585091420484  9.723157051282051 0  9.868990384615383 0  C 9.941907051282051 0  10.014823717948719 0.014064697609000643  10.087740384615383 0.04219409282700459  C 11.271233974358974 0.5541490857946538  12.219150641025642 1.3516174402250338  12.931490384615383 2.4345991561181433  Z " fill-rule="nonzero" fill="#8400ff" stroke="none" transform="matrix(1 0 0 1 27 244 )" />
  </g>
</svg>