<?xml version="1.0" encoding="utf-8"?>
<svg version="1.1" xmlns:xlink="http://www.w3.org/1999/xlink" width="10px" height="12px" xmlns="http://www.w3.org/2000/svg">
  <g transform="matrix(1 0 0 1 -786 -1156 )">
    <path d="M 3.8461538461538463 0  L 6.153846153846154 0  C 6.5793269230769225 0  6.923076923076923 0.335859375  6.923076923076923 0.75  C 6.923076923076923 1.164140625  6.5793269230769225 1.5  6.153846153846154 1.5  L 5.769230769230768 1.5  L 5.769230769230768 2.307421875  C 6.670673076923077 2.4421875  7.492788461538461 2.8125  8.165865384615383 3.3515625  L 8.6875 2.8453125000000004  C 8.987980769230768 2.5523437500000004  9.473557692307693 2.5523437500000004  9.774038461538462 2.8453125000000004  C 10.074519230769232 3.1382812500000004  10.074519230769232 3.6117187499999996  9.774038461538462 3.9046874999999996  L 9.194711538461538 4.471875000000001  C 9.704326923076923 5.233593750000001  10 6.145312499999999  10 7.125  C 10 9.817968749999999  7.76201923076923 12  5 12  C 2.237980769230769 12  0 9.817968749999999  0 7.125  C 0 4.6875  1.8346153846153845 2.6671875  4.230769230769231 2.307421875  L 4.230769230769231 1.5  L 3.8461538461538463 1.5  C 3.420673076923077 1.5  3.076923076923077 1.164140625  3.076923076923077 0.75  C 3.076923076923077 0.335859375  3.420673076923077 0  3.8461538461538463 0  Z M 5.576923076923077 7.5  L 5.576923076923077 4.5  C 5.576923076923077 4.188281249999999  5.319711538461539 3.9375  5 3.9375  C 4.680288461538461 3.9375  4.423076923076923 4.188281249999999  4.423076923076923 4.5  L 4.423076923076923 7.5  C 4.423076923076923 7.811718750000001  4.680288461538461 8.0625  5 8.0625  C 5.319711538461539 8.0625  5.576923076923077 7.811718750000001  5.576923076923077 7.5  Z " fill-rule="nonzero" fill="#0f5abd" stroke="none" transform="matrix(1 0 0 1 786 1156 )" />
  </g>
</svg>