<?xml version="1.0" encoding="utf-8"?>
<svg version="1.1" xmlns:xlink="http://www.w3.org/1999/xlink" width="12px" height="17px" xmlns="http://www.w3.org/2000/svg">
  <g transform="matrix(1 0 0 1 -65 -2981 )">
    <path d="M 12 4.626120857699805  C 12 4.0660818713450295  11.790625 3.525925925925926  11.415625 3.127602339181286  L 9.0834375 0.6541520467836256  C 8.70625 0.2565575048732944  8.196875 0.03313840155945419  7.668749999999999 0.03313840155945419  L 2 0.03313508771929825  C 0.8953125 0.03313508771929825  0 0.9825502923976608  0 2.1539927875243663  L 0.000203125 14.879138986354777  C 0.000203125 16.05025009746589  0.895515625 16.999996686159847  2.000203125 16.999996686159847  L 10 16.999996686159847  C 11.1 16.999996686159847  12 16.045610721247563  12 14.879138986354777  L 12 4.626120857699805  Z M 10.471875 14.879142300194932  L 10.5 14.879142300194932  C 10.5 15.17195321637427  10.276125 15.4093567251462  10 15.4093567251462  L 2.000625 15.4093567251462  C 1.7244374999999998 15.4093567251462  1.5006249999999999 15.17195321637427  1.5006249999999999 14.879142300194932  L 1.5 2.1583040935672515  C 1.5 1.8654931773879142  1.723875 1.6280896686159843  2 1.6280896686159843  L 7 1.6280896686159843  L 7 4.2748538011695905  C 7 4.860409356725147  7.447812500000001 5.3352826510721245  8 5.3352826510721245  L 10.471875 5.3352826510721245  L 10.471875 14.879142300194932  Z M 3.75 8.516569200779728  C 3.3375000000000004 8.516569200779728  3 8.874463937621831  3 9.311890838206628  C 3 9.75263157894737  3.3375000000000004 10.107212475633528  3.75 10.107212475633528  L 8.25 10.107212475633528  C 8.665625 10.107212475633528  9 9.75263157894737  9 9.311890838206628  C 9 8.871150097465886  8.665625 8.516569200779728  8.25 8.516569200779728  L 3.75 8.516569200779728  Z M 9 12.49317738791423  C 9 12.054093567251462  8.665625 11.69785575048733  8.25 11.69785575048733  L 3.75 11.69785575048733  C 3.3375000000000004 11.69785575048733  3 12.055750487329433  3 12.49317738791423  C 3 12.930604288499024  3.3359375 13.288499025341132  3.75 13.288499025341132  L 8.25 13.288499025341132  C 8.6640625 13.288499025341132  9 12.932261208576998  9 12.49317738791423  Z " fill-rule="nonzero" fill="#ffffff" stroke="none" transform="matrix(1 0 0 1 65 2981 )" />
  </g>
</svg>