<?xml version="1.0" encoding="utf-8"?>
<svg version="1.1" xmlns:xlink="http://www.w3.org/1999/xlink" width="12px" height="12px" xmlns="http://www.w3.org/2000/svg">
  <g transform="matrix(1 0 0 1 -735 -1231 )">
    <path d="M 9.09375 10.897499999999999  C 9.185096153846153 10.802499999999998  9.230769230769232 10.69  9.230769230769232 10.56  C 9.230769230769232 10.430000000000001  9.185096153846153 10.3175  9.09375 10.2225  C 9.002403846153847 10.1275  8.89423076923077 10.08  8.769230769230768 10.08  C 8.64423076923077 10.08  8.536057692307693 10.1275  8.444711538461538 10.2225  C 8.353365384615387 10.3175  8.307692307692307 10.430000000000001  8.307692307692307 10.56  C 8.307692307692307 10.69  8.353365384615387 10.802499999999998  8.444711538461538 10.897499999999999  C 8.536057692307693 10.992500000000001  8.64423076923077 11.040000000000001  8.769230769230768 11.040000000000001  C 8.89423076923077 11.040000000000001  9.002403846153847 10.992500000000001  9.09375 10.897499999999999  Z M 10.939903846153847 10.897499999999999  C 11.03125 10.802499999999998  11.076923076923077 10.69  11.076923076923077 10.56  C 11.076923076923077 10.430000000000001  11.03125 10.3175  10.939903846153847 10.2225  C 10.848557692307693 10.1275  10.740384615384617 10.08  10.615384615384615 10.08  C 10.490384615384615 10.08  10.38221153846154 10.1275  10.290865384615385 10.2225  C 10.199519230769232 10.3175  10.153846153846153 10.430000000000001  10.153846153846153 10.56  C 10.153846153846153 10.69  10.199519230769232 10.802499999999998  10.290865384615385 10.897499999999999  C 10.38221153846154 10.992500000000001  10.490384615384615 11.040000000000001  10.615384615384615 11.040000000000001  C 10.740384615384617 11.040000000000001  10.848557692307693 10.992500000000001  10.939903846153847 10.897499999999999  Z M 11.798076923076923 8.370000000000001  C 11.932692307692308 8.509999999999998  12 8.68  12 8.879999999999999  L 12 11.28  C 12 11.48  11.932692307692308 11.65  11.798076923076923 11.790000000000001  C 11.66346153846154 11.930000000000001  11.500000000000002 12  11.307692307692307 12  L 0.6923076923076923 12  C 0.5 12  0.33653846153846156 11.930000000000001  0.20192307692307693 11.790000000000001  C 0.06730769230769229 11.65  0 11.48  0 11.28  L 0 8.879999999999999  C 0 8.68  0.06730769230769229 8.509999999999998  0.20192307692307693 8.370000000000001  C 0.33653846153846156 8.23  0.5 8.16  0.6923076923076923 8.16  L 3.771634615384616 8.16  C 3.8725961538461537 8.440000000000001  4.0420673076923075 8.669999999999998  4.280048076923077 8.850000000000001  C 4.518028846153847 9.03  4.783653846153847 9.120000000000001  5.076923076923077 9.120000000000001  L 6.9230769230769225 9.120000000000001  C 7.216346153846154 9.120000000000001  7.481971153846153 9.03  7.7199519230769225 8.850000000000001  C 7.9579326923076925 8.669999999999998  8.127403846153847 8.440000000000001  8.228365384615385 8.16  L 11.307692307692307 8.16  C 11.500000000000002 8.16  11.66346153846154 8.23  11.798076923076923 8.370000000000001  Z M 9.555288461538462 3.5025  C 9.704326923076923 3.6524999999999994  9.73798076923077 3.8249999999999997  9.65625 4.02  C 9.574519230769232 4.219999999999999  9.432692307692307 4.32  9.230769230769232 4.32  L 7.384615384615385 4.32  L 7.384615384615385 7.68  C 7.384615384615385 7.809999999999999  7.338942307692308 7.922499999999999  7.247596153846153 8.017500000000002  C 7.156250000000001 8.1125  7.048076923076923 8.16  6.9230769230769225 8.16  L 5.076923076923077 8.16  C 4.9519230769230775 8.16  4.84375 8.1125  4.752403846153847 8.017500000000002  C 4.6610576923076925 7.922499999999999  4.615384615384616 7.809999999999999  4.615384615384616 7.68  L 4.615384615384616 4.32  L 2.769230769230769 4.32  C 2.567307692307692 4.32  2.4254807692307696 4.219999999999999  2.34375 4.02  C 2.262019230769231 3.8249999999999997  2.295673076923077 3.6524999999999994  2.4447115384615383 3.5025  L 5.675480769230769 0.14249999999999963  C 5.762019230769231 0.04749999999999943  5.8701923076923075 0  6 0  C 6.1298076923076925 0  6.237980769230768 0.04749999999999943  6.324519230769232 0.14249999999999963  L 9.555288461538462 3.5025  Z " fill-rule="nonzero" fill="#ffffff" stroke="none" transform="matrix(1 0 0 1 735 1231 )" />
  </g>
</svg>