<?xml version="1.0" encoding="utf-8"?>
<svg version="1.1" xmlns:xlink="http://www.w3.org/1999/xlink" width="20px" height="20px" xmlns="http://www.w3.org/2000/svg">
  <g transform="matrix(1 0 0 1 -699 -1012 )">
    <path d="M 15.15625 18.162499999999998  C 15.308493589743591 18.004166666666666  15.384615384615385 17.816666666666666  15.384615384615385 17.6  C 15.384615384615385 17.383333333333336  15.308493589743591 17.195833333333333  15.15625 17.037499999999998  C 15.004006410256412 16.879166666666666  14.823717948717952 16.8  14.615384615384615 16.8  C 14.407051282051281 16.8  14.226762820512821 16.879166666666666  14.074519230769232 17.037499999999998  C 13.922275641025642 17.195833333333333  13.846153846153847 17.383333333333336  13.846153846153847 17.6  C 13.846153846153847 17.816666666666666  13.922275641025642 18.004166666666666  14.074519230769232 18.162499999999998  C 14.226762820512821 18.320833333333336  14.407051282051281 18.400000000000002  14.615384615384615 18.400000000000002  C 14.823717948717952 18.400000000000002  15.004006410256412 18.320833333333336  15.15625 18.162499999999998  Z M 18.233173076923077 18.162499999999998  C 18.385416666666664 18.004166666666666  18.461538461538463 17.816666666666666  18.461538461538463 17.6  C 18.461538461538463 17.383333333333336  18.385416666666664 17.195833333333333  18.233173076923077 17.037499999999998  C 18.08092948717949 16.879166666666666  17.900641025641026 16.8  17.692307692307693 16.8  C 17.483974358974358 16.8  17.303685897435898 16.879166666666666  17.151442307692307 17.037499999999998  C 16.99919871794872 17.195833333333333  16.923076923076923 17.383333333333336  16.923076923076923 17.6  C 16.923076923076923 17.816666666666666  16.99919871794872 18.004166666666666  17.151442307692307 18.162499999999998  C 17.303685897435898 18.320833333333336  17.483974358974358 18.400000000000002  17.692307692307693 18.400000000000002  C 17.900641025641026 18.400000000000002  18.08092948717949 18.320833333333336  18.233173076923077 18.162499999999998  Z M 19.663461538461537 13.95  C 19.887820512820515 14.18333333333333  20 14.466666666666665  20 14.8  L 20 18.799999999999997  C 20 19.133333333333333  19.887820512820515 19.416666666666668  19.663461538461537 19.650000000000002  C 19.439102564102566 19.883333333333336  19.16666666666667 20  18.846153846153847 20  L 1.153846153846154 20  C 0.8333333333333335 20  0.560897435897436 19.883333333333336  0.3365384615384615 19.650000000000002  C 0.11217948717948717 19.416666666666668  0 19.133333333333333  0 18.799999999999997  L 0 14.8  C 0 14.466666666666665  0.11217948717948717 14.18333333333333  0.3365384615384615 13.95  C 0.560897435897436 13.716666666666669  0.8333333333333335 13.599999999999998  1.153846153846154 13.599999999999998  L 6.2860576923076925 13.599999999999998  C 6.454326923076923 14.066666666666666  6.736778846153846 14.45  7.133413461538462 14.75  C 7.530048076923077 15.049999999999999  7.972756410256411 15.2  8.461538461538462 15.2  L 11.538461538461537 15.2  C 12.027243589743591 15.2  12.469951923076923 15.049999999999999  12.866586538461537 14.75  C 13.263221153846153 14.45  13.545673076923077 14.066666666666666  13.713942307692308 13.599999999999998  L 18.846153846153847 13.599999999999998  C 19.16666666666667 13.599999999999998  19.439102564102566 13.716666666666669  19.663461538461537 13.95  Z M 15.925480769230768 5.8375  C 16.173878205128208 6.087499999999999  16.229967948717952 6.375  16.09375 6.699999999999999  C 15.957532051282053 7.033333333333331  15.721153846153847 7.199999999999999  15.384615384615385 7.199999999999999  L 12.307692307692308 7.199999999999999  L 12.307692307692308 12.8  C 12.307692307692308 13.016666666666666  12.231570512820513 13.204166666666666  12.079326923076923 13.3625  C 11.927083333333336 13.520833333333332  11.746794871794872 13.599999999999998  11.538461538461537 13.599999999999998  L 8.461538461538462 13.599999999999998  C 8.25320512820513 13.599999999999998  8.072916666666668 13.520833333333332  7.920673076923077 13.3625  C 7.768429487179488 13.204166666666666  7.6923076923076925 13.016666666666666  7.6923076923076925 12.8  L 7.6923076923076925 7.199999999999999  L 4.615384615384616 7.199999999999999  C 4.278846153846153 7.199999999999999  4.042467948717949 7.033333333333331  3.90625 6.699999999999999  C 3.770032051282052 6.375  3.826121794871795 6.087499999999999  4.074519230769231 5.8375  L 9.459134615384615 0.23749999999999938  C 9.603365384615385 0.07916666666666572  9.783653846153847 0  10 0  C 10.216346153846153 0  10.396634615384615 0.07916666666666572  10.540865384615385 0.23749999999999938  L 15.925480769230768 5.8375  Z " fill-rule="nonzero" fill="#ff5400" stroke="none" transform="matrix(1 0 0 1 699 1012 )" />
  </g>
</svg>