<?xml version="1.0" encoding="utf-8"?>
<svg version="1.1" xmlns:xlink="http://www.w3.org/1999/xlink" width="15px" height="15px" xmlns="http://www.w3.org/2000/svg">
  <g transform="matrix(1 0 0 1 -35 -560 )">
    <path d="M 3.7353515625 1.0058593749999996  C 4.884440104166667 0.33528645833333204  6.139322916666667 0  7.5 0  C 8.860677083333334 0  10.115559895833336 0.33528645833333204  11.2646484375 1.0058593749999996  C 12.413736979166666 1.6764322916666652  13.323567708333336 2.586263020833333  13.994140625 3.7353515625  C 14.664713541666664 4.884440104166665  15 6.139322916666664  15 7.5  C 15 8.860677083333334  14.664713541666664 10.115559895833332  13.994140625 11.2646484375  C 13.323567708333336 12.413736979166666  12.413736979166666 13.323567708333334  11.2646484375 13.994140625  C 10.115559895833336 14.664713541666668  8.860677083333334 15  7.5 15  C 6.139322916666667 15  4.884440104166667 14.664713541666668  3.7353515625 13.994140625  C 2.5862630208333335 13.323567708333334  1.676432291666667 12.413736979166666  1.005859375 11.2646484375  C 0.33528645833333326 10.115559895833332  0 8.860677083333334  0 7.5  C 0 6.139322916666664  0.33528645833333326 4.884440104166665  1.005859375 3.7353515625  C 1.676432291666667 2.586263020833333  2.5862630208333335 1.6764322916666652  3.7353515625 1.0058593749999996  Z M 5.9375 11.162109375  L 11.25 8.037109375000002  C 11.458333333333334 7.919921875000001  11.5625 7.740885416666665  11.5625 7.5  C 11.5625 7.259114583333333  11.458333333333334 7.080078125000001  11.25 6.962890625000001  L 5.9375 3.837890625  C 5.735677083333334 3.714192708333333  5.52734375 3.7109375000000004  5.3125 3.8281250000000004  C 5.104166666666668 3.9518229166666656  5 4.134114583333332  5 4.374999999999999  L 5 10.624999999999998  C 5 10.865885416666664  5.104166666666668 11.048177083333332  5.3125 11.171875000000002  C 5.416666666666668 11.223958333333332  5.520833333333334 11.25  5.625 11.25  C 5.735677083333334 11.25  5.83984375 11.220703125  5.9375 11.162109375  Z " fill-rule="nonzero" fill="#d40000" stroke="none" transform="matrix(1 0 0 1 35 560 )" />
  </g>
</svg>