<?xml version="1.0" encoding="utf-8"?>
<svg version="1.1" xmlns:xlink="http://www.w3.org/1999/xlink" width="33px" height="31px" xmlns="http://www.w3.org/2000/svg">
  <g transform="matrix(1 0 0 1 -22 -222 )">
    <path d="M 18.677338530066816 26.05378605769231  C 18.79370824053452 25.935797275641026  18.85189309576837 25.789863782051277  18.85189309576837 25.615985576923077  L 18.85189309576837 22.076322115384617  C 18.85189309576837 21.90244391025641  18.79370824053452 21.756510416666664  18.677338530066816 21.638521634615383  C 18.56096881959911 21.520532852564102  18.42316258351893 21.46153846153846  18.26391982182628 21.46153846153846  L 14.736080178173719 21.46153846153846  C 14.57683741648107 21.46153846153846  14.439031180400892 21.520532852564102  14.322661469933186 21.638521634615383  C 14.206291759465477 21.756510416666664  14.148106904231625 21.90244391025641  14.148106904231625 22.076322115384617  L 14.148106904231625 25.615985576923077  C 14.148106904231625 25.789863782051277  14.206291759465477 25.935797275641026  14.322661469933186 26.05378605769231  C 14.439031180400892 26.171774839743588  14.57683741648107 26.23076923076923  14.736080178173719 26.23076923076923  L 18.26391982182628 26.23076923076923  C 18.42316258351893 26.23076923076923  18.56096881959911 26.171774839743588  18.677338530066816 26.05378605769231  Z M 18.622216035634743 18.955829326923077  C 18.73858574610245 18.87510016025641  18.802895322939868 18.77263621794872  18.815144766146993 18.6484375  L 19.14587973273942 10.09735576923077  C 19.14587973273942 9.948317307692308  19.08463251670379 9.830328525641022  18.962138084632517 9.743389423076922  C 18.80289532293987 9.60677083333333  18.655902004454347 9.538461538461538  18.521158129175948 9.538461538461538  L 14.478841870824052 9.538461538461538  C 14.34409799554566 9.538461538461538  14.197104677060135 9.60677083333333  14.037861915367483 9.743389423076922  C 13.915367483296215 9.830328525641022  13.854120267260578 9.960737179487175  13.854120267260578 10.134615384615383  L 14.166481069042316 18.6484375  C 14.166481069042316 18.77263621794872  14.227728285077951 18.87510016025641  14.35022271714922 18.955829326923077  C 14.472717149220491 19.03655849358974  14.619710467706014 19.076923076923077  14.79120267260579 19.076923076923077  L 18.190423162583517 19.076923076923077  C 18.3619153674833 19.076923076923077  18.505846325167038 19.03655849358974  18.622216035634743 18.955829326923077  Z M 17.69432071269488 0.335336538461539  C 18.061804008908688 0.5588942307692305  18.34966592427617 0.8631810897435875  18.557906458797326 1.248197115384617  L 32.66926503340757 27.478966346153847  C 33.09799554565702 28.26141826923077  33.08574610244989 29.04387019230769  32.63251670378619 29.826322115384617  C 32.424276169265035 30.186498397435898  32.13947661469933 30.472155448717952  31.778118040089087 30.68329326923077  C 31.416759465478847 30.894431089743588  31.027839643652566 31  30.611358574610243 31  L 2.388641425389755 31  C 1.9721603563474388 31  1.5832405345211584 30.894431089743588  1.2218819599109132 30.68329326923077  C 0.8605233853006682 30.472155448717952  0.5757238307349666 30.186498397435898  0.3674832962138085 29.826322115384617  C -0.08574610244988866 29.04387019230769  -0.09799554565701561 28.26141826923077  0.3307349665924276 27.478966346153847  L 14.442093541202672 1.248197115384617  C 14.650334075723833 0.8631810897435875  14.938195991091316 0.5588942307692305  15.305679287305122 0.335336538461539  C 15.673162583518932 0.11177884615384748  16.07126948775056 0  16.5 0  C 16.928730512249444 0  17.32683741648107 0.11177884615384748  17.69432071269488 0.335336538461539  Z " fill-rule="nonzero" fill="#d9001b" stroke="none" transform="matrix(1 0 0 1 22 222 )" />
  </g>
</svg>