<?xml version="1.0" encoding="utf-8"?>
<svg version="1.1" xmlns:xlink="http://www.w3.org/1999/xlink" width="7px" height="12px" xmlns="http://www.w3.org/2000/svg">
  <g transform="matrix(1 0 0 1 -300 -3251 )">
    <path d="M 0.7259259259259252 0.10666666666666298  C 0.8814814814814812 -0.026666666666670363  1.114814814814814 -0.026666666666670363  1.2703703703703701 0.10666666666666677  L 6.637037037037036 5.573333333333333  C 6.792592592592592 5.733333333333333  6.792592592592592 6  6.637037037037036 6.16  L 1.270370370370369 11.626666666666665  C 1.1148148148148131 11.786666666666665  0.8555555555555538 11.786666666666665  0.6999999999999988 11.626666666666665  L 0.1296296296296287 11.039999999999997  C -0.025925925925926754 10.879999999999997  -0.025925925925926754 10.613333333333332  0.1296296296296287 10.45333333333333  L 4.355555555555555 6.159999999999997  C 4.511111111111111 5.9999999999999964  4.511111111111111 5.73333333333333  4.355555555555555 5.57333333333333  L 0.155555555555555 1.2799999999999965  C 0 1.1199999999999966  0 0.8533333333333298  0.155555555555555 0.6933333333333297  L 0.7259259259259252 0.10666666666666298  Z " fill-rule="nonzero" fill="#1a4480" stroke="none" transform="matrix(1 0 0 1 300 3251 )" />
  </g>
</svg>