<?xml version="1.0" encoding="utf-8"?>
<svg version="1.1" xmlns:xlink="http://www.w3.org/1999/xlink" width="13px" height="11px" xmlns="http://www.w3.org/2000/svg">
  <g transform="matrix(1 0 0 1 -118 -599 )">
    <path d="M 7.472828507795097 9.344575246579696  C 7.756570155902006 9.577064678878228  7.762360801781741 9.96454706604245  7.484409799554567 10.20203627107858  L 6.8416481069042305 10.757011044952495  C 6.5694877505567915 10.99200036361983  6.129398663697104 10.99200036361983  5.860133630289532 10.757011044952495  L 0.23162583518930915 5.899731830371344  C -0.040534521158130304 5.66474251170401  -0.040534521158130304 5.284759783646195  0.23162583518930915 5.052270351347663  L 5.860133630289532 0.19249125039770978  C 6.132293986636971 -0.04249806826962415  6.57238307349666 -0.04249806826962415  6.8416481069042305 0.19249125039770978  L 7.484409799554567 0.747466024271626  C 7.759465478841873 0.9849552293077556  7.7536748329621386 1.3724376164719774  7.472828507795097 1.604927048770509  L 3.9839643652561243 4.474796600154534  L 12.30512249443207 4.474796600154534  C 12.6902004454343 4.474796600154534  13 4.74228444161629  13 5.074769328666877  L 13 5.874732966683329  C 13 6.2072178537339155  12.6902004454343 6.474705695195671  12.30512249443207 6.474705695195671  L 3.9839643652561243 6.474705695195671  L 7.472828507795097 9.344575246579696  Z " fill-rule="nonzero" fill="#555555" stroke="none" transform="matrix(1 0 0 1 118 599 )" />
  </g>
</svg>