<?xml version="1.0" encoding="utf-8"?>
<svg version="1.1" xmlns:xlink="http://www.w3.org/1999/xlink" width="11px" height="11px" xmlns="http://www.w3.org/2000/svg">
  <g transform="matrix(1 0 0 1 -256 -3252 )">
    <path d="M 4.676837416481069 1.6123287671232878  C 4.4367483296213805 1.3787671232876715  4.431848552338531 0.9894977168949773  4.667037861915368 0.7509132420091326  L 5.210913140311804 0.19337899543379  C 5.44120267260579 -0.042694063926940536  5.81358574610245 -0.042694063926940536  6.041425389755012 0.19337899543379  L 10.804008908685969 5.073059360730594  C 11.034298440979956 5.309132420091324  11.034298440979956 5.6908675799086765  10.804008908685969 5.9244292237442915  L 6.041425389755012 10.80662100456621  C 5.811135857461024 11.04269406392694  5.4387527839643655 11.04269406392694  5.210913140311804 10.80662100456621  L 4.667037861915368 10.249086757990868  C 4.434298440979956 10.010502283105023  4.439198218262806 9.62123287671233  4.676837416481069 9.387671232876713  L 7.628953229398664 6.504566210045662  L 0.5879732739420935 6.504566210045662  C 0.2621380846325167 6.504566210045662  0 6.235844748858447  0 5.901826484018265  L 0 5.098173515981735  C 0 4.764155251141552  0.2621380846325167 4.495433789954338  0.5879732739420935 4.495433789954338  L 7.628953229398664 4.495433789954338  L 4.676837416481069 1.6123287671232878  Z " fill-rule="nonzero" fill="#1a4480" stroke="none" transform="matrix(1 0 0 1 256 3252 )" />
  </g>
</svg>