<?xml version="1.0" encoding="utf-8"?>
<svg version="1.1" xmlns:xlink="http://www.w3.org/1999/xlink" width="13px" height="11px" xmlns="http://www.w3.org/2000/svg">
  <g transform="matrix(1 0 0 1 -176 -1451 )">
    <path d="M 12.728683035714285 4.867142857142857  C 13.089955357142859 5.225714285714286  13.089955357142859 5.802857142857144  12.727232142857144 6.16  L 8.084375000000001 10.731428571428573  C 7.904464285714285 10.911428571428571  7.666517857142857 11  7.428571428571428 11  C 7.190625 11  6.953258928571429 10.910714285714286  6.772187499999999 10.732142857142858  C 6.409464285714286 10.375  6.409464285714286 9.79642857142857  6.772187499999999 9.439285714285715  L 9.831249999999999 6.428571428571428  L 0.9285714285714285 6.428571428571428  C 0.4158258928571429 6.428571428571428  4.6428571428571436E-05 6.02  4.6428571428571436E-05 5.514285714285713  C 4.6428571428571436E-05 5.008571428571429  0.4158258928571429 4.6  0.9285714285714285 4.6  L 9.831249999999999 4.6  L 6.772767857142857 1.5885714285714285  C 6.410044642857143 1.2314285714285713  6.410044642857143 0.6528571428571427  6.772767857142857 0.2957142857142856  C 7.135491071428571 -0.06142857142857159  7.723102678571427 -0.06142857142857159  8.085825892857143 0.2957142857142856  L 12.728683035714285 4.867142857142857  Z " fill-rule="nonzero" fill="#ffffff" stroke="none" transform="matrix(1 0 0 1 176 1451 )" />
  </g>
</svg>