<?xml version="1.0" encoding="utf-8"?>
<svg version="1.1" xmlns:xlink="http://www.w3.org/1999/xlink" width="10px" height="11px" xmlns="http://www.w3.org/2000/svg">
  <g transform="matrix(1 0 0 1 -17 -214 )">
    <path d="M 9.748641304347826 4.864569961489089  C 9.916213768115941 5.02931108258451  10 5.241121095421479  10 5.5  C 10 5.754172015404365  9.916213768115941 5.968335472828412  9.748641304347826 6.142490372272144  L 5.326086956521739 10.738767650834403  C 5.149456521739131 10.912922550278134  4.943387681159421 11  4.707880434782608 11  C 4.476902173913043 11  4.273097826086957 10.912922550278134  4.096467391304348 10.738767650834403  L 3.5869565217391304 10.209242618741976  C 3.4148550724637685 10.030380830124091  3.328804347826087 9.816217372700041  3.328804347826087 9.566752246469832  C 3.328804347826087 9.317287120239625  3.4148550724637685 9.103123662815575  3.5869565217391304 8.92426187419769  L 5.577445652173914 6.855584082156612  L 0.7948369565217392 6.855584082156612  C 0.5593297101449276 6.855584082156612  0.3679800724637682 6.767329910141207  0.22078804347826086 6.590821566110398  C 0.07359601449275362 6.414313222079588  0 6.201326486949079  0 5.951861360718871  L 0 5.048138639281129  C 0 4.798673513050919  0.07359601449275362 4.585686777920412  0.22078804347826086 4.409178433889602  C 0.3679800724637682 4.232670089858793  0.5593297101449276 4.144415917843389  0.7948369565217392 4.144415917843389  L 5.577445652173914 4.144415917843389  L 3.5869565217391304 2.0686777920410786  C 3.4148550724637685 1.8992297817715018  3.328804347826087 1.687419768934532  3.328804347826087 1.4332477535301669  C 3.328804347826087 1.1790757381258028  3.4148550724637685 0.9672657252888319  3.5869565217391304 0.7978177150192551  L 4.096467391304348 0.2682926829268295  C 4.268568840579711 0.08943089430894235  4.472373188405797 0  4.707880434782608 0  C 4.947916666666667 0  5.153985507246377 0.08943089430894235  5.326086956521739 0.2682926829268295  L 9.748641304347826 4.864569961489089  Z " fill-rule="nonzero" fill="#7f7f7f" stroke="none" transform="matrix(1 0 0 1 17 214 )" />
  </g>
</svg>