<?xml version="1.0" encoding="utf-8"?>
<svg version="1.1" xmlns:xlink="http://www.w3.org/1999/xlink" width="11px" height="10px" xmlns="http://www.w3.org/2000/svg">
  <g transform="matrix(1 0 0 1 -183 -666 )">
    <path d="M 4.676837416481071 1.4590245897913716  C 4.436748329621379 1.2476705604290703  4.431848552338531 0.8954138448252323  4.667037861915366 0.67951456751966  L 5.2109131403118045 0.17499204581609978  C 5.441202672605792 -0.03863460751784013  5.813585746102451 -0.03863460751784013  6.041425389755012 0.17499204581609978  L 10.804008908685972 4.590700422708055  C 11.034298440979953 4.804327076041996  11.034298440979953 5.1497659197309185  10.804008908685972 5.36111994909322  L 6.041425389755012 9.779100949956813  C 5.811135857461024 9.992727603290755  5.4387527839643655 9.992727603290755  5.2109131403118045 9.779100949956813  L 4.667037861915366 9.274578428253253  C 4.434298440979957 9.058679150947683  4.439198218262805 8.706422435343843  4.676837416481071 8.495068405981542  L 7.628953229398661 5.886096086541519  L 0.5879732739420925 5.886096086541519  C 0.26213808463251753 5.886096086541519  0 5.6429253215762865  0 5.34066633334848  L 0 4.613426662424433  C 0 4.311167674196627  0.26213808463251753 4.067996909231394  0.5879732739420925 4.067996909231394  L 7.628953229398661 4.067996909231394  L 4.676837416481071 1.4590245897913716  Z " fill-rule="nonzero" fill="#0f5abd" stroke="none" transform="matrix(1 0 0 1 183 666 )" />
  </g>
</svg>