<?xml version="1.0" encoding="UTF-8"?>
<svg id="Isolation_Mode" data-name="Isolation Mode" xmlns="http://www.w3.org/2000/svg" viewBox="0 0 247.09 224.65">
  <defs>
    <style>
      .cls-1 {
        fill: #f1cf25;
      }

      .cls-2 {
        fill: #fff;
      }

      .cls-3 {
        fill: #080717;
      }
    </style>
  </defs>
  <g>
    <path class="cls-3" d="m56.4,132.64l-19.17-24.61c-1.31-1.68-.44-4.16,1.64-4.66,4.27-1.01,8.75.48,11.55,3.85l23.01,27.66-17.03-2.24Z"/>
    <path class="cls-3" d="m38.89,126.94l-22.75-21.35c-1.56-1.46-1.08-4.04.9-4.85,4.06-1.66,8.71-.88,12.01,2.02l27.01,23.77-17.17.42Z"/>
  </g>
  <path class="cls-3" d="m92.12,221.55l29.2-46.48c6.95-11.06,20.15-16.15,32.49-12.51l65.03,19.18c8.6,2.54,15.58,8.99,18.93,17.49l9.33,23.69-154.96-1.36Z"/>
  <g>
    <path class="cls-1" d="m125.57,45.33c-7.5,35.28-36.38,62.84-72.56,68.24-10.43,1.56-20.82,1.24-30.98-.92,14.1,12.28,32.91,17.87,51.64,15.08,16.96-2.53,31.93-11.51,42.14-25.3,10.21-13.79,14.44-30.72,11.91-47.68-.48-3.19-1.19-6.34-2.14-9.42Z"/>
    <path class="cls-1" d="m59.07,81.78c-20.33,3.03-40.51-.36-58.6-9.8.07.59.15,1.15.23,1.71,1.86,12.5,7.29,24.04,15.69,33.39,11.73,3.5,23.85,4.35,36.04,2.53,34.48-5.14,62.02-31.39,69.22-65-15.16,20.04-37.57,33.44-62.57,37.17Z"/>
    <path class="cls-1" d="m10.74,28.68C3.18,40.05-.58,53.61.07,67.23c17.9,9.97,38.08,13.63,58.4,10.6,25.19-3.76,47.63-17.75,62.15-38.62-10.3,5.85-21.44,9.69-33.19,11.44-27.64,4.12-55.46-3.88-76.69-21.97Z"/>
    <path class="cls-1" d="m47.14,2.31c-13.54,3.72-25.54,11.86-34.08,23.1,20.39,17.5,47.17,25.25,73.78,21.29,10.93-1.63,21.32-5.15,30.95-10.48-27.32-.72-52.76-12.88-70.65-33.9Z"/>
    <path class="cls-1" d="m54.73.71c-1.07.16-2.13.35-3.2.56,17.51,19.7,42.1,30.84,68.35,30.98C106.78,9.39,81.02-3.21,54.73.71Z"/>
  </g>
  <g>
    <g>
      <path class="cls-2" d="m209.35,130l-35.25-9.27-12.1,45.67-8.06-2.32c-1.47,3.21-2.29,6.74-2.29,10.45,0,14.78,12.95,26.77,28.93,26.77,13.99,0,25.66-9.19,28.35-21.4l-11.35-3.26,11.78-46.63Z"/>
      <path class="cls-3" d="m180.58,202.3c-16.5,0-29.93-12.46-29.93-27.77,0-3.77.8-7.42,2.38-10.86.21-.45.71-.68,1.19-.54l7.08,2.04,11.84-44.69c.14-.53.68-.85,1.22-.71l35.25,9.28c.53.14.85.68.72,1.21l-11.54,45.69,10.42,3c.51.15.81.66.7,1.18-2.83,12.85-15.16,22.18-29.32,22.18Zm-26.08-37.01c-1.23,2.95-1.85,6.05-1.85,9.24,0,14.21,12.53,25.77,27.93,25.77,12.89,0,24.15-8.23,27.15-19.7l-10.43-3c-.52-.15-.83-.68-.69-1.21l11.53-45.67-33.33-8.77-11.85,44.71c-.07.26-.24.48-.47.61-.23.13-.51.17-.77.09l-7.22-2.08Z"/>
    </g>
    <path class="cls-3" d="m178.22,144.85l13.26,4.24c15.25,4.87,31.71-3.62,36.58-18.86l1.68-5.26c6.1-19.09-4.53-39.71-23.62-45.81l-3.13,4.79c-11.97-3.82-24.89,2.84-28.71,14.81l-7.59,23.74c-2.98,9.32,2.21,19.37,11.53,22.35Z"/>
    <circle class="cls-3" cx="209.02" cy="91.89" r="13.77" transform="translate(62.61 267.1) rotate(-73.85)"/>
    <path class="cls-3" d="m208.71,84.46c13.61,6.34,20.86,21.72,16.73,36.44-3.88,1.1-8.17,1.11-12.37-.23-10.91-3.49-17.06-14.73-13.75-25.1,1.58-4.94,5.03-8.8,9.38-11.1Z"/>
    <path class="cls-3" d="m224.37,106.5c3.6,14.58-3.84,29.87-17.9,35.88-3.29-2.33-5.98-5.67-7.57-9.78-4.12-10.68.77-22.53,10.94-26.45,4.84-1.87,10-1.6,14.53.34Z"/>
    <circle class="cls-3" cx="199.88" cy="91.63" r="13.77" transform="translate(56.27 258.13) rotate(-73.85)"/>
    <path class="cls-3" d="m171.27,83.2c-2.38,7.45,1.73,15.42,9.18,17.8,7.45,2.38,15.42-1.73,17.8-9.18,2.38-7.45-1.73-15.42-9.18-17.8-7.45-2.38-15.42,1.73-17.8,9.18Z"/>
    <path class="cls-3" d="m186.91,82.29c-2.38,7.45,1.73,15.42,9.18,17.8,7.45,2.38,15.42-1.73,17.8-9.18,2.38-7.45-1.73-15.42-9.18-17.8-7.45-2.38-15.42,1.73-17.8,9.18Z"/>
    <path class="cls-3" d="m233.4,107.81c-.2,0-.41-.06-.59-.19h0s-3.76-2.66-7.16-.92c-.49.25-1.09.06-1.35-.44-.25-.49-.06-1.09.44-1.35,4.51-2.3,9.06.94,9.25,1.08.45.33.54.95.22,1.4-.2.27-.5.41-.81.41Z"/>
    <path class="cls-3" d="m226.71,106.38c-.61,0-1.24-.07-1.9-.25-.53-.14-.85-.69-.71-1.22.14-.53.69-.85,1.22-.71,3.7.97,6.77-2.4,6.8-2.43.37-.41,1-.45,1.41-.08.41.37.45,1,.08,1.41-.14.15-2.97,3.29-6.9,3.29Z"/>
    <g>
      <path class="cls-2" d="m164.31,98.25c11.96-16.28,32.81-21.28,46.55-11.18,11.62,8.54,14.45,25.15,7.82,39.91.33.1.66.21.99.35,4.95,2.09,7.63,7.74,6.11,12.9-1.7,5.8-7.83,9.02-13.56,7.2-2.52-.81-4.52-2.47-5.81-4.55-11.96,9.6-27.74,11.33-38.87,3.14-13.75-10.1-15.19-31.49-3.23-47.77Z"/>
      <path class="cls-3" d="m183.94,152.27c-6.13,0-12.03-1.8-17-5.45-6.89-5.06-11.03-12.99-11.66-22.31-.63-9.26,2.29-18.8,8.22-26.86h0c12.27-16.7,33.78-21.81,47.95-11.39,11.53,8.47,14.98,24.85,8.57,40.13.01,0,.02,0,.03.01,5.4,2.29,8.34,8.48,6.68,14.1-.9,3.06-2.94,5.56-5.76,7.05-2.81,1.49-6.03,1.78-9.06.81-2.28-.73-4.28-2.15-5.73-4.06-6.91,5.27-14.75,7.95-22.25,7.95Zm-18.83-53.43h0c-5.65,7.68-8.43,16.75-7.84,25.54.59,8.72,4.44,16.12,10.85,20.83,10.54,7.75,25.67,6.5,37.65-3.12.22-.18.51-.25.79-.21.28.05.53.21.68.46,1.22,1.97,3.1,3.43,5.27,4.13,2.51.8,5.18.56,7.52-.67,2.33-1.24,4.03-3.32,4.77-5.85,1.37-4.66-1.06-9.8-5.54-11.69-.3-.12-.59-.22-.89-.31-.27-.09-.5-.28-.61-.54-.12-.26-.12-.56,0-.82,6.6-14.69,3.51-30.6-7.5-38.7-13.28-9.76-33.54-4.84-45.15,10.97Z"/>
    </g>
    <path class="cls-3" d="m193,106.36c-1.08.95-2.44,1.16-3.05.47-.6-.69-.22-2.01.86-2.96,1.08-.95,2.44-1.16,3.05-.47.6.69.22,2.01-.86,2.96Z"/>
    <path class="cls-3" d="m178.98,96.53c-1.08.95-2.44,1.16-3.05.47s-.22-2.01.86-2.96c1.08-.95,2.44-1.16,3.05-.47s.22,2.01-.86,2.96Z"/>
    <path class="cls-3" d="m199.7,107.59c-.51,0-.94-.39-.99-.9-.33-3.3-3.76-5.08-3.8-5.1-.49-.25-.69-.85-.44-1.34.25-.49.85-.69,1.34-.45.18.09,4.46,2.28,4.89,6.69.05.55-.35,1.04-.9,1.09-.03,0-.07,0-.1,0Z"/>
    <path class="cls-3" d="m171.93,115.51c-.2,0-.4-.06-.57-.18l-3.33-2.33c-.25-.18-.41-.46-.43-.76-.02-.3.11-.6.33-.8l17.76-15.79c-1.01-1.79-4.28-6.5-9.7-4.22-.51.22-1.1-.02-1.31-.53-.21-.51.02-1.1.53-1.31,6.63-2.8,11.16,2.62,12.63,5.88.18.4.08.87-.25,1.16l-17.4,15.47,2.29,1.6c.45.32.56.94.25,1.39-.19.28-.5.43-.82.43Z"/>
    <path class="cls-3" d="m217.36,112.55l-12.52,17.14c-.39.54-.51,1.23-.31,1.87h0c.39,1.24,1.81,1.84,2.97,1.24l11.26-5.81-1.4-14.44Z"/>
    <path class="cls-3" d="m211.6,136.66c-.17,0-.34-.04-.5-.13-.48-.28-.64-.88-.37-1.36.1-.17,2.46-4.21,6.78-4.39.56-.03,1.02.41,1.04.96.02.55-.41,1.02-.96,1.04-3.2.13-5.11,3.35-5.13,3.39-.19.32-.52.5-.87.5Z"/>
    <path class="cls-3" d="m228.94,100.63c2.95,7.53,3.45,16.07.81,24.34l-1.26,3.95c-1.49.02-3.01-.18-4.52-.66-7.45-2.38-11.56-10.35-9.18-17.8,1.99-6.24,7.9-10.11,14.14-9.82Z"/>
    <path class="cls-3" d="m181.67,129.64c-2.13,0-4.28-.92-6.4-2.74-.42-.36-.47-.99-.11-1.41.36-.42.99-.47,1.41-.11,1.98,1.7,3.92,2.44,5.76,2.22,2.7-.33,4.4-2.68,4.41-2.7.32-.45.94-.56,1.39-.24.45.32.56.94.24,1.39-.09.13-2.19,3.08-5.78,3.53-.31.04-.62.06-.93.06Z"/>
  </g>
  <g>
    <path class="cls-2" d="m79.23,223.65l2.76-79.03-33.44-6.95c-4.02-.84-7.8-2.57-11.06-5.07L4.62,107.4c-1.68-1.29-1.5-3.9.37-4.9,3.88-2.08,8.61-1.77,12.19.79l29.56,21.2,38.51-.94c-5.95-3.44-13.07-7.86-17.35-10.55-1.77-1.11-2.04-4.23-.51-5.78,3.33-3.38,7.62-4.74,11.81-3.76l28.14,15.93c3.89,2.2,6.33,6.28,6.44,10.75l10.7,93.51h-45.25Z"/>
    <path class="cls-3" d="m124.48,224.65c-.5,0-.93-.38-.99-.89l-10.7-93.51c-.11-4.18-2.38-7.97-5.94-9.99l-28.01-15.86c-3.79-.83-7.7.44-10.73,3.52-.53.54-.79,1.44-.68,2.36.1.83.48,1.53,1.02,1.87,3.85,2.42,11.23,7.01,17.32,10.53.39.22.58.68.47,1.11-.11.43-.5.74-.94.75l-38.51.94c-.22,0-.43-.06-.61-.19l-29.56-21.2c-3.3-2.36-7.56-2.64-11.14-.72-.57.31-.93.86-.98,1.52-.05.67.23,1.3.75,1.71l32.87,25.21c3.12,2.39,6.81,4.08,10.66,4.88l33.44,6.95c.48.1.81.53.8,1.01l-2.76,79.03c-.02.55-.47,1.03-1.03.96-.55-.02-.98-.48-.96-1.03l2.73-78.19-32.62-6.78c-4.14-.86-8.11-2.68-11.47-5.25L4.01,108.19c-1.07-.82-1.64-2.11-1.53-3.45.11-1.33.87-2.49,2.03-3.12,4.25-2.28,9.33-1.95,13.25.86l29.29,21,34.66-.85c-5.37-3.18-11.1-6.75-14.34-8.79-1.06-.67-1.77-1.88-1.94-3.33-.18-1.53.29-3.02,1.25-3.99,3.57-3.62,8.22-5.09,12.75-4.04.09.02.18.06.27.1l28.14,15.93c4.17,2.36,6.83,6.8,6.95,11.59l10.7,93.42c.06.55-.33,1.04-.88,1.11-.04,0-.08,0-.12,0Z"/>
  </g>
</svg>