<?xml version="1.0" encoding="UTF-8"?>
<svg id="Layer_2" data-name="Layer 2" xmlns="http://www.w3.org/2000/svg" viewBox="0 0 291.76 241.41">
  <defs>
    <style>
      .cls-1 {
        fill: #f1cf25;
      }

      .cls-2 {
        fill: #fff;
      }

      .cls-3 {
        fill: #080717;
      }

      .cls-4 {
        fill: #85bac6;
      }
    </style>
  </defs>
  <g>
    <rect class="cls-2" x="162.16" y="68.45" width="35.03" height="57.86" transform="translate(31.53 -43.4) rotate(15.08)"/>
    <path class="cls-3" d="m189.06,130.88c-.09,0-.17-.01-.26-.03l-33.83-9.12c-.26-.07-.47-.24-.61-.47-.13-.23-.17-.5-.1-.76l15.06-55.87c.14-.53.69-.85,1.23-.71l33.83,9.12c.26.07.47.24.61.47.13.23.17.5.1.76l-15.06,55.87c-.12.45-.52.74-.96.74Zm-32.6-10.82l31.9,8.6,14.54-53.94-31.9-8.6-14.54,53.94Z"/>
  </g>
  <g>
    <path class="cls-4" d="m232.91,231.08l19.73,7.42c26.75,10.06,49.66-21.62,31.74-43.88l-48.44-60.15c-5.36-6.65-12.17-11.99-19.9-15.62l-12.54-5.87-6.73-9.47-10.86,10.2-19.95-27.27-65.18,142.33,132.14,2.3Z"/>
    <path class="cls-3" d="m262.9,241.41c-3.5,0-7.08-.64-10.61-1.97l-19.57-7.36-131.97-2.29c-.34,0-.65-.18-.83-.47-.18-.29-.2-.64-.06-.95l65.18-142.33c.15-.32.45-.54.81-.58.36-.03.7.12.91.4l19.29,26.36,10.04-9.42c.21-.2.49-.29.78-.27.29.03.55.18.72.42l6.58,9.25,12.3,5.76c7.83,3.67,14.84,9.16,20.26,15.89l48.44,60.15c8.46,10.5,8.81,24.34.91,35.27-5.69,7.87-14.17,12.14-23.18,12.14Zm-160.58-13.6l130.61,2.27c.11,0,.23.02.33.06l19.73,7.42c11.75,4.42,24.1.7,31.46-9.47,7.36-10.17,7.02-23.06-.85-32.84l-48.44-60.15c-5.23-6.5-11.99-11.8-19.55-15.34l-12.54-5.87c-.16-.07-.29-.19-.39-.33l-6.07-8.53-10.03,9.41c-.21.2-.49.29-.78.27-.29-.03-.55-.17-.71-.41l-18.95-25.89-63.83,139.39Z"/>
  </g>
  <path class="cls-3" d="m174.38,230.01s-.07,0-.1,0c-.55-.06-.95-.55-.9-1.09l11.58-115.53c.06-.55.55-.94,1.09-.9.55.06.95.55.9,1.09l-11.58,115.53c-.05.52-.49.9-.99.9Z"/>
  <g>
    <path class="cls-2" d="m62.2,223.24c-7.8-24.72-25.38-77.91-25.38-77.91l3.1-6.88c.15-88.14-27.54-22.93-27.54-22.93,0,0-5.9,45.65-7.17,67.97l56.99,39.75Z"/>
    <path class="cls-3" d="m62.2,224.24c-.42,0-.82-.27-.95-.7-7.71-24.43-25.2-77.37-25.38-77.9-.08-.24-.06-.5.04-.72l3.01-6.68c.05-37.57-5.1-44.24-8.18-44.87-5.25-1.07-13.42,13.13-17.39,22.43-.36,2.78-5.93,46.33-7.15,67.76-.03.55-.51.97-1.06.94-.55-.03-.97-.5-.94-1.05,1.26-22.1,7.12-67.58,7.18-68.04.01-.09.04-.18.07-.26,1.11-2.61,11.09-25.51,19.68-23.73,2.44.5,9.85,2.01,9.78,47.05,0,.14-.03.28-.09.41l-2.94,6.52c1.58,4.78,17.89,54.19,25.26,77.56.17.53-.13,1.09-.65,1.25-.1.03-.2.05-.3.05Z"/>
  </g>
  <g>
    <path class="cls-4" d="m50.23,234.83h-25.07c-13.41,0-24.01-11.37-23.07-24.75l2.92-41.48h31.26l13.97,66.23Z"/>
    <path class="cls-3" d="m50.23,235.83h-25.07c-6.77,0-13.04-2.73-17.65-7.68-4.61-4.95-6.89-11.39-6.42-18.14l2.92-41.48c.04-.52.47-.93,1-.93h31.26c.47,0,.88.33.98.79l13.97,66.23c.06.29-.01.6-.2.84-.19.23-.48.37-.78.37ZM5.94,169.6l-2.85,40.55c-.44,6.19,1.66,12.1,5.89,16.64,4.23,4.54,9.98,7.04,16.19,7.04h23.84l-13.54-64.23H5.94Z"/>
  </g>
  <g>
    <path class="cls-3" d="m209.27,5.31c-4.52-1.65-9.33-.78-12.89,1.89l-4.43-1.61c-5.52-2.01-11.61.83-13.62,6.35l-8.98,24.67,7.03,2.56,3.65-10.03c1.41-3.88,5.71-5.88,9.58-4.47l4.1,1.49-6.49-2.36,4.3,1.56c7.12,2.59,14.99-1.07,17.58-8.2l3.83-10.52-3.64-1.33Z"/>
    <g>
      <path class="cls-2" d="m176.51,49.62c-1.23,3.38-4.97,5.11-8.36,3.87l-.51-.18c-3.37-1.23-5.12-4.95-3.89-8.33l2.7-7.42c1.22-3.36,4.97-5.1,8.33-3.88l.51.18c2.51.91,4.11,3.2,4.29,5.68l-3.08,10.08Z"/>
      <path class="cls-3" d="m170.41,54.89c-.87,0-1.75-.15-2.59-.46l-.51-.18c-1.88-.68-3.38-2.06-4.23-3.87-.85-1.82-.94-3.85-.25-5.74l2.7-7.42c.68-1.88,2.06-3.38,3.88-4.22,1.82-.85,3.85-.93,5.73-.25l.51.18c2.79,1.02,4.73,3.59,4.94,6.55.04.55-.38,1.03-.93,1.07-.55.04-1.03-.38-1.07-.93-.15-2.18-1.58-4.06-3.63-4.81l-.51-.18c-1.38-.5-2.87-.44-4.21.18-1.33.62-2.34,1.72-2.85,3.09l-2.7,7.42c-.5,1.38-.44,2.88.19,4.21.62,1.33,1.72,2.34,3.1,2.84l.51.18c1.39.51,2.89.45,4.22-.17,1.33-.62,2.35-1.72,2.85-3.1.19-.52.76-.79,1.28-.6.52.19.79.76.6,1.28-.69,1.89-2.07,3.39-3.89,4.23-1,.46-2.08.7-3.15.7Z"/>
    </g>
    <path class="cls-3" d="m200.23,13.11l3.57-9.79,4.05,1.47,10.67,3.89,6.44,2.35c7.12,2.59,10.79,10.46,8.2,17.56l-3.57,9.81-4.06-1.48-10.66-3.88-6.44-2.35c-7.11-2.59-10.77-10.46-8.18-17.57Z"/>
    <g>
      <path class="cls-2" d="m213.73,54.77c1.23-3.38,4.95-5.11,8.33-3.88l.51.19c3.37,1.23,5.13,4.96,3.9,8.33l-2.7,7.42c-1.23,3.37-4.98,5.1-8.35,3.88l-.51-.19c-2.49-.91-4.1-3.18-4.28-5.67l3.1-10.09Z"/>
      <path class="cls-3" d="m217.65,72.1c-.87,0-1.73-.15-2.57-.46l-.51-.19c-2.79-1.02-4.73-3.58-4.93-6.54-.04-.55.38-1.03.93-1.07.55-.03,1.03.38,1.07.93.15,2.17,1.57,4.05,3.62,4.8l.51.19c1.38.5,2.88.44,4.21-.18,1.34-.62,2.35-1.72,2.85-3.09l2.7-7.42c.5-1.38.43-2.87-.19-4.21-.62-1.33-1.73-2.34-3.11-2.85l-.51-.19c-2.85-1.04-6.01.44-7.05,3.28-.19.52-.76.79-1.28.6-.52-.19-.79-.76-.6-1.28,1.41-3.88,5.72-5.89,9.61-4.48l.51.19c1.88.68,3.39,2.06,4.24,3.88.85,1.82.95,3.86.26,5.74l-2.7,7.42c-.68,1.88-2.06,3.38-3.89,4.23-1.01.47-2.09.71-3.17.71Z"/>
    </g>
    <g>
      <path class="cls-2" d="m214.52,74.08c-1.88,5.1-8.96,12.37-16.44,12.74-10.15.44-20.59-3.36-28.08-10.23-5.51-5.1-6.22-15.2-4.4-20.33,5.3-14.56,10.6-29.09,15.89-43.63,1.85-5.17,8.58-7.63,14.96-5.44,8.66,3.15,17.33,6.31,26.01,9.47,6.3,2.43,9.88,8.64,7.95,13.78-5.29,14.54-10.59,29.07-15.89,43.63Z"/>
      <path class="cls-3" d="m196.52,87.85c-9.88,0-19.94-3.87-27.19-10.52-5.95-5.5-6.53-16.15-4.67-21.4l15.89-43.64c2.04-5.69,9.32-8.41,16.22-6.04l26.02,9.48c6.85,2.64,10.67,9.4,8.54,15.07l-15.89,43.62s0,0,0,0c-1.92,5.22-9.19,12.99-17.33,13.39-.53.02-1.07.03-1.61.03Zm-4.84-80.46c-4.26,0-8,2.09-9.25,5.59l-15.89,43.63c-1.72,4.84-.98,14.51,4.14,19.25,7.27,6.66,17.49,10.37,27.35,9.96,7-.35,13.77-7.27,15.54-12.08l15.89-43.63c1.75-4.66-1.56-10.27-7.37-12.51l-25.99-9.47c-1.48-.51-2.98-.75-4.42-.75Zm22.83,66.69h0,0Z"/>
    </g>
    <path class="cls-3" d="m216.55,7.96c4.53,1.65,7.65,5.4,8.68,9.75l4.42,1.61c5.5,2,8.35,8.1,6.34,13.62l-8.98,24.67-7.02-2.56,3.65-10.03c1.41-3.88-.59-8.17-4.47-9.58l-.08-.03,2.48.9-11.38-4.14c-7.13-2.6-10.77-10.45-8.18-17.58l3.83-10.52,10.7,3.9Z"/>
    <path class="cls-3" d="m201.37,16.39c.45-.76.84-1.57,1.15-2.44l3.57-9.79-4.05-1.48-5.05-1.84c-7.14-2.6-15,1.07-17.59,8.17l-3.57,9.81,2.69.98,1.36.5,5.07,1.85c.9.33,1.84.56,2.74.69,2.85-4.67,8.25-7.21,13.68-6.43Z"/>
    <path class="cls-3" d="m186.75,74.88c-.19,0-.38-.01-.57-.04-4.43-.59-6.95-7.93-7.22-8.76-.12-.36-.02-.76.26-1.03.28-.27.68-.35,1.04-.22l11.82,4.3c.29.1.51.33.61.62.1.29.05.61-.11.86-1.85,2.83-3.81,4.26-5.82,4.26Zm-5.08-7.41c1.03,2.26,2.78,5.12,4.78,5.39,1.15.15,2.41-.62,3.71-2.29l-8.49-3.09Z"/>
    <path class="cls-3" d="m213.06,39.32c-.25,0-.5-.09-.69-.28-2.23-2.14-5.28-3.37-8.37-3.37-.55,0-1-.45-1-1,0-.55.45-1,1-1h0c3.6,0,7.15,1.44,9.75,3.93.4.38.41,1.01.03,1.41-.2.2-.46.31-.72.31Z"/>
    <path class="cls-3" d="m189.6,30.85c-.23,0-.46-.08-.65-.24-2.44-2.09-5.01-2.66-7.86-1.73-.53.17-1.09-.12-1.26-.65s.12-1.09.64-1.26c3.52-1.13,6.81-.42,9.78,2.12.42.36.47.99.11,1.41-.2.23-.48.35-.76.35Z"/>
    <path class="cls-3" d="m201.83,48.89c-.44,1.21-.09,2.45.78,2.77s1.94-.41,2.38-1.62c.44-1.21.09-2.45-.78-2.77s-1.94.41-2.38,1.62Z"/>
    <path class="cls-3" d="m181.86,41.62c-.44,1.21-.09,2.45.78,2.77.87.32,1.94-.41,2.38-1.62.44-1.21.09-2.45-.78-2.77-.87-.32-1.94.41-2.38,1.62Z"/>
    <path class="cls-1" d="m182.36,51.06c-1.36,0-2.72-.28-4.01-.85-5.02-2.21-7.31-8.09-5.09-13.12s8.09-7.31,13.11-5.09c5.02,2.21,7.31,8.09,5.09,13.12-1.07,2.43-3.02,4.3-5.5,5.26-1.17.45-2.39.68-3.6.68Zm.01-17.9c-3.06,0-5.98,1.77-7.29,4.74-1.77,4.01.06,8.71,4.07,10.48,1.94.86,4.1.9,6.08.13,1.98-.77,3.54-2.26,4.4-4.21,1.77-4.01-.06-8.71-4.07-10.48-1.04-.46-2.12-.67-3.19-.67Z"/>
    <path class="cls-3" d="m188.97,61.81c-.14,0-.28-.03-.42-.09-3.32-1.53-4.89-5.26-4.95-5.42-.14-.34-.08-.74.16-1.02l9.14-10.96c.35-.43.98-.48,1.41-.13.42.35.48.98.13,1.41l-8.73,10.46c.5.95,1.74,2.94,3.68,3.83.5.23.72.82.49,1.33-.17.37-.53.58-.91.58Z"/>
    <path class="cls-1" d="m204.37,58.4c-1.04,0-2.1-.16-3.14-.51-5.2-1.74-8.02-7.38-6.29-12.59,1.74-5.2,7.38-8.03,12.59-6.29,5.2,1.74,8.02,7.38,6.29,12.58h0c-1.39,4.16-5.28,6.8-9.45,6.8Zm.02-17.9c-3.33,0-6.44,2.11-7.55,5.43-1.39,4.16.87,8.67,5.02,10.06,4.16,1.38,8.67-.87,10.06-5.03h0c1.39-4.16-.87-8.67-5.02-10.06-.83-.28-1.68-.41-2.51-.41Z"/>
    <path class="cls-1" d="m195.4,46.54c-.12,0-.25-.02-.37-.07l-3.94-1.55c-.51-.2-.77-.78-.56-1.3.2-.51.78-.76,1.3-.56l3.93,1.55c.51.2.77.78.56,1.3-.15.39-.53.63-.93.63Z"/>
  </g>
  <path class="cls-3" d="m175.93,129.36s-.03,0-.05,0c-.35-.02-.66-.21-.83-.52l-20.68-37.83c-.24-.43-.12-.97.27-1.27l8.55-6.53c.21-.16.48-.23.74-.2.26.04.5.18.66.39l22.16,29.49c.26.34.27.81.03,1.16l-10.02,14.88c-.19.28-.5.44-.83.44Zm-19.39-38.55l19.48,35.63,8.71-12.92-21.13-28.11-7.06,5.4Z"/>
  <path class="cls-3" d="m193.44,131.58s-.04,0-.05,0c-.38-.02-.71-.25-.86-.6l-7.49-17.09c-.17-.39-.08-.85.24-1.14l10.81-9.95c.21-.19.5-.29.78-.26.29.03.54.18.71.41l6.73,9.47c.23.32.25.74.05,1.08l-10.06,17.58c-.18.31-.51.5-.87.5Zm-6.29-17.84l6.41,14.62,8.75-15.3-5.71-8.02-9.45,8.7Z"/>
  <g>
    <g>
      <path class="cls-2" d="m39.89,234.83c-6.87,0-12.45-5.59-12.45-12.45V51.97c0-6.87,5.59-12.45,12.45-12.45h80.31l48.74,48.74v134.12c0,6.87-5.59,12.45-12.45,12.45H39.89Z"/>
      <path class="cls-3" d="m119.79,40.51l48.16,48.16v133.71c0,6.32-5.14,11.45-11.45,11.45H39.89c-6.32,0-11.45-5.14-11.45-11.45V51.97c0-6.32,5.14-11.45,11.45-11.45h79.89Zm.83-2H39.89c-7.43,0-13.45,6.02-13.45,13.45v170.41c0,7.43,6.02,13.45,13.45,13.45h116.6c7.43,0,13.45-6.02,13.45-13.45V87.84l-49.33-49.33h0Z"/>
    </g>
    <path class="cls-1" d="m120.61,38.51v35.88c0,7.43,6.02,13.45,13.45,13.45h35.88l-49.33-49.33Z"/>
    <rect class="cls-1" x="75.77" y="146.14" width="67.27" height="8.97"/>
    <rect class="cls-1" x="75.77" y="164.08" width="67.27" height="8.97"/>
    <rect class="cls-1" x="75.77" y="182.02" width="67.27" height="8.97"/>
    <rect class="cls-1" x="53.35" y="146.14" width="8.97" height="8.97"/>
    <rect class="cls-1" x="53.35" y="164.08" width="8.97" height="8.97"/>
    <rect class="cls-1" x="53.35" y="182.02" width="8.97" height="8.97"/>
    <rect class="cls-1" x="53.35" y="119.23" width="67.27" height="8.97"/>
  </g>
  <g>
    <g>
      <path class="cls-2" d="m180.67,158.45l-13.32-24.74c-1.11-2.06-3.73-2.74-5.7-1.48h0c-3.07,1.96-4.57,5.65-3.75,9.2l2.25,9.72,20.52,7.3Z"/>
      <path class="cls-3" d="m180.67,159.45c-.11,0-.23-.02-.34-.06l-20.52-7.3c-.32-.11-.56-.38-.64-.72l-2.25-9.72c-.91-3.95.77-8.08,4.19-10.27,1.17-.75,2.61-.98,3.96-.63,1.35.35,2.49,1.25,3.15,2.48l13.32,24.74c.2.36.15.81-.12,1.12-.19.23-.47.35-.76.35Zm-19.67-9.06l17.55,6.25-12.09-22.45c-.4-.75-1.08-1.27-1.9-1.49-.82-.21-1.67-.08-2.38.38-2.71,1.73-4.04,5-3.31,8.13l2.12,9.19Z"/>
    </g>
    <g>
      <g>
        <path class="cls-2" d="m167.91,149.23l-32.71-8.99c-1.81-.5-3.63.75-3.83,2.61l-.19,1.82c-.37,3.46,1.39,6.8,4.44,8.47l8.26,4.5.41,1.05-11.27-1.57c-2.45-.34-4.74,1.37-5.05,3.83-.48,3.75,1.84,7.21,5.33,8.32-2.17-.01-4.06,1.56-4.37,3.76-.53,3.79,1.79,7.3,5.32,8.41-2.17-.01-4.06,1.56-4.37,3.76-.59,4.23,2.36,8.13,6.58,8.72l22.83,3.19,1.41,3.61c1.68,4.29,5.16,7.62,9.52,9.1l62.68,21.26s16.84-22.91,5.09-41.17c-.06-.1-.22-.07-.33-.11l-48.65-15.48-.54-2.85c-2.05-10.73-10.03-19.36-20.56-22.25Z"/>
        <path class="cls-3" d="m232.91,232.08c-.11,0-.22-.02-.32-.05l-62.68-21.26c-4.65-1.58-8.34-5.11-10.13-9.68l-1.2-3.06-22.25-3.11c-4.77-.67-8.1-5.09-7.44-9.85.23-1.67,1.23-3.08,2.62-3.89-2.59-1.84-4.03-5-3.57-8.29.23-1.67,1.24-3.08,2.62-3.89-2.55-1.82-4-4.93-3.59-8.18.18-1.44.92-2.73,2.09-3.61,1.18-.9,2.63-1.28,4.1-1.08l7.86,1.1-5.88-3.21c-3.42-1.87-5.37-5.58-4.96-9.45l.19-1.82c.12-1.18.76-2.24,1.74-2.91.98-.67,2.2-.87,3.35-.56l32.71,8.99c10.98,3.02,19.14,11.84,21.28,23.03l.43,2.26,48.08,15.3h0c.1,0,.57.06.87.52,4.98,7.73,5.66,17.51,1.97,28.29-2.76,8.06-6.92,13.77-7.09,14.01-.19.26-.49.41-.81.41Zm-98.68-49.64c-1.68,0-3.12,1.24-3.36,2.9-.51,3.67,2.06,7.08,5.73,7.59l22.83,3.19c.36.05.66.29.79.63l1.41,3.61c1.57,4.03,4.82,7.13,8.91,8.52l61.97,21.02c2.46-3.66,14.69-23.33,4.83-39.14l-48.64-15.48c-.35-.11-.61-.41-.68-.77l-.54-2.85c-2-10.43-9.6-18.66-19.84-21.48h0l-32.71-8.99c-.58-.16-1.19-.05-1.69.28-.5.34-.82.88-.88,1.47l-.19,1.82c-.32,3.07,1.22,6.01,3.93,7.49l8.26,4.5c.21.11.37.29.45.51l.41,1.05c.13.33.07.71-.15.98s-.57.42-.92.37l-11.27-1.57c-.93-.13-1.86.11-2.61.69-.73.56-1.2,1.37-1.32,2.28-.41,3.21,1.55,6.25,4.64,7.24.47.15.76.62.69,1.11-.08.49-.5.84-.99.84,0,0-.02,0-.02,0-1.68,0-3.12,1.24-3.36,2.9-.45,3.25,1.49,6.33,4.63,7.32.47.15.76.62.69,1.11-.08.49-.47.87-.99.84h-.02Zm103.47,8.39h.01-.01Z"/>
      </g>
      <path class="cls-3" d="m162.04,174.41s-.09,0-.14,0l-27.48-3.84c-.55-.08-.93-.58-.85-1.13.08-.55.58-.93,1.13-.85l27.48,3.84c.55.08.93.58.85,1.13-.07.5-.5.86-.99.86Z"/>
      <path class="cls-3" d="m162.14,162.19s-.09,0-.14,0l-29.2-4.08c-.55-.08-.93-.58-.85-1.13.08-.55.59-.93,1.13-.85l29.2,4.08c.55.08.93.58.85,1.13-.07.5-.5.86-.99.86Z"/>
      <path class="cls-3" d="m160.93,186.23s-.09,0-.14,0l-29.2-4.08c-.55-.08-.93-.58-.85-1.13.08-.55.59-.93,1.13-.85l29.2,4.08c.55.08.93.58.85,1.13-.07.5-.5.86-.99.86Z"/>
    </g>
  </g>
  <g>
    <path class="cls-2" d="m27.91,144.65c2.79-8.07,2.91-18.76-.28-29.7-1.32-4.5-3.09-8.65-5.18-12.35l9.52-5.43c10.59,1.33,16.43,2.07,19.99,0,5.65-3.27,5.14-6.66,5.18-6.87.07-.34,0-.68-.2-.97-.2-.28-.5-.47-.84-.52l-2.14-.34c5.58-3.88,4.57-8.71,4.52-8.93-.11-.48-.49-.86-.97-.96l-28.79-5.87c1.27-.95,4.38-3.74,4.88-4,2.73.41,13.7,3.63,20.4.54,2.78-1.28,4.31-2.82,4.56-4.57.28-1.95-1.14-3.24-1.3-3.38-.18-.16-.36-.24-.56-.28l-26.89-5.77c-.36-.08-.74,0-1.04.24-.02.02-.52.41-1.34,1.04l-1.45-7.33c1.67-1.46,6.53-5.89,8.9-9.99,3.13-5.43-.38-11.35-.64-11.69-.22-.3-.56-.48-.93-.5-.37-.02-.73.12-.98.38l-18.33,18.97c-.27.28-.4.68-.34,1.07l.58,18.1c.05.33.23.62.48.81.04.03.1.05.15.07-1.77,1.41-3.42,2.75-4.73,3.84-2.13,1.77-3.15,3.6-3.03,5.44.07,1.01.47,1.82.93,2.43-.02,0-.04.02-.07.03-4.63,1.87-6.11,4.43-4.97,8.58.47,1.72.23,2.14-.42,3.27-.45.78-1.02,1.76-1.47,3.36-1.19,4.16,8.4,49.05,8.49,49.3l18.33,2.02Z"/>
    <path class="cls-3" d="m27.91,145.65c-.11,0-.22-.02-.33-.05-.52-.18-.8-.75-.62-1.27,2.83-8.17,2.72-18.78-.3-29.1-1.26-4.3-2.97-8.38-5.09-12.14-.27-.48-.1-1.09.38-1.36l9.53-5.43c.19-.11.41-.15.62-.12l.14.02c10.3,1.29,15.97,2,19.23.12,3.02-1.75,4.68-3.84,4.68-5.89,0-.1,0-.2.02-.32.01-.06,0-.14-.04-.2-.04-.05-.1-.09-.17-.11l-2.14-.34c-.4-.06-.73-.37-.82-.77-.09-.4.07-.81.4-1.04,5.04-3.5,4.16-7.71,4.12-7.89-.02-.1-.1-.18-.21-.2l-28.78-5.87c-.39-.08-.69-.38-.78-.76-.09-.38.06-.78.38-1.02.57-.43,1.55-1.26,2.49-2.06,1.57-1.33,2.19-1.86,2.53-2.03.19-.1.4-.13.61-.1.46.07,1.16.22,2.03.4,4.06.87,12.51,2.67,17.8.22,2.45-1.13,3.79-2.41,3.99-3.81.21-1.45-.92-2.44-.97-2.49-.04-.04-.05-.05-.12-.06l-26.88-5.77c-.08-.02-.16,0-.22.05l-1.34,1.04c-.27.21-.64.27-.96.15-.32-.12-.56-.4-.63-.74l-1.45-7.33c-.07-.35.05-.71.32-.95,1.45-1.27,6.37-5.72,8.69-9.74,2.9-5.03-.55-10.55-.58-10.6-.04-.05-.11-.09-.18-.09-.08,0-.15.03-.2.08l-18.33,18.97c-.06.06-.08.14-.07.22,0,.04,0,.08.01.12l.58,18.02s.03.06.05.09c.03.01.06.03.08.04.28.17.47.46.49.79.02.33-.12.65-.37.85-1.76,1.41-3.41,2.74-4.72,3.83-1.87,1.55-2.77,3.1-2.67,4.6.04.67.28,1.29.74,1.9.18.25.24.57.16.87-.08.3-.3.54-.59.66-4.22,1.7-5.45,3.77-4.44,7.41.56,2.03.23,2.74-.52,4.03-.45.78-.96,1.65-1.38,3.14-1.04,3.65,8.04,46.92,8.5,48.77.19.52-.09,1.05-.61,1.24-.52.19-1.11-.12-1.29-.64-.13-.35-9.82-45.36-8.52-49.92.49-1.72,1.11-2.8,1.57-3.59.61-1.05.68-1.19.32-2.5-1.18-4.31.27-7.3,4.56-9.34-.28-.61-.45-1.25-.49-1.91-.14-2.17,1-4.28,3.39-6.27,1.11-.92,2.47-2.03,3.94-3.2-.09-.19-.15-.39-.18-.59,0-.04,0-.08-.01-.12l-.58-18.05c-.08-.67.15-1.35.62-1.84l18.34-18.97c.46-.47,1.09-.74,1.76-.69.67.04,1.28.37,1.67.9.75.99,3.92,7.22.71,12.79-2.24,3.88-6.53,7.96-8.67,9.86l1.02,5.18.06-.04c.53-.41,1.21-.57,1.86-.43l26.9,5.77c.41.09.74.26,1.03.53.18.16,1.96,1.79,1.61,4.26-.3,2.11-2.03,3.91-5.14,5.34-5.9,2.72-14.79.83-19.06-.08-.6-.13-1.12-.24-1.52-.31-.42.33-1.27,1.05-1.92,1.61-.31.26-.62.53-.92.78l26.72,5.45c.87.18,1.55.86,1.75,1.71.05.21.97,4.56-3.14,8.52.58.11,1.09.43,1.44.92.34.49.47,1.08.38,1.65-.02,2.83-2.03,5.52-5.68,7.63-3.81,2.21-9.68,1.49-20.29.16l-8.38,4.78c1.97,3.65,3.58,7.58,4.78,11.7,3.13,10.71,3.23,21.75.27,30.31-.14.41-.53.67-.95.67Z"/>
  </g>
  <path class="cls-3" d="m54.82,89.54c-.05,0-.11,0-.16-.01l-27.39-4.41-14.13,3.89c-.54.15-1.08-.17-1.23-.7-.15-.53.17-1.08.7-1.23l14.34-3.94c.14-.04.28-.05.42-.02l27.6,4.44c.55.09.92.6.83,1.15-.08.49-.5.84-.99.84Z"/>
  <path class="cls-3" d="m14.43,76.7c-.4,0-.77-.24-.93-.63-.21-.51.04-1.09.55-1.3,9.74-3.93,13.62-3.25,13.79-3.22l6.96,1.46c.54.11.89.64.77,1.18-.11.54-.65.89-1.18.77l-6.94-1.46s-3.59-.54-12.64,3.12c-.12.05-.25.07-.37.07Z"/>
  <path class="cls-3" d="m11.47,70.09c-.29,0-.57-.12-.77-.36-.35-.42-.3-1.05.13-1.41,4.69-3.89,13.58-10.82,17.18-13.62.44-.34,1.06-.26,1.4.18.34.44.26,1.06-.18,1.4-3.6,2.79-12.46,9.7-17.13,13.58-.19.16-.41.23-.64.23Z"/>
  <g>
    <path class="cls-2" d="m271.48,202.41s-5.76-7.09-33.48-12.49l33.48,12.49Z"/>
    <path class="cls-3" d="m271.48,203.41c-.29,0-.57-.12-.77-.36-.09-.1-6.15-6.94-32.9-12.15-.54-.11-.9-.63-.79-1.17.1-.54.63-.9,1.17-.79,27.75,5.4,33.82,12.54,34.06,12.84.35.43.28,1.06-.15,1.41-.19.15-.41.22-.63.22Z"/>
  </g>
</svg>