<?xml version="1.0" encoding="UTF-8"?>
<svg id="_Layer_" data-name="&amp;lt;Layer&amp;gt;" xmlns="http://www.w3.org/2000/svg" viewBox="0 0 308.87 226.94">
  <defs>
    <style>
      .cls-1, .cls-2, .cls-3, .cls-4, .cls-5, .cls-6 {
        stroke-width: 0px;
      }

      .cls-2 {
        fill: #85bac6;
      }

      .cls-3 {
        fill: #10101a;
      }

      .cls-4 {
        fill: #080717;
      }

      .cls-5 {
        fill: #fff;
      }

      .cls-6 {
        fill: #f1cf25;
      }
    </style>
  </defs>
  <g>
    <g>
      <path class="cls-5" d="m33.49,136.52c-2.48,0-4.5-2.02-4.5-4.5V5.5c0-2.48,2.02-4.5,4.5-4.5h151.28c2.48,0,4.5,2.02,4.5,4.5v126.52c0,2.48-2.02,4.5-4.5,4.5H33.49Z"/>
      <path class="cls-4" d="m184.77,2c1.93,0,3.5,1.57,3.5,3.5v126.52c0,1.93-1.57,3.5-3.5,3.5H33.49c-1.93,0-3.5-1.57-3.5-3.5V5.5c0-1.93,1.57-3.5,3.5-3.5h151.28Zm0-2H33.49c-3.04,0-5.5,2.46-5.5,5.5v126.52c0,3.04,2.47,5.5,5.5,5.5h151.28c3.03,0,5.5-2.46,5.5-5.5V5.5c0-3.04-2.46-5.5-5.5-5.5h0Z"/>
    </g>
    <path class="cls-3" d="m27.99,19.89V5.5c0-3.04,2.47-5.5,5.5-5.5h151.28c3.03,0,5.5,2.46,5.5,5.5v14.39H27.99Z"/>
    <g>
      <g>
        <rect class="cls-5" x="92.33" y="42.24" width="9" height="9"/>
        <path class="cls-4" d="m100.34,43.24v7h-7v-7h7Zm2-2h-11v11h11v-11h0Z"/>
      </g>
      <g>
        <rect class="cls-5" x="114.34" y="42.24" width="9" height="9"/>
        <path class="cls-4" d="m122.34,43.24v7h-7v-7h7Zm2-2h-11v11h11v-11h0Z"/>
      </g>
      <g>
        <rect class="cls-5" x="136.34" y="42.24" width="9" height="9"/>
        <path class="cls-4" d="m144.34,43.24v7h-7v-7h7Zm2-2h-11v11h11v-11h0Z"/>
      </g>
      <g>
        <rect class="cls-5" x="158.34" y="42.24" width="9" height="9"/>
        <path class="cls-4" d="m166.35,43.24v7h-7v-7h7Zm2-2h-11v11h11v-11h0Z"/>
      </g>
      <g>
        <rect class="cls-5" x="48.33" y="64.25" width="9" height="9"/>
        <path class="cls-4" d="m56.33,65.25v7h-7v-7h7Zm2-2h-11v11h11v-11h0Z"/>
      </g>
      <g>
        <rect class="cls-5" x="70.33" y="64.25" width="9" height="9"/>
        <path class="cls-4" d="m78.33,65.25v7h-7v-7h7Zm2-2h-11v11h11v-11h0Z"/>
      </g>
      <rect class="cls-6" x="91.33" y="63.25" width="11" height="11"/>
      <rect class="cls-6" x="113.34" y="63.25" width="11" height="11"/>
      <g>
        <rect class="cls-5" x="136.34" y="64.25" width="9" height="9"/>
        <path class="cls-4" d="m144.34,65.25v7h-7v-7h7Zm2-2h-11v11h11v-11h0Z"/>
      </g>
      <g>
        <rect class="cls-5" x="158.34" y="64.25" width="9" height="9"/>
        <path class="cls-4" d="m166.35,65.25v7h-7v-7h7Zm2-2h-11v11h11v-11h0Z"/>
      </g>
      <rect class="cls-6" x="47.33" y="85.25" width="11" height="11"/>
      <rect class="cls-6" x="69.33" y="85.25" width="11" height="11"/>
      <rect class="cls-6" x="91.33" y="85.25" width="11" height="11"/>
      <g>
        <rect class="cls-5" x="114.34" y="86.25" width="9" height="9"/>
        <path class="cls-4" d="m122.34,87.25v7h-7v-7h7Zm2-2h-11v11h11v-11h0Z"/>
      </g>
      <rect class="cls-6" x="135.34" y="85.25" width="11" height="11"/>
      <g>
        <rect class="cls-5" x="158.34" y="86.25" width="9" height="9"/>
        <path class="cls-4" d="m166.35,87.25v7h-7v-7h7Zm2-2h-11v11h11v-11h0Z"/>
      </g>
      <g>
        <rect class="cls-5" x="48.33" y="108.25" width="9" height="9"/>
        <path class="cls-4" d="m56.33,109.25v7h-7v-7h7Zm2-2h-11v11h11v-11h0Z"/>
      </g>
      <g>
        <rect class="cls-5" x="70.33" y="108.25" width="9" height="9"/>
        <path class="cls-4" d="m78.33,109.25v7h-7v-7h7Zm2-2h-11v11h11v-11h0Z"/>
      </g>
      <g>
        <rect class="cls-5" x="92.33" y="108.25" width="9" height="9"/>
        <path class="cls-4" d="m100.34,109.25v7h-7v-7h7Zm2-2h-11v11h11v-11h0Z"/>
      </g>
    </g>
    <rect class="cls-4" x="50.08" y="45.75" width="5.5" height="2"/>
    <rect class="cls-4" x="72.08" y="45.75" width="5.5" height="2"/>
    <rect class="cls-4" x="160.1" y="111.76" width="5.5" height="2"/>
    <rect class="cls-4" x="138.09" y="111.76" width="5.51" height="2"/>
    <rect class="cls-4" x="116.09" y="111.76" width="5.5" height="2"/>
    <rect class="cls-5" x="88.5" y="10" width="49.51" height="2"/>
    <rect class="cls-5" x="39" y="10" width="5.5" height="2"/>
    <rect class="cls-5" x="173.77" y="10" width="5.5" height="2"/>
  </g>
  <g>
    <path class="cls-5" d="m116.11,161.13h0s0,0,0,0c-4.16-14.3-20.29-24.82-20.29-24.82l-29.69.23h-23.26s-2.31-14-4.18-18.72c-1.86-4.73-9.39-4.56-9.39-4.56l2.16,14.51s-5.97-12.92-8.13-15.8c-2.15-2.88-9.17-2.56-9.17-2.56l3.55,9.12s-4.31-5.76-8.02-7.19c-3.71-1.42-8.69.36-8.69.36l26.24,36.9,60.88,17.99,3.06,9.8h0l2.98,30.12h44.01c-11.09-23.84-22.05-45.39-22.05-45.39Z"/>
    <path class="cls-4" d="m138.16,207.52h-44.01c-.51,0-.94-.39-1-.9l-2.97-30.02-2.87-9.2-60.37-17.84c-.21-.06-.4-.2-.53-.38L.19,112.28c-.18-.25-.23-.58-.14-.88.09-.3.32-.54.62-.64.22-.08,5.38-1.89,9.39-.35,1.61.62,3.29,1.95,4.73,3.32l-1.54-3.97c-.12-.3-.08-.64.09-.91.18-.27.47-.44.79-.45.78-.04,7.62-.25,10.02,2.96,1.2,1.61,3.49,6.1,5.35,9.92l-1.17-7.88c-.04-.28.04-.57.22-.79.19-.22.46-.35.74-.36.34,0,8.25-.12,10.34,5.2,1.63,4.15,3.55,14.97,4.09,18.1h22.41s29.69-.24,29.69-.24c.22-.03.39.06.55.16.67.44,16.42,10.85,20.67,25.29.75,1.47,11.4,22.48,22.03,45.34.14.31.12.67-.06.96-.18.29-.5.46-.84.46Zm-43.1-2h41.53c-10.73-22.99-21.27-43.72-21.37-43.94-.03-.06-.05-.11-.07-.17-3.73-12.82-17.61-22.71-19.63-24.1l-29.38.23h-23.26c-.49,0-.91-.35-.99-.83-.02-.14-2.32-13.95-4.12-18.53-1.19-3.01-5.27-3.72-7.29-3.88l1.98,13.31c.07.49-.23.96-.7,1.11-.48.14-.99-.09-1.19-.54-.06-.13-5.95-12.86-8.02-15.62-1.21-1.61-4.66-2.08-6.91-2.16l3.02,7.76c.18.47,0,.99-.45,1.24-.44.24-.99.13-1.29-.27-.04-.06-4.18-5.55-7.58-6.85-2.24-.86-5.08-.4-6.7,0l25.22,35.47,60.55,17.89c.32.09.57.34.67.66l3.06,9.8c.02.07.03.13.04.2l2.89,29.22Z"/>
  </g>
  <g>
    <path class="cls-1" d="m95.1,153.97c-.43,0-.83-.28-.96-.71-.18-.61-4.71-14.86-25.1-15.36-21.16-.53-26.41-.58-26.46-.58-.55,0-1-.46-.99-1.01,0-.55.45-.99,1-.99h0c.05,0,5.3.05,26.49.58,11.41.28,18.12,4.8,21.75,8.54,3.96,4.08,5.17,8.08,5.22,8.25.16.53-.15,1.09-.67,1.24-.09.03-.19.04-.28.04Z"/>
    <path class="cls-1" d="m35.24,151.12c-.49,0-.92-.37-.99-.87-.29-2.23-5.96-36.41-6.01-36.75-.09-.54.28-1.06.82-1.15.54-.1,1.06.28,1.15.82.23,1.41,5.73,34.56,6.02,36.82.07.55-.32,1.05-.86,1.12-.04,0-.09,0-.13,0Z"/>
    <path class="cls-1" d="m30.25,150.46c-.4,0-.77-.24-.93-.62l-16.2-39.79c-.21-.51.04-1.09.55-1.3.51-.21,1.09.04,1.3.55l16.2,39.79c.21.51-.04,1.09-.55,1.3-.12.05-.25.07-.38.07Z"/>
  </g>
  <path class="cls-2" d="m94.16,206.52v20.43h195.03l-12.91-39.6c-4.3-13.18-15.81-22.71-29.56-24.47l-67.12-8.59c-11.94-1.53-23.74,3.72-30.59,13.62l-18.78,27.12-36.08,11.5Z"/>
  <path class="cls-5" d="m142.21,221.29c-.37,0-.73-.21-.9-.57l-11.97-25.27c-.24-.5-.02-1.09.48-1.33.5-.24,1.1-.02,1.33.48l11.97,25.27c.24.5.02,1.09-.48,1.33-.14.07-.28.1-.43.1Z"/>
  <g>
    <circle class="cls-1" cx="246.66" cy="119.43" r="40.61" transform="translate(40.56 300.07) rotate(-67.07)"/>
    <circle class="cls-1" cx="218.86" cy="96.72" r="26.87" transform="translate(-20.4 93.74) rotate(-23.13)"/>
    <circle class="cls-1" cx="203.75" cy="83.98" r="16.08"/>
    <ellipse class="cls-1" cx="279.32" cy="103.33" rx="27.39" ry="26.55" transform="translate(82.09 326.48) rotate(-68.83)"/>
    <path class="cls-1" d="m286.3,134.22c-.48,0-.9-.34-.98-.82-.1-.54.26-1.06.81-1.16,8.22-1.47,15.42-7.8,18.8-16.53,4.99-12.87.05-26.83-11-31.11-.51-.2-.77-.78-.57-1.29.2-.52.78-.77,1.29-.57,12.08,4.68,17.53,19.79,12.14,33.69-3.63,9.37-11.42,16.19-20.32,17.78-.06.01-.12.02-.18.02Z"/>
    <circle class="cls-1" cx="219.48" cy="83.78" r="36.51" transform="translate(-15.2 94.46) rotate(-23.5)"/>
    <circle class="cls-1" cx="245.22" cy="81.2" r="36.51" transform="translate(-11.78 107.25) rotate(-24.11)"/>
    <path class="cls-1" d="m248.83,118.38c-4.58,0-9.16-.85-13.56-2.55-9.34-3.62-16.72-10.66-20.76-19.82-4.05-9.16-4.28-19.36-.67-28.7h0c3.62-9.34,10.66-16.72,19.82-20.76,9.16-4.05,19.36-4.28,28.7-.67,9.34,3.62,16.72,10.66,20.76,19.82,4.05,9.16,4.28,19.36.67,28.7-3.62,9.34-10.66,16.72-19.82,20.76-4.85,2.14-9.99,3.22-15.14,3.22Zm-33.12-50.35c-3.43,8.84-3.2,18.49.63,27.17,3.83,8.68,10.81,15.34,19.66,18.76,8.84,3.43,18.49,3.2,27.17-.63,8.68-3.83,15.34-10.81,18.77-19.66,3.43-8.84,3.2-18.49-.63-27.17-3.83-8.68-10.81-15.34-19.66-18.76-8.84-3.43-18.49-3.2-27.17.63-8.68,3.83-15.34,10.81-18.77,19.66h0Z"/>
    <path class="cls-1" d="m232.17,133.72c-.12,0-.24-.02-.36-.07-1.98-.77-3.72-2.05-5.02-3.71-.61-.78-1.13-1.64-1.53-2.54-.22-.51,0-1.1.51-1.32.5-.22,1.1,0,1.32.51.33.76.76,1.47,1.27,2.12,1.08,1.38,2.53,2.44,4.17,3.08.52.2.77.78.57,1.29-.15.4-.53.64-.93.64Z"/>
    <g>
      <path class="cls-5" d="m231.55,131.85c6.18,2.39,13.03-.5,15.05-6.45,1.87-5.5-1.29-11.8-7.04-14.06-3.23-1.27-6.63-1.07-9.45.24,4.03-12.62,1.02-25.48-8.37-31.48-11.8-7.54-29.2-1.39-38.86,13.73-9.66,15.12-7.93,33.49,3.87,41.03.62.4,1.26.73,1.91,1.05l1.26,20.73-8.36-1.07c-.26,1.18-.4,2.39-.4,3.62,0,12.76,14.59,23.11,32.59,23.11,15.78,0,28.94-7.95,31.94-18.52l-14.48-1.85-3.19-32.17c1.02.86,2.19,1.58,3.51,2.09Z"/>
      <path class="cls-1" d="m213.76,183.3c-18.52,0-33.59-10.82-33.59-24.11,0-1.27.14-2.56.42-3.83.11-.5.59-.84,1.1-.78l7.16.92-1.16-18.95c-.47-.24-.98-.52-1.48-.84-12.25-7.83-14.12-26.85-4.18-42.41,4.79-7.5,11.59-13.1,19.14-15.77,7.63-2.7,15.13-2.08,21.1,1.73,9.08,5.8,12.71,17.97,9.34,30.71,2.7-.75,5.63-.6,8.3.45,6.24,2.45,9.66,9.32,7.62,15.31-1.02,3-3.2,5.41-6.14,6.78-3.15,1.47-6.88,1.57-10.22.28-.67-.26-1.32-.58-1.94-.94l2.89,29.19,13.69,1.75c.29.04.55.2.71.44.16.24.21.54.13.82-3.17,11.15-17.01,19.25-32.9,19.25Zm-31.38-26.62c-.14.83-.2,1.67-.2,2.51,0,12.19,14.17,22.11,31.59,22.11,14.47,0,27.1-6.95,30.62-16.68l-13.29-1.7c-.46-.06-.82-.43-.87-.89l-3.19-32.17c-.04-.41.17-.79.53-.98.36-.19.8-.14,1.11.12.98.83,2.07,1.47,3.23,1.93h0c2.83,1.1,5.99,1.02,8.65-.22,2.44-1.14,4.25-3.13,5.1-5.62,1.7-4.99-1.2-10.74-6.46-12.8-2.82-1.11-5.98-1.03-8.67.21-.36.17-.78.11-1.08-.16-.3-.26-.41-.68-.29-1.05,4.01-12.55.81-24.74-7.95-30.34-5.44-3.48-12.32-4.02-19.36-1.53-7.13,2.52-13.56,7.83-18.12,14.96-9.35,14.63-7.75,32.42,3.57,39.65.61.39,1.26.72,1.81,1,.32.16.53.48.55.83l1.26,20.73c.02.3-.1.59-.31.79-.22.2-.51.29-.81.26l-7.43-.95Z"/>
    </g>
    <path class="cls-1" d="m230.46,113.27c-.26-.02-.51-.04-.77-.07-14.25-1.72-24.08-17.85-21.94-36.01.02-.21.06-.41.08-.61,5.13-.56,10.15.41,14.45,3.15,9.99,6.37,12.97,20.24,8.17,33.54Z"/>
    <path class="cls-1" d="m198.24,138.66c-3.25,0-6.51-.5-9.68-1.52-.53-.17-.81-.73-.64-1.26.17-.53.73-.81,1.26-.65,8.28,2.67,17.27,1.56,24.66-3.03.47-.29,1.09-.15,1.38.32.29.47.15,1.08-.32,1.38-5.07,3.15-10.83,4.76-16.65,4.76Z"/>
    <path class="cls-1" d="m190.85,91.66c.14.89-1.75,1.93-4.23,2.31s-4.59-.03-4.73-.92c-.14-.89,1.75-1.93,4.23-2.31,2.47-.38,4.59.03,4.73.92Z"/>
    <path class="cls-1" d="m210.18,103.01c-.61.94-3.22.32-5.82-1.38-2.6-1.7-4.21-3.84-3.59-4.78.61-.94,3.22-.32,5.82,1.38,2.6,1.7,4.21,3.84,3.59,4.78Z"/>
    <path class="cls-1" d="m189.52,108.27c-.37,0-.72-.2-.89-.55-.74-1.47-.64-3.25.25-4.63l3.98-6.17c.3-.46.92-.6,1.38-.3.46.3.6.92.3,1.38l-3.98,6.17c-.52.8-.57,1.79-.14,2.64.25.49.05,1.09-.44,1.34-.14.07-.3.11-.45.11Z"/>
    <path class="cls-1" d="m193.67,124.26c-.21,0-.43-.01-.65-.04-2.41-.34-4.37-2.52-5.8-6.49h0c-.16-.44-.07-.89.24-1.22.42-.44,1.2-1.27,12.29,2.04.31.09.56.33.66.64.1.31.05.64-.14.91-.13.18-3.05,4.17-6.61,4.17Zm-4.16-6.16c.83,1.93,2.08,3.9,3.78,4.14,1.59.23,3.3-1.08,4.4-2.2-3.19-.91-6.55-1.73-8.19-1.94Zm-.41-1.05h0s0,0,0,0Z"/>
    <path class="cls-1" d="m230.94,124.2c-.09,0-.18-.01-.28-.04-.53-.15-.84-.71-.69-1.24.89-3.11,2.47-5.28,4.69-6.46,3.2-1.69,6.51-.64,6.65-.59.52.17.81.74.64,1.26-.17.52-.73.81-1.26.64h0s-2.68-.83-5.11.47c-1.71.91-2.95,2.68-3.68,5.23-.13.44-.53.72-.96.72Z"/>
    <path class="cls-1" d="m188.29,100.77c-.77,1.71-2.43,2.64-3.69,2.06-1.27-.57-1.67-2.42-.89-4.13.77-1.71,2.42-2.64,3.69-2.06s1.67,2.42.89,4.13Z"/>
    <path class="cls-1" d="m202.73,107.34c-.77,1.71-2.42,2.64-3.69,2.06-1.27-.57-1.67-2.42-.89-4.13.77-1.71,2.42-2.64,3.69-2.06,1.27.57,1.67,2.42.89,4.13Z"/>
  </g>
</svg>