<?xml version="1.0" encoding="UTF-8"?>
<svg id="Layer_2" data-name="Layer 2" xmlns="http://www.w3.org/2000/svg" viewBox="0 0 310.6 232.54">
  <defs>
    <style>
      .cls-1 {
        fill: #f1cf25;
      }

      .cls-2 {
        fill: #fff;
      }

      .cls-3 {
        fill: #080717;
      }

      .cls-4 {
        fill: #070a17;
      }

      .cls-5 {
        fill: #85bac6;
      }
    </style>
  </defs>
  <path class="cls-5" d="m308.93,230.55h-84.13l8.33-74.68c.99-8.85,7.45-16.13,16.12-18.15h0c3.59-.84,7.33-.72,10.86.35l26.54,8.02,23.94,17.62s-2,67.17-1.66,66.84Z"/>
  <path class="cls-1" d="m100.76,28.25v56.01c0,6.8,5.52,12.32,12.32,12.32h93.91c6.8,0,12.32-5.52,12.32-12.32v-6.16h21.56l-21.56-21.56v-28.29c0-6.8-5.52-12.32-12.32-12.32h-93.91c-6.8,0-12.32,5.52-12.32,12.32Z"/>
  <g>
    <g>
      <path class="cls-2" d="m296.09,151.83l5.18-56.59-28.63-2.62-4.42,48.3-3.18-.56c-8.51,5.51-13.06,14.23-10.56,21.97,3.19,9.9,16.65,14.42,30.06,10.1,8.44-2.72,14.85-8.29,17.65-14.52l-6.09-6.08Z"/>
      <path class="cls-3" d="m274.4,175.05c-9.91,0-18.37-4.65-20.87-12.42-2.55-7.93,1.86-17.22,10.97-23.12.21-.14.47-.19.72-.14l2.11.37,4.32-47.22c.05-.55.53-.96,1.09-.91l28.63,2.62c.26.02.51.15.68.36.17.2.25.47.23.73l-5.13,56.12,5.76,5.75c.29.29.38.74.21,1.12-3.02,6.72-9.85,12.35-18.25,15.06-3.53,1.14-7.07,1.68-10.45,1.68Zm-9.14-33.64c-8.13,5.41-12.07,13.65-9.83,20.61,3.01,9.36,15.93,13.6,28.8,9.45,7.61-2.45,13.82-7.42,16.75-13.36l-5.59-5.58c-.21-.21-.32-.5-.29-.8l5.08-55.59-26.64-2.44-4.33,47.31c-.03.28-.17.53-.39.7-.22.17-.51.24-.78.19l-2.79-.5Z"/>
    </g>
    <path class="cls-3" d="m280.17,61.55l-1.11,4.4c-.64.01-1.27.07-1.89.15-1.38,4.46-2.14,9.26-2.14,14.27,0,15.54,10.64,35.49,23.94,35.93.89,0,11.06-11.54,10.82-22.19l-.1-4.37c-.37-15.87-13.65-28.55-29.51-28.18Z"/>
    <path class="cls-3" d="m288.58,94.36c-.88-8.25-6.7-15.49-14.5-17.22h0c-4.86-1.07-9.52.21-13.03,3.13,2.22-.46,8.55-1.41,10.98,2.21,2.97,4.42,6.06,13.67,16.54,11.88Z"/>
    <path class="cls-3" d="m248.38,82.12c.15,6.39,5.45,11.45,11.83,11.3,6.39-.15,11.45-5.45,11.3-11.83-.15-6.39-5.45-11.45-11.83-11.3-6.39.15-11.45,5.45-11.3,11.83Z"/>
    <path class="cls-3" d="m284.85,65.02c12.55,1.3,22.53,11.53,23.28,24.35-2.78,1.94-6.18,3.12-9.88,3.21-9.62.22-17.59-7.02-17.8-16.17-.1-4.36,1.58-8.36,4.4-11.39Z"/>
    <path class="cls-3" d="m268.24,73.4c.15,6.39,5.45,11.45,11.83,11.3,6.39-.15,11.45-5.45,11.3-11.83-.15-6.39-5.45-11.45-11.83-11.3-6.39.15-11.45,5.45-11.3,11.83Z"/>
    <path class="cls-3" d="m254.77,74.29c.15,6.57,5.6,11.77,12.17,11.62,6.57-.15,11.77-5.6,11.62-12.17-.15-6.57-5.6-11.77-12.17-11.62-6.57.15-11.77,5.6-11.62,12.17Z"/>
    <path class="cls-3" d="m297.62,74.09c-.08,0-.16,0-.25-.03-.54-.14-.86-.68-.72-1.21,1.07-4.22,5.74-5.31,5.94-5.35.54-.12,1.07.22,1.19.76.12.54-.22,1.07-.76,1.19-.07.02-3.67.89-4.44,3.89-.11.45-.52.75-.97.75Z"/>
    <path class="cls-3" d="m297.14,73.82c-.32,0-.64-.15-.83-.44-.31-.46-.19-1.08.27-1.39,2.58-1.74,2.17-5.45,2.17-5.49-.06-.55.33-1.05.87-1.11.55-.07,1.04.32,1.11.87.03.2.57,4.96-3.04,7.39-.17.12-.37.17-.56.17Z"/>
    <g>
      <path class="cls-2" d="m294.79,100.42h0c-.73-3.45-3.8-5.81-7.2-5.75-.66-7.98-6.63-14.81-14.88-16.22h0c-9.79-1.68-19.08,4.9-20.76,14.68l-.34,1.96c-1.98-.12-3.78,1.26-4.11,3.26h0c-.32,1.98.91,3.85,2.8,4.39l-.66,3.88c1.93.57,4.11.89,6.42.89,1.06,0,2.1-.07,3.1-.2-2.12,2.15-5.85,3.7-10.24,4.09-.62,9.09,5.73,17.35,14.9,18.92,9.79,1.68,19.08-4.9,20.76-14.68l1.01-5.87,3.61-.76c3.92-.82,6.42-4.66,5.6-8.58Z"/>
      <path class="cls-3" d="m266.89,131.58c-1.08,0-2.16-.09-3.25-.28-9.63-1.65-16.4-10.24-15.73-19.97.03-.49.42-.88.91-.93,2.6-.23,5.02-.9,6.95-1.89-2.23-.02-4.39-.34-6.42-.93-.49-.14-.79-.63-.7-1.13l.53-3.08c-1.9-.94-3.01-3.03-2.66-5.18.36-2.19,2.11-3.81,4.25-4.07l.2-1.15c.86-5,3.61-9.36,7.75-12.29,4.14-2.93,9.17-4.07,14.17-3.21,8.24,1.41,14.55,8.03,15.62,16.25,3.54.34,6.53,2.96,7.27,6.51.45,2.16.04,4.36-1.16,6.2-1.2,1.84-3.05,3.11-5.21,3.56l-2.94.62-.89,5.2c-.86,5-3.61,9.36-7.75,12.29-3.24,2.29-7.03,3.49-10.92,3.49Zm-17.02-19.28c-.17,8.36,5.77,15.6,14.11,17.03,4.47.77,8.97-.26,12.67-2.87,3.7-2.62,6.16-6.52,6.93-10.99l1.01-5.87c.07-.4.38-.73.78-.81l3.61-.76c1.63-.34,3.03-1.3,3.95-2.7.91-1.4,1.23-3.06.88-4.7h0c-.61-2.92-3.23-5.03-6.2-4.96-.48.03-.97-.39-1.01-.92-.64-7.71-6.42-14.01-14.06-15.32-4.47-.77-8.97.25-12.67,2.87-3.7,2.62-6.16,6.52-6.93,10.99l-.33,1.96c-.09.5-.52.85-1.05.83-1.5-.09-2.82.95-3.06,2.43-.24,1.45.66,2.86,2.08,3.26.49.14.8.63.71,1.13l-.51,2.98c2.58.63,5.39.8,8.25.43.42-.05.83.17,1.02.55.19.38.12.84-.18,1.15-2.2,2.23-5.8,3.77-9.99,4.29Z"/>
    </g>
    <path class="cls-3" d="m290,110.69c-.46,0-.88-.32-.98-.79-.11-.54.23-1.07.77-1.18,3.37-.71,5.54-4.03,4.83-7.4-.11-.54.23-1.07.77-1.18.54-.11,1.07.23,1.18.77.93,4.45-1.92,8.83-6.37,9.76-.07.01-.14.02-.21.02Z"/>
    <path class="cls-3" d="m287.01,105.07c-.51,0-.95-.39-1-.92-.31-3.69,2.8-5.26,2.93-5.33.5-.25,1.09-.04,1.34.45.24.49.04,1.09-.45,1.34-.09.05-2.02,1.07-1.83,3.37.05.55-.36,1.03-.91,1.08-.03,0-.06,0-.08,0Z"/>
    <path class="cls-3" d="m256.18,95.46c-.01,1.01.65,1.83,1.49,1.84.83,0,1.52-.8,1.53-1.81.01-1.01-.65-1.83-1.49-1.84-.83,0-1.52.8-1.53,1.81Z"/>
    <path class="cls-3" d="m258.1,89.28c-.29.56.73,1.67,2.27,2.48s3.04,1.01,3.33.45-.73-1.67-2.27-2.48c-1.55-.81-3.04-1.01-3.33-.45Z"/>
    <path class="cls-3" d="m278.46,79.6c7.26.21,13.6,6.4,14.84,14.76-1.47,1.41-3.34,2.36-5.45,2.6-5.49.64-10.5-3.7-11.19-9.68-.33-2.85.38-5.56,1.8-7.68Z"/>
  </g>
  <ellipse class="cls-3" cx="215.97" cy="135.13" rx="15.12" ry="18.26" transform="translate(76.76 348.5) rotate(-88.91)"/>
  <g>
    <path class="cls-2" d="m251.27,148.06c-16.09-23.56-39.38-12.22-43.14-8.48-.88.88-1.73,1.72-2.57,2.54-1.56,1.2-2.98,2.51-4.27,3.91-3.17,2.64-6.04,4.25-8.78,3.92-1.94-.23-5.7,6.12-7.05,13.82,3.96-.09,7.8-.65,11.4-1.69-2.78,3.79-7,6.38-11.89,7.59.1,7.41,3.14,14.85,12.44,18.25,0,0,5.18,2.71,11.38,3.21l.11,28.89,31.07-.12,1.75-26.32c.49-.32.98-.64,1.46-.99,14.6-10.46,17.89-30.18,8.08-44.54Z"/>
    <path class="cls-3" d="m208.91,221.02c-.55,0-1-.45-1-1l-.11-27.99c-5.62-.65-10.18-2.9-10.78-3.2-10.61-3.9-12.95-12.56-13.04-19.15,0-.46.31-.87.76-.98,3.68-.91,6.83-2.58,9.27-4.88-2.74.57-5.59.89-8.52.95-.3,0-.59-.12-.78-.35-.19-.23-.28-.53-.23-.82,1.24-7.07,5.08-14.97,8.15-14.64,2.16.25,4.62-.87,7.97-3.66,1.31-1.42,2.75-2.74,4.3-3.94.82-.8,1.65-1.63,2.52-2.49,2.63-2.62,11.7-7.13,21.68-6.19,9.13.86,16.86,5.85,22.98,14.81,10.27,15.04,6.62,35.21-8.32,45.92-.36.26-.72.5-1.08.74l-1.71,25.82c-.04.52-.47.93-.99.93l-31.08.12h0Zm31.08-1.12h0,0Zm-53.98-49.47c.26,5.86,2.59,13.19,11.76,16.54.04.01.08.03.12.05.05.03,5.09,2.62,10.99,3.1.52.04.92.47.92.99l.11,27.89,29.14-.11,1.68-25.39c.02-.32.19-.6.46-.78.48-.31.95-.62,1.42-.96,14.05-10.07,17.49-29.03,7.83-43.16h0c-5.77-8.45-13.01-13.15-21.52-13.95-9.95-.93-18.32,3.86-20.08,5.61-.88.88-1.74,1.73-2.58,2.54-.03.03-.06.05-.09.08-1.49,1.15-2.89,2.43-4.14,3.79-.03.03-.06.06-.1.09-3.83,3.2-6.77,4.48-9.54,4.15-1,.08-4.23,4.8-5.71,11.78,3.45-.17,6.78-.7,9.9-1.6.41-.12.85.04,1.1.39.24.35.24.82-.01,1.16-2.73,3.71-6.75,6.38-11.67,7.76Z"/>
  </g>
  <circle class="cls-3" cx="203.39" cy="210.8" r="16.16" transform="translate(-89.49 205.56) rotate(-45)"/>
  <g>
    <path class="cls-2" d="m76.29,105.58c0-.55-.45-1-1-1h-4.59c-4.51,0-8.18-3.67-8.18-8.18v-36.7c0-4.51,3.67-8.18,8.18-8.18h66.16c4.51,0,8.18,3.67,8.18,8.18v36.7c0,4.51-3.67,8.18-8.18,8.18h-45.52c-.27,0-.52.11-.71.29l-14.35,14.35v-13.64Z"/>
    <path class="cls-3" d="m136.86,52.52c3.96,0,7.18,3.22,7.18,7.18v36.7c0,3.96-3.22,7.18-7.18,7.18h-45.52c-.53,0-1.04.21-1.41.59l-12.64,12.64v-11.23c0-1.1-.9-2-2-2h-4.59c-3.96,0-7.18-3.22-7.18-7.18v-36.7c0-3.96,3.22-7.18,7.18-7.18h66.16Zm0-2h-66.16c-5.07,0-9.18,4.11-9.18,9.18v36.7c0,5.07,4.11,9.18,9.18,9.18h4.59v16.06l16.06-16.06h45.52c5.07,0,9.18-4.11,9.18-9.18v-36.7c0-5.07-4.11-9.18-9.18-9.18h0Z"/>
  </g>
  <path class="cls-4" d="m108.83,82.84h66.16c5.07,0,9.18,4.11,9.18,9.18v36.7c0,5.07-4.11,9.18-9.18,9.18h-4.59v16.06l-16.06-16.06h-45.52c-5.07,0-9.18-4.11-9.18-9.18v-36.7c0-5.07,4.11-9.18,9.18-9.18Z"/>
  <path class="cls-3" d="m247.61,132.26c-10.09-5.77-21.97-5.65-31.87-.77,3.04.79,6,1.95,8.83,3.57,19.16,10.96,24.68,37.32,12.35,58.88-.69,1.2-1.42,2.35-2.18,3.46,10.07-1.68,19.44-7.82,25.01-17.56,9.68-16.91,4.24-38.21-12.13-47.58Z"/>
  <path class="cls-3" d="m213.59,129.24s2.54,9.26,10.15,13.87c4.02,2.44-3.76,1.55-3.26,6.4,3.8,36.34,6.56,43.25,6.56,43.25.62,3.13,3.2,5.48,6.37,5.82l9.55,1,3.17-8.72,5.59-37.71s-19.08-28.68-38.13-23.92Z"/>
  <path class="cls-3" d="m213.86,150.1c-.19,0-.38-.05-.55-.16-.46-.3-.59-.92-.29-1.39.43-.65.49-2.29-.16-3.81-.38-.9-1.34-2.46-3.4-2.83-.54-.1-.9-.62-.81-1.16.1-.54.62-.9,1.16-.81,2.21.4,3.94,1.83,4.88,4.01.87,2.02.86,4.36-.01,5.69-.19.29-.51.45-.84.45Z"/>
  <path class="cls-3" d="m205.4,150.76c-.85.47-1.82.36-2.16-.25s.07-1.49.93-1.96c.85-.47,1.82-.36,2.16.25.34.61-.07,1.49-.93,1.96Z"/>
  <path class="cls-3" d="m221.75,146.28s-13.26,9.29-11.75,16.13,13.47,8.43,11.88,20.12c-1.58,11.69-3.64,17.4-17.85,17.86-18.95.61-22.82,4.01-23.02,14.63-.2,10.63,45.45-.79,45.45-.79,0,0,16.95-16.85-4.71-67.96Z"/>
  <circle class="cls-2" cx="220.58" cy="174.54" r="9.34" transform="translate(-59.38 201.79) rotate(-43.91)"/>
  <path class="cls-3" d="m216.35,177.71h-.02c-.55-.01-.99-.47-.98-1.02.09-4.56,6.99-6.54,7.28-6.62.53-.15,1.08.16,1.23.69.15.53-.16,1.08-.69,1.23-1.6.45-5.77,2.18-5.82,4.73-.01.55-.46.98-1,.98Z"/>
  <circle class="cls-3" cx="263.08" cy="204.06" r="15.99" transform="translate(-68.68 232.1) rotate(-42.63)"/>
  <g>
    <path class="cls-1" d="m294.52,230.99c-4.38-6.12-11.39-10.69-19.85-12.33l-74.25-14.41c-14-2.72-28.43,2.59-36.12,13.3-2.98,4.15-6.31,8.7-9.82,13.44h140.04Z"/>
    <path class="cls-1" d="m294.52,231.99c-.31,0-.62-.15-.81-.42-4.4-6.14-11.23-10.38-19.23-11.93l-74.25-14.41c-13.57-2.63-27.68,2.55-35.12,12.9-2.82,3.92-6.03,8.32-9.83,13.45-.33.44-.95.54-1.4.21-.44-.33-.54-.96-.21-1.4,3.79-5.12,7-9.51,9.81-13.42,7.88-10.97,22.8-16.48,37.12-13.7l74.25,14.41c8.51,1.65,15.78,6.17,20.47,12.73.32.45.22,1.07-.23,1.39-.18.13-.38.19-.58.19Z"/>
  </g>
  <path class="cls-3" d="m231.66,126.85c9.08-4.46,40.5,5.67,36.35,37.76-2.06,15.95-6.21,39.95-1.46,48.21,4.75,8.27,4.21,2.44-2.18,8.86-6.39,6.42-30.93,4.11-35.47-.89s-16.44-1.09,1.83-30.46c18.27-29.36.3-44.42-1.59-45.55-1.89-1.13-10.8-11.4,2.52-17.94Z"/>
  <circle class="cls-3" cx="237.74" cy="209.23" r="19.92" transform="translate(-18.47 23.08) rotate(-5.35)"/>
  <path class="cls-3" d="m22.81,122.89c1.03,6.56,8.3,10.87,16.22,9.62,7.92-1.25,13.51-7.58,12.47-14.15-1.03-6.56-8.3-10.87-16.22-9.62-7.92,1.25-13.51,7.58-12.47,14.15Z"/>
  <g>
    <path class="cls-2" d="m82.72,151.49c-5.01-.53-9.54-2.51-12.82-5.89,3.7.53,7.58.56,11.52.11-2.39-7.44-6.99-13.22-8.88-12.72-2.67.7-5.74-.5-9.24-2.68-1.46-1.21-3.06-2.31-4.76-3.29-.94-.69-1.9-1.41-2.89-2.16-4.23-3.19-28.85-11.24-41.57,14.31-7.11,14.28-2.67,31.51,10.38,40.72l-8.85,32.6,38.15-6.77,6.74-29.41c6.79-1.04,12.39-5.04,12.39-5.04,8.75-4.64,10.74-12.43,9.82-19.78Z"/>
    <path class="cls-3" d="m15.62,213.49c-.28,0-.55-.12-.74-.33-.23-.25-.32-.61-.23-.94l8.67-31.93c-13.1-9.65-17.37-27.02-10.13-41.57,4.84-9.72,11.81-15.72,20.74-17.82,9.76-2.3,19.36.92,22.33,3.16.97.73,1.92,1.44,2.84,2.12,1.7.98,3.31,2.09,4.8,3.31,3.7,2.3,6.3,3.08,8.4,2.53,3.01-.76,7.88,6.55,10.08,13.38.09.28.05.6-.11.85-.16.25-.43.42-.73.45-2.91.34-5.78.41-8.57.23,2.73,1.95,6.08,3.17,9.85,3.57.46.05.83.41.89.87.81,6.54-.32,15.44-10.29,20.75-.62.43-5.74,3.9-12.09,5.06l-6.59,28.76c-.09.39-.4.69-.8.76l-38.15,6.77c-.06.01-.12.02-.17.02Zm25.3-91.38c-2.08,0-4.28.21-6.52.74-8.32,1.96-14.85,7.6-19.41,16.77-6.91,13.88-2.68,30.47,10.06,39.46.34.24.5.67.39,1.08l-8.44,31.08,35.94-6.38,6.59-28.76c.09-.4.42-.7.82-.76,6.46-.99,11.91-4.82,11.96-4.86.04-.03.07-.05.11-.07,8.63-4.58,9.93-12.16,9.38-18-5.07-.69-9.42-2.79-12.63-6.09-.3-.31-.37-.77-.17-1.15.19-.38.61-.6,1.03-.54,3.22.46,6.59.54,10.03.23-2.41-6.67-6.21-10.89-7.26-10.89,0,0-.02,0-.02,0-2.68.7-5.77-.16-10-2.81-.04-.02-.07-.05-.11-.08-1.43-1.18-2.98-2.25-4.62-3.19-.03-.02-.07-.04-.1-.06-.94-.69-1.9-1.42-2.9-2.17-1.53-1.15-7.18-3.55-14.14-3.55Z"/>
  </g>
  <path class="cls-3" d="m15.56,123.01c9.2-7.1,20.99-8.61,31.46-5.13-2.9,1.19-5.68,2.76-8.25,4.74-17.47,13.48-19.34,40.35-4.16,60.02.84,1.09,1.73,2.13,2.63,3.13-10.21-.28-20.33-5.09-27.18-13.97-11.9-15.42-9.44-37.27,5.5-48.8Z"/>
  <path class="cls-3" d="m48.85,115.36s-1.24,9.52-8.15,15.13c-3.65,2.97,3.94,1.02,4.1,5.89,1.22,36.52-.57,43.74-.57,43.74-.19,3.18-2.42,5.87-5.51,6.64l-15.99,1.21.89-5.32-9.25-38.38s14.97-31.02,34.49-28.92Z"/>
  <path class="cls-3" d="m51.62,137.35c-.24,0-.48-.08-.67-.26-.98-.89-1.58-2.9-1.44-4.89.14-2.08,1.04-3.78,2.51-4.79.46-.31,1.08-.19,1.39.26.31.46.19,1.08-.27,1.39-1.29.88-1.58,2.43-1.64,3.27-.11,1.57.39,2.91.78,3.27.41.37.44,1,.07,1.41-.2.22-.47.33-.74.33Z"/>
  <path class="cls-3" d="m59.91,135.56c.91.35,1.85.11,2.1-.55s-.28-1.47-1.19-1.82c-.91-.35-1.85-.11-2.1.55s.28,1.47,1.19,1.82Z"/>
  <path class="cls-2" d="m57.36,159.74c.8,5.1-2.68,9.88-7.77,10.68-5.1.8-9.88-2.68-10.68-7.77-.8-5.1,2.68-9.88,7.77-10.68,5.1-.8,9.88,2.68,10.68,7.77Z"/>
  <path class="cls-3" d="m52.62,163.77c-.48,0-.91-.35-.99-.84-.4-2.52-4.77-3.66-6.41-3.89-.55-.08-.93-.58-.85-1.13.07-.55.57-.93,1.12-.86.3.04,7.41,1.06,8.12,5.56.09.54-.29,1.06-.83,1.14-.05,0-.11.01-.16.01Z"/>
  <circle class="cls-3" cx="258.69" cy="214.01" r="18.54" transform="translate(-76.5 233.13) rotate(-42.87)"/>
  <polygon class="cls-3" points="39.7 142.53 53.59 150.68 51.27 154.52 39.97 150.55 39.7 142.53"/>
  <path class="cls-3" d="m10.75,143.31c-.23,0-.45-.08-.64-.23-1.85-1.54-7.16-.67-8.87-.24-.53.13-1.08-.19-1.21-.73-.13-.54.19-1.08.73-1.21.78-.2,7.67-1.83,10.64.64.42.35.48.98.13,1.41-.2.24-.48.36-.77.36Z"/>
  <path class="cls-3" d="m10.66,142.05c-2.27,0-7.27-.29-9.24-2.71-.35-.43-.28-1.06.15-1.41.43-.35,1.06-.28,1.41.15,1.52,1.87,6.9,2.04,8.66,1.95.55-.02,1.02.4,1.05.95.03.55-.4,1.02-.95,1.05-.15,0-.54.02-1.08.02Z"/>
  <path d="m6.76,230.99v-33.25h38.71c17.23,0,33.75,6.84,45.94,19.03l14.45,14.45s-98.21-.22-99.1-.22Z"/>
  <path class="cls-2" d="m156.24,118.19c-.69,0-1.41-.03-2.17-.1-2.88-.25-4.94-1.61-5.95-3.84-.43.31-.88.62-1.34.92-4.41,2.85-7.47,1.95-9.26.7-1.26-.88-2.24-2.19-2.94-3.61-.97.8-1.96,1.5-2.95,2.06-3.73,2.14-6.97,2.21-9.37.22-1.03-.86-1.75-1.93-2.14-3.15-2.53.28-4.6.15-4.78.13-.55-.04-.97-.52-.93-1.07.04-.55.51-.95,1.07-.93.04,0,1.97.13,4.29-.11-.07-1.48.25-3.09.97-4.75,1.27-2.93,3.8-5.75,6.19-5.44.84.1,2.31.71,2.76,3.57.34,2.12-.15,3.93-1.45,5.35-1.48,1.62-3.82,2.48-6.11,2.94.27.69.71,1.35,1.4,1.92,1.73,1.44,4.11,1.3,7.1-.41,1.11-.63,2.17-1.41,3.17-2.27-.55-1.79-.7-3.54-.43-4.7.64-2.8,4.71-7.94,7.31-7.94.02,0,.04,0,.06,0,.51.01,1.73.25,2.04,2.11.41,2.49-2.71,7.37-6.63,11.09.55,1.31,1.38,2.56,2.51,3.35,1.88,1.31,4.24,1.06,7.03-.74.66-.43,1.27-.86,1.84-1.29-.04-.29-.07-.6-.09-.91-.24-4.34,2.27-9.66,4.79-10.16,1.27-.25,2.35.31,2.82,1.47.94,2.33-.68,6.47-5.29,10.37.63,1.87,2.13,2.92,4.48,3.13,8.8.77,11.49-3.65,11.6-3.84.28-.47.89-.64,1.36-.37.48.27.65.88.38,1.35-.12.22-2.89,4.94-11.35,4.94Zm-3.42-15.12c-.06,0-.12,0-.2.02-1.06.21-3.16,3.88-3.2,7.51,3.39-3.2,4.23-6.12,3.77-7.24-.06-.16-.14-.29-.38-.29Zm-26.24-1.87c-1.04,0-2.92,1.76-4,4.26-.27.63-.81,2.08-.8,3.66,1.93-.38,3.84-1.08,4.99-2.33.88-.97,1.19-2.17.95-3.68-.09-.54-.36-1.82-1.04-1.9-.03,0-.07,0-.1,0Zm14.02-1.55c-1.01,0-4.71,3.92-5.27,6.41-.13.57-.09,1.56.15,2.69,3.33-3.38,5.55-7.32,5.33-8.64-.06-.36-.15-.46-.15-.46-.02,0-.04,0-.06,0Z"/>
  <g>
    <path d="m170.19,64.4c-.29,0-.59-.13-.78-.38-3.79-4.76-8.33-8.8-13.48-12.03l-3.47-2.17c-9.64-6.02-13.85-17.76-10.24-28.54,4.29-12.8,18.19-19.72,30.99-15.43,10.78,3.62,17.61,14.05,16.6,25.37l-.36,4.07c-.54,6.1-.03,12.21,1.5,18.14.14.53-.18,1.08-.72,1.22-.54.14-1.08-.18-1.22-.72-1.6-6.15-2.12-12.48-1.56-18.81l.36-4.07c.92-10.4-5.35-19.98-15.25-23.3-5.69-1.91-11.79-1.49-17.17,1.19s-9.39,7.29-11.3,12.98c-3.32,9.9.55,20.68,9.4,26.21l3.47,2.17c5.35,3.34,10.06,7.54,13.99,12.48.34.43.27,1.06-.16,1.41-.18.15-.4.22-.62.22Z"/>
    <path d="m182.65,77.03c-1.37,0-2.74-.22-4.07-.67-3.23-1.08-5.85-3.36-7.37-6.42l-2.79-5.6c-.12-.24-.14-.51-.05-.76.08-.25.27-.46.5-.58l21.07-10.49c.24-.12.51-.14.76-.05.25.08.46.27.58.5l2.79,5.6c3.14,6.3.56,13.98-5.74,17.12-1.8.89-3.73,1.34-5.68,1.34Zm-11.99-12.68l2.34,4.7c1.28,2.58,3.49,4.5,6.22,5.41,2.73.91,5.65.71,8.22-.57h0c2.58-1.28,4.5-3.49,5.41-6.22.91-2.73.71-5.65-.57-8.22l-2.34-4.7-19.28,9.6Z"/>
    <path d="m176.53,60.53c-.37,0-.72-.2-.9-.55l-7.92-15.91c-.7.27-1.41.49-2.11.65-4.61,1.03-8.14-.87-8.76-3.21-.37-1.39.23-3.18,3.01-4.04,4.35-1.36,8.55,3.71,8.73,3.93.02.02.04.05.05.07,1.18-.62,2.31-1.4,3.34-2.3-.26-.47-.48-.87-.66-1.17-2.13-3.54-2.98-5.74-2.06-8.73.96-3.08,2.93-4.82,5.26-4.68,2.09.13,3.87,1.78,4.25,3.91.68,3.9-1.26,7.95-4.32,11.06,2.95,5.65,8.17,16.64,8.44,17.19.24.5.02,1.09-.47,1.33-.5.23-1.09.02-1.33-.47-.06-.13-5.16-10.86-8.15-16.65-1.06.88-2.21,1.65-3.4,2.27l7.89,15.85c.25.49.05,1.09-.45,1.34-.14.07-.3.1-.44.1Zm-15.17-21.3c-.31,0-.61.04-.91.13-.46.14-1.92.68-1.67,1.62.29,1.08,2.68,2.61,6.39,1.78.52-.12,1.04-.27,1.56-.46-1.05-1.14-3.28-3.07-5.37-3.07Zm12.9-12.66c-1.32,0-2.44,1.18-3.09,3.28-.65,2.08-.25,3.61,1.86,7.1.13.21.27.46.43.75,2.39-2.62,3.87-5.85,3.34-8.87-.21-1.22-1.25-2.19-2.41-2.26-.05,0-.09,0-.14,0Z"/>
  </g>
  <path class="cls-1" d="m90.68,89.77s-24.28-28.08-2-18.62c7.32,3.1-1.55,7.09-1.55,7.09,0,0,2.88-11.53,11.31-13.3,8.42-1.77,0,14.41-7.76,24.83Z"/>
  <path class="cls-3" d="m193.94,19.65c-.4,0-.78-.24-.93-.63-.2-.51.05-1.09.56-1.3l9.99-3.92c.52-.2,1.09.05,1.3.57.2.51-.05,1.09-.56,1.3l-9.99,3.92c-.12.05-.24.07-.37.07Z"/>
  <path class="cls-3" d="m186.89,8.86c-.27,0-.55-.11-.74-.33-.37-.41-.34-1.04.07-1.41l7.6-6.86c.41-.37,1.04-.34,1.41.07.37.41.34,1.04-.07,1.41l-7.6,6.86c-.19.17-.43.26-.67.26Z"/>
  <path class="cls-3" d="m205.52,34.11c-.1,0-.21-.02-.31-.05l-9.93-3.23c-.53-.17-.81-.74-.64-1.26.17-.52.73-.81,1.26-.64l9.93,3.23c.53.17.81.74.64,1.26-.14.42-.53.69-.95.69Z"/>
</svg>