<?xml version="1.0" encoding="UTF-8"?>
<svg xmlns="http://www.w3.org/2000/svg" viewBox="0 0 681.57 708.21">
  <defs>
    <style>
      .cls-1, .cls-2 {
        fill: none;
      }

      .cls-2 {
        isolation: isolate;
      }

      .cls-3 {
        fill: #f7a537;
      }

      .cls-4 {
        fill: #f1a32f;
      }

      .cls-5 {
        fill: #e8c4a6;
      }

      .cls-6 {
        fill: #ea8a6c;
      }

      .cls-7 {
        fill: #ededed;
      }

      .cls-8 {
        fill: #ef9a78;
      }

      .cls-9, .cls-10, .cls-11, .cls-12 {
        fill: #fff;
      }

      .cls-13 {
        fill: #f2d0b6;
      }

      .cls-14 {
        fill: #ef487c;
      }

      .cls-15 {
        fill: #ffd22d;
      }

      .cls-16 {
        fill: #ffaa82;
      }

      .cls-17 {
        fill: #fcfeff;
      }

      .cls-18 {
        fill: #9bb7d3;
      }

      .cls-19 {
        fill: #91b8db;
      }

      .cls-20 {
        fill: #8585ff;
      }

      .cls-21 {
        fill: #915151;
      }

      .cls-22 {
        fill: #915350;
      }

      .cls-23 {
        fill: #bc4073;
      }

      .cls-24 {
        fill: #ceab8b;
      }

      .cls-25 {
        fill: #a7d1e8;
      }

      .cls-26, .cls-27, .cls-28 {
        fill: #a8c4e5;
      }

      .cls-29 {
        fill: #c0cacc;
      }

      .cls-30 {
        fill: #dcf1ff;
      }

      .cls-31 {
        fill: #d0e7f4;
      }

      .cls-32 {
        fill: #e1eaf4;
      }

      .cls-33 {
        fill: #d84177;
      }

      .cls-34 {
        fill: #1ed5df;
      }

      .cls-35 {
        fill: #424268;
      }

      .cls-36 {
        fill: #423a66;
      }

      .cls-37 {
        fill: #15253d;
      }

      .cls-38, .cls-39 {
        fill: #45446c;
      }

      .cls-40 {
        fill: #6f6f9e;
      }

      .cls-41 {
        fill: #46466b;
      }

      .cls-42 {
        fill: #894e4e;
      }

      .cls-43 {
        fill: #889499;
      }

      .cls-44 {
        fill: #6d64ff;
      }

      .cls-45 {
        fill: #5555e5;
      }

      .cls-46 {
        fill: #2b1c2d;
      }

      .cls-47 {
        fill: #56547f;
      }

      .cls-48 {
        fill: #644968;
      }

      .cls-49 {
        fill: #492817;
      }

      .cls-50 {
        fill: #383554;
      }

      .cls-51 {
        fill: #633820;
      }

      .cls-52 {
        fill: #616191;
      }

      .cls-53 {
        fill: #5f4b63;
      }

      .cls-54 {
        fill: #514677;
      }

      .cls-27 {
        opacity: .4;
      }

      .cls-27, .cls-39, .cls-28 {
        mix-blend-mode: multiply;
      }

      .cls-39 {
        opacity: .45;
      }

      .cls-28 {
        opacity: .11;
      }

      .cls-10 {
        opacity: .68;
      }

      .cls-11 {
        opacity: .43;
      }

      .cls-12 {
        opacity: .46;
      }
    </style>
  </defs>
  <g class="cls-2">
    <g id="image">
      <g>
        <path class="cls-28" d="m361.68,659.83c1.24-1.19,1.98-2.58,1.99-4.06v-2.24c.04-4.36-6.07-7.88-13.62-7.87h0c-.67,0-1.29-.06-1.89-.14,1.44-2.58.52-5.49-2.75-7.62,4.72-3.11,4.55-7.83-.55-10.77l-2.74-1.58c-5.32-3.07-13.98-3.06-19.34.03h0c-4.73,2.73-12.79.82-12.77-3.03h0c.02-4.36-6.08-7.88-13.63-7.87h-3.89c-7.55.02-13.7,3.57-13.72,7.93h0c-.02,3.85-8.1,5.8-12.8,3.08h0c-5.32-3.07-13.98-3.06-19.34.03l-2.76,1.59c-5.16,2.98-5.36,7.72-.61,10.81-3.24,2.14-4.18,5.02-2.79,7.58-.63.1-1.29.16-1.99.16h0c-2.82,0-5.44.5-7.62,1.35,1.27-1.56,2-3.3,2.01-5.13l.02-3.46c.01-2.33-1.13-4.49-3.08-6.34,1.92-1.84,3.05-3.97,3.06-6.27l.02-3.46c.04-6.72-9.38-12.16-21.02-12.14h0c-1.03,0-2-.07-2.92-.2,2.23-3.99.81-8.48-4.24-11.77,7.28-4.8,7.02-12.07-.85-16.61l-4.23-2.44c-8.21-4.74-21.56-4.72-29.82.05h0c-7.3,4.21-19.72,1.26-19.69-4.68h0c.04-6.72-9.38-12.16-21.02-12.14h-5.99c-11.65.03-21.12,5.5-21.15,12.22h0c-.03,5.94-12.49,8.94-19.74,4.75h0c-8.21-4.74-21.56-4.72-29.82.05l-4.25,2.45c-7.96,4.59-8.27,11.9-.95,16.67-5,3.3-6.44,7.75-4.29,11.7-.97.15-1.99.24-3.08.24h0c-11.65.02-21.12,5.49-21.15,12.21l-.02,3.46c-.01,2.33,1.13,4.49,3.08,6.34-1.92,1.83-3.05,3.97-3.06,6.27l-.02,3.46c-.04,6.72,9.38,12.16,21.02,12.14h0c1.03,0,2,.07,2.92.2-2.23,3.99-.81,8.48,4.24,11.77-7.28,4.8-7.02,12.07.85,16.61l4.22,2.44c8.21,4.74,21.56,4.72,29.82-.05h0c7.3-4.21,19.72-1.26,19.69,4.68h0c-.04,6.72,9.38,12.16,21.02,12.14h5.99c11.65-.03,21.12-5.5,21.15-12.22.03-5.94,12.49-8.94,19.74-4.75,8.21,4.74,21.56,4.72,29.82-.05l4.25-2.45c7.96-4.59,8.27-11.9.95-16.67,5-3.3,6.44-7.76,4.29-11.7.97-.15,1.99-.24,3.08-.24h0c5.25,0,10.04-1.13,13.74-2.97-.44.77-.69,1.6-.7,2.46v2.24c-.02,1.51.72,2.91,1.99,4.11-1.24,1.19-1.98,2.58-1.99,4.06v2.24c-.04,4.36,6.07,7.88,13.62,7.87h0c.67,0,1.29.06,1.89.14-1.44,2.58-.52,5.49,2.75,7.62-4.72,3.11-4.55,7.83.55,10.77l2.74,1.58c5.32,3.07,13.98,3.06,19.34-.03h0c4.73-2.73,12.79-.82,12.77,3.03h0c-.02,4.36,6.08,7.88,13.63,7.87h3.89c7.55-.02,13.69-3.57,13.72-7.93.02-3.85,8.1-5.8,12.8-3.08,5.32,3.07,13.98,3.06,19.34-.03l2.76-1.59c5.16-2.98,5.36-7.72.61-10.81,3.24-2.14,4.18-5.02,2.79-7.58.63-.1,1.29-.16,1.99-.16h0c7.55-.01,13.7-3.56,13.72-7.92v-2.24c.02-1.51-.72-2.91-1.99-4.11Zm-43.55,8.75c-13.3,7.68-34.79,7.72-48,.09-4.27-2.46-7.14-5.43-8.64-8.57,1.52-3.19,4.44-6.21,8.79-8.72,13.3-7.68,34.79-7.72,48-.09,4.27,2.46,7.14,5.43,8.64,8.57-1.52,3.19-4.44,6.21-8.79,8.72Zm-155.49-22.82c-20.5,11.84-53.64,11.9-74.01.13-6.58-3.8-11.01-8.37-13.32-13.21,2.34-4.92,6.85-9.58,13.56-13.45,20.5-11.84,53.64-11.9,74.01-.13,6.58,3.8,11.01,8.37,13.32,13.21-2.34,4.92-6.85,9.58-13.56,13.45Z"/>
        <path class="cls-27" d="m342.64,411.79l-13.29-25.35-167.41,109.89c-6.22,4.16-7.92,12.65-3.76,18.87,4.16,6.22,12.65,7.92,18.87,3.76l165.59-107.17Z"/>
        <path class="cls-27" d="m477.78,489.89l-13.29-25.35-167.41,109.89c-6.22,4.16-7.92,12.65-3.76,18.87,4.16,6.22,12.65,7.92,18.87,3.76l165.59-107.17Z"/>
        <path class="cls-34" d="m548.15,389.29c-27.28,7.86-47.26,6.61-60.44-1.2-5.82-4.58,1.26-14.13,7.9-14.24,14.81,7.08,32.15,4.45,50.5-2,4.25-.05,7.98,3.33,8.63,7.81h0c.67,4.67-2.23,8.92-6.59,9.63Z"/>
        <path class="cls-29" d="m464.04,493.1h0c-2.29-1.32-3.9-3.57-4.4-6.16l-66.14-338.17c-1.82-9.3,8.15-16.42,16.35-11.68h0l67.73,346.34c1.51,7.7-6.75,13.6-13.55,9.68Z"/>
        <path class="cls-43" d="m336,396.6h0c-2.29-1.32-3.9-3.57-4.4-6.16L265.46,52.27c-1.82-9.3,8.15-16.42,16.35-11.68h0l67.73,346.34c1.51,7.7-6.75,13.6-13.55,9.68Z"/>
        <path class="cls-43" d="m178.58,515.57l-22.96,10.63,101.3-449.85,19.93,11.51-94.07,419.92c-.88,3.92-.72,5.79-4.2,7.79Z"/>
        <polygon class="cls-29" points="370.34 267.08 236.06 189.56 256.56 177.15 379.08 247.52 370.34 267.08"/>
        <path class="cls-43" d="m256.53,76.34s22.23-91.83,103.04-45.17c80.81,46.66,56.38,137.22,56.38,137.22l-19.93-11.51s22.77-68.02-37.01-111.42c-59.78-43.41-82.56,42.39-82.56,42.39l-19.93-11.51Z"/>
        <polygon class="cls-7" points="383.87 287.02 233.87 200.42 236.14 189.54 386.14 276.14 383.87 287.02"/>
        <polygon class="cls-29" points="352.68 347.85 218.4 270.32 238.89 257.91 361.41 328.29 352.68 347.85"/>
        <polygon class="cls-7" points="366.2 367.79 216.2 281.19 218.47 270.3 368.47 356.91 366.2 367.79"/>
        <polygon class="cls-29" points="335.01 428.62 200.73 351.09 221.23 338.68 343.75 409.05 335.01 428.62"/>
        <polygon class="cls-7" points="348.54 448.56 198.54 361.95 200.81 351.07 350.81 437.67 348.54 448.56"/>
        <polygon class="cls-29" points="317.34 509.38 183.07 431.86 203.56 419.45 326.08 489.82 317.34 509.38"/>
        <polygon class="cls-7" points="330.87 529.32 180.87 442.72 183.14 431.84 333.14 518.44 330.87 529.32"/>
        <path class="cls-43" d="m313.89,596.39l-19.6,11.84,101.73-451.35,19.93,11.51-95.52,419.92c-.86,3.79-3.22,6.07-6.55,8.08Z"/>
        <path class="cls-7" d="m286.85,608.09h0c-2.26-1.58-3.33-4.37-2.69-7.06,10.71-44.72,98.49-410.45,108.8-461.31,4.31-21.26.6-44-11.04-67.61-.92-1.87-1.86-3.68-2.8-5.4-7.84-14.42-19.1-26.19-30.74-32.46-30.04-16.17-54.12-14.56-71.74,4.83-15.63,17.2-20.05,42.46-20.1,42.72l-.04.22-94.21,438.88c-1,4.64-6.37,6.8-10.3,4.14l-.46-.31c-2.28-1.54-3.39-4.32-2.79-7.01L247.85,74.89c.39-2.22,5.18-27.8,21.49-45.75,9.9-10.9,22-16.67,35.95-17.15,17.45-.61,36.81,6.98,59.42,22.75l2.49,2.15c.48.54,16.11,14.44,24.29,36.65,6.99,18.99,16.21,43.35,10.15,73.27-10.01,49.35-89.97,394.85-104.43,457.3-1.07,4.62-6.46,6.69-10.35,3.98Z"/>
        <g>
          <g>
            <polygon class="cls-15" points="466.41 459.02 378.21 408.1 455.74 366.72 541.01 415.95 466.41 459.02"/>
            <polygon class="cls-3" points="378.21 408.1 377.91 422.77 466.41 473.86 466.41 459.02 378.21 408.1"/>
            <polygon class="cls-4" points="466.41 473.86 541.01 430.79 541.01 415.95 466.41 459.02 466.41 473.86"/>
          </g>
          <ellipse class="cls-3" cx="461.16" cy="410.18" rx="28.77" ry="49.83" transform="translate(48.49 869.1) rotate(-89.69)"/>
          <polygon class="cls-3" points="411.71 406.54 448.61 306.48 469.65 306.48 509.43 403.22 411.71 406.54"/>
          <path class="cls-9" d="m436.41,338.71l-7.8,21.15c19.84,10.61,45.95,10.3,61.7-2.84l-8.23-20c-14.98,10.88-31.59,8.46-45.67,1.69Z"/>
          <path class="cls-9" d="m426.1,403.26c19.52,11.27,51.07,11.33,70.46.13,4.07-2.35,7.27-5.01,9.63-7.85l-7.3-17.75c-.75.49-1.51.98-2.33,1.45-19.4,11.2-50.94,11.14-70.46-.13-1.18-.68-2.28-1.39-3.31-2.11l-6.66,18.07c2.41,2.97,5.73,5.75,9.98,8.2Z"/>
          <path class="cls-15" d="m466.59,310.79c-4.1,2.36-10.76,2.35-14.88-.03-4.12-2.38-4.14-6.23-.05-8.59,4.1-2.36,10.76-2.35,14.88.03,4.12,2.38,4.14,6.23.05,8.59Z"/>
          <path class="cls-10" d="m426.16,416.66h0c-2.29-1.06-3.47-3.62-2.78-6.05l23.71-83.67c.86-3.03,4.22-4.58,7.08-3.26h0c2.29,1.06,3.47,3.62,2.78,6.05l-23.71,83.67c-.86,3.03-4.22,4.58-7.08,3.26Z"/>
        </g>
        <g>
          <ellipse class="cls-27" cx="77.3" cy="486.93" rx="48.05" ry="27.74" transform="translate(-2.64 .43) rotate(-.31)"/>
          <path class="cls-23" d="m55.49,259.97c1.27-1.47,3.05-2.33,4.76-3.18,1.84-.92,3.73-1.71,5.68-2.37,3.98-1.34,8.09-2.05,12.29-1.92,2.46.08,2.46-3.74,0-3.82-4.66-.15-9.32.67-13.72,2.19-2.18.76-4.32,1.67-6.38,2.71-1.93.97-3.91,2.02-5.35,3.68-1.6,1.85,1.09,4.57,2.7,2.7h0Z"/>
          <path class="cls-16" d="m115.7,279.99c.21-1.63-.05.32-.1.63-.09.57-.19,1.13-.3,1.7-.21,1.12-.45,2.23-.72,3.33-.52,2.14-1.15,4.25-1.9,6.32-.18.5-.37,1-.56,1.5-.1.25-.19.49-.29.73-.24.58-.2.48.12-.29-.16.9-.88,1.95-1.29,2.77-.83,1.67-1.76,3.29-2.78,4.84-.46.7-1.02,1.35-1.46,2.06.9-1.47.19-.25-.11.1-.27.32-.54.63-.82.94-.54.59-1.09,1.15-1.68,1.69-.28.26-.56.5-.86.75-1.13.94.87-.6.08-.06-.57.39-1.14.77-1.75,1.1-.27.15-.64.25-.88.44,1.01-.41,1.24-.51.71-.3-.15.06-.29.11-.44.16-.29.1-.58.18-.88.25-.65.16-1.39-.03.43,0-.58,0-1.15.08-1.73.04-3-.21-5.87,2.79-5.73,5.73.15,3.29,2.52,5.51,5.73,5.73,5.84.41,11.33-3.27,15.09-7.41,4.9-5.38,8.23-12.02,10.54-18.87,1.53-4.52,2.42-9.15,3.02-13.88.17-1.35-.77-3.14-1.68-4.05-.99-.99-2.63-1.74-4.05-1.68s-3.02.55-4.05,1.68c-1.1,1.2-1.47,2.46-1.68,4.05h0Z"/>
          <path class="cls-19" d="m83.16,255.04c1.18,15.48,2.96,30.88,6.15,46.09.9,4.27,1.87,8.52,2.86,12.77.91,3.9,5.58,6.58,9.4,5.34,4.07-1.32,6.32-5.23,5.34-9.4-2.56-10.9-4.87-21.85-6.36-32.96l.27,2.03c-1.05-7.93-1.77-15.89-2.38-23.86-.16-2.05-.75-3.91-2.24-5.41-1.33-1.33-3.5-2.32-5.41-2.24-3.88.17-7.97,3.37-7.65,7.65h0Z"/>
          <g>
            <path class="cls-54" d="m75.02,480.42l.96-.5c.55-.29.76-.97.47-1.52h0c-.29-.55-.97-.76-1.52-.47l-.96.5c-.55.29-.76.97-.47,1.52h0c.29.55.97.76,1.52.47Z"/>
            <path class="cls-36" d="m76.59,478.89v-5.09c0-.62-.51-1.12-1.12-1.12h0c-.62,0-1.12.51-1.12,1.12v5.09c0,.62.51,1.12,1.12,1.12h0c.62,0,1.12-.51,1.12-1.12Z"/>
            <g>
              <path class="cls-35" d="m70.99,465.25c1.14,5.77,2.39,14.36,2.39,14.36l2.09.4-.33-6c.25-.89,1.79.08,2.44,1.03,3.85,5.61,1.39,9.13,5.16,11.71,0,0,8.77,3.98,17.58,2.34,0,0,4.15-1.54,2.36-4.07-3.52-4.98-16.5-18.84-19.04-22.1l-.69-.22-4.65-7.46c-1.75-.51-5.03,2.1-6.27,4.51-1.04,1.12-1.51,3.12-1.04,5.51Z"/>
              <path class="cls-8" d="m79.49,454.6l3.9,3.23s9.8,15.34,11.65,18.4c2.15,3.56-10.73,9.69-19.58-11.25-6.45-11.06,4.03-10.39,4.03-10.39Z"/>
            </g>
          </g>
          <path class="cls-8" d="m82.65,334.64c.24,15.85.21,31.72-.35,47.56-.41,11.53-1.1,23.05-2.23,34.53-.51,5.16-1.11,10.31-1.8,15.45l.27-2.03c-1,7.43-2.2,14.83-3.45,22.21-.33,1.97-.67,3.94-1,5.91-.35,2.08-.33,4.01.77,5.89.93,1.59,2.75,3.1,4.57,3.51,3.7.84,8.69-1.12,9.4-5.34,2.07-12.22,4.1-24.43,5.56-36.74,1.99-16.68,2.97-33.47,3.41-50.26.35-13.56.35-27.13.14-40.7-.06-4-3.47-7.83-7.65-7.65s-7.71,3.36-7.65,7.65h0Z"/>
          <path class="cls-16" d="m62.66,346.54c-1.03,18.06-2.22,36.12-3.33,54.17-.96,15.49-1.86,30.99-2.38,46.5-.27,8.06-.43,16.13-.43,24.2,0,4,3.52,7.83,7.65,7.65s7.64-3.36,7.65-7.65c0-14.61.54-29.22,1.28-43.81.84-16.47,1.92-32.94,2.96-49.4.67-10.55,1.32-21.11,1.92-31.66.23-4-3.68-7.82-7.65-7.65-4.34.19-7.4,3.36-7.65,7.65h0Z"/>
          <path class="cls-23" d="m47.76,351.27c1.55,21.49,15.29,23.65,29.17,15.65,13.87-8.01,21.59-26.23,21.59-42.25,0,0-7.72-23.76-21.59-15.75-13.87,8.01-30.97,17.41-29.17,42.35Z"/>
          <path class="cls-31" d="m95.03,262.49s9.18,14.43,8.14,23.14c-.67,5.54-4.66,11.77-5.25,13.55-4.78,14.52-2.14,18.92-2.65,22.93,0,0-3.19,13.81-37.27.76l-14.31-42.06,51.35-18.32Z"/>
          <path class="cls-31" d="m46.2,290.03c-1.25-.77-1.56-2.82-1.56-2.82-.87-7.5-4.99-10.9,3.17-23.74,1.31-2.06,19.15-11.31,32.57-13.73,6.5-1.17,12.93,2.44,15.55,8.51,1.53,3.55,3.02,10.56,3.02,10.56.64,13.77-5.46-4.31-6.43,3.29.03-.18.08-.37.11-.55,0,0-1.66,12.84-2.92,22.79-.78,6.2-1.33,10.69-1.38,11.32,0,.03,0,.07,0,.08l-23.26,18.34-12.24-22.1h0l-6.61-11.93Z"/>
          <path class="cls-16" d="m79.54,249.53s11.63,12.01,1.54,20.52c-10.08,8.51-27.26-10.51-27.26-10.51,9.02-5.64,17.68-9.48,25.71-10.01Z"/>
          <path class="cls-23" d="m98.51,324.66l4.66,74.26c0,1.01-.29,1.99-.84,2.87-3.43,5.51-9.76,24.24-44.34,16.13-3.99-.93-5.5-1.34-5.32-4.81l-4.63-63.26,20.6-.27,29.86-24.92Z"/>
          <path class="cls-16" d="m76.86,253.65l4.61-21.01-14.21,3.99-3.81,16.37c-1.52,4.89,9.79,11.37,13.42.66Z"/>
          <g>
            <path class="cls-54" d="m58.45,489.34l.96-.5c.55-.29.76-.97.47-1.52h0c-.29-.55-.97-.76-1.52-.47l-.96.5c-.55.29-.76.97-.47,1.52h0c.29.55.97.76,1.52.47Z"/>
            <path class="cls-36" d="m60.02,487.81v-5.09c0-.62-.51-1.12-1.12-1.12h0c-.62,0-1.12.51-1.12,1.12v5.09c0,.62.51,1.12,1.12,1.12h0c.62,0,1.12-.51,1.12-1.12Z"/>
            <g>
              <path class="cls-35" d="m54.42,474.17c1.14,5.77,2.39,14.36,2.39,14.36l2.09.4-.33-6c.25-.89,1.79.08,2.44,1.03,3.85,5.61,1.39,9.13,5.16,11.71,0,0,8.77,3.98,17.58,2.34,0,0,4.15-1.54,2.36-4.07-3.52-4.98-16.5-18.84-19.04-22.1l-.69-.22-4.65-7.46c-1.75-.51-5.03,2.1-6.27,4.51-1.04,1.12-1.51,3.12-1.04,5.51Z"/>
              <path class="cls-16" d="m62.93,463.52l3.9,3.23s9.8,15.34,11.65,18.4c2.15,3.56-10.73,9.69-19.58-11.25-6.45-11.06,4.03-10.39,4.03-10.39Z"/>
            </g>
          </g>
          <path class="cls-26" d="m49.87,286.11c1.14,2.59,2.76,5.25,4.71,7.92,5.01,6.85,13.66,9.94,21.92,7.96,12.13-2.9,24.42-9.06,24.42-9.06,0,0-5.25,16.86-3.42,26.68.85,4.56.24,3.71.24,3.71-.26,4.35-7.44,3.16-7.44,3.16-15.35,4.77-32.3-3.63-32.3-3.63l-9.95-29.11,1.82-7.65Z"/>
          <path class="cls-41" d="m99.5,322.16h0c.18,1-.2,2.01-1,2.63-2.89,2.25-10.62,7.04-22.76,5.73-10.4-1.13-16.48-3.41-19.41-4.82-1.26-.61-1.87-2.07-1.38-3.38l.3-.81c.53-1.45,2.16-2.17,3.59-1.57,5.5,2.31,18.58,7.06,27.77,4.31,4.24-1.27,6.96-2.62,8.71-3.83,1.62-1.12,3.84-.19,4.19,1.74Z"/>
          <path class="cls-9" d="m82.12,331.49l5.89-1.16c1.96-.39,3.56-2.31,3.56-4.26h0c0-1.96-1.6-3.24-3.56-2.86l-5.89,1.16c-1.96.39-3.56,2.31-3.56,4.26h0c0,1.96,1.6,3.24,3.56,2.86Z"/>
          <path class="cls-23" d="m79.99,251.19c0,2.16.83,4.49,1.28,6.58.56,2.59,1.15,5.16,1.29,7.6.02.36-.18.44.03.07-.15.28.38-.36.12-.23-.07.04-.36.61-.38.64-.6.83-1.51,1.45-2.39,1.95-1.75,1-3.77,1.47-5.78,1.45-3.68-.03-6.48-2.09-9.47-3.95-1.34-.83-2.67-1.66-4.02-2.47-1.95-1.18-3.16-3.17-4.87-4.65-1.85-1.6-4.57,1.09-2.7,2.7s3.25,3.78,5.43,5.12c1.14.71,2.3,1.4,3.44,2.11,3.53,2.19,6.81,4.51,11.08,4.9,4.49.41,9.98-1.34,12.58-5.25,1.56-2.34.39-5.83-.12-8.35-.35-1.77-.75-3.53-1.13-5.3-.15-.7-.3-1.4-.44-2.11-.05-.24-.08-.48-.13-.72-.04-.23,0,.44,0-.1,0-2.46-3.82-2.46-3.82,0h0Z"/>
          <path class="cls-21" d="m89.28,211.97c.72,5.23,4.12,9.49,5.43,14.52.3,1.17.46,2.35.37,3.56-.11,1.41-.99,2.14-1.77,3.23-1.63,2.27-2.37,5.15-2.19,7.92.16,2.44,3.99,2.46,3.82,0-.09-1.38.05-2.7.55-4s1.38-2.23,2.18-3.32c1.65-2.26,1.43-5.46.81-8.05-1.23-5.19-4.78-9.54-5.52-14.88-.14-1.02-1.45-1.59-2.35-1.33-1.1.31-1.48,1.32-1.33,2.35h0Z"/>
          <circle class="cls-21" cx="55.7" cy="214.97" r="13.42" transform="translate(-130.25 93.58) rotate(-42.34)"/>
          <path class="cls-16" d="m76.92,202.8h4.54c7.02,0,12.72,5.7,12.72,12.72v23.11c0,7.02-5.7,12.72-12.72,12.72h-4.54c-7.02,0-12.72-5.7-12.72-12.72v-23.11c0-7.02,5.7-12.72,12.72-12.72Z" transform="translate(150.77 456.67) rotate(-178.09)"/>
          <path class="cls-21" d="m72.81,221.78c5.28-6.52,15.04,1.25,20.31-.78,5.72-2.21,3.77-8.08-.1-12.82-2.08-2.55-4.73-4.69-10.01-6.69-14.79-5.59-29.63.67-30.19,17.4,0,0-1.35,22.92,12,26.3l.87-3.35s-4.81-6.83,3.37-11.78c1.91-1.15.36-1.94.18-4.72-.18-2.81,1.81-1.36,3.58-3.55Z"/>
          <path class="cls-16" d="m61.26,238.62c2.04,1.69,4.37,1.11,5.21-1.31.84-2.42-.13-5.75-2.17-7.44-2.04-1.69-4.37-1.11-5.21,1.31-.84,2.42.13,5.75,2.17,7.44Z"/>
          <path class="cls-9" d="m89.69,238.26l-7.86,3.37c-.32.14-.53.48-.48.82.18,1.25,1.07,3.89,5.36,2.36,3.01-1.07,3.85-3.99,4.08-5.72.08-.61-.54-1.07-1.1-.83Z"/>
          <ellipse class="cls-49" cx="80.72" cy="233.32" rx=".88" ry="1.78"/>
          <ellipse class="cls-49" cx="90.8" cy="229.31" rx=".88" ry="1.78"/>
          <path class="cls-21" d="m80.18,228.57c-1.73.03-3.96,1.07-5.16,2.32-.85.89-2.2-.46-1.35-1.35,1.54-1.61,4.28-2.83,6.51-2.88,1.23-.02,1.23,1.89,0,1.91h0Z"/>
          <path class="cls-21" d="m93.01,223.7c-1.72-.1-4.05.71-5.34,1.87-.91.82-2.27-.53-1.35-1.35,1.65-1.49,4.46-2.55,6.69-2.43,1.22.07,1.23,1.98,0,1.91h0Z"/>
          <path class="cls-21" d="m68.39,218.85c-.02,2.93-.28,5.88-.72,8.77s-1.04,6.15-2.28,8.95-3.97,4.85-5.61,7.55c-.89,1.47-1.44,3.18-1.31,4.92.15,2.07,1.33,3.94,1.36,6.01.03,2.46,3.85,2.46,3.82,0-.02-2.14-1.11-3.93-1.36-6.01-.18-1.52.62-2.88,1.52-4.04,1.07-1.38,2.32-2.61,3.38-4.01.88-1.15,1.5-2.4,2.03-3.74,2.25-5.69,2.94-12.32,2.99-18.4.02-2.46-3.8-2.46-3.82,0h0Z"/>
          <path class="cls-16" d="m40.73,269.1c-4.03,6.74-8.06,13.48-12.08,20.23-3.26,5.45-5.43,11.19-5.74,17.61-.2,4.32.48,8.86,2.07,12.88.89,2.27,1.91,4.47,3.27,6.5,1.24,1.84,2.67,3.56,4.07,5.28,2.33,2.85,4.74,5.64,7.05,8.51.28.34.55.69.83,1.03s1.42,1.87.38.47c.63.85,1.28,1.68,1.9,2.53,1.61,2.18,3.15,4.41,4.66,6.67,1.66,2.49,5.13,3.8,7.85,2.06,2.48-1.6,3.84-5.18,2.06-7.85-4.37-6.54-9.22-12.68-14.27-18.71-1.06-1.26-2.11-2.52-3.14-3.81-.24-.3-.47-.59-.71-.89-.81-1.01.67.93-.21-.28-.61-.84-1.17-1.72-1.68-2.63-.22-.39-.43-.79-.63-1.2-.11-.23-.22-.47-.33-.69-.29-.58-.34-.13.12.31-.25-.25-.36-.91-.48-1.25-.19-.54-.37-1.08-.52-1.63-.26-.91-.47-1.84-.63-2.78-.03-.18-.04-.39-.09-.56.36,1.21.1.84.06.4-.06-.57-.11-1.13-.13-1.7-.05-.95-.04-1.9,0-2.85.02-.44.06-.89.1-1.33.04-.35-.14-.92.01-.18-.07.51-.07.51,0,0l.06-.38c.17-.94.39-1.88.65-2.8.12-.43.26-.86.4-1.29.08-.24.17-.49.26-.73.03-.08.51-1.26.14-.4-.33.78.01-.02.1-.21.11-.24.22-.47.34-.71.2-.41.42-.82.64-1.22.15-.26.3-.52.45-.78.21-.36.43-.71.64-1.07,2.25-3.77,4.5-7.54,6.75-11.3,1.89-3.16,3.78-6.32,5.67-9.48,1.54-2.58.66-6.41-2.06-7.85s-6.2-.69-7.85,2.06h0Z"/>
          <path class="cls-31" d="m43.04,265.99c1.47-1.9-.04.04-.34.42-.41.52-.82,1.04-1.24,1.55-.79.99-1.6,1.97-2.4,2.94-1.48,1.79-2.98,3.57-4.48,5.35-2.87,3.42-5.76,6.87-8.26,10.57-2.13,3.15-3.92,6.67-4.92,10.34-1.21,4.43-1.13,8.83-.4,13.31.91,5.57,3.39,10.92,6,15.88,1.86,3.55,7.1,4.91,10.46,2.74,3.61-2.33,4.74-6.67,2.74-10.46-.94-1.78-1.82-3.59-2.61-5.44l.77,1.83c-1.24-2.96-2.25-6.02-2.71-9.21l.27,2.03c-.27-2.03-.31-4.06-.04-6.1l-.27,2.03c.27-1.82.77-3.57,1.46-5.27l-.77,1.83c.86-2.04,1.97-3.96,3.21-5.8.68-1.01,1.41-1.99,2.14-2.96.8-1.06-1.25,1.59-.41.54.2-.26.4-.51.61-.77.42-.53.84-1.05,1.27-1.57,4.39-5.35,8.88-10.6,13.11-16.08,1.12-1.46,1.23-4.22.77-5.89-.49-1.77-1.86-3.7-3.51-4.57-1.77-.94-3.92-1.41-5.89-.77s-3.28,1.84-4.57,3.51h0Z"/>
          <path class="cls-16" d="m49.53,362.87h0c4.11.42,7.81-2.6,8.23-6.71l.79-7.72c.42-4.11-2.6-7.81-6.71-8.23h0c-4.11-.42-7.81,2.6-8.23,6.71l-.79,7.72c-.42,4.11,2.6,7.81,6.71,8.23Z"/>
          <path class="cls-6" d="m77.88,251.29c-1.76-.03-5.94-1.45-7.57-2.73,0,0,2.67,4.63,6.49,5.95l1.08-3.21Z"/>
          <path class="cls-20" d="m144.07,262.96c-1.9,3.37-2.03,6.89-.29,7.87,1.74.98,4.68-.96,6.58-4.33,1.9-3.37,2.03-6.89.29-7.87-1.74-.98-4.68.96-6.58,4.33Z"/>
          <rect class="cls-38" x="112.66" y="252.14" width="11.18" height="35.97" rx="5.32" ry="5.32" transform="translate(-12.1 5.62) rotate(-2.59)"/>
          <rect class="cls-16" x="118.12" y="261.73" width="13.17" height="22.13" rx="6.54" ry="6.54"/>
          <rect class="cls-16" x="109.68" y="267.74" width="6.59" height="6.83" rx="2.42" ry="2.42"/>
          <path class="cls-14" d="m118.23,248.75c-.23-.17-7.38-3.76-7.67-3.84-.82-.62-2.04-.68-3.47-.02-2.77,1.28-5.24,4.79-5.52,7.83-.17,1.91.56,3.18,1.82,3.55.23.17,7.38,3.76,7.67,3.84.82.62,2.04.68,3.47.02,2.77-1.28,5.24-4.79,5.52-7.83.17-1.91-.56-3.18-1.82-3.55Z"/>
          <path class="cls-33" d="m119.08,249.08c-.23-.17-7.38-3.76-7.67-3.84-.82-.62-2.04-.68-3.47-.02-2.77,1.28-5.24,4.79-5.52,7.83-.17,1.91.56,3.18,1.82,3.55.23.17,7.38,3.76,7.67,3.84.82.62,2.04.68,3.47.02,2.77-1.28,5.24-4.79,5.52-7.83.17-1.91-.56-3.18-1.82-3.55Z"/>
          <path class="cls-14" d="m128.57,250.9c-.33-.25-10.92-5.56-11.34-5.69-1.21-.92-3.02-1.01-5.13-.03-4.1,1.9-7.76,7.08-8.16,11.58-.26,2.83.83,4.71,2.69,5.25.33.25,10.92,5.56,11.34,5.69,1.21.92,3.02,1.01,5.13.03,4.1-1.9,7.76-7.08,8.16-11.58.26-2.83-.83-4.71-2.69-5.25Z"/>
          <path class="cls-33" d="m106.87,249.45c-1.24,1.94-2.07,4.09-2.26,6.11-.26,2.83.83,4.71,2.69,5.25.33.25,10.92,5.56,11.34,5.69,1.21.92,3.02,1.01,5.13.03,2.97-1.37,5.2-3.42,6.64-6.74l-23.54-10.34Z"/>
          <path class="cls-30" d="m128.58,250.84l29.84,2.14-21.05,39.23-22.28-26.6c1.15-8.47,6.9-16.55,13.49-14.77Z"/>
          <path class="cls-31" d="m149.93,268.8l-11.79,20.99s-22.85-25.43-22.72-26.05c.71-3.26,2.07-6.36,3.87-8.73l30.64,13.79Z"/>
          <ellipse class="cls-14" cx="146.46" cy="271.62" rx="22.68" ry="13.1" transform="translate(-162.09 276.6) rotate(-62.59)"/>
          <ellipse class="cls-33" cx="149.52" cy="273.36" rx="22.68" ry="13.1" transform="translate(-161.99 280.26) rotate(-62.59)"/>
          <ellipse class="cls-9" cx="148.31" cy="272.42" rx="21.03" ry="12.14" transform="translate(-161.8 278.67) rotate(-62.59)"/>
          <path class="cls-30" d="m138.73,264.54c2.97-4.95,6.98-8.1,8.79-9.25,7.99-5.11,14.82-1.57,15.25,7.91.12,2.71.01,5.77-2.4,12.09-3.4-10.68-12.74-12.67-21.64-10.74Z"/>
          <path class="cls-31" d="m135.11,274.96c-.19-4.13,2.73-9.29,6.51-11.53,1.81-1.07,3.5-1.28,4.78-.75h0s.06.02.06.02c.06.02.11.05.17.08l4.72,2.2c.19.07.37.15.54.25h0s0,0,0,0c1.16.67,1.91,2.04,2,3.97.19,4.13-2.73,9.29-6.51,11.53-1.78,1.05-3.44,1.27-4.71.78h0s0,0,0,0c-.14-.06-.28-.12-.41-.19l-4.34-2.05c-.38-.11-.73-.27-1.04-.49h0s0,0,0,0c-1.02-.72-1.67-2.02-1.75-3.81Z"/>
          <path class="cls-44" d="m143.38,258.67c.05.02,7.85,4.06,7.85,4.06.17.07.34.15.5.25h0c1.07.68,1.77,2.04,1.86,3.97.19,4.13-2.48,9.28-5.96,11.5-1.64,1.05-3.17,1.26-4.34.76h0s0,0,0,0c-.13-.06-.26-.12-.38-.19,0,0-8-4.25-8.29-4.48.92-3.7,3-9.87,8.77-15.87Z"/>
          <path class="cls-45" d="m134.61,274.54s.52-4.05,3.61-9.17c1.52-2.52,2.77-4.31,5.16-6.7l1.45.75s-6.44,6.34-8.31,16.19l-1.92-1.06Z"/>
          <polygon class="cls-9" points="126.38 251.48 144.54 252.86 139.28 257.19 124.25 253.78 126.38 251.48"/>
          <polygon class="cls-11" points="111.81 246.87 121.28 251.86 123.68 250.33 114.04 245.44 111.81 246.87"/>
        </g>
        <g>
          <path class="cls-38" d="m183.24,213.15l-62.65-36.17c-3.49-2.01-5.68-6.96-4.89-11.06l22.66-117.42c.79-4.09,4.26-5.77,7.75-3.76l62.65,36.17c3.49,2.01,5.68,6.96,4.89,11.06l-22.66,117.42c-.79,4.09-4.26,5.77-7.75,3.76Z"/>
          <path class="cls-33" d="m161.08,86.9l-13.47-7.78c-2.73-1.58-4.45-5.45-3.83-8.66h0c.62-3.2,3.34-4.52,6.07-2.94l13.47,7.78c2.73,1.58,4.45,5.45,3.83,8.66h0c-.62,3.2-3.34,4.52-6.07,2.94Z"/>
          <path class="cls-9" d="m175.74,117.76l-20.31-11.73c-2.16-1.25-3.52-4.32-3.03-6.85h0c.49-2.54,2.64-3.58,4.8-2.33l20.31,11.73c2.16,1.25,3.52,4.32,3.03,6.85h0c-.49,2.54-2.64,3.58-4.8,2.33Z"/>
          <path class="cls-25" d="m188.71,148.63l-37.33-21.55c-2.16-1.25-3.52-4.32-3.03-6.85h0c.49-2.54,2.64-3.58,4.8-2.33l37.33,21.55c2.16,1.25,3.52,4.32,3.03,6.85h0c-.49,2.54-2.64,3.58-4.8,2.33Z"/>
          <path class="cls-9" d="m167.62,159.84l-20.31-11.73c-2.16-1.25-3.52-4.32-3.03-6.85h0c.49-2.54,2.64-3.58,4.8-2.33l20.31,11.73c2.16,1.25,3.52,4.32,3.03,6.85h0c-.49,2.54-2.64,3.58-4.8,2.33Z"/>
          <path class="cls-33" d="m146.26,169.61l-13.91-8.03c-2.16-1.25-3.52-4.32-3.03-6.85h0c.49-2.54,2.64-3.58,4.8-2.33l13.91,8.03c2.16,1.25,3.52,4.32,3.03,6.85h0c-.49,2.54-2.64,3.58-4.8,2.33Z"/>
        </g>
        <path class="cls-39" d="m298.51,192.8l-18.27,14.31,3.27,1.86c-1.6,1.53-3.08,3.26-4.42,5.23-5.43,8.03-6.99,16.19-7.98,25.67-1.35,12.91-1.98,26.05-.68,39-.74-.14-1.49.4-1.57,1.23l-.62,6.7c-.05.49.16.96.54,1.24.78.57,2.35,1.56,4.9,2.48.09.32.21.62.34.91-7.28,2.13-14.61,5.92-14.61,5.92l-4.25,2.92-4.05,2.79c-.63.43-1.03,1.03-1.16,1.71-.04.21-.05.43-.04.66-.52.64-.75,1.46-.61,2.34.36,2.3,3,4.26,5.71,4.22,4.65-.06,6.95.78,14.21-1.52.43-.14,4.92-2.99,5.32-3.12.62-.2,6.75-2.47,7.73-2.88,1.33-.56,3.77-.85,4.96-2.74l-.61,2.12c-.14.5-.04,1.03.28,1.4.42.47,1.12,1.18,2.17,1.99.3.87.73,1.67,1.28,2.37,0,.04,0,.06,0,.1-1.54,1.46-2.98,3.31-4.36,5.23-1.18,1.65-3.92,5.13-4.96,6.25-.76.81-2.17,3.7-2.58,4.72l-1.59,4.35c-.15.4-.16.76-.08,1.08l-.28.88c-.45,1.05.25,2.44,1.14,3.28l.55.3c3.75,1.72,6.28,1.31,8.36-.08,3.56-2.39,4.9-2.48,9.16-7.86.25-.32,4-4.95,5.3-7.8.25-.54,1.17-3.18,1.32-4.11.15-.92.35-1.66.15-2.54.06-.36.09-.72.1-1.06.31-.17.61-.37.9-.59,2.8-.74,4.73-2.42,5.46-3.15.21-.21.35-.47.41-.76l1.53-6.82c.3-1.33-1.13-2.35-2.3-1.26-.18-.11-.01,0-.2-.12,2.72-10,5.87-19.87,9.11-29.73,1.04-3.17,1.84-6.4,2.75-9.61.47-1.66.95-3.31,1.5-4.94.27-.8.56-1.6.85-2.39.06-.17.11-.3.15-.41.05-.09.1-.2.16-.33,2.56-5.25,5.6-8.39,10.42-11.83,4.59-3.27,9.36-6.31,14.2-9.24,5.4-3.28,5.06-11.22-.58-14.06l-48.41-24.31Zm9.01,49.58c-3.35,6.74-4.79,13.97-7.05,21.08-3.43,10.85-6.99,21.61-9.96,32.58-.71-.37-1.65.06-1.9.96l-.7,2.43c.02-.3.01-.63-.01-.97.68-1.15.9-2.79.11-5.23-.29-.91-.82-1.59-1.52-2.09,2.47-1.17,3.96-2.98,4.51-3.75.16-.23.25-.5.26-.78l.18-6.58c.03-1.07-1.08-1.74-1.99-1.23-.29.16-.57.29-.85.44-1.69-12.28-.67-25.3.51-37.54.43-4.49.56-6.13,1.51-10.56,0-.02.01-.04.02-.06.13-.28.25-.56.38-.84.37-.74.71-1.5,1.09-2.24.82-1.6,1.72-3.13,2.69-4.64.08-.12.14-.22.19-.31.03-.03.05-.06.09-.09.47-.5.98-1,1.43-1.51.22-.25.87-.76,1.08-.92.29-.2.59-.39.89-.56.75-.43,1.5-.83,2.25-1.22l3.85,2.19,13.99,8.08c-4.46,3.76-8.41,8.04-11.05,13.36Z"/>
        <g>
          <path class="cls-37" d="m277.25,329.06c.25-.32,4-4.95,5.3-7.8.25-.54,1.17-3.18,1.32-4.11.33-2.07.95-3.21-3.39-7.08-7.09-6.33-20.5,17.31-20.5,17.31l-1.94,6.03c-.45,1.05.25,2.44,1.14,3.28l.55.3c3.75,1.72,6.28,1.31,8.36-.08,3.56-2.39,4.9-2.48,9.16-7.86Z"/>
          <path class="cls-42" d="m277.48,327.03c.25-.32,11.15-13.67,4.49-17.85-5.87-3.68-10.41,1.39-14.42,6.96-1.18,1.65-3.92,5.13-4.96,6.25-.76.81-2.17,3.7-2.58,4.72l-1.08,4.79c-.41,1.02,1.35.41,2.28,1.24l1.89-4.05c1.81,1.6,2.3,7.26,4.44,5.86,3.67-2.4,5.67-2.48,9.95-7.92Z"/>
          <path class="cls-22" d="m272.21,332.26c-.99.58-3.1,1.85-4.24,2.59-2.14,1.4-4.76.92-7.25-.22-1.22-.55-2.92-1.48-2.3-3.16l1.59-4.35c2.09-.45,7.46,1.59,12.2,5.14Z"/>
          <path class="cls-32" d="m273.29,302.62c2.7,4,9.82,5.02,13.33,1.41-.44,2.31-.91,4.61-1.45,6.89-2.17,9.3-15.25,6.59-13.08-2.75.43-1.84.82-3.69,1.19-5.55Z"/>
          <path class="cls-16" d="m302.22,125.1c-.16,2.1-.36,4.2-.61,6.29-.05.45-.12.9-.17,1.36,0,.04.18-1.28.08-.62-.03.18-.05.36-.08.55-.13.86-.26,1.73-.42,2.59-.49,2.74-1.12,5.45-1.98,8.09-.38,1.16-.81,2.3-1.27,3.43-.42,1.05.54-1.22.16-.38-.12.26-.23.52-.35.78-.25.56-.51,1.12-.78,1.67-1.09,2.28-2.27,4.51-3.42,6.75-1.59,3.1-3.17,6.21-4.45,9.45-1.14,2.86-1.78,5.78-2.14,8.83-.52,4.35.13,8.67.26,13.03.04,1.38.03,2.77-.05,4.15-.05.77-.12,1.53-.2,2.29-.13,1.26.22-1.31,0-.04-.07.42-.13.85-.21,1.27-.78,4.3-2.17,8.46-3.82,12.51-.53,1.31-.09,3.34.59,4.5s2.1,2.37,3.49,2.69c3.39.77,5.95-1.04,7.19-4.08,2.73-6.69,4.6-13.75,4.71-21.02.07-4.44-.71-8.87-.46-13.31.03-.55.09-1.09.14-1.64.08-.89-.28,1.69-.06.47.06-.33.11-.66.17-.99.25-1.3.6-2.58,1.02-3.84.23-.68.49-1.36.76-2.03.38-.96-.51,1.14-.07.18.19-.42.39-.85.59-1.27.68-1.41,1.38-2.81,2.09-4.21,2.45-4.81,5.03-9.57,6.87-14.66,2.64-7.28,3.49-15.14,4.09-22.81.24-3.06-2.86-5.98-5.85-5.85-3.37.15-5.59,2.57-5.85,5.85h0Z"/>
          <path class="cls-35" d="m303.69,119.51l-10.11,29.63c-.92,9.1,19.45,11.78,20.88,4.42l7.24-29.29c.89-4.72-1.94-9.34-6.54-10.7h0c-4.8-1.41-9.86,1.21-11.48,5.94Z"/>
          <path class="cls-17" d="m296.15,146.61c5.05,2.65,11,3.29,16.48,1.66,2.4-.71,1.38-4.48-1.04-3.76-4.46,1.33-9.31.93-13.47-1.26-.93-.49-2.12-.24-2.67.7-.51.88-.24,2.17.7,2.67h0Z"/>
          <path class="cls-5" d="m322.95,186.17c-11.5,4.37-23.16,8.27-34.82,12.19-3.73,1.25-7.42,2.56-11.05,4.09-2.72,1.15-5.43,2.35-7.83,4.1-3.25,2.37-5.64,4.8-8.02,8.03-1.7,2.31-3.02,4.87-4.24,7.45-.85,1.8-1.85,3.67-2.37,5.59-.32,1.19-.51,2.43-.69,3.65-.78,5.07-1.34,10.17-1.76,15.28-.92,11.3-1.43,22.86-.15,34.16.22,1.96.48,3.92.8,5.87.34,2.11,2.41,4.4,4.18,5.43,1.95,1.14,4.82,1.62,7,.92s4.32-2.07,5.43-4.18c1.21-2.29,1.33-4.46.92-7-.11-.66-.2-1.32-.29-1.98l.32,2.42c-1.63-12.5-.97-25.39.17-37.9.26-2.86.56-5.72.95-8.57l-.32,2.42c.28-2.05.42-4.36,1.19-6.31l-.92,2.17c1.57-3.71,3.38-7.47,5.84-10.68l-1.42,1.84c1.14-1.48,2.45-2.8,3.93-3.95l-1.84,1.42c2.2-1.69,4.69-2.93,7.24-4.01l-2.17.92c3.96-1.67,8.06-3,12.14-4.36,6.19-2.06,12.38-4.11,18.53-6.28,4.72-1.67,9.42-3.4,14.11-5.18,2.27-.86,4.16-2.01,5.43-4.18,1.14-1.95,1.62-4.82.92-7s-2.07-4.32-4.18-5.43-4.75-1.77-7-.92h0Z"/>
          <g>
            <path class="cls-37" d="m250.79,311.67c.43-.14,4.92-2.99,5.32-3.12.62-.2,6.75-2.47,7.73-2.88,2.06-.86,6.8-1.07,5.39-7.59-2.05-9.55-28.03,2.38-28.03,2.38l-8.92,5.46c-1.09.66-1.61,1.79-1.41,3.04h0c.36,2.3,3,4.26,5.71,4.22,4.65-.06,6.95.78,14.21-1.52Z"/>
            <path class="cls-42" d="m251.53,308.91c.41-.15,4.58-3.13,4.96-3.27.59-.22,7.64-2.59,8.57-3.03,1.95-.94,6.51-1.96,4.5-8.19-2.94-9.13-28.59,4.13-28.59,4.13l-8.3,5.71c-1.01.7-1.42,1.81-1.11,3.01h0c.58,2.21,3.38,3.97,6.05,3.8,4.59-.29,6.95.42,13.91-2.15Z"/>
            <path class="cls-22" d="m242.51,310.92c-1.2.03-3.74.06-5.16.15-2.68.17-5.2-1.61-5.78-3.81-.31-1.2.1-2.31,1.11-3.01l4.05-2.79c3.13.89,5.26,4.18,5.79,9.45Z"/>
            <path class="cls-32" d="m255.75,282.77c3.13,3.76,10.5,4.16,13.75.25-.23,2.34-.5,4.67-.82,6.99-1.33,9.46-14.95,7.89-13.61-1.61.26-1.87.49-3.75.69-5.63Z"/>
          </g>
          <path class="cls-13" d="m272.99,281.22l-.18,6.58c0,.28-.09.55-.26.78-.96,1.34-4.77,5.85-11.66,4.62-6.05-1.09-9.29-3.04-10.54-3.96-.39-.28-.59-.76-.54-1.24l.62-6.7c.09-1,1.16-1.59,2-1.08,3.08,1.87,9.92,4.64,18.59-.22.91-.51,2.02.16,1.99,1.23Z"/>
          <path class="cls-5" d="m336.25,206.97c-8.88,5.29-17.86,10.45-26.49,16.14-5.42,3.58-11.04,7.44-15.26,12.46s-6.78,10.2-8.79,16.23c-1.8,5.37-3.04,10.9-4.82,16.28-3.86,11.63-7.51,23.33-10.42,35.24-.57,2.33-.31,4.91.92,7,1.1,1.88,3.26,3.68,5.43,4.18,4.68,1.07,9.97-1.41,11.18-6.35,2.55-10.46,5.66-20.78,9.02-31.01.94-2.88,1.94-5.74,2.84-8.64.78-2.51,1.35-5.09,2.08-7.62.79-2.76,1.65-5.5,2.76-8.15l-.92,2.17c1.11-2.63,2.5-5.12,4.24-7.39l-1.42,1.84c2.2-2.82,4.87-5.21,7.68-7.39l-1.84,1.42c4.11-3.16,8.51-5.94,12.91-8.67,6.64-4.1,13.36-8.06,20.06-12.06,4.08-2.43,5.93-8.28,3.26-12.43s-8.06-5.86-12.43-3.26h0Z"/>
          <path class="cls-13" d="m292.4,302.23l-1.53,6.82c-.07.29-.21.56-.41.76-1.22,1.22-5.89,5.23-12.43,2.68-5.74-2.24-8.53-4.86-9.57-6.05-.32-.37-.43-.89-.28-1.4l1.98-6.87c.3-1.03,1.46-1.44,2.19-.76,2.65,2.51,8.82,6.64,18.35,3.16,1-.37,1.96.53,1.71,1.64Z"/>
          <path class="cls-24" d="m321.61,223.02l-20.85-12.04c-4.97-2.87-6.69-9.29-3.82-14.26h0c2.87-4.97,9.29-6.69,14.26-3.82l20.85,12.04c4.97,2.87,6.69,9.29,3.82,14.26h0c-2.87,4.97-9.29,6.69-14.26,3.82Z"/>
          <path class="cls-47" d="m298.51,189.19c1.37,2.36,8.63-20.26,5.93-63.83l55.68,25.31c-4.09,28.61,1.16,28.77-9.09,64.04l-52.52-25.52Z"/>
          <path class="cls-35" d="m330.15,202.56c1.27,2.18,19.99-8.75,20.07-44.47.01-4.54.58-4.95,4.92-3.62l5.88-3.65c-1.82,23.2,1.51,29.97-3.27,52-1.63,7.53-10.33,11.08-16.78,6.85l-10.82-7.11Z"/>
          <path class="cls-47" d="m337.63,220.99c-15.82-5.11-30.93-10.79-40.07-21.18-4.38-2.32-4-6.71.85-9.75h0c4.85-3.05,11.79-7.44,16.17-5.12l38.19,22.32c4.38,2.32,1.79,5.35-3.06,8.4l-.19-2.78c-4.85,3.05-7.5,10.43-11.89,8.11Z"/>
          <path class="cls-35" d="m352.61,209.56l-10.49-16.27c-24.35,32.09-39.21,8.79-44.98,5.75,8.62,9.33,23.09,14.69,37.12,20.33,4.21,2.62,11.79,2.55,16.84-.15h0c5.05-2.7,5.74-7.05,1.52-9.67Z"/>
          <path class="cls-35" d="m348.27,129.84l-27.4-8.82,4.99-13.42c8.41.42,14.13,3.51,20.87,8.79l1.54,13.45Z"/>
          <path class="cls-47" d="m307.98,115.26c-3.6,4.04-3.39,6.71-3.63,12.54-.24,5.71,3.29,10.9,8.67,12.82l54.96,19.57s4.7-21.34-5.9-28.59c-5.71-3.91-14.57-10.13-21.52-15.05-10.21-7.22-24.25-10.63-32.57-1.29Z"/>
          <path class="cls-50" d="m328.84,123.43s1.96.84,3.77.57l5.7,11.38-.36.34c-1.11,1.04-3.01.79-3.61-.48l-5.5-11.8Z"/>
          <path class="cls-50" d="m335.39,126.06s-1.93-.3-3.13-1.36l-10.64,5.99.08.43c.24,1.33,1.8,2.04,2.96,1.35l10.73-6.41Z"/>
          <g>
            <path class="cls-50" d="m330.92,134.3c-.05.78-.63,1.06-1.28.62-.66-.44-1.14-1.43-1.09-2.22.05-.78.63-1.06,1.28-.62.66.44,1.14,1.43,1.09,2.22Z"/>
            <path class="cls-50" d="m330.53,139.89c-.05.78-.63,1.06-1.28.62-.66-.44-1.14-1.43-1.09-2.22.05-.78.63-1.06,1.28-.62.66.44,1.14,1.43,1.09,2.22Z"/>
            <path class="cls-50" d="m330.15,145.48c-.05.78-.63,1.06-1.28.62-.66-.44-1.14-1.43-1.09-2.22.05-.78.63-1.06,1.28-.62.66.44,1.14,1.43,1.09,2.22Z"/>
          </g>
          <path class="cls-40" d="m334.1,124.4s-6.86-.5-7.33-12.53l-4.53-.95c-.67.46-1.96.03-2.85,3.98-.53,2.35-.53,4.79-.11,7.17l1.23,6.93c.28,1.55,2.1,2.38,3.45,1.56l10.14-6.15Z"/>
          <path class="cls-17" d="m334.28,124.44s-1.93-.3-3.13-1.36l-10.64,5.99.08.43c.24,1.33,1.8,2.04,2.96,1.35l10.73-6.41Z"/>
          <g>
            <path class="cls-16" d="m330.56,122.19l-4.51-24.14,14.54,5.73,3.67,19.71c.85,3.23-10.08,11.12-13.69-1.3Z"/>
            <rect class="cls-16" x="310.4" y="69.07" width="30.58" height="49.51" rx="12.97" ry="12.97" transform="translate(-9.24 41.85) rotate(-7.25)"/>
            <path class="cls-49" d="m328.24,87.27c-4.61,2.72-10.99,3.6-16.53,2.03-6.01-1.7-10.64-8.18-6.49-12.84,2.25-2.52,8.53-5.86,13.58-8.47,14.31-7.43,30.75-1.91,32.9,15.02,0,0,3.54,23.14-9.69,27.83l-1.2-3.32s4.99-5.56-1.49-9.4c-1.96-1.16-4.04-4.23-4.12-7.07-.09-2.87-4.49-5.24-6.96-3.78Z"/>
            <path class="cls-53" d="m341.22,94.45l-11.38,8.52c-.26.19-.62.15-.8-.1h0c-.18-.25-.13-.6.13-.8l11.38-8.52c.26-.19.62-.15.8.1h0c.18.25.13.6-.13.8Z"/>
            <path class="cls-16" d="m344.23,103.96c-1.72,2.08-4.17,1.94-5.46-.32-1.3-2.26-.96-5.78.76-7.87s4.17-1.94,5.46.32c1.3,2.26.96,5.78-.76,7.87Z"/>
            <path class="cls-9" d="m316.33,105.91l8.09,3.24c.33.13.55.47.5.83-.15,1.28-.99,3.99-5.4,2.53-3.09-1.02-4.02-3.98-4.3-5.73-.1-.62.52-1.1,1.1-.87Z"/>
            <path class="cls-49" d="m326.08,102.5c.16.99-.1,1.85-.59,1.93-.49.08-1.02-.65-1.18-1.64-.16-.99.1-1.85.59-1.93.49-.08,1.02.65,1.18,1.64Z"/>
            <path class="cls-49" d="m316.09,98.64c.19.98-.06,1.86-.54,1.95-.49.09-1.03-.63-1.22-1.61-.19-.98.06-1.86.54-1.95s1.03.63,1.22,1.61Z"/>
            <path class="cls-51" d="m323.79,97.91c.2-.02.39-.03.59-.02.08,0,.24.05.32.03-.05.01-.18-.03-.04,0,.06.01.12.02.18.03.21.04.42.1.62.16.11.03.22.07.33.11.05.02.1.04.14.06.06.03.2.04.02,0,.19.03.42.2.59.29.19.1.37.21.55.32s.38.23.53.37c-.04-.04-.13-.1-.03-.03.03.03.07.06.1.09.08.07.16.14.24.21.37.35,1.01.4,1.38,0,.35-.38.4-1.01,0-1.38-.72-.66-1.56-1.21-2.45-1.59-.96-.41-2.01-.73-3.07-.62-.51.05-1,.41-.97.97.02.48.43,1.03.97.97h0Z"/>
            <path class="cls-51" d="m312.59,93.6c.2-.01.4-.02.6,0,.1,0,.19.01.29.02.03,0,.19.02.05,0s.02,0,.05,0c.4.07.8.18,1.18.33.02,0,.17.07.05.02s.03.01.05.02c.09.04.17.08.26.12.18.09.35.19.52.3.08.05.16.1.23.15.04.03.07.05.11.08.1.08.01,0-.03-.03.15.06.33.28.45.4.36.36,1.02.39,1.38,0s.39-.99,0-1.38c-1.33-1.32-3.3-2.12-5.18-1.99-.51.03-1,.42-.97.97.02.5.43,1.01.97.97h0Z"/>
            <path class="cls-6" d="m329.71,118.15c.26.6,7.2-2.26,6.93-3.02,0,0-2.76,4.76-6.2,6.42l-.73-3.4Z"/>
            <path class="cls-53" d="m319.85,98.85l-1.6-.58c-.46-.17-.75-.58-.64-.91h0c.11-.33.59-.47,1.05-.3l1.6.58c.46.17.75.58.64.91h0c-.11.33-.59.47-1.05.3Z"/>
            <path class="cls-12" d="m315.02,102.67l-2.09-1.02c-1.65-.81-3.13-3.2-3.28-5.32l-.15-2.16c-.04-.63.32-.94.81-.7l6.34,3.09c.49.24.92.94.96,1.57l.15,2.16c.15,2.12-1.08,3.2-2.74,2.39Z"/>
            <path class="cls-12" d="m325.91,107.76l-2.09-1.02c-1.65-.81-3.13-3.2-3.28-5.32l-.15-2.16c-.04-.63.32-.94.81-.7l6.34,3.09c.49.24.92.94.96,1.57l.15,2.16c.15,2.12-1.08,3.2-2.74,2.39Z"/>
            <g>
              <path class="cls-53" d="m320.71,98.55s.02-.08.03-.12h0s.02-.04.03-.06c.03-.04.06-.08.09-.1l-.31.21s-.07.06-.09.1c0,0,0,0-.01.01,0,.01-.02.03-.02.05,0,0,0,0,0,0,0,0,0,0,0,0,0,.01,0,.02-.01.03,0,.01,0,.02,0,.04,0,.01,0,.02,0,.03,0,0,0,0,0,.01,0,0,0,0,0,0,0,0,0,0,0,.01,0,.01,0,.02,0,.03,0,.01,0,.02,0,.03,0,.01,0,.05,0,.06h0s.31-.21.31-.21c0-.05,0-.1,0-.14h0Z"/>
              <path class="cls-53" d="m327.89,107.38c-.06.03-.11.05-.17.06-.01,0-.03.01-.04.01-.07.02-.15.03-.22.04-.02,0-.03,0-.05,0-.07,0-.15.01-.23.01,0,0-.02,0-.03,0-.08,0-.17,0-.25-.02,0,0-.02,0-.03,0-.09-.01-.18-.03-.27-.06,0,0-.01,0-.02,0-.1-.03-.19-.06-.29-.09,0,0-.01,0-.02,0-.1-.04-.2-.08-.31-.13l-1.73-.84c-.11-.05-.21-.11-.31-.17,0,0-.01,0-.02-.01-.1-.06-.19-.12-.29-.19-.01,0-.02-.01-.03-.02-.09-.06-.18-.13-.27-.21-.01,0-.02-.02-.03-.03-.09-.07-.18-.15-.27-.23,0,0-.01-.01-.02-.02-.09-.09-.18-.18-.27-.27,0,0,0,0,0,0-.09-.09-.18-.19-.26-.29,0,0,0,0-.01-.01-.07-.09-.15-.18-.22-.27-.05-.06-.09-.12-.13-.19-.04-.05-.08-.1-.11-.16-.02-.03-.03-.05-.05-.08-.06-.09-.12-.18-.17-.27,0-.01-.01-.02-.02-.03-.07-.11-.13-.22-.19-.34,0,0,0-.01,0-.02-.06-.11-.11-.22-.16-.34,0,0,0-.01-.01-.02-.05-.12-.1-.23-.14-.35,0,0,0-.01,0-.02-.04-.11-.08-.22-.12-.34,0-.01,0-.02,0-.03-.04-.12-.07-.23-.09-.35,0,0,0,0,0,0-.03-.12-.05-.23-.07-.35,0,0,0-.02,0-.03-.02-.12-.03-.23-.04-.34l-.18-2.7-.31.21.18,2.7s0,.09.01.13c0,.05.01.1.02.14,0,.02,0,.04.01.07,0,0,0,.02,0,.03,0,.02,0,.03,0,.05,0,.05.02.1.03.15,0,.05.02.1.03.15,0,0,0,0,0,0,0,0,0,0,0,0,.01.05.02.09.03.14.01.05.03.1.04.15,0,.02.01.04.02.06,0,.01,0,.02,0,.03,0,.02.01.04.02.07.02.05.03.1.05.16.01.04.03.08.04.12,0,0,0,.01,0,.02,0,0,0,.01,0,.02.02.05.04.1.06.15.02.05.04.1.06.15,0,0,0,.02.01.03,0,0,0,.02.01.02.01.03.03.06.04.09.02.05.05.09.07.14.02.03.03.07.05.1,0,0,0,.01,0,.02,0,0,0,.01.01.02.02.05.05.09.08.14.03.05.06.1.09.15,0,0,0,.02.01.02,0,0,.01.02.02.03.02.04.05.08.07.12.03.05.06.1.1.15.02.03.03.05.05.08,0,.01.01.02.02.03.03.04.06.08.09.12.05.06.09.13.14.19,0,.01.01.02.02.03.06.08.13.16.2.24,0,0,0,0,0,.01,0,0,0,0,0,0,.05.06.1.11.15.17.04.04.08.08.12.13,0,0,0,0,0,0,0,0,0,0,0,0,.04.04.08.09.13.13.04.04.08.08.13.12,0,0,.01.01.02.02,0,0,.01.01.02.02.03.03.06.06.09.08.04.04.09.08.13.12.01.01.03.02.04.03.01,0,.02.02.03.03.02.02.05.04.07.06.05.04.09.07.14.11.02.01.04.03.06.04.01,0,.02.01.03.02.02.01.03.02.05.03.05.03.09.06.14.09.03.02.07.04.1.06,0,0,.01,0,.02.01,0,0,.01,0,.02.01.04.03.09.05.13.07.04.02.09.05.13.07.01,0,.02.01.03.02l1.73.84s.07.03.1.05c.04.02.08.04.13.05.03.01.06.02.08.03,0,0,.01,0,.02,0,0,0,.02,0,.02,0,.04.02.08.03.12.04.04.01.08.03.12.04,0,0,.01,0,.02,0,0,0,.01,0,.02,0,.03,0,.05.01.08.02.04,0,.08.02.13.03.02,0,.04,0,.06,0,0,0,.02,0,.03,0,.01,0,.02,0,.04,0,.04,0,.09,0,.13.01.03,0,.05,0,.08,0,0,0,.02,0,.03,0,0,0,.02,0,.03,0,.05,0,.1,0,.14,0,.02,0,.04,0,.06,0,.02,0,.03,0,.05,0,.02,0,.03,0,.05,0,.06,0,.12-.02.17-.04,0,0,0,0,0,0,.01,0,.03-.01.04-.01.06-.02.11-.03.16-.06,0,0,0,0,.01,0,.08-.03.15-.08.22-.12l.31-.21c-.07.05-.14.09-.22.12Z"/>
              <path class="cls-1" d="m328.63,108.02l-.31.21c.63-.43.98-1.26.9-2.41l.31-.21c.08,1.15-.27,1.99-.9,2.41Z"/>
              <path class="cls-53" d="m321.28,97.53s-.03-.01-.04-.02c-.02,0-.04-.02-.06-.02-.02,0-.04-.01-.05-.02s-.04-.01-.05-.02c-.02,0-.04-.01-.05-.02,0,0,0,0-.01,0h0s-.03,0-.04-.01c-.02,0-.04,0-.05-.01-.02,0-.04,0-.05,0-.02,0-.04,0-.06,0-.01,0-.03,0-.04,0,0,0,0,0,0,0,0,0,0,0-.01,0-.02,0-.04,0-.06,0-.02,0-.05,0-.07,0-.03,0-.05,0-.07.02,0,0,0,0,0,0,0,0,0,0,0,0-.03,0-.06.02-.08.03-.04.02-.07.03-.1.06l-.31.21c.06-.04.12-.07.19-.09,0,0,0,0,0,0,.07-.02.14-.03.22-.03,0,0,0,0,0,0,.08,0,.16.01.24.04,0,0,0,0,0,0,.09.02.18.06.27.1l6.61,3.22.31-.21-6.61-3.22Z"/>
              <path class="cls-46" d="m327.58,100.97c.75.37,1.4,1.33,1.46,2.16l.18,2.7c.16,2.31-1.42,3.36-3.52,2.34l-1.73-.84c-2.09-1.02-3.92-3.73-4.08-6.04l-.18-2.7c-.06-.83.51-1.2,1.26-.83l6.61,3.22Zm.96,4.53l-.18-2.7c-.03-.41-.36-.9-.73-1.08l-6.61-3.22c-.38-.18-.65,0-.63.42l.18,2.7c.13,1.9,1.63,4.13,3.35,4.96l1.73.84c1.72.84,3.02-.03,2.89-1.92"/>
              <path class="cls-1" d="m327.58,100.97l.31-.21c.75.37,1.4,1.33,1.46,2.16l-.31.21c-.06-.83-.71-1.79-1.46-2.16Z"/>
              <path class="cls-53" d="m329.34,102.85s0-.04,0-.06c0-.02,0-.04,0-.06s0-.04-.01-.06c0-.02,0-.04-.01-.06,0-.02-.01-.04-.02-.06,0-.02-.01-.04-.02-.07s-.01-.04-.02-.07c0-.02-.01-.05-.02-.07,0-.02-.02-.04-.02-.07,0-.02-.02-.04-.03-.07,0-.02-.02-.04-.03-.06s-.02-.04-.03-.06c0-.02-.02-.04-.03-.06-.01-.02-.02-.04-.03-.06-.01-.02-.02-.04-.03-.06-.01-.02-.02-.04-.04-.07-.01-.03-.03-.05-.05-.07-.02-.04-.05-.07-.07-.11-.04-.05-.07-.1-.11-.15-.03-.04-.06-.07-.09-.11-.02-.02-.04-.05-.06-.07-.02-.02-.04-.04-.05-.06-.02-.02-.04-.04-.05-.06-.02-.02-.04-.04-.05-.05-.02-.02-.04-.04-.06-.05-.02-.02-.04-.03-.06-.05-.02-.02-.04-.03-.06-.05-.02-.02-.04-.03-.06-.05-.02-.01-.04-.03-.06-.04-.02-.01-.04-.03-.06-.04-.02-.01-.04-.02-.06-.04-.02-.01-.04-.02-.06-.03-.02-.01-.04-.02-.06-.03,0,0,0,0-.01,0l-.31.21s0,0,.01,0c.02,0,.04.02.06.03.02.01.04.02.06.03.02.01.04.02.06.04.02.01.04.03.06.04.02.01.04.03.06.04.02.02.04.03.06.05.02.02.04.03.06.05.02.02.04.03.06.05.02.02.04.03.06.05.02.02.04.03.05.05.02.02.04.04.05.06.02.02.04.04.05.06.02.02.04.05.06.07.03.04.06.07.09.11.04.05.08.1.11.15.02.03.05.07.07.11.02.02.03.05.05.07.01.02.03.04.04.07.01.02.02.04.03.06.01.02.02.04.03.06.01.02.02.04.03.06s.02.04.03.06.02.04.03.06c0,.02.02.04.03.07,0,.02.02.04.02.07,0,.02.02.05.02.07,0,.02.01.04.02.07s.01.04.02.07c0,.02.01.04.02.06,0,.02,0,.04.01.06,0,.02,0,.04.01.06s0,.04,0,.06c0,.02,0,.04,0,.06,0,.02,0,.04,0,.06l.18,2.64.02.3c0,.06,0,.09,0,.15,0,.06,0,.11,0,.16,0,.06,0,.11-.01.17,0,.06-.01.12-.02.18-.01.06-.02.13-.04.19-.01.07-.03.13-.05.2-.02.07-.05.14-.07.21-.04.09-.08.18-.12.26-.15.28-.35.5-.59.66l.31-.21c.24-.16.44-.39.59-.66.04-.08.08-.17.12-.26.03-.07.05-.14.07-.21.02-.06.04-.13.05-.2.01-.06.03-.12.04-.19,0-.06.02-.12.02-.18,0-.06.01-.12.01-.18,0-.06,0-.12,0-.18,0-.06,0-.11,0-.17v-.19s-.19-2.7-.19-2.7c0-.02,0-.04,0-.06Z"/>
            </g>
            <g>
              <path class="cls-53" d="m309.79,93.5s.02-.08.03-.12c0,0,0,0,0,0,0-.02.02-.04.03-.06.03-.04.06-.08.09-.1l-.31.21s-.07.06-.09.11c0,0,0,0-.01.01,0,.01-.02.03-.02.05h0s0,0,0,0c0,.01,0,.02-.01.03,0,.01,0,.02,0,.04,0,.01,0,.02,0,.03,0,0,0,0,0,.01,0,0,0,0,0,0,0,0,0,0,0,.01,0,.01,0,.02,0,.03,0,.01,0,.02,0,.03,0,.01,0,.05,0,.06h0s.31-.21.31-.21c0-.05,0-.1,0-.14,0,0,0,0,0,0Z"/>
              <path class="cls-53" d="m316.98,102.34c-.06.03-.11.05-.17.06-.01,0-.03.01-.04.01-.07.02-.15.03-.22.04-.02,0-.03,0-.05,0-.07,0-.15.01-.23.01,0,0-.02,0-.03,0-.08,0-.17,0-.25-.02,0,0-.02,0-.03,0-.09-.01-.18-.03-.27-.06,0,0-.01,0-.02,0-.1-.03-.19-.06-.29-.09,0,0-.01,0-.02,0-.1-.04-.2-.08-.31-.13l-1.73-.84c-.11-.05-.21-.11-.31-.17,0,0-.01,0-.02-.01-.1-.06-.19-.12-.29-.19-.01,0-.02-.01-.03-.02-.09-.06-.18-.13-.27-.21-.01,0-.02-.02-.03-.03-.09-.07-.18-.15-.27-.23,0,0-.01-.01-.02-.02-.09-.09-.18-.18-.27-.27,0,0,0,0,0,0-.09-.09-.18-.19-.26-.29,0,0,0,0-.01-.01-.07-.09-.15-.18-.22-.27-.05-.06-.09-.12-.14-.19-.04-.05-.08-.1-.11-.16-.02-.03-.03-.05-.05-.08-.06-.09-.12-.18-.17-.27,0-.01-.01-.02-.02-.03-.07-.11-.13-.22-.19-.34,0,0,0-.01,0-.02-.06-.11-.11-.22-.16-.34,0,0,0-.01-.01-.02-.05-.12-.1-.23-.14-.35,0,0,0-.01,0-.02-.04-.11-.08-.22-.12-.34,0-.01,0-.02,0-.03-.04-.12-.07-.23-.09-.35,0,0,0,0,0,0-.03-.12-.05-.23-.07-.35,0,0,0-.02,0-.03-.02-.12-.03-.23-.04-.34l-.18-2.7-.31.21.18,2.7s0,.09.01.13c0,.05.01.1.02.14,0,.02,0,.04.01.07,0,0,0,.02,0,.03,0,.02,0,.03,0,.05,0,.05.02.1.03.15,0,.05.02.1.03.15,0,0,0,0,0,0,0,0,0,0,0,0,.01.05.02.09.03.14.01.05.03.1.04.15,0,.02.01.04.02.06,0,.01,0,.02,0,.03,0,.02.01.04.02.07.02.05.03.1.05.16.01.04.03.08.04.12,0,0,0,.01,0,.02,0,0,0,.01,0,.02.02.05.04.1.06.15.02.05.04.1.06.15,0,0,0,.02.01.03,0,0,0,.02.01.02.01.03.03.06.04.09.02.05.05.09.07.14.02.03.03.07.05.1,0,0,0,.01,0,.02,0,0,0,.01.01.02.02.05.05.09.08.14.03.05.06.1.09.15,0,0,0,.02.01.02,0,0,.01.02.02.03.02.04.05.08.07.12.03.05.06.1.1.15.02.03.03.05.05.08,0,0,.01.02.02.03.03.04.06.08.09.12.05.06.09.13.14.19,0,.01.01.02.02.03.06.08.13.16.2.24,0,0,0,0,0,.01h0c.05.06.1.11.15.17.04.04.08.08.12.13,0,0,0,0,0,0,0,0,0,0,0,0,.04.04.08.09.13.13.04.04.08.08.13.12,0,0,.01.01.02.02,0,0,.01.01.02.02.03.03.06.06.09.08.04.04.09.08.14.12.01.01.03.02.04.03.01,0,.02.02.03.03.02.02.05.04.07.06.05.04.09.07.14.11.02.01.04.03.06.04.01,0,.02.01.03.02.02.01.03.02.05.03.05.03.09.06.14.09.03.02.07.04.1.06,0,0,.01,0,.02.01,0,0,.01,0,.02.01.04.03.09.05.13.07.04.02.09.05.13.07.01,0,.02.01.03.02l1.73.84s.07.03.1.05c.04.02.08.04.13.05.03.01.06.02.08.03,0,0,.01,0,.02,0,0,0,.02,0,.02,0,.04.02.08.03.12.04.04.01.08.03.12.04,0,0,.01,0,.02,0,0,0,.01,0,.02,0,.03,0,.05.01.08.02.04,0,.08.02.13.03.02,0,.04,0,.06,0,0,0,.02,0,.03,0,.01,0,.02,0,.04,0,.04,0,.09,0,.13.01.03,0,.05,0,.08,0,0,0,.02,0,.03,0,0,0,.02,0,.03,0,.05,0,.1,0,.14,0,.02,0,.04,0,.06,0,.02,0,.03,0,.05,0,.02,0,.03,0,.05,0,.06,0,.12-.02.17-.04,0,0,0,0,0,0,.01,0,.03-.01.04-.01.06-.02.11-.03.16-.06,0,0,0,0,.01,0,.08-.03.15-.08.22-.12l.31-.21c-.07.05-.15.09-.22.12Z"/>
              <path class="cls-1" d="m317.72,102.98l-.31.21c.63-.43.98-1.26.9-2.41l.31-.21c.08,1.15-.27,1.99-.9,2.41Z"/>
              <path class="cls-53" d="m310.37,92.48s-.03-.01-.04-.02c-.02,0-.04-.02-.06-.02-.02,0-.04-.01-.05-.02-.02,0-.04-.01-.05-.02-.02,0-.04-.01-.05-.02,0,0,0,0-.01,0,0,0,0,0,0,0-.01,0-.03,0-.04,0-.02,0-.04,0-.05-.01-.02,0-.04,0-.05,0-.02,0-.04,0-.06,0-.01,0-.03,0-.04,0,0,0,0,0,0,0,0,0,0,0-.01,0-.02,0-.04,0-.06,0-.02,0-.05,0-.07,0-.03,0-.05,0-.07.02h0s0,0,0,0c-.03,0-.06.02-.08.03-.04.02-.07.03-.1.06l-.31.21c.06-.04.12-.07.19-.09,0,0,0,0,0,0,.07-.02.14-.03.22-.03,0,0,0,0,0,0,.08,0,.16.01.25.04,0,0,0,0,0,0,.09.02.18.06.27.1l6.61,3.22.31-.21-6.61-3.22Z"/>
              <path class="cls-46" d="m316.67,95.91c.75.37,1.4,1.33,1.46,2.16l.18,2.7c.16,2.31-1.42,3.36-3.52,2.34l-1.73-.84c-2.09-1.02-3.93-3.74-4.08-6.05l-.18-2.7c-.06-.83.51-1.2,1.26-.83l6.61,3.22Zm.96,4.53l-.18-2.7c-.03-.41-.36-.9-.73-1.08l-6.61-3.22c-.38-.18-.66,0-.63.42l.18,2.7c.13,1.9,1.63,4.13,3.35,4.97l1.73.84c1.72.84,3.02-.03,2.89-1.92"/>
              <path class="cls-1" d="m316.67,95.91l.31-.21c.75.37,1.4,1.33,1.46,2.16l-.31.21c-.06-.83-.71-1.79-1.46-2.16Z"/>
              <path class="cls-53" d="m318.43,97.8s0-.04,0-.06c0-.02,0-.04,0-.06s0-.04-.01-.06c0-.02,0-.04-.01-.06,0-.02-.01-.04-.02-.07,0-.02-.01-.04-.02-.07,0-.02-.01-.04-.02-.07,0-.02-.01-.05-.02-.07,0-.02-.02-.05-.02-.07,0-.02-.02-.04-.03-.07,0-.02-.02-.04-.03-.06s-.02-.04-.03-.06c0-.02-.02-.04-.03-.06s-.02-.04-.03-.06c-.01-.02-.02-.04-.03-.06-.01-.02-.03-.04-.04-.07-.01-.03-.03-.05-.05-.07-.02-.04-.05-.07-.07-.11-.04-.05-.07-.1-.11-.15-.03-.04-.06-.07-.09-.11-.02-.02-.04-.05-.06-.07-.02-.02-.04-.04-.05-.06-.02-.02-.04-.04-.05-.06-.02-.02-.04-.04-.05-.05-.02-.02-.04-.04-.06-.05-.02-.02-.04-.03-.06-.05-.02-.02-.04-.03-.06-.05-.02-.02-.04-.03-.06-.05-.02-.01-.04-.03-.06-.04-.02-.01-.04-.03-.06-.04-.02-.01-.04-.02-.06-.04-.02-.01-.04-.02-.06-.03-.02-.01-.04-.02-.06-.03,0,0,0,0-.01,0l-.31.21s0,0,.01,0c.02,0,.04.02.06.03.02.01.04.02.06.03.02.01.04.02.06.04.02.01.04.03.06.04.02.01.04.03.06.04.02.02.04.03.06.05.02.02.04.03.06.05.02.02.04.03.06.05.02.02.04.03.06.05.02.02.04.03.05.05.02.02.04.04.05.06.02.02.04.04.05.06.02.02.04.05.06.07.03.04.06.07.09.11.04.05.08.1.11.15.02.04.05.07.07.11.02.02.03.05.05.07.01.02.03.04.04.07.01.02.02.04.03.06.01.02.02.04.03.06.01.02.02.04.03.06,0,.02.02.04.03.06,0,.02.02.04.03.06,0,.02.02.04.03.07,0,.02.02.04.02.07,0,.02.02.05.02.07,0,.02.01.04.02.07,0,.02.01.04.02.07,0,.02.01.04.02.06s0,.04.01.06c0,.02,0,.04.01.06,0,.02,0,.04,0,.06s0,.04,0,.06c0,.02,0,.04,0,.06l.18,2.64.02.3c0,.06,0,.09,0,.15,0,.06,0,.11,0,.16,0,.06,0,.11-.01.17,0,.06-.01.12-.02.18-.01.06-.02.13-.04.19-.01.07-.03.13-.05.2-.02.07-.05.14-.07.21-.04.09-.08.18-.12.26-.15.28-.35.5-.59.66l.31-.21c.24-.16.44-.39.59-.66.04-.08.08-.17.12-.26.03-.07.05-.14.07-.21.02-.06.04-.13.05-.2.01-.06.03-.12.04-.19,0-.06.02-.12.02-.18,0-.06.01-.12.01-.18,0-.06,0-.12,0-.18,0-.06,0-.11,0-.17v-.19s-.19-2.7-.19-2.7c0-.02,0-.04,0-.06Z"/>
            </g>
            <path class="cls-46" d="m309.75,93.31l-.92-.33c-.27-.1-.43-.33-.37-.52h0c.07-.19.34-.27.61-.17l.92.33c.27.1.43.33.37.52h0c-.07.19-.34.27-.61.17Z"/>
            <path class="cls-46" d="m329.37,102.52l-.92-.33c-.27-.1-.43-.33-.37-.52h0c.07-.19.34-.27.61-.17l.92.33c.27.1.43.33.37.52h0c-.07.19-.34.27-.61.17Z"/>
          </g>
          <path class="cls-40" d="m330.61,123.6s7.64,3.23,16.13-7.22l4.65,6.67c.38,1,.43,1.12-.42,1.92l-11.04,10.43c-1.29,1.23-3.51.92-4.19-.57l-5.14-11.24Z"/>
          <path class="cls-17" d="m330.41,123.54s1.96.84,3.77.57l5.7,11.38-.36.34c-1.11,1.04-3.01.79-3.61-.48l-5.5-11.8Z"/>
          <path class="cls-16" d="m293.76,209.88h0c-3.69.59-7.19-1.94-7.78-5.62l-2.06-12.76c-.59-3.69,1.94-7.19,5.62-7.78h0c3.69-.59,7.19,1.94,7.78,5.62l2.06,12.76c.59,3.69-1.94,7.19-5.62,7.78Z"/>
          <path class="cls-26" d="m330.85,218.88v-1.44s-1.86.72-1.86.72l-.4-.91-46.35-26.76c-.56-.32-1.54-.28-2.19.09l-19.95,11.52v-.32l-3.69,1.48v1.53h.03c.05.15.16.29.35.4l48.23,27.85c.56.32,1.54.28,2.19-.09l23.11-13.34c.35-.2.53-.46.53-.71h0Z"/>
          <path class="cls-9" d="m304.99,231.51l-48.23-27.85c-.56-.32-.49-.89.16-1.26l23.11-13.34c.64-.37,1.63-.41,2.19-.09l48.23,27.85c.56.32.49.89-.16,1.26l-23.11,13.34c-.64.37-1.63.41-2.19.09Z"/>
          <path class="cls-26" d="m308.28,213.57l-11.67-6.74c-.14-.08-.12-.22.04-.31l5.59-3.23c.16-.09.39-.1.53-.02l11.67,6.74c.14.08.12.22-.04.31l-5.59,3.23c-.16.09-.39.1-.53.02Z"/>
          <path class="cls-9" d="m303.76,200.17c-.2-1.27-1.19-2.77-2.22-3.36l-47.88-27.21c-.43-.24-.79-.29-1.06-.17h0s0,0,0,0c-.1.04-.18.11-.25.19l-1.59,1.66,1.44-.13,4.55,29.43c.2,1.27,1.19,2.77,2.22,3.36l45.28,25.73,1.46,1.64.18.4c.92.2,3.11-1.36,3.11-1.36l-5.24-30.2Z"/>
          <path class="cls-38" d="m305.15,232.94l-47.88-27.21c-1.03-.59-2.03-2.09-2.22-3.36l-4.6-29.75c-.2-1.27.48-1.82,1.51-1.24l47.88,27.21c1.03.59,2.03,2.09,2.22,3.36l4.6,29.75c.2,1.27-.48,1.82-1.51,1.24Z"/>
          <path class="cls-16" d="m355.33,143.44c.4,4.28.88,8.56,1.45,12.82.28,2.09.56,4.17.85,6.26.1.75.21,1.5.31,2.25.03.24.23,1.68.06.45s.04.3.08.58c.96,7.35,1.37,14.73,1.44,22.14.02,2.16.01,4.29-.17,6.44-.12,1.42.24-1.37.01-.02-.06.34-.11.68-.18,1.01-.16.79-.36,1.58-.62,2.34-.1.29-.18.67-.34.93-.04.05.71-1.51.31-.76-.07.13-.13.28-.2.41-.29.56-.66,1.05-.97,1.59-.11.18,1.08-1.24.34-.46-.19.2-.36.4-.56.59s-.4.36-.59.54c-.57.55.75-.66.72-.55-.02.07-.43.31-.49.35-.44.3-.91.56-1.39.8-.55.27-1.36.37.47-.18-.26.08-.52.2-.78.29-1.18.41-2.41.68-3.65.88-.53.09-1.73.15.4-.04-.28.03-.56.07-.84.1-.7.07-1.41.13-2.11.18-1.5.1-3.01.16-4.52.21-8.03.27-16.15.62-23.85,3.14-2.92.96-5.13,4.12-4.11,7.25.94,2.92,4.11,5.14,7.25,4.11,1.79-.59,3.6-1.07,5.44-1.44.84-.17,1.68-.32,2.53-.46.21-.03.42-.06.63-.09,1.15-.18-1.27.15-.47.06.47-.05.93-.11,1.4-.16,3.35-.36,6.71-.48,10.07-.59,6.21-.2,12.83-.26,18.45-3.26,6.77-3.6,9.14-11.09,9.56-18.28.26-4.54.03-9.17-.19-13.71-.17-3.51-.45-7.01-.85-10.5-.46-3.99-1.05-7.97-1.59-11.95-.03-.2-.06-.41-.08-.62-.1-.73.2,1.49.06.46-.07-.55-.14-1.09-.21-1.64-.14-1.12-.28-2.23-.41-3.35-.32-2.72-.6-5.43-.86-8.16-.29-3.06-2.5-6.04-5.89-5.89-2.94.13-6.2,2.61-5.89,5.89h0Z"/>
          <path class="cls-16" d="m307.22,215.56h0c-1.16-3.55.79-7.4,4.34-8.57l12.28-4.03c3.55-1.16,7.4.79,8.57,4.34h0c1.16,3.55-.79,7.4-4.34,8.57l-12.28,4.03c-3.55,1.16-7.4-.79-8.57-4.34Z"/>
          <path class="cls-47" d="m351.11,141.8l1.65,31.5c2.55,8.85,22.61,3.73,21.19-3.7l-4.2-30.11c-.93-4.75-5.31-8.01-10.13-7.55h0c-5.02.48-8.77,4.83-8.51,9.86Z"/>
          <path class="cls-17" d="m355.96,171.22c5.74.6,11.45-1.26,15.94-4.82.83-.66.69-2.09,0-2.78-.82-.82-1.94-.66-2.78,0-3.69,2.93-8.48,4.16-13.17,3.67-1.06-.11-1.96.98-1.96,1.96,0,1.15.9,1.85,1.96,1.96h0Z"/>
          <path class="cls-9" d="m279.71,204.13c.24,1.58-1.19,1.93-3.2.79s-3.84-3.35-4.09-4.93c-.24-1.58,1.19-1.93,3.2-.79s3.84,3.35,4.09,4.93Z"/>
        </g>
        <g>
          <path class="cls-18" d="m224.94,695.76l2.74,1.58c5.32,3.07,13.98,3.06,19.34-.03h0c4.73-2.73,12.79-.82,12.77,3.03h0c-.02,4.36,6.08,7.88,13.63,7.87h3.89c7.55-.02,13.69-3.57,13.72-7.93.02-3.85,8.1-5.8,12.8-3.08,5.32,3.07,13.98,3.06,19.34-.03l2.76-1.59c5.36-3.09,5.38-8.09.06-11.17h0c-4.7-2.72-1.34-7.38,5.34-7.39h0c7.55-.01,13.7-3.56,13.72-7.92v-2.24c.04-4.36-6.07-7.88-13.62-7.87h0c-6.67.01-9.99-4.64-5.26-7.37,5.36-3.09,5.38-8.09.06-11.17l-2.74-1.58c-5.32-3.07-13.98-3.06-19.34.03h0c-4.73,2.73-12.79.82-12.77-3.03h0c.02-4.36-6.08-7.88-13.63-7.87h-3.89c-7.55.02-13.7,3.57-13.72,7.93h0c-.02,3.85-8.1,5.8-12.8,3.08h0c-5.32-3.07-13.98-3.06-19.34.03l-2.76,1.59c-5.36,3.09-5.38,8.09-.06,11.17h0c4.7,2.72,1.34,7.38-5.34,7.39h0c-7.55.01-13.69,3.56-13.72,7.92v2.24c-.04,4.36,6.07,7.88,13.62,7.87h0c6.67-.01,9.99,4.64,5.26,7.37h0c-5.36,3.09-5.38,8.09-.06,11.17Zm26.57-13.76c-13.21-7.63-13.15-20.04.15-27.71,13.3-7.68,34.79-7.72,48-.09,13.21,7.63,13.15,20.04-.15,27.71s-34.79,7.72-48,.09Z"/>
          <path class="cls-31" d="m224.94,685.34l2.74,1.58c5.32,3.07,13.98,3.06,19.34-.03h0c4.73-2.73,12.79-.82,12.77,3.03h0c-.02,4.36,6.08,7.88,13.63,7.87h3.89c7.55-.02,13.69-3.57,13.72-7.93.02-3.85,8.1-5.8,12.8-3.08,5.32,3.07,13.98,3.06,19.34-.03l2.76-1.59c5.36-3.09,5.38-8.09.06-11.17h0c-4.7-2.72-1.34-7.38,5.34-7.39h0c7.55-.01,13.7-3.56,13.72-7.92v-2.24c.04-4.36-6.07-7.88-13.62-7.87h0c-6.67.01-9.99-4.64-5.26-7.37,5.36-3.09,5.38-8.09.06-11.17l-2.74-1.58c-5.32-3.07-13.98-3.06-19.34.03h0c-4.73,2.73-12.79.82-12.77-3.03h0c.02-4.36-6.08-7.88-13.63-7.87h-3.89c-7.55.02-13.7,3.57-13.72,7.93h0c-.02,3.85-8.1,5.8-12.8,3.08h0c-5.32-3.07-13.98-3.06-19.34.03l-2.76,1.59c-5.36,3.09-5.38,8.09-.06,11.17h0c4.7,2.72,1.34,7.38-5.34,7.39h0c-7.55.01-13.69,3.56-13.72,7.92v2.24c-.04,4.36,6.07,7.88,13.62,7.87h0c6.67-.01,9.99,4.64,5.26,7.37h0c-5.36,3.09-5.38,8.09-.06,11.17Zm26.57-13.76c-13.21-7.63-13.15-20.04.15-27.71,13.3-7.68,34.79-7.72,48-.09,13.21,7.63,13.15,20.04-.15,27.71-13.3,7.68-34.79,7.72-48,.09Z"/>
        </g>
        <g>
          <path class="cls-18" d="m29.03,686.09l4.22,2.44c8.21,4.74,21.56,4.72,29.82-.05h0c7.3-4.21,19.72-1.26,19.69,4.68h0c-.04,6.72,9.38,12.16,21.02,12.14h5.99c11.65-.03,21.12-5.5,21.15-12.22.03-5.94,12.49-8.94,19.74-4.75,8.21,4.74,21.56,4.72,29.82-.05l4.25-2.45c8.26-4.77,8.3-12.48.09-17.22h0c-7.25-4.19-2.06-11.38,8.23-11.4h0c11.65-.02,21.12-5.49,21.15-12.21l.02-3.46c.04-6.72-9.38-12.16-21.02-12.14h0c-10.29.02-15.4-7.15-8.1-11.37,8.26-4.77,8.3-12.48.09-17.22l-4.23-2.44c-8.21-4.74-21.56-4.72-29.82.05h0c-7.3,4.21-19.72,1.26-19.69-4.68h0c.04-6.72-9.38-12.16-21.02-12.14h-5.99c-11.65.03-21.12,5.5-21.15,12.22h0c-.03,5.94-12.49,8.94-19.74,4.75h0c-8.21-4.74-21.56-4.72-29.82.05l-4.25,2.45c-8.26,4.77-8.3,12.48-.09,17.22h0c7.25,4.19,2.06,11.38-8.23,11.4h0c-11.65.02-21.12,5.49-21.15,12.21l-.02,3.46c-.04,6.72,9.38,12.16,21.02,12.14h0c10.29-.02,15.4,7.15,8.1,11.37h0c-8.26,4.77-8.3,12.48-.09,17.22Zm40.97-21.21c-20.37-11.76-20.27-30.89.23-42.73,20.5-11.84,53.64-11.9,74.01-.13,20.37,11.76,20.27,30.89-.23,42.73-20.5,11.84-53.64,11.9-74.01.13Z"/>
          <path class="cls-31" d="m29.03,670.02l4.22,2.44c8.21,4.74,21.56,4.72,29.82-.05h0c7.3-4.21,19.72-1.26,19.69,4.68h0c-.04,6.72,9.38,12.16,21.02,12.14h5.99c11.65-.03,21.12-5.5,21.15-12.22.03-5.94,12.49-8.94,19.74-4.75,8.21,4.74,21.56,4.72,29.82-.05l4.25-2.45c8.26-4.77,8.3-12.48.09-17.22h0c-7.25-4.19-2.06-11.38,8.23-11.4h0c11.65-.02,21.12-5.49,21.15-12.21l.02-3.46c.04-6.72-9.38-12.16-21.02-12.14h0c-10.29.02-15.4-7.15-8.1-11.37,8.26-4.77,8.3-12.48.09-17.22l-4.23-2.44c-8.21-4.74-21.56-4.72-29.82.05h0c-7.3,4.21-19.72,1.26-19.69-4.68h0c.04-6.72-9.38-12.16-21.02-12.14h-5.99c-11.65.03-21.12,5.5-21.15,12.22h0c-.03,5.94-12.49,8.94-19.74,4.75h0c-8.21-4.74-21.56-4.72-29.82.05l-4.25,2.45c-8.26,4.77-8.3,12.48-.09,17.22h0c7.25,4.19,2.06,11.38-8.23,11.4h0c-11.65.02-21.12,5.49-21.15,12.21l-.02,3.46c-.04,6.72,9.38,12.16,21.02,12.14h0c10.29-.02,15.4,7.15,8.1,11.37h0c-8.26,4.77-8.3,12.48-.09,17.22Zm40.97-21.21c-20.37-11.76-20.27-30.89.23-42.73,20.5-11.84,53.64-11.9,74.01-.13,20.37,11.76,20.27,30.89-.23,42.73-20.5,11.84-53.64,11.9-74.01.13Z"/>
        </g>
        <ellipse class="cls-27" cx="538.16" cy="618.06" rx="46.2" ry="26.67" transform="translate(-3.34 2.93) rotate(-.31)"/>
        <path class="cls-37" d="m548.63,609.81c.34.29,5.34,2.81,5.66,3.08.48.42,1.92,1.58,2.79,2.2,1.83,1.32,5.69,6.33,11.99,2.8,9.22-5.17-12.79-19.86-12.79-19.86l-9.74-5.08c-1.19-.62-2.62-.62-3.85,0h0c-2.28,1.14-3.19,3.96-1.95,6.11,2.13,3.68,2.24,5.82,7.89,10.75Z"/>
        <path class="cls-9" d="m549.67,607.05c.34.29,5.34,2.81,5.66,3.08.48.42,1.92,1.58,2.79,2.2,1.83,1.32,5.69,6.33,11.99,2.8,9.22-5.17-12.79-19.86-12.79-19.86l-9.74-5.08c-1.19-.62-2.62-.62-3.85,0h0c-2.28,1.14-3.19,3.96-1.95,6.11,2.13,3.68,2.24,5.82,7.89,10.75Z"/>
        <path class="cls-37" d="m514.28,630.82c.39.22,5.8,1.68,6.16,1.89.56.32,2.2,1.16,3.17,1.6,2.05.93,6.84,5.06,12.31.34,8-6.91-16.51-16.9-16.51-16.9l-10.56-3.02c-1.29-.37-2.69-.08-3.77.77h0c-2.01,1.57-2.33,4.52-.69,6.38,2.82,3.18,3.37,5.25,9.88,8.95Z"/>
        <path class="cls-9" d="m514.75,627.91c.39.22,5.8,1.68,6.16,1.89.56.32,2.2,1.16,3.17,1.6,2.05.93,6.84,5.06,12.31.34,8-6.91-16.51-16.9-16.51-16.9l-10.56-3.02c-1.29-.37-2.69-.08-3.77.77h0c-2.01,1.57-2.33,4.52-.69,6.38,2.82,3.18,3.37,5.25,9.88,8.95Z"/>
        <path class="cls-52" d="m525.54,495.87c-3.14,9.07-4.91,18.47-6.18,27.96-1.22,9.17-1.77,18.41-1.9,27.65-.23,16.43.91,32.81,2.1,49.18.42,5.77.97,11.6.8,17.4-.13,4.47,4.03,8.75,8.55,8.55,4.75-.21,8.41-3.76,8.55-8.55.11-3.83-.15-7.68-.39-11.51-.35-5.42-.78-10.83-1.15-16.25-.95-13.8-1.62-27.63-1.3-41.47.19-8.36.75-16.72,1.86-25.01l-.31,2.27c1.19-8.72,2.99-17.37,5.87-25.69,1.47-4.23-1.67-9.54-5.97-10.52-4.76-1.08-8.95,1.44-10.52,5.97h0Z"/>
        <path class="cls-52" d="m560.01,476.56c-3.27,11.68-4.96,23.78-6.37,35.81-.68,5.84-1.25,11.69-1.78,17.54-.25,2.72-.49,5.43-.73,8.15-.11,1.29-.32,2.59-.28,3.89.17,4.87.92,9.77,1.46,14.61.87,7.75,1.75,15.5,2.54,23.26.7,6.87,1.57,13.86,1.49,20.78-.06,4.47,3.97,8.75,8.55,8.55s8.49-3.76,8.55-8.55-.44-9.64-.87-14.43c-.6-6.53-1.3-13.05-2.03-19.57-.65-5.83-1.32-11.65-1.94-17.48-.2-1.88-.4-3.76-.55-5.64-.13-1.65-.02-3.15.13-4.82.97-10.94,1.92-21.89,3.38-32.78l-.31,2.27c1.23-9.1,2.77-18.19,5.25-27.04,1.21-4.3-1.48-9.49-5.97-10.52s-9.23,1.36-10.52,5.97h0Z"/>
        <path class="cls-32" d="m522.36,616.9c3.63,3.17,11.16,2.73,13.99-1.29.05,2.21.05,4.43,0,6.64-.22,9.01-14.24,9.04-14.02,0,.04-1.78.05-3.57.02-5.35Z"/>
        <path class="cls-52" d="m562.48,503.76h0c-1.58,1.77,5.22-6.85,3.18-5.62-4.24,2.56-28.03,18.72-32.98,18.81-5.98.1-2.49-5.68-6.95-9.68-4.22-3.79-5.22-9.95-5.63-15.61-.11-1.56-.19-3.2.43-4.64.68-1.55,2.07-2.66,3.42-3.68,10.57-8,31.36-27.8,46.12-21.47,17.06,7.32-.03,33.39-7.6,41.88Z"/>
        <path class="cls-34" d="m574.88,377.15c3.13,4.03,2.76,6.53,2.61,12.04-.15,5.39-3.8,10.05-8.98,11.5l-52.98,14.86s-3.04-20.38,7.4-26.51c5.63-3.3,14.36-8.59,21.22-12.77,10.07-6.13,23.5-8.43,30.73.89Z"/>
        <path class="cls-16" d="m550.72,376.46l-4.48-19.97-12.18,8.2,3.67,18.18c.36,2.95,13.87.37,12.99-6.41Z"/>
        <path class="cls-16" d="m550.42,327.15s13.73-5.73,9.48,14.49c-2.96,14.07-14.12,24.41-26.84,27.4-7.92,1.86-15.75-4.41-14.63-11.49.49-10.58,2.53-20.12,7.65-27.61,1.35-8.54,6.5-4.28,16.66-2.66l7.68-.13Z"/>
        <path class="cls-49" d="m548.77,367.84s14.91-2.14,17.8-21.85c3.12-21.32-12.99-22.06-23.33-25.94-8.19-3.07-24.91,5.6-14.25,14.02,2.03,1.6-.15,7.31-.14,9.75.01,4.34,2.15,6.92,2.24,11.14.08,3.99,4.4,11.16,7.95,12.36,6.32,2.15,9.74.52,9.74.52Z"/>
        <path class="cls-34" d="m577.67,472.91c3.37-1.3,2.57-59.27-.46-91.28l-59.63,28.37c.3,27.25,3.74,48.76.48,81.96l59.62-19.06Z"/>
        <path class="cls-34" d="m537.95,497.89c14.73-5.37,28.77-11.26,37.01-21.37,4.05-2.34,3.54-6.46-1.14-9.16h0c-4.68-2.7-11.82-3-15.87-.66l-37.01,21.37c-4.05,2.34-3.54,6.46,1.14,9.16h0c4.68,2.7,11.82,3,15.86.66Z"/>
        <path class="cls-34" d="m517.58,410l9.83-4.68c.4,26.56,3.66,47.9.45,80.51l.16-.05c-.07,1.84,1.24,3.81,3.87,5.32h0c4.68,2.7,11.82,3,15.87.66,7.07-2.58,13.98-5.28,20.16-8.51-8.13,6.23-18.85,10.58-29.97,14.63-4.05,2.34-11.19,2.04-15.86-.66h0c-2.62-1.52-3.94-3.48-3.87-5.32l-.16.05c3.26-33.21-.18-54.71-.48-81.96Z"/>
        <path class="cls-48" d="m540.03,614.2l-.15,6.21c0,.27-.09.52-.25.73-.93,1.27-4.61,5.51-11.32,4.33-5.88-1.04-9.04-2.89-10.26-3.76-.38-.27-.58-.71-.53-1.17l.58-6.32c.09-.94,1.12-1.49,1.94-1.01,3,1.77,9.66,4.4,18.07-.17.89-.48,1.96.15,1.94,1.16Z"/>
        <path class="cls-32" d="m557.89,598.52c3.63,3.17,11.16,2.73,13.99-1.29.05,2.21.05,4.43,0,6.64-.22,9.01-14.24,9.04-14.02,0,.04-1.78.05-3.57.02-5.35Z"/>
        <path class="cls-48" d="m575.56,595.83l-.15,6.21c0,.27-.09.52-.25.73-.93,1.27-4.61,5.51-11.32,4.33-5.88-1.04-9.04-2.89-10.26-3.76-.38-.27-.58-.71-.53-1.17l.58-6.32c.09-.94,1.12-1.49,1.94-1.01,3,1.77,9.66,4.4,18.07-.17.89-.48,1.96.15,1.94,1.16Z"/>
        <path class="cls-9" d="m529.83,384.91c13.68-2.06,22.92,6.54,26.19-13.16h0c-2-1.24-4.57-.64-5.91,1.29-2.35,3.39-7.34,5.54-12.86,4.86-1.65-.2-3.27.56-4.17,1.96l-3.25,5.05Z"/>
        <path class="cls-16" d="m528.73,350.19c-1,3.26.08,6.49,2.42,7.21.26.08.52.12.78.14,2.13.12,4.38-1.84,5.27-4.74,1-3.26-.08-6.49-2.42-7.21-2.34-.72-5.05,1.34-6.05,4.61Z"/>
        <path class="cls-16" d="m438.71,412.32c7.74,4.16,15.48,8.31,23.23,12.47,4.05,2.17,8.04,4.48,12.3,6.23,1.85.76,3.74,1.36,5.65,1.95,1.02.32,2.04.63,3.05.98.43.15.86.31,1.29.47.58.23.57.22-.05-.03.28.12.56.25.83.38,2.6,1.23,6.07.81,7.54-1.98,1.29-2.45.81-6.23-1.98-7.54-4.05-1.91-8.36-2.95-12.54-4.51-1.41-.53.99.48-.42-.18-.5-.24-1.01-.47-1.51-.72-.93-.46-1.84-.95-2.75-1.44-1.95-1.04-3.9-2.09-5.85-3.14-7.74-4.16-15.48-8.31-23.23-12.47-2.54-1.36-6.12-.72-7.54,1.98s-.74,6.09,1.98,7.54h0Z"/>
        <path class="cls-34" d="m534.64,401.55c-19.4,20.74-37.18,29.91-52.51,29.96-7.34-.95-6.17-12.77-.51-16.28,16.34-1.52,29.89-12.66,42.33-27.61,3.63-2.22,8.56-1.24,11.41,2.28h0c2.97,3.66,2.65,8.8-.72,11.65Z"/>
        <path class="cls-16" d="m449.07,410.83h0c-1.16,3.97-5.35,6.26-9.32,5.1l-9.59-2.8c-3.97-1.16-6.26-5.35-5.1-9.32h0c1.16-3.97,5.35-6.26,9.32-5.1l9.59,2.8c3.97,1.16,6.26,5.35,5.1,9.32Z"/>
        <path class="cls-33" d="m227.8,81.95l-36.22-22.53c-3.1-1.93-4.93-7.11-4.08-11.57l8.1-42.54c.85-4.46,4.05-6.51,7.16-4.58l36.22,22.53c3.1,1.93,4.93,7.11,4.08,11.57l-8.1,42.54c-.85,4.46-4.05,6.51-7.16,4.58Z"/>
        <g>
          <polygon class="cls-9" points="202.16 47.75 195.06 30.49 207.55 24.27 209.04 27.96 200.8 32.06 206.38 45.62 202.16 47.75"/>
          <polygon class="cls-9" points="220.71 58.3 219.23 54.61 227.35 50.58 221.69 36.83 225.92 34.7 233.09 52.15 220.71 58.3"/>
          <polygon class="cls-9" points="209.99 56.17 205.94 55.06 218.97 27.44 223.01 28.55 209.99 56.17"/>
        </g>
        <g>
          <path class="cls-38" d="m647.35,296.74l-200.31-115.59c-3.78-2.18-6.06-8.07-5.1-13.16l25.41-134.09c.96-5.09,4.81-7.44,8.59-5.26l200.31,115.59c3.78,2.18,6.06,8.07,5.1,13.16l-25.41,134.09c-.96,5.09-4.81,7.44-8.59,5.26Z"/>
          <g>
            <path class="cls-33" d="m658.67,172.68l-178.34-102.91c-2.75-1.59-4.41-5.87-3.71-9.56h0c.7-3.7,3.49-5.41,6.24-3.82l178.34,102.91c2.75,1.59,4.41,5.87,3.71,9.56h0c-.7,3.7-3.49,5.41-6.24,3.82Z"/>
            <path class="cls-15" d="m652.99,195.17l-69.54-40.13c-2.17-1.25-3.49-4.64-2.93-7.57h0c.55-2.92,2.76-4.28,4.94-3.02l69.54,40.13c2.17,1.25,3.49,4.64,2.93,7.57h0c-.55,2.92-2.76,4.28-4.94,3.02Z"/>
            <path class="cls-15" d="m547.21,134.13l-69.54-40.13c-2.17-1.25-3.49-4.64-2.93-7.57h0c.55-2.92,2.76-4.28,4.94-3.02l69.54,40.13c2.17,1.25,3.49,4.64,2.93,7.57h0c-.55,2.92-2.76,4.28-4.94,3.02Z"/>
            <polygon class="cls-25" points="652.33 221.71 574.92 177.04 576.92 166.45 654.33 211.12 652.33 221.71"/>
            <polygon class="cls-25" points="546.55 160.66 469.14 115.99 471.15 105.41 548.55 150.08 546.55 160.66"/>
            <polygon class="cls-25" points="647.73 245.97 570.32 201.3 572.33 190.71 649.73 235.38 647.73 245.97"/>
            <polygon class="cls-25" points="541.95 184.93 464.54 140.26 466.55 129.67 543.96 174.34 541.95 184.93"/>
            <polygon class="cls-25" points="492.11 181.62 460.19 163.2 462.2 152.61 494.12 171.03 492.11 181.62"/>
            <polygon class="cls-25" points="597.89 242.66 565.97 224.24 567.98 213.66 599.9 232.07 597.89 242.66"/>
          </g>
        </g>
        <path class="cls-39" d="m592.14,213.51l-115.18-66.47c-3.27-1.89-8.48.42-9.31,4.13l-17.35,77.28c-.71,3.15.56,6.06,3.34,7.67l12.3,7.1-.05.04,96.35,55.6v-.07s7.2,4.16,7.2,4.16c2.95,1.7,7.65-.38,8.41-3.73l17.56-78.21c.69-3.08-.55-5.93-3.27-7.5Z"/>
        <g>
          <path class="cls-31" d="m553.79,304.39l-115.8-66.83c-2.78-1.6-4.05-4.52-3.34-7.67l17.35-77.28c.83-3.71,6.04-6.02,9.31-4.13l115.18,66.47c2.72,1.57,3.96,4.42,3.27,7.5l-17.56,78.21c-.75,3.35-5.45,5.44-8.41,3.73Z"/>
          <path class="cls-34" d="m450.24,244.7l21.86-16.6c5.16-3.92,12.43-2.83,13.85,2.08l9.43,32.59,24.85-23.37c5.21-4.9,13.75-3.85,14.85,1.82l11.52,59.08-96.35-55.6Z"/>
          <path class="cls-3" d="m493.41,194.78c-1.22,5.45-5.64,7.9-9.86,5.46-4.22-2.44-6.65-8.83-5.43-14.28,1.22-5.45,5.64-7.9,9.86-5.46,4.22,2.44,6.65,8.83,5.43,14.28Z"/>
        </g>
      </g>
    </g>
  </g>
</svg>