<?xml version="1.0" encoding="UTF-8"?>
<svg id="_Layer_" data-name="&amp;lt;Layer&amp;gt;" xmlns="http://www.w3.org/2000/svg" viewBox="0 0 285.27 232.6">
  <defs>
    <style>
      .cls-1 {
        fill: #f1cf25;
      }

      .cls-2 {
        fill: #fff;
      }

      .cls-3 {
        fill: #080717;
      }

      .cls-4 {
        fill: #070a17;
      }
    </style>
  </defs>
  <path d="m284.16,231.78s-.03,0-.05,0c-.55-.02-.98-.49-.95-1.04,1.96-44.81-23.67-60.33-23.93-60.49-.48-.28-.64-.89-.36-1.37.28-.48.89-.64,1.37-.36.27.16,26.94,16.22,24.92,62.3-.02.54-.47.96-1,.96Z"/>
  <path d="m249.34,231.78c-.54,0-.99-.44-1-.98,0-.05-.09-5.47-.36-11.62-.02-.55.4-1.02.96-1.04.55-.03,1.02.4,1.04.96.27,6.17.36,11.61.36,11.67,0,.55-.43,1.01-.98,1.02h-.02Z"/>
  <g>
    <g>
      <path class="cls-4" d="m135.52,111.68c19.96,4.48,40.67,4.48,60.63,0,11.57-3.02,20.65-16.4,20.66-27.38v-23.35c.01-10.98-9.1-24.36-20.66-27.38-19.96-4.48-40.67-4.48-60.63,0-11.57,3.02-20.66,16.4-20.66,27.38v23.35c0,10.98,9.09,24.37,20.66,27.38Z"/>
      <path class="cls-4" d="m201.13,97.03l6.22,23.51c1.02,3.85-2.98,7.1-6.53,5.32l-29.04-14.52c-3.58-1.79-3.35-6.97.37-8.43l22.81-8.99c2.57-1.01,5.45.44,6.16,3.12Z"/>
    </g>
    <g>
      <path class="cls-1" d="m167.78,81.47c-19.96,4.48-40.67,4.48-60.63,0-11.57-3.02-20.65-16.4-20.66-27.38v-23.35c-.01-10.98,9.1-24.36,20.66-27.38,19.96-4.48,40.67-4.48,60.63,0,11.57,3.02,20.66,16.4,20.66,27.38v23.35c0,10.98-9.09,24.37-20.66,27.38Z"/>
      <path class="cls-1" d="m102.18,66.82l-6.22,23.51c-1.02,3.85,2.98,7.1,6.53,5.32l29.04-14.52c3.58-1.79,3.35-6.97-.37-8.43l-22.82-8.99c-2.57-1.01-5.45.44-6.16,3.12Z"/>
    </g>
    <g>
      <rect class="cls-2" x="131.47" y="63.68" width="5.85" height="5"/>
      <path class="cls-2" d="m142.52,46.55v-5c3.37,0,6.1-2.74,6.1-6.1v-4.3c0-3.37-2.74-6.11-6.1-6.11h-8.6c-3.37,0-6.1,2.74-6.1,6.11h-5c0-6.12,4.98-11.11,11.1-11.11h8.6c6.12,0,11.1,4.98,11.1,11.11v4.3c0,6.12-4.98,11.1-11.1,11.1Z"/>
      <path class="cls-2" d="m136.42,56.96h-5v-4.3c0-6.12,4.98-11.11,11.1-11.11v5c-3.37,0-6.1,2.74-6.1,6.11v4.3Z"/>
    </g>
    <g>
      <g>
        <path class="cls-2" d="m257.33,168.63c-3.58-9.47-4.62-24.07,1.83-46.44,12.12-42.01-23.57,28.43-23.57,28.43.23,2.47,2.74,8.72-6.01,19.72l3.93,5.25,23.82-6.95Z"/>
        <path d="m229.58,171.33c-.22,0-.44-.07-.62-.22-.43-.34-.5-.97-.16-1.41,7.43-9.34,6.48-14.9,5.97-17.89-.07-.43-.14-.8-.17-1.12-.02-.19.02-.38.1-.54.05-.11,5.55-10.94,11.42-21.46,12.29-22.01,14.16-21.27,15.4-20.78,1.32.52,2.21,2.02-1.4,14.54-5.51,19.09-6.13,34.5-1.86,45.81.2.52-.07,1.09-.58,1.29-.52.2-1.09-.06-1.29-.58-4.43-11.73-3.82-27.56,1.81-47.07,2.4-8.31,2.56-11.04,2.46-11.92-3.18,2.13-14.46,21.92-24.04,40.81.03.21.07.44.11.69.53,3.06,1.62,9.43-6.37,19.47-.2.25-.49.38-.78.38Z"/>
        <path class="cls-2" d="m234.6,101.08s-11.2,41.4-9.47,51.19c1.72,9.79,9.6,12.86,20.52.77,20.97-23.21,22.35-42.97,17.27-46.94-5.08-3.96-18.67-18.43-28.31-5.02Z"/>
        <path d="m245.5,108.4c-6.71.37-17.48,2.98-22.49-14.71-5.02-17.69,10.28-19.52,16.83-9.91,6.55,9.61,5.44,13.61,1.11,9.04-4.33-4.57,4.42-16.02,10.36-7.15,5.94,8.86,7.38,21.37,4.05,20.33-3.32-1.03,8.96-13.48,12.4-6.94,3.44,6.54,5.23,15.65.19,17.87-5.04,2.22-9.48-7.86-5.08-3.96,4.4,3.89,3.84,22.37-2.56,24.45-6.4,2.08-5.9-2.68.1-7.54,6-4.87-.3-16.85-4.15-6.27-.33.91-2.78,6.92-2.78,6.92l-4.43,2.97s1.28-12.22,4.46-16.35c7.16-9.31,7-9.56-8.01-8.73Z"/>
      </g>
      <g>
        <polygon class="cls-2" points="234.66 176.1 235.02 185.53 259.73 169.39 259.98 167.07 234.66 176.1"/>
        <path d="m235.02,186.53c-.16,0-.32-.04-.46-.11-.32-.17-.53-.49-.54-.85l-.36-9.43c-.02-.44.25-.83.66-.98l25.32-9.03c.32-.12.68-.06.95.16.27.21.41.55.38.89l-.24,2.32c-.03.3-.2.57-.45.73l-24.72,16.14c-.17.11-.36.16-.55.16Zm.67-9.74l.26,6.93,22.84-14.91.03-.27-23.13,8.25Z"/>
      </g>
      <g>
        <polygon class="cls-2" points="229.6 166.95 226.21 181.37 233.92 176.02 229.6 166.95"/>
        <path d="m226.21,182.37c-.2,0-.39-.06-.56-.17-.34-.23-.51-.65-.41-1.06l3.39-14.42c.1-.41.44-.72.87-.77.42-.04.83.18,1.01.56l4.32,9.07c.21.44.07.97-.33,1.25l-7.71,5.35c-.17.12-.37.18-.57.18Zm3.71-12.42l-2.14,9.11,4.87-3.38-2.73-5.73Z"/>
      </g>
      <path d="m232.9,161.92c-.81,0-1.54-.12-2.17-.3-3.38-.97-5.72-4.23-6.59-9.18-1.3-7.38,4.32-31.39,7.78-45.05.14-.53.68-.86,1.22-.72.54.14.86.68.72,1.22-2.76,10.87-9.03,36.93-7.75,44.21.73,4.16,2.57,6.86,5.18,7.61,3.57,1.03,8.41-1.58,13.61-7.33.37-.41,1-.44,1.41-.07.41.37.44,1,.07,1.41-5.84,6.47-10.34,8.21-13.48,8.21Z"/>
      <path class="cls-3" d="m233.88,141.78s-.03,0-.04,0l-2.67-.1c-.3-.01-.57-.15-.75-.39-.18-.23-.25-.54-.19-.83l4.12-18.89c.12-.54.65-.89,1.19-.76.54.12.88.65.76,1.19l-3.87,17.72,1.48.06c.55.02.98.48.96,1.04-.02.54-.46.96-1,.96Z"/>
      <path d="m230.76,128.29c-.07.7-.7,1.22-1.41,1.14-.7-.07-1.22-.7-1.14-1.41.07-.7.7-1.22,1.41-1.14.7.07,1.22.7,1.14,1.41Z"/>
      <path d="m231.84,125c-.48,0-.89-.34-.98-.82-.01-.04-.07-.17-.27-.28-.26-.14-1.07-.38-3.02.29-.52.18-1.09-.1-1.27-.62-.18-.52.1-1.09.62-1.27,2.07-.71,3.67-.74,4.76-.08.75.46,1.09,1.17,1.16,1.64.08.55-.3,1.05-.85,1.13-.05,0-.09,0-.14,0Z"/>
      <path d="m241.37,129.4c-.07.7-.7,1.22-1.41,1.14-.7-.07-1.22-.7-1.14-1.41.07-.7.7-1.22,1.41-1.14.7.07,1.22.7,1.14,1.41Z"/>
      <path d="m242.46,126.11c-.48,0-.89-.34-.98-.82-.01-.04-.07-.17-.27-.28-.26-.14-1.07-.38-3.02.29-.52.18-1.09-.1-1.27-.62-.18-.52.1-1.09.62-1.27,2.07-.72,3.67-.74,4.75-.08.75.46,1.09,1.17,1.16,1.64.08.55-.3,1.05-.85,1.13-.05,0-.09,0-.14,0Z"/>
      <path class="cls-3" d="m239.36,150.94c-.44,0-.84-.29-.97-.74-.14-.53.17-1.08.71-1.23,1.56-.42,2.81-2.66,3.16-3.49.21-.51.8-.75,1.31-.53.51.21.75.8.54,1.31-.17.4-1.7,3.9-4.49,4.65-.09.02-.17.03-.26.03Z"/>
    </g>
    <path d="m202.25,183.19c-.28,0-.57-.12-.76-.35-.36-.42-.3-1.05.12-1.41,6.94-5.87,26.85-11.8,27.69-12.05.53-.16,1.09.15,1.24.67.16.53-.15,1.09-.68,1.24-.2.06-20.34,6.06-26.97,11.66-.19.16-.42.24-.65.24Z"/>
    <g>
      <path class="cls-3" d="m132.86,179.59l18.66,52.01H0l10.97-30.88c2.73-7.68,8.64-13.8,16.22-16.79l44.12-17.4c10.57-4.61,22.93-1.4,29.92,7.78l6.18,8.11,25.44-2.83Z"/>
      <g>
        <path class="cls-2" d="m107.33,181.56l-4.01-16.06c-1.81-7.24-.71-14.9,3.05-21.33l10.79-18.44c.95-1.63,2.8-2.52,4.67-2.25h0c2.88.41,4.67,3.34,3.74,6.1l-4.8,14.13,20.61,1.54,21.12-13.46c1.95-1.24,4.52-.89,6.06.83h0c.95,1.06.83,2.7-.27,3.62l-36.65,30.38.99,12.12-25.3,2.83Z"/>
        <path class="cls-3" d="m107.33,182.56c-.45,0-.86-.3-.97-.76l-4.01-16.06c-1.88-7.54-.76-15.38,3.16-22.08l10.79-18.44c1.17-1.99,3.39-3.07,5.68-2.74,1.67.24,3.13,1.2,4.01,2.64.88,1.44,1.07,3.17.53,4.77l-4.39,12.9,18.99,1.42,20.84-13.28c2.37-1.51,5.46-1.09,7.35,1,.64.72.96,1.64.89,2.61-.07.96-.52,1.83-1.26,2.45l-36.25,30.05.94,11.6c.04.55-.36,1.03-.92,1.08-.55.03-1.03-.37-1.08-.92l-.99-12.12c-.03-.33.11-.64.36-.85l36.65-30.38c.32-.27.51-.64.54-1.06.03-.42-.11-.81-.38-1.12-1.22-1.37-3.24-1.64-4.78-.65l-21.12,13.46c-.18.12-.4.18-.61.15l-20.61-1.54c-.31-.02-.59-.19-.76-.45-.17-.26-.21-.58-.11-.87l4.8-14.13c.35-1.03.23-2.15-.34-3.08-.57-.93-1.51-1.55-2.59-1.7-1.47-.21-2.91.48-3.67,1.77l-10.79,18.44c-3.66,6.25-4.7,13.56-2.95,20.59l4.01,16.06c.13.54-.19,1.08-.73,1.21-.08.02-.16.03-.24.03Z"/>
      </g>
      <g>
        <path class="cls-2" d="m151.92,143.76l5.81-17.19c.54-1.59-.95-3.12-2.55-2.62h0c-2.04.63-3.73,2.09-4.64,4.02l-8.12,15.92,9.51-.13Z"/>
        <path class="cls-3" d="m142.41,144.89c-.15,0-.31-.04-.45-.11-.49-.25-.69-.85-.44-1.34l8.12-15.92c1.02-2.15,2.93-3.81,5.24-4.52,1.1-.34,2.29-.04,3.09.79.8.83,1.07,2.02.71,3.11l-5.81,17.19c-.18.52-.74.8-1.27.63-.52-.18-.8-.74-.63-1.27l5.81-17.19c.13-.38.04-.79-.24-1.08-.28-.29-.68-.39-1.07-.27-1.77.55-3.24,1.82-4.04,3.49l-8.14,15.94c-.18.35-.53.55-.89.55Z"/>
      </g>
      <g>
        <path class="cls-2" d="m122.76,158.52l12.07-9.76,4.42-16.56c.6-2.26,2.35-4.04,4.61-4.67h0c1.46-.41,2.86.79,2.68,2.29l-2.5,20.89-21.28,7.81Z"/>
        <path class="cls-3" d="m122.76,159.52c-.29,0-.58-.13-.78-.37-.35-.43-.28-1.06.15-1.41l11.82-9.55,4.33-16.24c.69-2.59,2.72-4.65,5.3-5.38,1.01-.28,2.08-.05,2.88.63.79.68,1.19,1.71,1.07,2.74l-2.5,20.89c-.07.55-.57.94-1.11.87-.55-.07-.94-.56-.87-1.11l2.5-20.89c.04-.38-.1-.74-.38-.99-.29-.25-.67-.33-1.03-.23-1.9.54-3.4,2.06-3.91,3.96l-4.42,16.56c-.05.21-.17.39-.34.52l-12.07,9.76c-.19.15-.41.22-.63.22Z"/>
      </g>
      <g>
        <path class="cls-3" d="m59.59,149.72l-8.62,2.63c-9.91,3.02-20.48-2.61-23.51-12.51l-1.04-3.41c-3.79-12.4,3.26-25.65,15.67-29.43l1.99,3.13c7.77-2.37,16.08,2.05,18.45,9.82l4.71,15.42c1.85,6.05-1.59,12.51-7.64,14.36Z"/>
        <ellipse class="cls-3" cx="49.26" cy="131.65" rx="21.14" ry="19.86" transform="translate(-2.11 .81) rotate(-.92)"/>
        <path class="cls-3" d="m68.9,165.22c-6.29-1.33-11.77-5.79-14.1-12.29l-2.14-5.98,15.86-5.71.38,23.98Z"/>
        <path class="cls-3" d="m43.98,134.6c-1.44-6.63,1.22-13.74,6.83-17.08h0c3.49-2.08,7.44-2.28,10.91-.92-1.84.21-6.99,1.1-7.95,4.53-1.17,4.19-1.2,12.16-9.79,13.46Z"/>
        <path class="cls-3" d="m72.03,114.79c1.52,4.99-1.29,10.28-6.28,11.8-4.99,1.52-10.28-1.29-11.8-6.28-1.52-4.99,1.29-10.28,6.28-11.8,4.99-1.52,10.28,1.29,11.8,6.28Z"/>
        <path class="cls-3" d="m39.34,110.89c-9.4,4.23-14.52,14.73-11.81,24.87,2.65.79,5.6.83,8.49-.05,7.52-2.3,11.85-9.96,9.66-17.11-1.04-3.41-3.37-6.08-6.34-7.71Z"/>
        <path class="cls-3" d="m54.38,113.12c1.52,4.99-1.29,10.28-6.28,11.8-4.99,1.52-10.28-1.29-11.8-6.28-1.52-4.99,1.29-10.28,6.28-11.8,4.99-1.52,10.28,1.29,11.8,6.28Z"/>
        <path class="cls-3" d="m65.06,110.36c1.57,5.14-1.32,10.57-6.46,12.14s-10.57-1.32-12.14-6.46c-1.57-5.14,1.32-10.57,6.46-12.14s10.57,1.32,12.14,6.46Z"/>
        <path class="cls-3" d="m31.51,121.42c-.33,0-.65-.16-.84-.46-1.31-2.05-4.24-1.8-4.27-1.8-.55.05-1.04-.35-1.09-.9-.05-.55.35-1.04.89-1.09.17-.02,4.18-.38,6.15,2.71.3.47.16,1.08-.3,1.38-.17.11-.35.16-.54.16Z"/>
        <path class="cls-3" d="m31.81,121.09c-.09,0-.18-.01-.27-.04-3.53-.99-4.35-4.93-4.38-5.1-.11-.54.25-1.07.79-1.17.54-.11,1.07.24,1.17.78,0,.04.63,2.91,2.96,3.56.53.15.84.7.69,1.23-.12.44-.53.73-.96.73Z"/>
        <g>
          <path class="cls-2" d="m71.57,167.65l-2.63.26-.17-10.43c1.24-.28,2.47-.72,3.65-1.34,7.16-3.81,9.88-12.71,6.07-19.87l-2.66-5c1.33-.9,1.81-2.66,1.04-4.12h0c-.77-1.47-2.52-2.08-4.02-1.48l-.76-1.43c-3.81-7.16-12.71-9.88-19.87-6.07h0c-6.04,3.22-8.92,10.05-7.38,16.41-2.65.83-4.43,3.44-4.11,6.31.28,2.5,2.08,4.45,4.37,5.06l.47,29.14-5.33,4.58c1.9,5.24,6.78,10.18,13.49,12.91,10.66,4.34,21.91,1.49,25.11-6.38,2.51-6.15-.66-13.54-7.26-18.55Z"/>
          <path class="cls-3" d="m63.71,195.6c-3.34,0-6.89-.67-10.37-2.09-6.73-2.74-11.98-7.79-14.05-13.5-.14-.39-.03-.83.29-1.1l4.98-4.28-.45-27.95c-2.4-.92-4.08-3.08-4.38-5.67-.34-2.98,1.29-5.81,3.95-7.05-1.23-6.68,2.01-13.44,8.07-16.67,7.64-4.06,17.16-1.16,21.22,6.48l.39.73c1.76-.3,3.55.55,4.4,2.19.84,1.61.53,3.54-.67,4.82l2.28,4.29c4.06,7.64,1.16,17.16-6.48,21.22-.97.51-2.01.93-3.1,1.24l.14,8.55,1.54-.16c.25-.03.5.04.71.2,7.13,5.42,10.18,13.34,7.58,19.72-2.34,5.75-8.68,9.02-16.04,9.02Zm-22.3-15.63c2.03,4.92,6.72,9.26,12.68,11.69,10.14,4.13,20.82,1.51,23.81-5.83,2.22-5.44-.45-12.29-6.63-17.14l-2.23.22c-.28.02-.56-.06-.77-.25-.21-.19-.33-.45-.33-.73l-.17-10.43c0-.47.32-.89.78-.99,1.21-.28,2.36-.7,3.4-1.25,6.66-3.55,9.2-11.85,5.65-18.52l-2.66-5c-.24-.45-.1-1.01.32-1.3.93-.63,1.24-1.85.72-2.83-.52-1-1.71-1.43-2.77-1.01-.48.19-1.01,0-1.25-.46l-.76-1.43c-1.72-3.23-4.59-5.59-8.09-6.66-3.5-1.07-7.2-.71-10.43,1.01-5.52,2.94-8.35,9.22-6.88,15.29.12.51-.17,1.03-.67,1.19-2.24.7-3.68,2.91-3.41,5.24.23,2.03,1.66,3.68,3.63,4.2.43.11.74.5.74.95l.47,29.14c0,.3-.12.58-.35.77l-4.8,4.12Z"/>
        </g>
        <path class="cls-3" d="m47.69,142.74c-.45,0-.86-.31-.97-.77-.41-1.72-2.06-2-2.14-2.01-.54-.09-.92-.59-.84-1.14.08-.54.58-.93,1.12-.84.12.02,3.06.46,3.79,3.52.13.54-.2,1.08-.74,1.21-.08.02-.16.03-.23.03Z"/>
        <path class="cls-3" d="m71.2,136.24c-.99,0-2.15-.35-3.41-1.36-.43-.35-.5-.97-.15-1.41.35-.43.98-.5,1.41-.15,2.08,1.67,3.28.62,3.5.39.38-.39,1.01-.42,1.41-.04.4.37.43.99.07,1.4-.5.55-1.5,1.18-2.82,1.18Z"/>
        <path class="cls-3" d="m69.4,127.14c.27.78-.04,1.59-.68,1.81-.64.22-1.38-.23-1.65-1.01-.27-.78.04-1.59.68-1.81.64-.22,1.38.23,1.65,1.01Z"/>
        <path class="cls-3" d="m66.32,122.84c.37.36-.13,1.48-1.13,2.51-.99,1.03-2.1,1.57-2.47,1.21-.37-.36.13-1.48,1.13-2.51.99-1.03,2.1-1.57,2.47-1.21Z"/>
        <path class="cls-3" d="m47.87,120.59c-6.06,2.08-9.83,8.28-8.74,14.71,1.6.64,3.42.84,5.26.46,4.79-.99,7.9-5.48,6.96-10.04-.45-2.17-1.74-3.96-3.48-5.13Z"/>
        <path class="cls-3" d="m65.83,158.64c-5.71,0-11.15-3.15-13.9-8.32-.26-.49-.07-1.09.41-1.35.49-.26,1.09-.07,1.35.41,2.83,5.31,8.92,8.18,14.81,6.99.54-.11,1.07.24,1.18.78.11.54-.24,1.07-.78,1.18-1.03.21-2.06.31-3.08.31Z"/>
      </g>
      <path class="cls-2" d="m114.76,232.6c-.49,0-.92-.36-.99-.86l-6.78-47.49c-.08-.55.3-1.05.85-1.13.55-.08,1.05.3,1.13.85l6.78,47.49c.08.55-.3,1.05-.85,1.13-.05,0-.1,0-.14,0Z"/>
      <path class="cls-2" d="m40.71,230.91c-.06,0-.13,0-.2-.02-.54-.11-.89-.63-.78-1.18l1.7-8.48c.11-.54.63-.9,1.18-.78.54.11.89.63.78,1.18l-1.7,8.48c-.1.48-.51.8-.98.8Z"/>
    </g>
    <g>
      <path class="cls-2" d="m168.48,228.82c-.07.66-.1,1.31-.12,1.97h34.69l-3.07-40.49,11.02-26.48c.15-.35.03-.75-.28-.97l-17.5-12.4-1.62-16.66c-.28-2.9-2.88-5.04-5.78-4.75-2.9.28-5.04,2.88-4.75,5.78l1.6,16.48c-.17,0-.33,0-.5.02-1.41.14-2.68.81-3.57,1.91-1.11,1.35-1.44,3.1-1.03,4.68-1.4.09-2.77.74-3.73,1.91-.9,1.09-1.32,2.47-1.18,3.87.03.3.09.58.16.87-1.15.22-2.22.8-3.01,1.75-1.02,1.23-1.43,2.82-1.14,4.38l-.52,5.03c-.72,7.04,1.38,14.22,5.78,19.75l-5.46,33.36Z"/>
      <g>
        <path class="cls-2" d="m193.35,160.1l-8.92.87-2.55-26.23c-.24-2.46,1.56-4.66,4.03-4.9h0c2.46-.24,4.66,1.56,4.9,4.03l2.55,26.23Z"/>
        <path class="cls-3" d="m184.43,161.97c-.51,0-.94-.39-.99-.9l-2.55-26.23c-.29-3.01,1.92-5.7,4.93-5.99,3.01-.29,5.7,1.92,5.99,4.93l2.55,26.23c.03.26-.05.53-.22.73-.17.2-.41.33-.68.36l-8.92.87s-.07,0-.1,0Zm1.91-31.15c-.11,0-.23,0-.34.02-1.91.19-3.31,1.89-3.13,3.8l2.46,25.24,6.93-.67-2.46-25.24c-.17-1.8-1.69-3.15-3.46-3.15Z"/>
      </g>
      <g>
        <path class="cls-2" d="m197.23,168.55h0c-1.57,1.91-4.4,2.19-6.31.61l-11.08-9.12c-1.91-1.57-2.19-4.4-.61-6.31h0c1.57-1.91,4.4-2.19,6.31-.61l11.08,9.12c1.91,1.57,2.19,4.4.61,6.31Z"/>
        <path class="cls-3" d="m193.76,171.18c-1.27,0-2.48-.43-3.47-1.25l-11.08-9.12c-1.13-.93-1.83-2.25-1.97-3.7-.14-1.46.29-2.88,1.22-4.01.93-1.13,2.25-1.83,3.7-1.97s2.88.29,4.01,1.22l11.08,9.12c1.13.93,1.83,2.25,1.97,3.7.14,1.46-.29,2.88-1.22,4.01t0,0c-.93,1.13-2.25,1.83-3.7,1.97-.18.02-.36.03-.54.03Zm-11.07-18.08c-.11,0-.23,0-.34.02-.93.09-1.76.54-2.35,1.25-.59.72-.87,1.62-.78,2.55.09.93.54,1.76,1.25,2.35l11.08,9.12c.72.59,1.62.88,2.55.78.93-.09,1.76-.54,2.35-1.25.59-.72.87-1.62.78-2.55-.09-.93-.54-1.76-1.25-2.35l-11.08-9.12c-.63-.52-1.4-.79-2.21-.79Zm14.54,15.45h0,0Z"/>
      </g>
      <g>
        <path class="cls-2" d="m192.47,175.14h0c-1.57,1.91-4.4,2.19-6.31.61l-11.08-9.12c-1.91-1.57-2.19-4.4-.61-6.31h0c1.57-1.91,4.4-2.19,6.31-.61l11.08,9.12c1.91,1.57,2.19,4.4.61,6.31Z"/>
        <path class="cls-3" d="m189,177.77c-1.27,0-2.48-.43-3.47-1.25l-11.08-9.12c-1.13-.93-1.83-2.25-1.97-3.7-.14-1.46.29-2.88,1.22-4.01,1.92-2.33,5.38-2.67,7.72-.75l11.08,9.12c1.13.93,1.83,2.25,1.97,3.7.14,1.46-.29,2.88-1.22,4.01-.93,1.13-2.25,1.83-3.7,1.97-.18.02-.36.03-.54.03Zm-11.07-18.08c-1.01,0-2.01.43-2.69,1.27-.59.72-.87,1.62-.78,2.55.09.93.54,1.76,1.25,2.35l11.08,9.12c.72.59,1.63.88,2.55.78.93-.09,1.76-.54,2.35-1.25.59-.72.87-1.62.78-2.55-.09-.93-.54-1.76-1.25-2.35l-11.08-9.12c-.65-.53-1.43-.79-2.21-.79Z"/>
      </g>
      <g>
        <path class="cls-2" d="m169.14,231.45c0-.84.05-1.69.14-2.55l5.51-33.66h0c-4.45-5.45-6.55-12.45-5.83-19.44l.53-5.15c-.28-1.3.02-2.72.94-3.82,1.6-1.92,4.51-2.05,6.44-.46l3.43,2.82c1.06.87,1.59,2.12,1.61,3.39.04.17.06.33.08.51l.43,4.42c.23,2.33-1.27,4.58-3.57,5.02-2.64.51-5.08-1.36-5.33-3.96l-.35-3.64-4.03,56.54Z"/>
        <path class="cls-3" d="m169.14,232.45h0c-.55,0-1-.45-.99-1.01,0-.88.05-1.77.14-2.65l5.45-33.28c-4.39-5.57-6.49-12.77-5.76-19.83l.51-5c-.3-1.61.13-3.25,1.18-4.51,1.92-2.31,5.44-2.57,7.85-.59l3.43,2.82c1.21.99,1.92,2.46,1.98,4.05.03.17.06.35.08.52l.43,4.42c.28,2.89-1.64,5.57-4.38,6.1-1.52.3-3.1-.06-4.34-.98-1.24-.92-2.03-2.33-2.18-3.86l-.35-3.64c-.05-.55.35-1.04.9-1.09.56-.05,1.04.35,1.09.9l.35,3.64c.09.97.6,1.87,1.38,2.46.8.59,1.78.82,2.76.62,1.73-.34,2.95-2.07,2.77-3.95l-.43-4.42c-.01-.13-.04-.26-.06-.39-.01-.06-.02-.13-.02-.19-.02-1.04-.47-2-1.25-2.64l-3.43-2.82c-1.56-1.28-3.82-1.13-5.04.33-.69.83-.96,1.91-.73,2.97.02.1.03.21.02.31l-.53,5.15c-.69,6.68,1.36,13.5,5.61,18.71.18.22.26.51.21.79l-5.51,33.66c-.08.76-.12,1.58-.12,2.4,0,.55-.45.99-1,.99Z"/>
      </g>
      <g>
        <path class="cls-2" d="m191.15,181.93c-.04-11.53,8.64-14.89,8.64-14.89l-8.64-9.19c-1.39-1.48-1.99-3.54-1.61-5.54h0c.27-1.43,1.94-2.1,3.13-1.26l17.58,12.45-11.1,26.66,3.03,40.62-11.03-48.85Z"/>
        <path class="cls-3" d="m202.19,231.78c-.52,0-.96-.4-1-.93l-3.03-40.62c-.01-.16.01-.31.07-.46l10.79-25.92-16.93-11.99c-.28-.2-.63-.24-.96-.11-.32.13-.55.4-.61.74-.32,1.68.19,3.42,1.35,4.67l8.64,9.19c.23.24.32.58.25.91-.07.32-.3.59-.61.71-.33.13-8.04,3.3-8,13.96,0,.55-.44,1-1,1h0c-.55,0-1-.45-1-1-.03-9.32,5.46-13.66,8.01-15.17l-7.73-8.23c-1.61-1.71-2.3-4.11-1.86-6.42.19-1.01.88-1.84,1.83-2.22.95-.38,2.02-.26,2.86.33l17.58,12.46c.38.27.52.77.35,1.2l-11.01,26.44,3.01,40.38c.04.55-.37,1.03-.92,1.07-.03,0-.05,0-.08,0Z"/>
      </g>
    </g>
  </g>
</svg>