<?xml version="1.0" encoding="UTF-8"?>
<svg id="Layer_1" data-name="Layer 1" xmlns="http://www.w3.org/2000/svg" xmlns:xlink="http://www.w3.org/1999/xlink" viewBox="0 0 121.25 108.56">
  <defs>
    <style>
      .cls-1 {
        fill: url(#GradientFill_62);
      }

      .cls-1, .cls-2, .cls-3, .cls-4, .cls-5, .cls-6, .cls-7, .cls-8, .cls-9, .cls-10, .cls-11, .cls-12, .cls-13, .cls-14, .cls-15, .cls-16, .cls-17, .cls-18, .cls-19, .cls-20, .cls-21, .cls-22, .cls-23, .cls-24, .cls-25, .cls-26, .cls-27, .cls-28, .cls-29, .cls-30, .cls-31, .cls-32, .cls-33, .cls-34, .cls-35, .cls-36, .cls-37, .cls-38, .cls-39, .cls-40, .cls-41, .cls-42, .cls-43, .cls-44, .cls-45, .cls-46, .cls-47, .cls-48, .cls-49, .cls-50, .cls-51, .cls-52, .cls-53, .cls-54, .cls-55, .cls-56, .cls-57, .cls-58, .cls-59, .cls-60, .cls-61, .cls-62, .cls-63, .cls-64, .cls-65, .cls-66, .cls-67, .cls-68, .cls-69, .cls-70 {
        fill-rule: evenodd;
      }

      .cls-2 {
        fill: url(#GradientFill_77);
      }

      .cls-3 {
        fill: url(#GradientFill_78);
      }

      .cls-4 {
        fill: url(#GradientFill_17);
      }

      .cls-5 {
        fill: url(#GradientFill_32);
      }

      .cls-6 {
        fill: url(#GradientFill_15);
      }

      .cls-7 {
        fill: url(#GradientFill_39);
      }

      .cls-8 {
        fill: url(#GradientFill_57);
      }

      .cls-9 {
        fill: url(#GradientFill_23);
      }

      .cls-10 {
        fill: url(#GradientFill_37);
      }

      .cls-11 {
        fill: url(#GradientFill_35);
      }

      .cls-12 {
        fill: url(#GradientFill_30);
      }

      .cls-13 {
        fill: url(#GradientFill_22);
      }

      .cls-14 {
        fill: url(#GradientFill_122-2);
      }

      .cls-15 {
        fill: url(#GradientFill_114-2);
      }

      .cls-16 {
        fill: url(#GradientFill_270-2);
      }

      .cls-17 {
        fill: url(#GradientFill_9-3);
      }

      .cls-18 {
        fill: url(#GradientFill_9-2);
      }

      .cls-19 {
        fill: url(#GradientFill_8-2);
      }

      .cls-20 {
        fill: url(#GradientFill_7-4);
      }

      .cls-21 {
        fill: url(#GradientFill_7-7);
      }

      .cls-22 {
        fill: url(#GradientFill_7-5);
      }

      .cls-23 {
        fill: url(#GradientFill_7-3);
      }

      .cls-24 {
        fill: url(#GradientFill_7-6);
      }

      .cls-25 {
        fill: url(#GradientFill_7-2);
      }

      .cls-26 {
        fill: url(#GradientFill_199);
      }

      .cls-27 {
        fill: url(#GradientFill_141);
      }

      .cls-28 {
        fill: url(#GradientFill_176);
      }

      .cls-29 {
        fill: url(#GradientFill_129);
      }

      .cls-30 {
        fill: url(#GradientFill_122);
      }

      .cls-31 {
        fill: url(#GradientFill_121);
      }

      .cls-32 {
        fill: url(#GradientFill_117);
      }

      .cls-33 {
        fill: url(#GradientFill_113);
      }

      .cls-34 {
        fill: url(#GradientFill_112);
      }

      .cls-35 {
        fill: url(#GradientFill_114);
      }

      .cls-36 {
        fill: url(#GradientFill_270);
      }

      .cls-37 {
        fill: url(#GradientFill_318);
      }

      .cls-38 {
        fill: url(#GradientFill_316);
      }

      .cls-39 {
        fill: url(#GradientFill_322);
      }

      .cls-40 {
        fill: url(#GradientFill_329);
      }

      .cls-41 {
        fill: url(#GradientFill_330);
      }

      .cls-42 {
        fill: url(#GradientFill_317);
      }

      .cls-43 {
        fill: url(#GradientFill_485);
      }

      .cls-44 {
        fill: url(#GradientFill_35-2);
      }

      .cls-45 {
        fill: url(#GradientFill_17-2);
      }

      .cls-46 {
        fill: url(#GradientFill_15-3);
      }

      .cls-47 {
        fill: url(#GradientFill_15-2);
      }

      .cls-48 {
        fill: url(#GradientFill_32-5);
      }

      .cls-49 {
        fill: url(#GradientFill_32-4);
      }

      .cls-50 {
        fill: url(#GradientFill_32-3);
      }

      .cls-51 {
        fill: url(#GradientFill_32-2);
      }

      .cls-52 {
        fill: url(#GradientFill_32-7);
      }

      .cls-53 {
        fill: url(#GradientFill_32-8);
      }

      .cls-54 {
        fill: url(#GradientFill_32-6);
      }

      .cls-55 {
        fill: #3699eb;
      }

      .cls-56 {
        fill: #282f39;
      }

      .cls-57 {
        fill: #1a8ce8;
      }

      .cls-58 {
        fill: #0d3f6a;
      }

      .cls-59 {
        fill: #197ace;
      }

      .cls-60 {
        fill: #a1c6eb;
      }

      .cls-61 {
        fill: #11548e;
      }

      .cls-62 {
        fill: #131417;
      }

      .cls-63 {
        fill: #d4e7fa;
      }

      .cls-64 {
        fill: #67a9ec;
      }

      .cls-65 {
        fill: #041421;
      }

      .cls-66 {
        fill: #8cbae6;
      }

      .cls-67 {
        fill: #fff;
      }

      .cls-68 {
        fill: url(#GradientFill_8);
      }

      .cls-69 {
        fill: url(#GradientFill_9);
      }

      .cls-70 {
        fill: url(#GradientFill_7);
      }
    </style>
    <linearGradient id="GradientFill_322" data-name="GradientFill 322" x1="79.25" y1="52.11" x2="73.76" y2="18.78" gradientUnits="userSpaceOnUse">
      <stop offset="0" stop-color="#0d172b"/>
      <stop offset="1" stop-color="#253d60"/>
    </linearGradient>
    <linearGradient id="GradientFill_485" data-name="GradientFill 485" x1="64.08" y1="55.13" x2="59.1" y2="24.88" gradientUnits="userSpaceOnUse">
      <stop offset="0" stop-color="#000710"/>
      <stop offset="1" stop-color="#0d162a"/>
    </linearGradient>
    <linearGradient id="GradientFill_7" data-name="GradientFill 7" x1="40.65" y1="44.91" x2="46.14" y2="11.58" gradientUnits="userSpaceOnUse">
      <stop offset="0" stop-color="#0a5791"/>
      <stop offset="1" stop-color="#137cc1"/>
    </linearGradient>
    <linearGradient id="GradientFill_32" data-name="GradientFill 32" x1="12.21" y1="91.49" x2="10.48" y2="91.52" gradientUnits="userSpaceOnUse">
      <stop offset="0" stop-color="#151d2c"/>
      <stop offset="1" stop-color="#454e5b"/>
    </linearGradient>
    <linearGradient id="GradientFill_32-2" data-name="GradientFill 32" x1="5.17" y1="91.17" x2="3.69" y2="91" xlink:href="#GradientFill_32"/>
    <linearGradient id="GradientFill_15" data-name="GradientFill 15" x1="7.83" y1="82.62" x2="2.81" y2="84.25" gradientUnits="userSpaceOnUse">
      <stop offset="0" stop-color="#151d2c"/>
      <stop offset="1" stop-color="#303745"/>
    </linearGradient>
    <linearGradient id="GradientFill_32-3" data-name="GradientFill 32" x1="9.63" y1="83.14" x2="12.03" y2="81.4" xlink:href="#GradientFill_32"/>
    <linearGradient id="GradientFill_112" data-name="GradientFill 112" x1="8.28" y1="75.76" x2="5.29" y2="68.22" gradientUnits="userSpaceOnUse">
      <stop offset="0" stop-color="#d3dce5"/>
      <stop offset=".43" stop-color="#e2e7f0"/>
      <stop offset="1" stop-color="#f4f5fb"/>
    </linearGradient>
    <linearGradient id="GradientFill_30" data-name="GradientFill 30" x1="7.14" y1="75.8" x2="7.71" y2="69.19" gradientUnits="userSpaceOnUse">
      <stop offset="0" stop-color="#d3dce5"/>
      <stop offset="1" stop-color="#f4f5fb"/>
    </linearGradient>
    <linearGradient id="GradientFill_9" data-name="GradientFill 9" x1="9.27" y1="73.34" x2="9.68" y2="72.49" gradientUnits="userSpaceOnUse">
      <stop offset="0" stop-color="#faa85d"/>
      <stop offset="1" stop-color="#fed7b3"/>
    </linearGradient>
    <linearGradient id="GradientFill_114" data-name="GradientFill 114" x1="5.33" y1="69.8" x2="6.95" y2="68.75" gradientUnits="userSpaceOnUse">
      <stop offset="0" stop-color="#c9d5e3"/>
      <stop offset=".49" stop-color="#e2e7f0"/>
      <stop offset="1" stop-color="#f4f5fb"/>
    </linearGradient>
    <linearGradient id="GradientFill_113" data-name="GradientFill 113" x1="6.78" y1="65.43" x2="6.68" y2="66.14" gradientUnits="userSpaceOnUse">
      <stop offset="0" stop-color="#faa85d"/>
      <stop offset="1" stop-color="#fcc28c"/>
    </linearGradient>
    <linearGradient id="GradientFill_9-2" data-name="GradientFill 9" x1="6.58" y1="64.63" x2="7.77" y2="62.7" xlink:href="#GradientFill_9"/>
    <linearGradient id="GradientFill_15-2" data-name="GradientFill 15" x1="6.52" y1="62.02" x2="10.07" y2="60.24" xlink:href="#GradientFill_15"/>
    <linearGradient id="GradientFill_270" data-name="GradientFill 270" x1="62.05" y1="68.64" x2="61.53" y2="66.55" gradientUnits="userSpaceOnUse">
      <stop offset="0" stop-color="#f4ae6e"/>
      <stop offset="1" stop-color="#fdc898"/>
    </linearGradient>
    <linearGradient id="GradientFill_316" data-name="GradientFill 316" x1="64.27" y1="67.95" x2="61.53" y2="66.74" gradientUnits="userSpaceOnUse">
      <stop offset="0" stop-color="#9baec0"/>
      <stop offset=".41" stop-color="#dae1e9"/>
      <stop offset="1" stop-color="#e9ecf4"/>
    </linearGradient>
    <linearGradient id="GradientFill_32-4" data-name="GradientFill 32" x1="64.82" y1="91.17" x2="66.4" y2="91.2" xlink:href="#GradientFill_32"/>
    <linearGradient id="GradientFill_32-5" data-name="GradientFill 32" x1="69.13" y1="91.37" x2="70.8" y2="91.4" xlink:href="#GradientFill_32"/>
    <linearGradient id="GradientFill_129" data-name="GradientFill 129" x1="65.96" y1="82.41" x2="61.79" y2="79.37" gradientUnits="userSpaceOnUse">
      <stop offset="0" stop-color="#060f1e"/>
      <stop offset="1" stop-color="#454e5b"/>
    </linearGradient>
    <linearGradient id="GradientFill_32-6" data-name="GradientFill 32" x1="69.48" y1="82.82" x2="64.21" y2="79.47" xlink:href="#GradientFill_32"/>
    <linearGradient id="GradientFill_317" data-name="GradientFill 317" x1="70.07" y1="74.13" x2="65.56" y2="66.04" gradientUnits="userSpaceOnUse">
      <stop offset="0" stop-color="#9baec0"/>
      <stop offset=".46" stop-color="#dae1e9"/>
      <stop offset=".69" stop-color="#dae1e9"/>
      <stop offset="1" stop-color="#e9ecf4"/>
    </linearGradient>
    <linearGradient id="GradientFill_117" data-name="GradientFill 117" x1="69.17" y1="71.73" x2="66.68" y2="66.36" gradientUnits="userSpaceOnUse">
      <stop offset="0" stop-color="#9baec0"/>
      <stop offset="1" stop-color="#dae1e9"/>
    </linearGradient>
    <linearGradient id="GradientFill_270-2" data-name="GradientFill 270" x1="71.49" y1="73.33" x2="71.23" y2="72.07" xlink:href="#GradientFill_270"/>
    <linearGradient id="GradientFill_318" data-name="GradientFill 318" x1="72.89" y1="72.18" x2="69.72" y2="66.96" gradientUnits="userSpaceOnUse">
      <stop offset="0" stop-color="#9baec0"/>
      <stop offset=".5" stop-color="#dae1e9"/>
      <stop offset="1" stop-color="#e9ecf4"/>
    </linearGradient>
    <linearGradient id="GradientFill_77" data-name="GradientFill 77" x1="67.97" y1="63.94" x2="68.12" y2="64.19" gradientUnits="userSpaceOnUse">
      <stop offset="0" stop-color="#faa85d"/>
      <stop offset="1" stop-color="#fdc490"/>
    </linearGradient>
    <linearGradient id="GradientFill_78" data-name="GradientFill 78" x1="68.01" y1="62.95" x2="67.24" y2="60.77" gradientUnits="userSpaceOnUse">
      <stop offset="0" stop-color="#fcbc80"/>
      <stop offset="1" stop-color="#fed7b3"/>
    </linearGradient>
    <linearGradient id="GradientFill_7-2" data-name="GradientFill 7" x1="75.39" y1="60.07" x2="75.44" y2="56.4" xlink:href="#GradientFill_7"/>
    <linearGradient id="GradientFill_7-3" data-name="GradientFill 7" x1="42.05" y1="61.03" x2="42" y2="57.35" xlink:href="#GradientFill_7"/>
    <linearGradient id="GradientFill_32-7" data-name="GradientFill 32" x1="51.09" y1="82.29" x2="54.89" y2="80.32" xlink:href="#GradientFill_32"/>
    <linearGradient id="GradientFill_32-8" data-name="GradientFill 32" x1="46.7" y1="82.7" x2="52.07" y2="79.34" xlink:href="#GradientFill_32"/>
    <linearGradient id="GradientFill_329" data-name="GradientFill 329" x1="52.16" y1="69.03" x2="53.02" y2="68.38" gradientUnits="userSpaceOnUse">
      <stop offset="0" stop-color="#dae1e9"/>
      <stop offset=".61" stop-color="#e9ecf4"/>
      <stop offset="1" stop-color="#f4f5fb"/>
    </linearGradient>
    <linearGradient id="GradientFill_330" data-name="GradientFill 330" x1="46.19" y1="72.09" x2="50.57" y2="68.15" gradientUnits="userSpaceOnUse">
      <stop offset="0" stop-color="#c9d5e3"/>
      <stop offset=".46" stop-color="#dae1e9"/>
      <stop offset=".76" stop-color="#e9ecf4"/>
      <stop offset="1" stop-color="#f4f5fb"/>
    </linearGradient>
    <linearGradient id="GradientFill_122" data-name="GradientFill 122" x1="47.71" y1="70.55" x2="48.31" y2="70.01" gradientUnits="userSpaceOnUse">
      <stop offset="0" stop-color="#aabfd3"/>
      <stop offset="1" stop-color="#c1cfde"/>
    </linearGradient>
    <linearGradient id="GradientFill_199" data-name="GradientFill 199" x1="46.71" y1="72.58" x2="47.29" y2="72.31" gradientUnits="userSpaceOnUse">
      <stop offset="0" stop-color="#fdc898"/>
      <stop offset="1" stop-color="#ffead2"/>
    </linearGradient>
    <linearGradient id="GradientFill_176" data-name="GradientFill 176" x1="45.86" y1="67.87" x2="46.34" y2="67.67" gradientUnits="userSpaceOnUse">
      <stop offset="0" stop-color="#dae1e9"/>
      <stop offset="1" stop-color="#f4f5fb"/>
    </linearGradient>
    <linearGradient id="GradientFill_7-4" data-name="GradientFill 7" x1="50.15" y1="74.2" x2="47.9" y2="73.97" xlink:href="#GradientFill_7"/>
    <linearGradient id="GradientFill_7-5" data-name="GradientFill 7" x1="48.29" y1="74.71" x2="48.32" y2="74.65" xlink:href="#GradientFill_7"/>
    <linearGradient id="GradientFill_39" data-name="GradientFill 39" x1="52.38" y1="75" x2="52.37" y2="74.79" gradientUnits="userSpaceOnUse">
      <stop offset="0" stop-color="#0a5791"/>
      <stop offset="1" stop-color="#2d8aca"/>
    </linearGradient>
    <linearGradient id="GradientFill_35" data-name="GradientFill 35" x1="49.64" y1="72.2" x2="49.62" y2="72.19" gradientUnits="userSpaceOnUse">
      <stop offset="0" stop-color="#0a5791"/>
      <stop offset="1" stop-color="#3e96d2"/>
    </linearGradient>
    <linearGradient id="GradientFill_35-2" data-name="GradientFill 35" x1="52.15" y1="73.99" x2="54.28" y2="70.12" xlink:href="#GradientFill_35"/>
    <linearGradient id="GradientFill_57" data-name="GradientFill 57" x1="52.16" y1="73.97" x2="54.27" y2="70.13" gradientUnits="userSpaceOnUse">
      <stop offset="0" stop-color="#137cc1"/>
      <stop offset="1" stop-color="#3e96d2"/>
    </linearGradient>
    <linearGradient id="GradientFill_141" data-name="GradientFill 141" x1="50.32" y1="75.13" x2="51.23" y2="74.13" gradientUnits="userSpaceOnUse">
      <stop offset="0" stop-color="#fcc28c"/>
      <stop offset="1" stop-color="#feddba"/>
    </linearGradient>
    <linearGradient id="GradientFill_22" data-name="GradientFill 22" x1="49.16" y1="64.26" x2="49.01" y2="64.47" gradientUnits="userSpaceOnUse">
      <stop offset="0" stop-color="#fcbe82"/>
      <stop offset="1" stop-color="#ffe4c6"/>
    </linearGradient>
    <linearGradient id="GradientFill_23" data-name="GradientFill 23" x1="49.1" y1="63" x2="50.46" y2="61.26" gradientUnits="userSpaceOnUse">
      <stop offset="0" stop-color="#fed7ad"/>
      <stop offset="1" stop-color="#ffead2"/>
    </linearGradient>
    <linearGradient id="GradientFill_15-3" data-name="GradientFill 15" x1="50.23" y1="64" x2="49.36" y2="58.77" xlink:href="#GradientFill_15"/>
    <linearGradient id="GradientFill_8" data-name="GradientFill 8" x1="111.66" y1="83.3" x2="114.14" y2="82.94" gradientUnits="userSpaceOnUse">
      <stop offset="0" stop-color="#030817"/>
      <stop offset="1" stop-color="#303745"/>
    </linearGradient>
    <linearGradient id="GradientFill_8-2" data-name="GradientFill 8" x1="107.31" y1="83.73" x2="113.23" y2="82.65" xlink:href="#GradientFill_8"/>
    <linearGradient id="GradientFill_121" data-name="GradientFill 121" x1="110" y1="74.99" x2="112.9" y2="67.3" gradientUnits="userSpaceOnUse">
      <stop offset="0" stop-color="#c1cfde"/>
      <stop offset=".43" stop-color="#dae1e9"/>
      <stop offset="1" stop-color="#e9ecf4"/>
    </linearGradient>
    <linearGradient id="GradientFill_122-2" data-name="GradientFill 122" x1="111.43" y1="74.58" x2="110.75" y2="68.61" xlink:href="#GradientFill_122"/>
    <linearGradient id="GradientFill_9-3" data-name="GradientFill 9" x1="109.31" y1="73.01" x2="108.87" y2="72.15" xlink:href="#GradientFill_9"/>
    <linearGradient id="GradientFill_114-2" data-name="GradientFill 114" x1="113.39" y1="69.2" x2="111.61" y2="68.11" xlink:href="#GradientFill_114"/>
    <linearGradient id="GradientFill_37" data-name="GradientFill 37" x1="111.94" y1="64.65" x2="112.03" y2="65.46" gradientUnits="userSpaceOnUse">
      <stop offset="0" stop-color="#fbb677"/>
      <stop offset="1" stop-color="#feddba"/>
    </linearGradient>
    <linearGradient id="GradientFill_17" data-name="GradientFill 17" x1="114.46" y1="64.32" x2="114.8" y2="60.47" gradientUnits="userSpaceOnUse">
      <stop offset="0" stop-color="#000"/>
      <stop offset="1" stop-color="#262525"/>
    </linearGradient>
    <linearGradient id="GradientFill_7-6" data-name="GradientFill 7" x1="113.06" y1="60.32" x2="113.2" y2="60.16" xlink:href="#GradientFill_7"/>
    <linearGradient id="GradientFill_7-7" data-name="GradientFill 7" x1="112.85" y1="60.45" x2="113" y2="60.3" xlink:href="#GradientFill_7"/>
    <linearGradient id="GradientFill_62" data-name="GradientFill 62" x1="112.21" y1="64.08" x2="111.18" y2="61.99" gradientUnits="userSpaceOnUse">
      <stop offset="0" stop-color="#fcc28c"/>
      <stop offset="1" stop-color="#ffead2"/>
    </linearGradient>
    <linearGradient id="GradientFill_17-2" data-name="GradientFill 17" x1="110.6" y1="62.46" x2="112.91" y2="60.92" xlink:href="#GradientFill_17"/>
  </defs>
  <path class="cls-63" d="m31.9,8.43C14.75-6.08-8.28,17.6,2.99,35.65c12,19.22,22.06,9.42,10.48,34.6-8.3,18.07-8.29,31.13,9.48,37.1,18.99,6.37,17.51-14.54,39.51-15.9,19.45-1.2,14.55,9.95,32.57,14.46,19.58,4.91,35.34-21.7,20.14-35.97-15.28-14.35-23.61-8.87-4.2-43.1C120.76,9.57,97.04-2.69,85.04.51c-25,6.66-23.6,32.93-53.14,7.92Z"/>
  <path class="cls-60" d="m15.49,54.46c.32.32.82.9,1.15,1.13.49.33,1.03.49,1.62.49h5.97l-.14,10.41c0,.43.17.81.49,1.07.39.37.77.91,1.16,1.12.47.25.99.25,1.43-.08l15.92-12.52h6.98v3.34c0,.95.46,1.79,1.17,2.32h0c.34.32.96.97,1.31,1.19.46.29.96.42,1.5.42h31.66l15.92,12.52c.84.63,2.16.03,2.16-1.15l-.16-11.37h6.91c1.62-.02,2.88-1.28,2.9-2.9v-30.44c0-.58-.21-1.31-.58-1.73l-1.08-1.04h0c-.53-.71-1.38-1.16-2.32-1.16h-31.81v-3.34c0-.52-.19-1.22-.5-1.62l-.93-.96c-.52-.77-1.4-1.28-2.4-1.28H17.34c-1.6,0-2.9,1.3-2.9,2.9v30.44c0,.9.41,1.7,1.05,2.24h0Zm35.85,7.37"/>
  <polygon class="cls-65" points="108.33 26.16 109.4 27.19 109.49 27.31 109.56 27.43 109.63 27.55 109.69 27.67 109.75 27.8 109.8 27.93 109.85 28.06 109.89 28.2 109.92 28.34 109.94 28.48 109.97 28.63 109.98 28.78 109.98 28.93 109.98 59.37 109.98 59.51 109.97 59.66 109.94 59.81 109.92 59.95 109.89 60.09 109.85 60.22 109.8 60.36 109.75 60.49 109.69 60.62 109.63 60.75 109.56 60.87 109.49 60.99 109.4 61.1 109.31 61.21 109.23 61.31 109.13 61.41 109.03 61.51 108.92 61.6 108.81 61.69 108.7 61.77 108.58 61.84 108.46 61.92 108.34 61.98 108.2 62.04 108.07 62.09 107.94 62.14 107.8 62.18 107.66 62.21 107.52 62.23 107.37 62.25 107.23 62.26 107.08 62.27 100.17 62.27 100.33 73.63 100.33 73.73 100.33 73.83 100.31 73.92 100.29 74.01 100.26 74.1 100.23 74.19 100.19 74.27 100.15 74.35 100.1 74.43 100.04 74.5 99.98 74.58 99.91 74.64 99.85 74.7 99.77 74.76 99.69 74.82 99.61 74.87 99.52 74.91 99.43 74.95 99.34 74.98 99.24 75 99.15 75.03 99.06 75.04 98.96 75.04 98.87 75.04 98.78 75.04 98.69 75.02 98.6 75 98.51 74.97 98.42 74.94 98.34 74.89 98.26 74.84 98.17 74.79 82.26 62.27 50.6 62.27 50.46 62.26 50.31 62.25 50.16 62.23 50.02 62.21 49.88 62.18 49.75 62.14 49.61 62.09 49.48 62.04 49.35 61.98 49.22 61.92 49.1 61.84 48.98 61.77 48.87 61.69 47.8 60.66 47.91 60.74 48.02 60.81 48.15 60.88 48.27 60.94 48.4 61.01 48.53 61.05 48.67 61.1 48.81 61.14 48.95 61.17 49.09 61.2 49.23 61.22 49.38 61.23 49.53 61.23 81.18 61.23 97.1 73.75 97.18 73.81 97.26 73.86 97.35 73.9 97.43 73.94 97.52 73.97 97.61 73.99 97.7 74 97.8 74.01 97.89 74.01 97.98 74 98.08 73.99 98.17 73.97 98.26 73.95 98.35 73.92 98.44 73.88 98.53 73.83 98.62 73.79 98.69 73.73 98.77 73.67 98.85 73.61 98.91 73.55 98.97 73.47 99.02 73.4 99.07 73.32 99.12 73.24 99.15 73.15 99.19 73.07 99.21 72.98 99.24 72.89 99.25 72.79 99.26 72.7 99.26 72.6 99.1 61.23 106.01 61.23 106.16 61.23 106.3 61.22 106.44 61.2 106.59 61.17 106.72 61.14 106.86 61.1 107 61.05 107.13 61.01 107.26 60.94 107.38 60.88 107.51 60.81 107.62 60.74 107.74 60.66 107.85 60.57 107.95 60.48 108.05 60.38 108.15 60.28 108.24 60.17 108.33 60.06 108.41 59.95 108.49 59.83 108.55 59.71 108.61 59.59 108.68 59.46 108.73 59.33 108.77 59.19 108.81 59.05 108.85 58.92 108.87 58.77 108.89 58.63 108.9 58.48 108.9 58.33 108.9 27.89 108.9 27.74 108.89 27.6 108.87 27.45 108.85 27.31 108.81 27.17 108.77 27.03 108.73 26.9 108.68 26.76 108.61 26.64 108.55 26.51 108.49 26.39 108.41 26.27 108.33 26.16"/>
  <path class="cls-39" d="m49.53,24.99h56.47c1.6,0,2.9,1.31,2.9,2.9v30.44c0,1.6-1.3,2.9-2.9,2.9h-6.91l.16,11.37c0,.53-.26.99-.73,1.23-.46.25-1.01.25-1.43-.08l-15.92-12.52h-31.65c-1.6,0-2.91-1.31-2.91-2.9v-30.44c0-1.6,1.31-2.9,2.91-2.9Z"/>
  <path class="cls-43" d="m70.46,24.99h6.56v27.14c-.04,3.15-2.54,5.64-5.68,5.68h-24.71v-6.6h23.72c.08,0,.1-.03.11-.11v-26.11Z"/>
  <path class="cls-65" d="m64.2,40.07c1.96,0,3.54,1.58,3.54,3.54s-1.58,3.54-3.54,3.54-3.54-1.58-3.54-3.54,1.59-3.54,3.54-3.54Z"/>
  <path class="cls-65" d="m91.33,40.07c1.96,0,3.54,1.58,3.54,3.54s-1.58,3.54-3.54,3.54-3.54-1.58-3.54-3.54,1.58-3.54,3.54-3.54Z"/>
  <path class="cls-65" d="m77.77,40.07c1.95,0,3.54,1.58,3.54,3.54s-1.58,3.54-3.54,3.54-3.54-1.58-3.54-3.54,1.58-3.54,3.54-3.54Z"/>
  <path class="cls-67" d="m63.2,39.57c1.95,0,3.54,1.59,3.54,3.54s-1.58,3.54-3.54,3.54-3.54-1.58-3.54-3.54,1.58-3.54,3.54-3.54Z"/>
  <path class="cls-67" d="m90.33,39.57c1.95,0,3.54,1.59,3.54,3.54s-1.59,3.54-3.54,3.54-3.54-1.58-3.54-3.54,1.59-3.54,3.54-3.54Z"/>
  <path class="cls-67" d="m76.76,39.57c1.96,0,3.54,1.59,3.54,3.54s-1.58,3.54-3.54,3.54-3.54-1.58-3.54-3.54,1.58-3.54,3.54-3.54Z"/>
  <path class="cls-58" d="m12.05,53.37l.93.96.11.09.12.08.12.08.12.07.12.06.13.06.13.05.14.04.14.04.14.03.14.02.14.02h.15s.14.01.14.01h6.91l-.93-.96h-7.05s-.15-.01-.15-.01l-.14-.02-.14-.03-.14-.03-.14-.04-.14-.05-.13-.05-.13-.06-.12-.07-.12-.07-.12-.08-.12-.08-.11-.09h0Zm27.59,1.62l-15.92,12.52-.08.06-.08.05-.08.04-.09.04-.09.03-.09.02-.09.02h-.1s-.09,0-.09,0h-.1s-.1-.02-.1-.02l-.09-.02-.1-.03-.09-.03-.09-.04-.09-.04-.09-.05-.07-.05-.08-.06-.92-.96.07.06.08.06.08.05.09.04.09.04.09.03.1.02.09.02h.1s.1.02.1.02h.19s.09-.02.09-.02l.09-.02.09-.03.09-.03.08-.04.08-.05.08-.06,15.92-12.52h31.66c1.62-.02,2.88-1.28,2.9-2.9v-30.44c0-.62-.16-1.1-.49-1.62l.92.96c.32.4.49,1.09.5,1.62v30.44c-.02,1.62-1.28,2.88-2.9,2.9h-31.65Z"/>
  <path class="cls-70" d="m70.38,17.79H13.9c-1.6,0-2.9,1.31-2.9,2.9v30.44c0,1.59,1.31,2.9,2.9,2.9h6.91l-.16,11.37c0,.53.26.98.73,1.23.47.25,1.02.25,1.43-.08l15.92-12.52h31.66c1.6,0,2.9-1.31,2.9-2.9v-30.44c0-1.6-1.3-2.9-2.9-2.9Z"/>
  <path class="cls-58" d="m29.57,32.87c1.96,0,3.54,1.59,3.54,3.54s-1.58,3.54-3.54,3.54-3.54-1.58-3.54-3.54,1.59-3.54,3.54-3.54Z"/>
  <path class="cls-58" d="m56.71,32.87c1.95,0,3.54,1.59,3.54,3.54s-1.58,3.54-3.54,3.54-3.54-1.58-3.54-3.54,1.58-3.54,3.54-3.54Z"/>
  <path class="cls-58" d="m43.14,32.87c1.95,0,3.54,1.59,3.54,3.54s-1.59,3.54-3.54,3.54-3.54-1.58-3.54-3.54,1.58-3.54,3.54-3.54Z"/>
  <path class="cls-67" d="m28.57,32.37c1.95,0,3.54,1.59,3.54,3.54s-1.59,3.54-3.54,3.54-3.54-1.59-3.54-3.54,1.58-3.54,3.54-3.54Z"/>
  <path class="cls-67" d="m55.7,32.37c1.96,0,3.54,1.59,3.54,3.54s-1.58,3.54-3.54,3.54-3.54-1.59-3.54-3.54,1.59-3.54,3.54-3.54Z"/>
  <path class="cls-67" d="m42.13,32.37c1.96,0,3.54,1.59,3.54,3.54s-1.58,3.54-3.54,3.54-3.54-1.59-3.54-3.54,1.58-3.54,3.54-3.54Z"/>
  <path class="cls-61" d="m13.29,66.56l.69-.22h-.03s-.04.02-.04.02h-.04s-.03.02-.03.02h-.03s-.04.02-.04.02l-.03.02h-.04s-.03.03-.03.03l-.03.02-.03.02-.04.02-.03.02-.03.02-.03.02-.03.02-.03.02-.03.02-.03.02-.03.02-.03.03-.03.03-.03.03-.02.03-.03.03-.02.03-.03.03-.02.03-.02.04-.02.03-.02.04-.02.04v.04s-.04.04-.04.04v.04s-.03.04-.03.04v.04s-.03.04-.03.04v.04s-.03.04-.03.04v.04s-.03.05-.03.05v.04s-.02.04-.02.04v.05s-.02.05-.02.05v.05s-.01.05-.01.05v.05s-.01.05-.01.05l-.69.22v-.05s.01-.05.01-.05v-.05s.01-.05.01-.05v-.05s.02-.05.02-.05v-.05s.02-.04.02-.04v-.04s.03-.05.03-.05v-.04s.03-.04.03-.04v-.04s.03-.04.03-.04v-.04s.04-.04.04-.04l.02-.03v-.04s.04-.03.04-.03l.02-.03.02-.03.02-.03.02-.03.03-.03.02-.03.03-.03.02-.03.03-.03.03-.03.03-.03.03-.03.03-.02.03-.03.03-.02.04-.02.03-.02.03-.02.03-.02.03-.02.04-.02h.03s.03-.03.03-.03h.04s.03-.03.03-.03h.04s.03-.03.03-.03h.04s.03-.02.03-.02h.04s.03-.02.03-.02h0Zm-1.25,9.58l.69-.22.07-.02.08-.02.07-.02h.08s.08-.02.08-.02h.08s.08,0,.08,0h.08s.08.02.08.02h.08s.08.03.08.03l.07.02.08.02.07.03.07.04.07.03.07.04.06.05.06.05.06.05.06.06.05.06.05.06.05.06.04.06.05.07.04.07.04.07.03.08.04.08.03.08.02.08.03.08v.08s.03.08.03.08l.02.09v.18s0,.09,0,.09v.09s-.02.09-.02.09v.09s-.03.09-.03.09l-.03.08-.02.09-.03.08-.04.08-.03.08-.04.08-.04.07-.04.07-.05.07-.05.07-.05.06-.05.06-.06.06-.05.05-.07.05-.06.05-.07.04-.06.04-.07.04-.07.03-.69.22.07-.03.07-.03.07-.04.07-.04.06-.05.06-.05.06-.05.05-.06.06-.05.05-.07.05-.06.05-.07.05-.07.04-.08.04-.08.04-.08.03-.08.03-.08.02-.09.02-.08.02-.09v-.09s.02-.09.02-.09v-.09s.01-.09.01-.09v-.09s-.01-.09-.01-.09v-.09s-.02-.08-.02-.08l-.02-.08-.02-.08-.02-.08-.03-.08-.03-.08-.04-.08-.04-.07-.05-.07-.04-.07-.05-.07-.05-.07-.05-.06-.05-.06-.05-.05-.06-.05-.06-.04-.06-.05-.07-.04-.07-.04-.07-.03-.08-.03-.08-.03-.07-.02-.08-.02h-.08s-.08-.02-.08-.02h-.08s-.08,0-.08,0h-.08s-.07.01-.07.01h-.08s-.08.03-.08.03l-.08.02-.07.02h0Zm.21-12.25l.11-.02.11-.02.12-.02.11-.02h.12s.12-.02.12-.02h.12s.12-.01.12-.01h.12s.12,0,.12,0h.25s.12.01.12.01h.13s.13.02.13.02h.14s.14.03.14.03l.13.02.13.02.13.02.13.02.13.03.12.03.12.03.12.03.12.04.12.03.11.04.12.04.11.04.1.05.11.05.1.05.1.05.1.06.1.06.1.06.09.06.1.07.08.07.09.07.08.08.08.08.08.08.08.08.08.08.07.08.08.08.07.09.06.09.07.09.06.09.05.1.05.1.05.1.05.1.05.1.05.1.04.1.04.1.04.1.04.11.03.11.03.11.03.11.03.12.02.11.02.12v.12s.03.12.03.12v.12s.02.12.02.12v.25s0,.12,0,.12v.13s0,.13,0,.13v.13s-.02.13-.02.13v.08s-.02.08-.02.08v.08s-.02.08-.02.08v.08s-.03.08-.03.08v.08s-.04.08-.04.08v.08s-.03.08-.03.08l-.02.08-.03.08-.02.08-.03.08-.02.07-.04.07-.03.08-.03.07-.03.07-.04.07-.03.08-.04.07-.03.07-.04.07-.04.07-.04.07-.04.07-.04.07-.05.07-.05.06-.05.07-.05.06-.05.07-.05.06-.05.06-.05.06-.05.06-.05.06-.05.06-.05.05-.05.06-.05.06-.05.05-.06.05-.05.05-.06.05-.05.05-.06.05-.06.05-.06.05-.06.04-.06.05-.06.04-.07.04-.06.04-.07.04-.06.04-.07.04-.07.04-.07.04-.07.03-.07.04-.07.03-.07.03-.04.02-.04.03-.03.02-.04.03-.04.02-.03.02-.04.03-.03.02-.04.02-.03.03-.04.03-.03.03-.04.03-.03.03-.03.02-.03.03-.02.03-.03.03-.03.03-.03.03-.03.03-.02.03-.02.03-.03.03-.02.03-.02.03-.02.03-.02.03-.02.03-.02.03v.03s-.03.03-.03.03l-.02.03v.03s-.03.03-.03.03v.03s-.03.03-.03.03l-.02.03v.03s-.03.03-.03.03v.04s-.02.03-.02.03v.04s-.03.04-.03.04v.04s-.02.04-.02.04v.04s-.02.04-.02.04v.04s-.02.04-.02.04v.04s-.02.05-.02.05v.04s-.01.04-.01.04v.05s-.02.05-.02.05v.05s-.01.05-.01.05v.05s-.01.05-.01.05v.05s-.01.05-.01.05v.11s.68-.22.68-.22v-.05s.01-.05.01-.05v-.1s.01-.05.01-.05v-.05s.01-.05.01-.05v-.05s.01-.04.01-.04v-.05s.02-.04.02-.04v-.05s.02-.04.02-.04v-.04s.01-.04.01-.04v-.04s.02-.04.02-.04v-.04s.03-.04.03-.04v-.04s.02-.04.02-.04v-.04s.03-.03.03-.03v-.04s.03-.04.03-.04v-.03s.03-.03.03-.03v-.03s.03-.03.03-.03v-.03s.03-.03.03-.03l.02-.03v-.03s.03-.03.03-.03l.02-.03.02-.03.02-.03v-.03s.03-.03.03-.03l.03-.03.02-.03.02-.03.03-.03.02-.03.03-.03.03-.03.03-.03.03-.02.03-.03.03-.03.03-.03.04-.03.03-.03.03-.03.04-.02.03-.02.04-.03.04-.03.03-.02.04-.02.04-.03.04-.02.03-.03.04-.02.07-.03.07-.03.08-.04.07-.04.07-.04.06-.04.07-.04.07-.04.06-.04.07-.04.06-.04.06-.04.06-.05.06-.05.06-.04.06-.05.06-.05.06-.05.05-.05.06-.05.05-.05.05-.06.05-.05.05-.06.05-.06.05-.06.05-.06.05-.06.05-.06.05-.06.05-.06.05-.07.05-.06.05-.07.04-.06.05-.07.04-.07.04-.06.04-.07.04-.07.04-.07.03-.07.04-.07.03-.07.04-.07.03-.07.03-.08.04-.07.03-.07.02-.08.03-.08.03-.08.02-.08.02-.08.02-.08.02-.08v-.08s.03-.08.03-.08v-.08s.03-.08.03-.08v-.08s.03-.08.03-.08v-.08s.01-.08.01-.08v-.14s.02-.13.02-.13v-.13s0-.13,0-.13v-.37s-.01-.12-.01-.12v-.12s-.03-.12-.03-.12v-.12s-.04-.12-.04-.12l-.02-.11-.03-.11-.02-.11-.04-.11-.03-.11-.03-.11-.04-.11-.04-.1-.04-.1-.04-.1-.05-.1-.05-.1-.05-.1-.06-.1-.05-.1-.06-.09-.06-.09-.07-.09-.07-.09-.08-.09-.07-.08-.08-.08-.08-.08-.08-.08-.07-.08-.09-.07-.08-.07-.09-.07-.1-.07-.09-.07-.1-.06-.1-.06-.1-.06-.1-.05-.1-.05-.11-.05-.1-.05-.11-.04-.11-.04-.12-.04-.12-.04-.12-.04-.12-.03-.12-.03-.12-.03-.13-.03-.12-.02-.13-.02-.14-.02-.13-.02h-.14s-.14-.03-.14-.03h-.13s-.13-.02-.13-.02h-.12s-.12,0-.12,0h-.12s-.12,0-.12,0h-.24s-.12.01-.12.01h-.12s-.11.02-.11.02h-.12s-.11.03-.11.03l-.12.02-.11.02-.68.22Z"/>
  <path class="cls-64" d="m11.2,74.73c.09-.97.31-1.68.66-2.14.36-.46.96-.97,1.83-1.54.45-.26.8-.59,1.08-1,.28-.41.45-.9.49-1.46.05-.59-.05-1.07-.29-1.44-.25-.37-.64-.58-1.16-.62-.42-.04-.77.08-1.08.34-.31.26-.49.67-.55,1.23l-3.08-.27v-.06c.09-1.45.6-2.51,1.51-3.16.91-.65,2.05-.92,3.45-.79,1.48.13,2.62.65,3.39,1.56.78.91,1.1,2.08.98,3.5-.08.87-.38,1.65-.91,2.34-.53.69-1.17,1.22-1.93,1.57-.42.26-.72.54-.89.87-.17.33-.29.78-.33,1.36l-3.17-.28h0Zm1.47,1.32c.87.08,1.51.92,1.42,1.9-.08.97-.86,1.7-1.73,1.62-.87-.08-1.51-.92-1.42-1.9.08-.97.86-1.69,1.73-1.62Z"/>
  <path class="cls-57" d="m11.26,74.67l3.05.27c.05-.45.14-.93.34-1.32.21-.39.56-.69.92-.9h0c.74-.35,1.38-.87,1.9-1.55.51-.67.82-1.43.9-2.3.11-1.32-.15-2.5-.97-3.46-.88-1.03-2.11-1.44-3.36-1.54-1.18-.1-2.39.05-3.41.79-.99.71-1.4,1.84-1.5,3.1h0s2.99.27,2.99.27c.05-.47.22-.92.57-1.22.33-.28.71-.38,1.12-.35.47.04.9.23,1.19.65.29.43.36.96.32,1.48-.05.55-.21,1.06-.51,1.5-.29.43-.67.77-1.1,1.01-.38.25-.75.51-1.1.8-.25.21-.5.45-.71.72-.41.54-.58,1.36-.64,2.04h0Zm1.41,1.45c-.84-.08-1.59.62-1.67,1.56-.08.94.53,1.75,1.37,1.83.84.08,1.58-.62,1.66-1.56.08-.93-.53-1.75-1.36-1.83Z"/>
  <path class="cls-59" d="m18.34,67.55c-.04-.24-.08-.47-.15-.69l-3.27,3.06c-.03.06-.07.12-.11.17-.29.43-.67.77-1.1,1.01-.07.05-.14.09-.21.14l-1.78,1.67c-.19.35-.32.78-.39,1.19l7.01-6.55h0Zm-.32-1.15l-2.77,2.59c.03-.13.05-.26.06-.4.04-.53-.03-1.05-.32-1.48-.06-.09-.13-.17-.21-.24l2.09-1.96c.19.15.36.31.51.5.26.31.47.64.62.99Z"/>
  <path class="cls-66" d="m10.1,92.52c4.79,0,8.68.63,8.68,1.4s-3.88,1.4-8.68,1.4-8.67-.63-8.67-1.4,3.88-1.4,8.67-1.4Z"/>
  <polygon class="cls-5" points="12.2 90.93 12.09 92.11 10.54 92.23 10.44 90.82 12.2 90.93"/>
  <path class="cls-62" d="m10.53,91.84c-.21.08-.05,1.79.47,2.01.84.37.68-.5,2.45.49,0,0,.78.44,1.64.06,0,0,.67-.18.73-.83,0,0-.03-.34-.51-.53,0,0-1.13-.1-1.95-.87,0,0-.31-.6-.79-.67,0,0-.73-.02-.72.21.04.67-1.31.37-1.31.13Z"/>
  <polygon class="cls-51" points="5.34 90.66 5.09 91.75 3.61 91.67 3.69 90.33 5.34 90.66"/>
  <path class="cls-6" d="m5.47,91.08s-2.35.03-2.2-.32c.88-2.14.59-4.25,2.5-6.42.13-1.38.25-2.88-.44-4.67-.3-.74-.86-2.25-.08-3.92l3.25.81c.16,1.5.38,4.26-.27,7.81-.34,1.84-2.58,4.35-2.76,6.7Z"/>
  <path class="cls-50" d="m12.47,91.41c-.77.19-1.54.23-2.27,0,.19-2.89-1.05-4.91-.48-7.16-.83-2.05-2.25-3.26-3.49-5.19-.83-1.31-.81-2.58-.43-3.47,1.29.16,2.66.2,3.95.36.55,2.88,1.92,5.47,2.37,7.78.15,2.35.12,5.68.35,7.69Z"/>
  <path class="cls-34" d="m5.65,65.37c-.23-.08-.45-.01-.9.68-.45.7-1.38,2.5.02,5.76.45,1.42-.18,2.76-.07,3.84.03.36.29.64.55.84,0,0,2.86,1.4,4.67-.27.12-.36-.03-.97-.34-1.36-.8-1.03-.46-3.19-.39-4.68.03-.72-.24-2.56-1.4-3.83,0,0-.19-.16-.3-.21-.45-.18-1.29-.61-1.84-.77Z"/>
  <path class="cls-12" d="m6.62,67.06c-.33-.27-.54-.42-.96-.29-.57.17-.64.91-.69,1.45-.25,2.95,6.11,6.11.75,7.08,0,0,1.2,0,2.38-.46-1.02.84-1.91,1.27-3.15,1.37l.31.29h0c.17.08,2.92,1.34,4.66-.27.12-.36-.03-.97-.34-1.36-.28-.36-.42-.86-.48-1.42-.02-.04-.03-.08-.04-.11-2.78-.44-1.67-5.64-2.44-6.27Z"/>
  <path class="cls-62" d="m3.6,91.39c-.18.05-.2,1.6.25,1.85.73.4.66-.39,2.16.65,0,0,.66.46,1.47.2,0,0,.62-.11.73-.69,0,0,0-.31-.42-.53,0,0-1.01-.18-1.68-.95,0,0-.22-.57-.65-.67,0,0-.66-.08-.66.13-.02.61-1.21.22-1.19.01Z"/>
  <path class="cls-69" d="m12.03,73.12c-1.48-.64-3.06-.97-4.29-1.27-.06-.57-.19-1.1-.39-1.75l-1.76.38c.1.69.45,1.49.57,2.25,1.53,1.19,4.85.53,5.87,1.25.89.29,1.17.33,1.76-.03.67-.42.55-.73.44-.85-.16-.14-.11.1-.96.14-.01,0-.25-.05-.25-.17,0-.11.37-.34.37-.4-.02-.32-1.12.44-1.12.44-.05,0-.07.06-.23.03Z"/>
  <path class="cls-35" d="m7.41,69.5l.19,1.5c-.56.24-1.24.34-1.85.34l-.49-1.74c-.76-2.99,2.13-4.81,2.14-.1Z"/>
  <path class="cls-33" d="m8.13,65.05s-.82,1.13-.28,1.58c.04.72-2.01-.68-2.35-1.19,0,0,.19-.03.22-.15,0,0,.27-.67.13-1.37l.5.1,1.78,1.03Z"/>
  <path class="cls-18" d="m8.99,63.45c-.04.3.24.9.23,1-.01.1-.44.02-.47.09-.16.36-.18.38-.39,1.06-.12.37-1.7-.43-1.93-.71-.29-.31-.36-.55-.38-.85,0-.05-.07.03-.14-.03-.84-.67-.59-1.42-.38-1.78,0,0,.66-1.35,1.87-1.21,0,0,1.41-.07,1.56.65.38.68.16,1.26.03,1.78Z"/>
  <path class="cls-47" d="m7.02,62.28s.89.62,1.46.62c0,0-.58-.49-.64-.6,0,0,1.73.65,2.34.53,0,0,.61-.16.79-.64,0,0-.7,0-1.1-.27,0,0,.34,0,.71-.41,0,0-.5-.17-.79-.5,0,0,.55-.12.69-.26,0,0-.46.11-2.01-.43,0,0-1.02-.6-2.32-.19l.16-.43s-.6.47-.81.8l-.34-.49v.81c-1.01.07-.73,2.25.11,3.04,0,0,.29.82.55,1.17.01-.31.11-.61.17-1-.56-.39-.78-1.62-.02-1.26,0,0,.23.58.23,1,0,0,.34-.82.28-1.19,0,0,.23.19.57.3,0,0-.27-.52-.28-.6,0-.07.25,0,.25,0Z"/>
  <path class="cls-66" d="m67.23,91.76c5.11,0,9.26.82,9.26,1.83s-4.15,1.83-9.26,1.83-9.26-.82-9.26-1.83,4.15-1.83,9.26-1.83Z"/>
  <path class="cls-36" d="m58.93,67.11c-.49-.55-1.2-.47-1.43-.39-.81.31-1.25-.65-1.47-.77-.46.42.79,2.61,2.36,2.03.75.22,2.16,3.35,3.93,3.43.55-.37,4.48-4.22,4.56-4.85.28-1.54-1.03-1.77-1.77-1.26-.19.14-2.41,3.58-3.05,4.32-.58-.87-2.06-1.51-3.12-2.51Z"/>
  <path class="cls-38" d="m67.02,65.71c.44-.86-.94-2.1-2.05-.73-.56.69-1.6,2.62-2.87,4.62-.3-.62-1.05-1.04-2.83-2.22-.27.28-.49.89-.57,1.31,0,0,2.45,2.94,3.74,2.73,1.86-1.46,3.88-3.79,4.58-5.71Z"/>
  <polygon class="cls-49" points="64.83 90.67 64.93 91.73 66.35 91.83 66.44 90.56 64.83 90.67"/>
  <polygon class="cls-48" points="69.14 90.84 69.25 91.95 70.74 92.07 70.84 90.73 69.14 90.84"/>
  <path class="cls-62" d="m66.38,91.37c.19.05.26,1.58-.18,1.84-.72.43-.68-.36-2.16.73,0,0-.65.49-1.48.25,0,0-.63-.08-.76-.65,0,0,0-.3.4-.54,0,0,1.01-.22,1.66-1.01,0,0,.2-.57.63-.7,0,0,.66-.1.68.1.05.6,1.23.17,1.21-.04Z"/>
  <path class="cls-29" d="m64.62,90.97s2.17.29,2.13-.13c-.23-2.16.17-4.66-.12-5.92-.2-.84.57-1.76.66-2.69l1.4-7.37-4.3.15c-.24,1.65-.89,6.01-.49,9.71.17,1.59.64,4.29.72,6.25Z"/>
  <path class="cls-54" d="m70.69,74.89c.35.94.51,2.56.01,4.39.05,1.43-.41,3.62-.4,5,0,1.03.77,4.29.86,6.79-.66.22-1.58.22-2.32.04-.34-2.64-.82-4.13-1.28-6.46-.25-1.34-.45-3.16-.7-4.42-.23-1.14-.45-1.54-1.23-2.45-.6-.69-1.28-1.95-1.23-2.76l6.3-.12Z"/>
  <path class="cls-62" d="m70.79,91.53c.21.04.3,1.5-.19,1.77-1.02.56-.99.7-1.45,1.39-.47.75-1.98.72-2.24-.15,0,0-.02-.27.39-.62,0,0,.69-.6,1.02-1.45,0,0,.02-.67.49-.84,0,0,.45-.17.42.05-.05.32,1.44.34,1.57-.16Z"/>
  <path class="cls-42" d="m67.01,63.91c-1.89.21-2.94,2.08-2.18,7.89,0,0-1.04,3.41-.2,3.74l2.68.34c1.38.23,3.99.39,3.58-1.76-.51-2.71.31-7.49.4-9-.03-.76-1.77-1.66-2.31-1.53-.94-.15-1.05.34-1.97.33Z"/>
  <path class="cls-32" d="m69.64,70.28c-.69.87-1.94,2.25-4.66,3.04,1.88-.33,3.5-1.14,4.8-2.17l1-1.08c.07-.98.17-1.95.27-2.8l-.46-3.08c-2.99.46.64,4.63-.95,6.08Z"/>
  <path class="cls-16" d="m72.62,69.63c-.9.37-1.78,1.72-3.19,3.46,0,0-1-.1-1.12.2,0,0-.35.64-.17.86,0,0,.1.13.22.12,0,0,.33.37.55.4.07.08.57,0,.78-.38.16.01.63-.15.69-.65.42-.38,4.52-3.05,3.82-4.22-1.19-1.6-1.8-3.35-3.29-4.87-1.14-.03-1.61.68-1.05,2.46,1.03.99,1.73,1.63,2.76,2.61Z"/>
  <path class="cls-37" d="m70.51,64.19c1.64.12,3.3,4.13,3.83,5.16.18,1.74-2.57,3.05-3.32,4.13-.74.04-1.16-.54-1.28-.86.59-.76,1.85-2.41,2.71-2.98,0,0-2.42-2.03-2.7-2.76,0,0-1.12-2.58.76-2.69Z"/>
  <path class="cls-2" d="m66.24,63.53s.44.55.08,1.07c0,0-.06.77.97.73.55-.03,1.91-.91,1.88-1.63,0,0-.24-.02-.29-.17,0,0-.2-.82.03-1.7l-2.67,1.7Z"/>
  <path class="cls-3" d="m65.46,61.31s.02,1.18.08,1.73c0,0,.07.49.93,1.11.04.03.1.07.14.08.18.06.22.1,1.36-.61,0,0,.47-.37.71-.75,0,0,1.2-1.81.91-2.53,0,0-.15-1.27-1.68-1.32,0,0-1.75-.35-2.05.51-.6.79-.45,1.11-.39,1.78Z"/>
  <path class="cls-56" d="m65.48,61.53c0,.13-.08.58.23.61.05-.14.27-.14.37-.02,0-.05.33-.2.62.14.34-.26.64.03.62.07.17-.12.65-.05.68.17.51-.05.55-.58.58-.74h.1c-.03.36.01.62.01.62.34.26.1.85-.15.81.07.38-.38.81-.66.76-.21.39-.45.4-.45.4-.25.21-.54.16-.71.07-.19.03-.47,0-.64-.29,0,0-.38-.04-.45-.48-.14-.04-.41-.55-.15-.92,0,0-.23-.25-.14-.7,0,0,0-.18.08-.52l.04.04h0Zm.4,1.01s-.07.17.1.26c0,0,.23.09.51.14.29.04.45,0,.45,0,.23-.09.29-.28.29-.28-.24.12-1.16.07-1.34-.13Z"/>
  <path class="cls-56" d="m65.78,60.26s.58.64,1.23-.04c0,0,.49.45,1.01-.04-.07.15.16.6.51.63,0,0,.06.63.08.77h.08s.12-.64.12-.64c.01-.06.53-.13.45.3,0,0-.14.59-.35.84-.05.07-.21.11-.3,0,0-.04-.05,1.12-.18,1.26,0,0,.51-.21.58-.52.04.04.44-.07.45-.44.06,0,.4-.43.22-.61,0,0,.32-.15.36-.5,0,0,.14-.58-.2-.62.04,0,.49-.58-.02-.97.19-.25-.09-.92-.63-.66.12-.23-.33-.59-.58-.29.06-.34-.64-.6-.66-.22,0-.27-.46-.53-.81-.16-.12-.26-.95-.23-1.05.47,0-.14-.3-.34-.44-.06-.05-.23-.6-.33-.77.14-.14,0-.64.6,0,.93-.11.33.55.87.89.44Z"/>
  <path class="cls-25" d="m74.14,56.36h2.54c1.4,0,2.54,1.14,2.54,2.53h0c0,1.39-1.14,2.53-2.54,2.53h-1.53s-.02,0-.03,0l-1.58.82-1.55.8s-.05,0-.08-.01c-.02-.02-.03-.05-.01-.08l.8-1.55.14-.26s0-.07-.03-.09c-.73-.45-1.22-1.25-1.22-2.16h0c0-1.39,1.14-2.53,2.54-2.53Z"/>
  <path class="cls-67" d="m75.41,60.37c-.2,0-.36.16-.36.36s.16.36.36.36.36-.16.36-.36-.16-.36-.36-.36h0Zm0-3.57h0c-.24,0-.46.2-.44.44l.18,2.43c.01.24.02.44.26.44h0c.24,0,.24-.2.26-.44l.17-2.43c.02-.24-.19-.44-.43-.44Z"/>
  <path class="cls-23" d="m43.31,57.31h-2.55c-1.39,0-2.54,1.14-2.54,2.53h0c0,1.39,1.14,2.53,2.54,2.53h1.53s.02,0,.03,0l1.58.81,1.55.8s.06,0,.08-.01c.02-.02.02-.05,0-.08l-.8-1.55-.14-.26s0-.07.03-.09c.73-.45,1.22-1.25,1.22-2.16h0c0-1.39-1.14-2.53-2.53-2.53Z"/>
  <path class="cls-67" d="m41.47,60.71c0-.25.05-.44.14-.56.09-.12.25-.27.48-.43.12-.08.21-.16.28-.27.07-.11.1-.24.1-.38,0-.15-.04-.27-.12-.36-.08-.09-.19-.13-.34-.13-.12,0-.23.04-.3.11-.08.08-.12.18-.13.33h-.88v-.02c-.01-.37.11-.65.35-.84.24-.18.56-.28.96-.28.42,0,.75.11,1,.32.24.22.36.51.36.87,0,.22-.06.42-.2.62-.13.19-.3.33-.51.44-.12.08-.19.16-.23.24-.04.09-.05.2-.05.35h-.91Zm.45.3c.25,0,.45.2.45.45s-.2.45-.45.45-.45-.2-.45-.45.2-.45.45-.45Z"/>
  <path class="cls-66" d="m49.98,92.06c4.7,0,8.51.75,8.51,1.68s-3.81,1.69-8.51,1.69-8.51-.75-8.51-1.69,3.81-1.68,8.51-1.68Z"/>
  <path class="cls-62" d="m45.15,90.87s-.16.94-.14,1.23c0,.07.03.14.06.21.04.07.08.59.08.86,0,.12.08.08.1.1.08.06.16-.6.16-.6,0,0,.07-.2.42,1.33,0,0-.1.65.97.99,0,0,.5.32.93-.02,0,0,.19-.21.04-.62,0,0-.58-.76-.56-1.71,0,0-.04-.53-.45-1.12,0,0-.12-.45-.27-.52-.91.34-1.17-.25-1.35-.12Z"/>
  <path class="cls-62" d="m50.44,91.03s-.16.95,0,1.2c.07.1.05.69.1.98.03.12.14.08.16.1.07.05.17-.71.17-.71,0,0,.16-.29,1.04,1,0,0,.13.64,1.25.57,0,0,.58.12.86-.35,0,0,.1-.26-.19-.59,0,0-.81-.49-1.13-1.38,0,0-.23-.48-.81-.88,0,0-.41-.21-.54-.07-.12.14-.92.12-.92.12Z"/>
  <path class="cls-52" d="m52.14,91.08s-1.9.36-1.79-.06c.74-2.71-.47-4.36.05-6.75.25-1.11-.92-3.07-1.01-3.24l-1.42-6.46,4.56-.21c.4,1.68.39,5.45.16,9.57-.12,2.13-.69,4.47-.55,7.16Z"/>
  <path class="cls-53" d="m46.48,74.24c-1.51,2.81.97,4.62.49,9.53-.03.26.02.59-.17.78-.81.79-1.38,3.97-1.69,6.69.71.22.81.22,1.62.04.39-2.66,1.85-4.58,2.42-6.57.42-1.45.64-3.09.95-4.63.23-1.19.28-2.08.99-3.12.49-.71.95-1.76,1.14-2.95l-5.74.23Z"/>
  <path class="cls-40" d="m50.71,64.79s1.62-.25,2.61,2.09c.84,1.97.61,3.82.61,3.82,0,0,1.03,1.9.38,2l-2.58.42-1.03-8.33Z"/>
  <path class="cls-41" d="m50.57,64.36c.42.86,3.46,3.54,1.86,5.1-.66.65-.72,1.3-.93,2.63,0,0,.84,1.12.23,1.79l-2.14.58s-2.79.31-3.25-.33c-.51-.73.17-.52.28-1.57.28-2.59-.67-5.48-.63-6.93.29-.51,1.65-1.58,1.95-1.47l2.63.2Z"/>
  <path class="cls-30" d="m47.04,71.32s1.42,1.28,2.06,2.31l.87.81-2.17-1.83-1.82-1.78-.56-2.38,1.02-1.76.55-1.39c2.12,2.62-.78,4.16.06,6.04Z"/>
  <path class="cls-26" d="m49.13,75.09l.69-.78c.06-.07-.16-.1-.23-.16-1.11-.84-1.86-2.28-2.85-2.73.05-.51.03-.98-.04-1.58l-1.6-.14c-.04.62.21,1.41.19,2.09,1.12,1.3,2.97,1.92,3.84,3.3Z"/>
  <path class="cls-28" d="m46.72,70.08c.08-1.13.87-2.08.88-2.67-.38-5.11-2.6-1.15-2.51,2.28.8.04,1.17.11,1.62.39Z"/>
  <polygon class="cls-20" points="47.73 74.22 48.83 74.83 55.9 74.46 54.82 73.92 47.73 74.22"/>
  <path class="cls-22" d="m47.73,74.22l1.1.58.02.38-1.03-.69c-.06-.04-.09-.1-.09-.16v-.11Z"/>
  <path class="cls-7" d="m55.9,74.43l-7.07.37.02.38,6.87-.36c.11,0,.19-.1.18-.21v-.19Z"/>
  <path class="cls-11" d="m50.2,69.92l-1.59,4.79.22.12,1.87-5.19h-.16c-.16.02-.29.13-.34.28Z"/>
  <path class="cls-44" d="m57.06,69.37l-6.42.27c-.1,0-.18.07-.21.16l-1.64,5.03,7.15-.37,1.37-4.8c.02-.08,0-.15-.04-.21-.05-.06-.12-.09-.2-.09Z"/>
  <path class="cls-8" d="m57.06,69.4l-6.43.27c-.08,0-.15.06-.18.14l-1.63,4.99,7.07-.37,1.36-4.78c.01-.06,0-.12-.04-.18-.04-.05-.1-.08-.16-.08Z"/>
  <path class="cls-27" d="m51.66,74.19s.02.51-.22.77c0,0-.57.26-.82.47-.24.21-1.07-.08-1.07-.08,0,0-.29-.14-.12-.33.08-.09.25-.16.34-.12.84.29.67-.53.84-.68.21-.19.84-.35,1.04-.03Z"/>
  <path class="cls-13" d="m51.04,64.13s-.49.45-.24.99c0,0-.29.69-1.26.5-.51-.11-1.74-1.15-1.6-1.83,0,0,.23.02.3-.12,0,0,.31-.74.23-1.6l2.57,2.04Z"/>
  <path class="cls-9" d="m51.9,62.34s-.19.95-.41,1.43c-.07.38-.89,1.01-1.23,1.01-.18,0-.69-.14-1.49-1.12,0,0-.31-.47-.41-.89,0,0-.61-2-.13-2.57,0,0,.92-1.39,2.31-.97,0,0,1.68.22,1.71,1.08.3.89-.08,1.45-.34,2.03Z"/>
  <path class="cls-46" d="m48.65,64.95s-.36-1.89-.04-3.08c.54.35,2.66,0,2.99-.86,0,0,.6.91-.46,4.05,0,0,1.01.34,1.47-.54.45-1.64.37-5.25-1.64-5.74-1.7-.42-2.65.32-3.23,1.56-.87,1.84-.88,4.71.92,4.62Z"/>
  <polygon class="cls-55" points="102.48 62.26 103.25 61.84 107.67 61.73 106.9 62.15 102.48 62.26"/>
  <path class="cls-61" d="m106.9,62.15l.77-.42-.03,12.39-.78.43.04-12.39h0Zm-2.74,14.09l.77-.42.08-.05.08-.04.09-.04.08-.03.09-.03.09-.03.09-.02h.09s.1-.03.1-.03h.1s.1,0,.1,0h.1s.09.02.09.02h.1s.09.04.09.04l.09.02.08.03.09.04.08.04.08.04.08.05.07.05.08.06.08.06.07.07.06.06.07.07.05.07.06.08.05.08.06.08.05.09.04.09.04.09.04.09.03.1.03.1.03.1.02.1v.11s.02.1.02.1v.11s0,.1,0,.1v.11s-.01.11-.01.11v.1s-.03.1-.03.1l-.02.1-.03.1-.03.09-.03.09-.04.09-.04.09-.05.09-.05.08-.05.08-.05.08-.06.08-.06.07-.07.07-.07.06-.07.06-.08.05-.07.05-.78.42.08-.05.08-.05.07-.06.07-.06.07-.07.06-.07.06-.07.05-.08.05-.08.05-.08.05-.09.04-.09.04-.09.04-.09.03-.09.03-.1.02-.1.02-.1v-.1s.02-.11.02-.11v-.11s0-.11,0-.11v-.11s-.01-.1-.01-.1v-.1s-.04-.1-.04-.1l-.03-.1-.03-.1-.03-.1-.03-.09-.04-.09-.04-.09-.05-.09-.05-.08-.05-.08-.06-.08-.05-.07-.07-.07-.06-.06-.07-.07-.07-.06-.08-.05-.08-.05-.07-.05-.08-.04-.08-.04-.09-.03-.08-.03-.09-.02-.09-.02-.1-.02h-.09s-.1-.01-.1-.01h-.19s-.1.01-.1.01h-.09s-.09.03-.09.03l-.09.03-.09.03-.08.03-.09.04-.07.04-.08.05Z"/>
  <path class="cls-55" d="m103.13,74.63l-.66-12.37,4.42-.11-.04,12.39-3.73.1h0Zm1.9,1.34c1.02-.03,1.88.88,1.9,2.02.03,1.14-.78,2.09-1.8,2.11-1.02.03-1.87-.88-1.9-2.02-.03-1.14.78-2.09,1.8-2.11Z"/>
  <path class="cls-57" d="m103.2,74.56l3.6-.09.03-12.24-4.27.11.64,12.22h0Zm1.84,1.5c-.98.02-1.76.94-1.73,2.04.03,1.1.85,1.97,1.84,1.95.99-.02,1.76-.93,1.73-2.03-.03-1.1-.85-1.97-1.84-1.95Z"/>
  <path class="cls-59" d="m106.81,69.93v-1.1l-3.69,4.34.05,1.03,3.63-4.26h0Zm0-1.91l-3.73,4.38-.16-3.18,3.9-4.59v3.38Z"/>
  <path class="cls-66" d="m109.1,92.2c-5.99,0-10.85.63-10.85,1.41s4.86,1.41,10.85,1.41,10.84-.63,10.84-1.41-4.85-1.41-10.84-1.41Z"/>
  <path class="cls-62" d="m116.37,90.87s.55,1.18.42,1.49c-.04.12-.01.87,0,1.21,0,.14-.12.08-.14.11-.07.07-.23-.79-.23-.79,0,0-.46-.47-1.08,1.17-.54.36-1.99.33-2.48.14-.1-.15-.12-.68.23-.7.33-.01,1.05-.14,1.15-.97,0,0,.12-.58.65-1.16,0,0,.4-.33.57-.21.18.12.92-.29.92-.29Z"/>
  <path class="cls-68" d="m109.31,75.3l1.18,8.59c.69,1.7,3.1,4.55,4.45,7.42.73.04,1.5-.14,1.79-.36-1.82-2.52-2.32-6.25-3.97-7.38-.58-2.19,1.9-7.66.27-9.02l-3.71.76Z"/>
  <path class="cls-62" d="m108.17,91.69s-.24,1.5-.52,1.68c-.11.07-.34.7-.53.97-.08.12-.17.03-.21.04-.1.02.13-.81.13-.81,0,0-.06-.58-1.51.59-.68.29-2.17.09-2.36-.71,0,0,.01-.31.45-.53.31,0,1.25-.05,1.99-.91,0,0,.3-.39,1.08-.56,0,0,.44-.14.51.06.07.2.97.19.97.19Z"/>
  <path class="cls-19" d="m106.42,91.53s2.17.53,2.06.14c-.6-2.17,1.52-5.49.76-8.13-.24-.84,1.23-3.33,2.32-5.01.68-1.04,1.38-2.16.58-3.94l-3.67.92c-.88,1.57-1.46,5.66-1.38,7.96.04,1.13-.19,5.3-.67,8.05Z"/>
  <path class="cls-31" d="m112.92,64.56c.25-.09.39.01.89.76.46.69,1.25,1.91.21,4.84-1.76,4.97-.16,3.18-.34,5.39-.03.39-.31.7-.6.92,0,0-3.91.42-4.91-1.06-.14-.39.25-1.32.58-1.74.86-1.12.71-2,.69-3.61,0-.37-1.29-1.39-.55-2.45.49-.71,1.19-1.21,1.84-1.88,0,0,.21-.18.32-.23.49-.2,1.27-.75,1.86-.93Z"/>
  <path class="cls-14" d="m109.46,70.61c.05-.24.14-.49.23-.71.15-.34.93-.42,1.12-.75.08-.14.17-.29.26-.43.25-.7.63-1.56,1.14-2.1.3-.31.71-.58,1.14-.45.58.17.58.84.62,1.38-.12,2.75-7.37,4.95-1.16,7.4,0,0-1.23.01-2.45-.45,1.04.84,1.95,1.28,3.21,1.37-.12.23-.31.42-.5.57-1.01.24-4.46.04-4.91-1.06-.1-.51.23-1.22.52-1.66.8-1.01.8-1.81.77-3.14Z"/>
  <path class="cls-17" d="m106.41,72.89c1.54-.72,3.19-1.12,4.48-1.47.05-.6.16-1.17.36-1.86l1.87.35c-.07.73-.44,1.58-.53,2.39-1.58,1.31-5.1.7-6.14,1.49-.94.34-1.23.38-1.86.01-.72-.42-.6-.75-.49-.88.16-.15.12.11,1.01.11.01,0,.26-.05.25-.18,0-.11-.4-.35-.4-.41.01-.33,1.19.44,1.19.43.05,0,.08.07.25.03Z"/>
  <path class="cls-15" d="m111.17,68.94l-.16,1.59c.6.24,1.32.33,1.96.31l.46-1.85c.72-3.18-2.38-5.01-2.25-.04Z"/>
  <path class="cls-10" d="m110.96,64.38s.6,1.11-.2,1.64c-.12.74,2.15-.49,2.56-.99-.43-.11-.55-1.16-.44-1.52l-.29-.03-1.63.9Z"/>
  <path class="cls-4" d="m112.92,62.48s-1.78-1.64-.71-2.26c-.26-2.45,6.43-1.45,4.19,4-.25.61-.76,2.86.73,2.77-.81,1.62-5.1.44-4.21-4.51Z"/>
  <path class="cls-24" d="m113.34,59.9c-.42-.32-1.01-.27-1.32.12-.3.39-.2.97.23,1.3.43.33,1.01.27,1.32-.12.29-.39.2-.97-.23-1.3Z"/>
  <path class="cls-21" d="m113.12,60.01c-.51-.39-1.18-.37-1.49.04-.32.42-.16,1.07.34,1.46.51.39,1.18.37,1.49-.05.32-.42.16-1.07-.34-1.45Z"/>
  <path class="cls-1" d="m109.91,62.61c.01.32-.33.91-.33,1.02,0,.1.45.06.47.14.12.39.14.42.29,1.13.1.44,2.25-.48,2.56-1.39.02-.05.06.08.14,0,.54-.45,1.06-1.57.29-1.5,0,0-.25-1.76-1.52-1.74,0,0-1.45-.21-1.67.51-.46.67-.31,1.29-.23,1.83Z"/>
  <path class="cls-45" d="m109.58,62.55c.84.04,1.82-.46,2.12-1.2,0,.54.6,1.13,1.21,1.17l-.17,1.15.52-1.28c1.62-3.35-3.9-3.72-3.79-.7l.11.85Z"/>
</svg>