<?xml version="1.0" encoding="UTF-8"?>
<svg id="_Layer_" data-name="&amp;lt;Layer&amp;gt;" xmlns="http://www.w3.org/2000/svg" viewBox="0 0 237.24 179.95">
  <defs>
    <style>
      .cls-1 {
        fill: #f1cf25;
      }

      .cls-2, .cls-3 {
        fill: #fff;
      }

      .cls-4 {
        fill: #080717;
      }

      .cls-5 {
        fill: #85bac6;
      }

      .cls-6 {
        stroke: #f1cf25;
      }

      .cls-6, .cls-7, .cls-8, .cls-3, .cls-9, .cls-10 {
        stroke-width: 2px;
      }

      .cls-6, .cls-7, .cls-8, .cls-9, .cls-10 {
        fill: none;
      }

      .cls-7 {
        stroke: #fff;
      }

      .cls-8 {
        stroke: #85bac6;
      }

      .cls-3, .cls-9, .cls-10 {
        stroke: #000;
        stroke-linecap: round;
        stroke-linejoin: round;
      }

      .cls-10 {
        stroke-dasharray: 0 0 2.06 4.12;
      }
    </style>
  </defs>
  <path class="cls-1" d="m218.17,177.1l-12.75-69.81c-3.16-10.31-10.93-18.07-20.53-20.47l-44.31-11.1c-13.96-3.5-28.08,5.11-32.87,20.04l-16.81,81.04,127.28.29Z"/>
  <g>
    <path d="m173.12,23.98c0,13.24,21.67,81.16-59.95,47.5-5.8-2.39,6-30.9,11.99-47.5,4.5-12.46,10.74-23.98,23.98-23.98s23.98,10.74,23.98,23.98Z"/>
    <path d="m134.97,23.98c0,13.24-21.67,81.16,59.95,47.5,5.8-2.39-6-30.9-11.99-47.5-4.5-12.46-10.74-23.98-23.98-23.98s-23.98,10.74-23.98,23.98Z"/>
    <path class="cls-3" d="m151.64,92.1h.05c-6.09,0-11.02-4.94-11.02-11.02v-40.06c0-6.09,4.94-11.02,11.02-11.02h-.05c6.09,0,11.02,4.94,11.02,11.02v40.06c0,6.09-4.94,11.02-11.02,11.02Z"/>
    <path class="cls-3" d="m134.42,37.68c1.37,5.05.33,9.72-2.31,10.44s-5.91-2.79-7.28-7.84c-1.37-5.05-.33-9.72,2.31-10.44,2.65-.72,5.91,2.79,7.28,7.84Z"/>
    <path class="cls-3" d="m151.18,75.18h0c-11.44,0-20.71-13.43-20.71-24.87v-24.58c0-11.44,13.13-4.98,20.71-20.71h0c3.49,11.58,20.71,9.27,20.71,20.71v24.58c0,11.44-9.27,24.87-20.71,24.87Z"/>
    <path d="m137.79,38.52c.54,1.39,1.79,2.19,2.79,1.8,1-.39,1.37-1.83.82-3.22-.54-1.39-1.79-2.19-2.79-1.8-1,.39-1.37,1.83-.82,3.22Z"/>
    <path class="cls-9" d="m135.45,33.09c1.15-.96,3-1.5,5.03-1.36,1.65.12,3.11.67,4.15,1.47"/>
    <path d="m159.97,38.52c.54,1.39,1.79,2.19,2.79,1.8s1.37-1.83.82-3.22c-.54-1.39-1.79-2.19-2.79-1.8-1,.39-1.37,1.83-.82,3.22Z"/>
    <path class="cls-9" d="m157.63,33.09c1.15-.96,3-1.5,5.03-1.36,1.65.12,3.11.67,4.15,1.47"/>
    <path class="cls-9" d="m149.9,33.17c-.43,3.84-.78,7.7-1.03,11.56-.05.7-.06,1.48.39,2.01s1.55.46,1.65-.23"/>
    <path class="cls-9" d="m152.58,53.35c2.72,1.05,6.16-.71,6.91-3.53"/>
  </g>
  <g>
    <path class="cls-2" d="m218,64.35c-5.6-4.63-14.94-11.04-18.55-13.48-.02-.03-.02-.07-.05-.1l-8.42-11.76c-.09-.12-.21-.21-.35-.26l-15.89-5.2c-.9-.29-1.87-.1-2.59.51-.72.62-1.06,1.54-.92,2.44.3,2.83,2.14,5.22,4.8,6.23l7.62,2.9,3.35,4.33-3.89.08c-.17,0-.33.07-.45.18l-13.22,11.99c-.25.22-.3.6-.12.88.07.11,1.78,2.79,5.51,2.79,2.01,0,4.5-1.68,6.37-3.22l-6.68,12.5c-.17.32-.06.72.25.91,1.11.7,2.97,1.45,4.9,1.45,1.62,0,3.28-.54,4.59-2.09l6.56,3.28c.19.09.4.1.59.01.11-.05,2.79-1.25,3.16-3.49.17-1.05-.18-2.11-1.06-3.17.14-.03.28-.06.43-.09,1.23,1.65,6.5,7.9,14.72,6.86.21.69.43,2.44.53,3.92.02.33,2.71,17.26,3.03,17.3l18.62,1.77s-.92-6.87-.89-6.87c.16,0-4.7-24.63-11.95-30.62Z"/>
    <g>
      <path class="cls-9" d="m231.09,101.47s-6.46-30.74-13.53-36.58c-7.07-5.84-19.98-14.45-19.98-14.45l-14.45.31-13.22,11.99s1.54,2.46,4.92,2.46,8.61-5.53,8.61-5.53"/>
      <path class="cls-9" d="m188.01,50.13l-3.92-5.07-7.81-2.97c-2.4-.91-4.09-3.1-4.35-5.66h0c-.24-1.48,1.18-2.69,2.61-2.23l15.89,5.2,8.42,11.76"/>
      <path class="cls-9" d="m194.5,57.05l-10.38,1.61-8.99,16.83s5.53,3.46,8.76-.69"/>
      <path class="cls-9" d="m194.5,63.04l-6.76,2.15-4,9.22,7.38,3.69s5.42-2.38,1.15-6.3c-.19-.17,1.96-.58,1.96-.58,0,0,5.53,8.3,14.72,6.88.61-.09,3.07,21.52,3.07,21.52"/>
    </g>
  </g>
  <g>
    <path d="m71.34,115.15h78.76c3.55,0,6.43,2.88,6.43,6.43v49.25c0,3.55-2.88,6.43-6.43,6.43h-78.76c-3.55,0-6.43-2.88-6.43-6.43v-49.25c0-3.55,2.88-6.43,6.43-6.43Z"/>
    <path d="m89.35,168.03v.31c0,4.92,3.99,8.91,8.91,8.91h73.79c4.92,0,8.91-3.99,8.91-8.91v-.31h-91.62Z"/>
    <path class="cls-2" d="m117.49,146.21c0,3.74-3.03,6.76-6.76,6.76s-6.76-3.03-6.76-6.76,3.03-6.76,6.76-6.76,6.76,3.03,6.76,6.76Z"/>
  </g>
  <path class="cls-1" d="m237.24,102.7l-33.2-4.3-3.69,59.03h.15c-.09.74-.15,1.47-.15,2.22,0,9.98,8.09,18.07,18.07,18.07s17.26-7.32,17.99-16.62l.22.02.61-58.41Z"/>
  <path class="cls-7" d="m204.03,98.4l-3.69,59.03h.15c-.09.74-.15,1.47-.15,2.22"/>
  <path class="cls-7" d="m189.28,141.44s0,40.88,28.9,37.28"/>
  <g>
    <polyline class="cls-1" points="98.45 17.2 102.61 17.2 102.61 44.94 74.88 44.94 74.88 17.2 77.65 17.2 98.45 17.2"/>
    <polyline class="cls-4" points="98.45 17.2 102.61 17.2 102.61 25.73 74.88 25.73 74.88 17.2 77.65 17.2 98.45 17.2"/>
    <line class="cls-6" x1="80.42" y1="21.36" x2="80.42" y2="13.04"/>
    <line class="cls-6" x1="97.06" y1="21.36" x2="97.06" y2="13.04"/>
    <polyline class="cls-7" points="84.58 33.15 88.05 36.62 94.29 30.38"/>
  </g>
  <path class="cls-5" d="m92.76,115.31v-37.66c0-3.2-2.46-5.79-5.49-5.79h-20.25c-3.2,0-5.79,2.59-5.79,5.79v37.66h31.53Z"/>
  <g>
    <path class="cls-2" d="m41.92,139.87c-3.91,0-7.09-3.18-7.09-7.09v-52.83c0-3.91,3.18-7.09,7.09-7.09h41.03c-1.43,1.29-2.35,3.14-2.39,5.21-.04.1-.06.21-.06.32v54.39c0,.35-.03.72-.09,1.14,0,.05-.01.1-.01.15v1.15c0,2.56-1.96,4.65-4.36,4.65h-2.21s-31.9,0-31.9,0Z"/>
    <path class="cls-5" d="m80.81,73.86c-.74,1.17-1.19,2.55-1.25,4.02-.04.16-.06.33-.06.51v54.39c0,.3-.03.62-.08.99-.02.1-.02.2-.02.3v1.15c0,2.01-1.51,3.65-3.36,3.65h-2.19s-.03,0-.05,0h-31.87c-3.36,0-6.09-2.73-6.09-6.09v-52.83c0-3.36,2.73-6.09,6.09-6.09h38.89m6.96-2h-45.86c-4.47,0-8.09,3.62-8.09,8.09v52.83c0,4.47,3.62,8.09,8.09,8.09h31.9s.01,0,.02,0h2.19c2.96,0,5.36-2.53,5.36-5.65v-1.15c.06-.42.11-.85.11-1.29v-54.39h.06v-.16c0-3.44,2.78-6.22,6.22-6.22v-.15h0Z"/>
  </g>
  <path class="cls-5" d="m22.2,113.62v19.16c0,4.47,3.62,8.09,8.09,8.09h45.86v-.15c-3.44,0-6.22-2.78-6.22-6.22v-.16h-.06v-20.72H22.2Z"/>
  <path class="cls-5" d="m38.4,132.71v-30.1c0-3.2,2.59-5.79,5.79-5.79h20.25c3.03,0,5.49,2.59,5.49,5.79v30.1h-31.52Z"/>
  <g>
    <path class="cls-2" d="m19.09,162.47c-3.91,0-7.09-3.18-7.09-7.09v-50.47c0-3.91,3.18-7.09,7.09-7.09h41.03c-1.43,1.29-2.35,3.14-2.39,5.21-.04.1-.06.21-.06.32v52.03c0,3.91-2.99,7.09-6.67,7.09h-31.9Z"/>
    <path class="cls-5" d="m57.98,98.82c-.74,1.17-1.19,2.55-1.25,4.02-.04.16-.06.33-.06.51v52.03c0,3.36-2.55,6.09-5.68,6.09h-31.9c-3.36,0-6.09-2.73-6.09-6.09v-50.47c0-3.36,2.73-6.09,6.09-6.09h38.89m6.96-2H19.09c-4.47,0-8.09,3.62-8.09,8.09v50.47c0,4.47,3.62,8.09,8.09,8.09h31.9c4.24,0,7.68-3.62,7.68-8.09v-52.03h.06v-.16c0-3.44,2.78-6.22,6.22-6.22v-.15h0Z"/>
  </g>
  <path class="cls-5" d="m45.86,153.4v1.98c0,7.03,4.26,7.68,5.87,8.09,0,.04-3.89,0-3.89,0H8.09c-4.47,0-8.09-3.62-8.09-8.09v-1.98h45.86Z"/>
  <g>
    <line class="cls-8" x1="17.06" y1="122.12" x2="47.86" y2="122.12"/>
    <line class="cls-8" x1="17.06" y1="129.8" x2="47.86" y2="129.8"/>
    <line class="cls-8" x1="17.06" y1="137.49" x2="47.86" y2="137.49"/>
    <line class="cls-8" x1="17.06" y1="145.22" x2="42.08" y2="145.22"/>
    <line class="cls-8" x1="17.06" y1="106.7" x2="47.86" y2="106.7"/>
    <line class="cls-8" x1="17.06" y1="114.39" x2="47.86" y2="114.39"/>
  </g>
  <g>
    <line class="cls-8" x1="40.1" y1="81.76" x2="70.9" y2="81.76"/>
    <line class="cls-8" x1="40.1" y1="89.44" x2="70.9" y2="89.44"/>
  </g>
  <g>
    <path class="cls-9" d="m42.02,65.5c.12-.31.24-.62.36-.93"/>
    <path class="cls-10" d="m43.96,60.76c4.23-9.49,9.91-17.48,16.59-23.33"/>
    <path class="cls-9" d="m62.14,36.11c.26-.21.52-.42.78-.62"/>
  </g>
</svg>