<?xml version="1.0" encoding="UTF-8"?>
<svg id="Layer_2" data-name="Layer 2" xmlns="http://www.w3.org/2000/svg" viewBox="0 0 334.32 214.87">
  <defs>
    <style>
      .cls-1 {
        fill: #85bac6;
      }

      .cls-1, .cls-2, .cls-3, .cls-4, .cls-5 {
        stroke-width: 0px;
      }

      .cls-2 {
        fill: #080717;
      }

      .cls-3 {
        fill: #fff;
      }

      .cls-4 {
        fill: #f1cf25;
      }

      .cls-5 {
        fill: #6cf;
      }
    </style>
  </defs>
  <path class="cls-3" d="m93.96,204.96c-.7-.77-1.03-1.81-.92-2.85.16-1.53,1.27-2.81,2.77-3.18.41-.1.71-.45.75-.87.04-.42-.19-.82-.57-1-3.42-1.6-7.33-1.54-10.7.16l-10.95,5.52s-.09.05-.13.08c-.04.01-.09.03-.13.06l-1.87.94c-2.34,1.26-4.98,1.93-7.64,1.93h-1.25c-1.39,0-2.14-.94-2.39-1.82s-.08-2.07,1.05-2.75l33.76-16.94c2.19-1.1,4.71-1.38,7.09-.78l18.15,4.54c1.87.47,3.86.49,5.66.06l43.45-6.48c.06,0,.11-.02.17-.04l2.8-.93,3.88,25.41c.01.07.04.12.06.18h-80.32c-1.04,0-2.04-.44-2.73-1.22Z"/>
  <path class="cls-2" d="m79.2,207.73h-1.25c-2.61,0-4.21-1.99-4.45-3.96-.07-.55.32-1.05.87-1.11.54-.07,1.05.32,1.11.87.13,1.06.95,2.2,2.46,2.2h1.25c2.66,0,5.3-.67,7.64-1.93l4.56-2.46c.49-.26,1.09-.08,1.35.41s.08,1.09-.41,1.35l-4.56,2.46c-2.63,1.42-5.6,2.17-8.59,2.17Z"/>
  <circle class="cls-2" cx="217.99" cy="72.31" r="22.78" transform="translate(-11.68 71.29) rotate(-18.1)"/>
  <circle class="cls-2" cx="217.44" cy="107.42" r="22.78" transform="translate(-22.61 72.86) rotate(-18.1)"/>
  <circle class="cls-2" cx="274.22" cy="68.74" r="26.34"/>
  <circle class="cls-2" cx="289.03" cy="104.4" r="26.34" transform="translate(51.26 299.08) rotate(-59.17)"/>
  <path class="cls-2" d="m291.75,129.01c-4.24,0-8.45-1-12.34-2.97-13.44-6.82-18.83-23.31-12.01-36.75,3.3-6.51,8.95-11.35,15.89-13.62,6.94-2.27,14.35-1.7,20.86,1.61,6.51,3.3,11.35,8.95,13.62,15.89,2.27,6.94,1.7,14.35-1.61,20.86-3.3,6.51-8.95,11.35-15.89,13.62-2.79.91-5.66,1.37-8.52,1.37Zm.05-52.71c-2.65,0-5.31.42-7.9,1.27-6.43,2.1-11.66,6.58-14.73,12.62-6.32,12.46-1.33,27.74,11.13,34.06,6.04,3.06,12.9,3.59,19.34,1.49,6.43-2.1,11.66-6.58,14.73-12.62h0c3.06-6.04,3.59-12.9,1.49-19.34-2.1-6.43-6.59-11.66-12.62-14.73-3.61-1.83-7.51-2.76-11.44-2.76Z"/>
  <path class="cls-2" d="m285.01,70.62c-2.26,0-4.56-.52-6.71-1.61-7.32-3.71-10.25-12.69-6.54-20.01,1.8-3.55,4.87-6.18,8.65-7.41,3.78-1.23,7.81-.92,11.36.87,3.55,1.8,6.18,4.87,7.41,8.65,1.23,3.78.92,7.81-.88,11.36h0c-2.62,5.17-7.87,8.15-13.3,8.15Zm.04-27.77c-1.35,0-2.7.21-4.01.64-3.27,1.07-5.93,3.35-7.49,6.42-3.21,6.33-.68,14.1,5.66,17.32,6.33,3.21,14.1.68,17.32-5.66h0c1.56-3.07,1.83-6.56.76-9.83-1.07-3.27-3.35-5.93-6.42-7.49-1.83-.93-3.82-1.4-5.82-1.4Zm12.37,19.17h0,0Z"/>
  <circle class="cls-2" cx="249.47" cy="35.34" r="35.33" transform="translate(1.36 79.24) rotate(-18.1)"/>
  <circle class="cls-2" cx="255.84" cy="92.61" r="22.78" transform="translate(145.81 341.45) rotate(-86.05)"/>
  <path class="cls-3" d="m242.23,143.33l41.68-50.99c-1.12.05-.44-7.09-27.93,1.33l-5.37-24.65c1.1.39,2.25.55,3.41.4,5.44-.69,9.04-7.41,7.88-14.88-1.07-6.9-6.07-12.01-11.14-11.41-3.67.43-6.5,3.62-7.63,7.92-1.11-13.4-9.51-24.04-20.45-24.85-12.49-.92-23.57,11.31-24.76,27.32-1.18,16.01,7.99,29.73,20.48,30.65,1.31.1,2.59.04,3.86-.14l4.91,19.92-12.33,5.96-5.42,3,32.81,30.41Z"/>
  <path class="cls-2" d="m243.62,48.61c-.21.09-.42.19-.63.27-11.95,4.7-26.53-3.82-32.57-19.03-.07-.17-.13-.34-.19-.52,3.8-2.62,8.17-3.99,12.72-3.66,10.57.77,18.81,10.42,20.68,22.93Z"/>
  <path class="cls-2" d="m222.89,84.88c-.45,0-.85-.3-.97-.75-.14-.53.18-1.08.72-1.22,6.3-1.62,11.82-6.7,15.13-13.93.23-.5.82-.72,1.33-.49.5.23.72.82.49,1.33-3.57,7.78-9.56,13.26-16.45,15.04-.08.02-.17.03-.25.03Z"/>
  <path class="cls-2" d="m203.27,48.43c.49.64-.56,2.26-2.35,3.62-1.78,1.35-3.63,1.93-4.12,1.28-.49-.64.56-2.26,2.35-3.62,1.78-1.35,3.63-1.93,4.12-1.28Z"/>
  <path class="cls-2" d="m223.31,49.15c-.09,1-2.4,1.62-5.17,1.38-2.77-.24-4.94-1.24-4.86-2.24.09-1,2.4-1.62,5.17-1.38,2.77.24,4.94,1.24,4.86,2.24Z"/>
  <path class="cls-2" d="m208.85,62.28c-.2,0-.4-.06-.57-.18-1.24-.87-1.93-2.34-1.82-3.84l.51-6.55c.04-.55.54-.96,1.08-.92.55.04.96.52.92,1.08l-.51,6.55c-.06.81.3,1.58.97,2.05.45.32.56.94.25,1.39-.19.28-.5.43-.82.43Z"/>
  <path class="cls-2" d="m212.12,66.88c-.71,0-1.54-.16-2.47-.56-.51-.22-.74-.8-.53-1.31.22-.51.81-.74,1.31-.53,2.38,1.02,3.17-.18,3.3-.43.26-.48.85-.68,1.34-.43.49.25.69.83.45,1.32-.39.81-1.51,1.94-3.41,1.94Z"/>
  <path class="cls-2" d="m248.22,57.22c-.46,0-.87-.32-.98-.79-.63-2.86-.3-5.26.96-7.16,1.82-2.73,4.92-3.31,5.05-3.34.54-.1,1.06.26,1.16.81.1.54-.26,1.06-.8,1.16-.05,0-2.43.49-3.76,2.5-.94,1.42-1.16,3.31-.66,5.6.12.54-.22,1.07-.76,1.19-.07.02-.14.02-.21.02Z"/>
  <path class="cls-2" d="m202.42,57.51c0,1.18-.62,2.14-1.38,2.14s-1.38-.96-1.38-2.14.62-2.14,1.38-2.14,1.38.96,1.38,2.14Z"/>
  <path class="cls-2" d="m218.46,55.27c0,1.18-.62,2.14-1.38,2.14s-1.38-.96-1.38-2.14.62-2.14,1.38-2.14,1.38.96,1.38,2.14Z"/>
  <path class="cls-1" d="m186.15,166.64s20.55-51.62,20.34-51.9c.95-.65,1.93-1.25,2.94-1.82l5.42-3,.96-.46c5.69,10.98,13.64,17.82,22.45,17.82,12.92,0,24.01-14.68,28.78-35.63.68-2.99,22.82-3.2,27.07,6.02,8.57,18.58,22.93,47.62,36.66,77.73,10.43,22.86-13.17,46.38-36,35.9l-72.07-2.19-4.63-25.98-3.8,9.05c-3.79,9.02-12.53,14.98-22.31,15.21l-14.45.34-2.99-28.27,6.65-2.33,4.99-10.5Z"/>
  <path class="cls-2" d="m306.31,214.87c-3.99,0-8.05-.88-11.96-2.68l-57.1-26.22c-.26-.12-.46-.35-.54-.62l-7.85-26.36-16.21,35.69c-3.72,8.19-11.94,13.49-20.94,13.49h-95.01c-1.61,0-3.15-.68-4.22-1.88-1.08-1.19-1.6-2.8-1.43-4.39.16-1.49.9-2.83,2-3.75-2.3-.52-4.71-.24-6.86.85l-13.05,6.58c-2.61,1.4-5.58,2.15-8.56,2.15h-1.25c-2.07,0-3.76-1.29-4.31-3.29-.55-2,.24-3.97,2.02-5.03l33.82-16.98c2.62-1.31,5.62-1.65,8.47-.94l18.15,4.54c1.57.39,3.23.41,4.8.04l43.44-6.48,10.18-3.39,5.33-9.99c7.88-19.79,19.68-49.64,20.25-51.61,0,0,0-.02,0-.03.04-.27.2-.51.42-.67,1-.68,2.01-1.3,3.02-1.86l5.42-3,11.65-5.63-4.5-18.28c-1.07.1-2.13.12-3.17.04-13.02-.96-22.62-15.19-21.4-31.72,1.22-16.53,12.8-29.2,25.83-28.24,10.19.75,18.55,9.77,20.87,21.98,1.64-2.86,4.14-4.71,7.02-5.05,5.57-.66,11.09,4.83,12.25,12.25.71,4.56-.27,9.15-2.63,12.27-1.62,2.16-3.74,3.45-6.12,3.75-.68.09-1.38.08-2.07,0l6.32,20.63c3.72-1.28,9.75-2.14,17.95-2.56,9.4-.48,18.03,4.78,21.96,13.39,7.67,16.81,21.45,46.99,33.37,73.12,5,10.97,2.81,23.07-5.73,31.58-5.49,5.47-12.45,8.32-19.63,8.32Zm-67.82-30.53l56.69,26.03c10.18,4.67,21.42,2.66,29.35-5.24,7.93-7.91,9.97-19.15,5.32-29.33-11.92-26.14-25.7-56.32-33.37-73.12-3.59-7.86-11.45-12.66-20.04-12.22-8.66.44-14.99,1.41-18.31,2.8-.26.11-.55.1-.81-.02-.26-.12-.45-.34-.53-.61l-7.15-23.32c-.11-.36,0-.75.26-1.01.27-.26.67-.35,1.03-.22,1,.35,1.99.47,2.96.35,1.83-.23,3.48-1.26,4.77-2.97,2.04-2.7,2.88-6.72,2.25-10.76-.99-6.37-5.48-11.11-10.04-10.57-3.12.37-5.72,3.12-6.78,7.18-.12.47-.57.78-1.05.74-.49-.04-.87-.43-.91-.91-1.09-13.11-9.3-23.18-19.53-23.94-11.94-.88-22.55,10.96-23.69,26.39-1.14,15.43,7.63,28.7,19.55,29.58,1.19.09,2.42.04,3.65-.13.5-.07.99.25,1.11.75l4.91,19.92c.11.46-.11.93-.54,1.14l-12.33,5.96-5.37,2.98c-.88.49-1.77,1.03-2.65,1.62-.57,2.03-2.84,7.77-9.94,25.74-5.11,12.94-10.25,25.85-10.25,25.85-.01.03-.03.07-.05.1l-5.54,10.39c-.12.23-.32.4-.57.48l-10.64,3.55c-.05.02-.11.03-.17.04l-43.45,6.48c-1.8.42-3.79.4-5.66-.06l-18.15-4.54c-2.38-.59-4.89-.32-7.09.78l-33.76,16.94c-1.13.68-1.3,1.87-1.06,2.75.24.88,1,1.82,2.39,1.82h1.25c2.66,0,5.3-.67,7.64-1.93l13.07-6.59c3.27-1.65,7.03-1.76,10.37-.31l10.68-2.67c.53-.13,1.08.19,1.21.73.13.54-.19,1.08-.73,1.21l-11.01,2.75s0,0-.01,0c-1.49.38-2.6,1.65-2.76,3.18-.11,1.04.23,2.07.92,2.85.7.77,1.69,1.22,2.73,1.22h95.01c8.22,0,15.72-4.83,19.12-12.32l17.32-38.13c.17-.38.57-.61.98-.58.42.03.77.31.89.71l8.48,28.48Z"/>
  <g>
    <path class="cls-3" d="m297.88,172.81l-17.29-4.66,17.29,4.66Z"/>
    <path class="cls-2" d="m297.88,173.81c-.09,0-.17-.01-.26-.03l-17.29-4.66c-.53-.14-.85-.69-.71-1.23.14-.53.69-.85,1.23-.71l17.29,4.66c.53.14.85.69.71,1.23-.12.45-.52.74-.96.74Z"/>
  </g>
  <g>
    <path class="cls-1" d="m222.37,127.2l-7.32,25.27s-3.99,16.63,18.95,16.96l-11.64-42.23Z"/>
    <path class="cls-2" d="m234.01,170.44h-.01c-8.26-.12-14.11-2.32-17.39-6.54-4.02-5.17-2.59-11.39-2.52-11.66l7.33-25.32c.15-.53.71-.84,1.24-.68.53.15.84.71.68,1.24l-7.32,25.27s-1.25,5.53,2.18,9.94c2.89,3.7,8.21,5.64,15.82,5.75.55,0,.99.46.99,1.01,0,.55-.45.99-1,.99Z"/>
  </g>
  <g>
    <path class="cls-5" d="m277.57,140.5l10.33,29.65-10.33-29.65Z"/>
    <path class="cls-2" d="m287.9,171.15c-.41,0-.8-.26-.94-.67l-10.33-29.65c-.18-.52.09-1.09.62-1.27.52-.18,1.09.09,1.27.62l10.33,29.65c.18.52-.09,1.09-.62,1.27-.11.04-.22.06-.33.06Z"/>
  </g>
  <path class="cls-4" d="m73.92,100.05c-.34,0-.66-.17-.85-.47l-7.83-12.64-13.1,3.44c-.4.11-.83-.05-1.07-.39-.24-.34-.24-.8,0-1.14l7.02-10.19-6.56-13.31c-.18-.37-.12-.81.16-1.12.28-.3.71-.41,1.1-.26l13.34,5.13,8.97-11.87c.25-.33.68-.47,1.08-.36.4.12.68.47.72.88l1.21,15.56,16.22,2.25c.46.06.82.44.86.9.04.46-.24.9-.69,1.04l-17.96,5.85-1.61,15.79c-.04.43-.35.78-.77.87-.07.02-.15.03-.22.03Zm-8.22-15.26c.34,0,.66.17.85.47l6.67,10.77,1.38-13.51c.04-.39.31-.73.68-.85l14.45-4.71-12.71-1.76c-.47-.06-.82-.44-.86-.91l-1.07-13.74-7.83,10.36c-.27.36-.74.49-1.16.33l-11.66-4.48,5.69,11.54c.16.32.13.71-.07,1.01l-5.82,8.45,11.2-2.94c.08-.02.17-.03.25-.03Z"/>
  <path class="cls-4" d="m169.09,76.14c-.37,0-.7-.2-.88-.52l-2.25-4.1-4.1-2.25c-.32-.18-.52-.51-.52-.88s.2-.7.52-.88l4.1-2.24,2.25-4.1c.35-.64,1.4-.64,1.75,0l2.25,4.1,4.1,2.24c.32.18.52.51.52.88s-.2.7-.52.88l-4.1,2.25-2.25,4.1c-.17.32-.51.52-.88.52Zm-4.66-7.75l2.76,1.51c.17.09.31.23.4.4l1.51,2.76,1.51-2.76c.09-.17.23-.31.4-.4l2.76-1.51-2.76-1.51c-.17-.09-.31-.23-.4-.4l-1.51-2.76-1.51,2.76c-.09.17-.23.31-.4.4l-2.76,1.51Z"/>
  <g>
    <g>
      <path class="cls-3" d="m198.5,147.29l-23.49-36.07-29.36-5.58-20.87,8.62c.75,1.91,2.52,3.24,4.57,3.42l5.6.22-13.79,6.41c-1.78.83-1.83,3.35-.08,4.24l3.25,1.66-1.99,1.04c-.74.38-.95,1.34-.46,2h0c2.4,3.24,6.59,4.6,10.43,3.39l13.87-4.34-11.79,10.9.59.59c2.53,2.53,6.39,3.18,9.6,1.6l12.51-6.13,11.42,18.03c3.75,5.93,9.64,10.19,16.45,11.9l10.95,2.76,77.07,29.08,6.28-32.64-80.75-21.12Z"/>
      <path class="cls-2" d="m272.98,202.05c-.12,0-.24-.02-.35-.06l-77.01-29.06-10.9-2.74c-7.09-1.78-13.14-6.16-17.05-12.34l-10.94-17.27-11.71,5.74c-3.6,1.76-7.92,1.04-10.75-1.8l-.59-.59c-.19-.19-.3-.45-.29-.73,0-.27.12-.53.32-.71l8.53-7.89-9.63,3.02c-4.25,1.33-8.88-.18-11.54-3.75-.41-.55-.56-1.25-.41-1.93.15-.67.59-1.24,1.2-1.56l.28-.15-1.52-.78c-1.15-.59-1.86-1.76-1.83-3.06.02-1.3.77-2.44,1.94-2.98l10.04-4.67-1.46-.06c-2.49-.22-4.56-1.77-5.46-4.05-.2-.51.04-1.08.55-1.29l20.87-8.62c.18-.07.38-.09.57-.06l29.36,5.58c.27.05.5.21.65.44l23.28,35.74,80.38,21.02c.51.13.83.64.73,1.16l-6.28,32.64c-.06.29-.24.54-.49.68-.15.08-.32.13-.49.13Zm-115.88-63.77c.33,0,.66.17.85.47l11.42,18.03c3.63,5.74,9.26,9.81,15.85,11.47l10.95,2.76s.07.02.11.03l75.95,28.66,5.88-30.55-79.84-20.88c-.24-.06-.45-.21-.58-.42l-23.26-35.71-28.64-5.44-19.58,8.09c.73,1.09,1.92,1.79,3.26,1.91l5.55.21c.46.02.85.35.94.8.09.45-.14.91-.56,1.1l-13.79,6.41c-.48.22-.78.68-.79,1.21,0,.53.27,1,.74,1.24l3.25,1.66c.33.17.54.51.54.89,0,.37-.2.72-.54.89l-1.99,1.04c-.12.07-.17.17-.18.23s-.02.17.06.29c2.15,2.89,5.9,4.11,9.33,3.04l13.87-4.34c.44-.14.93.05,1.16.45.23.4.16.92-.19,1.24l-11.03,10.2c2.23,2.11,5.54,2.63,8.31,1.27l12.51-6.13c.14-.07.29-.1.44-.1Z"/>
    </g>
    <polygon class="cls-2" points="101.1 112.52 135.85 118.25 124.49 122.63 100.24 118.33 94.36 114.14 101.1 112.52"/>
  </g>
  <path class="cls-2" d="m129.73,121.13c-.39,0-.76-.23-.92-.61-.22-.51.02-1.1.53-1.31l17.15-7.28c.17-.07.37-.1.55-.07l16.24,2.64c.55.09.92.6.83,1.15-.09.54-.6.92-1.15.83l-15.95-2.59-16.88,7.17c-.13.05-.26.08-.39.08Z"/>
  <path class="cls-2" d="m121.92,132.08c-.38,0-.74-.22-.91-.58-.23-.5,0-1.1.49-1.33l21.66-9.95c.18-.08.38-.11.58-.08l15.81,2.58c.55.09.92.6.83,1.15-.09.54-.61.92-1.15.83l-15.51-2.53-21.38,9.82c-.13.06-.28.09-.42.09Z"/>
  <path class="cls-2" d="m144.79,134.1c-.25,0-.5-.09-.69-.28-.4-.38-.41-1.02-.03-1.41l4.19-4.34c.16-.17.38-.28.62-.3l7.86-.79c.55-.06,1.04.35,1.09.89.05.55-.35,1.04-.9,1.1l-7.49.75-3.94,4.08c-.2.2-.46.31-.72.31Z"/>
  <g>
    <path class="cls-2" d="m60.77,203.4h80.11c3.81,0,6.9,3.09,6.9,6.9v2.09H60.77v-8.99h0Z"/>
    <path class="cls-2" d="m78.03,212.39H24.86L.32,138.21c-1.33-4.02,1.66-8.16,5.9-8.16h37.15c4.43,0,8.36,2.84,9.76,7.05l24.91,75.3Z"/>
    <g>
      <path class="cls-3" d="m40.41,171.04c1.46,3.76.59,7.6-1.94,8.58s-5.76-1.28-7.21-5.04-.59-7.6,1.94-8.58,5.76,1.28,7.21,5.04Z"/>
      <path class="cls-2" d="m37.21,180.85c-2.68,0-5.49-2.31-6.88-5.91-.77-2-.98-4.1-.57-5.91.44-1.96,1.54-3.36,3.08-3.96,1.54-.6,3.3-.29,4.94.85,1.52,1.06,2.79,2.75,3.56,4.75h0c1.68,4.34.58,8.68-2.51,9.87-.53.2-1.07.3-1.62.3Zm-2.76-14.08c-.31,0-.61.05-.88.16-.9.35-1.56,1.25-1.85,2.53-.32,1.43-.15,3.12.48,4.75,1.23,3.18,3.94,5.23,5.92,4.46,1.98-.76,2.6-4.1,1.37-7.29h0c-.63-1.63-1.64-3-2.84-3.84-.75-.52-1.5-.79-2.19-.79Z"/>
    </g>
  </g>
  <path class="cls-2" d="m222.7,210.1c-.47,0-.89-.34-.98-.82l-5.3-28.31c-.1-.54.26-1.07.8-1.17.54-.1,1.06.26,1.17.8l5.3,28.31c.1.54-.26,1.07-.8,1.17-.06.01-.12.02-.18.02Z"/>
  <path class="cls-2" d="m177.01,207.17c-.5,0-.93-.37-.99-.88l-3.29-26.6c-.07-.55.32-1.05.87-1.11.55-.07,1.05.32,1.12.87l3.29,26.6c.07.55-.32,1.05-.87,1.11-.04,0-.08,0-.12,0Z"/>
  <g>
    <path class="cls-4" d="m109.72,41.33c-4.25,0-7.7-3.45-7.7-7.7s3.45-7.7,7.7-7.7,7.7,3.45,7.7,7.7-3.45,7.7-7.7,7.7Zm0-13.57c-3.24,0-5.87,2.63-5.87,5.87s2.63,5.87,5.87,5.87,5.87-2.63,5.87-5.87-2.63-5.87-5.87-5.87Z"/>
    <path class="cls-4" d="m128.88,59.68c-4.24,0-7.7-3.45-7.7-7.7s3.45-7.7,7.7-7.7,7.7,3.45,7.7,7.7-3.45,7.7-7.7,7.7Zm0-13.57c-3.24,0-5.87,2.63-5.87,5.87s2.63,5.87,5.87,5.87,5.87-2.63,5.87-5.87-2.63-5.87-5.87-5.87Z"/>
    <rect class="cls-4" x="99.47" y="42.09" width="40.07" height="1.83" transform="translate(4.57 97.05) rotate(-44.98)"/>
  </g>
</svg>