<?xml version="1.0" encoding="UTF-8"?>
<svg id="Layer_1" data-name="Layer 1" xmlns="http://www.w3.org/2000/svg" viewBox="0 0 1260.24 1155.52">
  <defs>
    <style>
      .cls-1 {
        fill: #ff580a;
      }

      .cls-1, .cls-2 {
        stroke-width: 0px;
      }

      .cls-2 {
        fill: #062349;
      }
    </style>
  </defs>
  <path class="cls-2" d="M557.89,382.26c-6.35-10.99-18.08-17.76-30.77-17.76s-24.43,6.77-30.77,17.76l-190.14,329.33c-9.82,16.99-3.98,38.72,13.01,48.54,5.6,3.22,11.7,4.77,17.73,4.77,12.28,0,24.22-6.38,30.8-17.77l159.37-276.02,159.36,276.02c9.81,16.99,31.54,22.78,48.54,13.01,16.99-9.82,22.82-31.54,13.01-48.54l-190.13-329.33Z"/>
  <path class="cls-2" d="M817.02,400.03v329.33c0,19.62,15.91,35.53,35.53,35.53s35.53-15.91,35.53-35.53v-329.33c0-19.62-15.91-35.53-35.53-35.53s-35.53,15.91-35.53,35.53Z"/>
  <path class="cls-2" d="M1019.37,235.93c-12.98-14.69-35.42-16.1-50.16-3.14-14.72,12.98-16.12,35.45-3.14,50.16,67.54,76.54,106.88,170.98,113.76,273.11,17.04,253.01-174.93,472.72-427.94,489.76-253.01,17.04-472.72-174.93-489.77-427.94-17.04-253.01,174.93-472.73,427.94-489.77,42.48-2.86,84.19.17,124.83,8.64.03.64-.01,1.28.03,1.92,3.78,56.16,52.38,98.62,108.54,94.84,56.16-3.78,98.62-52.38,94.84-108.54-3.78-56.16-52.38-98.62-108.54-94.84-29.87,2.01-55.78,16.78-73.01,38.54-49.24-11.01-99.89-14.94-151.47-11.46C293.18,76.9,71.54,330.55,91.22,622.66c19.68,292.1,273.34,513.74,565.45,494.06,292.1-19.68,513.74-273.33,494.06-565.44-7.94-117.91-53.37-226.96-131.36-315.36Z"/>
  <rect class="cls-1" x="385.43" y="609.98" width="70.87" height="241.03" rx="34.23" ry="34.23" transform="translate(1151.36 309.63) rotate(90)"/>
  <circle class="cls-1" cx="816.43" cy="132.54" r="102.8"/>
</svg>