<?xml version="1.0" encoding="UTF-8"?>
<svg id="_Layer_" data-name="&amp;lt;Layer&amp;gt;" xmlns="http://www.w3.org/2000/svg" viewBox="0 0 318.56 177.44">
  <defs>
    <style>
      .cls-1 {
        fill: #f1cf25;
      }

      .cls-2, .cls-3 {
        fill: #fff;
      }

      .cls-4 {
        fill: #080717;
      }

      .cls-5 {
        fill: #85bac6;
      }

      .cls-6 {
        stroke: #fff;
      }

      .cls-6, .cls-7, .cls-8, .cls-9, .cls-10, .cls-11 {
        fill: none;
      }

      .cls-6, .cls-7, .cls-3, .cls-10, .cls-11 {
        stroke-width: 2px;
      }

      .cls-7, .cls-8, .cls-9, .cls-11 {
        stroke: #080717;
      }

      .cls-8 {
        stroke-width: 4px;
      }

      .cls-3, .cls-10 {
        stroke: #000;
      }

      .cls-3, .cls-10, .cls-11 {
        stroke-linecap: round;
        stroke-linejoin: round;
      }

      .cls-9 {
        stroke-width: 5.54px;
      }
    </style>
  </defs>
  <g>
    <path class="cls-2" d="m246.68,118.09l-43.01,35.25s-6.65,14.63,8.42,17.07c15.08,2.44,68.28,0,68.28,0v-2.66l13.3.67s.44-7.09-4.66-10.2c-3.22-1.96-8.65-.89-8.65-.89l.22-2.66-35.25-3.55,16.17-9.82-14.84-23.21Z"/>
    <g>
      <path class="cls-2" d="m224.92,83.66c-8.07-7.92-12.7-14.04-13.59-15.25.38-.97,1.61-4.37,1.22-6.35-.34-1.69.72-7.59,1.15-9.72.03-.15,0-.31-.11-.42-.06-.07-.59-.68-1.53-.67-.78.02-1.54.49-2.26,1.4-.43.55-.83,1.68-1.29,2.99-.54,1.52-1.43,4.07-2.13,4.17-.14.03-.35-.15-.56-.45-.06-.08-.13-.13-.21-.17l.11-2.46c.03-.62-.08-1.22-.3-1.77.06-.07.11-.15.13-.25.08-.44,1.98-10.76,2.3-13.01.12-.85-.05-1.52-.5-1.99-.71-.74-1.84-.64-1.88-.63-.19.02-.35.14-.42.31l-4.63,11.67c-.96-.4-1.75-.56-2.37-.48-1.93.24-2.59,1.89-2.72,2.99-.72.25-2.25.97-2.46,2.62-.1.8-.5,1.22-.88,1.63-.34.36-.69.73-.71,1.29-.09,2.43,1.65,6.91,4.63,11.97.84,1.42,2.61,2.23,4.33,3.01,1.27.58,2.58,1.18,3.35,1.98,2.29,2.38,5.63,8.64,7.83,12.79l.87,1.63c.09.17.26.26.44.26.08,0,.16-.02.23-.06l11.83-6.25c.14-.08.24-.21.26-.37.02-.16-.03-.32-.14-.43Z"/>
      <path class="cls-3" d="m249.28,55.92l-2.16.78c-.79.28-7.57-3.47-7.27-4.3l-7.2-19.89c-1.71-4.72.13-9.71,4.11-11.15h0c3.98-1.44,8.59,1.22,10.3,5.94l6.32,17.47c1.71,4.72-.13,9.71-4.11,11.15Z"/>
      <path class="cls-3" d="m245.46,41.43c-2.51,3.87-7.18,6.06-12,5.2h0c-6.43-1.15-10.72-7.29-9.57-13.73l2.23-12.5c1.15-6.43,7.29-10.72,13.73-9.57h0c6.43,1.15,10.72,7.29,9.57,13.73"/>
      <path class="cls-4" d="m254.28,24.69c.22-3.31-.61-6.49-2.24-9.18-1.39-1.18-3.12-1.84-4.89-1.76.13-1.15,0-2.37-.41-3.56-1.62-.98-3.43-1.7-5.41-2.06-8.56-1.53-16.74,4.18-18.27,12.74l-.13.75c.95.1,1.91,0,2.85-.35,1.94-.7,3.34-2.25,4.01-4.15,1.62.8,3.49.99,5.24.35.04-.01.08-.03.12-.05,1.48,1.69,3.58,2.63,5.71,2.53-.13,1.19,0,2.44.44,3.67,1.43,3.94,5.51,6.08,9.13,4.77,1.79-.65,3.13-2.02,3.85-3.72Z"/>
      <path class="cls-3" d="m245.85,31.29c-.92-2.54.4-5.35,2.94-6.27,2.54-.92,5.35.4,6.27,2.94.92,2.54-.4,5.35-2.94,6.27-1.06.38-2.16.38-3.16.06"/>
      <path d="m228.5,28.43c-.07.8-.59,1.42-1.17,1.37-.58-.05-.99-.74-.93-1.54.07-.8.59-1.42,1.17-1.37s.99.74.93,1.54Z"/>
      <path d="m236.18,29.63c-.07.8-.59,1.42-1.17,1.37-.58-.05-.99-.74-.93-1.54.07-.8.59-1.42,1.17-1.37.58.05.99.74.93,1.54Z"/>
      <path class="cls-10" d="m230.51,36.76c1.06,0,2.12-.48,2.81-1.29"/>
      <path class="cls-10" d="m229.84,32.91c.33-1.46.66-2.93.99-4.39"/>
      <path class="cls-10" d="m226.28,25.1c.68-.36,1.44-.57,2.22-.61"/>
      <path class="cls-10" d="m235.01,25.53c.92-.21,1.95.27,2.38,1.11"/>
      <path class="cls-10" d="m250.32,13.09c-1.17.12-2.6.22-3.52.95.85-.9,1.45-2.04,1.71-3.26"/>
      <path class="cls-5" d="m294.4,117.45l-15.51-67.14c-1.7-7.37-10.09-11.27-17.1-7.97l-28.17,13.25c-5.62,2.64-9.03,8.31-8.61,14.34l2.42,35.33s41.98,36.68,66.99,12.2Z"/>
      <g>
        <path class="cls-2" d="m285.42,157.15l3.42-7.2,27.56,11.76c2.31.99.92,5.32-2.03,6.48l-20.44-.03s1.55-11.62-8.51-11.02Z"/>
        <path class="cls-1" d="m285.54,156.85l2.06-4,27.56,11.76c2.31.99,1.68,3.54-1.02,4.11l-20.02-.47s.35-8.92-8.58-11.4Z"/>
        <path class="cls-10" d="m285.42,157.15l3.42-7.2,27.56,11.76c2.31.99.92,5.32-2.03,6.48l-20.44-.03s1.01-7.64-8.51-11.02Z"/>
      </g>
      <g>
        <path class="cls-2" d="m238.3,164.13v12.17l-18.22.14c-2.52,0-2.93-4.53-.68-6.76l5.91-7.55s3.97,6.5,12.98,2Z"/>
        <path class="cls-1" d="m238.3,164.46v8.69l-18.22.14c-2.52,0-2.93-2.59-.68-4.18l5.7-6.97s6.98-1.14,13.2,2.32Z"/>
        <path class="cls-10" d="m238.3,164.13v12.17l-18.22.14c-2.52,0-2.93-4.53-.68-6.76l5.91-7.55s6.09-1.82,12.98,2Z"/>
      </g>
      <polyline class="cls-10" points="241.69 150.76 280.84 154.82 280.84 170.25 240.34 170.58"/>
      <path class="cls-10" d="m218.71,170.25l-5.57.06c-9.96.1-15-11.96-7.93-18.97l15.75-13.64"/>
      <line class="cls-10" x1="225.49" y1="161.03" x2="227.35" y2="154.19"/>
      <line class="cls-10" x1="238.16" y1="163.99" x2="238.16" y2="154.73"/>
      <line class="cls-10" x1="293.51" y1="168.17" x2="281.34" y2="168.17"/>
      <line class="cls-10" x1="286.24" y1="157.52" x2="282.19" y2="157.52"/>
      <path class="cls-3" d="m242.14,107.95l-.9,45.06h-18.47l-4.27-52.73c-.97-11.99,10.58-21.11,22.02-17.38l52.77,32.48s1.14,11.29-5.86,17.12c-5.41,4.51-25.68,8.79-25.91,8.79l-15.77,9.46"/>
      <rect class="cls-5" x="237.65" y="45.33" width="19.82" height="9.01" transform="translate(4.47 118.24) rotate(-27.1)"/>
      <path class="cls-3" d="m242.14,120.57s5.86,3.83,13.07,7.66"/>
      <path class="cls-2" d="m274.34,77.6l-19.94-3.72c-.09-.02-.18,0-.26.02l-31.88,11.38-17.34,8.77c-.08.04-.14.1-.19.17l-6.37,9.42c-.38.57-.42,1.33-.09,1.94.28.53.78.84,1.34.84h.02c1.18-.02,2.12-.25,2.93-.74,0,.39.09.78.32,1.1.3.42.74.66,1.22.66.07,0,.14,0,.22-.02,1.94-.29,3.67-1.52,4.77-3.37.08.31.22.6.45.83.29.3.66.45,1.04.45.15,0,.31-.03.47-.08,1.93-.66,3.51-2.25,4.3-4.32l1.23-2.41,6.08-.42c2.88-.2,5.59-1.59,7.65-3.91l1.37-1.55,18.13.94c.23.02,22.55,2.11,24.95-15.41.04-.27-.14-.52-.41-.57Z"/>
      <g>
        <path class="cls-10" d="m207.74,96.64l-4.54,8.43c-.46.88.15,1.99,1.03,1.85h0c1.85-.28,3.49-1.48,4.51-3.29l2.78-4.96"/>
        <path class="cls-10" d="m212.01,96.57l-2.4,6.56c-.34.95.42,1.93,1.27,1.64h0c1.78-.61,3.25-2.1,4.01-4.07l1.89-3.7"/>
        <path class="cls-10" d="m216.24,98.03l6.37-.44c2.74-.19,5.34-1.52,7.31-3.74l1.53-1.73,18.4.96s22.03,2.26,24.4-14.98"/>
        <path class="cls-10" d="m203.9,103.68c-1.19,1.66-2.43,2.2-4.29,2.23h0c-.88.01-1.39-1.17-.84-1.98l6.37-9.42,17.34-8.77,31.82-11.36"/>
      </g>
      <line class="cls-10" x1="261.07" y1="52.53" x2="254.64" y2="76.41"/>
      <g>
        <path class="cls-10" d="m224.57,84.02c-9.12-8.96-13.8-15.54-13.8-15.54,0,0,1.73-4.17,1.29-6.33-.43-2.16,1.15-9.92,1.15-9.92,0,0-1.28-1.49-3.02.72-1.21,1.54-2.62,9.7-4.78,6.69"/>
        <path class="cls-10" d="m203.28,62.47c.76.76,1.74-1.18,1.74-1.18l.2-4.59c.06-1.3-.56-2.55-1.64-3.28-1.63-1.11-4.04-2.52-5.46-2.34-2.3.29-2.3,2.88-2.3,2.88,0,0-2.21.5-2.44,2.3-.22,1.7-1.55,2-1.58,2.88-.07,2.01,1.26,6.1,4.56,11.7,1.36,2.31,5.73,2.96,7.6,4.9,2.68,2.78,6.7,10.66,8.79,14.53"/>
        <path class="cls-10" d="m198.29,55.54l2.51,1.17c.91.43,1.5,1.32,1.55,2.32l.75,4.28s-.68,2-2.26,1.85"/>
        <path class="cls-10" d="m196.01,58.76l2.23.8c.9.37,1.53,1.19,1.65,2.15.2,1.64.47,4.06.38,4.62-.14.86-3.16.97-3.58-1.65"/>
        <path class="cls-10" d="m200.83,51.4l4.69-11.82s2.16-.22,1.83,2.05-2.3,12.98-2.3,12.98"/>
      </g>
      <line class="cls-10" x1="234.26" y1="71.23" x2="235.83" y2="80.69"/>
    </g>
    <g>
      <path class="cls-9" d="m192.55,19.27c-1.26-4.49,1.36-9.14,5.85-10.4,4.49-1.26,9.14,1.36,10.4,5.85,1.26,4.49-1.36,9.14-5.85,10.4-4.49,1.26-9.14-1.36-10.4-5.85Z"/>
      <line class="cls-9" x1="202.95" y1="25.12" x2="205.23" y2="33.25"/>
      <line class="cls-9" x1="196.12" y1=".75" x2="198.4" y2="8.87"/>
      <line class="cls-9" x1="192.55" y1="19.27" x2="184.42" y2="21.55"/>
      <line class="cls-9" x1="216.92" y1="12.44" x2="208.8" y2="14.72"/>
      <line class="cls-9" x1="193.32" y1="12.86" x2="185.96" y2="8.72"/>
      <line class="cls-9" x1="215.38" y1="25.27" x2="208.03" y2="21.14"/>
      <line class="cls-9" x1="196.54" y1="24.35" x2="192.4" y2="31.7"/>
      <line class="cls-9" x1="208.94" y1="2.29" x2="204.81" y2="9.64"/>
    </g>
  </g>
  <g>
    <path class="cls-2" d="m164.63,115.99c-.49-.37-1.1-.26-1.55-.09.56-1.36,1.1-2.71,1.42-3.68.32-.96.27-1.76-.15-2.38-.57-.85-2.22-1.13-2.69-1.2.53-2.55.94-5.28.54-6.32-.22-.58-.61-.97-1.13-1.14-.83-.27-1.79.09-2.36.37.03-1.51-.16-3.14-1-3.91-.34-.31-.95-.63-1.91-.36-3.57,1-4.61,5.24-4.76,5.94-.46.65-3.99,5.61-5.53,6.87-1.1.9-6.44,1.51-9.78,1.79,1.25-1.54,4.06-5.01,5.46-6.85,2.02-2.63-1.26-7.19-1.4-7.39-.07-.1-.18-.16-.29-.17-.12-.01-.23.03-.32.11l-7.95,7.27c-.5.35-4.9,3.49-5.45,4.65-1.18,2.48-8.1,10.74-8.17,10.82l-4.61,5.53c-.11.13-.13.31-.05.46l8.78,16.06c.06.12.18.2.31.21.02,0,.03,0,.05,0,.12,0,.23-.05.31-.14l9.03-9.93c2.9.17,20.85,1.13,23.42-.53,2.55-1.65,8.97-8.63,9.79-11.38.77-2.56.76-4.02-.03-4.62Z"/>
    <path class="cls-2" d="m118.69,67.36c-.06-.18-.23-.28-.43-.27l-12.52,1.22c-.06,0-.11.02-.16.05l-15.58,8.7c-.07.04-.12.09-.16.16l-14.51,25.81c-.06.11-.07.24-.02.35.05.12.14.2.26.24l23.91,7.5s.08.02.12.02c.08,0,.16-.02.23-.07.1-.07.17-.18.18-.3.28-2.49,3.58-16.79,4.11-19.06.48-.13,1.35-.76,3.18-3.22.12.49.35.9.7,1.21.65.57,1.54.69,2.16.69.41,0,.7-.05.73-.06.13-.02.24-.11.3-.23l1.42-3.07c.32.46.72.75,1.22.85.12.02.23.03.35.03,1.07,0,2.05-.83,2.1-.87.06-.05.11-.12.13-.2l.86-3.06c.55-1.95.44-4.07-.31-5.95l-1.63-4.08s-.01-.02-.02-.03c.59-.31,1.11-.59,1.52-.83,3.16-1.83,1.87-5.5,1.86-5.54Z"/>
    <path class="cls-5" d="m56.94,98.62s11.48,10.27,15.96,21.26c4.48,11,5.29,46.02,5.29,46.02H0l3.35-25.72c1.76-13.52,8.82-25.79,19.62-34.12l7.57-5.84.1-2.8,21.69,8.86,4.61-7.67Z"/>
    <g>
      <path class="cls-4" d="m132.87,71.65h17.98c1.3,0,2.35,1.05,2.35,2.35v14.18h-22.69v-14.18c0-1.3,1.05-2.35,2.35-2.35Z" transform="translate(239.73 210.04) rotate(-156.34)"/>
      <path class="cls-1" d="m135.4,35.85c5.18-11.83,18.98-17.22,30.81-12.04s17.22,18.98,12.04,30.81c-3.47,7.92-10.81,12.94-18.83,13.84l-3.61,8.24-21.42-9.39,3.61-8.24c-4.77-6.51-6.06-15.3-2.59-23.23Z"/>
      <line class="cls-8" x1="153.68" y1="86.4" x2="128.69" y2="75.45"/>
      <line class="cls-8" x1="156.8" y1="79.27" x2="131.81" y2="68.32"/>
      <path class="cls-6" d="m149.33,73.01s8.2-19.15,12.51-24.08c1.54-1.76,8.1-5.65,9.19-1.7,1.1,3.95-13.3,9.59-15.73,1.13-1.46-5.08,2.14-17.96,5.99-15.16,2.3,1.67-1.47,16.97-7.2,16.55-7.64-.56-8.33-8.39-7.67-10.59.66-2.2,6.26,4.95,3.6,12.6-2.66,7.64-8.03,18.43-8.03,18.43"/>
    </g>
    <g>
      <path class="cls-2" d="m56.58,98.19v1.92l-4.39,6.32-21.15-8.79,2.75-8.06-4.94-35.43s-1.92-5.86,6.04-6.77c7.96-.92,27.83-3.94,28.84-1.83,1.01,2.11,4.3,41.38,4.49,43.03.18,1.65-7.78,8.51-11.63,9.61Z"/>
      <path class="cls-3" d="m33.97,81.66l-3.25.4c-1.14.14-2.17-.67-2.31-1.81l-1.35-10.99c-.14-1.14.67-2.17,1.81-2.31l2.35-.29"/>
      <path d="m64.34,54.98s2.72-3.74,3.05-5.86c.16-1.08-1.33-4.89-4.11-6.08-2.78-1.2-4.6,1.88-4.6,1.88,0,0,4.43,1.8,4.75,2.64.32.84.91,7.42.91,7.42Z"/>
      <path d="m29.14,67.85s-5.05-12.88-4.9-16.84c.15-3.97.24-6.72,4.79-7.72,6.81-1.49,7.08,0,10.17-2.56,3.08-2.57,8.47-8.52,10.48-9.29,3.35-1.29,8.9-.76,9.93,5.91.76,4.93,3.93,5.77,3.87,5.97-.19.64-1.39,1.36-3.44,2.76-5.88,4.01-9.57,5.12-14.55,4.42-4.97-.71-14.29-2.42-14.88,1.39-.6,3.8,1.2,14.99.89,15.91-.31.92-1.45.62-2.37.07Z"/>
      <path d="m31.84,70.6s.04,13.49.6,18.03c.5,4.11,4.87,13.05,28.06,10.2,13.73-1.68,11.99-11.71,11.58-15.03-.31-2.52-4.38-9.51-6.01-10.78-.05-.04.14,4.94.14,4.94,0,0-2.69-4.67-9.22-3.87-10.53,1.29-12.16,7.75-16.82,8.21-3.58.35-6.97-5.14-8.34-11.7Z"/>
      <path class="cls-2" d="m53.77,83.56l7.21-.88c.95-.12,1.63-.99,1.52-1.94l-.12-1.01-10.66,1.31.12,1.01c.12.95.99,1.63,1.94,1.52Z"/>
      <path class="cls-10" d="m34.74,88.76c-.41-.64-.69-1.38-.79-2.18l-.05-.43c-.67-2.1-1.1-3.52-1.1-3.52,0,0,.12-1.14.31-2.91l-3.4-27.72c-.35-2.87,1.69-5.47,4.55-5.82l23.35-2.86c2.87-.35,5.47,1.69,5.83,4.55l4.24,34.59c.35,2.87-1.69,5.47-4.55,5.82l-2.99.37c.99,2.4,1.96,4.24,2.02,5.57"/>
      <g>
        <path class="cls-10" d="m56.29,58.07s3.32-1.82,5.29-.74"/>
        <path class="cls-10" d="m46.13,58.24s-3.38-1.61-5.7.08"/>
        <path d="m58.39,64.94c.36.93,1.19,1.49,1.85,1.23s.92-1.22.56-2.15c-.36-.93-1.19-1.49-1.85-1.23-.67.25-.92,1.22-.56,2.15Z"/>
        <path d="m43.71,66.81c.22.97.97,1.64,1.67,1.48.7-.16,1.08-1.08.86-2.05s-.97-1.64-1.67-1.48c-.7.16-1.08,1.08-.86,2.05Z"/>
        <path class="cls-11" d="m52.2,62.01s4.55,7.82,4.63,9.2c.07,1.38-2.94,1.07-2.94,1.07"/>
      </g>
    </g>
    <g>
      <path class="cls-10" d="m75.69,103.23l14.51-25.81,15.58-8.7,12.52-1.22s1.22,3.36-1.68,5.04c-2.9,1.68-11,5.5-11,5.5"/>
      <path class="cls-10" d="m87.91,87.5l11-9.62s4.28-3.05,6.72,1.37c.23.42-4.43,6.26-4.43,6.26l-5.96,11.15"/>
      <path class="cls-10" d="m102.57,83.84s-1.11,1.73-1.37,3.21c-.31,1.68,1.22,3.97,2.6,4.28.83.18,2.92-2.61,4.46-4.87,1.18-1.73,1.69-3.82,1.46-5.9l-.42-3.89"/>
      <path class="cls-10" d="m112.65,75.14l1.01,3.79c.53,1.99.35,4.11-.52,5.98l-2.33,5.04s-3.36.61-3.21-2.44"/>
      <path class="cls-10" d="m114.94,73.91l1.63,4.08c.72,1.81.83,3.81.3,5.68l-.86,3.06s-2.14,1.83-3.21-.15"/>
      <path class="cls-10" d="m103.79,91.32s-3.88,16.66-4.19,19.41"/>
    </g>
    <g>
      <line class="cls-7" x1="134.59" y1="29.74" x2="126.95" y2="24.72"/>
      <line class="cls-7" x1="131.65" y1="36.54" x2="122.76" y2="34.44"/>
      <line class="cls-7" x1="139.67" y1="24.36" x2="134.21" y2="17.03"/>
    </g>
    <g>
      <line class="cls-7" x1="180.78" y1="59.26" x2="188.42" y2="64.28"/>
      <line class="cls-7" x1="183.72" y1="52.46" x2="192.61" y2="54.57"/>
      <line class="cls-7" x1="175.7" y1="64.65" x2="181.16" y2="71.97"/>
    </g>
    <g>
      <path class="cls-10" d="m134.8,112.4s4.24-5.2,6.09-7.62-1.41-6.89-1.41-6.89l-7.99,7.3s-4.61,3.51-5.32,4.49c-1.66,2.29-10.27,13.71-10.27,13.71"/>
      <path class="cls-10" d="m134.07,112.42s10.02-.6,11.72-2c1.7-1.4,5.65-7.02,5.65-7.02,0,0,.88-4.69,4.49-5.71,3.61-1.01,2.04,7.03,2.04,7.03l-5,9.37-6.41,4.28"/>
      <path class="cls-10" d="m158.47,102.17s2.6-1.68,3.36.31-1.83,11.3-1.83,11.3l-3.97,5.04-6.57,4.58"/>
      <path class="cls-10" d="m162.28,109.19s2.75.15,1.83,2.9c-.92,2.75-3.67,8.86-3.67,8.86l-6.72,5.34"/>
      <path class="cls-10" d="m162.74,116.52s3.36-2.14,1.53,3.97c-.75,2.5-7.02,9.47-9.62,11.15-2.6,1.68-23.37.46-23.37.46l-9.16,10.08"/>
    </g>
    <line class="cls-10" x1="27.69" y1="135.76" x2="38.28" y2="164.68"/>
    <path class="cls-5" d="m115.24,118.86l18.95,19.65-20.71,27.39h-35.17s39.12-47.04,36.93-47.04Z"/>
    <path class="cls-5" d="m73.1,101.55l30.54,10.38-8.8,53.96h-35.17s15.62-64.34,13.42-64.34Z"/>
    <polygon class="cls-10" points="51.36 106.04 50.36 117.13 30.54 100.23 30.4 97.47 51.36 106.04"/>
    <polygon class="cls-10" points="56.94 98.62 61 112.77 52.24 105.99 56.94 98.62"/>
    <path class="cls-10" d="m52.24,105.99s13.83,21.22,12.61,59.09"/>
    <path class="cls-10" d="m70.35,114.38s14.36,24.43,15.58,41.54"/>
    <line class="cls-10" x1="98.14" y1="141.87" x2="78.19" y2="165.9"/>
    <line class="cls-11" x1="32.13" y1="97.33" x2="34.06" y2="88.81"/>
  </g>
</svg>