<?xml version="1.0" encoding="UTF-8"?>
<svg id="_Layer_" data-name="&amp;lt;Layer&amp;gt;" xmlns="http://www.w3.org/2000/svg" viewBox="0 0 259.11 222.8">
  <defs>
    <style>
      .cls-1, .cls-2 {
        fill: #f1cf25;
      }

      .cls-3, .cls-4 {
        fill: #fff;
      }

      .cls-5 {
        fill: #080717;
      }

      .cls-6 {
        fill: #85bac6;
      }

      .cls-7 {
        stroke: #080717;
      }

      .cls-7, .cls-4, .cls-8, .cls-9, .cls-10, .cls-2 {
        stroke-width: 2px;
      }

      .cls-7, .cls-8, .cls-9, .cls-11, .cls-10 {
        fill: none;
      }

      .cls-4, .cls-8, .cls-9, .cls-11, .cls-10 {
        stroke: #000;
        stroke-linecap: round;
        stroke-linejoin: round;
      }

      .cls-9 {
        stroke-dasharray: 0 0 1.93 3.87;
      }

      .cls-11 {
        stroke-width: 1.94px;
      }

      .cls-10 {
        stroke-dasharray: 0 0 1.89 3.78;
      }

      .cls-2 {
        stroke: #fff;
      }
    </style>
  </defs>
  <path class="cls-3" d="m230.09,177.66l-4.66,9.87s9.75-1.44,12.08-4.1c2.33-2.66-7.43-5.76-7.43-5.76Z"/>
  <g>
    <polygon class="cls-4" points="100.72 1 111.9 6.99 125.24 51.08 85.73 63.04 69.79 10.36 100.72 1"/>
    <line class="cls-7" x1="81.61" y1="25.61" x2="92.36" y2="22.36"/>
    <line class="cls-7" x1="83.71" y1="33.36" x2="108.95" y2="25.72"/>
    <line class="cls-7" x1="85.03" y1="37.74" x2="110.27" y2="30.1"/>
    <line class="cls-7" x1="86.36" y1="42.12" x2="111.6" y2="34.49"/>
    <line class="cls-7" x1="87.69" y1="46.53" x2="108.54" y2="40.22"/>
    <polyline class="cls-5" points="100.75 .99 103.34 9.54 111.89 6.96"/>
  </g>
  <path class="cls-3" d="m122.59,134.1l-11.72-25.1c-.07-.18-.24-.31-.44-.32l-16.85-1c-.13,0-.25.04-.35.11l1.03-27.07c.43-.75,2.51-4.78.17-9.25-2.47-4.71-3.51-7.03-3.72-8.27-.2-1.2.21-2.35,1.19-3.33.65-.65,2.82-2.02,3.43-2.35.96-.52,1.54-1.71,1.32-2.72-.09-.43-.48-1.43-2.08-1.54-.2-.01-.4-.02-.59-.03.07-.06.12-.13.15-.23.23-.82.24-2.61-1.33-3.56-.93-.56-1.93-.7-3.02-.43-.04-.28-.17-.61-.27-.76-.89-1.26-1.95-1.95-3.15-2.05-.27-.03-.55,0-.84.03-.47-.53-2.68-2.82-5.47-1.72-2.94,1.16-6.79,4.29-8.44,12.67-1.06,5.39.31,12.23,1.42,17.73.59,2.94,1.1,5.47,1.06,6.99-.11,4.34-1.48,35.92-1.55,36.38-.02.24-.55,5.85,3.06,10.22,2.3,2.79,5.75,4.4,10.25,4.8,2.03.18,4.34.26,6.81.26,14.68,0,29.29,1.25,29.53,1.22.15-.02.45-.53.4-.67Z"/>
  <path class="cls-8" d="m85.23,46.65s-2.22-2.77-4.99-1.68c-2.76,1.08-6.51,4.08-8.13,12.3-1.62,8.22,2.6,20.21,2.49,24.64-.12,4.43-1.89,36.35-1.89,36.35,0,0-1.35,13.21,12.85,14.48,14.2,1.26,41.91-2.51,41.91-2.51"/>
  <path class="cls-5" d="m159.97,110.94l-51.57-2.77s11.52,13.81,9.4,40.01c-.56,6.95,37.73-3.99,37.73-3.99,0,0,13.32-11.31,4.44-33.25Z"/>
  <path class="cls-5" d="m122.37,153.51s2.66-27.93,26.6-38.57c23.94-10.64,45.23,2.66,54.54,8.65,9.31,5.99,21.47,15.15,22.37,35.18s-2.42,35.99-39,37.32c-36.58,1.33-65.18,0-65.18,0l.66-42.57Z"/>
  <path class="cls-1" d="m194.42,142.93h-61.95c-3.86,0-7.57-3.16-8.25-7.02l-.05-.27-.19-1.1c-.68-3.86-4.4-7.02-8.25-7.02h-28.37c-3.86,0-7.02,3.16-7.02,7.02v80.24c0,3.86,3.39,7.02,7.25,7.02h106.6c3.86,0,7.25-3.16,7.25-7.02v-64.84c0-3.86-3.16-7.02-7.02-7.02Z"/>
  <g>
    <rect class="cls-5" x="2.74" y="72.81" width="35.47" height="24.73" rx="2.89" ry="2.89" transform="translate(-39.45 21.27) rotate(-29.64)"/>
    <polygon class="cls-3" points="24.69 82.78 21.86 87.61 19.03 92.44 16.26 87.57 13.49 82.71 19.09 82.74 24.69 82.78"/>
  </g>
  <g>
    <rect class="cls-6" x="223.64" y="104.87" width="35.47" height="24.73" rx="2.89" ry="2.89"/>
    <g>
      <polygon class="cls-3" points="234.52 115.54 228.78 122.54 240.26 122.54 234.52 115.54"/>
      <polygon class="cls-3" points="244.85 111.42 235.72 122.54 253.98 122.54 244.85 111.42"/>
    </g>
    <path class="cls-3" d="m238.76,111.29c0,1.29-1.04,2.33-2.33,2.33s-2.33-1.04-2.33-2.33,1.04-2.33,2.33-2.33,2.33,1.04,2.33,2.33Z"/>
  </g>
  <g>
    <path class="cls-4" d="m177.63,91.95s-3.24,15.67.64,21.15c7.16,10.1-9.81,15.04-15.29,8.31-3.69-4.53,2.68-10.96-3.09-22.23-5.77-11.27,17.75-7.23,17.75-7.23Z"/>
    <path class="cls-5" d="m180.14,91.76s-4.82,2.91-3.3,16.14c0,.02-10.66,2.34-15.33-3.85.81-1.95.99-4.24-.64-6.83-5.03-7.97,19.28-5.45,19.28-5.45Z"/>
    <path class="cls-5" d="m173.04,92.36s14.04-.55,14.34-6.56c.3-6.01-6.5-8.39-2.63-13.25,3.88-4.86,9.83-8.64-1.19-11.67-11.02-3.03-4.2-13.68-12.07-13.99-7.88-.3-9.1,4.78-16.48,5.13-7.38.34-16.67-5.26-20.77,4.11-4.1,9.37-3.48,18.18,1.11,18.76,4.58.58-.95,4.65-2.17,7.87-1.22,3.22,1.9,15.26,20.53,7.85,18.63-7.41,10.74,1.6,19.33,1.76Z"/>
    <path class="cls-4" d="m147.24,69.18s-2.38,8.66.6,21.84c2.98,13.18,9.92,16.27,20.81,13,10.89-3.27,10.84-16.66,10.21-19.88-.64-3.22,10.03-1.99,6.75-9.15-3.28-7.17-7.44-3.74-7.59-.73-.15,3.01-1.59,7.01-4.23,4.93-2.65-2.08.53-14.25-4.56-11.75-5.09,2.5-14.05,6.13-21.98,1.75Z"/>
    <path class="cls-8" d="m167.69,92.28l-6.11,4.44s10.03,5.64,6.11-4.44Z"/>
    <path class="cls-8" d="m156.37,79.52l-.94,11.34s2.55,1.63,5.14,1.15"/>
    <path class="cls-8" d="m160.8,74.81c2.18-1.52,4.95-2.17,7.58-1.77"/>
    <path class="cls-8" d="m153.16,78.22c-1.27.2-2.54.4-3.81.6-1.06.17-2.36.57-2.5,1.63"/>
    <path d="m163.14,81.05c.27.99,1.06,1.64,1.78,1.45.71-.19,1.08-1.15.81-2.15-.27-.99-1.06-1.64-1.78-1.45s-1.08,1.15-.81,2.15Z"/>
    <path d="m149.46,84.73c.27.99,1.06,1.64,1.78,1.45s1.08-1.15.81-2.15c-.27-.99-1.06-1.64-1.78-1.45-.71.19-1.08,1.15-.81,2.15Z"/>
  </g>
  <line class="cls-8" x1="110.4" y1="109.18" x2="93.55" y2="108.18"/>
  <path class="cls-8" d="m76.92,56.85c.22-.67,2.22-5.32,4.43-7.54s5.32-4.21,7.76-.78"/>
  <path class="cls-8" d="m81.35,58.4s2.88-5.1,5.32-7.09,4.25-2.42,5.87-1.44c1.66,1,1.11,2.99,1.11,2.99"/>
  <path class="cls-8" d="m85.62,60.56s2.05-4.93,3.82-5.82c1.77-.89,3.71-1.77,5.1-1,1.56.87,1.05,2.38.55,3.33-.33.62-1.96,1.79-2.66,2.49-1.11,1.11-1.55,2.44-1.33,3.77s.44,3.71,2.88,8.37c2.44,4.66-.22,8.87-.22,8.87l-1.33,35.03"/>
  <g>
    <g>
      <path class="cls-3" d="m157.06,167.9c-3.94,0-7.43-2.51-8.68-6.25l-5.85-17.51c-.78-2.32-.6-4.8.49-6.99,1.09-2.19,2.97-3.82,5.29-4.59l17.51-5.86c.94-.32,1.92-.47,2.9-.47,3.94,0,7.43,2.51,8.68,6.25l5.86,17.51c1.6,4.79-.99,9.98-5.78,11.58l-17.51,5.86c-.94.32-1.92.47-2.9.47Z"/>
      <path d="m168.72,127.23c3.41,0,6.59,2.16,7.73,5.57l5.86,17.51c1.43,4.27-.88,8.89-5.15,10.31l-17.51,5.86c-.86.29-1.73.42-2.59.42-3.41,0-6.59-2.16-7.73-5.57l-5.86-17.51c-1.43-4.27.88-8.89,5.15-10.31l17.51-5.86c.86-.29,1.73-.42,2.59-.42m0-2h0c-1.09,0-2.18.18-3.22.53l-17.51,5.86c-2.57.86-4.65,2.67-5.86,5.1-1.21,2.43-1.4,5.18-.54,7.75l5.86,17.51c1.39,4.15,5.26,6.93,9.63,6.93,1.09,0,2.18-.18,3.22-.53l17.51-5.86c5.31-1.77,8.18-7.54,6.41-12.85l-5.86-17.51c-1.39-4.15-5.25-6.93-9.63-6.93h0Z"/>
    </g>
    <path class="cls-6" d="m160.03,140.06c.68,2.04-.42,4.25-2.46,4.93-2.04.68-4.25-.42-4.93-2.46s.42-4.25,2.46-4.93c2.04-.68,4.25.42,4.93,2.46Z"/>
    <path class="cls-6" d="m182.3,150.31l-4.06-12.14-3.52-1.75c-2.26-1.13-5-.21-6.13,2.05l-8.52,17.08-3.93-1.96c-2.26-1.13-5-.21-6.13,2.05l-1.55,3.1.87,2.59c1.14,3.41,4.32,5.57,7.73,5.57.86,0,1.73-.14,2.58-.42l17.51-5.86c4.27-1.43,6.57-6.05,5.14-10.31Z"/>
  </g>
  <g>
    <rect class="cls-4" x="199.98" y="58.13" width="35.47" height="24.73" rx="2.89" ry="2.89"/>
    <g>
      <path class="cls-5" d="m211.69,74.7c-.36,1.3-2.13,1.94-3.96,1.44-1.83-.5-3.02-1.97-2.66-3.26.36-1.3,2.13-1.94,3.96-1.44,1.83.5,3.02,1.97,2.66,3.26Z"/>
      <path class="cls-5" d="m223.45,77.94c-.36,1.3-2.13,1.94-3.96,1.44-1.83-.5-3.02-1.97-2.66-3.26.36-1.3,2.13-1.94,3.96-1.44,1.83.5,3.02,1.97,2.66,3.26Z"/>
      <polyline class="cls-11" points="210.59 74.51 213.95 62.33 225.81 65.6 222.45 77.78"/>
      <line class="cls-11" x1="213.67" y1="66.27" x2="224.89" y2="69.37"/>
    </g>
  </g>
  <g>
    <polygon class="cls-4" points="115.76 141.64 126.94 147.63 140.28 191.72 100.77 203.68 84.83 151 115.76 141.64"/>
    <line class="cls-7" x1="96.65" y1="166.25" x2="107.4" y2="163"/>
    <line class="cls-7" x1="98.75" y1="174" x2="123.99" y2="166.37"/>
    <line class="cls-7" x1="100.07" y1="178.38" x2="125.31" y2="170.74"/>
    <line class="cls-7" x1="101.4" y1="182.77" x2="126.64" y2="175.13"/>
    <line class="cls-7" x1="102.73" y1="187.17" x2="123.58" y2="180.86"/>
    <polyline class="cls-5" points="115.79 141.63 118.38 150.18 126.93 147.6"/>
  </g>
  <path class="cls-2" d="m198.46,221.8h-112.88c0-.12,33.04-56.45,33.04-56.45,2.23-3.86,7.21-7.02,11.07-7.02h105.41c3.86,0,5.19,3.16,2.97,7.02l-28.54,49.44c-2.23,3.86-7.21,7.02-11.07,7.02Z"/>
  <g>
    <path class="cls-3" d="m210.38,162.9c1.42-2.56,4.11-3.02,9-3.86,1.83-.31,4.21-.35,6.5-.28-2.69-.65-6.47-1.06-8.28-1.16-2.04-.11-4.35-1.98-4.38-4.33-.01-.85.34-1.63,1-2.25,1.38-1.28,3.97-1.83,7.52-1.6,5.41.36,12.47,2.44,16.78,4.94,4.46,2.58,7.18,12.65,6.94,20.43-.26,8.1-9.21,10.46-9.3,10.48-.05.01-.09.02-.14.02-.25,0-.47-.16-.54-.4l-.84-3.04c-2.39-.97-7.94-1.34-10.87-1.17-3.51.2-5.37-1.22-5.67-2.72-.41-2.02,1.5-3.27,3.27-4.07-2.2-.14-4.29-.35-5.17-.66-1.24-.43-2.85-1.5-3.34-3.06-.21-.68-.27-1.72.51-2.95-1.22-.36-2.38-1.24-2.92-2.28-.37-.72-.4-1.44-.07-2.03Z"/>
    <g>
      <path class="cls-8" d="m229.01,159.42c-1.68-1.52-9.63-2.28-11.39-2.37-1.76-.09-3.83-1.73-3.85-3.79-.03-2.06,2.48-3.66,7.92-3.29,5.43.36,12.34,2.43,16.54,4.86,4.2,2.43,6.91,12.16,6.66,19.94-.25,7.78-8.89,9.97-8.89,9.97,0,0-4.39,2.11-11.05,3.69"/>
      <path class="cls-8" d="m233.67,159.94s-9.26-1.22-14.19-.36c-4.93.85-7.34,1.3-8.61,3.59-.75,1.35,1.27,3.4,3.24,3.65"/>
      <path class="cls-8" d="m234.28,165.65s-18.19-1.24-20.27,1.57.64,4.87,2.37,5.48c1.73.61,9.04.83,9.75.85"/>
      <path class="cls-8" d="m234.04,174.16s-8.49-1.4-11.79-.06c-3.15,1.28-3.86,2.52-3.61,3.74.27,1.35,2.09,2.45,5.09,2.28,3-.17,8.97.22,11.37,1.32"/>
    </g>
  </g>
  <g>
    <path class="cls-8" d="m193.62,109.2c.16-.29.32-.59.49-.88"/>
    <path class="cls-10" d="m196.17,105.15c2.94-4.1,6.65-7.61,10.93-10.31"/>
    <path class="cls-8" d="m208.7,93.88c.29-.16.58-.32.88-.48"/>
  </g>
  <g>
    <path class="cls-8" d="m29.45,102.3c.28.18.56.36.84.55"/>
    <path class="cls-9" d="m33.46,105.04c15.22,11.01,28.58,27.41,38.68,47.52"/>
    <path class="cls-8" d="m73,154.3c.15.3.29.6.44.9"/>
  </g>
</svg>