<?xml version="1.0" encoding="UTF-8"?>
<svg id="_Layer_" data-name="&amp;lt;Layer&amp;gt;" xmlns="http://www.w3.org/2000/svg" viewBox="0 0 306.52 237.15">
  <defs>
    <style>
      .cls-1 {
        fill: #f1cf25;
      }

      .cls-2 {
        fill: #fff;
      }

      .cls-3 {
        fill: #080717;
      }

      .cls-4 {
        fill: #85bac6;
      }
    </style>
  </defs>
  <g>
    <g>
      <path class="cls-3" d="m25.7,225.09V70.3c0-7.77,6.01-14.07,13.43-14.07h226.43c7.42,0,13.43,6.3,13.43,14.07v154.79H25.7Z"/>
      <path class="cls-2" d="m38.01,212.77V70.3c0-1.07.66-1.76,1.12-1.76h226.43c.45,0,1.12.69,1.12,1.76v142.47H38.01Z"/>
      <g>
        <path class="cls-2" d="m166.42,220.69h131.34v2.91c0,4.82-6.01,12.56-13.43,12.56H20.37c-7.42,0-13.43-7.73-13.43-12.56v-2.91h159.48Z"/>
        <path class="cls-3" d="m284.32,237.15H20.37c-7.97,0-14.43-8.2-14.43-13.56v-2.91c0-.55.45-1,1-1h290.82c.55,0,1,.45,1,1v2.91c0,5.35-6.47,13.56-14.43,13.56ZM7.93,221.69v1.91c0,4.46,5.69,11.56,12.43,11.56h263.96c6.74,0,12.43-7.1,12.43-11.56v-1.91H7.93Z"/>
      </g>
    </g>
    <g>
      <path class="cls-4" d="m207.64,213.88l-26.39-78.42c-5.09-15.13-17.66-26.54-33.21-30.14l-29.52-6.84-57.2,21.28,26.6,94.12s119.71-.67,119.71,0Z"/>
      <path class="cls-3" d="m207.64,214.88c-.11,0-.22-.02-.32-.05-3.98-.47-87.36-.12-119.38.05h0c-.45,0-.84-.3-.96-.73l-26.6-94.12c-.14-.5.13-1.03.61-1.21l57.2-21.28c.18-.07.38-.08.57-.04l29.52,6.84c16.01,3.71,28.69,15.22,33.93,30.79l26.39,78.42h0c.03.1.05.21.05.32,0,.49-.35.91-.84.99-.05,0-.11.01-.16.01ZM62.53,120.38l26.15,92.5c4.84-.03,31.97-.17,58.85-.25,41.59-.11,54.52-.03,58.69.18l-25.93-77.03c-5.02-14.91-17.16-25.93-32.49-29.48l-29.22-6.77-56.05,20.86Z"/>
    </g>
    <path class="cls-1" d="m293.56,3.71h-71.23c-7.15,0-12.95,5.8-12.95,12.95v51.81c0,7.15,5.8,12.95,12.95,12.95h6.48v22.67l22.67-22.67h42.09c7.15,0,12.95-5.8,12.95-12.95V16.66c0-7.15-5.8-12.95-12.95-12.95Z"/>
    <g>
      <path class="cls-2" d="m236.41,38.08c3.61,0,6.53,2.92,6.53,6.53s-2.92,6.53-6.53,6.53-6.53-2.92-6.53-6.53,2.92-6.53,6.53-6.53Z"/>
      <path class="cls-2" d="m257.95,38.08c3.61,0,6.53,2.92,6.53,6.53s-2.92,6.53-6.53,6.53-6.53-2.92-6.53-6.53,2.92-6.53,6.53-6.53Z"/>
      <path class="cls-2" d="m279.49,38.08c3.61,0,6.53,2.92,6.53,6.53s-2.92,6.53-6.53,6.53-6.53-2.92-6.53-6.53,2.92-6.53,6.53-6.53Z"/>
    </g>
    <circle class="cls-3" cx="153.15" cy="18.68" r="18.68"/>
    <g>
      <path class="cls-2" d="m106.08,102.83l12.72-40.1,32.9,10.44-11.46,36.12c4.74,5.06,7.81,10.82,4.6,15.85-7.85,12.29-30.39,0-40.29-8.88l-9.9-8.88,11.43-4.55Z"/>
      <path class="cls-3" d="m134.46,131.32c-10.59,0-24.1-8.5-30.58-14.31l-9.9-8.88c-.26-.23-.38-.58-.32-.92.06-.34.29-.63.61-.75l10.99-4.37,12.58-39.65c.08-.25.26-.46.49-.58.24-.12.51-.15.76-.07l32.9,10.44c.53.17.82.73.65,1.26l-11.29,35.56c5.83,6.39,7.28,11.99,4.31,16.64-1.99,3.11-4.96,4.96-8.82,5.49-.78.11-1.58.16-2.39.16Zm-37.95-23.6l8.7,7.8c12.66,11.35,25.96,14.41,31.37,13.66,3.26-.45,5.75-1.99,7.41-4.58,2.48-3.88.97-8.8-4.49-14.62-.25-.26-.33-.64-.22-.99l11.16-35.17-30.99-9.83-12.42,39.15c-.09.29-.31.52-.58.63l-9.93,3.95Zm9.56-4.88h0,0Z"/>
    </g>
    <path class="cls-3" d="m112.65,85.59l8.71-23.12,31.17,11.42-9.7,30.02c-11.2.69-22.19-8.81-30.18-18.32Z"/>
    <g>
      <path class="cls-2" d="m97.06,49.37c-1.39-18.9,11.32-36.41,30.37-40.5l6.72-1.44c14.9-3.2,29.58,6.29,32.78,21.2l6.69,31.17c3.2,14.9-6.29,29.58-21.2,32.78l-5.33,1.14c-17.67,3.79-35.12-4.73-43.41-19.79-3.25,1.06-6.91.82-10.14-.97-6.15-3.42-8.36-11.18-4.94-17.34,1.86-3.34,5-5.5,8.46-6.25Z"/>
      <path class="cls-3" d="m138.84,95.6c-14.45,0-28.27-7.71-35.64-20.49-3.41.89-7.06.43-10.14-1.28-3.21-1.79-5.53-4.71-6.54-8.25-1.01-3.53-.58-7.24,1.21-10.45,1.78-3.2,4.77-5.54,8.28-6.53-1-19.23,12.28-36.64,31.21-40.71l6.72-1.44c15.42-3.31,30.66,6.54,33.97,21.96l6.69,31.17c1.6,7.47.2,15.12-3.95,21.53-4.15,6.42-10.55,10.83-18.02,12.43l-5.33,1.14c-2.82.6-5.65.9-8.47.9Zm-35.15-22.67c.36,0,.7.19.88.52,8.23,14.94,25.63,22.88,42.32,19.3l5.33-1.14c6.95-1.49,12.9-5.6,16.76-11.56,3.86-5.97,5.16-13.08,3.67-20.03l-6.69-31.17c-3.08-14.34-17.26-23.51-31.59-20.43l-6.72,1.44c-18.23,3.91-30.95,20.87-29.58,39.45.04.5-.3.95-.79,1.05-3.32.72-6.16,2.82-7.8,5.76-1.53,2.74-1.89,5.91-1.03,8.93.86,3.02,2.84,5.52,5.59,7.04,2.87,1.6,6.19,1.92,9.34.89.1-.03.21-.05.31-.05Z"/>
    </g>
    <path class="cls-1" d="m170.52,64.62c-1.44,0-2.88-.23-4.28-.7-7.02-2.36-10.82-9.98-8.46-17.01h0c1.14-3.4,3.54-6.15,6.75-7.75,3.21-1.6,6.85-1.85,10.26-.71,7.02,2.36,10.82,9.98,8.46,17.01-1.14,3.4-3.54,6.16-6.75,7.75-1.89.94-3.92,1.41-5.97,1.41Zm-10.85-17.07c-2,5.98,1.23,12.47,7.2,14.47,2.89.97,5.99.76,8.73-.6,2.73-1.36,4.77-3.7,5.74-6.6,2-5.98-1.23-12.47-7.2-14.47-2.89-.97-5.99-.76-8.73.6-2.73,1.36-4.77,3.7-5.74,6.6h0Z"/>
    <path class="cls-1" d="m141.72,67.44c-1.44,0-2.88-.23-4.28-.7-3.4-1.14-6.16-3.54-7.75-6.75-1.6-3.21-1.85-6.85-.71-10.26h0c1.14-3.4,3.54-6.15,6.75-7.75,3.21-1.6,6.85-1.85,10.26-.71,3.4,1.14,6.15,3.54,7.75,6.75,1.6,3.21,1.85,6.85.71,10.26-1.14,3.4-3.54,6.16-6.75,7.75-1.89.94-3.92,1.41-5.97,1.41Zm-.02-24.88c-1.74,0-3.48.4-5.08,1.2-2.73,1.36-4.77,3.7-5.74,6.6h0c-.97,2.89-.76,6,.6,8.73,1.36,2.73,3.7,4.77,6.6,5.74,2.89.97,5.99.76,8.73-.6,2.73-1.36,4.77-3.7,5.74-6.6.97-2.89.76-5.99-.6-8.73-1.36-2.73-3.7-4.77-6.6-5.74-1.19-.4-2.42-.6-3.65-.6Zm-11.77,7.48h0,0Z"/>
    <path class="cls-1" d="m111.1,55.99c-.49,0-.92-.36-.99-.86-.08-.55.3-1.05.85-1.13l18.29-2.62c.54-.07,1.05.3,1.13.85.08.55-.3,1.05-.85,1.13l-18.29,2.62s-.1,0-.14,0Z"/>
    <path class="cls-1" d="m154.08,51.33c-.46,0-.88-.32-.98-.79-.11-.54.23-1.07.77-1.19l4.39-.93c.54-.11,1.07.23,1.19.77.11.54-.23,1.07-.77,1.19l-4.39.93c-.07.01-.14.02-.21.02Z"/>
    <path class="cls-3" d="m139.78,53.93c.28,2.06,1.57,3.58,2.88,3.4,1.31-.18,2.14-1.99,1.86-4.05-.28-2.06-1.57-3.58-2.88-3.4-1.31.18-2.14,1.99-1.86,4.04Z"/>
    <path class="cls-3" d="m161.41,51.26c.28,2.06,1.57,3.58,2.88,3.4,1.31-.18,2.14-1.99,1.86-4.05s-1.57-3.58-2.88-3.4c-1.31.18-2.14,1.99-1.86,4.05Z"/>
    <path class="cls-3" d="m157.93,72.22c-2.1,0-4.48-.75-6.31-3.16-.33-.44-.25-1.07.19-1.4.44-.34,1.07-.25,1.4.19,3.06,4.01,7.63,1.77,7.82,1.67.49-.25,1.09-.05,1.34.44.25.49.05,1.09-.44,1.34-.93.47-2.39.91-4,.91Z"/>
    <path class="cls-3" d="m133.26,40.74c-.24,0-.48-.09-.68-.26-.41-.37-.43-1.01-.06-1.41,4.87-5.31,12.91-3.8,13.25-3.74.54.11.89.63.79,1.17-.11.54-.63.9-1.17.79-.07-.01-7.29-1.35-11.39,3.13-.2.21-.47.32-.74.32Z"/>
    <path class="cls-3" d="m160.48,37.98c-.3,0-.61-.14-.8-.4-.33-.44-.24-1.07.2-1.4.23-.18,5.82-4.29,12.63-1.62.51.2.77.78.57,1.3-.2.51-.78.77-1.3.57-5.75-2.25-10.5,1.21-10.7,1.36-.18.13-.39.2-.6.2Z"/>
    <path class="cls-3" d="m107.58,66.53c-.53,0-.97-.42-1-.95,0-.06-.31-5.71-3.52-8.47-1.36-1.17-3.09-1.65-5.14-1.44-.56.04-1.04-.34-1.1-.89-.06-.55.34-1.04.89-1.1,2.62-.27,4.86.38,6.66,1.92,3.86,3.32,4.19,9.62,4.21,9.88.03.55-.4,1.02-.95,1.04-.02,0-.03,0-.05,0Z"/>
    <path class="cls-3" d="m112.55,16.16c-.48,0-.9-.34-.98-.82-.97-5.39,4.7-8.94,4.94-9.09.47-.29,1.08-.14,1.37.33.29.47.14,1.09-.33,1.38-.05.03-4.75,2.99-4.02,7.03.1.54-.26,1.06-.81,1.16-.06.01-.12.02-.18.02Z"/>
    <path class="cls-3" d="m111.89,13.83c-.44,0-.84-.29-.96-.73-.54-1.9-2.05-1.88-2.22-1.87-.56.03-1.02-.39-1.06-.93-.04-.55.37-1.02.91-1.06,1.13-.09,3.48.48,4.29,3.31.15.53-.16,1.08-.69,1.24-.09.03-.18.04-.27.04Z"/>
    <path class="cls-3" d="m122.21,30.73c0-8.91,4.01-17,10.54-23l-16.56,3.55c-14.62,3.14-23.92,17.53-20.79,32.15l1.29,6.02c3.02-.74,6.31-.41,9.24,1.22,5.51,3.06,7.84,9.6,5.82,15.35,3.31-.59,5.57-3.71,5.07-7.05l-1.3-8.7,1.82-1.9c2.82-2.93,4.47-6.79,4.65-10.86l.24-5.45c-.02-.45-.04-.9-.04-1.36Z"/>
    <circle class="cls-3" cx="138.26" cy="12.73" r="12.08" transform="translate(103.63 147.19) rotate(-80.82)"/>
    <circle class="cls-3" cx="125.35" cy="22.92" r="12.82"/>
    <g>
      <g>
        <path class="cls-2" d="m180.37,212.55l-.1-47.12-1.03-19.44c-.46-8.76,2.52-17.36,8.32-23.95l16.6-18.87c1.47-1.67,3.8-2.28,5.9-1.55h0c3.23,1.12,4.65,4.91,2.95,7.88l-8.72,15.24,23.46,6.41,27.41-10.8c2.53-1,5.42-.02,6.82,2.32h0c.86,1.44.35,3.31-1.12,4.12l-49.15,26.86,18.77,58.92h-50.1Z"/>
        <path class="cls-3" d="m230.47,213.55c-.42,0-.82-.27-.95-.7l-18.77-58.92c-.15-.46.05-.95.47-1.18l49.15-26.86c.47-.26.81-.68.95-1.2.14-.52.07-1.06-.21-1.52-1.15-1.93-3.51-2.73-5.59-1.9l-27.41,10.8c-.2.08-.42.09-.63.03l-23.46-6.41c-.3-.08-.54-.3-.66-.58-.12-.29-.1-.61.06-.88l8.72-15.23c.66-1.16.77-2.54.31-3.78-.47-1.25-1.46-2.21-2.72-2.65-1.72-.6-3.62-.1-4.82,1.27l-16.6,18.87c-5.66,6.43-8.52,14.68-8.07,23.24l1.03,19.44.1,47.17c0,.55-.45,1-1,1h0c-.55,0-1-.45-1-1l-.1-47.12-1.03-19.39c-.48-9.08,2.56-17.84,8.57-24.66l16.6-18.87c1.75-1.98,4.49-2.7,6.98-1.84,1.82.63,3.26,2.03,3.93,3.84.68,1.81.51,3.8-.44,5.48l-8.08,14.11,21.89,5.98,27.1-10.68c3-1.18,6.38-.03,8.04,2.74.56.93.71,2.02.42,3.07-.29,1.05-.97,1.91-1.92,2.43l-48.42,26.46,18.52,58.14c.17.53-.12,1.09-.65,1.26-.1.03-.2.05-.3.05Z"/>
      </g>
      <g>
        <path class="cls-2" d="m240.25,131.79l10.57-18.54c.98-1.71-.4-3.81-2.36-3.6h0c-2.5.27-4.77,1.57-6.27,3.6l-12.95,16.56,11.01,1.99Z"/>
        <path class="cls-3" d="m240.25,132.8c-.17,0-.34-.04-.49-.13-.48-.27-.65-.88-.37-1.36l10.57-18.54c.27-.47.25-1.03-.05-1.48-.3-.45-.8-.69-1.34-.63-2.22.24-4.25,1.4-5.57,3.2l-12.97,16.58c-.34.43-.97.51-1.4.17-.44-.34-.51-.97-.17-1.4l12.95-16.56c1.64-2.22,4.18-3.68,6.95-3.98,1.28-.14,2.52.45,3.23,1.53.71,1.08.75,2.45.11,3.57l-10.57,18.54c-.18.32-.52.5-.87.5Z"/>
      </g>
      <g>
        <path class="cls-2" d="m203.26,142.29l16.13-8.56,8.82-18.13c1.2-2.47,3.62-4.13,6.37-4.36h0c1.77-.15,3.13,1.56,2.58,3.25l-7.58,23.56-26.33,4.23Z"/>
        <path class="cls-3" d="m203.26,143.29c-.36,0-.71-.19-.88-.53-.26-.49-.07-1.09.41-1.35l15.85-8.4,8.68-17.84c1.35-2.78,4.1-4.66,7.18-4.92,1.16-.11,2.3.39,3.03,1.31.73.92.95,2.13.59,3.24l-7.58,23.56c-.17.53-.73.81-1.26.65-.53-.17-.81-.73-.65-1.26l7.58-23.56c.16-.48.06-.99-.25-1.39-.32-.4-.79-.6-1.3-.56-2.38.2-4.51,1.65-5.55,3.8l-8.82,18.13c-.09.19-.24.35-.43.45l-16.13,8.56c-.15.08-.31.12-.47.12Z"/>
      </g>
    </g>
    <g>
      <g>
        <g>
          <path class="cls-2" d="m88.02,156.37l-27.43-96.74c.39-.85.76-1.71,1.07-2.61,2.06-6.02,2.8-12.41,2.18-18.74l-1.15-11.84c-.19-1.94-2.45-2.99-3.98-1.79-2.34,1.82-3.82,4.53-4.09,7.48l-1.06,11.57-4.68-7.46-14.56-23.17c-1.36-2.17-4.28-2.77-6.39-1.26-1.81,1.28-2.31,3.76-1.35,5.76l.7,1.46-4.11-5.63c-1.32-1.81-3.78-2.51-5.77-1.48-2.3,1.2-3.08,4.02-1.84,6.19l10.97,19.34-10.41-14.23c-1.51-2.07-4.46-2.46-6.47-.81-1.71,1.41-2.04,3.91-.94,5.84l8.47,14.93-10.61-7.7c-1.76-1.28-4.02-1.16-5.06.26-.95,1.31-.53,3.29.97,4.6l18.05,15.87c-.02.27,2.54,4.6,5.53,9.55,1.73,2.86,4.17,5.02,6.94,6.44l16.93,106.41c3.05,19.17,26.59,26.75,40.26,12.96l-2.17-35.19Z"/>
          <path class="cls-3" d="m73.54,199.64c-2.57,0-5.18-.41-7.76-1.24-9.04-2.91-15.34-10.25-16.83-19.64l-16.86-105.92c-2.84-1.55-5.22-3.81-6.88-6.57-3.89-6.43-5.13-8.6-5.52-9.47L1.81,41.08c-1.89-1.66-2.37-4.22-1.11-5.94.68-.94,1.75-1.49,3.01-1.55,1.18-.05,2.4.32,3.44,1.07l6.87,4.99-6.19-10.91c-1.38-2.42-.88-5.41,1.18-7.11,1.18-.97,2.66-1.4,4.17-1.21,1.49.19,2.85.99,3.74,2.2l.18.24-2.42-4.27c-.74-1.3-.91-2.81-.49-4.25.42-1.44,1.4-2.62,2.74-3.32,2.37-1.24,5.4-.47,7.04,1.77l1.22,1.67c.24-1.39.99-2.67,2.16-3.5,1.25-.88,2.75-1.21,4.25-.91,1.47.29,2.77,1.19,3.57,2.46l17.67,28.13.79-8.62c.29-3.21,1.92-6.19,4.47-8.17.99-.77,2.28-.93,3.45-.43,1.19.51,2.01,1.63,2.14,2.92l1.15,11.84c.64,6.52-.11,12.96-2.23,19.16-.25.74-.56,1.51-.95,2.37l27.33,96.39c.15.53-.16,1.08-.69,1.23-.53.16-1.08-.16-1.23-.69l-27.43-96.75c-.07-.23-.05-.48.06-.69.43-.92.76-1.74,1.03-2.51,2.02-5.93,2.74-12.09,2.13-18.32l-1.15-11.84c-.06-.57-.41-1.04-.94-1.27-.24-.1-.85-.29-1.44.17-2.11,1.64-3.46,4.11-3.7,6.78l-1.06,11.57c-.04.43-.35.78-.76.88-.42.1-.85-.08-1.08-.44l-19.24-30.63c-.51-.82-1.32-1.37-2.27-1.56-.95-.19-1.91.02-2.7.58-1.36.96-1.8,2.91-1.03,4.52l.7,1.46c.22.47.05,1.02-.39,1.29-.44.26-1.02.15-1.32-.27l-4.11-5.62c-1.06-1.46-3-1.96-4.5-1.18-.86.45-1.48,1.2-1.75,2.11-.27.91-.16,1.87.31,2.7l10.97,19.34c.26.46.12,1.05-.33,1.33-.44.29-1.04.18-1.35-.25l-10.4-14.23c-.57-.78-1.41-1.28-2.37-1.4-.96-.12-1.9.15-2.65.77-1.28,1.06-1.59,3.02-.71,4.58l8.47,14.93c.23.41.15.92-.2,1.24-.35.31-.87.34-1.25.06l-10.61-7.7c-.67-.49-1.44-.74-2.16-.69-.65.03-1.18.29-1.5.73-.64.89-.29,2.29.82,3.27l18.05,15.87c.16.14.27.33.32.53.15.34.99,1.94,5.41,9.25,1.56,2.58,3.82,4.68,6.54,6.06.28.15.48.42.53.73l16.93,106.42c1.37,8.62,7.15,15.37,15.47,18.05,8.31,2.67,16.94.57,23.09-5.63.39-.39,1.02-.4,1.41,0,.39.39.4,1.02,0,1.41-4.78,4.82-10.93,7.37-17.36,7.37Z"/>
        </g>
        <path class="cls-3" d="m36.74,34.77c-.33,0-.66-.17-.85-.47l-10.18-16.21c-.29-.47-.15-1.08.31-1.38.47-.29,1.08-.15,1.38.31l10.18,16.21c.29.47.15,1.08-.31,1.38-.17.1-.35.15-.53.15Z"/>
        <path class="cls-3" d="m44.62,63.91c-.36,0-.71-.2-.89-.54-.22-.43-5.37-10.66.39-20.95.27-.48.88-.65,1.36-.38.48.27.65.88.38,1.36-5.22,9.33-.4,18.96-.35,19.06.25.49.06,1.09-.43,1.35-.15.08-.3.11-.46.11Z"/>
        <path class="cls-3" d="m22.18,50.29c-.13,0-.26-.02-.38-.08-.51-.21-.75-.8-.54-1.31,4.21-10.16,20.39-14.95,21.08-15.15.53-.15,1.08.15,1.24.68.15.53-.15,1.08-.68,1.24-.16.05-15.95,4.72-19.79,13.99-.16.38-.53.62-.92.62Z"/>
      </g>
      <g>
        <path class="cls-2" d="m46.13,142.98l33.94-11.91-33.94,11.91Z"/>
        <path class="cls-3" d="m46.13,143.98c-.41,0-.8-.26-.94-.67-.18-.52.09-1.09.61-1.27l33.94-11.91c.52-.19,1.09.09,1.27.61.18.52-.09,1.09-.61,1.27l-33.94,11.91c-.11.04-.22.06-.33.06Z"/>
      </g>
    </g>
  </g>
  <path class="cls-4" d="m90.66,190l-2.58-32.46s-1.45.57-1.95-1.86-6.38-23.5-6.38-23.5l-34.66,11.75s5.54,39.35,8.56,42.71c2.43,3.61,10.91,15.73,28.95,9.36"/>
</svg>