<?xml version="1.0" encoding="UTF-8"?>
<svg id="_Layer_" data-name="&amp;lt;Layer&amp;gt;" xmlns="http://www.w3.org/2000/svg" viewBox="0 0 297.43 213.57">
  <defs>
    <style>
      .cls-1 {
        fill: #f1cf25;
      }

      .cls-2 {
        fill: #fff;
      }

      .cls-3 {
        fill: #080717;
      }

      .cls-4 {
        fill: #85bac6;
      }
    </style>
  </defs>
  <g>
    <path class="cls-3" d="m217.07,66c-8.63,7.12-21.4,5.89-28.52-2.74-7.12-8.63-5.89-21.4,2.74-28.52,8.63-7.12,21.4-5.89,28.52,2.74s5.89,21.4-2.74,28.52Z"/>
    <circle class="cls-3" cx="191.23" cy="78.79" r="20.26" transform="translate(-11.41 37.37) rotate(-10.84)"/>
    <circle class="cls-3" cx="251.29" cy="67.47" r="23.43" transform="translate(7.41 158.15) rotate(-35.43)"/>
    <path class="cls-3" d="m264.74,73.95c-3.82,0-7.61-1.64-10.23-4.81-2.25-2.73-3.3-6.17-2.96-9.69.34-3.52,2.03-6.7,4.76-8.95,5.63-4.64,13.99-3.84,18.64,1.79,4.64,5.63,3.84,13.99-1.79,18.64h0c-2.46,2.03-5.44,3.02-8.41,3.02Zm-.02-24.69c-2.57,0-5.15.86-7.28,2.61-2.36,1.95-3.82,4.7-4.12,7.74-.29,3.05.62,6.03,2.57,8.39,4.02,4.88,11.26,5.57,16.13,1.55h0c4.88-4.02,5.57-11.26,1.55-16.13-2.26-2.74-5.55-4.16-8.85-4.16Zm7.87,20.98h0,0Z"/>
    <circle class="cls-3" cx="243" cy="31.43" r="31.43"/>
    <g>
      <path class="cls-2" d="m251.99,52.12c-1.14-1.31-2.57-2.23-4.11-2.75h.01c-7.6-6.54-6.91-11.36-2.94-17.35,5.08-7.68,5.89-17.42,1.81-25.68l-.66-1.34c-9.56-3.21-20.51-1.59-28.86,5.3l-11.02,9.08c-8.59,7.09-9.82,19.8-2.73,28.39l1.95,2.36-4.48,27.11-4.07,20.51,33.14-1.5,5.49-36.67c.23,1.68.9,3.33,2.06,4.73,3.36,4.08,9.42,4.61,13.45,1.14,3.89-3.35,4.33-9.44.97-13.32Z"/>
      <path class="cls-3" d="m196.89,98.63c-.26,0-.5-.11-.67-.31-.18-.21-.25-.49-.2-.75l4.07-20.51,4.41-26.68-1.69-2.05c-3.58-4.34-5.25-9.81-4.71-15.41.54-5.6,3.23-10.65,7.57-14.23l11.02-9.08c8.33-6.86,19.43-8.9,29.71-5.46.22.08.41.24.52.45l.66,1.34c4.14,8.39,3.43,18.57-1.87,26.57-3.76,5.68-4.44,9.93,2.68,16.09,1.66.6,3.15,1.62,4.29,2.94h0c1.78,2.06,2.65,4.73,2.45,7.51-.2,2.78-1.45,5.29-3.51,7.07-2.12,1.83-4.83,2.71-7.62,2.47-2.79-.24-5.31-1.56-7.09-3.72-.39-.48-.74-.99-1.04-1.52l-4.94,33.03c-.06.42-.41.74-.84.76l-33.14,1.5s-.03,0-.04,0ZM236.37,4.28c-6.69,0-13.23,2.3-18.57,6.69l-11.02,9.08c-3.97,3.28-6.43,7.9-6.93,13.03-.49,5.13,1.04,10.14,4.32,14.11l1.95,2.36c.16.2.23.46.19.71l-4.48,27.11-3.85,19.42,31.27-1.42,5.38-35.95c.07-.44.44-.76.88-.76h0c.44,0,.82.33.88.77.21,1.58.86,3.07,1.87,4.29,1.48,1.79,3.56,2.88,5.87,3.08,2.31.19,4.55-.53,6.31-2.05,1.7-1.46,2.73-3.54,2.9-5.85.17-2.31-.55-4.52-2.02-6.22h0c-.99-1.14-2.27-2-3.72-2.49-.16-.05-.3-.15-.4-.28-8-6.93-6.98-12.37-2.99-18.41,4.95-7.47,5.62-16.98,1.76-24.8l-.5-1c-3-.96-6.06-1.44-9.1-1.44Z"/>
    </g>
    <path class="cls-3" d="m229.37,23.42c-1.33,1.28-1.66,3.1-.74,4.06.92.96,2.75.69,4.08-.59,1.33-1.28,1.66-3.1.74-4.06-.92-.96-2.75-.69-4.09.59Z"/>
    <path class="cls-3" d="m217.04,37.95c-1.39,0-2.68-.25-3.52-.89-2.91-2.21-2.73-5.03.67-10.41.13-.21.35-.36.6-.4.25-.04.5.02.7.17,2.41,1.88,8.09,6.44,8.63,8.05.11.32.24,1.13-.82,1.89-1.15.82-3.84,1.58-6.25,1.58Zm-1.87-9.51c-2.89,4.85-2.02,6.1-.58,7.2.73.55,2.58.68,4.62.32,1.71-.3,2.77-.8,3.12-1.09-.66-1-3.98-3.9-7.16-6.42Z"/>
    <path class="cls-3" d="m239.43,27.22c-.48,0-.87-.38-.89-.86-.05-1.51-.65-3.16-1.71-4.64-1.28-1.8-3.05-3.07-4.72-3.38-.48-.09-.8-.56-.71-1.04.09-.48.56-.8,1.04-.71,2.11.4,4.29,1.94,5.83,4.1,1.25,1.76,1.98,3.76,2.04,5.62.02.49-.37.9-.86.92,0,0-.02,0-.03,0Z"/>
    <path class="cls-3" d="m216.89,12.21c-1.25,1.36-1.48,3.2-.5,4.1.98.9,2.79.53,4.04-.83s1.48-3.2.5-4.1-2.79-.53-4.04.83Z"/>
    <path class="cls-3" d="m220.68,57.42c-4.38,0-11.06-1.09-16.01-6.83-.32-.37-.28-.93.09-1.25.37-.32.93-.28,1.25.09,7.13,8.26,18.68,5.86,18.79,5.84.48-.1.95.2,1.06.68.1.48-.2.95-.68,1.06-.19.04-1.96.41-4.52.41Z"/>
    <path class="cls-3" d="m249.62,56.96c-.26,0-.51-.11-.69-.32-.71-.87-1.72-1.4-2.84-1.51-1.12-.11-2.21.23-3.08.94-.38.31-.94.26-1.25-.12-.31-.38-.26-.94.12-1.25,1.23-1.02,2.79-1.49,4.38-1.34,1.59.15,3.03.92,4.05,2.15.31.38.26.94-.12,1.25-.17.14-.37.2-.57.2Z"/>
    <path class="cls-3" d="m216.27,22.03c-.4,0-.64-.02-.65-.02-.49-.05-.84-.48-.8-.97.05-.49.47-.84.97-.8.26.03,6.42.53,8.98-4.79.85-1.77,1.03-3.35.54-4.68-.72-1.91-2.63-2.76-2.65-2.77-.45-.19-.66-.71-.47-1.17.19-.45.71-.66,1.16-.47.11.04,2.62,1.13,3.62,3.76.68,1.81.49,3.86-.59,6.1-2.57,5.34-8.19,5.81-10.1,5.81Z"/>
    <circle class="cls-3" cx="227.81" cy="80.38" r="20.26" transform="translate(-13.67 87.13) rotate(-21.04)"/>
  </g>
  <g>
    <g>
      <polygon class="cls-2" points="70.57 21.53 186.83 65.55 156.8 171.75 2.27 113.95 70.57 21.53"/>
      <path d="m157.75,173.63L0,114.63,70.06,19.82l118.49,44.86-30.8,108.95ZM4.54,113.28l151.31,56.59,29.25-103.46L71.07,23.25,4.54,113.28Z"/>
    </g>
    <path d="m156.8,173.18c-.17,0-.34-.03-.51-.09l-38.61-14.7c-.42-.16-.74-.51-.86-.94s-.04-.89.23-1.25l68.63-91.51c.41-.55,1.16-.72,1.77-.42.62.3.93,1,.74,1.67l-30.02,106.2c-.11.38-.37.71-.73.89-.2.1-.42.15-.64.15Zm-36.33-16.78l35.38,13.47,27.52-97.33-62.9,83.87Z"/>
    <path d="m109.03,39.11c-.29,0-.58-.09-.84-.27-.64-.46-.78-1.35-.32-1.99.93-1.28,1.58-2.71,1.94-4.26,1.48-6.33-2.46-12.68-8.77-14.15-3.06-.71-6.21-.19-8.88,1.47-2.67,1.66-4.53,4.27-5.25,7.34-.76,3.25-.1,6.69,1.81,9.43.45.65.29,1.53-.36,1.98-.65.45-1.53.29-1.98-.35-2.37-3.4-3.19-7.67-2.24-11.71.89-3.81,3.2-7.04,6.52-9.11,3.32-2.07,7.24-2.71,11.03-1.83,7.84,1.83,12.73,9.72,10.89,17.58-.45,1.92-1.26,3.7-2.41,5.29-.28.38-.71.59-1.15.59Z"/>
    <path d="m170.87,63.28c-.29,0-.58-.09-.84-.27-.64-.46-.78-1.35-.32-1.99.93-1.28,1.58-2.71,1.94-4.26.72-3.07.2-6.23-1.46-8.9-1.66-2.67-4.25-4.54-7.31-5.25-6.31-1.47-12.65,2.48-14.13,8.81-.76,3.25-.1,6.69,1.81,9.43.45.65.29,1.53-.36,1.98-.65.45-1.53.29-1.98-.36-2.37-3.4-3.19-7.67-2.24-11.71,1.84-7.86,9.71-12.77,17.55-10.94,3.8.89,7.03,3.21,9.08,6.53,2.06,3.32,2.7,7.25,1.81,11.05-.45,1.92-1.26,3.7-2.41,5.29-.28.38-.71.59-1.15.59Z"/>
    <g>
      <polygon class="cls-1" points="71.85 52.41 61.3 48.57 52.35 60.6 62.86 64.49 71.85 52.41"/>
      <polygon class="cls-1" points="86.58 57.69 76.02 53.85 67.08 65.88 77.59 69.77 86.58 57.69"/>
      <polygon class="cls-1" points="101.31 62.97 90.75 59.13 81.8 71.16 92.32 75.05 101.31 62.97"/>
      <polygon class="cls-1" points="116.03 68.25 105.48 64.41 96.53 76.44 107.04 80.33 116.03 68.25"/>
      <polygon class="cls-1" points="130.76 73.53 120.2 69.69 111.26 81.72 121.77 85.61 130.76 73.53"/>
      <polygon class="cls-1" points="145.49 78.81 134.93 74.97 125.98 87 136.5 90.89 145.49 78.81"/>
      <polygon class="cls-1" points="160.21 84.09 149.66 80.25 140.71 92.28 151.22 96.17 160.21 84.09"/>
    </g>
    <g>
      <polygon class="cls-1" points="59.69 68.38 49.13 64.55 40.18 76.58 50.7 80.47 59.69 68.38"/>
      <polygon class="cls-1" points="74.41 73.66 63.86 69.83 54.91 81.86 65.42 85.75 74.41 73.66"/>
      <polygon class="cls-1" points="89.14 78.94 78.58 75.11 69.64 87.14 80.15 91.03 89.14 78.94"/>
      <polygon class="cls-1" points="103.87 84.22 93.31 80.39 84.36 92.42 94.88 96.31 103.87 84.22"/>
      <polygon class="cls-1" points="118.59 89.5 108.04 85.67 99.09 97.7 109.6 101.59 118.59 89.5"/>
      <polygon class="cls-1" points="133.32 94.78 122.76 90.95 113.82 102.98 124.33 106.87 133.32 94.78"/>
      <polygon class="cls-1" points="148.05 100.06 137.49 96.23 128.54 108.26 139.06 112.15 148.05 100.06"/>
    </g>
    <g>
      <polygon class="cls-1" points="47.52 84.36 36.96 80.53 28.02 92.55 38.53 96.45 47.52 84.36"/>
      <polygon class="cls-1" points="62.25 89.64 51.69 85.8 42.74 97.83 53.26 101.73 62.25 89.64"/>
      <polygon class="cls-1" points="76.97 94.92 66.42 91.08 57.47 103.11 67.98 107.01 76.97 94.92"/>
      <polygon class="cls-1" points="91.7 100.2 81.14 96.36 72.2 108.39 82.71 112.29 91.7 100.2"/>
      <polygon class="cls-1" points="106.43 105.48 95.87 101.64 86.92 113.67 97.44 117.57 106.43 105.48"/>
      <polygon class="cls-1" points="121.15 110.76 110.6 106.92 101.65 118.95 112.17 122.85 121.15 110.76"/>
      <polygon class="cls-1" points="135.88 116.04 125.33 112.2 116.38 124.23 126.89 128.13 135.88 116.04"/>
    </g>
    <g>
      <polygon class="cls-1" points="35.35 100.34 24.8 96.5 15.85 108.53 26.36 112.42 35.35 100.34"/>
      <polygon class="cls-1" points="50.08 105.62 39.52 101.78 30.58 113.81 41.09 117.7 50.08 105.62"/>
      <polygon class="cls-1" points="64.81 110.9 54.25 107.06 45.3 119.09 55.82 122.98 64.81 110.9"/>
      <polygon class="cls-1" points="79.53 116.18 68.98 112.34 60.03 124.37 70.55 128.26 79.53 116.18"/>
      <polygon class="cls-1" points="94.26 121.46 83.71 117.62 74.76 129.65 85.27 133.54 94.26 121.46"/>
      <polygon class="cls-1" points="108.99 126.74 98.43 122.9 89.49 134.93 100 138.82 108.99 126.74"/>
      <polygon class="cls-1" points="123.71 132.02 113.16 128.18 104.21 140.21 114.73 144.1 123.71 132.02"/>
    </g>
  </g>
  <g>
    <path class="cls-4" d="m146.86,212.53l20.95-78.39c.09-.35,0-.72-.25-.98-.2-.21-.47-.32-.75-.32-.07,0-.14,0-.21.02l-8.31,1.77c-6.56,1.4-13.29,2.1-20,2.1-9.14,0-18.23-1.3-27-3.87l-4.03-1.18-5.16-26.46,27.07-3.3c.09-.01.18-.03.27-.07l77.92-31.82c3.51-1.24,7.21-1.87,10.95-1.87,12.5,0,24.15,7.25,29.66,18.48,3.66,7.44,4.38,15.91,2.05,23.87l-17.23,28.47c-11.48,18.98-16.49,40.68-14.48,62.77l.98,10.79h-72.41Z"/>
    <path class="cls-3" d="m218.29,67.13v2.07c12.11,0,23.39,7.03,28.73,17.9,3.52,7.17,4.24,15.32,2.02,22.99l-17.16,28.36c-11.6,19.16-16.65,41.09-14.63,63.39l.88,9.67h-69.93l20.6-77.1c.19-.69,0-1.44-.5-1.96-.39-.42-.94-.64-1.5-.64-.14,0-.29.01-.43.05l-8.31,1.77c-6.49,1.38-13.15,2.08-19.79,2.08-9.04,0-18.03-1.29-26.71-3.83l-3.43-1-4.83-24.76,25.97-3.17c.18-.02.36-.07.53-.14l77.87-31.8c3.43-1.21,7-1.82,10.61-1.82v-2.07h0Zm0,0c-3.77,0-7.6.63-11.34,1.95l-77.92,31.82-28.17,3.44,5.5,28.17,4.64,1.36c8.9,2.6,18.09,3.91,27.29,3.91,6.77,0,13.55-.71,20.22-2.13l8.31-1.77-21.3,79.7h74.89l-1.08-11.92c-1.97-21.71,3.05-43.48,14.34-62.14l17.3-28.59c2.44-8.22,1.7-17.05-2.08-24.74h0c-5.87-11.95-17.92-19.06-30.59-19.06h0Z"/>
  </g>
  <g>
    <path class="cls-2" d="m200.47,124.94l-34.35,7.56,34.35-7.56Z"/>
    <path class="cls-3" d="m166.12,133.53c-.47,0-.9-.33-1.01-.81-.12-.56.23-1.11.79-1.23l34.35-7.56c.56-.12,1.11.23,1.23.79.12.56-.23,1.11-.79,1.23l-34.35,7.56c-.08.02-.15.02-.22.02Z"/>
  </g>
  <g>
    <path class="cls-2" d="m37.36,133.27l-14.93,7.31c-2.3,1.13-3.58,3.65-3.11,6.18l.76,4.11,28.5-15-11.22-2.6Z"/>
    <path class="cls-3" d="m20.08,151.9c-.15,0-.31-.04-.45-.1-.3-.14-.5-.42-.56-.74l-.76-4.11c-.55-2.97.96-5.97,3.67-7.29l14.93-7.31c.21-.1.46-.13.69-.08l11.22,2.6c.42.1.74.45.79.87.06.43-.16.84-.54,1.05l-28.5,15c-.15.08-.32.12-.48.12Zm17.41-17.55l-14.6,7.15c-1.88.92-2.93,3-2.55,5.06l.5,2.73,24.8-13.05-8.16-1.89Z"/>
  </g>
  <g>
    <path class="cls-2" d="m21.43,111.65l.35.37c1.57,1.17,3.44,1.87,5.4,2.03l9.23.76c1.97.16,2.24,2.93.34,3.48l-13.55,3.87-11.5-3.27,3.53,10.3,20.64,6.57c6.69,2.13,14,.34,18.95-4.63l10.73-10.77,52.07,14.46-2.33-31.06-84.8,2.23-7.25.8c-2.37.26-3.43,3.11-1.81,4.86Z"/>
    <path class="cls-3" d="m41.58,137.68c-2.01,0-4.04-.31-6.03-.94l-20.64-6.57c-.31-.1-.56-.34-.66-.65l-3.53-10.3c-.12-.36-.04-.77.23-1.05s.66-.39,1.03-.28l11.21,3.19,13.26-3.78c.55-.16.55-.64.53-.79-.01-.14-.1-.62-.68-.67l-9.23-.76c-2.15-.18-4.2-.95-5.93-2.24-.05-.04-.1-.08-.14-.13l-.35-.37c-1.02-1.1-1.33-2.65-.8-4.05.52-1.4,1.77-2.37,3.26-2.54l7.25-.8,84.89-2.24c.56-.06,1.02.41,1.06.96l2.33,31.06c.02.33-.11.66-.38.88-.26.21-.61.29-.93.2l-51.49-14.3-10.3,10.34c-3.78,3.79-8.81,5.82-13.97,5.82Zm-25.54-9.32l20.14,6.41c6.35,2.02,13.21.34,17.91-4.37l10.73-10.77c.26-.26.65-.37,1.01-.27l50.65,14.07-2.15-28.61-83.82,2.2-7.17.79c-.72.08-1.29.53-1.55,1.21-.25.68-.11,1.39.38,1.92h0l.28.3c1.4,1.02,3.06,1.64,4.79,1.78l9.23.76c1.38.11,2.43,1.15,2.56,2.52.14,1.37-.7,2.6-2.02,2.97l-13.55,3.87c-.18.05-.38.05-.57,0l-9.6-2.73,2.72,7.94Z"/>
  </g>
  <g>
    <path class="cls-2" d="m32.86,131.54l-17.38-2.14,17.38,2.14Z"/>
    <path class="cls-3" d="m32.86,132.57s-.09,0-.13,0l-17.38-2.14c-.57-.07-.97-.58-.9-1.15.07-.57.6-.96,1.15-.9l17.38,2.14c.57.07.97.58.9,1.15-.06.52-.51.91-1.02.91Z"/>
  </g>
  <circle class="cls-3" cx="269.9" cy="94.25" r="23.43" transform="translate(-4.45 174.65) rotate(-35.58)"/>
  <path class="cls-3" d="m273.16,117.32c-.79,0-1.58-.04-2.37-.11-6.47-.62-12.3-3.73-16.44-8.74-8.53-10.35-7.05-25.71,3.29-34.24,10.35-8.53,25.71-7.05,34.24,3.29,8.53,10.35,7.05,25.71-3.29,34.24h0c-4.4,3.62-9.8,5.56-15.43,5.56Zm-.06-46.86c-5.05,0-10.13,1.68-14.32,5.14-9.59,7.91-10.96,22.14-3.05,31.73,3.83,4.65,9.24,7.52,15.23,8.1,5.99.58,11.85-1.21,16.5-5.05,9.59-7.91,10.96-22.14,3.05-31.73-4.45-5.4-10.91-8.19-17.41-8.19Zm14.93,40.61h0,0Z"/>
  <path class="cls-3" d="m236.2,213.57s.69-25.42-14.02-46.79c-.26-.39-.41-.61-.41-.61l-61.28-8.67-14.98,56.07h90.69Z"/>
</svg>