<?xml version="1.0" encoding="UTF-8"?>
<svg id="_Layer_" data-name="&amp;lt;Layer&amp;gt;" xmlns="http://www.w3.org/2000/svg" xmlns:xlink="http://www.w3.org/1999/xlink" viewBox="0 0 216.32 225.5">
  <defs>
    <style>
      .cls-1, .cls-2, .cls-3, .cls-4, .cls-5, .cls-6, .cls-7, .cls-8 {
        fill: none;
      }

      .cls-9 {
        clip-path: url(#clippath);
      }

      .cls-10 {
        fill: #f1cf25;
      }

      .cls-11, .cls-12 {
        fill: #fff;
      }

      .cls-13 {
        fill: #85bac6;
      }

      .cls-2 {
        stroke: #282d33;
      }

      .cls-2, .cls-12, .cls-3, .cls-4, .cls-5, .cls-6, .cls-7, .cls-8 {
        stroke-width: 2px;
      }

      .cls-12, .cls-3, .cls-4, .cls-5, .cls-6, .cls-8 {
        stroke-linecap: round;
        stroke-linejoin: round;
      }

      .cls-12, .cls-3, .cls-8 {
        stroke: #000;
      }

      .cls-4 {
        stroke: #fff;
      }

      .cls-5, .cls-7 {
        stroke: #080717;
      }

      .cls-6 {
        stroke: #85bac6;
      }

      .cls-7 {
        stroke-miterlimit: 10;
      }

      .cls-8 {
        stroke-dasharray: 0 0 2.06 4.12;
      }
    </style>
    <clipPath id="clippath">
      <path class="cls-1" d="m50.79,25.14s-.09,0-.14,0v14.26s.09,0,.14,0c7.63,0,13.82,6.19,13.82,13.82,0,.14-.02.28-.02.42h14.26c0-.14.01-.28.01-.42,0-15.5-12.57-28.07-28.07-28.07Z"/>
    </clipPath>
  </defs>
  <path class="cls-11" d="m163.28,167.62s-9.31,1.66-12.97-2-44.56-48.05-44.56-48.05c0,0-8.15-5.65-14.47-3.82s-10.31,6.15-11.64,9.14c-1.33,2.99-10.81,34.42-10.81,34.42l-28.43,20.62s-9.48,11.64-1.33,18.95c8.15,7.32,11.64,5.49,11.64,5.49h95.61s15.13-12.47,16.63-18.29c1.5-5.82.33-16.46.33-16.46Z"/>
  <path class="cls-13" d="m61.19,62.29c-2.53,2.9-6.24,4.75-10.4,4.75-7.63,0-13.82-6.19-13.82-13.82,0-6.63,4.66-12.16,10.89-13.5v-14.42c-14.13,1.47-25.14,13.41-25.14,27.92,0,15.5,12.57,28.07,28.07,28.07,8.09,0,15.38-3.42,20.5-8.9l-10.1-10.1Z"/>
  <path class="cls-10" d="m55.54,153.33l18.83-14.49s2.77-9.42,6.78-17.43c2.33-4.66,8.86-7.43,8.86-7.43l-9.19-16.18-25.61,20.62s3.99,24.94.33,34.92Z"/>
  <path class="cls-10" d="m78.84,123.16l.31-24.36s16.78-8.07,26.62-8.93c9.84-.87,30.69-1.74,44.01,2.61,13.32,4.34,36.77,38.22,36.77,38.22l-28.66,11.87,10.13,25.19s-11.87,3.76-18.53-2.03c-6.66-5.79-35.03-39.96-35.03-39.96,0,0-18.53-24.32-35.61-2.61Z"/>
  <circle cx="132.69" cy="54.83" r="18.82"/>
  <circle cx="117.02" cy="41.47" r="9.51" transform="translate(-6.96 47.94) rotate(-22.5)"/>
  <g>
    <g class="cls-9">
      <g>
        <g>
          <line class="cls-2" x1="42.69" y1="33.24" x2="61.13" y2="14.81"/>
          <line class="cls-2" x1="46.19" y1="36.74" x2="64.62" y2="18.3"/>
          <line class="cls-2" x1="49.68" y1="40.23" x2="68.12" y2="21.8"/>
          <line class="cls-2" x1="53.18" y1="43.73" x2="71.61" y2="25.29"/>
          <line class="cls-2" x1="56.67" y1="47.22" x2="75.11" y2="28.79"/>
          <line class="cls-2" x1="60.17" y1="50.72" x2="78.6" y2="32.28"/>
        </g>
        <g>
          <line class="cls-2" x1="60.23" y1="50.78" x2="78.67" y2="32.35"/>
          <line class="cls-2" x1="63.73" y1="54.28" x2="82.16" y2="35.84"/>
          <line class="cls-2" x1="67.22" y1="57.77" x2="85.66" y2="39.34"/>
          <line class="cls-2" x1="70.72" y1="61.27" x2="89.16" y2="42.83"/>
          <line class="cls-2" x1="74.22" y1="64.76" x2="92.65" y2="46.33"/>
          <line class="cls-2" x1="77.71" y1="68.26" x2="96.15" y2="49.82"/>
        </g>
      </g>
    </g>
    <path class="cls-2" d="m64.18,56.56c-1.5,6.01-6.92,10.47-13.39,10.47-7.63,0-13.82-6.19-13.82-13.82,0-6.63,4.66-12.16,10.89-13.5v-14.42c-14.13,1.47-25.14,13.41-25.14,27.92,0,15.5,12.57,28.07,28.07,28.07,14.37,0,26.21-10.8,27.87-24.72h-14.47Z"/>
    <path class="cls-2" d="m64.18,56.56c-1.5,6.01-6.92,10.47-13.39,10.47-7.63,0-13.82-6.19-13.82-13.82,0-6.63,4.66-12.16,10.89-13.5v-14.42c-14.13,1.47-25.14,13.41-25.14,27.92,0,15.5,12.57,28.07,28.07,28.07,14.37,0,26.21-10.8,27.87-24.72h-14.47Z"/>
    <line class="cls-2" x1="60.91" y1="62.85" x2="71.18" y2="73.11"/>
  </g>
  <path class="cls-13" d="m142.98,14.21v-4.37l-2.61-.65c-.19-.64-.44-1.24-.75-1.82l1.38-2.3-3.09-3.09-2.3,1.38c-.57-.31-1.18-.56-1.82-.75l-.65-2.61h-4.37l-.65,2.61c-.63.19-1.24.44-1.82.75l-2.3-1.38-3.09,3.09,1.38,2.3c-.31.57-.56,1.18-.75,1.82l-2.61.65v4.37l2.61.65c.19.63.44,1.24.75,1.82l-1.38,2.3,3.09,3.09,2.3-1.38c.57.31,1.18.56,1.82.75l.65,2.61h4.37l.65-2.61c.63-.19,1.24-.44,1.82-.75l2.3,1.38,3.09-3.09-1.38-2.3c.31-.57.56-1.18.75-1.82l2.61-.65Zm-12.02,1.09c-1.81,0-3.28-1.47-3.28-3.28s1.47-3.28,3.28-3.28,3.28,1.47,3.28,3.28-1.47,3.28-3.28,3.28Z"/>
  <g>
    <line class="cls-7" x1="192.21" y1="66" x2="200.95" y2="66"/>
    <line class="cls-7" x1="196.58" y1="62.72" x2="196.58" y2="53.97"/>
    <line class="cls-7" x1="194.4" y1="53.97" x2="198.77" y2="53.97"/>
    <path class="cls-7" d="m205.32,51.79c0-4.83-3.91-8.74-8.74-8.74s-8.74,3.91-8.74,8.74c0,3.67,2.26,6.8,5.46,8.1v2.83h6.56v-2.83c3.2-1.3,5.47-4.43,5.47-8.1Z"/>
  </g>
  <path class="cls-5" d="m151.51,167.75l-44.73-48.79c-8.48-9.25-23.78-5.93-27.67,6l-16.78,51.48,33.01,13.9,12.16-44.01"/>
  <g>
    <path class="cls-11" d="m76.27,185.47l9.32,15.68-38.62,22.95c-3.24,1.93-7.25-3.6-6.05-8.19l18.12-24.71s9.07,6.99,17.23-5.72Z"/>
    <path class="cls-10" d="m76.52,185.89l6.66,11.2-38.62,22.95c-3.24,1.93-5.77-1.09-4.07-4.87l18.28-23.81s8.61,5.58,17.76-5.47Z"/>
    <path class="cls-3" d="m76.27,185.47l9.32,15.68-38.62,22.95c-3.24,1.93-7.25-3.6-6.05-8.19l18.12-24.71s9.07,6.99,17.23-5.72Z"/>
  </g>
  <line class="cls-3" x1="59.04" y1="191.2" x2="64.16" y2="178.32"/>
  <line class="cls-3" x1="76.27" y1="185.47" x2="77.39" y2="183.09"/>
  <g>
    <path class="cls-11" d="m133.85,188.59l5.14-13.31,41.08,18.18c3.45,1.53,1.27,8-3.17,9.68l-30.64-.45s1.78-9.46-12.4-14.09Z"/>
    <path class="cls-10" d="m133.27,188.88l3.8-9.28,41.08,18.18c3.45,1.53,2.45,5.33-1.61,6.14l-30-1.11s.62-9.31-13.28-13.94Z"/>
    <path class="cls-3" d="m133.27,188.88l5.72-13.6,41.08,18.18c3.45,1.53,1.27,8-3.17,9.68l-30.64-.45s2.65-8.3-12.98-13.8Z"/>
  </g>
  <line class="cls-3" x1="146.74" y1="202.7" x2="84.05" y2="202.62"/>
  <line class="cls-3" x1="122.27" y1="185.7" x2="133.56" y2="188.88"/>
  <path class="cls-3" d="m68.42,156.46l-26.9,20.88c-10.25,8.3-4.38,24.86,8.8,24.86"/>
  <polyline class="cls-3" points="100.27 174.99 121.98 178.46 121.98 201.33"/>
  <path class="cls-3" d="m163.67,169.78s2.03,11-1.74,15.35"/>
  <path d="m130.03,81.41s10.21,4.62,17.5,2.92c7.29-1.7,20.17-7.78,8.26-25.03-11.91-17.25-17.5-15.79-24.06-18.22-6.56-2.43-18.71-10.21-20.65-5.1-1.94,5.1,1.46,11.18,2.92,13.61,1.46,2.43,16.04,31.83,16.04,31.83Z"/>
  <path class="cls-12" d="m143.4,97.69s-3.89-6.32-6.07-11.42c-2.19-5.1-3.16-16.04-3.16-16.04,0,0,5.99-2.67,8.18-5.35,2.19-2.67,2.22-9.04-1.86-9.23-3.48-.16-5.75,4.44-6.07,4.37-4.05-.81-2.11-11.66-12.64-12.39-7.29-.5-10.45-4.86-10.45-4.86,0,0-7.09,23.33-7.29,28.92-.29,8.04,12.16,6.59,12.16,6.59l.29,14.19s2.32,15.63,26.91,5.22Z"/>
  <path class="cls-5" d="m122.64,60.01c-2.03.83-4.51.43-6.17-1.01"/>
  <path class="cls-5" d="m111.23,56.26c-1.42.29-2.99-.27-3.91-1.39"/>
  <path class="cls-5" d="m121.93,53.55c-.87-.56-1.89-.88-2.92-.94"/>
  <path class="cls-5" d="m113.18,51.13c-.58-.45-2.28-1-3.2-.82"/>
  <path class="cls-5" d="m111.93,59.54c-.91,1.52-2.38,3.7-2.99,4.55.62.75,1.51,1.27,2.46,1.45"/>
  <path class="cls-5" d="m118.42,70.91c-.84,1.75-3.07,2.69-4.91,2.06"/>
  <path class="cls-5" d="m121.97,76.14c-3.52,2.11-8.9,2.9-12.84,1.76"/>
  <path class="cls-6" d="m135.14,67.97c-1.13.11-2.21.71-2.9,1.73-1.23,1.82-.75,4.29,1.07,5.52s4.29.75,5.52-1.07.75-4.29-1.07-5.52"/>
  <line class="cls-4" x1="159.4" y1="143.91" x2="153.41" y2="127.51"/>
  <path class="cls-11" d="m55.37,102.08c0-.08-.79-8.4-9.08-9.43-7.67-.96-12.48-3.66-15.6-8.74-1.5-2.45-2.82-3.65-4.01-3.65h0c-.71,0-1.17.45-1.34.74-.05.09-1.23,2.36-.68,5.63.19,1.11.59,2.42,1.4,3.84-3.48-1.97-5.93-3.61-6.98-4.68-2.12-2.16-6.96-3.78-8.68-2.43-.46.36-.82,1.01-.54,2.14-.08-.08-.18-.15-.31-.16-.07,0-1.79-.18-2.89.79-.56.5-.86,1.19-.87,2.05-.02,1.26,1.56,3.73,4.18,6.52-2.19-.35-5.89-.81-7.18-.17-1.88.94-2.25,3.59-2.27,3.71-.03.25.12.49.37.55l22,5.79c1.19.63,2.4,1.2,3.64,1.7.06.01,5.79,1.3,6.58,13.01.79,11.66-.07,13.62-.1,13.68-.07.12-.09.25-.05.38.03.13.12.24.24.31.26.15,5.1,2.84,14.11,2.84,2.82,0,6.05-.26,9.68-.96.25-.05.42-.27.41-.52l-2-32.93Z"/>
  <g>
    <path class="cls-5" d="m56.87,135.04l-2-32.92s-.67-7.98-8.65-8.98c-7.98-1-12.8-3.82-15.96-8.98s-4.49-2.93-4.49-2.93c0,0-4.63,8.69,8.83,16.45"/>
    <path class="cls-5" d="m31.15,102.32s-16.35-9.34-20.01-15.16c-3.66-5.82,4.66-3.99,7.56-1.02,1.82,1.86,6.9,4.68,8.73,5.68"/>
    <path class="cls-5" d="m9.48,85.83s-3.16-.33-3.21,2.36c-.05,2.58,9.19,13.11,20.33,17.6,0,0,6.15,1.16,6.98,13.47.83,12.3-.17,13.97-.17,13.97"/>
    <path class="cls-5" d="m11.48,95.47s-6.82-1.33-8.48-.5c-1.66.83-2,3.33-2,3.33l22.11,5.82"/>
  </g>
  <path class="cls-10" d="m30.6,129.06s23.94,2,26.94,1.33c2.99-.67,2.99,18.29.33,21.28s-28.6,13.97-27.27-22.61Z"/>
  <line class="cls-4" x1="57.2" y1="145.02" x2="56.87" y2="131.72"/>
  <path class="cls-11" d="m215.82,88.09c-.02-.16-.27-1.52-2.96-2.28.65-.73,1.76-2.24,1.64-3.33-.04-.41-.26-.74-.61-.92-.73-.39-1.54-.54-2.38-.54.03-.03.07-.07.09-.11.03-.05.69-1.33.06-2.42-.46-.81-1.46-1.25-2.98-1.31-3.97-.12-10.09,4.83-10.77,5.4l-8.91,4.14c.43-.78,1.02-1.95,1.68-3.59,1.21-2.99-1.35-5.03-2.87-5.69-.23-.1-.5-.01-.63.2l-5.67,9.56-5.3,7.15c-2.96,3.99-4.33,8.9-3.87,13.84l2.12,22.87c.01.13.08.26.18.34.09.07.2.11.32.11.02,0,.04,0,.06,0l25.05-2.78c.15-.02.28-.1.36-.22.08-.12.1-.28.06-.42l-6.44-21.01c1.42-.92,7.34-4.77,12.39-8.38,4.39-3.14,6.76-5.83,6.69-7.59,0-.16-.04-.32-.09-.46l2.57-2.12c.13-.11.2-.28.18-.45Z"/>
  <g>
    <path class="cls-5" d="m174.98,131.03l-2.12-22.87c-.45-4.81.9-9.62,3.77-13.5l5.3-7.15,5.7-9.61s3.95,1.71,2.6,5.04c-1.34,3.33-2.38,4.71-2.38,4.71,0,0,2.14,5.1-4.4,12.39"/>
    <path class="cls-5" d="m188.89,87.32l9.31-4.32s6.48-5.49,10.48-5.32c3.99.17,2.49,2.99,2.49,2.99"/>
    <path class="cls-5" d="m194.21,90.82l7.65-4.66s7.48-6.48,11.81-4.16c1.18.64-.91,3.32-1.5,3.82"/>
    <path class="cls-5" d="m196.87,93.64l7.81-4.16s4.58-3.98,7.53-3.32c2.95.66,3.11,1.99,3.11,1.99l-2.83,2.33"/>
    <path class="cls-5" d="m199.53,96.3s4.82-2.16,6.82-3.33c2-1.16,4.22-3.66,5.77-2.74,1.55.91-.11,3.91-5.93,8.06-5.82,4.16-12.69,8.57-12.69,8.57l6.55,21.37"/>
  </g>
  <path class="cls-10" d="m172.48,131.05l30.15-3.1s4.43,17.29,3.99,24.39-10.42,19.07-25.27,14.41c-6.76-2.12-21.73-24.83-21.73-24.83l12.86-10.86Z"/>
  <line class="cls-4" x1="177.74" y1="148.76" x2="174.98" y2="131.52"/>
  <g>
    <path class="cls-3" d="m151.53,15.35c.32.09.64.19.96.28"/>
    <path class="cls-8" d="m156.41,16.91c9.79,3.46,18.22,8.49,24.58,14.68"/>
    <path class="cls-3" d="m182.43,33.05c.23.24.46.49.68.73"/>
  </g>
  <g>
    <path class="cls-3" d="m76.94,29.66c.26-.21.52-.42.78-.63"/>
    <path class="cls-8" d="m81,26.53c8.41-6.1,17.33-10.17,26.04-11.89"/>
    <path class="cls-3" d="m109.06,14.29c.33-.05.66-.1.99-.14"/>
  </g>
</svg>