<?xml version="1.0" encoding="UTF-8"?>
<svg id="_Layer_" data-name="&amp;lt;Layer&amp;gt;" xmlns="http://www.w3.org/2000/svg" viewBox="0 0 287.3 221.19">
  <defs>
    <style>
      .cls-1 {
        fill: #f1cf25;
      }

      .cls-2 {
        fill: #fff;
      }

      .cls-3 {
        fill: #080717;
      }

      .cls-4 {
        fill: #85bac6;
      }
    </style>
  </defs>
  <g>
    <path class="cls-3" d="m142.68,152.93s20.89,1.15,20.89,0V63.49c0-29.91,6.62-53.57,6.62-53.57h-24.82l-2.69,143Z"/>
    <g>
      <rect class="cls-2" x="28.54" y="1" width="127.8" height="150.93"/>
      <path class="cls-3" d="m155.34,2v148.93H29.54V2h125.8Zm2-2H27.54v152.93h129.8V0h0Z"/>
    </g>
    <path class="cls-3" d="m59.07,43.9c-.32,0-.62-.15-.82-.42l-16.88-23.84v23.26c0,.55-.45,1-1,1s-1-.45-1-1v-26.4c0-.44.28-.82.7-.95.42-.13.87.02,1.12.38l16.88,23.84v-23.26c0-.55.45-1,1-1s1,.45,1,1v26.4c0,.44-.28.82-.7.95-.1.03-.2.05-.3.05Z"/>
    <path class="cls-3" d="m79.6,43.9h-8.78c-.55,0-1-.45-1-1v-26.4c0-.55.45-1,1-1h8.78c.55,0,1,.45,1,1s-.45,1-1,1h-7.78v24.4h7.78c.55,0,1,.45,1,1s-.45,1-1,1Z"/>
    <path class="cls-3" d="m79.6,31.07h-8.23c-.55,0-1-.45-1-1s.45-1,1-1h8.23c.55,0,1,.45,1,1s-.45,1-1,1Z"/>
    <path class="cls-3" d="m111.87,42.43c-.42,0-.81-.27-.95-.68l-7.47-22.01-7.13,21.64c-.14.42-.55.73-.98.69-.44-.01-.83-.32-.93-.75l-6.23-24.47c-.14-.54.19-1.08.72-1.22.53-.14,1.08.19,1.22.72l5.39,21.15,6.99-21.22c.13-.41.52-.68.95-.69h0c.43,0,.81.27.95.68l7.18,21.15,3.72-21.01c.1-.54.61-.91,1.16-.81.54.1.91.62.81,1.16l-4.4,24.84c-.08.45-.45.79-.91.82-.03,0-.05,0-.08,0Z"/>
    <rect class="cls-1" x="41.84" y="56.65" width="43.45" height="52.8"/>
    <path class="cls-3" d="m88.58,123.65h-48.4c-.55,0-1-.45-1-1s.45-1,1-1h48.4c.55,0,1,.45,1,1s-.45,1-1,1Z"/>
    <path class="cls-3" d="m143.58,123.65h-48.4c-.55,0-1-.45-1-1s.45-1,1-1h48.4c.55,0,1,.45,1,1s-.45,1-1,1Z"/>
    <path class="cls-3" d="m88.58,136.85h-48.4c-.55,0-1-.45-1-1s.45-1,1-1h48.4c.55,0,1,.45,1,1s-.45,1-1,1Z"/>
    <path class="cls-3" d="m143.58,136.85h-48.4c-.55,0-1-.45-1-1s.45-1,1-1h48.4c.55,0,1,.45,1,1s-.45,1-1,1Z"/>
    <path class="cls-3" d="m143.58,110.45h-48.4c-.55,0-1-.45-1-1s.45-1,1-1h48.4c.55,0,1,.45,1,1s-.45,1-1,1Z"/>
    <path class="cls-3" d="m143.58,97.25h-48.4c-.55,0-1-.45-1-1s.45-1,1-1h48.4c.55,0,1,.45,1,1s-.45,1-1,1Z"/>
    <path class="cls-3" d="m143.58,84.05h-48.4c-.55,0-1-.45-1-1s.45-1,1-1h48.4c.55,0,1,.45,1,1s-.45,1-1,1Z"/>
    <path class="cls-3" d="m143.58,70.85h-48.4c-.55,0-1-.45-1-1s.45-1,1-1h48.4c.55,0,1,.45,1,1s-.45,1-1,1Z"/>
    <path class="cls-3" d="m143.58,57.65h-48.4c-.55,0-1-.45-1-1s.45-1,1-1h48.4c.55,0,1,.45,1,1s-.45,1-1,1Z"/>
    <path class="cls-3" d="m134.83,42.24h-2.97c-4.01,0-7.28-3.27-7.28-7.28,0-.55.45-1,1-1s1,.45,1,1c0,2.91,2.37,5.28,5.28,5.28h2.97c2.91,0,5.28-2.37,5.28-5.28s-2.37-5.28-5.28-5.28h-2.97c-4.01,0-7.28-3.27-7.28-7.28s3.27-7.28,7.28-7.28h2.97c4.01,0,7.28,3.27,7.28,7.28,0,.55-.45,1-1,1s-1-.45-1-1c0-2.91-2.37-5.28-5.28-5.28h-2.97c-2.91,0-5.28,2.37-5.28,5.28s2.37,5.28,5.28,5.28h2.97c4.01,0,7.28,3.26,7.28,7.28s-3.27,7.28-7.28,7.28Z"/>
  </g>
  <g>
    <path class="cls-2" d="m47.83,216.83l3.79-64.82.18-.3c4.3-7.19,5.85-15.7,4.36-23.95l-2.08-11.53c-.42-2.35-3.34-3.21-4.97-1.48l-.23.25c-1.46,1.55-2.4,3.52-2.68,5.63l-1.39,10.44-3.63-1.05-8.52-16.84.46-10.93c.08-1.93-.68-3.81-2.08-5.14l-.32-.3c-1.18-1.11-3.11-.61-3.59.94l-1.69,5.44-1.39-2.24c-1.1-1.78-3.8-1.36-4.31.67l-1.84,7.25-1.58-2.08c-1.25-1.65-3.88-.88-4.05,1.19l-.56,7.13-1.46-2.47c-.76-1.29-2.01-2.22-3.47-2.57-1.89-.46-3.89.1-5.27,1.48l-.49.49,20.81,44.59L3.76,216.83h44.07Z"/>
    <path class="cls-3" d="m3.49,217.83c-.1,0-.19-.01-.29-.04-.53-.16-.83-.72-.67-1.25l18.21-59.83L.09,112.46c-.18-.38-.1-.83.2-1.13l.49-.49c1.61-1.62,3.99-2.29,6.22-1.75,1.62.39,3.04,1.41,3.95,2.8l.32-4c.11-1.36,1.02-2.48,2.33-2.87,1.31-.39,2.69.07,3.51,1.16l.32.43,1.33-5.24c.34-1.33,1.39-2.29,2.75-2.5,1.36-.21,2.66.39,3.38,1.55l.23.38,1.04-3.35c.33-1.06,1.17-1.86,2.24-2.14,1.07-.28,2.19,0,3,.77l.32.3c1.62,1.53,2.49,3.68,2.39,5.91l-.45,10.67,8.21,16.22,2.09.61,1.24-9.29c.31-2.33,1.33-4.47,2.94-6.18l.23-.25c1.02-1.08,2.53-1.49,3.95-1.06,1.42.42,2.47,1.59,2.73,3.05l2.08,11.53c1.53,8.49-.06,17.24-4.49,24.64l-.06.09-1.81,23.08-2.4,41.49c-.03.55-.5.97-1.06.94-.55-.03-.97-.5-.94-1.06l2.4-41.51,1.83-23.33c.01-.15.06-.3.14-.43l.18-.3c4.18-6.99,5.68-15.25,4.24-23.26l-2.08-11.53c-.13-.72-.63-1.28-1.33-1.49-.7-.21-1.42-.02-1.93.52l-.23.25c-1.32,1.4-2.16,3.16-2.42,5.07l-1.39,10.44c-.04.29-.2.55-.44.71-.24.16-.54.2-.82.12l-3.63-1.05c-.27-.08-.49-.26-.61-.51l-8.52-16.84c-.08-.15-.11-.32-.11-.49l.46-10.93c.07-1.64-.58-3.24-1.77-4.37l-.32-.3c-.3-.29-.71-.4-1.12-.29-.4.11-.71.4-.83.79l-1.69,5.44c-.12.37-.44.65-.83.7-.39.04-.77-.13-.98-.46l-1.39-2.24c-.3-.48-.82-.72-1.38-.63-.56.09-.98.47-1.12,1.02l-1.84,7.25c-.09.37-.39.66-.77.73-.38.08-.76-.07-1-.38l-1.58-2.08c-.49-.64-1.16-.5-1.35-.45-.19.06-.84.31-.9,1.11l-.57,7.13c-.03.43-.35.8-.77.9-.42.1-.86-.09-1.09-.46l-1.46-2.47c-.62-1.05-1.66-1.82-2.85-2.11-1.54-.38-3.2.09-4.32,1.21l20.52,43.96c.1.22.12.48.05.71l-18.32,60.19c-.13.43-.53.71-.96.71Z"/>
    <path class="cls-3" d="m25.45,124.29c-.41,0-.8-.26-.94-.67l-2.27-6.5c-.05-.16-.07-.33-.04-.49l2.24-13.59c.09-.54.6-.92,1.15-.82.55.09.91.6.82,1.15l-2.2,13.34,2.19,6.26c.18.52-.09,1.09-.61,1.27-.11.04-.22.06-.33.06Z"/>
    <path class="cls-3" d="m16.61,125.29s-.06,0-.08,0c-.55-.05-.96-.53-.91-1.08l1.27-15.42c.05-.55.52-.96,1.08-.91.55.05.96.53.91,1.08l-1.27,15.42c-.04.52-.48.92-1,.92Z"/>
    <path class="cls-3" d="m10.88,127.88s-.05,0-.07,0c-.55-.04-.97-.52-.93-1.07l.81-11.77c.04-.55.51-.96,1.07-.93.55.04.97.52.93,1.07l-.81,11.77c-.04.53-.48.93-1,.93Z"/>
  </g>
  <g>
    <path class="cls-2" d="m148.92,207.07l-4.5-103.61-.18-.3c-4.3-7.19-5.85-15.7-4.36-23.95l2.08-11.53c.42-2.35,3.34-3.21,4.97-1.48l.23.25c1.46,1.55,2.4,3.52,2.68,5.63l1.39,10.44,3.63-1.05,8.52-16.84-.46-10.93c-.08-1.93.68-3.81,2.08-5.14l.32-.3c1.18-1.11,3.11-.61,3.59.94l1.69,5.44,1.39-2.24c1.1-1.78,3.8-1.36,4.31.67l1.84,7.25,1.58-2.08c1.25-1.65,3.88-.88,4.05,1.19l.56,7.13,1.46-2.47c.76-1.29,2.01-2.22,3.47-2.57,1.89-.46,3.89.1,5.27,1.48l.49.49-20.81,44.59,12.83,55.54-38.13,43.45Z"/>
    <path class="cls-3" d="m148.04,196.99c-.55,0-1-.44-1-.99l-.22-38.11-1.56-31.07-1.81-23.05-.06-.1c-4.42-7.4-6.02-16.15-4.49-24.64l2.08-11.53c.26-1.46,1.31-2.63,2.73-3.05,1.42-.42,2.93-.01,3.95,1.06l.23.25c1.62,1.71,2.63,3.85,2.95,6.18l1.24,9.29,2.09-.61,8.21-16.22-.45-10.67c-.09-2.22.78-4.37,2.39-5.9l.32-.3c.8-.76,1.93-1.05,3-.77,1.07.28,1.91,1.08,2.24,2.14l1.04,3.35.23-.38c.73-1.17,2.02-1.77,3.38-1.55,1.36.21,2.41,1.17,2.75,2.5l1.33,5.24.32-.43c.82-1.09,2.2-1.54,3.51-1.16,1.31.38,2.22,1.51,2.33,2.87l.32,4c.91-1.39,2.33-2.4,3.95-2.8,2.22-.54,4.6.13,6.21,1.75l.49.49c.3.3.38.75.2,1.13l-20.67,44.3,3.17,15.61,8.69,32.9c.14.53-.18,1.08-.71,1.22-.53.14-1.08-.18-1.22-.71l-8.7-32.95-3.25-15.99c-.04-.21-.02-.43.07-.62l20.52-43.96c-1.12-1.12-2.77-1.59-4.32-1.21-1.19.29-2.22,1.06-2.85,2.11l-1.46,2.47c-.22.38-.66.56-1.09.46-.42-.1-.74-.46-.77-.9l-.57-7.13c-.06-.8-.7-1.05-.9-1.11-.2-.06-.87-.19-1.35.45l-1.58,2.08c-.23.31-.62.45-1,.38-.38-.08-.68-.36-.77-.73l-1.84-7.25c-.14-.55-.56-.93-1.12-1.02s-1.08.15-1.38.63l-1.39,2.24c-.21.33-.59.51-.98.46-.39-.05-.71-.32-.83-.7l-1.69-5.44c-.12-.4-.43-.69-.83-.79-.41-.11-.81,0-1.11.29l-.32.3c-1.2,1.13-1.84,2.72-1.77,4.37l.46,10.93c0,.17-.03.34-.11.49l-8.52,16.84c-.13.25-.35.43-.61.51l-3.63,1.05c-.28.08-.58.04-.83-.12-.24-.16-.41-.42-.44-.7l-1.39-10.44c-.26-1.92-1.09-3.67-2.42-5.07l-.23-.25c-.5-.53-1.23-.73-1.93-.52-.7.21-1.2.76-1.33,1.49l-2.08,11.53c-1.45,8.01.06,16.27,4.23,23.26l.18.3c.08.13.13.28.14.43l1.83,23.31,1.56,31.14.23,38.15c0,.55-.44,1-.99,1.01h0Z"/>
    <path class="cls-3" d="m170.59,75.73c-.11,0-.22-.02-.33-.06-.52-.18-.8-.75-.61-1.27l2.19-6.26-2.2-13.33c-.09-.54.28-1.06.82-1.15.55-.1,1.06.28,1.15.82l2.24,13.59c.03.16.01.33-.04.49l-2.27,6.51c-.14.41-.53.67-.94.67Z"/>
    <path class="cls-3" d="m179.43,76.74c-.52,0-.95-.4-1-.92l-1.27-15.42c-.04-.55.36-1.03.92-1.08.56-.03,1.03.36,1.08.92l1.27,15.42c.04.55-.36,1.03-.92,1.08-.03,0-.06,0-.08,0Z"/>
    <path class="cls-3" d="m185.16,79.33c-.52,0-.96-.4-1-.93l-.81-11.77c-.04-.55.38-1.03.93-1.07.55-.03,1.03.38,1.07.93l.81,11.77c.04.55-.38,1.03-.93,1.07-.02,0-.05,0-.07,0Z"/>
  </g>
  <ellipse class="cls-3" cx="214.93" cy="79.15" rx="15.12" ry="18.26" transform="translate(131.72 292.54) rotate(-88.91)"/>
  <g>
    <polygon class="cls-2" points="243.6 179.02 207.87 164.04 207.73 127.82 241.35 127.69 243.6 179.02"/>
    <path class="cls-3" d="m243.6,180.02c-.13,0-.26-.03-.39-.08l-35.73-14.99c-.37-.16-.61-.52-.61-.92l-.14-36.21c0-.27.1-.52.29-.71.19-.19.44-.29.71-.3l33.62-.13h0c.54,0,.98.42,1,.96l2.25,51.33c.01.34-.15.67-.43.86-.17.12-.37.18-.57.18Zm-34.73-16.65l33.66,14.12-2.14-48.79-31.66.12.13,34.55Z"/>
  </g>
  <g>
    <path class="cls-2" d="m218.34,142.55c8.03,1.13,16.59-.76,23.81-5.93,14.6-10.46,17.89-30.18,8.08-44.54-16.09-23.56-39.38-12.22-43.14-8.48-.88.88-1.73,1.72-2.57,2.54-1.56,1.2-2.98,2.51-4.27,3.91-3.17,2.64-6.04,4.25-8.78,3.92-4.2-.5-17.01,29.97,4.9,37.97,0,0,9.44,4.95,18.07,2.73l3.9,7.89Z"/>
    <path class="cls-3" d="m222.9,143.87c-1.56,0-3.13-.11-4.69-.33-.55-.08-.93-.58-.85-1.13.08-.54.57-.93,1.13-.85,8.12,1.14,16.32-.9,23.09-5.76,14.05-10.07,17.49-29.03,7.84-43.16-5.77-8.45-13.01-13.15-21.52-13.95-9.94-.93-18.32,3.86-20.08,5.61-.88.88-1.74,1.73-2.57,2.54-.03.03-.06.05-.09.08-1.5,1.15-2.89,2.43-4.14,3.79-.03.03-.06.06-.1.09-3.84,3.2-6.77,4.48-9.54,4.15-1.07.08-4.96,5.75-6.14,14.17-.87,6.28-.54,17.47,11.5,21.87.04.01.08.03.12.05.09.05,9.21,4.74,17.35,2.64.53-.13,1.08.19,1.22.72.14.53-.18,1.08-.72,1.22-8.62,2.22-17.81-2.31-18.72-2.78-15.89-5.85-13.27-22.46-12.09-27.42,1.49-6.25,4.87-12.77,7.71-12.46,2.17.26,4.62-.87,7.97-3.66,1.31-1.42,2.75-2.74,4.3-3.94.82-.8,1.66-1.63,2.52-2.49,2.63-2.62,11.7-7.13,21.68-6.19,9.13.86,16.86,5.85,22.99,14.81,10.27,15.04,6.61,35.21-8.32,45.92-5.89,4.22-12.79,6.44-19.84,6.44Z"/>
  </g>
  <path class="cls-3" d="m246.57,76.27c-10.09-5.77-21.97-5.65-31.87-.77,3.04.79,6,1.95,8.83,3.57,19.16,10.96,24.68,37.32,12.35,58.88-.69,1.2-1.42,2.35-2.18,3.46,10.07-1.68,19.44-7.82,25.01-17.56,9.68-16.91,4.24-38.21-12.13-47.58Z"/>
  <path class="cls-3" d="m212.54,73.25s2.54,9.26,10.15,13.87c4.02,2.44-3.76,1.55-3.26,6.4,3.8,36.34,6.56,43.25,6.56,43.25.62,3.13,3.2,5.48,6.37,5.82l9.55,1,3.17-8.72,5.59-37.71s-19.08-28.68-38.13-23.92Z"/>
  <path class="cls-3" d="m191.21,110.65c-.63,0-1.3-.09-1.99-.34-.52-.18-.8-.75-.61-1.28.18-.52.75-.8,1.28-.61,2.17.76,4.26-.69,4.28-.7.45-.32,1.07-.21,1.39.24.32.45.22,1.07-.23,1.39-.09.07-1.84,1.3-4.11,1.3Z"/>
  <path class="cls-3" d="m212.82,94.11c-.19,0-.38-.05-.55-.16-.46-.3-.59-.92-.29-1.39.43-.65.49-2.3-.16-3.81-.38-.9-1.34-2.46-3.4-2.83-.54-.1-.9-.62-.81-1.16.1-.54.61-.9,1.16-.81,2.21.4,3.94,1.83,4.88,4.01.87,2.02.86,4.37-.01,5.69-.19.29-.51.45-.84.45Z"/>
  <path class="cls-3" d="m204.36,94.78c-.85.47-1.82.36-2.16-.25-.34-.61.08-1.49.93-1.96.85-.47,1.82-.36,2.16.25.34.61-.07,1.49-.93,1.96Z"/>
  <path class="cls-3" d="m220.71,90.3s-13.26,9.29-11.75,16.13c1.51,6.84,13.47,8.43,11.88,20.12-1.58,11.69-3.64,17.4-17.85,17.86-18.95.61-26.17,17.83-26.37,28.45-.2,10.63,48.79-14.61,48.79-14.61,0,0,16.95-16.85-4.71-67.96Z"/>
  <path class="cls-2" d="m210.2,118.38c-.1,5.16,4,9.42,9.16,9.52,5.16.1,9.42-4,9.52-9.16.1-5.16-4-9.42-9.16-9.52-5.16-.1-9.42,4-9.52,9.16Z"/>
  <path class="cls-3" d="m215.31,121.73h-.02c-.55-.01-.99-.47-.98-1.02.09-4.56,6.99-6.54,7.28-6.62.54-.15,1.08.16,1.23.69.15.53-.16,1.08-.69,1.23-1.6.45-5.77,2.18-5.82,4.73-.01.55-.46.98-1,.98Z"/>
  <circle class="cls-3" cx="262.03" cy="148.07" r="15.99" transform="translate(-22.41 49.69) rotate(-10.39)"/>
  <g>
    <path class="cls-4" d="m119.49,220.19c.22-1.02,26.28-38.69,40.82-61.56,5.38-8.46,15.46-12.65,25.26-10.51l51.92,11.38c10.18,2.23,17.4,11.29,17.31,21.71l-.58,38.98H119.49Z"/>
    <path class="cls-3" d="m119.49,221.19c-.07,0-.14,0-.21-.02-.54-.12-.88-.65-.77-1.19.12-.55,1.5-2.65,11.42-17.35,8.92-13.22,21.14-31.33,29.54-44.55,5.58-8.78,16.15-13.17,26.31-10.95l51.92,11.38c10.58,2.32,18.19,11.86,18.1,22.69l-.58,38.99c0,.55-.45.99-1,.99h-.01c-.55,0-.99-.46-.99-1.01l.58-38.98c.08-9.88-6.86-18.6-16.52-20.72l-51.92-11.38c-9.34-2.05-19.07,2-24.2,10.07-8.42,13.24-20.64,31.36-29.57,44.59-5.75,8.51-10.71,15.88-11.15,16.77-.14.4-.52.67-.94.67Z"/>
  </g>
  <path class="cls-3" d="m230.62,70.86c9.08-4.46,40.5,5.67,36.35,37.76-2.06,15.95-6.21,39.95-1.46,48.21,4.75,8.27,17.39,17.23,11,23.65-6.39,6.42-40.79,9.58-45.33,4.59s-19.76-21.36-1.49-50.72c18.27-29.36.3-44.42-1.59-45.55-1.89-1.13-10.8-11.4,2.52-17.94Z"/>
  <circle class="cls-3" cx="241.48" cy="167.62" r="27.06" transform="translate(-49.78 127.95) rotate(-27.01)"/>
  <circle class="cls-3" cx="262.12" cy="169.88" r="25.18" transform="translate(-49.36 146.43) rotate(-28.64)"/>
  <g>
    <path class="cls-3" d="m174.94,204.74l-7.84,15.45,7.84-15.45Z"/>
    <path class="cls-3" d="m167.1,221.19c-.15,0-.31-.03-.45-.11-.49-.25-.69-.85-.44-1.34l7.84-15.46c.25-.49.85-.69,1.34-.44.49.25.69.85.44,1.34l-7.84,15.45c-.18.35-.53.55-.89.55Z"/>
  </g>
</svg>