<?xml version="1.0" encoding="UTF-8"?>
<svg id="_Layer_" data-name="&amp;lt;Layer&amp;gt;" xmlns="http://www.w3.org/2000/svg" viewBox="0 0 184.97 174.96">
  <defs>
    <style>
      .cls-1 {
        fill: #f1cf25;
      }

      .cls-2, .cls-3 {
        fill: #fff;
      }

      .cls-4 {
        fill: #85bac6;
      }

      .cls-5 {
        stroke: #fff;
      }

      .cls-5, .cls-6, .cls-3, .cls-7, .cls-8 {
        stroke-width: 2px;
      }

      .cls-5, .cls-6, .cls-7, .cls-8 {
        fill: none;
      }

      .cls-6 {
        stroke: #85bac6;
      }

      .cls-3, .cls-7 {
        stroke: #000;
        stroke-linecap: round;
        stroke-linejoin: round;
      }

      .cls-8 {
        stroke: #080717;
        stroke-miterlimit: 10;
      }
    </style>
  </defs>
  <path class="cls-2" d="m70.05,93.36l-45.89,55.87s1.33,3.99,5.32,4.16c3.99.17,7.98-1.5,7.98-1.5l32.42-25.44.17-33.09Z"/>
  <polygon class="cls-2" points="86.34 104.66 107.96 104.66 89.5 81.38 83.02 98.68 86.34 104.66"/>
  <path class="cls-2" d="m78.69,51.29l-8.48,2.49s-6.98-18.29-10.14-21.78c-3.16-3.49-9.81-6.82-11.47-6.98-1.66-.17-2.99,1-2.33,1.66l2,2s-.83,1.16-6.32,1.16-5.49.33-5.65,1.33c-.17,1,.17,2.33.17,2.33l15.13,2.66s6.65,22.78,7.15,23.78c.5,1,4.16,6.82,13.3,4.32,9.14-2.49,7.81-7.98,7.81-7.98l-1.16-4.99Z"/>
  <path class="cls-2" d="m70.38,104.5l1.16-36.25s1.66-10.14,8.31-11.97c6.65-1.83,13.14-.33,17.62,4.66,4.49,4.99,36.08,31.76,36.08,31.76,0,0-.67,8.81-3.66,10.64-2.99,1.83-22.28,1.33-22.28,1.33l-18.46-22.95-6.32,17.79s-4.32,9.81-12.47,4.99Z"/>
  <path class="cls-2" d="m134.06,75.4l20.95,23.78-6.48,3.33s-1.5,2.16,5.49,2.83c6.98.67,24.94-1.16,24.94-1.16,0,0,1.33-2,1-2.83-.33-.83-18.95-5.99-18.95-5.99l-16.29-28.6-10.64,8.65Z"/>
  <path class="cls-7" d="m132.9,74.4l22.61,25.27-7.98,3.1s1.33,1.33,6.21,1.33h23.5s2.22.89,3.1-1.77-19.07-6.65-19.07-6.65l-16.41-28.38"/>
  <line class="cls-7" x1="78.47" y1="51.46" x2="70.05" y2="54.01"/>
  <path class="cls-7" d="m70.38,54.9s-6.21-18.62-10.64-23.5-11.97-6.21-11.97-6.21c0,0-3.44.44.89,3.55,1.8,1.29-8.42.89-8.42.89,0,0-5.54-.55-3.88,3.77.16.41,15.41,2.88,15.41,2.88l6.32,21.81c1.66,5.11,7.13,7.93,12.25,6.31l1.83-.51"/>
  <path class="cls-4" d="m79.91,56.45l-1.55-5.99s15.3-6.65,27.05-6.43,19.73.22,29.04,7.09c9.31,6.87,13.3,15.3,13.3,15.3l-14.85,9.75-7.09-8.87,7.54,23.06s-1.77,4.21-8.87-3.33-28.47-27.51-28.47-27.51c0,0-7.66-7.07-16.09-3.08Z"/>
  <g>
    <rect class="cls-3" x="82.88" y="105" width="101.09" height="68.97" rx="5.46" ry="5.46" transform="translate(266.85 278.96) rotate(-180)"/>
    <g>
      <rect class="cls-2" x="98.75" y="127.38" width="7.19" height="34.51"/>
      <rect class="cls-2" x="108.9" y="127.38" width="7.19" height="34.51"/>
      <rect class="cls-2" x="119.05" y="127.38" width="7.19" height="34.51"/>
      <rect class="cls-2" x="129.19" y="127.38" width="7.19" height="34.51"/>
      <rect class="cls-2" x="139.34" y="127.38" width="7.19" height="34.51"/>
      <rect class="cls-2" x="149.49" y="127.38" width="7.19" height="34.51"/>
      <rect class="cls-2" x="159.64" y="127.38" width="7.19" height="34.51"/>
      <rect class="cls-2" x="169.78" y="127.38" width="7.19" height="34.51"/>
    </g>
    <path d="m82.88,112.31v-1.85c0-3.02,2.45-5.46,5.46-5.46h90.17c3.02,0,5.46,2.45,5.46,5.46v1.85h-101.09Z"/>
    <rect class="cls-4" x="98.75" y="153.07" width="7.19" height="8.83"/>
    <rect class="cls-4" x="108.9" y="149.31" width="7.19" height="12.58"/>
    <rect class="cls-4" x="119.05" y="155.95" width="7.19" height="5.94"/>
    <rect class="cls-4" x="129.19" y="145.56" width="7.19" height="16.33"/>
    <rect class="cls-4" x="139.34" y="141.23" width="7.19" height="20.66"/>
    <rect class="cls-4" x="149.49" y="134.89" width="7.19" height="27.01"/>
    <rect class="cls-4" x="159.64" y="155.09" width="7.19" height="6.81"/>
    <rect class="cls-4" x="169.78" y="155.09" width="7.19" height="6.81"/>
    <line class="cls-6" x1="90.78" y1="118.63" x2="102.67" y2="118.63"/>
    <line class="cls-6" x1="90.78" y1="122.1" x2="123.7" y2="122.1"/>
    <line class="cls-6" x1="90.78" y1="160.48" x2="94.45" y2="160.48"/>
    <line class="cls-6" x1="90.78" y1="155.89" x2="94.45" y2="155.89"/>
    <line class="cls-6" x1="90.78" y1="151.29" x2="94.45" y2="151.29"/>
    <line class="cls-6" x1="90.78" y1="146.69" x2="94.45" y2="146.69"/>
    <line class="cls-6" x1="90.78" y1="142.1" x2="94.45" y2="142.1"/>
    <line class="cls-6" x1="90.78" y1="137.5" x2="94.45" y2="137.5"/>
    <line class="cls-6" x1="90.78" y1="132.91" x2="94.45" y2="132.91"/>
    <line class="cls-6" x1="90.78" y1="128.31" x2="94.45" y2="128.31"/>
    <line class="cls-5" x1="179.48" y1="108.49" x2="177.62" y2="108.49"/>
    <line class="cls-5" x1="175.52" y1="108.49" x2="173.66" y2="108.49"/>
    <line class="cls-5" x1="171.57" y1="108.49" x2="169.7" y2="108.49"/>
    <line class="cls-6" x1="98.75" y1="165.19" x2="102.42" y2="165.19"/>
    <line class="cls-6" x1="108.89" y1="165.19" x2="112.56" y2="165.19"/>
    <line class="cls-6" x1="119.03" y1="165.19" x2="122.7" y2="165.19"/>
    <line class="cls-6" x1="129.17" y1="165.19" x2="132.84" y2="165.19"/>
    <line class="cls-6" x1="139.3" y1="165.19" x2="142.97" y2="165.19"/>
    <line class="cls-6" x1="149.44" y1="165.19" x2="153.11" y2="165.19"/>
    <line class="cls-6" x1="159.58" y1="165.19" x2="163.25" y2="165.19"/>
    <line class="cls-6" x1="169.72" y1="165.19" x2="173.39" y2="165.19"/>
  </g>
  <g>
    <path class="cls-2" d="m37.87,151.8v13.97H3.47c-2.89,0-3.37-5.2-.78-7.76l21.59-9.18s3.24,8.14,13.58,2.97Z"/>
    <path class="cls-1" d="m37.87,152.17v9.98H3.47c-2.89,0-3.37-2.98-.78-4.8l21.35-8.52s3.48,7.04,13.83,3.34Z"/>
    <path class="cls-7" d="m37.87,151.8v13.97H3.47c-2.89,0-3.37-5.2-.78-7.76l21.59-9.18s3.24,8.14,13.58,2.97Z"/>
  </g>
  <line class="cls-7" x1="24.29" y1="148.83" x2="42.71" y2="126.26"/>
  <line class="cls-7" x1="37.87" y1="151.8" x2="57.45" y2="136.35"/>
  <g>
    <path class="cls-2" d="m82.96,99.25l8.38,11.17-27.52,20.64c-2.31,1.73-5.82-2.14-5.28-5.74l11.77-20.3s7.48,4.57,12.65-5.77Z"/>
    <path class="cls-1" d="m83.18,99.54l5.99,7.98-27.52,20.64c-2.31,1.73-4.48-.36-3.5-3.37l11.96-19.62s7.01,3.54,13.07-5.62Z"/>
    <path class="cls-7" d="m82.96,99.25l8.38,11.17-27.52,20.64c-2.31,1.73-5.82-2.14-5.28-5.74l11.77-20.3s7.48,4.57,12.65-5.77Z"/>
  </g>
  <line class="cls-7" x1="70.31" y1="105.02" x2="71.27" y2="74.4"/>
  <line class="cls-7" x1="82.96" y1="99.25" x2="90.98" y2="75.37"/>
  <path class="cls-7" d="m93.88,73.96l-22.61.44,1.64-11.25c4.41-8.82,16.2-10.67,23.1-3.63l28.47,29.07"/>
  <path class="cls-7" d="m89.44,81.94l18.62,22.61h18.18s7.09-.44,7.54-11.53"/>
  <polyline class="cls-7" points="63.73 131.05 57.41 136.37 42.94 125.89 70.27 93.14"/>
  <g>
    <path d="m90.24,3.74s-10.48,4.37-2.84,17.25c7.64,12.88,2.84-17.25,2.84-17.25Z"/>
    <path class="cls-3" d="m95.04,31.25l6.33,15.28,7.86-3.06s2.18-20.96-2.84-25.76c-5.02-4.8-23.58-20.09-11.35,13.54Z"/>
    <path class="cls-3" d="m92.13,6l-7.13,23.72s-2.18,9.39,5.89,8.73c8.08-.65,10.7-5.68,10.7-5.68"/>
    <path d="m90.24,3.74l25.11,6.33,16.81,50.22s-24.89-3.49-26.85-13.75c-1.96-10.26-1.75-24.45-1.75-24.45,0,0-16.37,3.71-13.32-18.34Z"/>
    <path class="cls-2" d="m103.01,22.3c1.09-.22,3.49-2.07,4.58-.65,2.05,2.67.66,4.58.66,4.58l-2.26,2.26c-.46.46-1.02.81-1.64,1.01-.78.25-1.74.41-1.99-.21-.44-1.09.66-6.99.66-6.99Z"/>
    <path class="cls-7" d="m103.56,26.88s.6-3.44,2.62-3.49"/>
    <path class="cls-7" d="m91.7,20.19l-3.12,4.76c-.58.88-.37,2.06.47,2.7l1.12.84"/>
    <path class="cls-7" d="m89.73,33.07s3.27,1.75,4.37-1.53"/>
  </g>
  <line class="cls-8" x1="38.21" y1="21" x2="58.21" y2="1"/>
  <circle class="cls-8" cx="42.21" cy="5" r="4"/>
  <circle class="cls-8" cx="53.21" cy="17" r="4"/>
  <polyline class="cls-8" points="58.21 9 58.21 1 50.21 1"/>
</svg>