<?xml version="1.0" encoding="UTF-8"?>
<svg id="Layer_2" data-name="Layer 2" xmlns="http://www.w3.org/2000/svg" viewBox="0 0 242.67 281.94">
  <defs>
    <style>
      .cls-1 {
        fill: #52d2d8;
      }

      .cls-1, .cls-2, .cls-3 {
        stroke-width: 0px;
      }

      .cls-2 {
        fill: #080717;
      }

      .cls-3 {
        fill: #fff;
      }
    </style>
  </defs>
  <path class="cls-2" d="M133.54,235.28c-2.32,0-50.94,9.5-85.55,16.32-18.26,3.6-35.54-9.61-36.86-28.18l-4.74-66.68c-1.27-17.89,9.95-34.31,27.09-39.61l61.77-19.12,56.57,2.59c14.06.64,27.1,7.49,35.62,18.69l37.13,48.8-91.03,67.19Z"/>
  <g>
    <g>
      <path class="cls-3" d="M74.75,105.19l-6.37-20.22,33.66-10.61,8.15,25.85c3.36-.08,6.68-.05,9.97.08-.79,18.16-10.23,32.68-23.21,34.04-12.63,1.32-24.56-10.25-29.37-27.09,2.35-.75,4.75-1.42,7.17-2.06Z"/>
      <path class="cls-2" d="M95,135.52c-12.15,0-23.66-11.17-28.46-27.98-.16-.56.15-1.15.71-1.33,1.84-.59,3.85-1.17,6.12-1.78l-6.03-19.14c-.09-.27-.06-.57.07-.83.13-.26.36-.45.64-.53l33.66-10.61c.27-.08.57-.06.83.07.26.13.45.36.53.64l7.9,25.08c3.04-.06,6.14-.02,9.22.1.29.01.56.14.76.35.2.21.3.49.29.78-.83,18.94-11,33.69-24.18,35.07-.69.07-1.38.11-2.06.11ZM68.92,107.96c4.95,16.15,16.33,26.48,27.91,25.29,11.86-1.24,21.07-14.58,22.18-31.91-2.95-.09-5.91-.11-8.8-.04-.52.01-.92-.3-1.06-.76l-7.82-24.82-31.59,9.95,6.04,19.18c.09.28.06.59-.08.85-.14.26-.39.45-.68.53-2.27.6-4.28,1.16-6.1,1.73Z"/>
    </g>
    <path class="cls-2" d="M75.77,108.44l-7.4-23.47,21.38-6.74,9.36,5.87c-2.49,10.66-10.63,19.51-23.34,24.33Z"/>
    <path class="cls-2" d="M73.79,86.86h0c-19.95.71-36.69-14.88-37.41-34.83l-.07-1.92c-.71-19.95,14.88-36.69,34.83-37.41h0c19.95-.71,36.69,14.88,37.41,34.83l.07,1.92c.71,19.95-14.88,36.69-34.83,37.41Z"/>
    <path class="cls-2" d="M82.24,75.61h0c-16.65.59-30.62-12.42-31.22-29.07l-.22-6.17c-.59-16.65,12.42-30.62,29.07-31.22h0c16.65-.59,30.62,12.42,31.22,29.07l.22,6.17c.59,16.65-12.42,30.62-29.07,31.22Z"/>
    <path class="cls-2" d="M113.63,34.9c-.49,0-.93-.33-1.05-.82-2.16-8.65-6.57-15.01-13.12-18.9-6.91-4.11-16.23-5.21-24.92-2.96-.58.15-1.17-.2-1.32-.78-.15-.58.2-1.17.78-1.32,9.24-2.4,19.17-1.2,26.58,3.19,7.06,4.2,11.81,11.01,14.12,20.24.15.58-.21,1.17-.79,1.32-.09.02-.18.03-.26.03Z"/>
    <g>
      <path class="cls-3" d="M106.31,53.96l6.45-2.17c3.94-1.33,6.06-5.59,4.73-9.53h0c-1.33-3.94-5.59-6.06-9.53-4.73l-6.45,2.17c-3.94,1.33-6.06,5.59-4.73,9.53h0c1.33,3.94,5.59,6.06,9.53,4.73Z"/>
      <path class="cls-2" d="M103.91,55.44c-3.6,0-6.96-2.27-8.17-5.87-1.51-4.5.92-9.4,5.42-10.91l6.45-2.17c4.5-1.52,9.4.92,10.91,5.42,1.51,4.5-.92,9.4-5.42,10.91l-6.45,2.17c-.91.3-1.83.45-2.74.45ZM110.35,38.21c-.68,0-1.37.11-2.05.34l-6.45,2.17c-3.37,1.13-5.18,4.79-4.05,8.16.55,1.63,1.7,2.95,3.24,3.71,1.54.76,3.29.88,4.92.34h0l6.45-2.17c3.37-1.13,5.18-4.79,4.05-8.16-.9-2.69-3.42-4.39-6.11-4.39Z"/>
    </g>
    <g>
      <path class="cls-3" d="M50.67,70.41l-6.81.12c-4.16.07-7.58-3.24-7.66-7.4h0c-.07-4.16,3.24-7.58,7.4-7.66l6.81-.12c4.16-.07,7.58,3.24,7.66,7.4h0c.07,4.16-3.24,7.58-7.4,7.66Z"/>
      <path class="cls-2" d="M43.72,71.61c-2.24,0-4.36-.86-5.98-2.42-1.65-1.6-2.59-3.75-2.63-6.05-.08-4.75,3.72-8.68,8.46-8.76l6.81-.12c2.28-.03,4.48.82,6.13,2.42,1.65,1.6,2.59,3.75,2.63,6.05.04,2.3-.82,4.48-2.42,6.13-1.6,1.65-3.75,2.59-6.05,2.63l-6.81.12c-.05,0-.1,0-.15,0ZM50.54,56.44s-.08,0-.11,0l-6.81.12c-3.55.06-6.39,3-6.33,6.55.03,1.72.73,3.33,1.96,4.52,1.24,1.2,2.86,1.84,4.59,1.81l6.81-.12h0c1.72-.03,3.33-.73,4.52-1.96,1.2-1.24,1.84-2.87,1.81-4.59-.03-1.72-.73-3.33-1.96-4.52-1.21-1.17-2.79-1.81-4.47-1.81Z"/>
    </g>
    <g>
      <path class="cls-3" d="M80.66,96.18h0c-17.29.62-31.8-12.9-32.42-30.19l-.35-9.94c-.62-17.29,12.9-31.8,30.19-32.42h0c17.29-.62,31.8,12.9,32.42,30.19l.35,9.94c.62,17.29-12.9,31.8-30.19,32.42Z"/>
      <path class="cls-2" d="M79.53,97.28c-17.34,0-31.75-13.79-32.38-31.26l-.35-9.94c-.64-17.86,13.38-32.91,31.24-33.54,8.66-.31,16.91,2.77,23.24,8.67,6.34,5.9,9.99,13.91,10.3,22.57l.35,9.94c.31,8.65-2.77,16.91-8.67,23.24-5.9,6.34-13.91,10-22.56,10.3-.39.01-.78.02-1.17.02ZM80.62,95.09l.04,1.09-.04-1.09c8.07-.29,15.55-3.7,21.05-9.61,5.5-5.91,8.38-13.61,8.09-21.68l-.35-9.94c-.29-8.07-3.7-15.55-9.61-21.05-5.91-5.5-13.61-8.38-21.68-8.09-16.66.59-29.74,14.63-29.14,31.3l.35,9.94c.59,16.66,14.63,29.72,31.3,29.14Z"/>
    </g>
    <path class="cls-2" d="M46.31,55.13v.05c5.26-3.84,8.79-16.68,8.25-31.79v-.05c-5.26,3.84-8.79,16.68-8.25,31.79Z"/>
    <path class="cls-2" d="M109.58,48.54c-.51,0-.96-.35-1.06-.87-1.01-4.94,2.94-7.57,3.11-7.68.5-.33,1.18-.18,1.5.32.33.5.19,1.17-.32,1.5-.13.09-2.87,1.96-2.17,5.43.12.59-.26,1.16-.85,1.28-.07.01-.15.02-.22.02Z"/>
    <path class="cls-2" d="M47.17,66.27c-.53,0-1-.39-1.07-.93-.5-3.54-3.82-4.37-3.86-4.38-.58-.14-.94-.73-.8-1.31.14-.58.73-.94,1.31-.8.2.05,4.79,1.2,5.5,6.19.08.59-.33,1.14-.92,1.23-.05,0-.1.01-.15.01Z"/>
    <path class="cls-2" d="M69.51,47.86c.49,1.15-1.7,3.19-4.89,4.55-3.19,1.36-6.18,1.53-6.67.38-.49-1.15,1.7-3.19,4.89-4.55,3.19-1.36,6.18-1.53,6.67-.38Z"/>
    <path class="cls-2" d="M92.71,45.36c-.04,1.25-2.89,2.18-6.36,2.06s-6.25-1.22-6.21-2.48,2.89-2.18,6.36-2.06c3.47.11,6.25,1.22,6.21,2.48Z"/>
    <path class="cls-2" d="M79.48,67.03s-.05,0-.07,0c-1.46-.1-2.82-.81-3.72-1.96-.91-1.15-1.28-2.63-1.04-4.07l1.37-8.09c.1-.59.66-.98,1.25-.89.59.1.99.66.89,1.25l-1.37,8.09c-.14.85.07,1.69.6,2.37.53.68,1.3,1.08,2.16,1.14.6.04,1.05.56,1.01,1.16-.04.57-.52,1.01-1.08,1.01Z"/>
    <path class="cls-2" d="M84.6,81.4c-.81,0-1.65-.15-2.53-.46-.57-.2-.87-.82-.67-1.38.2-.57.82-.86,1.38-.67,1.43.5,2.65.45,3.72-.17,2.63-1.51,3.5-5.83,3.5-5.88.11-.59.69-.96,1.27-.86.59.11.97.68.86,1.27-.04.22-1.06,5.34-4.55,7.35-.92.53-1.93.8-2.99.8Z"/>
    <path class="cls-2" d="M87.95,16.87c6.22,1.85,11.68,4.38,15.73,7.11-.1,1.13-.3,2.25-.63,3.36-1.56,5.26-5.52,9.31-10.76,11.69-3.23-.42-6.7-1.15-10.25-2.2-14.35-4.26-24.65-12.17-23.02-17.68,1.63-5.51,14.59-6.52,28.94-2.26Z"/>
    <path class="cls-2" d="M44.55,35.02c-3.65,5.36-4.45,11.17-3.1,15.87,1.1.25,2.23.4,3.39.43,5.49.13,10.55-2.4,14.43-6.65-1.57-3.47.28-10.53,4.98-15.94,9.81-11.3-8.74-9.82-19.69,6.29Z"/>
    <path class="cls-2" d="M87.5,54.65c.17,2.11-.79,3.92-2.13,4.02s-2.57-1.52-2.74-3.64c-.17-2.11.79-3.92,2.13-4.02s2.57,1.52,2.74,3.64Z"/>
    <path class="cls-2" d="M67.87,60.12c.17,2.11-.79,3.92-2.13,4.02-1.35.11-2.57-1.52-2.74-3.64-.17-2.11.79-3.92,2.13-4.02s2.57,1.52,2.74,3.64Z"/>
    <path class="cls-2" d="M64.39,17.55c-.55,0-1.02-.42-1.08-.98-.55-5.61,5.55-8.79,5.81-8.92.53-.27,1.19-.06,1.46.47.27.53.06,1.19-.47,1.46-.05.03-5.05,2.64-4.64,6.77.06.6-.38,1.13-.97,1.19-.04,0-.07,0-.11,0Z"/>
    <path class="cls-2" d="M63.91,15.13c-.51,0-.96-.36-1.06-.87-.38-1.89-1.77-2.02-2.05-2.03-.59-.02-1.07-.51-1.06-1.1,0-.59.48-1.07,1.08-1.07h0c1.18,0,3.57.79,4.16,3.78.12.59-.26,1.16-.85,1.28-.07.01-.14.02-.21.02Z"/>
    <path class="cls-2" d="M84.02,40.89c-.07,0-.13,0-.2-.02-9.01-1.68-15.93-5.76-20.56-12.15-.35-.49-.24-1.16.24-1.52.49-.35,1.16-.24,1.52.24,4.29,5.92,10.75,9.72,19.2,11.29.59.11.98.68.87,1.27-.1.52-.55.89-1.07.89Z"/>
    <polygon class="cls-2" points="105.75 30.16 107.29 50.42 104.03 51.42 94.97 28.33 105.75 30.16"/>
  </g>
  <g>
    <rect class="cls-1" x="39.48" y="124.02" width="153.88" height="153.88" rx="14.43" ry="14.43"/>
    <polygon class="cls-1" points="188.55 180.12 188.55 221.8 236.63 263.47 236.63 138.44 188.55 180.12"/>
    <polygon class="cls-1" points="188.55 180.12 188.55 221.8 236.63 263.47 236.63 205.12 198.16 171.78 188.55 180.12"/>
    <polygon class="cls-3" points="106.8 176.91 106.8 225 140.46 200.96 106.8 176.91"/>
  </g>
  <g>
    <path class="cls-3" d="M144.53,119.27l-2.43-3.49c-.87-1.25-2.3-2-3.83-2h-4.93c-1.82,0-3.47,1.06-4.24,2.71l-2.12,4.59c-.61,1.32-.57,2.84.11,4.13l3.74,7.11h6.49c1.65,0,3.18-.87,4.02-2.29l3.38-5.72c.93-1.57.86-3.54-.19-5.04Z"/>
    <path class="cls-2" d="M137.32,133.42h-6.49c-.4,0-.77-.22-.96-.58l-3.74-7.11c-.83-1.57-.88-3.48-.13-5.09l2.12-4.59c.94-2.03,2.99-3.34,5.22-3.34h4.93c1.88,0,3.65.92,4.72,2.46l2.43,3.49c1.28,1.84,1.38,4.28.23,6.22l-3.38,5.72c-1.03,1.74-2.93,2.83-4.95,2.83ZM131.49,131.24h5.83c1.26,0,2.44-.67,3.08-1.76l3.38-5.72c.71-1.2.65-2.72-.15-3.87h0s-2.43-3.49-2.43-3.49c-.67-.96-1.77-1.53-2.94-1.53h-4.93c-1.39,0-2.67.82-3.25,2.08l-2.12,4.59c-.46,1-.43,2.19.08,3.17l3.44,6.53Z"/>
  </g>
  <g>
    <path class="cls-3" d="M149.41,122.88l8.51.07-5.45-5.7c-2.1-2.2-4.93-3.57-7.97-3.85h0c-2.7-.25-5.22,1.38-6.08,3.95l-7.74,21.89,5.61.33c2.9.17,5.63-1.38,6.97-3.96l6.15-12.73Z"/>
    <path class="cls-2" d="M136.72,140.67c-.17,0-.33,0-.5-.01l-5.61-.33c-.34-.02-.65-.2-.84-.48-.19-.28-.23-.64-.12-.96l7.74-21.89c1.03-3.05,4-4.96,7.21-4.67,3.29.31,6.36,1.79,8.65,4.18l5.45,5.7c.3.32.38.78.21,1.18-.17.4-.53.64-1.01.66l-7.83-.06-5.85,12.11c-1.47,2.83-4.38,4.58-7.52,4.58ZM132.19,138.24l4.16.25c2.47.16,4.8-1.18,5.94-3.37l6.13-12.7c.18-.38.56-.61.98-.61h0l5.95.05-3.67-3.84c-1.92-2.01-4.51-3.26-7.28-3.52-2.21-.22-4.24,1.12-4.95,3.22l-7.27,20.54Z"/>
  </g>
  <g>
    <path class="cls-3" d="M160.61,122.97l8.51.07-5.45-5.7c-2.1-2.2-4.93-3.57-7.97-3.85h0c-2.7-.25-5.22,1.38-6.08,3.95l-7,20.03,5.61.33c2.9.17,5.63-1.38,6.97-3.96l5.4-10.87Z"/>
    <path class="cls-2" d="M148.66,138.89c-.17,0-.33,0-.5-.01l-5.6-.33c-.34-.02-.65-.2-.84-.48-.19-.28-.23-.64-.12-.96l7-20.03c1.03-3.05,4-4.96,7.21-4.68,3.29.31,6.36,1.79,8.65,4.19l5.45,5.7c.3.32.39.78.21,1.18-.17.4-.56.66-1,.66h0l-7.84-.06-5.1,10.26c-1.47,2.82-4.38,4.57-7.51,4.57ZM144.13,136.46l4.17.25c2.47.14,4.8-1.18,5.94-3.37l5.4-10.85c.18-.37.56-.6.97-.6h0l5.95.05-3.67-3.84c-1.92-2.01-4.51-3.26-7.28-3.52-2.22-.22-4.24,1.12-4.95,3.22l-6.53,18.68Z"/>
  </g>
  <g>
    <path class="cls-3" d="M171.25,123.05l8.51.07-5.45-5.7c-2.1-2.2-4.93-3.57-7.97-3.85h0c-2.7-.25-5.22,1.38-6.08,3.95l-5.87,17.38,5.61.33c2.9.17,5.63-1.38,6.97-3.96l4.28-8.22Z"/>
    <path class="cls-2" d="M160.44,136.33c-.17,0-.33,0-.5-.01l-5.6-.33c-.34-.02-.65-.2-.84-.48-.19-.28-.24-.63-.13-.95l5.87-17.38c1.03-3.06,4-4.98,7.21-4.69,3.29.31,6.36,1.79,8.65,4.18l5.45,5.7c.3.32.39.78.21,1.18-.17.4-.56.66-1,.66h0l-7.85-.06-3.97,7.63c-1.46,2.8-4.37,4.55-7.5,4.55ZM155.88,133.9l4.18.25c2.47.15,4.8-1.18,5.94-3.37l4.28-8.22c.19-.36.53-.59.97-.58l5.95.05-3.67-3.84c-1.92-2.01-4.51-3.26-7.28-3.52-2.22-.21-4.24,1.12-4.95,3.22l-5.42,16.03Z"/>
  </g>
  <path class="cls-3" d="M17.22,226.25c-.17,0-.35-.04-.52-.13-.53-.29-.72-.94-.44-1.47l17.26-31.98c.28-.53.94-.73,1.47-.44.53.29.72.94.44,1.47l-17.26,31.98c-.2.36-.57.57-.96.57Z"/>
  <g>
    <g>
      <path class="cls-3" d="M39.2,161.5l.06,7.47-5-4.78c-1.93-1.85-3.13-4.33-3.38-6.99h0c-.22-2.37.62-3.59,3.47-5.34l15.07-8.53.68,3.54c.48,2.53-.39,5.12-2.29,6.85l-8.59,7.77Z"/>
      <path class="cls-2" d="M39.26,170.06c-.27,0-.54-.1-.75-.3l-5-4.78c-2.12-2.03-3.44-4.75-3.71-7.67-.29-3.12,1.17-4.64,3.98-6.36l15.1-8.54c.3-.17.67-.19.99-.04.32.15.54.44.61.78l.68,3.54c.55,2.88-.46,5.89-2.63,7.86l-8.23,7.44.05,6.98c0,.44-.25.83-.66,1.01-.14.06-.29.09-.43.09ZM48.63,145.03l-13.75,7.78c-2.66,1.63-3.08,2.54-2.92,4.29.22,2.4,1.31,4.64,3.05,6.3l3.14,3.01-.04-4.9c0-.31.13-.61.36-.81l8.59-7.77c1.62-1.46,2.37-3.7,1.96-5.84l-.39-2.06Z"/>
    </g>
    <g>
      <path class="cls-3" d="M39.28,171.33l.06,7.47-5-4.78c-1.93-1.85-3.13-4.33-3.38-6.99h0c-.22-2.37,1.21-4.58,3.47-5.34l19.2-6.79.29,4.92c.15,2.54-1.21,4.94-3.47,6.12l-11.17,5.39Z"/>
      <path class="cls-2" d="M39.34,179.88c-.27,0-.54-.1-.75-.3l-5-4.78c-2.12-2.03-3.44-4.75-3.71-7.67-.27-2.88,1.46-5.54,4.2-6.47l19.19-6.79c.32-.12.68-.07.96.12.28.19.46.5.48.84l.29,4.92c.18,2.97-1.42,5.77-4.05,7.14l-10.58,5.11.05,6.78c0,.44-.26.83-.66,1.01-.14.06-.29.09-.43.09ZM52.63,156.41l-17.84,6.31c-1.8.61-2.92,2.34-2.75,4.21.22,2.4,1.31,4.64,3.05,6.3l3.14,3-.04-4.9c0-.42.24-.8.61-.99l11.17-5.39c1.85-.96,2.98-2.96,2.86-5.07l-.2-3.48Z"/>
    </g>
    <g>
      <path class="cls-3" d="M39.35,181.15l.06,7.47-5-4.78c-1.93-1.85-3.13-4.33-3.38-6.99h0c-.22-2.37,1.21-4.58,3.47-5.34l17.57-6.14.29,4.92c.15,2.54-1.21,4.94-3.47,6.12l-9.53,4.74Z"/>
      <path class="cls-2" d="M39.41,189.71c-.27,0-.54-.1-.75-.3l-5-4.78c-2.12-2.03-3.44-4.75-3.71-7.67-.27-2.88,1.46-5.54,4.2-6.47l17.56-6.14c.32-.11.68-.07.96.12.28.19.46.5.48.84l.29,4.92c.18,2.97-1.42,5.77-4.05,7.14l-8.94,4.45.05,6.79c0,.44-.25.83-.66,1.01-.14.06-.29.09-.43.09ZM51.07,166.88l-16.21,5.67c-1.79.61-2.92,2.34-2.74,4.21.22,2.4,1.31,4.64,3.05,6.3l3.14,3-.04-4.9c0-.42.23-.8.6-.98l9.53-4.74c1.86-.97,2.99-2.97,2.87-5.08l-.21-3.48Z"/>
    </g>
    <g>
      <path class="cls-3" d="M39.43,190.49l.06,7.47-5-4.78c-1.93-1.85-3.13-4.33-3.38-6.99h0c-.22-2.37,1.21-4.58,3.47-5.34l15.25-5.15.29,4.92c.15,2.54-1.21,4.94-3.47,6.12l-7.21,3.75Z"/>
      <path class="cls-2" d="M39.48,199.05c-.27,0-.54-.1-.75-.3l-5-4.78c-2.12-2.03-3.44-4.75-3.71-7.67-.27-2.88,1.46-5.54,4.2-6.47l15.25-5.15c.32-.11.67-.06.95.13.28.19.46.5.48.84l.29,4.92c.18,2.97-1.42,5.77-4.05,7.14l-6.62,3.45.05,6.8c0,.44-.26.83-.66,1.01-.14.06-.29.09-.43.09ZM48.82,177.19l-13.9,4.7c-1.78.6-2.91,2.33-2.73,4.21.22,2.4,1.31,4.64,3.05,6.3l3.14,3.01-.04-4.9c0-.41.22-.78.59-.97l7.21-3.75c1.88-.98,3.01-2.98,2.89-5.09l-.21-3.5Z"/>
    </g>
  </g>
</svg>