<?xml version="1.0" encoding="UTF-8"?>
<svg id="Letter_Head" data-name="Letter Head" xmlns="http://www.w3.org/2000/svg" xmlns:xlink="http://www.w3.org/1999/xlink" viewBox="0 0 272.7 46.61">
  <defs>
    <style>
      .cls-1 {
        fill: #fff;
      }

      .cls-2 {
        fill: url(#linear-gradient-5);
      }

      .cls-2, .cls-3, .cls-4, .cls-5, .cls-6 {
        stroke: #062349;
        stroke-miterlimit: 10;
      }

      .cls-3 {
        fill: url(#linear-gradient-3);
      }

      .cls-4 {
        fill: url(#linear-gradient-4);
      }

      .cls-5 {
        fill: url(#linear-gradient-2);
      }

      .cls-6 {
        fill: url(#linear-gradient);
      }
    </style>
    <linearGradient id="linear-gradient" x1="6.46" y1="30.13" x2="46.12" y2="30.13" gradientUnits="userSpaceOnUse">
      <stop offset="0" stop-color="#ff580a"/>
      <stop offset=".5" stop-color="#fa9441"/>
      <stop offset="1" stop-color="#ffbe2e"/>
    </linearGradient>
    <linearGradient id="linear-gradient-2" x1=".56" y1="26.93" x2="44.2" y2="26.93" xlink:href="#linear-gradient"/>
    <linearGradient id="linear-gradient-3" x1=".51" y1="19.54" x2="44.09" y2="19.54" xlink:href="#linear-gradient"/>
    <linearGradient id="linear-gradient-4" x1="4.77" y1="9.76" x2="43.79" y2="9.76" xlink:href="#linear-gradient"/>
    <linearGradient id="linear-gradient-5" x1="17.68" y1="6.74" x2="43.64" y2="6.74" xlink:href="#linear-gradient"/>
  </defs>
  <g>
    <path class="cls-1" d="m54.37,19.71h-1.1V5.68h1.1v14.03Z"/>
    <path class="cls-1" d="m66.52,19.71h-1.1l-6.62-11.95v11.95h-1.11V5.68h1.11l6.63,11.97V5.68h1.09v14.03Z"/>
    <path class="cls-1" d="m76.16,13.17h-5.4v6.53h-1.1V5.68h7.31v1.04h-6.21v5.42h5.4v1.04Z"/>
    <path class="cls-1" d="m87.84,14.22c0,1.81-.4,3.21-1.19,4.2-.79.99-1.91,1.48-3.34,1.48s-2.53-.49-3.34-1.48c-.81-.99-1.21-2.38-1.22-4.17v-3.06c0-1.81.4-3.21,1.2-4.21s1.91-1.5,3.33-1.5,2.56.5,3.35,1.5c.8,1,1.19,2.41,1.19,4.23v3Zm-1.11-3.05c0-1.54-.3-2.69-.89-3.46s-1.44-1.16-2.55-1.16-1.91.38-2.52,1.13c-.6.75-.91,1.88-.93,3.39v3.14c0,1.54.31,2.7.92,3.47.61.77,1.46,1.16,2.54,1.16s1.97-.39,2.55-1.16.87-1.93.87-3.48v-3.05Z"/>
    <path class="cls-1" d="m94.95,13.87h-3.28v5.84h-1.11V5.68h3.85c1.28,0,2.27.36,2.97,1.09s1.06,1.74,1.06,3.04c0,.91-.22,1.7-.65,2.39-.44.68-1.03,1.16-1.76,1.42l2.92,5.97v.13h-1.18l-2.81-5.84Zm-3.28-1.02h2.93c.83,0,1.49-.28,1.99-.85.49-.57.74-1.3.74-2.18,0-.98-.26-1.74-.77-2.28s-1.23-.81-2.16-.81h-2.73v6.13Z"/>
    <path class="cls-1" d="m102.69,5.68l4.25,12.35,4.27-12.35h1.46v14.03h-1.1v-6.08l.1-6.12-4.3,12.2h-.85l-4.28-12.14.1,6.02v6.12h-1.1V5.68h1.46Z"/>
    <path class="cls-1" d="m122.18,15.79h-5.26l-1.19,3.92h-1.15l4.47-14.03h1.02l4.47,14.03h-1.15l-1.21-3.92Zm-4.94-1.03h4.63l-2.31-7.53-2.31,7.53Z"/>
    <path class="cls-1" d="m133.21,6.72h-3.99v12.99h-1.11V6.72h-3.98v-1.04h9.08v1.04Z"/>
    <path class="cls-1" d="m136.57,19.71h-1.1V5.68h1.1v14.03Z"/>
    <path class="cls-1" d="m148.59,14.22c0,1.81-.4,3.21-1.19,4.2-.79.99-1.91,1.48-3.34,1.48s-2.53-.49-3.34-1.48c-.81-.99-1.21-2.38-1.22-4.17v-3.06c0-1.81.4-3.21,1.2-4.21.8-1,1.91-1.5,3.33-1.5s2.56.5,3.35,1.5c.8,1,1.19,2.41,1.19,4.23v3Zm-1.11-3.05c0-1.54-.3-2.69-.89-3.46s-1.44-1.16-2.55-1.16-1.91.38-2.52,1.13c-.6.75-.91,1.88-.93,3.39v3.14c0,1.54.31,2.7.92,3.47.61.77,1.46,1.16,2.54,1.16s1.97-.39,2.55-1.16.87-1.93.87-3.48v-3.05Z"/>
    <path class="cls-1" d="m160.16,19.71h-1.1l-6.62-11.95v11.95h-1.11V5.68h1.11l6.63,11.97V5.68h1.09v14.03Z"/>
    <path class="cls-1" d="m175.18,6.72h-3.99v12.99h-1.11V6.72h-3.98v-1.04h9.08v1.04Z"/>
    <path class="cls-1" d="m183.78,12.99h-5.45v5.7h6.26v1.02h-7.36V5.68h7.32v1.04h-6.22v5.25h5.45v1.02Z"/>
    <path class="cls-1" d="m195.26,15.33c-.1,1.57-.53,2.73-1.27,3.46-.75.74-1.78,1.1-3.09,1.1s-2.43-.51-3.21-1.54c-.78-1.02-1.18-2.42-1.19-4.18v-3.05c0-1.77.4-3.15,1.2-4.15.8-1,1.89-1.5,3.28-1.5,1.31,0,2.33.38,3.05,1.13.72.75,1.13,1.9,1.23,3.46h-1.12c-.1-1.27-.4-2.18-.9-2.73-.5-.55-1.25-.82-2.26-.82-1.06,0-1.89.39-2.48,1.19s-.89,1.94-.89,3.44v3.01c0,1.49.29,2.65.86,3.48.57.83,1.38,1.24,2.42,1.24,1.09,0,1.88-.27,2.37-.82.49-.55.78-1.46.88-2.73h1.12Z"/>
    <path class="cls-1" d="m206.61,19.71h-1.11v-6.72h-6.59v6.72h-1.1V5.68h1.1v6.29h6.59v-6.29h1.11v14.03Z"/>
    <path class="cls-1" d="m218.58,19.71h-1.1l-6.62-11.95v11.95h-1.11V5.68h1.11l6.63,11.97V5.68h1.09v14.03Z"/>
    <path class="cls-1" d="m230.42,14.22c0,1.81-.4,3.21-1.19,4.2-.79.99-1.91,1.48-3.34,1.48s-2.53-.49-3.34-1.48c-.81-.99-1.21-2.38-1.22-4.17v-3.06c0-1.81.4-3.21,1.2-4.21.8-1,1.91-1.5,3.33-1.5s2.56.5,3.35,1.5c.8,1,1.19,2.41,1.19,4.23v3Zm-1.11-3.05c0-1.54-.3-2.69-.89-3.46s-1.44-1.16-2.55-1.16-1.91.38-2.52,1.13c-.6.75-.91,1.88-.93,3.39v3.14c0,1.54.31,2.7.92,3.47.61.77,1.46,1.16,2.54,1.16s1.97-.39,2.55-1.16.87-1.93.87-3.48v-3.05Z"/>
    <path class="cls-1" d="m234.27,18.69h5.78v1.02h-6.89V5.68h1.11v13.01Z"/>
    <path class="cls-1" d="m250.19,14.22c0,1.81-.4,3.21-1.19,4.2-.79.99-1.91,1.48-3.34,1.48s-2.53-.49-3.34-1.48c-.81-.99-1.21-2.38-1.22-4.17v-3.06c0-1.81.4-3.21,1.2-4.21s1.91-1.5,3.33-1.5,2.56.5,3.35,1.5c.8,1,1.19,2.41,1.19,4.23v3Zm-1.11-3.05c0-1.54-.3-2.69-.89-3.46s-1.44-1.16-2.55-1.16-1.91.38-2.52,1.13c-.6.75-.91,1.88-.93,3.39v3.14c0,1.54.31,2.7.92,3.47.61.77,1.46,1.16,2.54,1.16s1.97-.39,2.55-1.16.87-1.93.87-3.48v-3.05Z"/>
    <path class="cls-1" d="m261.49,18.08c-.47.6-1.06,1.06-1.77,1.36-.71.3-1.49.46-2.34.46-1.44,0-2.57-.48-3.39-1.45-.82-.96-1.25-2.3-1.28-4.01v-3.41c0-1.79.39-3.17,1.17-4.12.78-.95,1.89-1.43,3.34-1.43,1.29,0,2.3.36,3.04,1.07.73.71,1.14,1.74,1.23,3.08h-1.1c-.12-1.08-.43-1.87-.95-2.37s-1.25-.75-2.21-.75c-1.14,0-2,.38-2.57,1.14-.57.76-.85,1.88-.85,3.35v3.24c0,1.47.31,2.6.94,3.41.63.81,1.5,1.21,2.64,1.21,1.23,0,2.23-.39,3.01-1.17v-3.65h-3.07v-1.03h4.18v5.05Z"/>
    <path class="cls-1" d="m267.94,13.31l3.5-7.63h1.26l-4.22,8.75v5.28h-1.1v-5.28l-4.21-8.75h1.29l3.48,7.63Z"/>
    <path class="cls-1" d="m57.32,36.18l2.45-10.55h3.28l-4.2,14.55h-3.06l-4.17-14.55h3.26l2.44,10.55Z"/>
    <path class="cls-1" d="m68.44,40.38c-1.45,0-2.59-.43-3.4-1.3-.81-.87-1.22-2.11-1.22-3.72v-.86c0-1.71.37-3.02,1.12-3.95.75-.93,1.82-1.39,3.21-1.39s2.38.43,3.07,1.3c.69.87,1.04,2.15,1.05,3.86v1.39h-5.63c.04.8.22,1.39.53,1.76s.8.56,1.45.56c.95,0,1.74-.32,2.37-.97l1.11,1.71c-.35.48-.85.87-1.51,1.16-.66.3-1.38.44-2.15.44Zm-1.78-6.64h2.83v-.26c-.01-.65-.12-1.14-.32-1.47-.2-.33-.55-.5-1.04-.5s-.85.18-1.07.53c-.22.35-.35.92-.39,1.7Z"/>
    <path class="cls-1" d="m76.25,29.36l.08,1.07c.64-.85,1.48-1.27,2.51-1.27,1.86,0,2.81,1.3,2.87,3.91v7.11h-2.84v-6.9c0-.61-.09-1.06-.27-1.33-.18-.28-.5-.41-.96-.41-.51,0-.91.26-1.2.79v7.86h-2.84v-10.81h2.66Z"/>
    <path class="cls-1" d="m83.15,34.44c0-1.77.3-3.09.9-3.97.6-.87,1.47-1.31,2.62-1.31.83,0,1.53.36,2.08,1.08v-5.42h2.85v15.35h-2.57l-.13-1.1c-.58.87-1.33,1.3-2.24,1.3-1.13,0-2-.43-2.59-1.3-.6-.87-.9-2.14-.91-3.82v-.82Zm2.84.71c0,1.07.11,1.81.34,2.23.23.42.61.63,1.15.63s.98-.25,1.27-.75v-4.94c-.28-.53-.7-.8-1.26-.8-.52,0-.9.21-1.14.63-.24.42-.36,1.17-.36,2.24v.75Z"/>
    <path class="cls-1" d="m93.14,34.42c0-1.64.39-2.93,1.16-3.86.77-.93,1.84-1.4,3.21-1.4s2.46.47,3.23,1.4c.77.93,1.16,2.23,1.16,3.88v.69c0,1.65-.38,2.93-1.15,3.86-.77.93-1.84,1.39-3.22,1.39s-2.46-.46-3.23-1.39c-.77-.93-1.15-2.22-1.15-3.87v-.69Zm2.84.71c0,1.93.52,2.9,1.55,2.9.95,0,1.47-.81,1.54-2.42v-1.19c.01-.99-.13-1.72-.4-2.19-.27-.48-.66-.71-1.16-.71s-.85.24-1.12.71c-.27.48-.4,1.21-.4,2.19v.71Z"/>
    <path class="cls-1" d="m108.79,32.09l-.94-.08c-.77,0-1.3.34-1.57,1.02v7.15h-2.84v-10.81h2.67l.08,1.17c.45-.91,1.06-1.37,1.85-1.37.32,0,.58.04.78.13l-.03,2.8Z"/>
    <path class="cls-1" d="m118.53,25.63l2.75,10.52,2.74-10.52h3.84v14.55h-2.95v-3.94l.27-6.07-2.91,10h-2l-2.91-10,.27,6.07v3.94h-2.94v-14.55h3.84Z"/>
    <path class="cls-1" d="m135,40.18c-.08-.17-.16-.45-.24-.84-.51.69-1.19,1.04-2.06,1.04s-1.66-.3-2.25-.9-.89-1.38-.89-2.33c0-1.13.36-2.01,1.08-2.63.72-.62,1.76-.94,3.12-.95h.86v-.87c0-.49-.08-.83-.25-1.03-.17-.2-.41-.3-.73-.3-.71,0-1.06.41-1.06,1.24h-2.83c0-1,.37-1.82,1.12-2.47.75-.65,1.7-.97,2.84-.97s2.1.31,2.75.92c.65.62.97,1.5.97,2.64v5.09c.01.93.15,1.66.4,2.19v.17h-2.85Zm-1.67-2.02c.31,0,.58-.06.8-.19.22-.13.38-.28.49-.45v-2.25h-.68c-.48,0-.86.15-1.13.46-.28.31-.41.72-.41,1.23,0,.8.31,1.2.94,1.2Z"/>
    <path class="cls-1" d="m141.88,29.36l.08,1.07c.64-.85,1.48-1.27,2.51-1.27,1.86,0,2.81,1.3,2.87,3.91v7.11h-2.84v-6.9c0-.61-.09-1.06-.27-1.33-.18-.28-.5-.41-.96-.41-.51,0-.91.26-1.2.79v7.86h-2.84v-10.81h2.66Z"/>
    <path class="cls-1" d="m154.3,40.18c-.08-.17-.16-.45-.24-.84-.51.69-1.19,1.04-2.06,1.04s-1.66-.3-2.25-.9-.89-1.38-.89-2.33c0-1.13.36-2.01,1.08-2.63.72-.62,1.76-.94,3.12-.95h.86v-.87c0-.49-.08-.83-.25-1.03-.17-.2-.41-.3-.73-.3-.71,0-1.06.41-1.06,1.24h-2.83c0-1,.37-1.82,1.12-2.47.75-.65,1.7-.97,2.84-.97s2.1.31,2.75.92c.65.62.97,1.5.97,2.64v5.09c.01.93.15,1.66.4,2.19v.17h-2.85Zm-1.67-2.02c.31,0,.58-.06.8-.19.22-.13.38-.28.49-.45v-2.25h-.68c-.48,0-.86.15-1.13.46-.28.31-.41.72-.41,1.23,0,.8.31,1.2.94,1.2Z"/>
    <path class="cls-1" d="m158.26,34.44c0-1.77.32-3.09.96-3.97.64-.87,1.54-1.31,2.69-1.31.98,0,1.74.39,2.27,1.16l.11-.96h2.55v10.81c0,1.38-.39,2.43-1.16,3.16-.77.73-1.88,1.09-3.33,1.09-.59,0-1.22-.12-1.87-.35-.65-.24-1.14-.54-1.46-.9l.95-1.96c.27.28.61.51,1.04.68.43.18.83.26,1.21.26.63,0,1.09-.15,1.36-.45.28-.3.42-.79.43-1.46v-.93c-.54.71-1.24,1.06-2.11,1.06-1.15,0-2.04-.45-2.67-1.34s-.95-2.16-.96-3.79v-.8Zm2.83.71c0,1,.13,1.73.39,2.18.26.46.67.68,1.24.68s1.01-.21,1.29-.63v-5.17c-.29-.46-.72-.69-1.27-.69s-.97.23-1.24.69c-.27.46-.4,1.2-.4,2.22v.71Z"/>
    <path class="cls-1" d="m173.05,40.38c-1.45,0-2.59-.43-3.4-1.3-.81-.87-1.22-2.11-1.22-3.72v-.86c0-1.71.37-3.02,1.12-3.95.75-.93,1.82-1.39,3.21-1.39s2.38.43,3.07,1.3c.69.87,1.04,2.15,1.05,3.86v1.39h-5.63c.04.8.22,1.39.53,1.76s.8.56,1.45.56c.95,0,1.74-.32,2.37-.97l1.11,1.71c-.35.48-.85.87-1.51,1.16-.66.3-1.38.44-2.15.44Zm-1.78-6.64h2.83v-.26c-.01-.65-.12-1.14-.32-1.47-.2-.33-.55-.5-1.04-.5s-.85.18-1.07.53c-.22.35-.35.92-.39,1.7Z"/>
    <path class="cls-1" d="m180.94,29.36l.08,1c.63-.8,1.47-1.2,2.51-1.2s1.84.49,2.29,1.46c.62-.97,1.5-1.46,2.65-1.46,1.89,0,2.86,1.31,2.91,3.93v7.09h-2.83v-6.91c0-.63-.09-1.07-.26-1.34-.17-.27-.47-.4-.88-.4-.53,0-.92.32-1.18.97l.02.34v7.34h-2.83v-6.89c0-.62-.08-1.07-.25-1.34s-.46-.41-.89-.41c-.49,0-.87.26-1.16.79v7.86h-2.83v-10.81h2.65Z"/>
    <path class="cls-1" d="m197.62,40.38c-1.45,0-2.59-.43-3.4-1.3-.81-.87-1.22-2.11-1.22-3.72v-.86c0-1.71.37-3.02,1.12-3.95.75-.93,1.82-1.39,3.21-1.39s2.38.43,3.07,1.3c.69.87,1.04,2.15,1.05,3.86v1.39h-5.63c.04.8.22,1.39.53,1.76s.8.56,1.45.56c.95,0,1.74-.32,2.37-.97l1.11,1.71c-.35.48-.85.87-1.51,1.16-.66.3-1.38.44-2.15.44Zm-1.78-6.64h2.83v-.26c-.01-.65-.12-1.14-.32-1.47-.2-.33-.55-.5-1.04-.5s-.85.18-1.07.53c-.22.35-.35.92-.39,1.7Z"/>
    <path class="cls-1" d="m205.43,29.36l.08,1.07c.64-.85,1.48-1.27,2.51-1.27,1.86,0,2.81,1.3,2.87,3.91v7.11h-2.84v-6.9c0-.61-.09-1.06-.27-1.33-.18-.28-.5-.41-.96-.41-.51,0-.91.26-1.2.79v7.86h-2.84v-10.81h2.66Z"/>
    <path class="cls-1" d="m216,26.71v2.66h1.45v2.12h-1.45v5.38c0,.43.06.72.17.88.12.16.34.24.67.24.27,0,.5-.02.67-.07l-.02,2.2c-.48.18-1,.27-1.56.27-1.83,0-2.75-1.05-2.77-3.14v-5.75h-1.25v-2.12h1.25v-2.66h2.83Z"/>
    <path class="cls-1" d="m233.69,34.21c0,1.95-.46,3.47-1.38,4.55-.92,1.08-2.2,1.62-3.84,1.62s-2.92-.53-3.85-1.6-1.41-2.57-1.42-4.49v-2.49c0-2,.46-3.56,1.39-4.68s2.21-1.68,3.86-1.68,2.89.55,3.83,1.65c.93,1.1,1.41,2.65,1.42,4.64v2.49Zm-2.95-2.44c0-1.31-.19-2.29-.56-2.93-.37-.64-.95-.96-1.74-.96s-1.36.31-1.73.92c-.37.62-.57,1.55-.58,2.81v2.59c0,1.27.19,2.21.57,2.81s.97.9,1.76.9,1.34-.29,1.71-.88c.37-.59.56-1.5.57-2.74v-2.53Z"/>
    <path class="cls-1" d="m236.11,40.18v-8.7h-1.31v-2.12h1.31v-.97c0-1.19.32-2.12.94-2.78s1.48-.99,2.58-.99c.33,0,.76.07,1.28.2l-.02,2.26c-.19-.06-.42-.09-.69-.09-.84,0-1.26.5-1.26,1.5v.88h1.69v2.12h-1.69v8.7h-2.84Z"/>
    <path class="cls-1" d="m242.61,40.18v-8.7h-1.31v-2.12h1.31v-.97c0-1.19.32-2.12.94-2.78s1.48-.99,2.58-.99c.33,0,.76.07,1.28.2l-.02,2.26c-.19-.06-.42-.09-.69-.09-.84,0-1.26.5-1.26,1.5v.88h1.69v2.12h-1.69v8.7h-2.84Z"/>
    <path class="cls-1" d="m248.46,26.57c0-.44.14-.8.42-1.08s.65-.42,1.12-.42.84.14,1.12.42.42.64.42,1.08-.14.79-.41,1.08c-.28.29-.65.43-1.12.43s-.85-.14-1.12-.43c-.28-.29-.42-.65-.42-1.08Zm2.97,13.61h-2.84v-10.81h2.84v10.81Z"/>
    <path class="cls-1" d="m257.32,38.03c.82,0,1.24-.53,1.25-1.6h2.66c-.01,1.18-.38,2.13-1.09,2.86-.71.73-1.63,1.09-2.76,1.09-1.39,0-2.46-.43-3.19-1.3-.73-.87-1.11-2.14-1.12-3.83v-.86c0-1.7.36-2.99,1.08-3.89.72-.89,1.79-1.34,3.2-1.34,1.19,0,2.13.37,2.82,1.1.69.74,1.04,1.78,1.05,3.13h-2.66c0-.61-.11-1.07-.3-1.4-.19-.33-.51-.49-.96-.49-.49,0-.85.17-1.06.52-.21.35-.33,1.03-.34,2.03v1.1c0,.88.04,1.49.13,1.84s.23.61.43.77c.2.16.48.24.85.24Z"/>
    <path class="cls-1" d="m266.99,40.38c-1.45,0-2.59-.43-3.4-1.3-.81-.87-1.22-2.11-1.22-3.72v-.86c0-1.71.37-3.02,1.12-3.95.75-.93,1.82-1.39,3.21-1.39s2.38.43,3.07,1.3c.69.87,1.04,2.15,1.05,3.86v1.39h-5.63c.04.8.22,1.39.53,1.76s.8.56,1.45.56c.95,0,1.74-.32,2.37-.97l1.11,1.71c-.35.48-.85.87-1.51,1.16-.66.3-1.38.44-2.15.44Zm-1.78-6.64h2.83v-.26c-.01-.65-.12-1.14-.32-1.47-.2-.33-.55-.5-1.04-.5s-.85.18-1.07.53c-.22.35-.35.92-.39,1.7Z"/>
  </g>
  <g>
    <path class="cls-6" d="m45.87,19.94c-.31-2.05-.88-3.99-1.67-5.8-1.57,12.79-11.48,23.48-24.84,25.48-4.47.67-8.85.29-12.9-.95,4.95,5.42,12.41,8.35,20.21,7.19,12.46-1.86,21.05-13.46,19.19-25.92Z"/>
    <path class="cls-5" d="m19.36,39.62c13.36-1.99,23.27-12.69,24.84-25.48-.03-.08-.07-.16-.11-.24-4.88,7.69-12.93,13.31-22.65,14.76-7.5,1.12-14.78-.43-20.88-3.92.04.63.1,1.27.2,1.91.69,4.66,2.75,8.77,5.7,12,4.05,1.24,8.43,1.61,12.9.95Z"/>
    <path class="cls-3" d="m31.21,17.95c-9.94,1.48-19.49-1.71-26.44-7.91C1.8,14.2.21,19.35.56,24.76c6.11,3.49,13.38,5.03,20.88,3.92,9.72-1.45,17.77-7.07,22.65-14.76-.1-.22-.2-.44-.3-.65-3.71,2.35-7.95,4-12.58,4.69Z"/>
    <path class="cls-4" d="m31.21,17.95c4.63-.69,8.87-2.34,12.58-4.69-.05-.1-.1-.2-.15-.29-10.23.3-19.72-4.24-25.95-11.76-5.36,1.36-9.86,4.57-12.91,8.83,6.95,6.21,16.5,9.39,26.44,7.91Z"/>
    <path class="cls-2" d="m43.64,12.97C39.31,4.46,29.91-.73,19.95.75c-.77.11-1.53.27-2.27.46,6.24,7.52,15.73,12.06,25.95,11.76Z"/>
  </g>
</svg>