<?xml version="1.0" encoding="utf-8"?>
<svg version="1.1" xmlns:xlink="http://www.w3.org/1999/xlink" width="15px" height="12px" xmlns="http://www.w3.org/2000/svg">
  <g transform="matrix(1 0 0 1 -1175 -350 )">
    <path d="M 13.22969543147208 1.8937500000000003  C 13.819796954314722 1.8312499999999998  14.40989847715736 1.674999999999998  15 1.4250000000000003  C 14.574873096446703 2.0374999999999988  14.060913705583758 2.5593749999999997  13.458121827411167 2.9906250000000005  C 13.464467005076143 3.0781249999999996  13.467639593908629 3.2093749999999988  13.467639593908629 3.3843749999999995  C 13.467639593908629 4.196874999999999  13.347081218274113 5.007812499999999  13.105964467005077 5.817187499999999  C 12.864847715736042 6.626562499999999  12.498413705583756 7.403125  12.006662436548224 8.146875000000001  C 11.514911167512691 8.890625  10.929568527918784 9.548437499999999  10.250634517766498 10.1203125  C 9.571700507614214 10.6921875  8.753172588832488 11.1484375  7.7950507614213205 11.4890625  C 6.836928934010153 11.829687499999999  5.812182741116752 12  4.720812182741117 12  C 3.0012690355329954 12  1.4276649746192893 11.546875  0 10.640625  C 0.22208121827411179 10.665625000000002  0.4695431472081219 10.678125000000001  0.7423857868020305 10.678125000000001  C 2.1700507614213205 10.678125000000001  3.442258883248731 10.246875  4.559010152284264 9.384374999999999  C 3.8927664974619294 9.371875  3.296319796954315 9.170312499999998  2.7696700507614214 8.779687500000001  C 2.243020304568528 8.389062499999998  1.881345177664975 7.890624999999999  1.6846446700507616 7.284375000000001  C 1.8940355329949239 7.315625  2.08756345177665 7.331250000000001  2.265228426395939 7.331250000000001  C 2.5380710659898478 7.331250000000001  2.807741116751269 7.296875  3.0742385786802027 7.2281249999999995  C 2.363578680203046 7.084375  1.77506345177665 6.7359374999999995  1.3086928934010154 6.182812500000001  C 0.8423223350253808 5.629687499999999  0.6091370558375636 4.987500000000001  0.6091370558375634 4.2562500000000005  L 0.6091370558375634 4.21875  C 1.0406091370558377 4.45625  1.5038071065989846 4.584375  1.9987309644670053 4.6031249999999995  C 1.5799492385786802 4.328124999999999  1.2468274111675126 3.9687499999999996  0.9993654822335026 3.5249999999999995  C 0.7519035532994923 3.081249999999998  0.6281725888324873 2.5999999999999988  0.6281725888324873 2.0812500000000003  C 0.6281725888324873 1.5312499999999996  0.767766497461929 1.0218750000000005  1.0469543147208122 0.5531250000000005  C 1.8147208121827412 1.4843749999999996  2.749048223350254 2.2296875  3.8499365482233503 2.7890625  C 4.9508248730964475 3.3484375  6.129441624365482 3.659375  7.385786802030457 3.7218750000000003  C 7.33502538071066 3.484374999999999  7.309644670050762 3.253124999999999  7.309644670050762 3.0281249999999997  C 7.309644670050762 2.190624999999998  7.609454314720812 1.4765625  8.209073604060913 0.8859375000000003  C 8.808692893401014 0.29531250000000053  9.533629441624367 0  10.383883248730964 0  C 11.272208121827413 0  12.020939086294415 0.31875000000000053  12.63007614213198 0.9562500000000003  C 13.321700507614214 0.8249999999999997  13.972081218274111 0.5812500000000003  14.581218274111675 0.22500000000000053  C 14.346446700507617 0.9437499999999983  13.895939086294419 1.5  13.22969543147208 1.8937500000000003  Z " fill-rule="nonzero" fill="#ffffff" stroke="none" transform="matrix(1 0 0 1 1175 350 )" />
  </g>
</svg>