<?xml version="1.0" encoding="utf-8"?>
<svg version="1.1" xmlns:xlink="http://www.w3.org/1999/xlink" width="15px" height="14px" xmlns="http://www.w3.org/2000/svg">
  <g transform="matrix(1 0 0 1 -1175 -392 )">
    <path d="M 0.185546875 4.5490463215258865  L 3.408203125 4.5490463215258865  L 3.408203125 14  L 0.185546875 14  L 0.185546875 4.5490463215258865  Z M 3.115234375 0.4625340599455041  C 3.440755208333334 0.770890099909173  3.606770833333334 1.1603088101725685  3.61328125 1.6307901907356952  C 3.6197916666666665 2.0949137148047217  3.455403645833334 2.482742960944595  3.1201171875 2.794277929155313  C 2.7848307291666665 3.1058128973660297  2.34375 3.2615803814713904  1.796875 3.2615803814713904  L 1.77734375 3.2615803814713904  C 1.2434895833333335 3.2615803814713904  0.8138020833333335 3.1058128973660297  0.48828125000000006 2.794277929155313  C 0.16276041666666663 2.482742960944595  0 2.0949137148047217  0 1.6307901907356952  C 0 1.1603088101725685  0.16764322916666663 0.770890099909173  0.5029296875 0.4625340599455041  C 0.8382161458333335 0.15417801998183367  1.276041666666667 0  1.81640625 0  C 2.3567708333333335 0  2.789713541666667 0.15417801998183367  3.115234375 0.4625340599455041  Z M 13.984375 5.412125340599455  C 14.661458333333332 6.133742052679382  15 7.190735694822888  15 8.583106267029974  L 15 14  L 11.787109375 14  L 11.787109375 8.94550408719346  C 11.787109375 8.277929155313352  11.6552734375 7.754995458673933  11.3916015625 7.3767029972752045  C 11.1279296875 6.9984105358764745  10.716145833333336 6.809264305177112  10.15625 6.809264305177112  C 9.74609375 6.809264305177112  9.402669270833334 6.918937329700272  9.1259765625 7.138283378746593  C 8.849283854166668 7.357629427792916  8.642578125 7.629427792915532  8.505859375 7.953678474114442  C 8.434244791666668 8.14441416893733  8.3984375 8.401907356948229  8.3984375 8.72615803814714  L 8.3984375 14  L 5.185546875 14  C 5.198567708333334 11.463215258855584  5.205078125 9.40644868301544  5.205078125 7.829700272479565  C 5.205078125 6.2529518619436875  5.201822916666667 5.3119891008174385  5.1953125 5.006811989100817  L 5.185546875 4.5490463215258865  L 8.3984375 4.5490463215258865  L 8.3984375 5.92234332425068  L 8.37890625 5.92234332425068  C 8.509114583333334 5.7188919164396  8.642578125 5.540871934604905  8.779296875 5.3882833787465945  C 8.916015625 5.235694822888283  9.099934895833334 5.070390554041779  9.3310546875 4.892370572207084  C 9.562174479166668 4.714350590372387  9.845377604166668 4.576067211625794  10.1806640625 4.477520435967303  C 10.515950520833336 4.3789736603088105  10.888671875 4.329700272479563  11.298828125 4.329700272479563  C 12.412109375 4.329700272479563  13.307291666666666 4.690508628519527  13.984375 5.412125340599455  Z " fill-rule="nonzero" fill="#ffffff" stroke="none" transform="matrix(1 0 0 1 1175 392 )" />
  </g>
</svg>